%TF.GenerationSoftware,KiCad,Pcbnew,10.0.3-10.0.3~ubuntu26.04.1*%
%TF.CreationDate,2026-06-22T17:47:26+09:00*%
%TF.ProjectId,PowerUnit_Control,506f7765-7255-46e6-9974-5f436f6e7472,rev?*%
%TF.SameCoordinates,Original*%
%TF.FileFunction,Copper,L2,Bot*%
%TF.FilePolarity,Positive*%
%FSLAX46Y46*%
G04 Gerber Fmt 4.6, Leading zero omitted, Abs format (unit mm)*
G04 Created by KiCad (PCBNEW 10.0.3-10.0.3~ubuntu26.04.1) date 2026-06-22 17:47:26*
%MOMM*%
%LPD*%
G01*
G04 APERTURE LIST*
G04 Aperture macros list*
%AMRoundRect*
0 Rectangle with rounded corners*
0 $1 Rounding radius*
0 $2 $3 $4 $5 $6 $7 $8 $9 X,Y pos of 4 corners*
0 Add a 4 corners polygon primitive as box body*
4,1,4,$2,$3,$4,$5,$6,$7,$8,$9,$2,$3,0*
0 Add four circle primitives for the rounded corners*
1,1,$1+$1,$2,$3*
1,1,$1+$1,$4,$5*
1,1,$1+$1,$6,$7*
1,1,$1+$1,$8,$9*
0 Add four rect primitives between the rounded corners*
20,1,$1+$1,$2,$3,$4,$5,0*
20,1,$1+$1,$4,$5,$6,$7,0*
20,1,$1+$1,$6,$7,$8,$9,0*
20,1,$1+$1,$8,$9,$2,$3,0*%
G04 Aperture macros list end*
%TA.AperFunction,ComponentPad*%
%ADD10RoundRect,0.750000X0.750000X0.750000X-0.750000X0.750000X-0.750000X-0.750000X0.750000X-0.750000X0*%
%TD*%
%TA.AperFunction,ComponentPad*%
%ADD11C,3.000000*%
%TD*%
%TA.AperFunction,ComponentPad*%
%ADD12C,1.600000*%
%TD*%
%TA.AperFunction,ComponentPad*%
%ADD13RoundRect,0.250001X0.949999X-0.949999X0.949999X0.949999X-0.949999X0.949999X-0.949999X-0.949999X0*%
%TD*%
%TA.AperFunction,ComponentPad*%
%ADD14C,2.400000*%
%TD*%
%TA.AperFunction,ComponentPad*%
%ADD15RoundRect,0.450000X-0.450000X-0.950000X0.450000X-0.950000X0.450000X0.950000X-0.450000X0.950000X0*%
%TD*%
%TA.AperFunction,ComponentPad*%
%ADD16O,1.800000X2.800000*%
%TD*%
%TA.AperFunction,ComponentPad*%
%ADD17R,1.700000X1.700000*%
%TD*%
%TA.AperFunction,ComponentPad*%
%ADD18C,1.700000*%
%TD*%
%TA.AperFunction,ComponentPad*%
%ADD19C,1.400000*%
%TD*%
%TA.AperFunction,ComponentPad*%
%ADD20RoundRect,0.770000X-0.980000X-0.980000X0.980000X-0.980000X0.980000X0.980000X-0.980000X0.980000X0*%
%TD*%
%TA.AperFunction,ComponentPad*%
%ADD21C,3.500000*%
%TD*%
%TA.AperFunction,ComponentPad*%
%ADD22RoundRect,0.760000X-1.140000X-1.140000X1.140000X-1.140000X1.140000X1.140000X-1.140000X1.140000X0*%
%TD*%
%TA.AperFunction,ComponentPad*%
%ADD23C,4.000000*%
%TD*%
%TA.AperFunction,ComponentPad*%
%ADD24R,1.800000X1.800000*%
%TD*%
%TA.AperFunction,ComponentPad*%
%ADD25C,1.800000*%
%TD*%
%TA.AperFunction,ComponentPad*%
%ADD26R,1.462000X1.462000*%
%TD*%
%TA.AperFunction,ComponentPad*%
%ADD27C,1.462000*%
%TD*%
%TA.AperFunction,ComponentPad*%
%ADD28R,1.218000X1.218000*%
%TD*%
%TA.AperFunction,ComponentPad*%
%ADD29C,1.218000*%
%TD*%
%TA.AperFunction,SMDPad,CuDef*%
%ADD30RoundRect,0.250000X0.250000X0.475000X-0.250000X0.475000X-0.250000X-0.475000X0.250000X-0.475000X0*%
%TD*%
%TA.AperFunction,SMDPad,CuDef*%
%ADD31RoundRect,0.225000X0.250000X-0.225000X0.250000X0.225000X-0.250000X0.225000X-0.250000X-0.225000X0*%
%TD*%
%TA.AperFunction,SMDPad,CuDef*%
%ADD32RoundRect,0.200000X-0.275000X0.200000X-0.275000X-0.200000X0.275000X-0.200000X0.275000X0.200000X0*%
%TD*%
%TA.AperFunction,SMDPad,CuDef*%
%ADD33RoundRect,0.250000X0.650000X-0.325000X0.650000X0.325000X-0.650000X0.325000X-0.650000X-0.325000X0*%
%TD*%
%TA.AperFunction,SMDPad,CuDef*%
%ADD34RoundRect,0.225000X-0.250000X0.225000X-0.250000X-0.225000X0.250000X-0.225000X0.250000X0.225000X0*%
%TD*%
%TA.AperFunction,SMDPad,CuDef*%
%ADD35R,3.820000X3.030000*%
%TD*%
%TA.AperFunction,ViaPad*%
%ADD36C,0.900000*%
%TD*%
%TA.AperFunction,Conductor*%
%ADD37C,0.250000*%
%TD*%
%TA.AperFunction,Conductor*%
%ADD38C,1.500000*%
%TD*%
G04 APERTURE END LIST*
D10*
%TO.P,F1,1*%
%TO.N,Net-(J1-Pin_2)*%
X149000000Y-23500000D03*
X144000000Y-23500000D03*
D11*
%TO.P,F1,2*%
%TO.N,Net-(D2-A)*%
X134000000Y-23500000D03*
X129000000Y-23500000D03*
%TD*%
D12*
%TO.P,R5,1*%
%TO.N,Net-(J10-Pin_2)*%
X139145000Y-51895000D03*
%TO.P,R5,2*%
%TO.N,Net-(D6-A)*%
X139145000Y-49355000D03*
%TD*%
D13*
%TO.P,C2,1*%
%TO.N,Net-(D3-K)*%
X141050000Y-40465000D03*
D14*
%TO.P,C2,2*%
%TO.N,GND*%
X141050000Y-32965000D03*
%TD*%
D15*
%TO.P,J2,1,Pin_1_1*%
%TO.N,GND*%
X93465000Y-60785000D03*
D16*
%TO.P,J2,2,Pin_2_2*%
%TO.N,Net-(J2-Pin_2)*%
X95965000Y-60785000D03*
%TD*%
D15*
%TO.P,J7,1,Pin_1_1*%
%TO.N,GND*%
X148075000Y-62055000D03*
D16*
%TO.P,J7,2,Pin_2_2*%
%TO.N,Net-(J7-Pin_2)*%
X150575000Y-62055000D03*
%TD*%
D17*
%TO.P,J3,1,Pin_1_1*%
%TO.N,Net-(D2-K)*%
X110570000Y-34750000D03*
D18*
%TO.P,J3,2,Pin_2_2*%
X110570000Y-37290000D03*
%TO.P,J3,3,Pin_3_3*%
%TO.N,GND*%
X110570000Y-39830000D03*
%TO.P,J3,4,Pin_4_4*%
X110570000Y-42370000D03*
%TO.P,J3,5,Pin_5_5*%
%TO.N,Net-(J2-Pin_2)*%
X110570000Y-44910000D03*
%TO.P,J3,6,Pin_6_6*%
X110570000Y-47450000D03*
%TO.P,J3,7,Pin_7_7*%
%TO.N,Net-(J3-Pin_7)*%
X110570000Y-49990000D03*
%TD*%
D19*
%TO.P,J1,*%
%TO.N,*%
X153290000Y-23480000D03*
X164290000Y-23480000D03*
D20*
%TO.P,J1,1,Pin_1_1*%
%TO.N,GND*%
X161290000Y-33480000D03*
D21*
%TO.P,J1,2,Pin_2_2*%
%TO.N,Net-(J1-Pin_2)*%
X156290000Y-33480000D03*
%TD*%
D22*
%TO.P,J4,1,Pin_1_1*%
%TO.N,GND*%
X80170000Y-31575000D03*
D23*
%TO.P,J4,2,Pin_2_2*%
%TO.N,Net-(J2-Pin_2)*%
X85170000Y-31575000D03*
%TD*%
D22*
%TO.P,J5,1,Pin_1_1*%
%TO.N,GND*%
X80170000Y-43005000D03*
D23*
%TO.P,J5,2,Pin_2_2*%
%TO.N,Net-(J2-Pin_2)*%
X85170000Y-43005000D03*
%TD*%
D15*
%TO.P,J10,1,Pin_1_1*%
%TO.N,GND*%
X125850000Y-62055000D03*
D16*
%TO.P,J10,2,Pin_2_2*%
%TO.N,Net-(J10-Pin_2)*%
X128350000Y-62055000D03*
%TD*%
D15*
%TO.P,J8,1,Pin_1_1*%
%TO.N,GND*%
X158235000Y-62055000D03*
D16*
%TO.P,J8,2,Pin_2_2*%
%TO.N,Net-(J7-Pin_2)*%
X160735000Y-62055000D03*
%TD*%
D12*
%TO.P,R1,1*%
%TO.N,Net-(D2-A)*%
X168355000Y-29035000D03*
%TO.P,R1,2*%
%TO.N,Net-(D1-A)*%
X168355000Y-31575000D03*
%TD*%
D15*
%TO.P,J11,1,Pin_1_1*%
%TO.N,GND*%
X136010000Y-62055000D03*
D16*
%TO.P,J11,2,Pin_2_2*%
%TO.N,Net-(J10-Pin_2)*%
X138510000Y-62055000D03*
%TD*%
D13*
%TO.P,C6,1*%
%TO.N,Net-(D5-K)*%
X123905000Y-40465000D03*
D14*
%TO.P,C6,2*%
%TO.N,GND*%
X123905000Y-32965000D03*
%TD*%
D15*
%TO.P,J9,1,Pin_1_1*%
%TO.N,GND*%
X168500000Y-52000000D03*
D16*
%TO.P,J9,2,Pin_2_2*%
%TO.N,Net-(J7-Pin_2)*%
X171000000Y-52000000D03*
%TD*%
D24*
%TO.P,D1,1,K_1*%
%TO.N,GND*%
X170895000Y-36020000D03*
D25*
%TO.P,D1,2,A_2*%
%TO.N,Net-(D1-A)*%
X168355000Y-36020000D03*
%TD*%
D26*
%TO.P,U1,1,VI_1*%
%TO.N,Net-(D3-K)*%
X152480000Y-51895000D03*
D27*
%TO.P,U1,2,GND_2*%
%TO.N,GND*%
X155020000Y-51895000D03*
%TO.P,U1,3,VO_3*%
%TO.N,Net-(J7-Pin_2)*%
X157560000Y-51895000D03*
%TD*%
D12*
%TO.P,R4,1*%
%TO.N,Net-(J7-Pin_2)*%
X152420000Y-43040000D03*
%TO.P,R4,2*%
%TO.N,Net-(D4-A)*%
X152420000Y-40500000D03*
%TD*%
D26*
%TO.P,U2,1,VI_1*%
%TO.N,Net-(D5-K)*%
X127715000Y-51895000D03*
D27*
%TO.P,U2,2,GND_2*%
%TO.N,GND*%
X130255000Y-51895000D03*
%TO.P,U2,3,VO_3*%
%TO.N,Net-(J10-Pin_2)*%
X132795000Y-51895000D03*
%TD*%
D28*
%TO.P,RV1,1,1_1*%
%TO.N,Net-(R3-Pad1)*%
X118190000Y-63325000D03*
D29*
%TO.P,RV1,2,2_2*%
%TO.N,Net-(J3-Pin_7)*%
X118190000Y-60785000D03*
%TO.P,RV1,3,3_3*%
%TO.N,Net-(R2-Pad2)*%
X118190000Y-58245000D03*
%TD*%
D24*
%TO.P,D4,1,K_1*%
%TO.N,GND*%
X157500000Y-43040000D03*
D25*
%TO.P,D4,2,A_2*%
%TO.N,Net-(D4-A)*%
X157500000Y-40500000D03*
%TD*%
D22*
%TO.P,J6,1,Pin_1_1*%
%TO.N,GND*%
X80170000Y-55070000D03*
D23*
%TO.P,J6,2,Pin_2_2*%
%TO.N,Net-(J2-Pin_2)*%
X85170000Y-55070000D03*
%TD*%
D24*
%TO.P,D6,1,K_1*%
%TO.N,GND*%
X144225000Y-51895000D03*
D25*
%TO.P,D6,2,A_2*%
%TO.N,Net-(D6-A)*%
X144225000Y-49355000D03*
%TD*%
D30*
%TO.P,C9,1*%
%TO.N,Net-(J10-Pin_2)*%
X132795000Y-53800000D03*
%TO.P,C9,2*%
%TO.N,GND*%
X130895000Y-53800000D03*
%TD*%
D31*
%TO.P,C4,1*%
%TO.N,Net-(D3-K)*%
X135335000Y-40605000D03*
%TO.P,C4,2*%
%TO.N,GND*%
X135335000Y-39055000D03*
%TD*%
D32*
%TO.P,R3,1*%
%TO.N,Net-(R3-Pad1)*%
X116285000Y-63325000D03*
%TO.P,R3,2*%
%TO.N,GND*%
X116285000Y-64975000D03*
%TD*%
%TO.P,R2,1*%
%TO.N,Net-(J2-Pin_2)*%
X118190000Y-54055000D03*
%TO.P,R2,2*%
%TO.N,Net-(R2-Pad2)*%
X118190000Y-55705000D03*
%TD*%
D33*
%TO.P,C3,1*%
%TO.N,Net-(D3-K)*%
X137875000Y-40465000D03*
%TO.P,C3,2*%
%TO.N,GND*%
X137875000Y-37515000D03*
%TD*%
D34*
%TO.P,C1,1*%
%TO.N,Net-(D2-A)*%
X151845000Y-34750000D03*
%TO.P,C1,2*%
%TO.N,GND*%
X151845000Y-36300000D03*
%TD*%
D35*
%TO.P,D5,1,K_1*%
%TO.N,Net-(D5-K)*%
X128985000Y-40465000D03*
%TO.P,D5,2,A_2*%
%TO.N,Net-(D2-A)*%
X128985000Y-33595000D03*
%TD*%
D30*
%TO.P,C5,1*%
%TO.N,Net-(J7-Pin_2)*%
X157560000Y-53800000D03*
%TO.P,C5,2*%
%TO.N,GND*%
X155660000Y-53800000D03*
%TD*%
D33*
%TO.P,C7,1*%
%TO.N,Net-(D5-K)*%
X120730000Y-40465000D03*
%TO.P,C7,2*%
%TO.N,GND*%
X120730000Y-37515000D03*
%TD*%
D31*
%TO.P,C8,1*%
%TO.N,Net-(D5-K)*%
X118190000Y-40465000D03*
%TO.P,C8,2*%
%TO.N,GND*%
X118190000Y-38915000D03*
%TD*%
D35*
%TO.P,D2,1,K_1*%
%TO.N,Net-(D2-K)*%
X105490000Y-34115000D03*
%TO.P,D2,2,A_2*%
%TO.N,Net-(D2-A)*%
X105490000Y-27245000D03*
%TD*%
%TO.P,D3,1,K_1*%
%TO.N,Net-(D3-K)*%
X146130000Y-40465000D03*
%TO.P,D3,2,A_2*%
%TO.N,Net-(D2-A)*%
X146130000Y-33595000D03*
%TD*%
D36*
%TO.N,GND*%
X170000000Y-50000000D03*
X110000000Y-65000000D03*
X125000000Y-60000000D03*
X160000000Y-40000000D03*
X110000000Y-60000000D03*
X90000000Y-60000000D03*
X120000000Y-35000000D03*
X135000000Y-45000000D03*
X85000000Y-25000000D03*
X120000000Y-65000000D03*
X140000000Y-65000000D03*
X80000000Y-60000000D03*
X115000000Y-60000000D03*
X165000000Y-60000000D03*
X105000000Y-65000000D03*
X120000000Y-50000000D03*
X130000000Y-50000000D03*
X145000000Y-45000000D03*
X125000000Y-45000000D03*
X103000000Y-38500000D03*
X155000000Y-45000000D03*
X150000000Y-60000000D03*
X80000000Y-40000000D03*
X85000000Y-60000000D03*
X150000000Y-65000000D03*
X130000000Y-45000000D03*
X140000000Y-55000000D03*
X160000000Y-45000000D03*
X170000000Y-45000000D03*
X150000000Y-50000000D03*
X150000000Y-55000000D03*
X165000000Y-30000000D03*
X90000000Y-25000000D03*
X135000000Y-65000000D03*
X140000000Y-45000000D03*
X85000000Y-65000000D03*
X170000000Y-40000000D03*
X140000000Y-60000000D03*
X115000000Y-35000000D03*
X90000000Y-65000000D03*
X115000000Y-40000000D03*
X100000000Y-25000000D03*
X145000000Y-65000000D03*
X100000000Y-60000000D03*
X155000000Y-65000000D03*
X95000000Y-65000000D03*
X135000000Y-50000000D03*
X80000000Y-35000000D03*
X170000000Y-30000000D03*
X165000000Y-35000000D03*
X120000000Y-60000000D03*
X105000000Y-60000000D03*
X120000000Y-55000000D03*
X115000000Y-45000000D03*
X125000000Y-65000000D03*
X160000000Y-65000000D03*
X165000000Y-25000000D03*
X160000000Y-50000000D03*
X165000000Y-50000000D03*
X115000000Y-55000000D03*
X125000000Y-35000000D03*
X145000000Y-60000000D03*
X80000000Y-50000000D03*
X165000000Y-65000000D03*
X110000000Y-55000000D03*
X165000000Y-45000000D03*
X165000000Y-40000000D03*
X160000000Y-25000000D03*
X115000000Y-65000000D03*
X100000000Y-65000000D03*
X145000000Y-55000000D03*
X130000000Y-65000000D03*
X170000000Y-60000000D03*
X95000000Y-25000000D03*
X125000000Y-55000000D03*
X150000000Y-45000000D03*
%TD*%
%TO.N,Net-(D2-A)*%
D37*
X160020000Y-23923984D02*
X160020000Y-21590000D01*
X165131016Y-29035000D02*
X160020000Y-23923984D01*
X168355000Y-29035000D02*
X165131016Y-29035000D01*
X136875000Y-20625000D02*
X134000000Y-23500000D01*
X159055000Y-20625000D02*
X136875000Y-20625000D01*
X160020000Y-21590000D02*
X159055000Y-20625000D01*
%TO.N,Net-(J10-Pin_2)*%
D38*
X138510000Y-59515000D02*
X138510000Y-62055000D01*
X132795000Y-57610000D02*
X128350000Y-62055000D01*
X132795000Y-51895000D02*
X132795000Y-53800000D01*
D37*
X139145000Y-51895000D02*
X132795000Y-51895000D01*
D38*
X132795000Y-53800000D02*
X138510000Y-59515000D01*
X132795000Y-53800000D02*
X132795000Y-57610000D01*
%TO.N,Net-(D6-A)*%
D37*
X139145000Y-49355000D02*
X144225000Y-49355000D01*
%TO.N,Net-(D3-K)*%
D38*
X149381296Y-51895000D02*
X152480000Y-51895000D01*
X135335000Y-40605000D02*
X138091296Y-40605000D01*
X138091296Y-40605000D02*
X149381296Y-51895000D01*
X135475000Y-40465000D02*
X135335000Y-40605000D01*
X146130000Y-40465000D02*
X135475000Y-40465000D01*
%TO.N,Net-(J2-Pin_2)*%
D37*
X118190000Y-54055000D02*
X117175000Y-54055000D01*
X117175000Y-54055000D02*
X110570000Y-47450000D01*
X95965000Y-60785000D02*
X95965000Y-53165000D01*
X101680000Y-47450000D02*
X110570000Y-47450000D01*
X95965000Y-53165000D02*
X101680000Y-47450000D01*
%TO.N,Net-(J7-Pin_2)*%
D38*
X169537088Y-54350000D02*
X171000000Y-52887088D01*
X171000000Y-52887088D02*
X171000000Y-52000000D01*
D37*
X152420000Y-43040000D02*
X152420000Y-46755000D01*
D38*
X157560000Y-51895000D02*
X157560000Y-53800000D01*
D37*
X152420000Y-46755000D02*
X157560000Y-51895000D01*
D38*
X157560000Y-53800000D02*
X158110000Y-54350000D01*
X158110000Y-54350000D02*
X169537088Y-54350000D01*
X157560000Y-55070000D02*
X150575000Y-62055000D01*
X160735000Y-56975000D02*
X160735000Y-62055000D01*
X157560000Y-53800000D02*
X160735000Y-56975000D01*
X157560000Y-53800000D02*
X157560000Y-55070000D01*
%TO.N,Net-(J3-Pin_7)*%
D37*
X110570000Y-49990000D02*
X110570000Y-53165000D01*
X110570000Y-53165000D02*
X118190000Y-60785000D01*
%TO.N,Net-(D1-A)*%
X168355000Y-31575000D02*
X168355000Y-36020000D01*
%TO.N,Net-(D5-K)*%
D38*
X118190000Y-42370000D02*
X127715000Y-51895000D01*
X118190000Y-40465000D02*
X118190000Y-42370000D01*
X128985000Y-40465000D02*
X118190000Y-40465000D01*
%TO.N,Net-(D4-A)*%
D37*
X152420000Y-40500000D02*
X157500000Y-40500000D01*
%TO.N,Net-(R3-Pad1)*%
X118190000Y-63325000D02*
X116285000Y-63325000D01*
%TO.N,Net-(R2-Pad2)*%
X118190000Y-58245000D02*
X118190000Y-55705000D01*
%TD*%
%TA.AperFunction,Conductor*%
%TO.N,Net-(D2-K)*%
G36*
X111148039Y-31594685D02*
G01*
X111193794Y-31647489D01*
X111205000Y-31699000D01*
X111205000Y-37801000D01*
X111185315Y-37868039D01*
X111132511Y-37913794D01*
X111081000Y-37925000D01*
X103709000Y-37925000D01*
X103641961Y-37905315D01*
X103596206Y-37852511D01*
X103585000Y-37801000D01*
X103585000Y-31699000D01*
X103604685Y-31631961D01*
X103657489Y-31586206D01*
X103709000Y-31575000D01*
X111081000Y-31575000D01*
X111148039Y-31594685D01*
G37*
%TD.AperFunction*%
%TD*%
%TA.AperFunction,Conductor*%
%TO.N,Net-(J2-Pin_2)*%
G36*
X100645740Y-29040021D02*
G01*
X100670984Y-29047434D01*
X100723730Y-29078730D01*
X101631074Y-29986074D01*
X101652223Y-30014325D01*
X101664831Y-30037414D01*
X101680000Y-30096843D01*
X101680000Y-39830000D01*
X107595808Y-39830000D01*
X107630740Y-39835021D01*
X107655984Y-39842434D01*
X107708730Y-39873730D01*
X108616073Y-40781073D01*
X108637223Y-40809325D01*
X108649831Y-40832414D01*
X108665000Y-40891843D01*
X108665000Y-43640000D01*
X110078950Y-43640000D01*
X110098343Y-43641526D01*
X110117384Y-43644541D01*
X110136306Y-43649083D01*
X110253757Y-43687246D01*
X110463713Y-43720500D01*
X110463714Y-43720500D01*
X110676285Y-43720500D01*
X110676286Y-43720500D01*
X110676287Y-43720500D01*
X110807112Y-43699778D01*
X110842382Y-43699276D01*
X110864475Y-43702131D01*
X110918568Y-43722747D01*
X110922255Y-43725268D01*
X110928048Y-43730074D01*
X110928436Y-43730245D01*
X110928659Y-43730581D01*
X110939947Y-43739947D01*
X111791073Y-44591073D01*
X111812223Y-44619325D01*
X111824831Y-44642414D01*
X111840000Y-44701843D01*
X111840000Y-47650807D01*
X111839999Y-47650809D01*
X111840000Y-47650810D01*
X111834976Y-47685744D01*
X111827564Y-47710985D01*
X111796269Y-47763729D01*
X110944391Y-48615606D01*
X110916136Y-48636757D01*
X110896586Y-48647432D01*
X110840719Y-48662549D01*
X110838838Y-48662602D01*
X110836257Y-48662676D01*
X110813304Y-48661201D01*
X110778661Y-48655714D01*
X110676291Y-48639500D01*
X110676287Y-48639500D01*
X110463713Y-48639500D01*
X110443686Y-48642671D01*
X110363883Y-48655311D01*
X110363875Y-48655312D01*
X110358735Y-48656127D01*
X110253756Y-48672754D01*
X110132004Y-48712314D01*
X110127587Y-48713400D01*
X110126213Y-48713338D01*
X110117387Y-48715457D01*
X110098346Y-48718473D01*
X110078953Y-48720000D01*
X108665000Y-48720000D01*
X108665000Y-56540808D01*
X108664999Y-56540810D01*
X108665000Y-56540811D01*
X108659976Y-56575745D01*
X108652564Y-56600986D01*
X108621269Y-56653730D01*
X107713926Y-57561073D01*
X107685675Y-57582222D01*
X107662587Y-57594830D01*
X107603157Y-57610000D01*
X83699192Y-57610000D01*
X83699191Y-57609999D01*
X83699191Y-57610000D01*
X83664256Y-57604977D01*
X83639014Y-57597565D01*
X83586269Y-57566269D01*
X82678926Y-56658926D01*
X82657774Y-56630670D01*
X82645167Y-56607581D01*
X82630000Y-56548156D01*
X82630000Y-48578707D01*
X93344500Y-48578707D01*
X93344500Y-48791291D01*
X93377752Y-49001239D01*
X93443445Y-49203418D01*
X93536532Y-49386111D01*
X93539951Y-49392820D01*
X93664890Y-49564786D01*
X93664892Y-49564788D01*
X93815216Y-49715112D01*
X93987169Y-49840042D01*
X93987177Y-49840047D01*
X93987179Y-49840048D01*
X93987181Y-49840049D01*
X93987182Y-49840050D01*
X93987200Y-49840060D01*
X93987442Y-49840182D01*
X94176588Y-49936557D01*
X94378757Y-50002246D01*
X94588713Y-50035500D01*
X94588714Y-50035500D01*
X94801286Y-50035500D01*
X94801287Y-50035500D01*
X95011243Y-50002246D01*
X95213412Y-49936557D01*
X95402816Y-49840051D01*
X95424789Y-49824086D01*
X95574786Y-49715109D01*
X95574786Y-49715108D01*
X95574844Y-49715066D01*
X95575605Y-49714290D01*
X95725104Y-49564792D01*
X95725106Y-49564788D01*
X95725109Y-49564786D01*
X95850048Y-49392820D01*
X95850047Y-49392820D01*
X95850051Y-49392816D01*
X95850053Y-49392810D01*
X95870445Y-49364744D01*
X95878730Y-49336529D01*
X95946557Y-49203412D01*
X96012246Y-49001243D01*
X96045500Y-48791287D01*
X96045500Y-48578713D01*
X96012246Y-48368757D01*
X95946557Y-48166588D01*
X95850051Y-47977184D01*
X95850049Y-47977181D01*
X95850048Y-47977179D01*
X95849702Y-47976703D01*
X95849700Y-47976699D01*
X95725112Y-47805216D01*
X95574788Y-47654892D01*
X95574786Y-47654890D01*
X95402820Y-47529951D01*
X95389167Y-47522994D01*
X95235245Y-47444567D01*
X95235240Y-47444565D01*
X95213414Y-47433444D01*
X95213413Y-47433443D01*
X95213412Y-47433443D01*
X95116550Y-47401970D01*
X95020074Y-47370623D01*
X95015552Y-47368770D01*
X95006362Y-47366600D01*
X95001599Y-47366226D01*
X94849957Y-47342208D01*
X94830489Y-47339124D01*
X94801290Y-47334500D01*
X94801287Y-47334500D01*
X94588713Y-47334500D01*
X94588709Y-47334500D01*
X94549776Y-47340666D01*
X94540042Y-47342208D01*
X94502654Y-47348129D01*
X94378763Y-47367752D01*
X94176582Y-47433445D01*
X93987182Y-47529949D01*
X93815210Y-47654892D01*
X93664892Y-47805210D01*
X93539949Y-47977182D01*
X93443445Y-48166580D01*
X93377752Y-48368759D01*
X93344500Y-48578707D01*
X82630000Y-48578707D01*
X82630000Y-30104191D01*
X82635022Y-30069258D01*
X82642434Y-30044013D01*
X82673728Y-29991271D01*
X83581076Y-29083923D01*
X83609326Y-29062775D01*
X83632418Y-29050167D01*
X83691843Y-29035000D01*
X100610808Y-29035000D01*
X100645740Y-29040021D01*
G37*
%TD.AperFunction*%
%TD*%
%TA.AperFunction,Conductor*%
%TO.N,Net-(J1-Pin_2)*%
G36*
X157080740Y-20960021D02*
G01*
X157105984Y-20967434D01*
X157158730Y-20998730D01*
X158066074Y-21906074D01*
X158087223Y-21934325D01*
X158099831Y-21957414D01*
X158115000Y-22016843D01*
X158115000Y-34490808D01*
X158109976Y-34525745D01*
X158102564Y-34550986D01*
X158071269Y-34603730D01*
X157163926Y-35511073D01*
X157135675Y-35532222D01*
X157112587Y-35544830D01*
X157053157Y-35560000D01*
X154739192Y-35560000D01*
X154704256Y-35554977D01*
X154679014Y-35547565D01*
X154626269Y-35516269D01*
X153718926Y-34608926D01*
X153718921Y-34608921D01*
X153697774Y-34580670D01*
X153685167Y-34557581D01*
X153670000Y-34498156D01*
X153670000Y-25400000D01*
X152670000Y-25400000D01*
X143309192Y-25400000D01*
X143309191Y-25399999D01*
X143309191Y-25400000D01*
X143274256Y-25394977D01*
X143249014Y-25387565D01*
X143196269Y-25356269D01*
X142288926Y-24448926D01*
X142267774Y-24420670D01*
X142255167Y-24397581D01*
X142240000Y-24338156D01*
X142240000Y-23391299D01*
X152389500Y-23391299D01*
X152389500Y-23568699D01*
X152424099Y-23742646D01*
X152424101Y-23742653D01*
X152424109Y-23742676D01*
X152491977Y-23906526D01*
X152491985Y-23906544D01*
X152491994Y-23906559D01*
X152590536Y-24054036D01*
X152590537Y-24054037D01*
X152590542Y-24054043D01*
X152715955Y-24179456D01*
X152715961Y-24179461D01*
X152715965Y-24179464D01*
X152863446Y-24278009D01*
X152863459Y-24278016D01*
X152899579Y-24292977D01*
X152985144Y-24328419D01*
X152985182Y-24328434D01*
X152986363Y-24328923D01*
X153027334Y-24345894D01*
X153027336Y-24345894D01*
X153027341Y-24345896D01*
X153193680Y-24378982D01*
X153196403Y-24379704D01*
X153201306Y-24380500D01*
X153378693Y-24380500D01*
X153382814Y-24380500D01*
X153390667Y-24378117D01*
X153436682Y-24368964D01*
X153436683Y-24368964D01*
X153552653Y-24345897D01*
X153552653Y-24345896D01*
X153552658Y-24345896D01*
X153552661Y-24345894D01*
X153552666Y-24345894D01*
X153555854Y-24344573D01*
X153563835Y-24341273D01*
X153563876Y-24341251D01*
X153716540Y-24278016D01*
X153716540Y-24278015D01*
X153716547Y-24278013D01*
X153864035Y-24179464D01*
X153989464Y-24054035D01*
X154088013Y-23906547D01*
X154155894Y-23742666D01*
X154190500Y-23568691D01*
X154190500Y-23391309D01*
X154190500Y-23391306D01*
X154190500Y-23391125D01*
X154190074Y-23389169D01*
X154155896Y-23217341D01*
X154155893Y-23217332D01*
X154088016Y-23053459D01*
X154088009Y-23053446D01*
X153989464Y-22905965D01*
X153989461Y-22905961D01*
X153989456Y-22905955D01*
X153864043Y-22780542D01*
X153864037Y-22780537D01*
X153864036Y-22780536D01*
X153716559Y-22681994D01*
X153716558Y-22681993D01*
X153716553Y-22681990D01*
X153716540Y-22681983D01*
X153716526Y-22681977D01*
X153552676Y-22614109D01*
X153552653Y-22614101D01*
X153552646Y-22614099D01*
X153378698Y-22579500D01*
X153378694Y-22579500D01*
X153378691Y-22579500D01*
X153201309Y-22579500D01*
X153201306Y-22579500D01*
X153201301Y-22579500D01*
X153027352Y-22614100D01*
X153027345Y-22614101D01*
X153027322Y-22614109D01*
X152863472Y-22681977D01*
X152863454Y-22681985D01*
X152863439Y-22681994D01*
X152715962Y-22780536D01*
X152715961Y-22780537D01*
X152715955Y-22780542D01*
X152590542Y-22905955D01*
X152590537Y-22905961D01*
X152590536Y-22905962D01*
X152491994Y-23053439D01*
X152491985Y-23053454D01*
X152491977Y-23053472D01*
X152424109Y-23217322D01*
X152424101Y-23217345D01*
X152424099Y-23217352D01*
X152389500Y-23391299D01*
X142240000Y-23391299D01*
X142240000Y-22024191D01*
X142245022Y-21989258D01*
X142252434Y-21964013D01*
X142283728Y-21911271D01*
X143191076Y-21003923D01*
X143219326Y-20982775D01*
X143242418Y-20970167D01*
X143301843Y-20955000D01*
X157045808Y-20955000D01*
X157080740Y-20960021D01*
G37*
%TD.AperFunction*%
%TD*%
%TA.AperFunction,Conductor*%
%TO.N,Net-(D2-A)*%
G36*
X140801177Y-20520185D02*
G01*
X140821819Y-20536819D01*
X141568681Y-21283681D01*
X141602166Y-21345004D01*
X141605000Y-21371362D01*
X141605000Y-26035000D01*
X151983638Y-26035000D01*
X152050677Y-26054685D01*
X152071319Y-26071319D01*
X152998681Y-26998681D01*
X153032166Y-27060004D01*
X153035000Y-27086362D01*
X153035000Y-33873638D01*
X153015315Y-33940677D01*
X152998681Y-33961319D01*
X152071319Y-34888681D01*
X152009996Y-34922166D01*
X151983638Y-34925000D01*
X126055967Y-34925000D01*
X125988928Y-34905315D01*
X125943173Y-34852511D01*
X125934350Y-34825191D01*
X125925051Y-34778443D01*
X125913973Y-34722749D01*
X125842322Y-34549769D01*
X125842321Y-34549768D01*
X125842318Y-34549762D01*
X125738302Y-34394092D01*
X125738299Y-34394088D01*
X125605911Y-34261700D01*
X125605907Y-34261697D01*
X125450237Y-34157681D01*
X125450228Y-34157676D01*
X125379876Y-34128535D01*
X125359004Y-34119890D01*
X125304602Y-34076050D01*
X125282537Y-34009756D01*
X125299816Y-33942057D01*
X125308084Y-33929842D01*
X125308912Y-33928761D01*
X125321948Y-33911774D01*
X125433405Y-33718726D01*
X125518710Y-33512781D01*
X125576404Y-33297463D01*
X125605500Y-33076457D01*
X125605500Y-32853549D01*
X139349500Y-32853549D01*
X139349500Y-33076450D01*
X139349501Y-33076466D01*
X139378594Y-33297452D01*
X139378595Y-33297457D01*
X139378596Y-33297463D01*
X139436290Y-33512780D01*
X139436293Y-33512790D01*
X139496304Y-33657669D01*
X139521595Y-33718726D01*
X139633052Y-33911774D01*
X139633057Y-33911780D01*
X139633058Y-33911782D01*
X139768751Y-34088622D01*
X139768757Y-34088629D01*
X139926370Y-34246242D01*
X139926376Y-34246247D01*
X140103226Y-34381948D01*
X140296274Y-34493405D01*
X140502219Y-34578710D01*
X140717537Y-34636404D01*
X140938543Y-34665500D01*
X140938550Y-34665500D01*
X141161450Y-34665500D01*
X141161457Y-34665500D01*
X141382463Y-34636404D01*
X141597781Y-34578710D01*
X141803726Y-34493405D01*
X141996774Y-34381948D01*
X142173624Y-34246247D01*
X142331247Y-34088624D01*
X142466948Y-33911774D01*
X142578405Y-33718726D01*
X142663710Y-33512781D01*
X142721404Y-33297463D01*
X142750500Y-33076457D01*
X142750500Y-32853543D01*
X142721404Y-32632537D01*
X142663710Y-32417219D01*
X142578405Y-32211274D01*
X142466948Y-32018226D01*
X142331247Y-31841376D01*
X142331242Y-31841370D01*
X142173629Y-31683757D01*
X142173622Y-31683751D01*
X141996782Y-31548058D01*
X141996780Y-31548057D01*
X141996774Y-31548052D01*
X141803726Y-31436595D01*
X141803722Y-31436593D01*
X141597790Y-31351293D01*
X141597783Y-31351291D01*
X141597781Y-31351290D01*
X141382463Y-31293596D01*
X141382457Y-31293595D01*
X141382452Y-31293594D01*
X141161466Y-31264501D01*
X141161463Y-31264500D01*
X141161457Y-31264500D01*
X140938543Y-31264500D01*
X140938537Y-31264500D01*
X140938533Y-31264501D01*
X140717547Y-31293594D01*
X140717540Y-31293595D01*
X140717537Y-31293596D01*
X140502219Y-31351290D01*
X140502209Y-31351293D01*
X140296277Y-31436593D01*
X140296273Y-31436595D01*
X140103226Y-31548052D01*
X140103217Y-31548058D01*
X139926377Y-31683751D01*
X139926370Y-31683757D01*
X139768757Y-31841370D01*
X139768751Y-31841377D01*
X139633058Y-32018217D01*
X139633052Y-32018226D01*
X139521595Y-32211273D01*
X139521593Y-32211277D01*
X139436293Y-32417209D01*
X139436290Y-32417219D01*
X139400142Y-32552128D01*
X139378597Y-32632534D01*
X139378594Y-32632547D01*
X139349501Y-32853533D01*
X139349500Y-32853549D01*
X125605500Y-32853549D01*
X125605500Y-32853543D01*
X125576404Y-32632537D01*
X125518710Y-32417219D01*
X125433405Y-32211274D01*
X125321948Y-32018226D01*
X125186247Y-31841376D01*
X125186242Y-31841370D01*
X125028629Y-31683757D01*
X125028622Y-31683751D01*
X124851782Y-31548058D01*
X124851780Y-31548057D01*
X124851774Y-31548052D01*
X124658726Y-31436595D01*
X124658722Y-31436593D01*
X124452790Y-31351293D01*
X124452783Y-31351291D01*
X124452781Y-31351290D01*
X124237463Y-31293596D01*
X124237457Y-31293595D01*
X124237452Y-31293594D01*
X124016466Y-31264501D01*
X124016463Y-31264500D01*
X124016457Y-31264500D01*
X123793543Y-31264500D01*
X123793537Y-31264500D01*
X123793533Y-31264501D01*
X123572547Y-31293594D01*
X123572540Y-31293595D01*
X123572537Y-31293596D01*
X123357219Y-31351290D01*
X123357209Y-31351293D01*
X123151277Y-31436593D01*
X123151273Y-31436595D01*
X122958226Y-31548052D01*
X122958217Y-31548058D01*
X122781377Y-31683751D01*
X122781370Y-31683757D01*
X122623757Y-31841370D01*
X122623751Y-31841377D01*
X122488058Y-32018217D01*
X122488052Y-32018226D01*
X122376595Y-32211273D01*
X122376593Y-32211277D01*
X122291293Y-32417209D01*
X122291290Y-32417219D01*
X122255142Y-32552128D01*
X122233597Y-32632534D01*
X122233594Y-32632547D01*
X122204501Y-32853533D01*
X122204500Y-32853549D01*
X122204500Y-33076450D01*
X122204501Y-33076466D01*
X122233594Y-33297452D01*
X122233595Y-33297457D01*
X122233596Y-33297463D01*
X122291290Y-33512780D01*
X122291293Y-33512790D01*
X122351304Y-33657669D01*
X122376595Y-33718726D01*
X122488052Y-33911774D01*
X122488057Y-33911780D01*
X122488058Y-33911782D01*
X122623751Y-34088622D01*
X122623757Y-34088629D01*
X122781370Y-34246242D01*
X122781376Y-34246247D01*
X122958226Y-34381948D01*
X123151274Y-34493405D01*
X123357219Y-34578710D01*
X123572537Y-34636404D01*
X123793543Y-34665500D01*
X123793550Y-34665500D01*
X123946320Y-34665500D01*
X123966533Y-34671435D01*
X123987568Y-34672562D01*
X123999383Y-34681081D01*
X124013359Y-34685185D01*
X124027153Y-34701104D01*
X124044242Y-34713426D01*
X124049576Y-34726981D01*
X124059114Y-34737989D01*
X124062111Y-34758839D01*
X124069826Y-34778443D01*
X124068497Y-34803246D01*
X124069058Y-34807147D01*
X124067938Y-34813686D01*
X124065651Y-34825186D01*
X124033269Y-34887099D01*
X123972555Y-34921675D01*
X123944033Y-34925000D01*
X121055967Y-34925000D01*
X120988928Y-34905315D01*
X120943173Y-34852511D01*
X120934350Y-34825191D01*
X120925051Y-34778443D01*
X120913973Y-34722749D01*
X120842322Y-34549769D01*
X120842321Y-34549768D01*
X120842318Y-34549762D01*
X120738302Y-34394092D01*
X120738299Y-34394088D01*
X120605911Y-34261700D01*
X120605907Y-34261697D01*
X120450237Y-34157681D01*
X120450228Y-34157676D01*
X120277251Y-34086027D01*
X120277243Y-34086025D01*
X120093620Y-34049500D01*
X120093616Y-34049500D01*
X119906384Y-34049500D01*
X119906379Y-34049500D01*
X119722756Y-34086025D01*
X119722748Y-34086027D01*
X119549771Y-34157676D01*
X119549762Y-34157681D01*
X119394092Y-34261697D01*
X119394088Y-34261700D01*
X119261700Y-34394088D01*
X119261697Y-34394092D01*
X119157681Y-34549762D01*
X119157676Y-34549771D01*
X119086027Y-34722748D01*
X119086025Y-34722756D01*
X119065650Y-34825191D01*
X119033266Y-34887102D01*
X118972550Y-34921676D01*
X118944033Y-34925000D01*
X116598699Y-34925000D01*
X116544219Y-34912391D01*
X115891554Y-34593183D01*
X115842931Y-34550682D01*
X115842323Y-34549773D01*
X115842322Y-34549769D01*
X115738302Y-34394092D01*
X115738300Y-34394089D01*
X115605911Y-34261700D01*
X115605907Y-34261697D01*
X115450237Y-34157681D01*
X115450228Y-34157676D01*
X115277251Y-34086027D01*
X115277243Y-34086025D01*
X115093620Y-34049500D01*
X115093616Y-34049500D01*
X114949701Y-34049500D01*
X114882662Y-34029815D01*
X114851824Y-34001632D01*
X113347500Y-32067500D01*
X111738941Y-29999352D01*
X111738940Y-29999351D01*
X111125000Y-29210000D01*
X111124999Y-29210000D01*
X104556362Y-29210000D01*
X104489323Y-29190315D01*
X104468681Y-29173681D01*
X103541319Y-28246319D01*
X103507834Y-28184996D01*
X103505000Y-28158638D01*
X103505000Y-21371362D01*
X103524685Y-21304323D01*
X103541319Y-21283681D01*
X104288181Y-20536819D01*
X104349504Y-20503334D01*
X104375862Y-20500500D01*
X140734138Y-20500500D01*
X140801177Y-20520185D01*
G37*
%TD.AperFunction*%
%TD*%
%TA.AperFunction,Conductor*%
%TO.N,GND*%
G36*
X103377293Y-20520185D02*
G01*
X103423048Y-20572989D01*
X103432992Y-20642147D01*
X103403967Y-20705703D01*
X103397935Y-20712181D01*
X103183892Y-20926223D01*
X103183855Y-20926262D01*
X103147728Y-20966480D01*
X103147718Y-20966492D01*
X103131076Y-20987143D01*
X103099433Y-21031025D01*
X103039663Y-21161899D01*
X103019976Y-21228944D01*
X103018738Y-21237554D01*
X102999501Y-21371359D01*
X102999500Y-21371363D01*
X102999500Y-28158640D01*
X103002397Y-28212688D01*
X103002397Y-28212689D01*
X103005229Y-28239022D01*
X103005232Y-28239049D01*
X103013885Y-28292445D01*
X103013885Y-28292447D01*
X103052964Y-28397218D01*
X103064168Y-28427257D01*
X103097653Y-28488580D01*
X103183877Y-28603761D01*
X103183881Y-28603765D01*
X103183886Y-28603771D01*
X103357775Y-28777659D01*
X103382057Y-28812047D01*
X103388698Y-28826000D01*
X103391131Y-28838229D01*
X103391132Y-28838230D01*
X103435447Y-28904552D01*
X103501769Y-28948867D01*
X103501770Y-28948868D01*
X103513999Y-28951300D01*
X103527951Y-28957941D01*
X103542933Y-28971345D01*
X103560755Y-28980666D01*
X103562339Y-28982223D01*
X104111239Y-29531123D01*
X104111255Y-29531137D01*
X104111262Y-29531144D01*
X104151480Y-29567271D01*
X104151492Y-29567281D01*
X104151500Y-29567288D01*
X104172142Y-29583922D01*
X104216026Y-29615567D01*
X104346903Y-29675338D01*
X104413942Y-29695023D01*
X104413946Y-29695024D01*
X104556362Y-29715500D01*
X110817121Y-29715500D01*
X110884160Y-29735185D01*
X110915000Y-29763370D01*
X114452806Y-34311979D01*
X114506540Y-34370157D01*
X114510809Y-34374779D01*
X114541636Y-34402953D01*
X114541644Y-34402959D01*
X114609365Y-34455067D01*
X114740242Y-34514838D01*
X114807281Y-34534523D01*
X114807285Y-34534524D01*
X114949701Y-34555000D01*
X115031614Y-34555000D01*
X115055803Y-34557382D01*
X115086640Y-34563515D01*
X115117826Y-34569718D01*
X115141076Y-34576770D01*
X115199510Y-34600974D01*
X115220941Y-34612431D01*
X115273514Y-34647559D01*
X115292305Y-34662980D01*
X115337017Y-34707692D01*
X115352438Y-34726482D01*
X115422014Y-34830610D01*
X115422144Y-34830805D01*
X115422149Y-34830814D01*
X115422757Y-34831723D01*
X115422760Y-34831727D01*
X115424090Y-34833717D01*
X115424112Y-34833749D01*
X115435819Y-34851269D01*
X115442264Y-34854611D01*
X115449622Y-34862291D01*
X115510253Y-34931281D01*
X115558876Y-34973782D01*
X115669462Y-35047281D01*
X116322127Y-35366489D01*
X116430238Y-35404873D01*
X116430242Y-35404874D01*
X116430241Y-35404874D01*
X116452494Y-35410024D01*
X116484718Y-35417482D01*
X116598699Y-35430500D01*
X116598701Y-35430500D01*
X118944033Y-35430500D01*
X118944044Y-35430500D01*
X118944044Y-35430499D01*
X118985093Y-35428115D01*
X119002544Y-35427102D01*
X119002546Y-35427101D01*
X119002559Y-35427101D01*
X119031076Y-35423777D01*
X119088799Y-35413628D01*
X119222689Y-35360949D01*
X119280504Y-35328026D01*
X119282353Y-35327038D01*
X119283409Y-35326373D01*
X119283413Y-35326371D01*
X119397036Y-35238103D01*
X119481189Y-35121399D01*
X119513573Y-35059488D01*
X119561437Y-34923808D01*
X119569717Y-34882176D01*
X119576774Y-34858916D01*
X119600974Y-34800491D01*
X119612433Y-34779052D01*
X119647563Y-34726476D01*
X119662976Y-34707696D01*
X119707691Y-34662980D01*
X119726474Y-34647565D01*
X119779062Y-34612426D01*
X119800486Y-34600975D01*
X119858919Y-34576771D01*
X119882170Y-34569718D01*
X119932551Y-34559697D01*
X119944194Y-34557382D01*
X119968383Y-34555000D01*
X120031614Y-34555000D01*
X120055803Y-34557382D01*
X120086640Y-34563515D01*
X120117826Y-34569718D01*
X120141076Y-34576770D01*
X120199510Y-34600974D01*
X120220941Y-34612431D01*
X120273514Y-34647559D01*
X120292305Y-34662980D01*
X120337016Y-34707691D01*
X120352437Y-34726482D01*
X120387567Y-34779058D01*
X120399025Y-34800494D01*
X120423225Y-34858916D01*
X120430281Y-34882177D01*
X120436590Y-34913892D01*
X120438565Y-34923818D01*
X120438567Y-34923829D01*
X120453307Y-34980522D01*
X120453311Y-34980534D01*
X120453313Y-34980542D01*
X120462136Y-35007862D01*
X120462141Y-35007875D01*
X120462143Y-35007881D01*
X120483354Y-35062505D01*
X120561137Y-35183537D01*
X120561146Y-35183548D01*
X120606890Y-35236340D01*
X120606893Y-35236343D01*
X120606897Y-35236347D01*
X120715631Y-35330567D01*
X120715634Y-35330568D01*
X120715635Y-35330569D01*
X120837545Y-35386245D01*
X120846508Y-35390338D01*
X120913547Y-35410023D01*
X120913551Y-35410024D01*
X121055967Y-35430500D01*
X121055970Y-35430500D01*
X123944033Y-35430500D01*
X123944044Y-35430500D01*
X123984812Y-35428131D01*
X124002566Y-35427100D01*
X124031088Y-35423775D01*
X124088823Y-35413622D01*
X124097970Y-35410023D01*
X124216820Y-35363256D01*
X124222711Y-35360938D01*
X124280523Y-35328014D01*
X124282370Y-35327027D01*
X124283428Y-35326361D01*
X124283429Y-35326359D01*
X124283433Y-35326358D01*
X124397053Y-35238086D01*
X124481201Y-35121378D01*
X124513583Y-35059465D01*
X124558798Y-34931281D01*
X124561442Y-34923785D01*
X124561442Y-34923784D01*
X124563721Y-34912322D01*
X124563729Y-34912284D01*
X124566182Y-34899025D01*
X124567302Y-34892486D01*
X124569415Y-34879072D01*
X124569413Y-34830086D01*
X124573273Y-34830293D01*
X124574602Y-34805490D01*
X124573311Y-34733348D01*
X124562339Y-34686935D01*
X124562468Y-34686917D01*
X124560880Y-34675876D01*
X124560731Y-34674829D01*
X124560730Y-34674819D01*
X124559471Y-34666065D01*
X124559471Y-34666061D01*
X124549795Y-34633108D01*
X124548115Y-34626766D01*
X124540211Y-34593327D01*
X124533990Y-34577520D01*
X124530400Y-34567048D01*
X124527562Y-34557382D01*
X124518938Y-34528008D01*
X124481315Y-34469462D01*
X124477880Y-34463789D01*
X124472912Y-34455066D01*
X124443433Y-34403302D01*
X124432869Y-34393109D01*
X124414150Y-34375047D01*
X124414150Y-34375048D01*
X124409081Y-34370157D01*
X124409183Y-34370070D01*
X124395389Y-34354151D01*
X124366960Y-34329517D01*
X124339891Y-34303399D01*
X124339887Y-34303395D01*
X124339885Y-34303393D01*
X124326081Y-34293440D01*
X124317402Y-34286574D01*
X124286661Y-34259936D01*
X124286656Y-34259933D01*
X124223364Y-34231027D01*
X124217408Y-34228112D01*
X124155729Y-34195852D01*
X124155730Y-34195852D01*
X124115818Y-34187914D01*
X124108909Y-34186539D01*
X124108947Y-34186411D01*
X124088734Y-34180476D01*
X124051518Y-34175125D01*
X124048255Y-34174476D01*
X124048248Y-34174475D01*
X124014616Y-34167786D01*
X124014607Y-34167785D01*
X123997612Y-34166875D01*
X123986604Y-34165791D01*
X123946324Y-34160000D01*
X123946320Y-34160000D01*
X123834798Y-34160000D01*
X123818613Y-34158939D01*
X123749021Y-34149777D01*
X123679430Y-34140615D01*
X123663522Y-34137451D01*
X123527899Y-34101110D01*
X123512541Y-34095896D01*
X123382839Y-34042172D01*
X123368291Y-34034998D01*
X123246709Y-33964802D01*
X123233223Y-33955791D01*
X123121834Y-33870320D01*
X123109639Y-33859625D01*
X123010374Y-33760360D01*
X122999680Y-33748166D01*
X122979047Y-33721277D01*
X122914203Y-33636771D01*
X122905195Y-33623289D01*
X122835001Y-33501708D01*
X122827827Y-33487161D01*
X122774103Y-33357459D01*
X122768889Y-33342101D01*
X122761949Y-33316202D01*
X122732546Y-33206469D01*
X122729385Y-33190578D01*
X122711061Y-33051387D01*
X122710000Y-33035202D01*
X122710000Y-32894793D01*
X122711061Y-32878608D01*
X122729382Y-32739440D01*
X122732546Y-32723532D01*
X122732549Y-32723522D01*
X122768891Y-32587885D01*
X122774101Y-32572541D01*
X122827827Y-32442834D01*
X122834990Y-32428307D01*
X122905212Y-32306682D01*
X122914210Y-32293217D01*
X122999676Y-32181834D01*
X123010365Y-32169647D01*
X123109640Y-32070372D01*
X123121835Y-32059677D01*
X123135880Y-32048900D01*
X123233221Y-31974209D01*
X123246684Y-31965212D01*
X123368307Y-31894991D01*
X123382834Y-31887828D01*
X123512554Y-31834095D01*
X123527882Y-31828892D01*
X123663528Y-31792545D01*
X123679416Y-31789385D01*
X123790617Y-31774746D01*
X123818611Y-31771061D01*
X123834795Y-31770000D01*
X123975206Y-31770000D01*
X123991390Y-31771061D01*
X124025827Y-31775594D01*
X124130567Y-31789383D01*
X124146461Y-31792544D01*
X124257489Y-31822294D01*
X124282105Y-31828890D01*
X124297463Y-31834104D01*
X124427158Y-31887825D01*
X124441706Y-31894999D01*
X124563293Y-31965198D01*
X124576779Y-31974209D01*
X124688155Y-32059670D01*
X124700350Y-32070364D01*
X124799623Y-32169636D01*
X124810318Y-32181831D01*
X124895795Y-32293226D01*
X124904801Y-32306705D01*
X124970640Y-32420742D01*
X124974999Y-32428292D01*
X124982172Y-32442839D01*
X125035896Y-32572541D01*
X125041110Y-32587899D01*
X125077451Y-32723522D01*
X125080615Y-32739430D01*
X125098938Y-32878611D01*
X125098939Y-32878614D01*
X125100000Y-32894799D01*
X125100000Y-33035201D01*
X125098939Y-33051387D01*
X125080615Y-33190568D01*
X125077451Y-33206476D01*
X125041110Y-33342099D01*
X125035896Y-33357457D01*
X124982172Y-33487159D01*
X124974998Y-33501707D01*
X124902374Y-33627496D01*
X124895600Y-33637973D01*
X124889484Y-33646461D01*
X124881182Y-33658727D01*
X124865082Y-33684109D01*
X124865072Y-33684127D01*
X124810020Y-33817036D01*
X124810017Y-33817046D01*
X124792741Y-33884733D01*
X124792737Y-33884753D01*
X124777358Y-34027791D01*
X124777359Y-34027796D01*
X124777359Y-34027800D01*
X124802906Y-34169394D01*
X124802907Y-34169399D01*
X124802909Y-34169406D01*
X124824966Y-34235676D01*
X124824969Y-34235683D01*
X124824971Y-34235688D01*
X124889373Y-34364348D01*
X124987416Y-34469653D01*
X125041818Y-34513493D01*
X125041819Y-34513494D01*
X125165558Y-34586911D01*
X125206588Y-34603906D01*
X125213255Y-34607690D01*
X125214522Y-34609000D01*
X125220939Y-34612430D01*
X125273512Y-34647558D01*
X125292302Y-34662978D01*
X125337015Y-34707690D01*
X125352437Y-34726482D01*
X125387567Y-34779058D01*
X125399025Y-34800494D01*
X125423225Y-34858916D01*
X125430281Y-34882177D01*
X125436590Y-34913892D01*
X125438565Y-34923818D01*
X125438567Y-34923829D01*
X125453307Y-34980522D01*
X125453311Y-34980534D01*
X125453313Y-34980542D01*
X125462136Y-35007862D01*
X125462141Y-35007875D01*
X125462143Y-35007881D01*
X125483354Y-35062505D01*
X125561137Y-35183537D01*
X125561146Y-35183548D01*
X125606890Y-35236340D01*
X125606893Y-35236343D01*
X125606897Y-35236347D01*
X125715631Y-35330567D01*
X125715634Y-35330568D01*
X125715635Y-35330569D01*
X125837545Y-35386245D01*
X125846508Y-35390338D01*
X125913547Y-35410023D01*
X125913551Y-35410024D01*
X126055967Y-35430500D01*
X126055970Y-35430500D01*
X151983638Y-35430500D01*
X151983640Y-35430500D01*
X151993786Y-35429955D01*
X152037678Y-35427603D01*
X152037686Y-35427602D01*
X152037688Y-35427602D01*
X152037689Y-35427602D01*
X152044682Y-35426849D01*
X152064036Y-35424769D01*
X152064046Y-35424767D01*
X152064049Y-35424767D01*
X152117442Y-35416115D01*
X152117442Y-35416114D01*
X152117448Y-35416114D01*
X152170408Y-35396359D01*
X152194332Y-35390071D01*
X152218495Y-35386244D01*
X152223366Y-35385861D01*
X152223380Y-35385858D01*
X152232942Y-35383955D01*
X152237850Y-35383177D01*
X152250091Y-35373527D01*
X152348220Y-35323528D01*
X152410022Y-35261724D01*
X152423394Y-35250140D01*
X152428761Y-35246123D01*
X153253275Y-34421608D01*
X153314596Y-34388125D01*
X153384287Y-34393109D01*
X153440221Y-34434980D01*
X153462424Y-34494511D01*
X153464017Y-34494311D01*
X153470883Y-34548980D01*
X153486050Y-34608402D01*
X153486052Y-34608407D01*
X153504797Y-34656053D01*
X153504804Y-34656067D01*
X153515899Y-34676386D01*
X153517409Y-34679152D01*
X153522411Y-34686935D01*
X153533262Y-34703821D01*
X153554395Y-34732053D01*
X153554411Y-34732074D01*
X153573605Y-34754224D01*
X153573630Y-34754251D01*
X154055720Y-35236340D01*
X154480959Y-35661579D01*
X154521406Y-35693001D01*
X154574151Y-35724297D01*
X154621116Y-35744740D01*
X154646358Y-35752152D01*
X154646366Y-35752153D01*
X154646367Y-35752154D01*
X154675004Y-35758384D01*
X154675011Y-35758385D01*
X154709947Y-35763408D01*
X154739192Y-35765500D01*
X157053156Y-35765500D01*
X157053157Y-35765500D01*
X157103983Y-35759115D01*
X157163413Y-35743945D01*
X157211079Y-35725190D01*
X157234167Y-35712582D01*
X157258829Y-35696732D01*
X157287080Y-35675583D01*
X157309236Y-35656383D01*
X158216579Y-34749040D01*
X158248001Y-34708592D01*
X158279296Y-34655848D01*
X158299739Y-34608886D01*
X158307151Y-34583645D01*
X158313384Y-34554995D01*
X158318408Y-34520058D01*
X158320500Y-34490808D01*
X158320500Y-22016843D01*
X158314116Y-21966019D01*
X158298947Y-21906590D01*
X158280193Y-21858926D01*
X158280189Y-21858918D01*
X158267588Y-21835841D01*
X158263777Y-21829912D01*
X158251733Y-21811171D01*
X158230584Y-21782920D01*
X158230582Y-21782917D01*
X158211398Y-21760780D01*
X158211395Y-21760777D01*
X158211384Y-21760764D01*
X158211376Y-21760756D01*
X158211366Y-21760745D01*
X157612801Y-21162181D01*
X157579316Y-21100858D01*
X157584300Y-21031167D01*
X157626171Y-20975233D01*
X157691636Y-20950816D01*
X157700482Y-20950500D01*
X158850981Y-20950500D01*
X158885913Y-20955521D01*
X158911157Y-20962934D01*
X158963903Y-20994230D01*
X159645573Y-21675900D01*
X159666723Y-21704152D01*
X159679331Y-21727241D01*
X159694500Y-21786670D01*
X159694500Y-23966839D01*
X159716682Y-24049624D01*
X159719224Y-24054026D01*
X159719226Y-24054035D01*
X159719228Y-24054035D01*
X159759530Y-24123839D01*
X159759533Y-24123843D01*
X159759535Y-24123846D01*
X164931154Y-29295465D01*
X165005377Y-29338318D01*
X165088163Y-29360500D01*
X167306210Y-29360500D01*
X167341145Y-29365523D01*
X167356143Y-29369927D01*
X167414916Y-29407697D01*
X167414919Y-29407701D01*
X167414921Y-29407702D01*
X167414921Y-29407703D01*
X167423834Y-29417988D01*
X167444686Y-29451743D01*
X167468358Y-29508893D01*
X167468366Y-29508911D01*
X167468375Y-29508926D01*
X167577861Y-29672783D01*
X167577862Y-29672784D01*
X167577867Y-29672790D01*
X167717208Y-29812131D01*
X167717214Y-29812136D01*
X167717218Y-29812139D01*
X167881079Y-29921628D01*
X167881092Y-29921635D01*
X168063160Y-29997049D01*
X168063165Y-29997051D01*
X168063169Y-29997051D01*
X168063170Y-29997052D01*
X168063442Y-29997106D01*
X168063469Y-29997112D01*
X168256453Y-30035500D01*
X168453543Y-30035500D01*
X168453544Y-30035500D01*
X168475216Y-30031188D01*
X168583582Y-30009632D01*
X168583583Y-30009632D01*
X168596301Y-30007102D01*
X168646835Y-29997051D01*
X168828914Y-29921632D01*
X168992782Y-29812139D01*
X169132139Y-29672782D01*
X169241632Y-29508914D01*
X169317051Y-29326835D01*
X169355500Y-29133541D01*
X169355500Y-28936459D01*
X169355500Y-28936456D01*
X169355500Y-28936453D01*
X169316812Y-28741963D01*
X169314725Y-28737550D01*
X169310135Y-28726469D01*
X169294953Y-28689815D01*
X169241635Y-28561092D01*
X169241628Y-28561079D01*
X169132139Y-28397218D01*
X169132136Y-28397214D01*
X169132131Y-28397208D01*
X168992790Y-28257867D01*
X168992784Y-28257862D01*
X168992783Y-28257861D01*
X168828926Y-28148375D01*
X168828925Y-28148374D01*
X168828920Y-28148371D01*
X168828907Y-28148364D01*
X168828900Y-28148360D01*
X168646861Y-28072958D01*
X168646847Y-28072953D01*
X168646839Y-28072950D01*
X168646829Y-28072947D01*
X168646826Y-28072946D01*
X168646822Y-28072945D01*
X168453546Y-28034500D01*
X168453543Y-28034500D01*
X168453541Y-28034500D01*
X168256459Y-28034500D01*
X168256457Y-28034500D01*
X168256453Y-28034500D01*
X168063176Y-28072945D01*
X168063170Y-28072947D01*
X168063160Y-28072950D01*
X168063155Y-28072951D01*
X168063137Y-28072958D01*
X167881098Y-28148360D01*
X167881089Y-28148365D01*
X167881072Y-28148375D01*
X167717215Y-28257861D01*
X167717214Y-28257862D01*
X167717208Y-28257867D01*
X167577867Y-28397208D01*
X167577862Y-28397214D01*
X167577861Y-28397215D01*
X167468375Y-28561072D01*
X167468366Y-28561087D01*
X167468364Y-28561090D01*
X167468364Y-28561092D01*
X167462454Y-28575360D01*
X167445421Y-28616481D01*
X167427925Y-28645971D01*
X167427415Y-28646830D01*
X167417607Y-28659002D01*
X167360218Y-28698852D01*
X167360216Y-28698852D01*
X167360216Y-28698853D01*
X167360214Y-28698853D01*
X167347301Y-28703152D01*
X167308135Y-28709500D01*
X165335035Y-28709500D01*
X165300099Y-28704477D01*
X165274857Y-28697065D01*
X165222112Y-28665769D01*
X160394426Y-23838083D01*
X160394421Y-23838078D01*
X160373274Y-23809827D01*
X160360667Y-23786738D01*
X160345500Y-23727313D01*
X160345500Y-23391299D01*
X163389500Y-23391299D01*
X163389500Y-23568699D01*
X163424099Y-23742646D01*
X163424101Y-23742653D01*
X163424109Y-23742676D01*
X163491977Y-23906526D01*
X163491983Y-23906540D01*
X163491989Y-23906552D01*
X163491994Y-23906559D01*
X163590537Y-24054037D01*
X163590542Y-24054043D01*
X163715955Y-24179456D01*
X163715961Y-24179461D01*
X163715965Y-24179464D01*
X163863446Y-24278009D01*
X163863459Y-24278016D01*
X163928934Y-24305136D01*
X164027334Y-24345894D01*
X164027336Y-24345894D01*
X164027341Y-24345896D01*
X164193680Y-24378982D01*
X164196403Y-24379704D01*
X164201306Y-24380500D01*
X164378693Y-24380500D01*
X164382814Y-24380500D01*
X164390667Y-24378117D01*
X164436682Y-24368964D01*
X164436683Y-24368964D01*
X164552653Y-24345897D01*
X164552653Y-24345896D01*
X164552658Y-24345896D01*
X164552661Y-24345894D01*
X164552666Y-24345894D01*
X164555854Y-24344573D01*
X164563835Y-24341273D01*
X164563876Y-24341251D01*
X164716540Y-24278016D01*
X164716540Y-24278015D01*
X164716547Y-24278013D01*
X164864035Y-24179464D01*
X164989464Y-24054035D01*
X165088013Y-23906547D01*
X165088014Y-23906544D01*
X165088016Y-23906541D01*
X165088024Y-23906519D01*
X165088714Y-23905112D01*
X165089692Y-23902494D01*
X165099543Y-23878711D01*
X165099543Y-23878710D01*
X169149500Y-23878710D01*
X169149500Y-24121288D01*
X169179219Y-24347038D01*
X169181161Y-24361785D01*
X169186176Y-24380500D01*
X169243947Y-24596104D01*
X169336772Y-24820203D01*
X169336773Y-24820207D01*
X169336780Y-24820220D01*
X169458060Y-25030283D01*
X169458062Y-25030286D01*
X169458281Y-25030615D01*
X169459284Y-25031879D01*
X169605726Y-25222728D01*
X169605730Y-25222733D01*
X169605733Y-25222736D01*
X169605739Y-25222743D01*
X169605747Y-25222751D01*
X169777242Y-25394247D01*
X169777256Y-25394260D01*
X169777262Y-25394265D01*
X169969711Y-25541936D01*
X170179788Y-25663224D01*
X170403900Y-25756054D01*
X170638211Y-25818838D01*
X170818586Y-25842584D01*
X170878710Y-25850500D01*
X170878711Y-25850500D01*
X170878712Y-25850500D01*
X171121283Y-25850500D01*
X171121289Y-25850500D01*
X171169388Y-25844167D01*
X171361789Y-25818838D01*
X171596100Y-25756054D01*
X171820212Y-25663224D01*
X172030289Y-25541936D01*
X172222738Y-25394265D01*
X172394265Y-25222738D01*
X172541936Y-25030289D01*
X172663224Y-24820212D01*
X172756054Y-24596100D01*
X172818838Y-24361789D01*
X172850500Y-24121288D01*
X172850500Y-23878712D01*
X172845411Y-23840060D01*
X172832591Y-23742676D01*
X172818838Y-23638211D01*
X172756054Y-23403900D01*
X172663224Y-23179788D01*
X172541936Y-22969711D01*
X172396777Y-22780536D01*
X172394266Y-22777263D01*
X172394260Y-22777256D01*
X172222743Y-22605739D01*
X172222736Y-22605733D01*
X172222733Y-22605730D01*
X172222728Y-22605726D01*
X172031879Y-22459284D01*
X172030615Y-22458281D01*
X172030286Y-22458062D01*
X172030283Y-22458060D01*
X171820220Y-22336780D01*
X171820207Y-22336773D01*
X171820203Y-22336772D01*
X171596104Y-22243947D01*
X171361781Y-22181160D01*
X171121290Y-22149500D01*
X171121289Y-22149500D01*
X171121288Y-22149500D01*
X170878712Y-22149500D01*
X170878711Y-22149500D01*
X170878710Y-22149500D01*
X170638217Y-22181160D01*
X170403894Y-22243947D01*
X170179790Y-22336774D01*
X170179782Y-22336778D01*
X169969706Y-22458067D01*
X169969697Y-22458073D01*
X169777270Y-22605726D01*
X169777255Y-22605740D01*
X169777247Y-22605747D01*
X169605747Y-22777247D01*
X169605740Y-22777255D01*
X169605726Y-22777270D01*
X169458073Y-22969697D01*
X169458067Y-22969706D01*
X169336778Y-23179782D01*
X169336774Y-23179790D01*
X169243947Y-23403894D01*
X169181160Y-23638217D01*
X169149500Y-23878710D01*
X165099543Y-23878710D01*
X165120879Y-23827201D01*
X165136637Y-23789157D01*
X165155894Y-23742666D01*
X165161376Y-23715109D01*
X165190499Y-23568695D01*
X165190500Y-23568693D01*
X165190500Y-23391306D01*
X165190499Y-23391304D01*
X165155896Y-23217341D01*
X165155893Y-23217332D01*
X165150126Y-23203410D01*
X165088021Y-23053472D01*
X165088016Y-23053459D01*
X165088009Y-23053446D01*
X164989464Y-22905965D01*
X164989461Y-22905961D01*
X164989456Y-22905955D01*
X164864043Y-22780542D01*
X164864037Y-22780537D01*
X164864036Y-22780536D01*
X164716559Y-22681994D01*
X164716558Y-22681993D01*
X164716553Y-22681990D01*
X164716540Y-22681983D01*
X164716526Y-22681977D01*
X164552676Y-22614109D01*
X164552653Y-22614101D01*
X164552646Y-22614099D01*
X164378698Y-22579500D01*
X164378694Y-22579500D01*
X164378691Y-22579500D01*
X164201309Y-22579500D01*
X164201306Y-22579500D01*
X164201301Y-22579500D01*
X164027352Y-22614100D01*
X164027345Y-22614101D01*
X164027322Y-22614109D01*
X163863472Y-22681977D01*
X163863454Y-22681985D01*
X163863439Y-22681994D01*
X163715962Y-22780536D01*
X163715961Y-22780537D01*
X163715955Y-22780542D01*
X163590542Y-22905955D01*
X163590537Y-22905961D01*
X163590536Y-22905962D01*
X163491994Y-23053439D01*
X163491985Y-23053454D01*
X163491977Y-23053472D01*
X163424109Y-23217322D01*
X163424101Y-23217345D01*
X163424099Y-23217352D01*
X163389500Y-23391299D01*
X160345500Y-23391299D01*
X160345500Y-21547149D01*
X160345500Y-21547147D01*
X160323318Y-21464362D01*
X160323318Y-21464361D01*
X160280465Y-21390138D01*
X159615115Y-20724788D01*
X159593966Y-20696538D01*
X159588544Y-20686608D01*
X159573691Y-20618338D01*
X159598105Y-20552873D01*
X159654035Y-20511001D01*
X159657914Y-20509554D01*
X159661250Y-20508311D01*
X159704564Y-20500500D01*
X174357670Y-20500500D01*
X174392606Y-20505523D01*
X174407604Y-20509927D01*
X174422594Y-20519557D01*
X174439675Y-20524567D01*
X174466355Y-20547672D01*
X174467542Y-20549041D01*
X174495018Y-20603902D01*
X174496663Y-20611460D01*
X174499500Y-20637831D01*
X174499500Y-66357670D01*
X174494475Y-66392614D01*
X174490070Y-66407612D01*
X174480439Y-66422601D01*
X174475432Y-66439675D01*
X174452327Y-66466355D01*
X174450958Y-66467542D01*
X174396097Y-66495018D01*
X174388539Y-66496663D01*
X174362168Y-66499500D01*
X75642330Y-66499500D01*
X75607389Y-66494475D01*
X75592390Y-66490070D01*
X75577402Y-66480440D01*
X75560324Y-66475432D01*
X75533644Y-66452327D01*
X75532457Y-66450958D01*
X75504977Y-66396083D01*
X75503332Y-66388521D01*
X75500500Y-66362168D01*
X75500500Y-62878710D01*
X77149500Y-62878710D01*
X77149500Y-63121288D01*
X77169331Y-63271930D01*
X77181161Y-63361785D01*
X77243947Y-63596104D01*
X77286031Y-63697704D01*
X77336772Y-63820203D01*
X77336773Y-63820207D01*
X77336780Y-63820220D01*
X77458052Y-64030269D01*
X77458062Y-64030286D01*
X77458281Y-64030615D01*
X77459284Y-64031879D01*
X77605726Y-64222728D01*
X77605730Y-64222733D01*
X77605733Y-64222736D01*
X77605739Y-64222743D01*
X77605747Y-64222751D01*
X77777242Y-64394247D01*
X77777256Y-64394260D01*
X77777262Y-64394265D01*
X77969711Y-64541936D01*
X78179788Y-64663224D01*
X78403900Y-64756054D01*
X78638211Y-64818838D01*
X78818586Y-64842584D01*
X78878710Y-64850500D01*
X78878711Y-64850500D01*
X78878712Y-64850500D01*
X79121283Y-64850500D01*
X79121289Y-64850500D01*
X79169388Y-64844167D01*
X79361789Y-64818838D01*
X79596100Y-64756054D01*
X79820212Y-64663224D01*
X80030289Y-64541936D01*
X80222738Y-64394265D01*
X80394265Y-64222738D01*
X80541936Y-64030289D01*
X80663224Y-63820212D01*
X80742674Y-63628402D01*
X80756053Y-63596103D01*
X80756054Y-63596100D01*
X80818838Y-63361789D01*
X80850500Y-63121288D01*
X80850500Y-63093469D01*
X115609500Y-63093469D01*
X115609500Y-63093475D01*
X115609500Y-63556517D01*
X115615770Y-63596104D01*
X115624354Y-63650304D01*
X115681950Y-63763342D01*
X115681952Y-63763344D01*
X115681954Y-63763347D01*
X115771652Y-63853045D01*
X115771654Y-63853046D01*
X115771658Y-63853050D01*
X115884694Y-63910645D01*
X115884698Y-63910647D01*
X115978220Y-63925458D01*
X115978457Y-63925497D01*
X115978466Y-63925497D01*
X115978475Y-63925499D01*
X115978481Y-63925500D01*
X116591518Y-63925499D01*
X116685304Y-63910646D01*
X116798342Y-63853050D01*
X116888050Y-63763342D01*
X116902956Y-63734085D01*
X116916830Y-63712648D01*
X116919908Y-63708822D01*
X116921497Y-63707140D01*
X116921805Y-63706463D01*
X116926001Y-63701250D01*
X116929842Y-63698578D01*
X116943443Y-63683546D01*
X116944996Y-63682256D01*
X116945000Y-63682255D01*
X116945002Y-63682252D01*
X116947115Y-63680500D01*
X116975952Y-63662612D01*
X116978771Y-63661360D01*
X117011546Y-63651935D01*
X117012704Y-63651769D01*
X117012854Y-63651748D01*
X117030403Y-63650500D01*
X117238671Y-63650500D01*
X117273606Y-63655523D01*
X117288604Y-63659927D01*
X117347355Y-63697672D01*
X117347379Y-63697700D01*
X117347382Y-63697702D01*
X117347383Y-63697704D01*
X117348542Y-63699041D01*
X117376018Y-63753902D01*
X117377663Y-63761460D01*
X117380500Y-63787831D01*
X117380500Y-63953752D01*
X117392131Y-64012229D01*
X117392132Y-64012230D01*
X117392132Y-64012231D01*
X117392134Y-64012233D01*
X117436447Y-64078552D01*
X117502765Y-64122864D01*
X117502767Y-64122866D01*
X117502770Y-64122868D01*
X117553612Y-64132981D01*
X117556337Y-64133703D01*
X117561249Y-64134500D01*
X118818750Y-64134500D01*
X118822873Y-64134500D01*
X118830732Y-64132116D01*
X118850381Y-64128208D01*
X118865258Y-64125249D01*
X118871354Y-64124648D01*
X118871386Y-64124639D01*
X118882311Y-64121902D01*
X118892515Y-64112654D01*
X118943552Y-64078552D01*
X118987867Y-64012231D01*
X118987867Y-64012229D01*
X118987868Y-64012229D01*
X118990030Y-64001355D01*
X118990166Y-64001090D01*
X118990249Y-64000256D01*
X118999068Y-63955917D01*
X118999500Y-63953931D01*
X118999500Y-62698295D01*
X118999500Y-62696249D01*
X118999499Y-62696247D01*
X118987868Y-62637770D01*
X118987867Y-62637769D01*
X118943552Y-62571447D01*
X118907146Y-62547121D01*
X118887385Y-62533917D01*
X118882641Y-62530024D01*
X118877230Y-62527132D01*
X118877229Y-62527131D01*
X118818752Y-62515500D01*
X118818750Y-62515500D01*
X117561249Y-62515500D01*
X117561247Y-62515500D01*
X117502770Y-62527131D01*
X117502769Y-62527131D01*
X117502768Y-62527132D01*
X117502765Y-62527133D01*
X117502759Y-62527138D01*
X117436447Y-62571447D01*
X117392138Y-62637759D01*
X117392133Y-62637765D01*
X117392132Y-62637768D01*
X117392132Y-62637769D01*
X117392131Y-62637770D01*
X117380500Y-62696247D01*
X117380500Y-62696249D01*
X117380500Y-62857666D01*
X117378631Y-62879112D01*
X117376993Y-62888440D01*
X117375592Y-62891271D01*
X117375476Y-62892604D01*
X117374193Y-62896973D01*
X117373225Y-62896688D01*
X117369111Y-62912807D01*
X117369797Y-62913063D01*
X117368734Y-62915911D01*
X117368105Y-62916750D01*
X117367659Y-62918500D01*
X117366422Y-62921209D01*
X117365189Y-62920646D01*
X117356252Y-62932587D01*
X117353406Y-62942294D01*
X117348054Y-62946934D01*
X117346011Y-62951065D01*
X117339499Y-62954969D01*
X117330399Y-62967127D01*
X117331273Y-62968137D01*
X117330217Y-62969051D01*
X117328307Y-62969922D01*
X117326910Y-62971790D01*
X117324470Y-62973618D01*
X117323385Y-62972170D01*
X117314025Y-62976443D01*
X117300619Y-62988069D01*
X117266758Y-62998024D01*
X117265322Y-62998231D01*
X117247630Y-62999500D01*
X117039363Y-62999500D01*
X117004427Y-62994477D01*
X116988046Y-62989667D01*
X116931031Y-62953882D01*
X116928482Y-62951065D01*
X116922102Y-62944013D01*
X116903571Y-62917120D01*
X116888050Y-62886658D01*
X116888046Y-62886654D01*
X116888045Y-62886652D01*
X116798347Y-62796954D01*
X116798344Y-62796952D01*
X116798342Y-62796950D01*
X116798340Y-62796949D01*
X116798339Y-62796948D01*
X116721519Y-62757805D01*
X116721519Y-62757806D01*
X116720258Y-62757163D01*
X116685301Y-62739352D01*
X116685299Y-62739351D01*
X116685298Y-62739351D01*
X116685296Y-62739350D01*
X116591530Y-62724500D01*
X116591524Y-62724500D01*
X115978482Y-62724500D01*
X115978478Y-62724500D01*
X115913846Y-62734736D01*
X115913842Y-62734737D01*
X115897519Y-62737323D01*
X115884696Y-62739354D01*
X115771658Y-62796950D01*
X115771657Y-62796951D01*
X115771652Y-62796954D01*
X115768652Y-62799953D01*
X115768649Y-62799955D01*
X115681955Y-62886649D01*
X115681946Y-62886664D01*
X115624353Y-62999695D01*
X115624350Y-62999703D01*
X115609500Y-63093469D01*
X80850500Y-63093469D01*
X80850500Y-62878712D01*
X80818838Y-62638211D01*
X80756054Y-62403900D01*
X80748432Y-62385500D01*
X80697439Y-62262391D01*
X80663224Y-62179788D01*
X80541936Y-61969711D01*
X80394265Y-61777262D01*
X80394260Y-61777256D01*
X80394259Y-61777255D01*
X80394247Y-61777242D01*
X80222751Y-61605747D01*
X80222743Y-61605739D01*
X80222736Y-61605733D01*
X80222733Y-61605730D01*
X80222728Y-61605726D01*
X80031879Y-61459284D01*
X80030615Y-61458281D01*
X80030286Y-61458062D01*
X80030283Y-61458060D01*
X79820220Y-61336780D01*
X79820207Y-61336773D01*
X79820203Y-61336772D01*
X79596104Y-61243947D01*
X79361781Y-61181160D01*
X79121290Y-61149500D01*
X79121289Y-61149500D01*
X79121288Y-61149500D01*
X78878712Y-61149500D01*
X78878711Y-61149500D01*
X78878710Y-61149500D01*
X78638217Y-61181160D01*
X78403894Y-61243947D01*
X78179790Y-61336774D01*
X78179782Y-61336778D01*
X77969706Y-61458067D01*
X77969697Y-61458073D01*
X77777270Y-61605726D01*
X77777255Y-61605740D01*
X77777247Y-61605747D01*
X77605747Y-61777247D01*
X77605740Y-61777255D01*
X77605726Y-61777270D01*
X77458073Y-61969697D01*
X77458067Y-61969706D01*
X77336778Y-62179782D01*
X77336774Y-62179790D01*
X77243947Y-62403894D01*
X77181160Y-62638217D01*
X77149500Y-62878710D01*
X75500500Y-62878710D01*
X75500500Y-30104187D01*
X82124500Y-30104187D01*
X82124500Y-56548159D01*
X82140202Y-56673167D01*
X82140204Y-56673177D01*
X82155366Y-56732584D01*
X82155372Y-56732600D01*
X82201491Y-56849822D01*
X82201495Y-56849831D01*
X82201496Y-56849833D01*
X82214103Y-56872922D01*
X82253099Y-56933603D01*
X82274251Y-56961859D01*
X82321484Y-57016368D01*
X82321498Y-57016382D01*
X83228815Y-57923700D01*
X83228824Y-57923708D01*
X83228827Y-57923711D01*
X83310159Y-57986893D01*
X83328322Y-58001003D01*
X83381070Y-58032301D01*
X83496585Y-58082584D01*
X83496589Y-58082585D01*
X83496593Y-58082587D01*
X83521835Y-58089999D01*
X83592314Y-58105332D01*
X83627249Y-58110355D01*
X83654538Y-58110355D01*
X83672184Y-58111617D01*
X83675031Y-58112026D01*
X83699192Y-58115500D01*
X95515500Y-58115500D01*
X95582539Y-58135185D01*
X95628294Y-58187989D01*
X95639500Y-58239500D01*
X95639500Y-59125706D01*
X95639499Y-59125712D01*
X95639500Y-59125715D01*
X95634475Y-59160650D01*
X95630070Y-59175648D01*
X95592300Y-59234415D01*
X95584432Y-59241233D01*
X95546749Y-59262521D01*
X95547056Y-59263262D01*
X95542555Y-59265126D01*
X95388210Y-59343768D01*
X95308256Y-59401859D01*
X95308255Y-59401859D01*
X95259941Y-59436961D01*
X95252564Y-59441092D01*
X95121092Y-59572564D01*
X95116961Y-59579941D01*
X95081859Y-59628255D01*
X95081859Y-59628256D01*
X95023768Y-59708210D01*
X94945129Y-59862549D01*
X94891596Y-60027305D01*
X94864500Y-60198383D01*
X94864500Y-61371614D01*
X94871179Y-61413781D01*
X94885209Y-61502366D01*
X94891598Y-61542701D01*
X94945127Y-61707445D01*
X95023768Y-61861788D01*
X95125586Y-62001928D01*
X95248072Y-62124414D01*
X95388212Y-62226232D01*
X95542555Y-62304873D01*
X95707299Y-62358402D01*
X95878389Y-62385500D01*
X95878390Y-62385500D01*
X96051610Y-62385500D01*
X96051611Y-62385500D01*
X96222701Y-62358402D01*
X96387445Y-62304873D01*
X96541788Y-62226232D01*
X96681928Y-62124414D01*
X96804414Y-62001928D01*
X96906232Y-61861788D01*
X96984873Y-61707445D01*
X97038402Y-61542701D01*
X97065500Y-61371611D01*
X97065500Y-60198389D01*
X97038402Y-60027299D01*
X96984873Y-59862555D01*
X96906232Y-59708212D01*
X96804414Y-59568072D01*
X96681928Y-59445586D01*
X96611858Y-59394677D01*
X96541786Y-59343766D01*
X96495228Y-59320044D01*
X96387445Y-59265127D01*
X96387444Y-59265126D01*
X96387445Y-59265126D01*
X96384195Y-59264070D01*
X96375787Y-59259846D01*
X96372615Y-59256884D01*
X96361453Y-59251396D01*
X96348552Y-59242573D01*
X96304329Y-59188481D01*
X96300276Y-59178891D01*
X96290500Y-59130632D01*
X96290500Y-58239500D01*
X96310185Y-58172461D01*
X96362989Y-58126706D01*
X96414500Y-58115500D01*
X107603156Y-58115500D01*
X107603157Y-58115500D01*
X107728181Y-58099795D01*
X107787611Y-58084625D01*
X107904862Y-58038489D01*
X107927950Y-58025881D01*
X107988615Y-57986892D01*
X108016866Y-57965743D01*
X108071368Y-57918515D01*
X108978711Y-57011172D01*
X109056004Y-56911675D01*
X109087299Y-56858931D01*
X109137585Y-56743412D01*
X109144997Y-56718171D01*
X109160328Y-56647703D01*
X109165352Y-56612769D01*
X109169212Y-56576873D01*
X109168868Y-56572066D01*
X109169816Y-56545563D01*
X109170500Y-56540808D01*
X109170500Y-49349500D01*
X109190185Y-49282461D01*
X109242989Y-49236706D01*
X109294500Y-49225500D01*
X109585409Y-49225500D01*
X109652448Y-49245185D01*
X109698203Y-49297989D01*
X109708147Y-49367147D01*
X109688511Y-49418391D01*
X109639057Y-49492403D01*
X109559870Y-49683579D01*
X109559864Y-49683604D01*
X109519500Y-49886527D01*
X109519500Y-49886530D01*
X109519500Y-50093469D01*
X109519500Y-50093471D01*
X109519499Y-50093471D01*
X109559832Y-50296231D01*
X109559868Y-50296412D01*
X109559870Y-50296420D01*
X109602567Y-50399500D01*
X109635964Y-50480128D01*
X109639058Y-50487596D01*
X109686613Y-50558768D01*
X109754027Y-50659661D01*
X109900336Y-50805970D01*
X109900340Y-50805973D01*
X109900342Y-50805975D01*
X109900345Y-50805977D01*
X109900349Y-50805980D01*
X109900348Y-50805980D01*
X109900411Y-50806032D01*
X109900448Y-50806046D01*
X110072402Y-50920941D01*
X110072403Y-50920941D01*
X110072404Y-50920942D01*
X110127624Y-50943815D01*
X110151479Y-50953696D01*
X110181830Y-50971703D01*
X110194003Y-50981512D01*
X110204174Y-50996160D01*
X110205883Y-50997537D01*
X110206575Y-50999618D01*
X110233852Y-51038900D01*
X110238152Y-51051817D01*
X110244500Y-51090983D01*
X110244500Y-53207854D01*
X110266682Y-53290640D01*
X110271983Y-53299820D01*
X110271985Y-53299826D01*
X110297747Y-53344445D01*
X110309535Y-53364862D01*
X110309537Y-53364864D01*
X117365730Y-60421057D01*
X117386879Y-60449309D01*
X117396935Y-60467725D01*
X117412098Y-60526044D01*
X117412158Y-60532761D01*
X117409781Y-60558059D01*
X117382019Y-60697635D01*
X117381296Y-60700362D01*
X117380500Y-60705271D01*
X117380500Y-60864736D01*
X117411600Y-61021088D01*
X117411608Y-61021123D01*
X117472624Y-61168433D01*
X117472629Y-61168443D01*
X117561220Y-61301027D01*
X117561221Y-61301028D01*
X117561226Y-61301034D01*
X117673967Y-61413775D01*
X117673971Y-61413778D01*
X117806554Y-61502368D01*
X117806557Y-61502369D01*
X117806558Y-61502370D01*
X117953878Y-61563392D01*
X118110266Y-61594499D01*
X118110270Y-61594500D01*
X118110271Y-61594500D01*
X118269730Y-61594500D01*
X118269731Y-61594499D01*
X118426122Y-61563392D01*
X118573442Y-61502370D01*
X118624307Y-61468383D01*
X127249500Y-61468383D01*
X127249500Y-62641615D01*
X127274315Y-62798293D01*
X127274316Y-62798301D01*
X127276597Y-62812697D01*
X127276597Y-62812699D01*
X127276598Y-62812701D01*
X127280989Y-62826216D01*
X127280992Y-62826227D01*
X127330128Y-62977449D01*
X127403418Y-63121288D01*
X127408768Y-63131788D01*
X127510586Y-63271928D01*
X127633072Y-63394414D01*
X127773212Y-63496232D01*
X127927555Y-63574873D01*
X128092299Y-63628402D01*
X128263389Y-63655500D01*
X128263390Y-63655500D01*
X128436610Y-63655500D01*
X128436611Y-63655500D01*
X128607701Y-63628402D01*
X128772445Y-63574873D01*
X128926788Y-63496232D01*
X129066928Y-63394414D01*
X129189414Y-63271928D01*
X129291232Y-63131788D01*
X129369873Y-62977445D01*
X129423402Y-62812701D01*
X129450500Y-62641611D01*
X129450500Y-62367901D01*
X129455522Y-62332968D01*
X129462934Y-62307723D01*
X129494228Y-62254981D01*
X133533297Y-58215913D01*
X133533301Y-58215909D01*
X133567137Y-58165271D01*
X133637322Y-58060231D01*
X133708973Y-57887251D01*
X133745500Y-57703616D01*
X133745500Y-56411901D01*
X133750521Y-56376974D01*
X133753707Y-56366121D01*
X133791477Y-56307340D01*
X133855031Y-56278311D01*
X133924186Y-56288249D01*
X133931172Y-56291439D01*
X133967342Y-56316552D01*
X137510573Y-59859783D01*
X137531723Y-59888035D01*
X137544331Y-59911124D01*
X137559500Y-59970553D01*
X137559500Y-60951954D01*
X137556074Y-60980901D01*
X137556074Y-60980903D01*
X137549411Y-61008655D01*
X137539322Y-61036000D01*
X137490138Y-61132529D01*
X137490127Y-61132553D01*
X137436596Y-61297301D01*
X137409500Y-61468383D01*
X137409500Y-62641615D01*
X137434315Y-62798293D01*
X137434316Y-62798301D01*
X137436597Y-62812697D01*
X137436597Y-62812699D01*
X137436598Y-62812701D01*
X137440989Y-62826216D01*
X137440992Y-62826227D01*
X137490128Y-62977449D01*
X137563418Y-63121288D01*
X137568768Y-63131788D01*
X137670586Y-63271928D01*
X137793072Y-63394414D01*
X137933212Y-63496232D01*
X138087555Y-63574873D01*
X138252299Y-63628402D01*
X138423389Y-63655500D01*
X138423390Y-63655500D01*
X138596610Y-63655500D01*
X138596611Y-63655500D01*
X138767701Y-63628402D01*
X138932445Y-63574873D01*
X139086788Y-63496232D01*
X139226928Y-63394414D01*
X139349414Y-63271928D01*
X139451232Y-63131788D01*
X139529873Y-62977445D01*
X139583402Y-62812701D01*
X139610500Y-62641611D01*
X139610500Y-61468389D01*
X139610499Y-61468383D01*
X149474500Y-61468383D01*
X149474500Y-62641615D01*
X149499315Y-62798293D01*
X149499316Y-62798301D01*
X149501597Y-62812697D01*
X149501597Y-62812699D01*
X149501598Y-62812701D01*
X149505989Y-62826216D01*
X149505992Y-62826227D01*
X149555128Y-62977449D01*
X149628418Y-63121288D01*
X149633768Y-63131788D01*
X149735586Y-63271928D01*
X149858072Y-63394414D01*
X149998212Y-63496232D01*
X150152555Y-63574873D01*
X150317299Y-63628402D01*
X150488389Y-63655500D01*
X150488390Y-63655500D01*
X150661610Y-63655500D01*
X150661611Y-63655500D01*
X150832701Y-63628402D01*
X150997445Y-63574873D01*
X151151788Y-63496232D01*
X151291928Y-63394414D01*
X151414414Y-63271928D01*
X151516232Y-63131788D01*
X151594873Y-62977445D01*
X151648402Y-62812701D01*
X151675500Y-62641611D01*
X151675500Y-62367901D01*
X151680522Y-62332968D01*
X151687934Y-62307723D01*
X151719228Y-62254981D01*
X158094714Y-55879495D01*
X158122964Y-55858347D01*
X158136688Y-55850853D01*
X158204946Y-55836002D01*
X158206756Y-55836131D01*
X158264953Y-55855497D01*
X158271471Y-55859686D01*
X158292106Y-55876316D01*
X159735574Y-57319784D01*
X159756723Y-57348035D01*
X159769331Y-57371124D01*
X159784500Y-57430553D01*
X159784500Y-60951954D01*
X159781074Y-60980903D01*
X159774411Y-61008655D01*
X159764322Y-61036000D01*
X159715138Y-61132529D01*
X159715127Y-61132553D01*
X159661596Y-61297301D01*
X159634500Y-61468383D01*
X159634500Y-62641615D01*
X159659315Y-62798293D01*
X159659316Y-62798301D01*
X159661597Y-62812697D01*
X159661597Y-62812699D01*
X159661598Y-62812701D01*
X159665989Y-62826216D01*
X159665992Y-62826227D01*
X159715128Y-62977449D01*
X159788418Y-63121288D01*
X159793768Y-63131788D01*
X159895586Y-63271928D01*
X160018072Y-63394414D01*
X160158212Y-63496232D01*
X160312555Y-63574873D01*
X160477299Y-63628402D01*
X160648389Y-63655500D01*
X160648390Y-63655500D01*
X160821610Y-63655500D01*
X160821611Y-63655500D01*
X160992701Y-63628402D01*
X161157445Y-63574873D01*
X161311788Y-63496232D01*
X161451928Y-63394414D01*
X161574414Y-63271928D01*
X161676232Y-63131788D01*
X161754873Y-62977445D01*
X161786954Y-62878710D01*
X169149500Y-62878710D01*
X169149500Y-63121288D01*
X169169331Y-63271930D01*
X169181161Y-63361785D01*
X169243947Y-63596104D01*
X169286031Y-63697704D01*
X169336772Y-63820203D01*
X169336773Y-63820207D01*
X169336780Y-63820220D01*
X169458052Y-64030269D01*
X169458062Y-64030286D01*
X169458281Y-64030615D01*
X169459284Y-64031879D01*
X169605726Y-64222728D01*
X169605730Y-64222733D01*
X169605733Y-64222736D01*
X169605739Y-64222743D01*
X169605747Y-64222751D01*
X169777242Y-64394247D01*
X169777256Y-64394260D01*
X169777262Y-64394265D01*
X169969711Y-64541936D01*
X170179788Y-64663224D01*
X170403900Y-64756054D01*
X170638211Y-64818838D01*
X170818586Y-64842584D01*
X170878710Y-64850500D01*
X170878711Y-64850500D01*
X170878712Y-64850500D01*
X171121283Y-64850500D01*
X171121289Y-64850500D01*
X171169388Y-64844167D01*
X171361789Y-64818838D01*
X171596100Y-64756054D01*
X171820212Y-64663224D01*
X172030289Y-64541936D01*
X172222738Y-64394265D01*
X172394265Y-64222738D01*
X172541936Y-64030289D01*
X172663224Y-63820212D01*
X172742674Y-63628402D01*
X172756053Y-63596103D01*
X172756054Y-63596100D01*
X172818838Y-63361789D01*
X172850500Y-63121288D01*
X172850500Y-62878712D01*
X172818838Y-62638211D01*
X172756054Y-62403900D01*
X172748432Y-62385500D01*
X172697439Y-62262391D01*
X172663224Y-62179788D01*
X172541936Y-61969711D01*
X172394265Y-61777262D01*
X172394260Y-61777256D01*
X172394259Y-61777255D01*
X172394247Y-61777242D01*
X172222751Y-61605747D01*
X172222743Y-61605739D01*
X172222736Y-61605733D01*
X172222733Y-61605730D01*
X172222728Y-61605726D01*
X172031879Y-61459284D01*
X172030615Y-61458281D01*
X172030286Y-61458062D01*
X172030283Y-61458060D01*
X171820220Y-61336780D01*
X171820207Y-61336773D01*
X171820203Y-61336772D01*
X171596104Y-61243947D01*
X171361781Y-61181160D01*
X171121290Y-61149500D01*
X171121289Y-61149500D01*
X171121288Y-61149500D01*
X170878712Y-61149500D01*
X170878711Y-61149500D01*
X170878710Y-61149500D01*
X170638217Y-61181160D01*
X170403894Y-61243947D01*
X170179790Y-61336774D01*
X170179782Y-61336778D01*
X169969706Y-61458067D01*
X169969697Y-61458073D01*
X169777270Y-61605726D01*
X169777255Y-61605740D01*
X169777247Y-61605747D01*
X169605747Y-61777247D01*
X169605740Y-61777255D01*
X169605726Y-61777270D01*
X169458073Y-61969697D01*
X169458067Y-61969706D01*
X169336778Y-62179782D01*
X169336774Y-62179790D01*
X169243947Y-62403894D01*
X169181160Y-62638217D01*
X169149500Y-62878710D01*
X161786954Y-62878710D01*
X161808402Y-62812701D01*
X161835500Y-62641611D01*
X161835500Y-61468389D01*
X161808402Y-61297299D01*
X161754873Y-61132555D01*
X161754869Y-61132547D01*
X161705677Y-61036000D01*
X161695589Y-61008655D01*
X161688926Y-60980901D01*
X161685500Y-60951954D01*
X161685500Y-56881381D01*
X161685409Y-56880643D01*
X161684908Y-56878408D01*
X161649635Y-56701079D01*
X161649219Y-56698649D01*
X161648973Y-56697750D01*
X161593790Y-56564523D01*
X161577329Y-56524782D01*
X161577324Y-56524773D01*
X161577319Y-56524763D01*
X161473301Y-56369091D01*
X161473298Y-56369087D01*
X161473294Y-56369082D01*
X160628998Y-55524788D01*
X160607849Y-55496538D01*
X160602427Y-55486608D01*
X160587574Y-55418338D01*
X160611988Y-55352873D01*
X160667918Y-55311001D01*
X160671797Y-55309554D01*
X160675133Y-55308311D01*
X160718447Y-55300500D01*
X169630708Y-55300500D01*
X169645383Y-55297580D01*
X169689024Y-55288899D01*
X169800840Y-55266658D01*
X169814339Y-55263973D01*
X169885989Y-55234294D01*
X169987318Y-55192323D01*
X170142996Y-55088302D01*
X171738302Y-53492996D01*
X171842323Y-53337318D01*
X171913973Y-53164338D01*
X171919745Y-53135315D01*
X171927757Y-53109813D01*
X171940032Y-53081761D01*
X171940031Y-53081760D01*
X171946679Y-53066568D01*
X171949781Y-53060008D01*
X172019873Y-52922445D01*
X172073402Y-52757701D01*
X172100500Y-52586611D01*
X172100500Y-51413389D01*
X172073402Y-51242299D01*
X172019873Y-51077555D01*
X171941232Y-50923212D01*
X171839414Y-50783072D01*
X171716928Y-50660586D01*
X171576788Y-50558768D01*
X171422449Y-50480128D01*
X171271215Y-50430988D01*
X171271203Y-50430985D01*
X171257701Y-50426598D01*
X171257699Y-50426597D01*
X171257698Y-50426597D01*
X171243312Y-50424318D01*
X171243306Y-50424317D01*
X171153188Y-50410044D01*
X171126271Y-50405781D01*
X171110407Y-50403268D01*
X171086614Y-50399500D01*
X171086611Y-50399500D01*
X170913389Y-50399500D01*
X170913388Y-50399500D01*
X170873726Y-50405781D01*
X170873725Y-50405780D01*
X170742304Y-50426596D01*
X170577549Y-50480129D01*
X170423210Y-50558768D01*
X170343256Y-50616859D01*
X170343255Y-50616859D01*
X170294941Y-50651961D01*
X170287564Y-50656092D01*
X170156092Y-50787564D01*
X170151961Y-50794941D01*
X170116859Y-50843255D01*
X170116859Y-50843256D01*
X170058768Y-50923210D01*
X169980129Y-51077549D01*
X169926596Y-51242305D01*
X169899500Y-51413383D01*
X169899500Y-52567905D01*
X169896810Y-52593592D01*
X169890334Y-52624176D01*
X169857189Y-52685683D01*
X169856705Y-52686170D01*
X169192304Y-53350573D01*
X169164053Y-53371722D01*
X169140965Y-53384330D01*
X169081535Y-53399500D01*
X158652330Y-53399500D01*
X158652325Y-53399499D01*
X158652323Y-53399500D01*
X158617389Y-53394475D01*
X158602390Y-53390070D01*
X158543644Y-53352327D01*
X158543615Y-53352293D01*
X158543614Y-53352293D01*
X158543613Y-53352291D01*
X158542457Y-53350958D01*
X158514977Y-53296083D01*
X158513332Y-53288521D01*
X158510500Y-53262168D01*
X158510500Y-51801381D01*
X158510409Y-51800643D01*
X158509908Y-51798408D01*
X158493883Y-51717843D01*
X158492675Y-51711771D01*
X158473973Y-51617749D01*
X158402322Y-51444769D01*
X158402321Y-51444768D01*
X158402318Y-51444762D01*
X158402318Y-51444761D01*
X158298300Y-51289089D01*
X158298299Y-51289088D01*
X158298294Y-51289082D01*
X158165916Y-51156704D01*
X158165910Y-51156699D01*
X158165909Y-51156698D01*
X158010231Y-51052677D01*
X158010232Y-51052677D01*
X158010222Y-51052672D01*
X157837252Y-50981027D01*
X157837225Y-50981021D01*
X157653622Y-50944500D01*
X157653620Y-50944500D01*
X157653616Y-50944500D01*
X157466384Y-50944500D01*
X157466379Y-50944500D01*
X157466374Y-50944500D01*
X157294048Y-50978777D01*
X157294036Y-50978781D01*
X157282756Y-50981025D01*
X157282753Y-50981026D01*
X157282752Y-50981026D01*
X157282749Y-50981027D01*
X157248387Y-50995259D01*
X157245686Y-50996235D01*
X157242048Y-50996456D01*
X157216838Y-51002891D01*
X157201294Y-51004562D01*
X157177991Y-51000357D01*
X157175945Y-51000482D01*
X157174643Y-50999753D01*
X157132534Y-50992155D01*
X157120355Y-50986058D01*
X157088184Y-50962858D01*
X152794426Y-46669099D01*
X152794425Y-46669098D01*
X152794421Y-46669094D01*
X152773274Y-46640843D01*
X152760667Y-46617754D01*
X152745500Y-46558329D01*
X152745500Y-44088789D01*
X152750523Y-44053853D01*
X152754927Y-44038855D01*
X152792702Y-43980078D01*
X152802994Y-43971160D01*
X152836738Y-43950314D01*
X152893914Y-43926632D01*
X153057782Y-43817139D01*
X153197139Y-43677782D01*
X153306632Y-43513914D01*
X153382051Y-43331835D01*
X153393955Y-43271988D01*
X153394632Y-43268585D01*
X153394632Y-43268582D01*
X153420500Y-43138543D01*
X153420500Y-42941456D01*
X153420500Y-42941453D01*
X153381812Y-42746963D01*
X153379725Y-42742550D01*
X153340253Y-42647255D01*
X153340251Y-42647250D01*
X153306635Y-42566092D01*
X153306628Y-42566079D01*
X153197139Y-42402218D01*
X153197136Y-42402214D01*
X153197131Y-42402208D01*
X153057790Y-42262867D01*
X153057784Y-42262862D01*
X153057783Y-42262861D01*
X152893926Y-42153375D01*
X152893925Y-42153374D01*
X152893920Y-42153371D01*
X152893907Y-42153364D01*
X152893900Y-42153360D01*
X152711861Y-42077958D01*
X152711847Y-42077953D01*
X152711839Y-42077950D01*
X152711829Y-42077947D01*
X152711826Y-42077946D01*
X152711822Y-42077945D01*
X152518546Y-42039500D01*
X152518543Y-42039500D01*
X152518541Y-42039500D01*
X152321459Y-42039500D01*
X152321457Y-42039500D01*
X152321453Y-42039500D01*
X152128176Y-42077945D01*
X152128170Y-42077947D01*
X152128160Y-42077950D01*
X152128155Y-42077951D01*
X152128137Y-42077958D01*
X151946098Y-42153360D01*
X151946089Y-42153365D01*
X151946072Y-42153375D01*
X151782215Y-42262861D01*
X151782214Y-42262862D01*
X151782208Y-42262867D01*
X151642867Y-42402208D01*
X151642862Y-42402214D01*
X151642861Y-42402215D01*
X151533375Y-42566072D01*
X151533365Y-42566089D01*
X151533360Y-42566098D01*
X151457958Y-42748137D01*
X151457945Y-42748176D01*
X151419500Y-42941451D01*
X151419500Y-43094174D01*
X151414237Y-43112094D01*
X151457945Y-43331822D01*
X151457946Y-43331826D01*
X151457947Y-43331829D01*
X151457950Y-43331839D01*
X151457953Y-43331847D01*
X151457958Y-43331861D01*
X151533360Y-43513900D01*
X151533365Y-43513909D01*
X151533375Y-43513926D01*
X151642861Y-43677783D01*
X151642862Y-43677784D01*
X151642867Y-43677790D01*
X151782214Y-43817137D01*
X151906032Y-43899869D01*
X151906031Y-43899869D01*
X151946075Y-43926625D01*
X151946079Y-43926627D01*
X151946086Y-43926632D01*
X152001488Y-43949579D01*
X152031833Y-43967585D01*
X152044008Y-43977395D01*
X152083852Y-44034781D01*
X152088153Y-44047702D01*
X152094500Y-44086865D01*
X152094500Y-46797857D01*
X152116681Y-46880638D01*
X152116682Y-46880640D01*
X152138108Y-46917750D01*
X152159535Y-46954862D01*
X154408087Y-49203414D01*
X155521725Y-50317052D01*
X156626497Y-51421823D01*
X156626498Y-51421824D01*
X156647649Y-51450079D01*
X156655141Y-51463800D01*
X156669992Y-51532067D01*
X156669021Y-51545649D01*
X156659899Y-51584258D01*
X156646027Y-51617748D01*
X156645936Y-51618022D01*
X156645597Y-51619901D01*
X156609500Y-51801374D01*
X156609500Y-54607097D01*
X156609499Y-54607099D01*
X156609500Y-54607100D01*
X156604476Y-54642034D01*
X156597064Y-54667275D01*
X156565769Y-54720019D01*
X150865372Y-60420415D01*
X150837120Y-60441565D01*
X150817571Y-60452240D01*
X150761675Y-60467358D01*
X150757211Y-60467485D01*
X150734286Y-60466009D01*
X150661621Y-60454500D01*
X150661617Y-60454500D01*
X150661611Y-60454500D01*
X150488389Y-60454500D01*
X150488388Y-60454500D01*
X150448726Y-60460781D01*
X150448725Y-60460780D01*
X150317304Y-60481596D01*
X150152549Y-60535129D01*
X149998210Y-60613768D01*
X149918256Y-60671859D01*
X149918255Y-60671859D01*
X149869941Y-60706961D01*
X149862564Y-60711092D01*
X149731094Y-60842562D01*
X149726965Y-60849936D01*
X149716222Y-60864724D01*
X149716218Y-60864729D01*
X149633772Y-60978205D01*
X149633764Y-60978218D01*
X149555101Y-61132604D01*
X149554630Y-61133545D01*
X149553546Y-61137420D01*
X149543468Y-61168439D01*
X149543467Y-61168441D01*
X149501596Y-61297305D01*
X149474500Y-61468383D01*
X139610499Y-61468383D01*
X139583402Y-61297299D01*
X139529873Y-61132555D01*
X139529869Y-61132547D01*
X139480677Y-61036000D01*
X139470589Y-61008655D01*
X139463926Y-60980901D01*
X139460500Y-60951954D01*
X139460500Y-59421381D01*
X139460409Y-59420642D01*
X139459909Y-59418412D01*
X139445061Y-59343767D01*
X139445060Y-59343766D01*
X139423973Y-59237749D01*
X139399593Y-59178892D01*
X139394442Y-59166455D01*
X139394427Y-59166421D01*
X139394294Y-59166099D01*
X139352323Y-59064770D01*
X139352320Y-59064765D01*
X139352319Y-59064763D01*
X139248302Y-58909092D01*
X139248299Y-58909088D01*
X139248294Y-58909082D01*
X133794426Y-53455215D01*
X133794421Y-53455210D01*
X133773274Y-53426959D01*
X133760667Y-53403870D01*
X133745500Y-53344445D01*
X133745500Y-52362329D01*
X133750523Y-52327393D01*
X133754927Y-52312395D01*
X133792672Y-52253644D01*
X133794041Y-52252457D01*
X133848920Y-52224977D01*
X133856479Y-52223333D01*
X133882832Y-52220500D01*
X138096210Y-52220500D01*
X138131145Y-52225523D01*
X138146143Y-52229927D01*
X138204916Y-52267697D01*
X138204919Y-52267701D01*
X138204921Y-52267702D01*
X138204921Y-52267703D01*
X138213834Y-52277988D01*
X138234686Y-52311743D01*
X138258358Y-52368893D01*
X138258366Y-52368911D01*
X138258375Y-52368926D01*
X138367861Y-52532783D01*
X138367862Y-52532784D01*
X138367867Y-52532790D01*
X138507208Y-52672131D01*
X138507214Y-52672136D01*
X138507218Y-52672139D01*
X138671079Y-52781628D01*
X138671092Y-52781635D01*
X138671094Y-52781635D01*
X138671098Y-52781638D01*
X138755600Y-52816639D01*
X138825278Y-52845500D01*
X138847553Y-52854726D01*
X138851963Y-52856812D01*
X139046453Y-52895500D01*
X139243543Y-52895500D01*
X139243544Y-52895500D01*
X139265327Y-52891166D01*
X139374250Y-52869500D01*
X139436835Y-52857051D01*
X139618914Y-52781632D01*
X139782782Y-52672139D01*
X139922139Y-52532782D01*
X140031632Y-52368914D01*
X140107051Y-52186835D01*
X140145500Y-51993541D01*
X140145500Y-51796459D01*
X140145500Y-51796456D01*
X140145500Y-51796453D01*
X140106812Y-51601963D01*
X140104725Y-51597550D01*
X140093074Y-51569421D01*
X140043642Y-51450079D01*
X140031638Y-51421098D01*
X140031633Y-51421089D01*
X140031632Y-51421087D01*
X140031628Y-51421079D01*
X139922139Y-51257218D01*
X139922136Y-51257214D01*
X139922131Y-51257208D01*
X139782790Y-51117867D01*
X139782784Y-51117862D01*
X139782783Y-51117861D01*
X139618926Y-51008375D01*
X139618925Y-51008374D01*
X139618920Y-51008371D01*
X139618907Y-51008364D01*
X139618900Y-51008360D01*
X139436861Y-50932958D01*
X139436847Y-50932953D01*
X139436839Y-50932950D01*
X139436829Y-50932947D01*
X139436826Y-50932946D01*
X139436822Y-50932945D01*
X139243546Y-50894500D01*
X139243543Y-50894500D01*
X139243541Y-50894500D01*
X139046459Y-50894500D01*
X139046457Y-50894500D01*
X139046453Y-50894500D01*
X138853176Y-50932945D01*
X138853170Y-50932947D01*
X138853160Y-50932950D01*
X138853155Y-50932951D01*
X138853137Y-50932958D01*
X138671098Y-51008360D01*
X138671089Y-51008365D01*
X138671072Y-51008375D01*
X138507215Y-51117861D01*
X138507214Y-51117862D01*
X138507208Y-51117867D01*
X138367867Y-51257208D01*
X138367862Y-51257214D01*
X138367861Y-51257215D01*
X138258375Y-51421072D01*
X138258366Y-51421087D01*
X138258361Y-51421098D01*
X138235421Y-51476481D01*
X138217415Y-51506830D01*
X138207607Y-51519002D01*
X138150218Y-51558852D01*
X138150216Y-51558852D01*
X138150216Y-51558853D01*
X138150214Y-51558853D01*
X138137301Y-51563152D01*
X138098135Y-51569500D01*
X133789672Y-51569500D01*
X133754731Y-51564475D01*
X133739732Y-51560070D01*
X133724737Y-51550434D01*
X133707640Y-51545415D01*
X133680965Y-51522304D01*
X133677532Y-51518343D01*
X133672042Y-51512007D01*
X133651195Y-51478261D01*
X133641145Y-51453999D01*
X133639703Y-51449533D01*
X133637325Y-51444777D01*
X133637323Y-51444772D01*
X133637323Y-51444771D01*
X133637322Y-51444769D01*
X133637320Y-51444766D01*
X133637318Y-51444762D01*
X133637307Y-51444746D01*
X133637304Y-51444740D01*
X133533300Y-51289089D01*
X133533299Y-51289088D01*
X133533294Y-51289082D01*
X133400916Y-51156704D01*
X133400910Y-51156699D01*
X133400909Y-51156698D01*
X133245231Y-51052677D01*
X133245232Y-51052677D01*
X133245222Y-51052672D01*
X133072252Y-50981027D01*
X133072225Y-50981021D01*
X132888622Y-50944500D01*
X132888620Y-50944500D01*
X132888616Y-50944500D01*
X132701384Y-50944500D01*
X132701379Y-50944500D01*
X132701377Y-50944500D01*
X132517773Y-50981021D01*
X132517746Y-50981027D01*
X132344776Y-51052672D01*
X132344766Y-51052677D01*
X132189089Y-51156698D01*
X132189088Y-51156699D01*
X132189082Y-51156704D01*
X132056704Y-51289082D01*
X132056699Y-51289088D01*
X132056698Y-51289089D01*
X131952677Y-51444766D01*
X131952672Y-51444776D01*
X131881027Y-51617746D01*
X131881021Y-51617773D01*
X131844500Y-51801376D01*
X131844500Y-57147097D01*
X131844499Y-57147099D01*
X131844500Y-57147100D01*
X131839476Y-57182034D01*
X131832064Y-57207275D01*
X131800769Y-57260019D01*
X128640372Y-60420415D01*
X128612120Y-60441565D01*
X128592571Y-60452240D01*
X128536675Y-60467358D01*
X128532211Y-60467485D01*
X128509286Y-60466009D01*
X128436621Y-60454500D01*
X128436617Y-60454500D01*
X128436611Y-60454500D01*
X128263389Y-60454500D01*
X128263388Y-60454500D01*
X128223726Y-60460781D01*
X128223725Y-60460780D01*
X128092304Y-60481596D01*
X127927549Y-60535129D01*
X127773210Y-60613768D01*
X127693256Y-60671859D01*
X127693255Y-60671859D01*
X127644941Y-60706961D01*
X127637564Y-60711092D01*
X127506094Y-60842562D01*
X127501965Y-60849936D01*
X127491222Y-60864724D01*
X127491218Y-60864729D01*
X127408772Y-60978205D01*
X127408764Y-60978218D01*
X127330101Y-61132604D01*
X127329630Y-61133545D01*
X127328546Y-61137420D01*
X127318468Y-61168439D01*
X127318467Y-61168441D01*
X127276596Y-61297305D01*
X127249500Y-61468383D01*
X118624307Y-61468383D01*
X118706026Y-61413780D01*
X118706029Y-61413777D01*
X118743971Y-61375836D01*
X118818777Y-61301029D01*
X118818780Y-61301026D01*
X118907370Y-61168442D01*
X118968392Y-61021122D01*
X118999500Y-60864729D01*
X118999500Y-60705271D01*
X118968392Y-60548878D01*
X118907370Y-60401558D01*
X118907369Y-60401557D01*
X118907368Y-60401554D01*
X118818778Y-60268971D01*
X118818777Y-60268970D01*
X118818772Y-60268964D01*
X118706034Y-60156226D01*
X118706028Y-60156221D01*
X118706027Y-60156220D01*
X118573442Y-60067629D01*
X118573443Y-60067629D01*
X118573433Y-60067624D01*
X118426123Y-60006608D01*
X118426088Y-60006600D01*
X118269736Y-59975500D01*
X118269733Y-59975500D01*
X118269729Y-59975500D01*
X118110271Y-59975500D01*
X118110267Y-59975500D01*
X117981846Y-60001045D01*
X117975555Y-60002296D01*
X117968013Y-60003796D01*
X117932777Y-60005683D01*
X117911882Y-60003813D01*
X117854976Y-59984026D01*
X117849352Y-59980341D01*
X117829630Y-59964303D01*
X116030589Y-58165262D01*
X117380500Y-58165262D01*
X117380500Y-58324736D01*
X117411600Y-58481088D01*
X117411608Y-58481123D01*
X117472624Y-58628433D01*
X117472629Y-58628443D01*
X117561220Y-58761027D01*
X117561221Y-58761028D01*
X117561226Y-58761034D01*
X117673964Y-58873772D01*
X117673970Y-58873777D01*
X117673971Y-58873778D01*
X117806554Y-58962368D01*
X117806557Y-58962369D01*
X117806558Y-58962370D01*
X117953878Y-59023392D01*
X118110266Y-59054499D01*
X118110270Y-59054500D01*
X118110271Y-59054500D01*
X118269730Y-59054500D01*
X118269731Y-59054499D01*
X118426122Y-59023392D01*
X118573442Y-58962370D01*
X118706026Y-58873780D01*
X118818780Y-58761026D01*
X118907370Y-58628442D01*
X118968392Y-58481122D01*
X118999500Y-58324729D01*
X118999500Y-58165271D01*
X118968392Y-58008878D01*
X118907370Y-57861558D01*
X118907369Y-57861557D01*
X118907368Y-57861555D01*
X118907368Y-57861554D01*
X118818778Y-57728971D01*
X118818777Y-57728970D01*
X118818772Y-57728964D01*
X118706031Y-57616223D01*
X118706026Y-57616220D01*
X118706017Y-57616214D01*
X118585426Y-57535637D01*
X118559175Y-57512056D01*
X118545720Y-57495956D01*
X118519473Y-57441718D01*
X118518103Y-57435138D01*
X118515500Y-57409862D01*
X118515500Y-56422577D01*
X118520522Y-56387644D01*
X118523945Y-56375987D01*
X118525332Y-56371262D01*
X118534424Y-56356776D01*
X118538583Y-56341406D01*
X118561120Y-56314244D01*
X118570992Y-56305313D01*
X118597881Y-56286784D01*
X118703342Y-56233050D01*
X118793050Y-56143342D01*
X118850646Y-56030304D01*
X118850646Y-56030302D01*
X118850647Y-56030301D01*
X118850648Y-56030294D01*
X118851785Y-56025560D01*
X118851785Y-56025558D01*
X118851789Y-56025539D01*
X118852173Y-56020668D01*
X118865111Y-55938979D01*
X118865437Y-55937154D01*
X118865499Y-55936523D01*
X118865500Y-55936519D01*
X118865499Y-55473482D01*
X118850646Y-55379696D01*
X118793050Y-55266658D01*
X118793046Y-55266654D01*
X118793045Y-55266652D01*
X118703347Y-55176954D01*
X118703344Y-55176952D01*
X118703342Y-55176950D01*
X118703340Y-55176949D01*
X118703339Y-55176948D01*
X118626519Y-55137805D01*
X118626519Y-55137806D01*
X118625258Y-55137163D01*
X118590301Y-55119352D01*
X118590299Y-55119351D01*
X118590298Y-55119351D01*
X118590296Y-55119350D01*
X118496530Y-55104500D01*
X118496524Y-55104500D01*
X117883482Y-55104500D01*
X117883478Y-55104500D01*
X117818846Y-55114736D01*
X117818842Y-55114737D01*
X117802519Y-55117323D01*
X117789696Y-55119354D01*
X117676658Y-55176950D01*
X117676657Y-55176951D01*
X117676652Y-55176954D01*
X117673652Y-55179953D01*
X117673649Y-55179955D01*
X117586955Y-55266649D01*
X117586946Y-55266664D01*
X117529353Y-55379695D01*
X117529350Y-55379703D01*
X117514500Y-55473469D01*
X117514500Y-55936520D01*
X117522838Y-55989167D01*
X117522839Y-55989169D01*
X117525292Y-56004657D01*
X117529354Y-56030304D01*
X117586950Y-56143342D01*
X117586952Y-56143344D01*
X117586954Y-56143347D01*
X117591635Y-56148028D01*
X117591636Y-56148030D01*
X117676649Y-56233043D01*
X117676651Y-56233044D01*
X117676652Y-56233045D01*
X117676656Y-56233048D01*
X117676658Y-56233050D01*
X117780913Y-56286171D01*
X117794914Y-56296041D01*
X117809759Y-56306506D01*
X117822166Y-56318224D01*
X117856720Y-56375987D01*
X117860196Y-56388834D01*
X117864500Y-56421220D01*
X117864500Y-57404805D01*
X117859476Y-57439742D01*
X117853564Y-57459875D01*
X117846246Y-57472333D01*
X117843941Y-57483400D01*
X117823041Y-57511841D01*
X117818332Y-57516634D01*
X117798769Y-57532833D01*
X117674001Y-57616199D01*
X117673979Y-57616214D01*
X117673965Y-57616225D01*
X117561226Y-57728964D01*
X117561221Y-57728970D01*
X117561220Y-57728971D01*
X117472629Y-57861555D01*
X117472624Y-57861565D01*
X117411608Y-58008875D01*
X117411600Y-58008910D01*
X117380500Y-58165262D01*
X116030589Y-58165262D01*
X110944426Y-53079099D01*
X110944421Y-53079094D01*
X110923274Y-53050843D01*
X110910667Y-53027754D01*
X110895500Y-52968329D01*
X110895500Y-51092909D01*
X110900523Y-51057973D01*
X110902079Y-51052676D01*
X110904927Y-51042974D01*
X110942702Y-50984198D01*
X110952994Y-50975280D01*
X110986743Y-50954432D01*
X111010721Y-50944500D01*
X111067598Y-50920941D01*
X111239655Y-50805977D01*
X111385977Y-50659655D01*
X111500941Y-50487598D01*
X111580130Y-50296420D01*
X111620500Y-50093465D01*
X111620500Y-49886535D01*
X111580130Y-49683580D01*
X111500941Y-49492402D01*
X111385977Y-49320345D01*
X111385975Y-49320342D01*
X111254536Y-49188903D01*
X111254021Y-49188376D01*
X111237944Y-49158110D01*
X111221539Y-49128067D01*
X111221591Y-49127326D01*
X111221244Y-49126672D01*
X111224079Y-49092544D01*
X111226523Y-49058375D01*
X111226971Y-49057728D01*
X111227029Y-49057042D01*
X111231472Y-49051246D01*
X111261502Y-49007996D01*
X111269008Y-49001492D01*
X111301833Y-48973049D01*
X111379598Y-48895283D01*
X111440918Y-48861800D01*
X111510610Y-48866784D01*
X111554958Y-48895285D01*
X114243932Y-51584258D01*
X116914533Y-54254859D01*
X116914535Y-54254862D01*
X116975138Y-54315465D01*
X117003255Y-54331698D01*
X117035228Y-54350157D01*
X117035231Y-54350160D01*
X117049358Y-54358316D01*
X117049360Y-54358317D01*
X117049361Y-54358317D01*
X117049362Y-54358318D01*
X117132148Y-54380501D01*
X117132150Y-54380501D01*
X117225449Y-54380501D01*
X117227353Y-54380501D01*
X117227416Y-54380500D01*
X117435637Y-54380500D01*
X117470568Y-54385522D01*
X117482642Y-54389067D01*
X117486948Y-54390331D01*
X117502623Y-54400169D01*
X117502676Y-54400185D01*
X117502709Y-54400223D01*
X117543971Y-54426121D01*
X117549724Y-54432479D01*
X117552900Y-54435990D01*
X117571428Y-54462880D01*
X117586950Y-54493343D01*
X117586953Y-54493346D01*
X117586954Y-54493347D01*
X117676652Y-54583045D01*
X117676653Y-54583045D01*
X117676657Y-54583049D01*
X117676662Y-54583053D01*
X117676878Y-54583162D01*
X117787987Y-54639776D01*
X117787988Y-54639776D01*
X117787996Y-54639780D01*
X117789698Y-54640647D01*
X117883265Y-54655465D01*
X117883458Y-54655497D01*
X117883465Y-54655497D01*
X117883475Y-54655499D01*
X117883481Y-54655500D01*
X118496518Y-54655499D01*
X118590304Y-54640646D01*
X118703342Y-54583050D01*
X118793050Y-54493342D01*
X118850646Y-54380304D01*
X118850646Y-54380302D01*
X118850647Y-54380301D01*
X118850648Y-54380294D01*
X118851785Y-54375560D01*
X118851785Y-54375558D01*
X118851789Y-54375539D01*
X118852173Y-54370668D01*
X118865111Y-54288979D01*
X118865437Y-54287154D01*
X118865499Y-54286523D01*
X118865500Y-54286519D01*
X118865499Y-53823482D01*
X118850646Y-53729696D01*
X118793050Y-53616658D01*
X118793046Y-53616654D01*
X118793045Y-53616652D01*
X118703347Y-53526954D01*
X118703344Y-53526952D01*
X118703342Y-53526950D01*
X118703340Y-53526949D01*
X118703339Y-53526948D01*
X118626519Y-53487805D01*
X118626519Y-53487806D01*
X118625258Y-53487163D01*
X118590301Y-53469352D01*
X118590299Y-53469351D01*
X118590298Y-53469351D01*
X118590296Y-53469350D01*
X118496530Y-53454500D01*
X118496524Y-53454500D01*
X117883482Y-53454500D01*
X117883478Y-53454500D01*
X117818846Y-53464736D01*
X117818842Y-53464737D01*
X117802519Y-53467323D01*
X117789696Y-53469354D01*
X117676658Y-53526950D01*
X117676657Y-53526951D01*
X117676652Y-53526954D01*
X117673652Y-53529953D01*
X117673649Y-53529955D01*
X117586954Y-53616650D01*
X117586950Y-53616655D01*
X117572041Y-53645914D01*
X117558167Y-53667351D01*
X117555076Y-53671191D01*
X117553502Y-53672859D01*
X117553196Y-53673528D01*
X117548994Y-53678751D01*
X117545162Y-53681415D01*
X117531564Y-53696445D01*
X117527894Y-53699490D01*
X117499006Y-53717404D01*
X117496182Y-53718657D01*
X117463614Y-53728040D01*
X117462319Y-53728227D01*
X117444597Y-53729500D01*
X117379018Y-53729500D01*
X117379017Y-53729499D01*
X117379017Y-53729500D01*
X117344082Y-53724477D01*
X117318840Y-53717065D01*
X117266095Y-53685769D01*
X112015285Y-48434958D01*
X111981800Y-48373635D01*
X111986784Y-48303943D01*
X112015284Y-48259597D01*
X112153711Y-48121172D01*
X112231004Y-48021674D01*
X112262299Y-47968930D01*
X112312585Y-47853411D01*
X112319997Y-47828170D01*
X112335328Y-47757702D01*
X112340352Y-47722768D01*
X112344212Y-47686872D01*
X112343868Y-47682065D01*
X112344816Y-47655562D01*
X112345500Y-47650807D01*
X112345500Y-44701846D01*
X112345499Y-44701839D01*
X112329797Y-44576827D01*
X112329795Y-44576818D01*
X112314629Y-44517399D01*
X112314628Y-44517396D01*
X112268494Y-44400147D01*
X112255886Y-44377058D01*
X112216891Y-44316383D01*
X112195741Y-44288131D01*
X112148515Y-44233631D01*
X111297389Y-43382505D01*
X111294553Y-43379921D01*
X111286417Y-43372506D01*
X111286355Y-43372450D01*
X111262732Y-43350923D01*
X111260064Y-43348709D01*
X111259244Y-43347969D01*
X111249253Y-43339536D01*
X111247367Y-43338174D01*
X111247326Y-43338140D01*
X111247324Y-43338139D01*
X111246114Y-43337135D01*
X111245015Y-43336223D01*
X111245001Y-43336212D01*
X111243881Y-43335284D01*
X111243880Y-43335283D01*
X111243854Y-43335262D01*
X111225623Y-43320139D01*
X111213762Y-43312653D01*
X111207580Y-43307991D01*
X111203886Y-43305465D01*
X111139886Y-43271988D01*
X111135707Y-43269802D01*
X111132300Y-43267676D01*
X111131912Y-43267505D01*
X111131799Y-43267758D01*
X111124443Y-43263910D01*
X111124442Y-43263909D01*
X111098598Y-43250392D01*
X111044492Y-43229771D01*
X110929263Y-43200800D01*
X110907188Y-43197947D01*
X110907171Y-43197945D01*
X110835174Y-43193826D01*
X110799918Y-43194328D01*
X110728039Y-43200500D01*
X110728018Y-43200503D01*
X110654161Y-43212202D01*
X110646137Y-43213473D01*
X110626739Y-43215000D01*
X110513252Y-43215000D01*
X110493854Y-43213473D01*
X110381773Y-43195721D01*
X110362853Y-43191179D01*
X110326310Y-43179305D01*
X110292517Y-43168325D01*
X110292510Y-43168323D01*
X110254312Y-43157549D01*
X110247414Y-43155893D01*
X110235372Y-43153003D01*
X110235358Y-43153000D01*
X110235353Y-43152999D01*
X110196454Y-43145263D01*
X110177390Y-43142244D01*
X110138004Y-43137584D01*
X110118589Y-43136056D01*
X110078961Y-43134500D01*
X110078950Y-43134500D01*
X109294500Y-43134500D01*
X109227461Y-43114815D01*
X109181706Y-43062011D01*
X109170500Y-43010500D01*
X109170500Y-40891846D01*
X109170499Y-40891839D01*
X109170038Y-40888169D01*
X109154797Y-40766825D01*
X109139628Y-40707396D01*
X109093494Y-40590147D01*
X109080886Y-40567058D01*
X109041891Y-40506383D01*
X109020741Y-40478131D01*
X108973515Y-40423631D01*
X108921260Y-40371376D01*
X117239500Y-40371376D01*
X117239500Y-42463624D01*
X117272635Y-42630206D01*
X117272636Y-42630206D01*
X117276027Y-42647250D01*
X117276028Y-42647255D01*
X117347669Y-42820216D01*
X117347674Y-42820225D01*
X117347684Y-42820242D01*
X117451698Y-42975909D01*
X117451699Y-42975910D01*
X117451704Y-42975916D01*
X124468571Y-49992781D01*
X126734574Y-52258784D01*
X126755723Y-52287035D01*
X126768331Y-52310124D01*
X126783500Y-52369553D01*
X126783500Y-52645752D01*
X126795131Y-52704229D01*
X126795132Y-52704230D01*
X126795132Y-52704231D01*
X126795134Y-52704233D01*
X126839447Y-52770552D01*
X126905765Y-52814864D01*
X126905767Y-52814866D01*
X126905770Y-52814868D01*
X126956612Y-52824981D01*
X126959337Y-52825703D01*
X126964249Y-52826500D01*
X126964250Y-52826500D01*
X126964252Y-52826500D01*
X127507564Y-52826500D01*
X127519716Y-52827097D01*
X127531780Y-52828285D01*
X127543814Y-52830070D01*
X127549129Y-52831126D01*
X127557221Y-52832736D01*
X127557227Y-52832739D01*
X127557228Y-52832738D01*
X127621379Y-52845500D01*
X127808619Y-52845500D01*
X127808620Y-52845500D01*
X127845521Y-52838159D01*
X127866101Y-52834065D01*
X127886187Y-52830069D01*
X127898208Y-52828286D01*
X127910297Y-52827095D01*
X127922435Y-52826500D01*
X128469876Y-52826500D01*
X128477742Y-52824114D01*
X128480568Y-52823552D01*
X128512258Y-52817249D01*
X128512462Y-52817208D01*
X128524229Y-52814868D01*
X128524229Y-52814867D01*
X128524230Y-52814867D01*
X128524231Y-52814867D01*
X128524231Y-52814866D01*
X128529376Y-52813843D01*
X128539515Y-52804654D01*
X128590552Y-52770552D01*
X128634867Y-52704231D01*
X128634867Y-52704229D01*
X128634868Y-52704229D01*
X128637030Y-52693355D01*
X128637166Y-52693090D01*
X128637249Y-52692256D01*
X128638557Y-52685683D01*
X128646072Y-52647896D01*
X128646500Y-52645931D01*
X128646500Y-52102442D01*
X128647097Y-52090290D01*
X128648286Y-52078216D01*
X128650070Y-52066185D01*
X128665500Y-51988619D01*
X128665500Y-51801382D01*
X128665500Y-51801381D01*
X128665500Y-51801380D01*
X128664703Y-51796471D01*
X128663980Y-51793742D01*
X128650071Y-51723815D01*
X128648286Y-51711790D01*
X128647095Y-51699700D01*
X128646500Y-51687555D01*
X128646500Y-51146295D01*
X128646500Y-51144249D01*
X128646499Y-51144247D01*
X128634868Y-51085770D01*
X128634867Y-51085769D01*
X128616294Y-51057973D01*
X128603550Y-51038900D01*
X128590552Y-51019447D01*
X128549705Y-50992154D01*
X128534385Y-50981917D01*
X128529641Y-50978024D01*
X128524230Y-50975132D01*
X128524229Y-50975131D01*
X128465752Y-50963500D01*
X128465750Y-50963500D01*
X128196902Y-50963500D01*
X128196901Y-50963499D01*
X128196901Y-50963500D01*
X128161966Y-50958477D01*
X128136724Y-50951065D01*
X128083979Y-50919769D01*
X119189426Y-42025216D01*
X119168274Y-41996960D01*
X119155667Y-41973871D01*
X119140500Y-41914446D01*
X119140500Y-41557329D01*
X119140963Y-41554112D01*
X119145523Y-41522393D01*
X119149927Y-41507395D01*
X119187672Y-41448644D01*
X119187700Y-41448619D01*
X119187699Y-41448619D01*
X119189041Y-41447456D01*
X119243920Y-41419977D01*
X119251479Y-41418333D01*
X119277832Y-41415500D01*
X122372080Y-41415500D01*
X122407015Y-41420523D01*
X122422013Y-41424927D01*
X122480786Y-41462696D01*
X122488120Y-41471159D01*
X122511453Y-41511413D01*
X122552207Y-41627884D01*
X122554683Y-41631824D01*
X122557725Y-41635358D01*
X122632850Y-41737150D01*
X122742118Y-41817793D01*
X122870302Y-41862646D01*
X122870301Y-41862646D01*
X122874271Y-41863018D01*
X122897911Y-41865235D01*
X122900723Y-41865499D01*
X122900724Y-41865499D01*
X122900735Y-41865500D01*
X124909264Y-41865499D01*
X124939698Y-41862646D01*
X125067882Y-41817793D01*
X125177150Y-41737150D01*
X125257793Y-41627882D01*
X125297164Y-41515362D01*
X125313436Y-41484062D01*
X125322553Y-41471351D01*
X125363257Y-41439567D01*
X125377618Y-41428352D01*
X125388028Y-41424226D01*
X125433721Y-41415500D01*
X126732670Y-41415500D01*
X126767606Y-41420523D01*
X126782604Y-41424927D01*
X126797594Y-41434557D01*
X126814675Y-41439567D01*
X126841355Y-41462672D01*
X126842542Y-41464041D01*
X126870018Y-41518902D01*
X126871663Y-41526460D01*
X126874500Y-41552831D01*
X126874500Y-41999752D01*
X126886131Y-42058229D01*
X126886132Y-42058230D01*
X126886132Y-42058231D01*
X126886134Y-42058233D01*
X126930447Y-42124552D01*
X126996765Y-42168864D01*
X126996767Y-42168866D01*
X126996770Y-42168868D01*
X127047612Y-42178981D01*
X127050337Y-42179703D01*
X127055249Y-42180500D01*
X130914750Y-42180500D01*
X130918873Y-42180500D01*
X130926732Y-42178116D01*
X130946381Y-42174208D01*
X130961258Y-42171249D01*
X130967354Y-42170648D01*
X130967386Y-42170639D01*
X130978311Y-42167902D01*
X130988515Y-42158654D01*
X131039552Y-42124552D01*
X131083867Y-42058231D01*
X131083867Y-42058229D01*
X131083868Y-42058229D01*
X131086030Y-42047355D01*
X131086166Y-42047090D01*
X131086249Y-42046256D01*
X131092296Y-42015857D01*
X131095072Y-42001896D01*
X131095500Y-41999931D01*
X131095500Y-40698622D01*
X134384499Y-40698622D01*
X134421021Y-40882225D01*
X134421026Y-40882249D01*
X134433002Y-40911161D01*
X134433009Y-40911181D01*
X134492667Y-41055209D01*
X134492675Y-41055227D01*
X134492684Y-41055242D01*
X134596698Y-41210909D01*
X134596699Y-41210910D01*
X134596704Y-41210916D01*
X134729082Y-41343294D01*
X134729088Y-41343299D01*
X134729092Y-41343302D01*
X134884763Y-41447319D01*
X134884765Y-41447320D01*
X134884770Y-41447323D01*
X134986097Y-41489293D01*
X134986098Y-41489294D01*
X135011216Y-41499698D01*
X135057749Y-41518973D01*
X135095390Y-41526460D01*
X135149529Y-41537229D01*
X135149566Y-41537236D01*
X135229618Y-41553159D01*
X135241382Y-41555500D01*
X135241383Y-41555500D01*
X135241384Y-41555500D01*
X137628394Y-41555500D01*
X137660607Y-41560131D01*
X137663326Y-41560521D01*
X137688570Y-41567934D01*
X137741316Y-41599230D01*
X144176591Y-48034505D01*
X144197743Y-48062761D01*
X144203949Y-48074127D01*
X144218800Y-48142401D01*
X144194382Y-48207864D01*
X144143377Y-48247775D01*
X144134840Y-48251382D01*
X144105978Y-48259632D01*
X143967304Y-48281596D01*
X143802549Y-48335129D01*
X143648211Y-48413767D01*
X143606110Y-48444357D01*
X143606109Y-48444357D01*
X143519942Y-48506961D01*
X143512563Y-48511093D01*
X143381092Y-48642564D01*
X143376961Y-48649941D01*
X143341859Y-48698255D01*
X143341859Y-48698256D01*
X143283768Y-48778210D01*
X143205124Y-48932557D01*
X143203840Y-48935659D01*
X143191645Y-48958180D01*
X143182582Y-48971435D01*
X143128502Y-49015662D01*
X143118914Y-49019715D01*
X143070634Y-49029500D01*
X140193791Y-49029500D01*
X140158850Y-49024475D01*
X140143851Y-49020070D01*
X140128855Y-49010433D01*
X140111758Y-49005414D01*
X140085083Y-48982303D01*
X140081950Y-48978688D01*
X140076162Y-48972008D01*
X140055313Y-48938258D01*
X140031635Y-48881092D01*
X140031628Y-48881079D01*
X139922139Y-48717218D01*
X139922136Y-48717214D01*
X139922131Y-48717208D01*
X139782790Y-48577867D01*
X139782784Y-48577862D01*
X139782783Y-48577861D01*
X139618926Y-48468375D01*
X139618925Y-48468374D01*
X139618920Y-48468371D01*
X139618907Y-48468364D01*
X139618900Y-48468360D01*
X139436861Y-48392958D01*
X139436847Y-48392953D01*
X139436839Y-48392950D01*
X139436829Y-48392947D01*
X139436826Y-48392946D01*
X139436822Y-48392945D01*
X139243546Y-48354500D01*
X139243543Y-48354500D01*
X139243541Y-48354500D01*
X139046459Y-48354500D01*
X139046457Y-48354500D01*
X139046453Y-48354500D01*
X138853176Y-48392945D01*
X138853170Y-48392947D01*
X138853160Y-48392950D01*
X138853155Y-48392951D01*
X138853137Y-48392958D01*
X138671098Y-48468360D01*
X138671089Y-48468365D01*
X138671072Y-48468375D01*
X138507215Y-48577861D01*
X138507214Y-48577862D01*
X138507208Y-48577867D01*
X138367867Y-48717208D01*
X138367862Y-48717214D01*
X138367861Y-48717215D01*
X138258375Y-48881072D01*
X138258365Y-48881089D01*
X138258360Y-48881098D01*
X138182958Y-49063137D01*
X138182945Y-49063176D01*
X138144500Y-49256451D01*
X138144500Y-49409174D01*
X138139237Y-49427094D01*
X138182945Y-49646822D01*
X138182946Y-49646826D01*
X138182947Y-49646829D01*
X138182950Y-49646839D01*
X138182953Y-49646847D01*
X138182958Y-49646861D01*
X138258360Y-49828900D01*
X138258365Y-49828909D01*
X138258375Y-49828926D01*
X138367861Y-49992783D01*
X138367862Y-49992784D01*
X138367867Y-49992790D01*
X138507208Y-50132131D01*
X138507214Y-50132136D01*
X138507218Y-50132139D01*
X138671079Y-50241628D01*
X138671092Y-50241635D01*
X138803357Y-50296420D01*
X138847553Y-50314726D01*
X138851963Y-50316812D01*
X139046453Y-50355500D01*
X139243543Y-50355500D01*
X139243544Y-50355500D01*
X139265216Y-50351188D01*
X139373582Y-50329632D01*
X139373583Y-50329632D01*
X139386301Y-50327102D01*
X139436835Y-50317051D01*
X139618914Y-50241632D01*
X139782782Y-50132139D01*
X139922139Y-49992782D01*
X140031632Y-49828914D01*
X140031635Y-49828907D01*
X140054577Y-49773518D01*
X140072584Y-49743169D01*
X140082393Y-49730996D01*
X140139782Y-49691147D01*
X140152711Y-49686843D01*
X140191865Y-49680500D01*
X143065707Y-49680500D01*
X143100643Y-49685523D01*
X143115641Y-49689927D01*
X143130638Y-49699564D01*
X143147741Y-49704586D01*
X143174415Y-49727698D01*
X143181234Y-49735567D01*
X143202523Y-49773258D01*
X143203265Y-49772951D01*
X143205124Y-49777440D01*
X143260708Y-49886530D01*
X143283768Y-49931788D01*
X143385586Y-50071928D01*
X143508072Y-50194414D01*
X143648212Y-50296232D01*
X143802555Y-50374873D01*
X143967299Y-50428402D01*
X144138389Y-50455500D01*
X144138390Y-50455500D01*
X144311610Y-50455500D01*
X144311611Y-50455500D01*
X144482701Y-50428402D01*
X144647445Y-50374873D01*
X144801788Y-50296232D01*
X144941928Y-50194414D01*
X145064414Y-50071928D01*
X145166232Y-49931788D01*
X145244873Y-49777445D01*
X145298402Y-49612701D01*
X145319945Y-49476675D01*
X145330368Y-49442974D01*
X145335918Y-49431266D01*
X145382423Y-49379124D01*
X145449737Y-49360402D01*
X145511995Y-49378202D01*
X145513524Y-49379124D01*
X145519935Y-49382990D01*
X145543581Y-49401495D01*
X148728697Y-52586611D01*
X148775385Y-52633300D01*
X148775389Y-52633303D01*
X148931058Y-52737318D01*
X148931064Y-52737321D01*
X148931065Y-52737322D01*
X149104045Y-52808973D01*
X149192160Y-52826500D01*
X149216039Y-52831250D01*
X149250772Y-52838159D01*
X149287675Y-52845500D01*
X152573617Y-52845500D01*
X152589702Y-52845500D01*
X152606713Y-52839498D01*
X152608337Y-52838612D01*
X152610373Y-52838187D01*
X152651196Y-52830067D01*
X152663219Y-52828285D01*
X152675285Y-52827097D01*
X152687435Y-52826500D01*
X153234873Y-52826500D01*
X153242732Y-52824116D01*
X153262381Y-52820208D01*
X153277258Y-52817249D01*
X153283354Y-52816648D01*
X153283386Y-52816639D01*
X153294311Y-52813902D01*
X153304515Y-52804654D01*
X153355552Y-52770552D01*
X153399867Y-52704231D01*
X153399867Y-52704229D01*
X153399868Y-52704229D01*
X153402030Y-52693355D01*
X153402166Y-52693090D01*
X153402249Y-52692256D01*
X153403557Y-52685683D01*
X153411072Y-52647896D01*
X153411500Y-52645931D01*
X153411500Y-52102442D01*
X153412097Y-52090293D01*
X153413286Y-52078216D01*
X153415068Y-52066193D01*
X153430500Y-51988616D01*
X153430500Y-51801384D01*
X153415070Y-51723813D01*
X153413286Y-51711789D01*
X153412096Y-51699702D01*
X153411500Y-51687555D01*
X153411500Y-51144063D01*
X153411069Y-51142081D01*
X153399868Y-51085770D01*
X153396975Y-51080358D01*
X153393081Y-51075613D01*
X153389767Y-51070653D01*
X153355552Y-51019447D01*
X153314705Y-50992154D01*
X153299385Y-50981917D01*
X153294641Y-50978024D01*
X153289230Y-50975132D01*
X153289229Y-50975131D01*
X153230752Y-50963500D01*
X153230750Y-50963500D01*
X152687443Y-50963500D01*
X152675279Y-50962902D01*
X152663207Y-50961712D01*
X152651182Y-50959928D01*
X152632943Y-50956300D01*
X152620520Y-50953829D01*
X152573617Y-50944500D01*
X152573616Y-50944500D01*
X152573615Y-50944500D01*
X149844198Y-50944500D01*
X149844197Y-50944499D01*
X149844197Y-50944500D01*
X149809262Y-50939477D01*
X149784020Y-50932065D01*
X149731275Y-50900769D01*
X140920293Y-42089787D01*
X140899144Y-42061537D01*
X140897338Y-42058229D01*
X140893722Y-42051607D01*
X140878869Y-41983337D01*
X140903283Y-41917872D01*
X140959213Y-41876000D01*
X140963092Y-41874553D01*
X140966428Y-41873310D01*
X141009742Y-41865499D01*
X142054258Y-41865499D01*
X142054264Y-41865499D01*
X142084698Y-41862646D01*
X142212882Y-41817793D01*
X142322150Y-41737150D01*
X142402793Y-41627882D01*
X142442164Y-41515362D01*
X142458436Y-41484062D01*
X142467553Y-41471351D01*
X142508257Y-41439567D01*
X142522618Y-41428352D01*
X142533028Y-41424226D01*
X142578721Y-41415500D01*
X143877670Y-41415500D01*
X143912606Y-41420523D01*
X143927604Y-41424927D01*
X143942594Y-41434557D01*
X143959675Y-41439567D01*
X143986355Y-41462672D01*
X143987542Y-41464041D01*
X144015018Y-41518902D01*
X144016663Y-41526460D01*
X144019500Y-41552831D01*
X144019500Y-41999752D01*
X144031131Y-42058229D01*
X144031132Y-42058230D01*
X144031132Y-42058231D01*
X144031134Y-42058233D01*
X144075447Y-42124552D01*
X144141765Y-42168864D01*
X144141767Y-42168866D01*
X144141770Y-42168868D01*
X144192612Y-42178981D01*
X144195337Y-42179703D01*
X144200249Y-42180500D01*
X148059750Y-42180500D01*
X148063873Y-42180500D01*
X148071732Y-42178116D01*
X148091381Y-42174208D01*
X148106258Y-42171249D01*
X148112354Y-42170648D01*
X148112386Y-42170639D01*
X148123311Y-42167902D01*
X148133515Y-42158654D01*
X148184552Y-42124552D01*
X148228867Y-42058231D01*
X148228867Y-42058229D01*
X148228868Y-42058229D01*
X148231030Y-42047355D01*
X148231166Y-42047090D01*
X148231249Y-42046256D01*
X148237296Y-42015857D01*
X148240072Y-42001896D01*
X148240500Y-41999931D01*
X148240500Y-40572094D01*
X151414237Y-40572094D01*
X151457945Y-40791822D01*
X151457946Y-40791826D01*
X151457947Y-40791829D01*
X151457950Y-40791839D01*
X151457953Y-40791847D01*
X151457958Y-40791861D01*
X151533360Y-40973900D01*
X151533365Y-40973909D01*
X151533375Y-40973926D01*
X151642861Y-41137783D01*
X151642862Y-41137784D01*
X151642867Y-41137790D01*
X151782208Y-41277131D01*
X151782214Y-41277136D01*
X151782218Y-41277139D01*
X151946079Y-41386628D01*
X151946092Y-41386635D01*
X151946094Y-41386635D01*
X151946098Y-41386638D01*
X152022619Y-41418333D01*
X152092608Y-41447323D01*
X152122553Y-41459726D01*
X152126963Y-41461812D01*
X152321453Y-41500500D01*
X152518543Y-41500500D01*
X152518545Y-41500500D01*
X152675573Y-41469264D01*
X152711835Y-41462051D01*
X152893914Y-41386632D01*
X153057782Y-41277139D01*
X153197139Y-41137782D01*
X153306632Y-40973914D01*
X153306635Y-40973907D01*
X153329577Y-40918518D01*
X153347584Y-40888169D01*
X153357393Y-40875996D01*
X153414782Y-40836147D01*
X153427711Y-40831843D01*
X153466865Y-40825500D01*
X156340707Y-40825500D01*
X156375643Y-40830523D01*
X156390641Y-40834927D01*
X156405638Y-40844564D01*
X156422741Y-40849586D01*
X156449415Y-40872698D01*
X156456234Y-40880567D01*
X156477523Y-40918258D01*
X156478265Y-40917951D01*
X156480124Y-40922440D01*
X156547773Y-41055209D01*
X156558768Y-41076788D01*
X156660586Y-41216928D01*
X156783072Y-41339414D01*
X156923212Y-41441232D01*
X157077555Y-41519873D01*
X157242299Y-41573402D01*
X157413389Y-41600500D01*
X157413390Y-41600500D01*
X157586610Y-41600500D01*
X157586611Y-41600500D01*
X157757701Y-41573402D01*
X157922445Y-41519873D01*
X158076788Y-41441232D01*
X158216928Y-41339414D01*
X158339414Y-41216928D01*
X158441232Y-41076788D01*
X158519873Y-40922445D01*
X158573402Y-40757701D01*
X158600500Y-40586611D01*
X158600500Y-40413389D01*
X158573402Y-40242299D01*
X158519873Y-40077555D01*
X158441232Y-39923212D01*
X158339414Y-39783072D01*
X158216928Y-39660586D01*
X158076788Y-39558768D01*
X157922449Y-39480128D01*
X157771215Y-39430988D01*
X157771203Y-39430985D01*
X157757701Y-39426598D01*
X157757699Y-39426597D01*
X157757698Y-39426597D01*
X157743312Y-39424318D01*
X157743306Y-39424317D01*
X157638374Y-39407698D01*
X157626271Y-39405781D01*
X157610407Y-39403268D01*
X157586614Y-39399500D01*
X157586611Y-39399500D01*
X157413389Y-39399500D01*
X157413388Y-39399500D01*
X157373726Y-39405781D01*
X157373725Y-39405780D01*
X157242304Y-39426596D01*
X157077549Y-39480129D01*
X156923207Y-39558770D01*
X156918292Y-39562341D01*
X156918291Y-39562343D01*
X156794943Y-39651961D01*
X156787562Y-39656094D01*
X156656092Y-39787564D01*
X156651961Y-39794941D01*
X156616859Y-39843255D01*
X156616859Y-39843256D01*
X156558768Y-39923210D01*
X156480124Y-40077557D01*
X156478840Y-40080659D01*
X156466645Y-40103180D01*
X156457582Y-40116435D01*
X156403502Y-40160662D01*
X156393914Y-40164715D01*
X156345634Y-40174500D01*
X153468791Y-40174500D01*
X153433850Y-40169475D01*
X153418851Y-40165070D01*
X153403855Y-40155433D01*
X153386758Y-40150414D01*
X153360083Y-40127303D01*
X153356950Y-40123688D01*
X153351162Y-40117008D01*
X153330313Y-40083258D01*
X153306635Y-40026092D01*
X153306628Y-40026079D01*
X153197139Y-39862218D01*
X153197136Y-39862214D01*
X153197131Y-39862208D01*
X153057790Y-39722867D01*
X153057784Y-39722862D01*
X153057783Y-39722861D01*
X152893926Y-39613375D01*
X152893925Y-39613374D01*
X152893920Y-39613371D01*
X152893907Y-39613364D01*
X152893900Y-39613360D01*
X152711861Y-39537958D01*
X152711847Y-39537953D01*
X152711839Y-39537950D01*
X152711829Y-39537947D01*
X152711826Y-39537946D01*
X152711822Y-39537945D01*
X152518546Y-39499500D01*
X152518543Y-39499500D01*
X152518541Y-39499500D01*
X152321459Y-39499500D01*
X152321457Y-39499500D01*
X152321453Y-39499500D01*
X152128176Y-39537945D01*
X152128170Y-39537947D01*
X152128160Y-39537950D01*
X152128155Y-39537951D01*
X152128137Y-39537958D01*
X151946098Y-39613360D01*
X151946089Y-39613365D01*
X151946072Y-39613375D01*
X151782215Y-39722861D01*
X151782214Y-39722862D01*
X151782208Y-39722867D01*
X151642867Y-39862208D01*
X151642862Y-39862214D01*
X151533375Y-40026072D01*
X151533365Y-40026089D01*
X151533360Y-40026098D01*
X151457958Y-40208137D01*
X151457945Y-40208176D01*
X151419500Y-40401451D01*
X151419500Y-40554174D01*
X151414237Y-40572094D01*
X148240500Y-40572094D01*
X148240500Y-38932295D01*
X148240500Y-38930249D01*
X148240499Y-38930247D01*
X148228868Y-38871770D01*
X148228867Y-38871769D01*
X148184552Y-38805447D01*
X148148146Y-38781121D01*
X148128385Y-38767917D01*
X148123641Y-38764024D01*
X148118230Y-38761132D01*
X148118229Y-38761131D01*
X148059752Y-38749500D01*
X148059750Y-38749500D01*
X144200249Y-38749500D01*
X144200247Y-38749500D01*
X144141770Y-38761131D01*
X144141769Y-38761131D01*
X144141768Y-38761132D01*
X144141765Y-38761133D01*
X144141759Y-38761138D01*
X144075447Y-38805447D01*
X144031138Y-38871759D01*
X144031133Y-38871765D01*
X144031132Y-38871768D01*
X144031132Y-38871769D01*
X144031131Y-38871770D01*
X144019500Y-38930247D01*
X144019500Y-38930249D01*
X144019500Y-39372670D01*
X144019499Y-39372676D01*
X144019500Y-39372679D01*
X144014475Y-39407614D01*
X144010070Y-39422612D01*
X143972327Y-39481355D01*
X143972292Y-39481385D01*
X143972291Y-39481387D01*
X143972289Y-39481387D01*
X143970958Y-39482542D01*
X143916097Y-39510018D01*
X143908539Y-39511663D01*
X143882168Y-39514500D01*
X142582921Y-39514500D01*
X142582916Y-39514499D01*
X142582914Y-39514500D01*
X142547980Y-39509475D01*
X142532981Y-39505070D01*
X142474214Y-39467303D01*
X142466879Y-39458839D01*
X142443545Y-39418584D01*
X142436867Y-39399500D01*
X142419545Y-39349994D01*
X142402794Y-39302120D01*
X142402793Y-39302118D01*
X142322150Y-39192850D01*
X142212882Y-39112207D01*
X142212881Y-39112206D01*
X142166501Y-39095977D01*
X142161278Y-39093587D01*
X142139061Y-39074304D01*
X142136087Y-39072171D01*
X142084695Y-39067353D01*
X142084698Y-39067353D01*
X142054268Y-39064500D01*
X142054262Y-39064500D01*
X140045745Y-39064500D01*
X140045741Y-39064500D01*
X140026621Y-39066292D01*
X140021070Y-39066813D01*
X140017503Y-39066979D01*
X140015301Y-39067353D01*
X139887118Y-39112205D01*
X139777849Y-39192849D01*
X139697205Y-39302118D01*
X139697204Y-39302120D01*
X139657839Y-39414625D01*
X139657838Y-39414626D01*
X139657838Y-39414629D01*
X139641558Y-39445944D01*
X139632448Y-39458645D01*
X139577394Y-39501642D01*
X139573228Y-39503294D01*
X139566984Y-39505769D01*
X139521279Y-39514500D01*
X135381373Y-39514500D01*
X135292368Y-39532204D01*
X135292358Y-39532206D01*
X135292359Y-39532207D01*
X135292352Y-39532208D01*
X135292343Y-39532210D01*
X135289566Y-39532763D01*
X135197749Y-39551027D01*
X135179061Y-39558768D01*
X135170434Y-39562341D01*
X135170427Y-39562343D01*
X135170423Y-39562344D01*
X135170417Y-39562346D01*
X135024777Y-39622671D01*
X135024767Y-39622676D01*
X134869089Y-39726698D01*
X134869088Y-39726699D01*
X134869082Y-39726704D01*
X134596704Y-39999082D01*
X134596699Y-39999088D01*
X134596698Y-39999089D01*
X134492676Y-40154768D01*
X134491978Y-40156193D01*
X134490994Y-40158831D01*
X134466935Y-40216917D01*
X134466935Y-40216918D01*
X134421030Y-40327739D01*
X134421026Y-40327752D01*
X134421021Y-40327773D01*
X134384500Y-40511376D01*
X134384500Y-40511379D01*
X134384500Y-40698620D01*
X134384500Y-40698622D01*
X134384499Y-40698622D01*
X131095500Y-40698622D01*
X131095500Y-38932295D01*
X131095500Y-38930249D01*
X131095499Y-38930247D01*
X131083868Y-38871770D01*
X131083867Y-38871769D01*
X131039552Y-38805447D01*
X131003146Y-38781121D01*
X130983385Y-38767917D01*
X130978641Y-38764024D01*
X130973230Y-38761132D01*
X130973229Y-38761131D01*
X130914752Y-38749500D01*
X130914750Y-38749500D01*
X127055249Y-38749500D01*
X127055247Y-38749500D01*
X126996770Y-38761131D01*
X126996769Y-38761131D01*
X126996768Y-38761132D01*
X126996765Y-38761133D01*
X126996759Y-38761138D01*
X126930447Y-38805447D01*
X126886138Y-38871759D01*
X126886133Y-38871765D01*
X126886132Y-38871768D01*
X126886132Y-38871769D01*
X126886131Y-38871770D01*
X126874500Y-38930247D01*
X126874500Y-38930249D01*
X126874500Y-39372670D01*
X126874499Y-39372676D01*
X126874500Y-39372679D01*
X126869475Y-39407614D01*
X126865070Y-39422612D01*
X126827327Y-39481355D01*
X126827292Y-39481385D01*
X126827291Y-39481387D01*
X126827289Y-39481387D01*
X126825958Y-39482542D01*
X126771097Y-39510018D01*
X126763539Y-39511663D01*
X126737168Y-39514500D01*
X125437921Y-39514500D01*
X125437916Y-39514499D01*
X125437914Y-39514500D01*
X125402980Y-39509475D01*
X125387981Y-39505070D01*
X125329214Y-39467303D01*
X125321879Y-39458839D01*
X125298545Y-39418584D01*
X125291867Y-39399500D01*
X125274545Y-39349994D01*
X125257794Y-39302120D01*
X125257793Y-39302118D01*
X125177150Y-39192850D01*
X125067882Y-39112207D01*
X125067881Y-39112206D01*
X125021501Y-39095977D01*
X125016278Y-39093587D01*
X124994061Y-39074304D01*
X124991087Y-39072171D01*
X124939695Y-39067353D01*
X124939698Y-39067353D01*
X124909268Y-39064500D01*
X124909262Y-39064500D01*
X122900745Y-39064500D01*
X122900741Y-39064500D01*
X122881621Y-39066292D01*
X122876070Y-39066813D01*
X122872503Y-39066979D01*
X122870301Y-39067353D01*
X122742118Y-39112205D01*
X122632849Y-39192849D01*
X122552205Y-39302118D01*
X122552204Y-39302120D01*
X122512839Y-39414625D01*
X122512838Y-39414626D01*
X122512838Y-39414629D01*
X122496558Y-39445944D01*
X122487448Y-39458645D01*
X122432394Y-39501642D01*
X122428228Y-39503294D01*
X122421984Y-39505769D01*
X122376279Y-39514500D01*
X118096377Y-39514500D01*
X117912773Y-39551021D01*
X117912746Y-39551027D01*
X117739776Y-39622672D01*
X117739766Y-39622677D01*
X117584089Y-39726698D01*
X117584088Y-39726699D01*
X117584082Y-39726704D01*
X117451704Y-39859082D01*
X117451699Y-39859088D01*
X117451698Y-39859089D01*
X117347677Y-40014766D01*
X117347672Y-40014776D01*
X117276027Y-40187746D01*
X117276021Y-40187773D01*
X117239500Y-40371376D01*
X108921260Y-40371376D01*
X108548966Y-39999082D01*
X108066183Y-39516298D01*
X108066167Y-39516284D01*
X107966678Y-39438997D01*
X107966668Y-39438990D01*
X107913929Y-39407698D01*
X107913924Y-39407696D01*
X107798414Y-39357414D01*
X107780268Y-39352086D01*
X107773168Y-39350001D01*
X107773164Y-39350000D01*
X107773157Y-39349998D01*
X107773143Y-39349994D01*
X107702685Y-39334668D01*
X107702672Y-39334665D01*
X107702663Y-39334663D01*
X107702660Y-39334663D01*
X107667728Y-39329642D01*
X107667719Y-39329641D01*
X107667720Y-39329641D01*
X107595813Y-39324500D01*
X107595808Y-39324500D01*
X102309500Y-39324500D01*
X102242461Y-39304815D01*
X102196706Y-39252011D01*
X102185500Y-39200500D01*
X102185500Y-31699003D01*
X103379500Y-31699003D01*
X103379500Y-37801007D01*
X103384197Y-37844686D01*
X103395397Y-37896174D01*
X103397890Y-37906372D01*
X103397891Y-37906375D01*
X103440899Y-37987083D01*
X103440901Y-37987086D01*
X103486660Y-38039895D01*
X103504242Y-38057839D01*
X103504246Y-38057843D01*
X103504247Y-38057844D01*
X103504249Y-38057845D01*
X103584059Y-38102488D01*
X103584063Y-38102490D01*
X103651102Y-38122175D01*
X103709000Y-38130500D01*
X109899432Y-38130500D01*
X109966471Y-38150185D01*
X109968323Y-38151398D01*
X110072395Y-38220937D01*
X110072401Y-38220940D01*
X110072402Y-38220941D01*
X110263580Y-38300130D01*
X110454540Y-38338114D01*
X110463559Y-38339908D01*
X110465794Y-38340409D01*
X110466532Y-38340500D01*
X110673466Y-38340500D01*
X110677586Y-38340500D01*
X110685435Y-38338118D01*
X110876420Y-38300130D01*
X111067598Y-38220941D01*
X111239655Y-38105977D01*
X111385977Y-37959655D01*
X111500941Y-37787598D01*
X111580130Y-37596420D01*
X111620500Y-37393465D01*
X111620500Y-37186535D01*
X111580130Y-36983580D01*
X111500941Y-36792402D01*
X111431396Y-36688320D01*
X111410520Y-36621643D01*
X111410500Y-36619431D01*
X111410500Y-35933383D01*
X167254500Y-35933383D01*
X167254500Y-36106614D01*
X167271337Y-36212922D01*
X167275547Y-36239500D01*
X167281598Y-36277701D01*
X167335127Y-36442445D01*
X167413768Y-36596788D01*
X167515586Y-36736928D01*
X167638072Y-36859414D01*
X167778212Y-36961232D01*
X167932555Y-37039873D01*
X168097299Y-37093402D01*
X168268389Y-37120500D01*
X168268390Y-37120500D01*
X168441610Y-37120500D01*
X168441611Y-37120500D01*
X168612701Y-37093402D01*
X168777445Y-37039873D01*
X168931788Y-36961232D01*
X169071928Y-36859414D01*
X169194414Y-36736928D01*
X169296232Y-36596788D01*
X169374873Y-36442445D01*
X169428402Y-36277701D01*
X169455500Y-36106611D01*
X169455500Y-35933389D01*
X169428402Y-35762299D01*
X169374873Y-35597555D01*
X169296232Y-35443212D01*
X169194414Y-35303072D01*
X169071928Y-35180586D01*
X169001858Y-35129677D01*
X168931786Y-35078766D01*
X168885228Y-35055044D01*
X168777445Y-35000127D01*
X168777444Y-35000126D01*
X168777445Y-35000126D01*
X168774195Y-34999070D01*
X168765787Y-34994846D01*
X168762615Y-34991884D01*
X168751453Y-34986396D01*
X168738552Y-34977573D01*
X168694329Y-34923481D01*
X168690276Y-34913891D01*
X168680500Y-34865632D01*
X168680500Y-32623789D01*
X168680777Y-32621865D01*
X168685523Y-32588853D01*
X168689927Y-32573855D01*
X168713130Y-32537751D01*
X168727702Y-32515077D01*
X168732371Y-32511030D01*
X168737994Y-32506160D01*
X168771738Y-32485314D01*
X168828914Y-32461632D01*
X168992782Y-32352139D01*
X169132139Y-32212782D01*
X169241632Y-32048914D01*
X169317051Y-31866835D01*
X169324599Y-31828887D01*
X169329632Y-31803585D01*
X169329632Y-31803582D01*
X169355500Y-31673543D01*
X169355500Y-31476456D01*
X169355500Y-31476453D01*
X169316812Y-31281962D01*
X169314725Y-31277550D01*
X169259731Y-31144780D01*
X169241635Y-31101092D01*
X169241628Y-31101079D01*
X169132139Y-30937218D01*
X169132136Y-30937214D01*
X169132131Y-30937208D01*
X168992790Y-30797867D01*
X168992784Y-30797862D01*
X168992783Y-30797861D01*
X168828926Y-30688375D01*
X168828925Y-30688374D01*
X168828920Y-30688371D01*
X168828907Y-30688364D01*
X168828900Y-30688360D01*
X168646861Y-30612958D01*
X168646847Y-30612953D01*
X168646839Y-30612950D01*
X168646829Y-30612947D01*
X168646826Y-30612946D01*
X168646822Y-30612945D01*
X168453546Y-30574500D01*
X168453543Y-30574500D01*
X168453541Y-30574500D01*
X168256459Y-30574500D01*
X168256457Y-30574500D01*
X168256453Y-30574500D01*
X168063176Y-30612945D01*
X168063170Y-30612947D01*
X168063160Y-30612950D01*
X168063155Y-30612951D01*
X168063137Y-30612958D01*
X167881098Y-30688360D01*
X167881089Y-30688365D01*
X167881072Y-30688375D01*
X167717215Y-30797861D01*
X167717214Y-30797862D01*
X167717208Y-30797867D01*
X167577867Y-30937208D01*
X167577862Y-30937214D01*
X167577861Y-30937215D01*
X167468375Y-31101072D01*
X167468365Y-31101089D01*
X167468360Y-31101098D01*
X167392958Y-31283137D01*
X167392945Y-31283176D01*
X167354500Y-31476451D01*
X167354500Y-31629174D01*
X167349237Y-31647094D01*
X167392945Y-31866822D01*
X167392946Y-31866826D01*
X167392947Y-31866829D01*
X167392950Y-31866839D01*
X167392953Y-31866847D01*
X167392958Y-31866861D01*
X167468360Y-32048900D01*
X167468365Y-32048909D01*
X167468375Y-32048926D01*
X167577861Y-32212783D01*
X167577862Y-32212784D01*
X167577867Y-32212790D01*
X167717214Y-32352137D01*
X167717217Y-32352139D01*
X167871829Y-32455447D01*
X167881085Y-32461632D01*
X167936482Y-32484577D01*
X167966833Y-32502584D01*
X167979003Y-32512391D01*
X168018852Y-32569781D01*
X168023153Y-32582702D01*
X168029500Y-32621865D01*
X168029500Y-34860706D01*
X168024475Y-34895650D01*
X168020070Y-34910648D01*
X168010431Y-34925644D01*
X168005412Y-34942741D01*
X167982300Y-34969415D01*
X167974432Y-34976233D01*
X167936749Y-34997521D01*
X167937056Y-34998262D01*
X167932555Y-35000126D01*
X167778210Y-35078768D01*
X167734993Y-35110168D01*
X167708039Y-35129752D01*
X167649943Y-35171961D01*
X167642562Y-35176094D01*
X167511092Y-35307564D01*
X167506961Y-35314941D01*
X167471859Y-35363255D01*
X167471859Y-35363256D01*
X167413768Y-35443210D01*
X167335129Y-35597549D01*
X167281596Y-35762305D01*
X167254500Y-35933383D01*
X111410500Y-35933383D01*
X111410500Y-35908083D01*
X111430185Y-35841044D01*
X111482989Y-35795289D01*
X111501900Y-35789181D01*
X111513515Y-35778654D01*
X111564552Y-35744552D01*
X111608867Y-35678231D01*
X111608867Y-35678229D01*
X111608868Y-35678229D01*
X111611030Y-35667355D01*
X111611166Y-35667090D01*
X111611249Y-35666256D01*
X111612179Y-35661583D01*
X111620072Y-35621896D01*
X111620500Y-35619931D01*
X111620500Y-33882295D01*
X111620500Y-33880249D01*
X111620499Y-33880247D01*
X111608868Y-33821770D01*
X111608867Y-33821769D01*
X111564552Y-33755447D01*
X111538378Y-33737958D01*
X111513414Y-33721277D01*
X111513409Y-33721274D01*
X111498230Y-33711132D01*
X111498229Y-33711131D01*
X111492232Y-33709938D01*
X111475978Y-33701237D01*
X111463677Y-33689139D01*
X111448388Y-33681139D01*
X111439283Y-33665146D01*
X111426164Y-33652243D01*
X111422356Y-33635414D01*
X111413820Y-33620419D01*
X111410500Y-33591916D01*
X111410500Y-31699008D01*
X111410499Y-31698992D01*
X111405803Y-31655316D01*
X111400116Y-31629174D01*
X111394602Y-31603825D01*
X111394348Y-31602789D01*
X111392110Y-31593627D01*
X111349100Y-31512915D01*
X111303345Y-31460111D01*
X111303339Y-31460104D01*
X111285757Y-31442160D01*
X111285756Y-31442159D01*
X111285754Y-31442157D01*
X111285752Y-31442156D01*
X111285750Y-31442154D01*
X111205940Y-31397511D01*
X111205935Y-31397509D01*
X111138903Y-31377826D01*
X111138899Y-31377825D01*
X111138898Y-31377825D01*
X111081000Y-31369500D01*
X111080996Y-31369500D01*
X103708992Y-31369500D01*
X103665313Y-31374197D01*
X103613825Y-31385397D01*
X103603627Y-31387890D01*
X103603624Y-31387891D01*
X103522916Y-31430899D01*
X103522913Y-31430901D01*
X103470104Y-31476660D01*
X103452160Y-31494242D01*
X103452154Y-31494249D01*
X103407511Y-31574059D01*
X103407509Y-31574064D01*
X103387826Y-31641096D01*
X103387825Y-31641101D01*
X103387825Y-31641102D01*
X103379502Y-31698992D01*
X103379500Y-31699003D01*
X102185500Y-31699003D01*
X102185500Y-30096846D01*
X102185499Y-30096839D01*
X102177387Y-30032259D01*
X102169797Y-29971825D01*
X102156986Y-29921633D01*
X102154629Y-29912399D01*
X102154628Y-29912396D01*
X102108494Y-29795147D01*
X102095886Y-29772058D01*
X102070994Y-29733326D01*
X102056901Y-29711396D01*
X102056898Y-29711392D01*
X102056893Y-29711385D01*
X102035744Y-29683134D01*
X101988516Y-29628632D01*
X101655346Y-29295462D01*
X101081183Y-28721298D01*
X101081167Y-28721284D01*
X100981678Y-28643997D01*
X100981668Y-28643990D01*
X100928929Y-28612698D01*
X100928924Y-28612696D01*
X100813414Y-28562414D01*
X100795268Y-28557086D01*
X100788168Y-28555001D01*
X100788164Y-28555000D01*
X100788157Y-28554998D01*
X100788143Y-28554994D01*
X100717685Y-28539668D01*
X100717672Y-28539665D01*
X100717663Y-28539663D01*
X100717660Y-28539663D01*
X100682728Y-28534642D01*
X100682719Y-28534641D01*
X100682720Y-28534641D01*
X100610813Y-28529500D01*
X100610808Y-28529500D01*
X83691843Y-28529500D01*
X83691839Y-28529500D01*
X83566831Y-28545202D01*
X83566825Y-28545203D01*
X83507406Y-28560369D01*
X83390170Y-28606493D01*
X83367082Y-28619099D01*
X83367065Y-28619109D01*
X83306394Y-28658099D01*
X83306387Y-28658104D01*
X83278133Y-28679255D01*
X83223647Y-28726469D01*
X83223619Y-28726495D01*
X82316296Y-29633817D01*
X82316288Y-29633826D01*
X82238992Y-29733326D01*
X82207701Y-29786062D01*
X82207695Y-29786073D01*
X82157412Y-29901593D01*
X82157407Y-29901608D01*
X82149995Y-29926853D01*
X82134726Y-29997051D01*
X82134665Y-29997332D01*
X82129644Y-30032252D01*
X82129643Y-30032262D01*
X82124500Y-30104187D01*
X75500500Y-30104187D01*
X75500500Y-23878710D01*
X77149500Y-23878710D01*
X77149500Y-24121288D01*
X77179219Y-24347038D01*
X77181161Y-24361785D01*
X77186176Y-24380500D01*
X77243947Y-24596104D01*
X77336772Y-24820203D01*
X77336773Y-24820207D01*
X77336780Y-24820220D01*
X77458060Y-25030283D01*
X77458062Y-25030286D01*
X77458281Y-25030615D01*
X77459284Y-25031879D01*
X77605726Y-25222728D01*
X77605730Y-25222733D01*
X77605733Y-25222736D01*
X77605739Y-25222743D01*
X77605747Y-25222751D01*
X77777242Y-25394247D01*
X77777256Y-25394260D01*
X77777262Y-25394265D01*
X77969711Y-25541936D01*
X78179788Y-25663224D01*
X78403900Y-25756054D01*
X78638211Y-25818838D01*
X78818586Y-25842584D01*
X78878710Y-25850500D01*
X78878711Y-25850500D01*
X78878712Y-25850500D01*
X79121283Y-25850500D01*
X79121289Y-25850500D01*
X79169388Y-25844167D01*
X79361789Y-25818838D01*
X79596100Y-25756054D01*
X79820212Y-25663224D01*
X80030289Y-25541936D01*
X80222738Y-25394265D01*
X80394265Y-25222738D01*
X80541936Y-25030289D01*
X80663224Y-24820212D01*
X80756054Y-24596100D01*
X80818838Y-24361789D01*
X80850500Y-24121288D01*
X80850500Y-23878712D01*
X80845411Y-23840060D01*
X80832591Y-23742676D01*
X80818838Y-23638211D01*
X80756054Y-23403900D01*
X80663224Y-23179788D01*
X80541936Y-22969711D01*
X80396777Y-22780536D01*
X80394266Y-22777263D01*
X80394260Y-22777256D01*
X80222743Y-22605739D01*
X80222736Y-22605733D01*
X80222733Y-22605730D01*
X80222728Y-22605726D01*
X80187516Y-22578707D01*
X93344500Y-22578707D01*
X93344500Y-22791291D01*
X93372759Y-22969710D01*
X93377752Y-23001236D01*
X93377753Y-23001239D01*
X93377754Y-23001243D01*
X93394716Y-23053446D01*
X93431785Y-23167535D01*
X93443442Y-23203410D01*
X93443443Y-23203412D01*
X93539179Y-23391306D01*
X93539951Y-23392820D01*
X93664890Y-23564786D01*
X93664892Y-23564788D01*
X93815216Y-23715112D01*
X93987169Y-23840042D01*
X93987200Y-23840060D01*
X93987442Y-23840182D01*
X94176588Y-23936557D01*
X94378757Y-24002246D01*
X94588713Y-24035500D01*
X94588714Y-24035500D01*
X94801286Y-24035500D01*
X94801287Y-24035500D01*
X95011243Y-24002246D01*
X95213412Y-23936557D01*
X95402816Y-23840051D01*
X95472866Y-23789157D01*
X95574786Y-23715109D01*
X95574788Y-23715106D01*
X95574792Y-23715104D01*
X95574795Y-23715100D01*
X95574846Y-23715064D01*
X95575605Y-23714290D01*
X95725104Y-23564792D01*
X95725106Y-23564788D01*
X95725109Y-23564786D01*
X95850048Y-23392820D01*
X95850047Y-23392820D01*
X95850051Y-23392816D01*
X95850053Y-23392810D01*
X95870445Y-23364744D01*
X95878730Y-23336529D01*
X95946557Y-23203412D01*
X96012246Y-23001243D01*
X96045500Y-22791287D01*
X96045500Y-22578713D01*
X96012246Y-22368757D01*
X95946557Y-22166588D01*
X95850051Y-21977184D01*
X95850049Y-21977181D01*
X95850048Y-21977179D01*
X95849702Y-21976703D01*
X95849700Y-21976699D01*
X95725112Y-21805216D01*
X95574788Y-21654892D01*
X95574786Y-21654890D01*
X95402820Y-21529951D01*
X95333275Y-21494516D01*
X95235245Y-21444567D01*
X95235240Y-21444565D01*
X95213414Y-21433444D01*
X95213413Y-21433443D01*
X95213412Y-21433443D01*
X95080134Y-21390138D01*
X95020074Y-21370623D01*
X95015552Y-21368770D01*
X95006362Y-21366600D01*
X95001599Y-21366226D01*
X94849957Y-21342208D01*
X94830489Y-21339124D01*
X94801290Y-21334500D01*
X94801287Y-21334500D01*
X94588713Y-21334500D01*
X94588709Y-21334500D01*
X94549776Y-21340666D01*
X94540042Y-21342208D01*
X94502654Y-21348129D01*
X94378763Y-21367752D01*
X94176582Y-21433445D01*
X93987182Y-21529949D01*
X93987179Y-21529950D01*
X93987179Y-21529951D01*
X93915268Y-21582197D01*
X93815210Y-21654892D01*
X93664892Y-21805210D01*
X93539949Y-21977182D01*
X93443445Y-22166580D01*
X93377752Y-22368759D01*
X93344500Y-22578707D01*
X80187516Y-22578707D01*
X80031879Y-22459284D01*
X80030615Y-22458281D01*
X80030286Y-22458062D01*
X80030283Y-22458060D01*
X79820220Y-22336780D01*
X79820207Y-22336773D01*
X79820203Y-22336772D01*
X79596104Y-22243947D01*
X79361781Y-22181160D01*
X79121290Y-22149500D01*
X79121289Y-22149500D01*
X79121288Y-22149500D01*
X78878712Y-22149500D01*
X78878711Y-22149500D01*
X78878710Y-22149500D01*
X78638217Y-22181160D01*
X78403894Y-22243947D01*
X78179790Y-22336774D01*
X78179782Y-22336778D01*
X77969706Y-22458067D01*
X77969697Y-22458073D01*
X77777270Y-22605726D01*
X77777255Y-22605740D01*
X77777247Y-22605747D01*
X77605747Y-22777247D01*
X77605740Y-22777255D01*
X77605726Y-22777270D01*
X77458073Y-22969697D01*
X77458067Y-22969706D01*
X77336778Y-23179782D01*
X77336774Y-23179790D01*
X77243947Y-23403894D01*
X77181160Y-23638217D01*
X77149500Y-23878710D01*
X75500500Y-23878710D01*
X75500500Y-20642329D01*
X75505523Y-20607393D01*
X75509927Y-20592395D01*
X75547672Y-20533644D01*
X75547700Y-20533619D01*
X75547699Y-20533619D01*
X75549041Y-20532456D01*
X75603920Y-20504977D01*
X75611479Y-20503333D01*
X75637832Y-20500500D01*
X103310254Y-20500500D01*
X103377293Y-20520185D01*
G37*
%TD.AperFunction*%
%TA.AperFunction,Conductor*%
G36*
X141136390Y-31771061D02*
G01*
X141170827Y-31775594D01*
X141275567Y-31789383D01*
X141291461Y-31792544D01*
X141402489Y-31822294D01*
X141427105Y-31828890D01*
X141442463Y-31834104D01*
X141572158Y-31887825D01*
X141586706Y-31894999D01*
X141708293Y-31965198D01*
X141721779Y-31974209D01*
X141833155Y-32059670D01*
X141845350Y-32070364D01*
X141944623Y-32169636D01*
X141955318Y-32181831D01*
X142040795Y-32293226D01*
X142049801Y-32306705D01*
X142115640Y-32420742D01*
X142119999Y-32428292D01*
X142127172Y-32442839D01*
X142180896Y-32572541D01*
X142186110Y-32587899D01*
X142222451Y-32723522D01*
X142225615Y-32739430D01*
X142243938Y-32878608D01*
X142243939Y-32878611D01*
X142245000Y-32894797D01*
X142245000Y-33035201D01*
X142243939Y-33051387D01*
X142225615Y-33190568D01*
X142222451Y-33206476D01*
X142186110Y-33342099D01*
X142180896Y-33357457D01*
X142127172Y-33487159D01*
X142119998Y-33501707D01*
X142049802Y-33623289D01*
X142040791Y-33636775D01*
X141955318Y-33748167D01*
X141944623Y-33760362D01*
X141845362Y-33859623D01*
X141833167Y-33870318D01*
X141721775Y-33955791D01*
X141708289Y-33964802D01*
X141586707Y-34034998D01*
X141572159Y-34042172D01*
X141442457Y-34095896D01*
X141427099Y-34101110D01*
X141291475Y-34137451D01*
X141275567Y-34140615D01*
X141171142Y-34154363D01*
X141136386Y-34158939D01*
X141120202Y-34160000D01*
X140979798Y-34160000D01*
X140963613Y-34158939D01*
X140894021Y-34149777D01*
X140824430Y-34140615D01*
X140808522Y-34137451D01*
X140672899Y-34101110D01*
X140657541Y-34095896D01*
X140527839Y-34042172D01*
X140513291Y-34034998D01*
X140391709Y-33964802D01*
X140378223Y-33955791D01*
X140266834Y-33870320D01*
X140254639Y-33859625D01*
X140155374Y-33760360D01*
X140144680Y-33748166D01*
X140124047Y-33721277D01*
X140059203Y-33636771D01*
X140050195Y-33623289D01*
X139980001Y-33501708D01*
X139980001Y-33501707D01*
X139972827Y-33487161D01*
X139919103Y-33357459D01*
X139913889Y-33342101D01*
X139906949Y-33316202D01*
X139877546Y-33206469D01*
X139874385Y-33190578D01*
X139856061Y-33051387D01*
X139855000Y-33035202D01*
X139855000Y-32894793D01*
X139856061Y-32878608D01*
X139874382Y-32739440D01*
X139877546Y-32723532D01*
X139877549Y-32723522D01*
X139913891Y-32587885D01*
X139919101Y-32572541D01*
X139972827Y-32442834D01*
X139979990Y-32428307D01*
X140050212Y-32306682D01*
X140059210Y-32293217D01*
X140144676Y-32181834D01*
X140155365Y-32169647D01*
X140254640Y-32070372D01*
X140266835Y-32059677D01*
X140280880Y-32048900D01*
X140378221Y-31974209D01*
X140391684Y-31965212D01*
X140513307Y-31894991D01*
X140527834Y-31887828D01*
X140657554Y-31834095D01*
X140672882Y-31828892D01*
X140808528Y-31792545D01*
X140824416Y-31789385D01*
X140935617Y-31774746D01*
X140963611Y-31771061D01*
X140979795Y-31770000D01*
X141120206Y-31770000D01*
X141136390Y-31771061D01*
G37*
%TD.AperFunction*%
%TD*%
M02*
