%TF.GenerationSoftware,KiCad,Pcbnew,10.0.3-10.0.3~ubuntu26.04.1*%
%TF.CreationDate,2026-06-22T17:47:26+09:00*%
%TF.ProjectId,PowerUnit_Control,506f7765-7255-46e6-9974-5f436f6e7472,rev?*%
%TF.SameCoordinates,Original*%
%TF.FileFunction,Legend,Bot*%
%TF.FilePolarity,Positive*%
%FSLAX46Y46*%
G04 Gerber Fmt 4.6, Leading zero omitted, Abs format (unit mm)*
G04 Created by KiCad (PCBNEW 10.0.3-10.0.3~ubuntu26.04.1) date 2026-06-22 17:47:26*
%MOMM*%
%LPD*%
G01*
G04 APERTURE LIST*
G04 Aperture macros list*
%AMRoundRect*
0 Rectangle with rounded corners*
0 $1 Rounding radius*
0 $2 $3 $4 $5 $6 $7 $8 $9 X,Y pos of 4 corners*
0 Add a 4 corners polygon primitive as box body*
4,1,4,$2,$3,$4,$5,$6,$7,$8,$9,$2,$3,0*
0 Add four circle primitives for the rounded corners*
1,1,$1+$1,$2,$3*
1,1,$1+$1,$4,$5*
1,1,$1+$1,$6,$7*
1,1,$1+$1,$8,$9*
0 Add four rect primitives between the rounded corners*
20,1,$1+$1,$2,$3,$4,$5,0*
20,1,$1+$1,$4,$5,$6,$7,0*
20,1,$1+$1,$6,$7,$8,$9,0*
20,1,$1+$1,$8,$9,$2,$3,0*%
G04 Aperture macros list end*
%ADD10C,0.125000*%
%ADD11C,0.150000*%
%ADD12C,0.120000*%
%ADD13C,0.000000*%
%ADD14C,0.350000*%
%ADD15C,2.200000*%
%ADD16RoundRect,0.750000X0.750000X0.750000X-0.750000X0.750000X-0.750000X-0.750000X0.750000X-0.750000X0*%
%ADD17C,3.000000*%
%ADD18C,1.600000*%
%ADD19RoundRect,0.250001X0.949999X-0.949999X0.949999X0.949999X-0.949999X0.949999X-0.949999X-0.949999X0*%
%ADD20C,2.400000*%
%ADD21RoundRect,0.450000X-0.450000X-0.950000X0.450000X-0.950000X0.450000X0.950000X-0.450000X0.950000X0*%
%ADD22O,1.800000X2.800000*%
%ADD23C,3.200000*%
%ADD24R,1.700000X1.700000*%
%ADD25C,1.700000*%
%ADD26C,1.400000*%
%ADD27RoundRect,0.770000X-0.980000X-0.980000X0.980000X-0.980000X0.980000X0.980000X-0.980000X0.980000X0*%
%ADD28C,3.500000*%
%ADD29RoundRect,0.760000X-1.140000X-1.140000X1.140000X-1.140000X1.140000X1.140000X-1.140000X1.140000X0*%
%ADD30C,4.000000*%
%ADD31R,1.800000X1.800000*%
%ADD32C,1.800000*%
%ADD33R,1.462000X1.462000*%
%ADD34C,1.462000*%
%ADD35RoundRect,0.102000X0.609000X-0.609000X0.609000X0.609000X-0.609000X0.609000X-0.609000X-0.609000X0*%
%ADD36C,1.422000*%
%ADD37RoundRect,0.250000X0.250000X0.475000X-0.250000X0.475000X-0.250000X-0.475000X0.250000X-0.475000X0*%
%ADD38RoundRect,0.225000X0.250000X-0.225000X0.250000X0.225000X-0.250000X0.225000X-0.250000X-0.225000X0*%
%ADD39RoundRect,0.200000X-0.275000X0.200000X-0.275000X-0.200000X0.275000X-0.200000X0.275000X0.200000X0*%
%ADD40RoundRect,0.250000X0.650000X-0.325000X0.650000X0.325000X-0.650000X0.325000X-0.650000X-0.325000X0*%
%ADD41RoundRect,0.225000X-0.250000X0.225000X-0.250000X-0.225000X0.250000X-0.225000X0.250000X0.225000X0*%
%ADD42R,3.820000X3.030000*%
G04 APERTURE END LIST*
D10*
X124774668Y-23026175D02*
X124774668Y-22026175D01*
X124774668Y-22026175D02*
X124536573Y-22026175D01*
X124536573Y-22026175D02*
X124393716Y-22073794D01*
X124393716Y-22073794D02*
X124298478Y-22169032D01*
X124298478Y-22169032D02*
X124250859Y-22264270D01*
X124250859Y-22264270D02*
X124203240Y-22454746D01*
X124203240Y-22454746D02*
X124203240Y-22597603D01*
X124203240Y-22597603D02*
X124250859Y-22788079D01*
X124250859Y-22788079D02*
X124298478Y-22883317D01*
X124298478Y-22883317D02*
X124393716Y-22978556D01*
X124393716Y-22978556D02*
X124536573Y-23026175D01*
X124536573Y-23026175D02*
X124774668Y-23026175D01*
X123393716Y-22978556D02*
X123488954Y-23026175D01*
X123488954Y-23026175D02*
X123679430Y-23026175D01*
X123679430Y-23026175D02*
X123774668Y-22978556D01*
X123774668Y-22978556D02*
X123822287Y-22883317D01*
X123822287Y-22883317D02*
X123822287Y-22502365D01*
X123822287Y-22502365D02*
X123774668Y-22407127D01*
X123774668Y-22407127D02*
X123679430Y-22359508D01*
X123679430Y-22359508D02*
X123488954Y-22359508D01*
X123488954Y-22359508D02*
X123393716Y-22407127D01*
X123393716Y-22407127D02*
X123346097Y-22502365D01*
X123346097Y-22502365D02*
X123346097Y-22597603D01*
X123346097Y-22597603D02*
X123822287Y-22692841D01*
X122965144Y-22978556D02*
X122869906Y-23026175D01*
X122869906Y-23026175D02*
X122679430Y-23026175D01*
X122679430Y-23026175D02*
X122584192Y-22978556D01*
X122584192Y-22978556D02*
X122536573Y-22883317D01*
X122536573Y-22883317D02*
X122536573Y-22835698D01*
X122536573Y-22835698D02*
X122584192Y-22740460D01*
X122584192Y-22740460D02*
X122679430Y-22692841D01*
X122679430Y-22692841D02*
X122822287Y-22692841D01*
X122822287Y-22692841D02*
X122917525Y-22645222D01*
X122917525Y-22645222D02*
X122965144Y-22549984D01*
X122965144Y-22549984D02*
X122965144Y-22502365D01*
X122965144Y-22502365D02*
X122917525Y-22407127D01*
X122917525Y-22407127D02*
X122822287Y-22359508D01*
X122822287Y-22359508D02*
X122679430Y-22359508D01*
X122679430Y-22359508D02*
X122584192Y-22407127D01*
X122108001Y-23026175D02*
X122108001Y-22359508D01*
X122108001Y-22026175D02*
X122155620Y-22073794D01*
X122155620Y-22073794D02*
X122108001Y-22121413D01*
X122108001Y-22121413D02*
X122060382Y-22073794D01*
X122060382Y-22073794D02*
X122108001Y-22026175D01*
X122108001Y-22026175D02*
X122108001Y-22121413D01*
X121203240Y-22359508D02*
X121203240Y-23169032D01*
X121203240Y-23169032D02*
X121250859Y-23264270D01*
X121250859Y-23264270D02*
X121298478Y-23311889D01*
X121298478Y-23311889D02*
X121393716Y-23359508D01*
X121393716Y-23359508D02*
X121536573Y-23359508D01*
X121536573Y-23359508D02*
X121631811Y-23311889D01*
X121203240Y-22978556D02*
X121298478Y-23026175D01*
X121298478Y-23026175D02*
X121488954Y-23026175D01*
X121488954Y-23026175D02*
X121584192Y-22978556D01*
X121584192Y-22978556D02*
X121631811Y-22930936D01*
X121631811Y-22930936D02*
X121679430Y-22835698D01*
X121679430Y-22835698D02*
X121679430Y-22549984D01*
X121679430Y-22549984D02*
X121631811Y-22454746D01*
X121631811Y-22454746D02*
X121584192Y-22407127D01*
X121584192Y-22407127D02*
X121488954Y-22359508D01*
X121488954Y-22359508D02*
X121298478Y-22359508D01*
X121298478Y-22359508D02*
X121203240Y-22407127D01*
X120727049Y-22359508D02*
X120727049Y-23026175D01*
X120727049Y-22454746D02*
X120679430Y-22407127D01*
X120679430Y-22407127D02*
X120584192Y-22359508D01*
X120584192Y-22359508D02*
X120441335Y-22359508D01*
X120441335Y-22359508D02*
X120346097Y-22407127D01*
X120346097Y-22407127D02*
X120298478Y-22502365D01*
X120298478Y-22502365D02*
X120298478Y-23026175D01*
X119441335Y-22978556D02*
X119536573Y-23026175D01*
X119536573Y-23026175D02*
X119727049Y-23026175D01*
X119727049Y-23026175D02*
X119822287Y-22978556D01*
X119822287Y-22978556D02*
X119869906Y-22883317D01*
X119869906Y-22883317D02*
X119869906Y-22502365D01*
X119869906Y-22502365D02*
X119822287Y-22407127D01*
X119822287Y-22407127D02*
X119727049Y-22359508D01*
X119727049Y-22359508D02*
X119536573Y-22359508D01*
X119536573Y-22359508D02*
X119441335Y-22407127D01*
X119441335Y-22407127D02*
X119393716Y-22502365D01*
X119393716Y-22502365D02*
X119393716Y-22597603D01*
X119393716Y-22597603D02*
X119869906Y-22692841D01*
X118536573Y-23026175D02*
X118536573Y-22026175D01*
X118536573Y-22978556D02*
X118631811Y-23026175D01*
X118631811Y-23026175D02*
X118822287Y-23026175D01*
X118822287Y-23026175D02*
X118917525Y-22978556D01*
X118917525Y-22978556D02*
X118965144Y-22930936D01*
X118965144Y-22930936D02*
X119012763Y-22835698D01*
X119012763Y-22835698D02*
X119012763Y-22549984D01*
X119012763Y-22549984D02*
X118965144Y-22454746D01*
X118965144Y-22454746D02*
X118917525Y-22407127D01*
X118917525Y-22407127D02*
X118822287Y-22359508D01*
X118822287Y-22359508D02*
X118631811Y-22359508D01*
X118631811Y-22359508D02*
X118536573Y-22407127D01*
X117298477Y-23026175D02*
X117298477Y-22026175D01*
X117298477Y-22407127D02*
X117203239Y-22359508D01*
X117203239Y-22359508D02*
X117012763Y-22359508D01*
X117012763Y-22359508D02*
X116917525Y-22407127D01*
X116917525Y-22407127D02*
X116869906Y-22454746D01*
X116869906Y-22454746D02*
X116822287Y-22549984D01*
X116822287Y-22549984D02*
X116822287Y-22835698D01*
X116822287Y-22835698D02*
X116869906Y-22930936D01*
X116869906Y-22930936D02*
X116917525Y-22978556D01*
X116917525Y-22978556D02*
X117012763Y-23026175D01*
X117012763Y-23026175D02*
X117203239Y-23026175D01*
X117203239Y-23026175D02*
X117298477Y-22978556D01*
X116488953Y-22359508D02*
X116250858Y-23026175D01*
X116012763Y-22359508D02*
X116250858Y-23026175D01*
X116250858Y-23026175D02*
X116346096Y-23264270D01*
X116346096Y-23264270D02*
X116393715Y-23311889D01*
X116393715Y-23311889D02*
X116488953Y-23359508D01*
X114869905Y-22502365D02*
X114536572Y-22502365D01*
X114393715Y-23026175D02*
X114869905Y-23026175D01*
X114869905Y-23026175D02*
X114869905Y-22026175D01*
X114869905Y-22026175D02*
X114393715Y-22026175D01*
X113965143Y-22930936D02*
X113917524Y-22978556D01*
X113917524Y-22978556D02*
X113965143Y-23026175D01*
X113965143Y-23026175D02*
X114012762Y-22978556D01*
X114012762Y-22978556D02*
X113965143Y-22930936D01*
X113965143Y-22930936D02*
X113965143Y-23026175D01*
X113298477Y-22549984D02*
X113298477Y-23026175D01*
X113631810Y-22026175D02*
X113298477Y-22549984D01*
X113298477Y-22549984D02*
X112965144Y-22026175D01*
X112488953Y-23026175D02*
X112584191Y-22978556D01*
X112584191Y-22978556D02*
X112631810Y-22930936D01*
X112631810Y-22930936D02*
X112679429Y-22835698D01*
X112679429Y-22835698D02*
X112679429Y-22549984D01*
X112679429Y-22549984D02*
X112631810Y-22454746D01*
X112631810Y-22454746D02*
X112584191Y-22407127D01*
X112584191Y-22407127D02*
X112488953Y-22359508D01*
X112488953Y-22359508D02*
X112346096Y-22359508D01*
X112346096Y-22359508D02*
X112250858Y-22407127D01*
X112250858Y-22407127D02*
X112203239Y-22454746D01*
X112203239Y-22454746D02*
X112155620Y-22549984D01*
X112155620Y-22549984D02*
X112155620Y-22835698D01*
X112155620Y-22835698D02*
X112203239Y-22930936D01*
X112203239Y-22930936D02*
X112250858Y-22978556D01*
X112250858Y-22978556D02*
X112346096Y-23026175D01*
X112346096Y-23026175D02*
X112488953Y-23026175D01*
X111774667Y-22978556D02*
X111679429Y-23026175D01*
X111679429Y-23026175D02*
X111488953Y-23026175D01*
X111488953Y-23026175D02*
X111393715Y-22978556D01*
X111393715Y-22978556D02*
X111346096Y-22883317D01*
X111346096Y-22883317D02*
X111346096Y-22835698D01*
X111346096Y-22835698D02*
X111393715Y-22740460D01*
X111393715Y-22740460D02*
X111488953Y-22692841D01*
X111488953Y-22692841D02*
X111631810Y-22692841D01*
X111631810Y-22692841D02*
X111727048Y-22645222D01*
X111727048Y-22645222D02*
X111774667Y-22549984D01*
X111774667Y-22549984D02*
X111774667Y-22502365D01*
X111774667Y-22502365D02*
X111727048Y-22407127D01*
X111727048Y-22407127D02*
X111631810Y-22359508D01*
X111631810Y-22359508D02*
X111488953Y-22359508D01*
X111488953Y-22359508D02*
X111393715Y-22407127D01*
X110917524Y-23026175D02*
X110917524Y-22026175D01*
X110488953Y-23026175D02*
X110488953Y-22502365D01*
X110488953Y-22502365D02*
X110536572Y-22407127D01*
X110536572Y-22407127D02*
X110631810Y-22359508D01*
X110631810Y-22359508D02*
X110774667Y-22359508D01*
X110774667Y-22359508D02*
X110869905Y-22407127D01*
X110869905Y-22407127D02*
X110917524Y-22454746D01*
X110012762Y-23026175D02*
X110012762Y-22359508D01*
X110012762Y-22026175D02*
X110060381Y-22073794D01*
X110060381Y-22073794D02*
X110012762Y-22121413D01*
X110012762Y-22121413D02*
X109965143Y-22073794D01*
X109965143Y-22073794D02*
X110012762Y-22026175D01*
X110012762Y-22026175D02*
X110012762Y-22121413D01*
X109393715Y-23026175D02*
X109488953Y-22978556D01*
X109488953Y-22978556D02*
X109536572Y-22930936D01*
X109536572Y-22930936D02*
X109584191Y-22835698D01*
X109584191Y-22835698D02*
X109584191Y-22549984D01*
X109584191Y-22549984D02*
X109536572Y-22454746D01*
X109536572Y-22454746D02*
X109488953Y-22407127D01*
X109488953Y-22407127D02*
X109393715Y-22359508D01*
X109393715Y-22359508D02*
X109250858Y-22359508D01*
X109250858Y-22359508D02*
X109155620Y-22407127D01*
X109155620Y-22407127D02*
X109108001Y-22454746D01*
X109108001Y-22454746D02*
X109060382Y-22549984D01*
X109060382Y-22549984D02*
X109060382Y-22835698D01*
X109060382Y-22835698D02*
X109108001Y-22930936D01*
X109108001Y-22930936D02*
X109155620Y-22978556D01*
X109155620Y-22978556D02*
X109250858Y-23026175D01*
X109250858Y-23026175D02*
X109393715Y-23026175D01*
X108631810Y-23026175D02*
X108631810Y-22026175D01*
X108536572Y-22645222D02*
X108250858Y-23026175D01*
X108250858Y-22359508D02*
X108631810Y-22740460D01*
X107393715Y-23026175D02*
X107393715Y-22502365D01*
X107393715Y-22502365D02*
X107441334Y-22407127D01*
X107441334Y-22407127D02*
X107536572Y-22359508D01*
X107536572Y-22359508D02*
X107727048Y-22359508D01*
X107727048Y-22359508D02*
X107822286Y-22407127D01*
X107393715Y-22978556D02*
X107488953Y-23026175D01*
X107488953Y-23026175D02*
X107727048Y-23026175D01*
X107727048Y-23026175D02*
X107822286Y-22978556D01*
X107822286Y-22978556D02*
X107869905Y-22883317D01*
X107869905Y-22883317D02*
X107869905Y-22788079D01*
X107869905Y-22788079D02*
X107822286Y-22692841D01*
X107822286Y-22692841D02*
X107727048Y-22645222D01*
X107727048Y-22645222D02*
X107488953Y-22645222D01*
X107488953Y-22645222D02*
X107393715Y-22597603D01*
X124917525Y-23588500D02*
X124917525Y-24636119D01*
X124774668Y-23921833D02*
X123822287Y-23921833D01*
X124631811Y-24398023D02*
X123965144Y-24398023D01*
X124631811Y-24112309D02*
X124631811Y-24493261D01*
X124584192Y-23683738D02*
X124536573Y-23874214D01*
X124298478Y-23921833D02*
X124298478Y-24398023D01*
X124012764Y-23683738D02*
X124108002Y-23874214D01*
X123965144Y-24112309D02*
X123965144Y-24493261D01*
X123965144Y-24636119D02*
X123679430Y-24636119D01*
X124917525Y-23588500D02*
X123679430Y-23588500D01*
X123679430Y-23588500D02*
X123679430Y-24636119D01*
X123441335Y-24540880D02*
X122203240Y-24540880D01*
X123441335Y-23826595D02*
X123441335Y-24636119D01*
X122822288Y-23540880D02*
X122822288Y-24493261D01*
X122203240Y-23826595D02*
X122203240Y-24636119D01*
X121917526Y-23921833D02*
X120727050Y-23921833D01*
X121346098Y-23969452D02*
X121250860Y-24112309D01*
X121250860Y-24112309D02*
X121108003Y-24350404D01*
X121108003Y-24350404D02*
X120917526Y-24540880D01*
X120917526Y-24540880D02*
X120727050Y-24636119D01*
X121346098Y-23493261D02*
X121346098Y-23778976D01*
X121346098Y-23778976D02*
X121393717Y-24017071D01*
X121393717Y-24017071D02*
X121441336Y-24159928D01*
X121441336Y-24159928D02*
X121584193Y-24398023D01*
X121584193Y-24398023D02*
X121727050Y-24540880D01*
X121727050Y-24540880D02*
X121965145Y-24636119D01*
X120488955Y-24255166D02*
X119250860Y-24255166D01*
X120441336Y-23731357D02*
X120441336Y-23969452D01*
X120346098Y-23540880D02*
X120203241Y-23683738D01*
X120155622Y-24636119D02*
X119869908Y-24636119D01*
X119917527Y-23493261D02*
X119869908Y-23683738D01*
X119869908Y-24159928D02*
X119869908Y-24636119D01*
X119393717Y-23540880D02*
X119584194Y-23731357D01*
X120441336Y-23731357D02*
X119298479Y-23731357D01*
X119298479Y-23731357D02*
X119298479Y-23969452D01*
X120250860Y-23969452D02*
X119488955Y-23969452D01*
X119488955Y-23969452D02*
X119869908Y-24112309D01*
X118869908Y-23731357D02*
X118869908Y-24398023D01*
X118869908Y-23731357D02*
X118298480Y-23731357D01*
X118298480Y-23731357D02*
X118298480Y-24398023D01*
X118298480Y-24398023D02*
X118869908Y-24398023D01*
X117822289Y-23874214D02*
X117250861Y-23874214D01*
X117393718Y-24064690D02*
X117250861Y-24445642D01*
X117298480Y-23683738D02*
X117203242Y-23778976D01*
X117155623Y-23636119D02*
X117060385Y-23731357D01*
X117536575Y-23588500D02*
X117536575Y-24588500D01*
X117536575Y-24588500D02*
X117679432Y-24540880D01*
X117727051Y-24064690D02*
X117774670Y-24207547D01*
X117774670Y-24207547D02*
X117822289Y-24302785D01*
X117822289Y-24302785D02*
X117869908Y-24445642D01*
X116774670Y-23921833D02*
X116679432Y-24159928D01*
X116536575Y-23874214D02*
X116488956Y-24112309D01*
X116250861Y-23921833D02*
X116250861Y-24159928D01*
X116250861Y-24159928D02*
X116298480Y-24302785D01*
X116298480Y-24302785D02*
X116441337Y-24445642D01*
X116441337Y-24445642D02*
X116584194Y-24540880D01*
X115441337Y-23969452D02*
X115155623Y-24207547D01*
X115441337Y-23540880D02*
X115441337Y-24588500D01*
X114822289Y-23588500D02*
X114346099Y-23588500D01*
X114679432Y-24493261D02*
X114393718Y-24493261D01*
X114679432Y-23874214D02*
X114679432Y-24588500D01*
X114584194Y-23588500D02*
X114774670Y-24159928D01*
X114298480Y-24064690D02*
X113584194Y-24064690D01*
X114250861Y-23588500D02*
X113584194Y-23588500D01*
X113727051Y-23588500D02*
X113727051Y-24636119D01*
X114727051Y-24017071D02*
X114393718Y-24017071D01*
X114393718Y-24017071D02*
X114393718Y-24493261D01*
X114108004Y-23588500D02*
X114108004Y-24207547D01*
X114108004Y-24207547D02*
X114155623Y-24493261D01*
X113298480Y-23636119D02*
X113298480Y-23826595D01*
X112727052Y-23493261D02*
X112727052Y-23636119D01*
X112441338Y-24636119D02*
X112108004Y-24636119D01*
X112108004Y-24445642D02*
X112108004Y-24636119D01*
X113298480Y-23636119D02*
X112155623Y-23636119D01*
X112155623Y-23636119D02*
X112155623Y-23778976D01*
X113250861Y-24207547D02*
X112393718Y-24207547D01*
X112393718Y-24207547D02*
X112393718Y-24636119D01*
X112869909Y-23636119D02*
X112965147Y-23874214D01*
X112965147Y-23874214D02*
X113060385Y-23969452D01*
X113060385Y-23969452D02*
X113298480Y-24064690D01*
X112774671Y-24064690D02*
X112822290Y-24350404D01*
X112822290Y-24350404D02*
X112965147Y-24493261D01*
X112965147Y-24493261D02*
X113298480Y-24636119D01*
X112536576Y-23636119D02*
X112536576Y-23969452D01*
X112536576Y-23969452D02*
X112203242Y-24017071D01*
X112203242Y-24017071D02*
X112203242Y-23921833D01*
X111822290Y-24159928D02*
X110679433Y-24159928D01*
X111727052Y-24588500D02*
X110822290Y-24588500D01*
X111584195Y-23921833D02*
X110917528Y-23921833D01*
X111393719Y-24159928D02*
X111584195Y-24588500D01*
X111012767Y-24302785D02*
X110727052Y-24636119D01*
X111298481Y-23493261D02*
X111584195Y-23826595D01*
X111584195Y-23826595D02*
X111869909Y-23969452D01*
X111250862Y-23493261D02*
X110965148Y-23826595D01*
X110965148Y-23826595D02*
X110631814Y-23969452D01*
X124869906Y-25969452D02*
X124631811Y-26636119D01*
X124631811Y-26636119D02*
X124393716Y-25969452D01*
X123631811Y-26588500D02*
X123727049Y-26636119D01*
X123727049Y-26636119D02*
X123917525Y-26636119D01*
X123917525Y-26636119D02*
X124012763Y-26588500D01*
X124012763Y-26588500D02*
X124060382Y-26493261D01*
X124060382Y-26493261D02*
X124060382Y-26112309D01*
X124060382Y-26112309D02*
X124012763Y-26017071D01*
X124012763Y-26017071D02*
X123917525Y-25969452D01*
X123917525Y-25969452D02*
X123727049Y-25969452D01*
X123727049Y-25969452D02*
X123631811Y-26017071D01*
X123631811Y-26017071D02*
X123584192Y-26112309D01*
X123584192Y-26112309D02*
X123584192Y-26207547D01*
X123584192Y-26207547D02*
X124060382Y-26302785D01*
X123155620Y-26636119D02*
X123155620Y-25969452D01*
X123155620Y-26159928D02*
X123108001Y-26064690D01*
X123108001Y-26064690D02*
X123060382Y-26017071D01*
X123060382Y-26017071D02*
X122965144Y-25969452D01*
X122965144Y-25969452D02*
X122869906Y-25969452D01*
X121250858Y-26636119D02*
X121822286Y-26636119D01*
X121536572Y-26636119D02*
X121536572Y-25636119D01*
X121536572Y-25636119D02*
X121631810Y-25778976D01*
X121631810Y-25778976D02*
X121727048Y-25874214D01*
X121727048Y-25874214D02*
X121822286Y-25921833D01*
X120822286Y-26540880D02*
X120774667Y-26588500D01*
X120774667Y-26588500D02*
X120822286Y-26636119D01*
X120822286Y-26636119D02*
X120869905Y-26588500D01*
X120869905Y-26588500D02*
X120822286Y-26540880D01*
X120822286Y-26540880D02*
X120822286Y-26636119D01*
X120155620Y-25636119D02*
X120060382Y-25636119D01*
X120060382Y-25636119D02*
X119965144Y-25683738D01*
X119965144Y-25683738D02*
X119917525Y-25731357D01*
X119917525Y-25731357D02*
X119869906Y-25826595D01*
X119869906Y-25826595D02*
X119822287Y-26017071D01*
X119822287Y-26017071D02*
X119822287Y-26255166D01*
X119822287Y-26255166D02*
X119869906Y-26445642D01*
X119869906Y-26445642D02*
X119917525Y-26540880D01*
X119917525Y-26540880D02*
X119965144Y-26588500D01*
X119965144Y-26588500D02*
X120060382Y-26636119D01*
X120060382Y-26636119D02*
X120155620Y-26636119D01*
X120155620Y-26636119D02*
X120250858Y-26588500D01*
X120250858Y-26588500D02*
X120298477Y-26540880D01*
X120298477Y-26540880D02*
X120346096Y-26445642D01*
X120346096Y-26445642D02*
X120393715Y-26255166D01*
X120393715Y-26255166D02*
X120393715Y-26017071D01*
X120393715Y-26017071D02*
X120346096Y-25826595D01*
X120346096Y-25826595D02*
X120298477Y-25731357D01*
X120298477Y-25731357D02*
X120250858Y-25683738D01*
X120250858Y-25683738D02*
X120155620Y-25636119D01*
D11*
X135501666Y-54159580D02*
X135549285Y-54207200D01*
X135549285Y-54207200D02*
X135692142Y-54254819D01*
X135692142Y-54254819D02*
X135787380Y-54254819D01*
X135787380Y-54254819D02*
X135930237Y-54207200D01*
X135930237Y-54207200D02*
X136025475Y-54111961D01*
X136025475Y-54111961D02*
X136073094Y-54016723D01*
X136073094Y-54016723D02*
X136120713Y-53826247D01*
X136120713Y-53826247D02*
X136120713Y-53683390D01*
X136120713Y-53683390D02*
X136073094Y-53492914D01*
X136073094Y-53492914D02*
X136025475Y-53397676D01*
X136025475Y-53397676D02*
X135930237Y-53302438D01*
X135930237Y-53302438D02*
X135787380Y-53254819D01*
X135787380Y-53254819D02*
X135692142Y-53254819D01*
X135692142Y-53254819D02*
X135549285Y-53302438D01*
X135549285Y-53302438D02*
X135501666Y-53350057D01*
X135025475Y-54254819D02*
X134834999Y-54254819D01*
X134834999Y-54254819D02*
X134739761Y-54207200D01*
X134739761Y-54207200D02*
X134692142Y-54159580D01*
X134692142Y-54159580D02*
X134596904Y-54016723D01*
X134596904Y-54016723D02*
X134549285Y-53826247D01*
X134549285Y-53826247D02*
X134549285Y-53445295D01*
X134549285Y-53445295D02*
X134596904Y-53350057D01*
X134596904Y-53350057D02*
X134644523Y-53302438D01*
X134644523Y-53302438D02*
X134739761Y-53254819D01*
X134739761Y-53254819D02*
X134930237Y-53254819D01*
X134930237Y-53254819D02*
X135025475Y-53302438D01*
X135025475Y-53302438D02*
X135073094Y-53350057D01*
X135073094Y-53350057D02*
X135120713Y-53445295D01*
X135120713Y-53445295D02*
X135120713Y-53683390D01*
X135120713Y-53683390D02*
X135073094Y-53778628D01*
X135073094Y-53778628D02*
X135025475Y-53826247D01*
X135025475Y-53826247D02*
X134930237Y-53873866D01*
X134930237Y-53873866D02*
X134739761Y-53873866D01*
X134739761Y-53873866D02*
X134644523Y-53826247D01*
X134644523Y-53826247D02*
X134596904Y-53778628D01*
X134596904Y-53778628D02*
X134549285Y-53683390D01*
X135694580Y-36628333D02*
X135742200Y-36580714D01*
X135742200Y-36580714D02*
X135789819Y-36437857D01*
X135789819Y-36437857D02*
X135789819Y-36342619D01*
X135789819Y-36342619D02*
X135742200Y-36199762D01*
X135742200Y-36199762D02*
X135646961Y-36104524D01*
X135646961Y-36104524D02*
X135551723Y-36056905D01*
X135551723Y-36056905D02*
X135361247Y-36009286D01*
X135361247Y-36009286D02*
X135218390Y-36009286D01*
X135218390Y-36009286D02*
X135027914Y-36056905D01*
X135027914Y-36056905D02*
X134932676Y-36104524D01*
X134932676Y-36104524D02*
X134837438Y-36199762D01*
X134837438Y-36199762D02*
X134789819Y-36342619D01*
X134789819Y-36342619D02*
X134789819Y-36437857D01*
X134789819Y-36437857D02*
X134837438Y-36580714D01*
X134837438Y-36580714D02*
X134885057Y-36628333D01*
X135123152Y-37485476D02*
X135789819Y-37485476D01*
X134742200Y-37247381D02*
X135456485Y-37009286D01*
X135456485Y-37009286D02*
X135456485Y-37628333D01*
X115309819Y-63983333D02*
X114833628Y-63650000D01*
X115309819Y-63411905D02*
X114309819Y-63411905D01*
X114309819Y-63411905D02*
X114309819Y-63792857D01*
X114309819Y-63792857D02*
X114357438Y-63888095D01*
X114357438Y-63888095D02*
X114405057Y-63935714D01*
X114405057Y-63935714D02*
X114500295Y-63983333D01*
X114500295Y-63983333D02*
X114643152Y-63983333D01*
X114643152Y-63983333D02*
X114738390Y-63935714D01*
X114738390Y-63935714D02*
X114786009Y-63888095D01*
X114786009Y-63888095D02*
X114833628Y-63792857D01*
X114833628Y-63792857D02*
X114833628Y-63411905D01*
X114309819Y-64316667D02*
X114309819Y-64935714D01*
X114309819Y-64935714D02*
X114690771Y-64602381D01*
X114690771Y-64602381D02*
X114690771Y-64745238D01*
X114690771Y-64745238D02*
X114738390Y-64840476D01*
X114738390Y-64840476D02*
X114786009Y-64888095D01*
X114786009Y-64888095D02*
X114881247Y-64935714D01*
X114881247Y-64935714D02*
X115119342Y-64935714D01*
X115119342Y-64935714D02*
X115214580Y-64888095D01*
X115214580Y-64888095D02*
X115262200Y-64840476D01*
X115262200Y-64840476D02*
X115309819Y-64745238D01*
X115309819Y-64745238D02*
X115309819Y-64459524D01*
X115309819Y-64459524D02*
X115262200Y-64364286D01*
X115262200Y-64364286D02*
X115214580Y-64316667D01*
X117214819Y-54713333D02*
X116738628Y-54380000D01*
X117214819Y-54141905D02*
X116214819Y-54141905D01*
X116214819Y-54141905D02*
X116214819Y-54522857D01*
X116214819Y-54522857D02*
X116262438Y-54618095D01*
X116262438Y-54618095D02*
X116310057Y-54665714D01*
X116310057Y-54665714D02*
X116405295Y-54713333D01*
X116405295Y-54713333D02*
X116548152Y-54713333D01*
X116548152Y-54713333D02*
X116643390Y-54665714D01*
X116643390Y-54665714D02*
X116691009Y-54618095D01*
X116691009Y-54618095D02*
X116738628Y-54522857D01*
X116738628Y-54522857D02*
X116738628Y-54141905D01*
X116310057Y-55094286D02*
X116262438Y-55141905D01*
X116262438Y-55141905D02*
X116214819Y-55237143D01*
X116214819Y-55237143D02*
X116214819Y-55475238D01*
X116214819Y-55475238D02*
X116262438Y-55570476D01*
X116262438Y-55570476D02*
X116310057Y-55618095D01*
X116310057Y-55618095D02*
X116405295Y-55665714D01*
X116405295Y-55665714D02*
X116500533Y-55665714D01*
X116500533Y-55665714D02*
X116643390Y-55618095D01*
X116643390Y-55618095D02*
X117214819Y-55046667D01*
X117214819Y-55046667D02*
X117214819Y-55665714D01*
X140774580Y-37123333D02*
X140822200Y-37075714D01*
X140822200Y-37075714D02*
X140869819Y-36932857D01*
X140869819Y-36932857D02*
X140869819Y-36837619D01*
X140869819Y-36837619D02*
X140822200Y-36694762D01*
X140822200Y-36694762D02*
X140726961Y-36599524D01*
X140726961Y-36599524D02*
X140631723Y-36551905D01*
X140631723Y-36551905D02*
X140441247Y-36504286D01*
X140441247Y-36504286D02*
X140298390Y-36504286D01*
X140298390Y-36504286D02*
X140107914Y-36551905D01*
X140107914Y-36551905D02*
X140012676Y-36599524D01*
X140012676Y-36599524D02*
X139917438Y-36694762D01*
X139917438Y-36694762D02*
X139869819Y-36837619D01*
X139869819Y-36837619D02*
X139869819Y-36932857D01*
X139869819Y-36932857D02*
X139917438Y-37075714D01*
X139917438Y-37075714D02*
X139965057Y-37123333D01*
X139869819Y-37456667D02*
X139869819Y-38075714D01*
X139869819Y-38075714D02*
X140250771Y-37742381D01*
X140250771Y-37742381D02*
X140250771Y-37885238D01*
X140250771Y-37885238D02*
X140298390Y-37980476D01*
X140298390Y-37980476D02*
X140346009Y-38028095D01*
X140346009Y-38028095D02*
X140441247Y-38075714D01*
X140441247Y-38075714D02*
X140679342Y-38075714D01*
X140679342Y-38075714D02*
X140774580Y-38028095D01*
X140774580Y-38028095D02*
X140822200Y-37980476D01*
X140822200Y-37980476D02*
X140869819Y-37885238D01*
X140869819Y-37885238D02*
X140869819Y-37599524D01*
X140869819Y-37599524D02*
X140822200Y-37504286D01*
X140822200Y-37504286D02*
X140774580Y-37456667D01*
X150774580Y-35358333D02*
X150822200Y-35310714D01*
X150822200Y-35310714D02*
X150869819Y-35167857D01*
X150869819Y-35167857D02*
X150869819Y-35072619D01*
X150869819Y-35072619D02*
X150822200Y-34929762D01*
X150822200Y-34929762D02*
X150726961Y-34834524D01*
X150726961Y-34834524D02*
X150631723Y-34786905D01*
X150631723Y-34786905D02*
X150441247Y-34739286D01*
X150441247Y-34739286D02*
X150298390Y-34739286D01*
X150298390Y-34739286D02*
X150107914Y-34786905D01*
X150107914Y-34786905D02*
X150012676Y-34834524D01*
X150012676Y-34834524D02*
X149917438Y-34929762D01*
X149917438Y-34929762D02*
X149869819Y-35072619D01*
X149869819Y-35072619D02*
X149869819Y-35167857D01*
X149869819Y-35167857D02*
X149917438Y-35310714D01*
X149917438Y-35310714D02*
X149965057Y-35358333D01*
X150869819Y-36310714D02*
X150869819Y-35739286D01*
X150869819Y-36025000D02*
X149869819Y-36025000D01*
X149869819Y-36025000D02*
X150012676Y-35929762D01*
X150012676Y-35929762D02*
X150107914Y-35834524D01*
X150107914Y-35834524D02*
X150155533Y-35739286D01*
X133140180Y-37768094D02*
X134140180Y-37768094D01*
X134140180Y-37768094D02*
X134140180Y-37529999D01*
X134140180Y-37529999D02*
X134092561Y-37387142D01*
X134092561Y-37387142D02*
X133997323Y-37291904D01*
X133997323Y-37291904D02*
X133902085Y-37244285D01*
X133902085Y-37244285D02*
X133711609Y-37196666D01*
X133711609Y-37196666D02*
X133568752Y-37196666D01*
X133568752Y-37196666D02*
X133378276Y-37244285D01*
X133378276Y-37244285D02*
X133283038Y-37291904D01*
X133283038Y-37291904D02*
X133187800Y-37387142D01*
X133187800Y-37387142D02*
X133140180Y-37529999D01*
X133140180Y-37529999D02*
X133140180Y-37768094D01*
X134140180Y-36291904D02*
X134140180Y-36768094D01*
X134140180Y-36768094D02*
X133663990Y-36815713D01*
X133663990Y-36815713D02*
X133711609Y-36768094D01*
X133711609Y-36768094D02*
X133759228Y-36672856D01*
X133759228Y-36672856D02*
X133759228Y-36434761D01*
X133759228Y-36434761D02*
X133711609Y-36339523D01*
X133711609Y-36339523D02*
X133663990Y-36291904D01*
X133663990Y-36291904D02*
X133568752Y-36244285D01*
X133568752Y-36244285D02*
X133330657Y-36244285D01*
X133330657Y-36244285D02*
X133235419Y-36291904D01*
X133235419Y-36291904D02*
X133187800Y-36339523D01*
X133187800Y-36339523D02*
X133140180Y-36434761D01*
X133140180Y-36434761D02*
X133140180Y-36672856D01*
X133140180Y-36672856D02*
X133187800Y-36768094D01*
X133187800Y-36768094D02*
X133235419Y-36815713D01*
X159631666Y-54159580D02*
X159679285Y-54207200D01*
X159679285Y-54207200D02*
X159822142Y-54254819D01*
X159822142Y-54254819D02*
X159917380Y-54254819D01*
X159917380Y-54254819D02*
X160060237Y-54207200D01*
X160060237Y-54207200D02*
X160155475Y-54111961D01*
X160155475Y-54111961D02*
X160203094Y-54016723D01*
X160203094Y-54016723D02*
X160250713Y-53826247D01*
X160250713Y-53826247D02*
X160250713Y-53683390D01*
X160250713Y-53683390D02*
X160203094Y-53492914D01*
X160203094Y-53492914D02*
X160155475Y-53397676D01*
X160155475Y-53397676D02*
X160060237Y-53302438D01*
X160060237Y-53302438D02*
X159917380Y-53254819D01*
X159917380Y-53254819D02*
X159822142Y-53254819D01*
X159822142Y-53254819D02*
X159679285Y-53302438D01*
X159679285Y-53302438D02*
X159631666Y-53350057D01*
X158726904Y-53254819D02*
X159203094Y-53254819D01*
X159203094Y-53254819D02*
X159250713Y-53731009D01*
X159250713Y-53731009D02*
X159203094Y-53683390D01*
X159203094Y-53683390D02*
X159107856Y-53635771D01*
X159107856Y-53635771D02*
X158869761Y-53635771D01*
X158869761Y-53635771D02*
X158774523Y-53683390D01*
X158774523Y-53683390D02*
X158726904Y-53731009D01*
X158726904Y-53731009D02*
X158679285Y-53826247D01*
X158679285Y-53826247D02*
X158679285Y-54064342D01*
X158679285Y-54064342D02*
X158726904Y-54159580D01*
X158726904Y-54159580D02*
X158774523Y-54207200D01*
X158774523Y-54207200D02*
X158869761Y-54254819D01*
X158869761Y-54254819D02*
X159107856Y-54254819D01*
X159107856Y-54254819D02*
X159203094Y-54207200D01*
X159203094Y-54207200D02*
X159250713Y-54159580D01*
X123629580Y-37123333D02*
X123677200Y-37075714D01*
X123677200Y-37075714D02*
X123724819Y-36932857D01*
X123724819Y-36932857D02*
X123724819Y-36837619D01*
X123724819Y-36837619D02*
X123677200Y-36694762D01*
X123677200Y-36694762D02*
X123581961Y-36599524D01*
X123581961Y-36599524D02*
X123486723Y-36551905D01*
X123486723Y-36551905D02*
X123296247Y-36504286D01*
X123296247Y-36504286D02*
X123153390Y-36504286D01*
X123153390Y-36504286D02*
X122962914Y-36551905D01*
X122962914Y-36551905D02*
X122867676Y-36599524D01*
X122867676Y-36599524D02*
X122772438Y-36694762D01*
X122772438Y-36694762D02*
X122724819Y-36837619D01*
X122724819Y-36837619D02*
X122724819Y-36932857D01*
X122724819Y-36932857D02*
X122772438Y-37075714D01*
X122772438Y-37075714D02*
X122820057Y-37123333D01*
X122724819Y-37456667D02*
X122724819Y-38123333D01*
X122724819Y-38123333D02*
X123724819Y-37694762D01*
X118549580Y-36488333D02*
X118597200Y-36440714D01*
X118597200Y-36440714D02*
X118644819Y-36297857D01*
X118644819Y-36297857D02*
X118644819Y-36202619D01*
X118644819Y-36202619D02*
X118597200Y-36059762D01*
X118597200Y-36059762D02*
X118501961Y-35964524D01*
X118501961Y-35964524D02*
X118406723Y-35916905D01*
X118406723Y-35916905D02*
X118216247Y-35869286D01*
X118216247Y-35869286D02*
X118073390Y-35869286D01*
X118073390Y-35869286D02*
X117882914Y-35916905D01*
X117882914Y-35916905D02*
X117787676Y-35964524D01*
X117787676Y-35964524D02*
X117692438Y-36059762D01*
X117692438Y-36059762D02*
X117644819Y-36202619D01*
X117644819Y-36202619D02*
X117644819Y-36297857D01*
X117644819Y-36297857D02*
X117692438Y-36440714D01*
X117692438Y-36440714D02*
X117740057Y-36488333D01*
X118073390Y-37059762D02*
X118025771Y-36964524D01*
X118025771Y-36964524D02*
X117978152Y-36916905D01*
X117978152Y-36916905D02*
X117882914Y-36869286D01*
X117882914Y-36869286D02*
X117835295Y-36869286D01*
X117835295Y-36869286D02*
X117740057Y-36916905D01*
X117740057Y-36916905D02*
X117692438Y-36964524D01*
X117692438Y-36964524D02*
X117644819Y-37059762D01*
X117644819Y-37059762D02*
X117644819Y-37250238D01*
X117644819Y-37250238D02*
X117692438Y-37345476D01*
X117692438Y-37345476D02*
X117740057Y-37393095D01*
X117740057Y-37393095D02*
X117835295Y-37440714D01*
X117835295Y-37440714D02*
X117882914Y-37440714D01*
X117882914Y-37440714D02*
X117978152Y-37393095D01*
X117978152Y-37393095D02*
X118025771Y-37345476D01*
X118025771Y-37345476D02*
X118073390Y-37250238D01*
X118073390Y-37250238D02*
X118073390Y-37059762D01*
X118073390Y-37059762D02*
X118121009Y-36964524D01*
X118121009Y-36964524D02*
X118168628Y-36916905D01*
X118168628Y-36916905D02*
X118263866Y-36869286D01*
X118263866Y-36869286D02*
X118454342Y-36869286D01*
X118454342Y-36869286D02*
X118549580Y-36916905D01*
X118549580Y-36916905D02*
X118597200Y-36964524D01*
X118597200Y-36964524D02*
X118644819Y-37059762D01*
X118644819Y-37059762D02*
X118644819Y-37250238D01*
X118644819Y-37250238D02*
X118597200Y-37345476D01*
X118597200Y-37345476D02*
X118549580Y-37393095D01*
X118549580Y-37393095D02*
X118454342Y-37440714D01*
X118454342Y-37440714D02*
X118263866Y-37440714D01*
X118263866Y-37440714D02*
X118168628Y-37393095D01*
X118168628Y-37393095D02*
X118121009Y-37345476D01*
X118121009Y-37345476D02*
X118073390Y-37250238D01*
X109645180Y-31418094D02*
X110645180Y-31418094D01*
X110645180Y-31418094D02*
X110645180Y-31179999D01*
X110645180Y-31179999D02*
X110597561Y-31037142D01*
X110597561Y-31037142D02*
X110502323Y-30941904D01*
X110502323Y-30941904D02*
X110407085Y-30894285D01*
X110407085Y-30894285D02*
X110216609Y-30846666D01*
X110216609Y-30846666D02*
X110073752Y-30846666D01*
X110073752Y-30846666D02*
X109883276Y-30894285D01*
X109883276Y-30894285D02*
X109788038Y-30941904D01*
X109788038Y-30941904D02*
X109692800Y-31037142D01*
X109692800Y-31037142D02*
X109645180Y-31179999D01*
X109645180Y-31179999D02*
X109645180Y-31418094D01*
X110549942Y-30465713D02*
X110597561Y-30418094D01*
X110597561Y-30418094D02*
X110645180Y-30322856D01*
X110645180Y-30322856D02*
X110645180Y-30084761D01*
X110645180Y-30084761D02*
X110597561Y-29989523D01*
X110597561Y-29989523D02*
X110549942Y-29941904D01*
X110549942Y-29941904D02*
X110454704Y-29894285D01*
X110454704Y-29894285D02*
X110359466Y-29894285D01*
X110359466Y-29894285D02*
X110216609Y-29941904D01*
X110216609Y-29941904D02*
X109645180Y-30513332D01*
X109645180Y-30513332D02*
X109645180Y-29894285D01*
X149545180Y-39738094D02*
X150545180Y-39738094D01*
X150545180Y-39738094D02*
X150545180Y-39499999D01*
X150545180Y-39499999D02*
X150497561Y-39357142D01*
X150497561Y-39357142D02*
X150402323Y-39261904D01*
X150402323Y-39261904D02*
X150307085Y-39214285D01*
X150307085Y-39214285D02*
X150116609Y-39166666D01*
X150116609Y-39166666D02*
X149973752Y-39166666D01*
X149973752Y-39166666D02*
X149783276Y-39214285D01*
X149783276Y-39214285D02*
X149688038Y-39261904D01*
X149688038Y-39261904D02*
X149592800Y-39357142D01*
X149592800Y-39357142D02*
X149545180Y-39499999D01*
X149545180Y-39499999D02*
X149545180Y-39738094D01*
X150545180Y-38833332D02*
X150545180Y-38214285D01*
X150545180Y-38214285D02*
X150164228Y-38547618D01*
X150164228Y-38547618D02*
X150164228Y-38404761D01*
X150164228Y-38404761D02*
X150116609Y-38309523D01*
X150116609Y-38309523D02*
X150068990Y-38261904D01*
X150068990Y-38261904D02*
X149973752Y-38214285D01*
X149973752Y-38214285D02*
X149735657Y-38214285D01*
X149735657Y-38214285D02*
X149640419Y-38261904D01*
X149640419Y-38261904D02*
X149592800Y-38309523D01*
X149592800Y-38309523D02*
X149545180Y-38404761D01*
X149545180Y-38404761D02*
X149545180Y-38690475D01*
X149545180Y-38690475D02*
X149592800Y-38785713D01*
X149592800Y-38785713D02*
X149640419Y-38833332D01*
%TO.C,C9*%
D12*
X132106252Y-53065000D02*
X131583748Y-53065000D01*
X132106252Y-54535000D02*
X131583748Y-54535000D01*
%TO.C,C4*%
X134825000Y-39970580D02*
X134825000Y-39689420D01*
X135845000Y-39970580D02*
X135845000Y-39689420D01*
%TO.C,R3*%
X115762500Y-63912742D02*
X115762500Y-64387258D01*
X116807500Y-63912742D02*
X116807500Y-64387258D01*
D13*
%TO.C,G\u002A\u002A\u002A*%
G36*
X105415208Y-59095496D02*
G01*
X105454398Y-59125972D01*
X105364056Y-59146649D01*
X105278182Y-59140662D01*
X105252931Y-59102180D01*
X105282885Y-59085403D01*
X105415208Y-59095496D01*
G37*
G36*
X103493015Y-54731857D02*
G01*
X103524704Y-54928751D01*
X103536667Y-55216333D01*
X103526535Y-55482927D01*
X103496244Y-55688909D01*
X103452000Y-55766667D01*
X103410986Y-55700809D01*
X103379296Y-55503915D01*
X103367333Y-55216333D01*
X103377465Y-54949740D01*
X103407757Y-54743757D01*
X103452000Y-54666000D01*
X103493015Y-54731857D01*
G37*
G36*
X103748663Y-58343344D02*
G01*
X103930752Y-58449515D01*
X104072340Y-58614360D01*
X104129333Y-58814667D01*
X104129335Y-58821993D01*
X104122649Y-58932627D01*
X104076339Y-58971748D01*
X103951123Y-58942446D01*
X103707714Y-58847807D01*
X103583494Y-58796123D01*
X103421165Y-58702695D01*
X103376253Y-58598291D01*
X103418725Y-58440591D01*
X103439349Y-58399862D01*
X103570165Y-58319056D01*
X103748663Y-58343344D01*
G37*
G36*
X100815063Y-55428246D02*
G01*
X100905666Y-55496659D01*
X101058359Y-55657218D01*
X101238107Y-55867415D01*
X101409876Y-56084739D01*
X101538630Y-56266681D01*
X101589333Y-56370731D01*
X101575266Y-56429601D01*
X101496209Y-56414998D01*
X101341069Y-56269060D01*
X101102500Y-55985982D01*
X101083849Y-55962624D01*
X100877710Y-55695766D01*
X100771367Y-55532358D01*
X100753393Y-55450427D01*
X100812362Y-55428000D01*
X100815063Y-55428246D01*
G37*
G36*
X109921472Y-53982419D02*
G01*
X110047472Y-54132852D01*
X110112154Y-54353267D01*
X110052628Y-54543063D01*
X109908556Y-54640263D01*
X109722319Y-54657954D01*
X109586852Y-54575700D01*
X109557344Y-54476175D01*
X109623214Y-54430964D01*
X109756619Y-54494137D01*
X109762051Y-54498615D01*
X109871420Y-54553167D01*
X109937057Y-54463869D01*
X109962504Y-54255885D01*
X109873807Y-54127581D01*
X109696584Y-54118915D01*
X109596966Y-54146587D01*
X109556514Y-54133021D01*
X109649584Y-54026193D01*
X109676059Y-53999467D01*
X109799857Y-53924817D01*
X109921472Y-53982419D01*
G37*
G36*
X110008213Y-59953372D02*
G01*
X110049595Y-60062514D01*
X110056000Y-60296333D01*
X110054564Y-60440069D01*
X110032165Y-60602519D01*
X109958189Y-60666289D01*
X109802000Y-60677333D01*
X109798840Y-60677327D01*
X109621573Y-60652114D01*
X109548000Y-60592667D01*
X109579753Y-60543456D01*
X109717333Y-60508000D01*
X109815754Y-60492123D01*
X109886667Y-60423333D01*
X109872339Y-60384384D01*
X109759667Y-60338667D01*
X109701243Y-60329114D01*
X109632667Y-60254000D01*
X109646995Y-60215051D01*
X109759667Y-60169333D01*
X109796810Y-60167288D01*
X109883163Y-60117790D01*
X109844404Y-60037779D01*
X109696167Y-59975085D01*
X109633352Y-59960795D01*
X109625233Y-59939833D01*
X109780833Y-59926863D01*
X109898602Y-59924261D01*
X110008213Y-59953372D01*
G37*
G36*
X115898000Y-56153290D02*
G01*
X115896809Y-56274667D01*
X115896523Y-56303869D01*
X115875470Y-56462767D01*
X115807469Y-56518428D01*
X115665167Y-56513124D01*
X115635350Y-56509383D01*
X115500340Y-56467000D01*
X115435247Y-56356186D01*
X115424973Y-56274667D01*
X115559333Y-56274667D01*
X115561794Y-56294904D01*
X115644000Y-56359333D01*
X115664238Y-56356873D01*
X115728667Y-56274667D01*
X115726207Y-56254429D01*
X115644000Y-56190000D01*
X115623763Y-56192460D01*
X115559333Y-56274667D01*
X115424973Y-56274667D01*
X115406299Y-56126500D01*
X115398114Y-55999135D01*
X115399046Y-55983330D01*
X115559333Y-55983330D01*
X115561535Y-55991780D01*
X115644000Y-56020667D01*
X115667206Y-56017221D01*
X115728667Y-55931003D01*
X115722019Y-55900379D01*
X115644000Y-55893667D01*
X115618662Y-55911044D01*
X115559333Y-55983330D01*
X115399046Y-55983330D01*
X115407578Y-55838604D01*
X115477764Y-55776805D01*
X115639132Y-55766667D01*
X115743734Y-55769151D01*
X115849820Y-55804008D01*
X115891051Y-55916834D01*
X115891467Y-55931003D01*
X115898000Y-56153290D01*
G37*
G36*
X107420306Y-63517780D02*
G01*
X107334962Y-63922876D01*
X107122848Y-64271542D01*
X106796333Y-64524423D01*
X106597675Y-64604551D01*
X106208443Y-64650377D01*
X105850729Y-64561423D01*
X105546013Y-64360767D01*
X105315774Y-64071483D01*
X105181493Y-63716649D01*
X105171274Y-63475591D01*
X105767448Y-63475591D01*
X105828983Y-63724492D01*
X106020513Y-63938975D01*
X106059381Y-63966114D01*
X106196443Y-64045481D01*
X106312441Y-64041329D01*
X106493314Y-63956918D01*
X106609522Y-63881085D01*
X106767698Y-63668618D01*
X106805544Y-63426388D01*
X106732183Y-63198616D01*
X106556738Y-63029524D01*
X106288333Y-62963333D01*
X106241284Y-62965091D01*
X105985751Y-63051619D01*
X105823755Y-63236543D01*
X105767448Y-63475591D01*
X105171274Y-63475591D01*
X105164650Y-63319340D01*
X105286724Y-62902633D01*
X105384627Y-62735599D01*
X105663536Y-62467239D01*
X106007326Y-62319210D01*
X106379414Y-62291140D01*
X106743213Y-62382660D01*
X107062137Y-62593400D01*
X107299603Y-62922990D01*
X107366512Y-63095610D01*
X107408661Y-63426388D01*
X107420306Y-63517780D01*
G37*
G36*
X103048085Y-55147465D02*
G01*
X103142796Y-55360601D01*
X103206808Y-55568057D01*
X103222026Y-55747850D01*
X103182153Y-55826712D01*
X103101714Y-55781974D01*
X102995228Y-55590965D01*
X102872853Y-55301000D01*
X102844927Y-55634528D01*
X102838802Y-55704594D01*
X102813474Y-55871349D01*
X102766824Y-55902691D01*
X102675124Y-55825272D01*
X102643339Y-55795686D01*
X102506542Y-55729795D01*
X102322208Y-55752806D01*
X102044069Y-55867840D01*
X101928213Y-55956694D01*
X101908741Y-56125498D01*
X101918378Y-56240144D01*
X101839622Y-56259318D01*
X101744554Y-56169201D01*
X101662339Y-55984886D01*
X101588644Y-55795749D01*
X101461707Y-55596641D01*
X101382579Y-55469184D01*
X101411895Y-55390011D01*
X101534303Y-55394306D01*
X101714511Y-55496106D01*
X101857707Y-55589415D01*
X102021115Y-55617089D01*
X102260300Y-55569778D01*
X102315114Y-55554196D01*
X102538013Y-55449585D01*
X102622773Y-55305670D01*
X102648468Y-55208467D01*
X102698154Y-55174000D01*
X102749093Y-55179319D01*
X102875897Y-55110720D01*
X102887703Y-55101237D01*
X102972599Y-55069947D01*
X103048085Y-55147465D01*
G37*
G36*
X108256769Y-63316494D02*
G01*
X108266139Y-63491573D01*
X108197811Y-64064179D01*
X107980496Y-64569458D01*
X107624082Y-64989801D01*
X107138460Y-65307598D01*
X106991339Y-65370481D01*
X106454946Y-65490661D01*
X105917304Y-65457967D01*
X105408449Y-65281542D01*
X104958415Y-64970528D01*
X104597238Y-64534068D01*
X104462540Y-64296220D01*
X104384692Y-64082915D01*
X104350105Y-63832064D01*
X104343361Y-63497716D01*
X104565956Y-63497716D01*
X104574249Y-63777602D01*
X104639797Y-64021549D01*
X104780900Y-64318000D01*
X104933697Y-64576225D01*
X105150285Y-64818427D01*
X105445244Y-65014522D01*
X105856256Y-65181854D01*
X106355312Y-65243806D01*
X106832095Y-65164615D01*
X107260639Y-64957623D01*
X107614981Y-64636170D01*
X107869157Y-64213599D01*
X107997201Y-63703250D01*
X108002683Y-63259788D01*
X107886820Y-62736051D01*
X107642448Y-62302291D01*
X107282793Y-61973893D01*
X106821081Y-61766243D01*
X106270540Y-61694726D01*
X105742940Y-61769407D01*
X105289652Y-61984933D01*
X104934044Y-62326662D01*
X104691277Y-62779960D01*
X104576510Y-63330190D01*
X104565956Y-63497716D01*
X104343361Y-63497716D01*
X104342963Y-63477973D01*
X104343245Y-63430332D01*
X104362899Y-63038019D01*
X104421516Y-62743775D01*
X104531005Y-62484689D01*
X104614441Y-62341655D01*
X104962012Y-61936208D01*
X105389017Y-61651393D01*
X105867184Y-61487260D01*
X106368237Y-61443859D01*
X106863905Y-61521239D01*
X107325912Y-61719450D01*
X107725985Y-62038540D01*
X108035850Y-62478560D01*
X108100258Y-62630452D01*
X108198801Y-62969998D01*
X108247282Y-63259788D01*
X108256769Y-63316494D01*
G37*
G36*
X104044667Y-63259667D02*
G01*
X104044667Y-64015458D01*
X104044667Y-65164667D01*
X103066796Y-65164667D01*
X102639212Y-65159040D01*
X102227281Y-65130028D01*
X101932782Y-65066517D01*
X101727107Y-64957703D01*
X101581648Y-64792788D01*
X101467799Y-64560970D01*
X101449966Y-64514055D01*
X101372700Y-64105174D01*
X102049712Y-64105174D01*
X102132293Y-64340693D01*
X102325240Y-64493508D01*
X102543851Y-64544131D01*
X102890381Y-64558336D01*
X103219167Y-64513637D01*
X103227843Y-64511193D01*
X103313320Y-64447111D01*
X103355826Y-64295285D01*
X103367333Y-64015458D01*
X103367333Y-63556000D01*
X102818952Y-63556000D01*
X102562961Y-63560326D01*
X102356092Y-63585789D01*
X102230612Y-63647077D01*
X102137755Y-63758701D01*
X102092012Y-63843839D01*
X102049712Y-64105174D01*
X101372700Y-64105174D01*
X101369305Y-64087209D01*
X101431400Y-63687021D01*
X101630891Y-63353171D01*
X101828688Y-63139745D01*
X101661338Y-62818706D01*
X101594085Y-62667431D01*
X101548089Y-62407364D01*
X102182000Y-62407364D01*
X102217206Y-62643949D01*
X102345767Y-62791021D01*
X102422107Y-62819361D01*
X102657553Y-62861917D01*
X102942859Y-62878667D01*
X103376183Y-62878667D01*
X103350591Y-62434167D01*
X103325000Y-61989667D01*
X102901667Y-61991855D01*
X102808255Y-61992908D01*
X102487672Y-62015285D01*
X102297145Y-62079863D01*
X102205609Y-62204577D01*
X102182000Y-62407364D01*
X101548089Y-62407364D01*
X101523675Y-62269323D01*
X101606884Y-61899507D01*
X101839442Y-61587500D01*
X101919942Y-61517885D01*
X102033912Y-61440481D01*
X102169112Y-61392449D01*
X102362566Y-61366797D01*
X102651299Y-61356534D01*
X103072336Y-61354667D01*
X104044667Y-61354667D01*
X104044667Y-62878667D01*
X104044667Y-63259667D01*
G37*
G36*
X101135674Y-63494154D02*
G01*
X101039000Y-63610049D01*
X100944804Y-63695681D01*
X100918336Y-63866688D01*
X101000720Y-64034187D01*
X101047973Y-64171698D01*
X100989230Y-64350765D01*
X100851190Y-64508495D01*
X100667632Y-64588656D01*
X100504852Y-64643429D01*
X100419254Y-64805019D01*
X100329418Y-64996935D01*
X100126721Y-65117406D01*
X99862361Y-65116950D01*
X99684216Y-65113352D01*
X99561311Y-65241901D01*
X99461406Y-65354614D01*
X99218667Y-65418667D01*
X99045407Y-65390458D01*
X98876022Y-65241901D01*
X98760947Y-65116601D01*
X98574973Y-65116950D01*
X98332412Y-65122681D01*
X98122235Y-65011891D01*
X98018080Y-64805019D01*
X97956450Y-64664309D01*
X97769702Y-64588656D01*
X97596239Y-64516073D01*
X97454504Y-64361420D01*
X97390036Y-64182047D01*
X97436613Y-64034187D01*
X97504150Y-63933103D01*
X97502291Y-63741176D01*
X97356000Y-63575649D01*
X97309699Y-63534067D01*
X97226298Y-63379026D01*
X97216109Y-63336215D01*
X98428445Y-63336215D01*
X98434960Y-63507897D01*
X98493383Y-63750022D01*
X98633056Y-63940080D01*
X98686879Y-63990315D01*
X99003343Y-64170606D01*
X99333469Y-64194971D01*
X99643459Y-64067370D01*
X99899513Y-63791759D01*
X99953168Y-63694719D01*
X100039417Y-63340787D01*
X99963110Y-62996621D01*
X99728272Y-62688167D01*
X99631541Y-62609287D01*
X99322762Y-62468985D01*
X99012089Y-62497914D01*
X98697891Y-62696084D01*
X98526005Y-62876947D01*
X98447123Y-63063622D01*
X98428445Y-63336215D01*
X97216109Y-63336215D01*
X97181392Y-63190354D01*
X97185756Y-63030530D01*
X97250167Y-62962037D01*
X97364884Y-62940078D01*
X97476534Y-62820633D01*
X97445640Y-62633959D01*
X97411640Y-62529644D01*
X97447067Y-62315700D01*
X97589829Y-62144427D01*
X97802606Y-62074333D01*
X97944834Y-62036174D01*
X97966528Y-61895736D01*
X97996852Y-61729050D01*
X98139820Y-61575083D01*
X98343235Y-61501529D01*
X98548457Y-61543847D01*
X98625663Y-61585400D01*
X98742584Y-61589280D01*
X98856082Y-61460500D01*
X98859699Y-61455261D01*
X99029036Y-61314648D01*
X99237428Y-61263879D01*
X99425230Y-61304819D01*
X99532801Y-61439333D01*
X99573827Y-61533831D01*
X99703415Y-61605028D01*
X99866187Y-61519946D01*
X100009857Y-61473505D01*
X100188689Y-61532590D01*
X100340138Y-61664445D01*
X100404000Y-61833923D01*
X100404352Y-61856136D01*
X100452504Y-61995208D01*
X100613715Y-62032000D01*
X100767324Y-62063136D01*
X100945292Y-62203592D01*
X101027674Y-62408140D01*
X100980619Y-62622315D01*
X100944597Y-62684770D01*
X100919786Y-62802534D01*
X101017833Y-62887571D01*
X101051509Y-62912855D01*
X101139870Y-63075302D01*
X101168612Y-63292487D01*
X101160723Y-63340787D01*
X101135674Y-63494154D01*
G37*
G36*
X108314413Y-58397689D02*
G01*
X108456932Y-58844921D01*
X108571599Y-59204184D01*
X108650608Y-59451004D01*
X108686151Y-59560912D01*
X108687243Y-59608157D01*
X108596070Y-59648823D01*
X108365509Y-59645579D01*
X108184878Y-59626909D01*
X108047058Y-59573731D01*
X107957618Y-59446254D01*
X107867540Y-59200683D01*
X107727667Y-58782367D01*
X107137549Y-58805027D01*
X107126119Y-58805472D01*
X106826193Y-58821601D01*
X106598594Y-58841895D01*
X106491795Y-58862071D01*
X106470393Y-58890541D01*
X106408107Y-59044685D01*
X106339861Y-59278894D01*
X106295864Y-59443928D01*
X106226949Y-59594186D01*
X106113749Y-59651916D01*
X105906114Y-59661333D01*
X105819741Y-59659638D01*
X105647668Y-59627253D01*
X105576538Y-59530749D01*
X105596601Y-59340363D01*
X105698108Y-59026333D01*
X105734883Y-58922017D01*
X105808041Y-58654995D01*
X105790309Y-58489801D01*
X105666269Y-58386343D01*
X105420500Y-58304532D01*
X105290080Y-58266591D01*
X105053433Y-58183451D01*
X104912500Y-58113828D01*
X104831317Y-58091083D01*
X104806667Y-58214361D01*
X104792186Y-58292189D01*
X104672862Y-58436443D01*
X104491602Y-58502819D01*
X104319833Y-58455882D01*
X104301943Y-58436701D01*
X104239309Y-58274179D01*
X104214000Y-58039571D01*
X104213603Y-58030611D01*
X106792399Y-58030611D01*
X106808703Y-58053951D01*
X106946126Y-58112588D01*
X107152197Y-58136005D01*
X107351203Y-58120596D01*
X107467431Y-58062756D01*
X107470704Y-58054115D01*
X107462170Y-57920025D01*
X107411829Y-57678096D01*
X107328851Y-57373907D01*
X107144180Y-56759635D01*
X106947813Y-57341762D01*
X106939459Y-57366735D01*
X106850579Y-57664440D01*
X106797837Y-57902233D01*
X106792399Y-58030611D01*
X104213603Y-58030611D01*
X104207089Y-57883668D01*
X104153287Y-57722669D01*
X104023500Y-57637730D01*
X103858136Y-57597819D01*
X103684499Y-57638184D01*
X103621333Y-57790792D01*
X103603603Y-57892081D01*
X103484949Y-58064362D01*
X103308067Y-58137333D01*
X103227380Y-58060795D01*
X103198000Y-57846705D01*
X103197349Y-57803680D01*
X103155311Y-57598453D01*
X103032998Y-57503708D01*
X102875179Y-57393753D01*
X102803076Y-57159090D01*
X102850491Y-56817894D01*
X102955761Y-56521216D01*
X103107343Y-56329848D01*
X103337713Y-56247331D01*
X103687934Y-56245602D01*
X104261491Y-56287112D01*
X104960833Y-56344003D01*
X105533373Y-56398682D01*
X105968513Y-56450000D01*
X106255653Y-56496809D01*
X106384196Y-56537958D01*
X106444475Y-56550635D01*
X106526902Y-56447257D01*
X106625771Y-56193700D01*
X106709981Y-55956348D01*
X106792499Y-55824036D01*
X106914382Y-55774275D01*
X107122639Y-55766667D01*
X107477668Y-55766667D01*
X108063184Y-57608167D01*
X108151850Y-57886957D01*
X108205055Y-58054115D01*
X108314413Y-58397689D01*
G37*
G36*
X114920286Y-57029145D02*
G01*
X115345643Y-57054072D01*
X115426541Y-57059362D01*
X115648445Y-57089691D01*
X115718855Y-57129550D01*
X115757207Y-57151261D01*
X115797452Y-57264892D01*
X115802894Y-57334867D01*
X115767199Y-57413840D01*
X115640401Y-57454406D01*
X115383389Y-57476559D01*
X114942874Y-57502333D01*
X114899273Y-57673287D01*
X114829520Y-57946776D01*
X114767684Y-58163970D01*
X114482139Y-58827116D01*
X114084530Y-59371172D01*
X113581560Y-59788436D01*
X112979934Y-60071208D01*
X112614714Y-60178437D01*
X112227541Y-60242002D01*
X111856391Y-60227815D01*
X111427895Y-60139085D01*
X110984887Y-60024170D01*
X111006613Y-62497667D01*
X111007277Y-62573252D01*
X111029667Y-65122333D01*
X111220167Y-65095845D01*
X111261666Y-65091310D01*
X111380719Y-65124813D01*
X111410667Y-65279289D01*
X111386071Y-65422663D01*
X111306625Y-65523903D01*
X111290642Y-65530280D01*
X111255360Y-65604434D01*
X111334122Y-65763791D01*
X111433396Y-65934101D01*
X111520173Y-66117167D01*
X111551705Y-66230141D01*
X111531188Y-66280167D01*
X111457982Y-66225336D01*
X111356225Y-66086456D01*
X111250056Y-65884333D01*
X111191377Y-65761362D01*
X111053101Y-65564116D01*
X110909523Y-65503333D01*
X110832706Y-65508347D01*
X110777392Y-65563823D01*
X110820167Y-65720699D01*
X110890982Y-65892287D01*
X110990384Y-66101699D01*
X111035215Y-66217670D01*
X110985552Y-66265333D01*
X110944087Y-66242563D01*
X110839433Y-66105031D01*
X110724611Y-65884333D01*
X110681216Y-65791727D01*
X110536278Y-65572928D01*
X110390705Y-65503333D01*
X110287040Y-65506102D01*
X110238343Y-65540476D01*
X110261563Y-65648250D01*
X110352333Y-65871274D01*
X110398252Y-65982697D01*
X110464222Y-66164979D01*
X110468052Y-66246496D01*
X110415833Y-66265016D01*
X110385304Y-66242615D01*
X110298568Y-66105127D01*
X110195780Y-65884016D01*
X110137330Y-65758176D01*
X110019355Y-65575244D01*
X109920613Y-65503333D01*
X109846155Y-65462153D01*
X109802000Y-65309496D01*
X109804284Y-65256893D01*
X109862264Y-65145114D01*
X110034833Y-65118996D01*
X110267667Y-65122333D01*
X110292130Y-64381500D01*
X110316593Y-63640667D01*
X110069663Y-63640667D01*
X110016049Y-63641874D01*
X109881612Y-63666537D01*
X109760819Y-63742041D01*
X109630595Y-63893164D01*
X109467866Y-64144685D01*
X109249558Y-64521385D01*
X108908783Y-65122333D01*
X108505253Y-65148281D01*
X108101723Y-65174228D01*
X108410372Y-64555614D01*
X108437688Y-64501563D01*
X108613390Y-64179974D01*
X108785436Y-63901924D01*
X108920125Y-63722494D01*
X109121229Y-63507989D01*
X108836574Y-63354692D01*
X108807755Y-63338395D01*
X108595292Y-63173391D01*
X108457293Y-62993714D01*
X108450073Y-62977399D01*
X108369540Y-62648667D01*
X108371936Y-62402470D01*
X109044538Y-62402470D01*
X109071107Y-62640677D01*
X109173048Y-62830286D01*
X109213961Y-62863178D01*
X109438037Y-62938871D01*
X109808048Y-62963333D01*
X110310000Y-62963333D01*
X110310000Y-62497667D01*
X110305991Y-62247693D01*
X110279732Y-62099058D01*
X110210396Y-62038435D01*
X110077167Y-62023422D01*
X110055005Y-62022648D01*
X109639875Y-62026459D01*
X109325800Y-62065205D01*
X109145833Y-62134929D01*
X109096479Y-62195852D01*
X109044538Y-62402470D01*
X108371936Y-62402470D01*
X108373099Y-62283010D01*
X108450069Y-61930710D01*
X108589769Y-61642048D01*
X108781520Y-61467306D01*
X108822491Y-61454149D01*
X109019740Y-61419936D01*
X109319546Y-61386260D01*
X109675000Y-61358817D01*
X110437000Y-61312333D01*
X110461121Y-60546052D01*
X110485241Y-59779772D01*
X110152497Y-59429985D01*
X110052501Y-59312101D01*
X111092898Y-59312101D01*
X111144857Y-59413529D01*
X111277579Y-59490401D01*
X111486801Y-59565546D01*
X111972654Y-59649458D01*
X112508918Y-59599556D01*
X113030772Y-59420481D01*
X113490670Y-59122740D01*
X113644620Y-58968853D01*
X113882236Y-58654111D01*
X114088648Y-58297419D01*
X114234224Y-57952553D01*
X114289333Y-57673287D01*
X114287686Y-57595580D01*
X114262180Y-57514311D01*
X114176680Y-57475334D01*
X113994792Y-57466949D01*
X113680119Y-57477457D01*
X113070904Y-57502333D01*
X113059219Y-58264333D01*
X113056508Y-58444610D01*
X113049065Y-58827816D01*
X113035482Y-59079505D01*
X113008168Y-59227256D01*
X112959533Y-59298648D01*
X112881987Y-59321258D01*
X112767939Y-59322667D01*
X112516545Y-59322667D01*
X112492773Y-58294998D01*
X112469000Y-57267330D01*
X111728576Y-58271217D01*
X111464248Y-58632183D01*
X111248329Y-58944257D01*
X111125967Y-59163287D01*
X111092898Y-59312101D01*
X110052501Y-59312101D01*
X110003525Y-59254363D01*
X109769779Y-58921926D01*
X109578398Y-58587599D01*
X109515692Y-58455777D01*
X109421633Y-58218389D01*
X109367514Y-57982753D01*
X109342733Y-57691907D01*
X109336688Y-57288886D01*
X109336880Y-57262709D01*
X109890797Y-57262709D01*
X109961603Y-57884407D01*
X110192827Y-58479041D01*
X110294594Y-58654520D01*
X110415383Y-58830993D01*
X110489696Y-58899333D01*
X110515045Y-58884116D01*
X110628823Y-58765294D01*
X110805040Y-58554774D01*
X111019776Y-58284050D01*
X111249108Y-57984611D01*
X111469117Y-57687950D01*
X111655883Y-57425559D01*
X111785484Y-57228928D01*
X111834000Y-57129550D01*
X111823420Y-57098804D01*
X111729960Y-56953924D01*
X111563026Y-56732580D01*
X111350816Y-56468628D01*
X111121528Y-56195922D01*
X110903359Y-55948315D01*
X110724508Y-55759663D01*
X110613171Y-55663818D01*
X110602358Y-55658347D01*
X110506102Y-55665204D01*
X110389585Y-55784799D01*
X110230525Y-56038979D01*
X110228831Y-56041949D01*
X109980006Y-56639904D01*
X109890797Y-57262709D01*
X109336880Y-57262709D01*
X109338863Y-56991835D01*
X109355528Y-56680866D01*
X109398868Y-56437938D01*
X109480799Y-56204074D01*
X109613240Y-55920296D01*
X109786864Y-55611190D01*
X109994077Y-55311564D01*
X110074281Y-55221941D01*
X110985663Y-55221941D01*
X111727331Y-56146594D01*
X112469000Y-57071248D01*
X112493351Y-56187173D01*
X112504391Y-55913725D01*
X112528630Y-55581045D01*
X112559518Y-55339352D01*
X112592985Y-55227815D01*
X112699508Y-55191935D01*
X112890049Y-55208194D01*
X113111828Y-55263857D01*
X113086748Y-56129095D01*
X113061667Y-56994333D01*
X113675500Y-57019209D01*
X113755709Y-57022406D01*
X114059114Y-57025672D01*
X114228337Y-56986991D01*
X114281974Y-56877245D01*
X114238620Y-56667313D01*
X114116873Y-56328076D01*
X114050836Y-56173977D01*
X113742561Y-55707805D01*
X113319891Y-55319286D01*
X112823325Y-55048480D01*
X112463376Y-54960197D01*
X112011545Y-54935862D01*
X111569740Y-54984684D01*
X111210454Y-55104160D01*
X110985663Y-55221941D01*
X110074281Y-55221941D01*
X110182010Y-55101560D01*
X110473873Y-54845301D01*
X110497770Y-53845484D01*
X110506250Y-53519409D01*
X110519733Y-53200189D01*
X110540971Y-52999694D01*
X110576059Y-52888730D01*
X110631092Y-52838101D01*
X110712167Y-52818611D01*
X110763837Y-52812643D01*
X110830610Y-52824489D01*
X110871581Y-52889708D01*
X110893050Y-53037290D01*
X110901312Y-53296225D01*
X110902667Y-53695503D01*
X110902715Y-53777682D01*
X110905908Y-54150017D01*
X110917533Y-54385081D01*
X110942374Y-54510095D01*
X110985213Y-54552286D01*
X111050833Y-54538876D01*
X111414640Y-54417335D01*
X112056493Y-54328537D01*
X112679346Y-54391760D01*
X113263548Y-54596209D01*
X113789445Y-54931084D01*
X114237385Y-55385589D01*
X114587718Y-55948925D01*
X114820791Y-56610294D01*
X114884203Y-56877245D01*
X114920286Y-57029145D01*
G37*
%TO.C,R2*%
D12*
X117667500Y-54642742D02*
X117667500Y-55117258D01*
X118712500Y-54642742D02*
X118712500Y-55117258D01*
%TO.C,C3*%
X136965000Y-39701252D02*
X136965000Y-38278748D01*
X138785000Y-39701252D02*
X138785000Y-38278748D01*
%TO.C,C1*%
X151335000Y-35384420D02*
X151335000Y-35665580D01*
X152355000Y-35384420D02*
X152355000Y-35665580D01*
%TO.C,D5*%
D11*
X125875000Y-33475000D02*
X126475000Y-33475000D01*
X125875000Y-40585000D02*
X125875000Y-33475000D01*
X125875000Y-40585000D02*
X126475000Y-40585000D01*
X132095000Y-33475000D02*
X131495000Y-33475000D01*
X132095000Y-33475000D02*
X132095000Y-40585000D01*
X132095000Y-40585000D02*
X131495000Y-40585000D01*
D14*
X133040000Y-41350000D02*
G75*
G02*
X132690000Y-41350000I-175000J0D01*
G01*
X132690000Y-41350000D02*
G75*
G02*
X133040000Y-41350000I175000J0D01*
G01*
%TO.C,C5*%
D12*
X156871252Y-53065000D02*
X156348748Y-53065000D01*
X156871252Y-54535000D02*
X156348748Y-54535000D01*
%TO.C,C7*%
X119820000Y-39701252D02*
X119820000Y-38278748D01*
X121640000Y-39701252D02*
X121640000Y-38278748D01*
%TO.C,C8*%
X117680000Y-39830580D02*
X117680000Y-39549420D01*
X118700000Y-39830580D02*
X118700000Y-39549420D01*
%TO.C,D2*%
D11*
X102380000Y-27125000D02*
X102980000Y-27125000D01*
X102380000Y-34235000D02*
X102380000Y-27125000D01*
X102380000Y-34235000D02*
X102980000Y-34235000D01*
X108600000Y-27125000D02*
X108000000Y-27125000D01*
X108600000Y-27125000D02*
X108600000Y-34235000D01*
X108600000Y-34235000D02*
X108000000Y-34235000D01*
D14*
X109545000Y-35000000D02*
G75*
G02*
X109195000Y-35000000I-175000J0D01*
G01*
X109195000Y-35000000D02*
G75*
G02*
X109545000Y-35000000I175000J0D01*
G01*
%TO.C,D3*%
D11*
X143020000Y-33475000D02*
X143620000Y-33475000D01*
X143020000Y-40585000D02*
X143020000Y-33475000D01*
X143020000Y-40585000D02*
X143620000Y-40585000D01*
X149240000Y-33475000D02*
X148640000Y-33475000D01*
X149240000Y-33475000D02*
X149240000Y-40585000D01*
X149240000Y-40585000D02*
X148640000Y-40585000D01*
D14*
X150185000Y-41350000D02*
G75*
G02*
X149835000Y-41350000I-175000J0D01*
G01*
X149835000Y-41350000D02*
G75*
G02*
X150185000Y-41350000I175000J0D01*
G01*
%TD*%
%LPC*%
D15*
%TO.C,REF\u002A\u002A*%
X94695000Y-22685000D03*
X94695000Y-48685000D03*
%TD*%
D16*
%TO.C,F1*%
X149000000Y-23500000D03*
X144000000Y-23500000D03*
D17*
X134000000Y-23500000D03*
X129000000Y-23500000D03*
%TD*%
D18*
%TO.C,R5*%
X139145000Y-51895000D03*
X139145000Y-49355000D03*
%TD*%
D19*
%TO.C,C2*%
X141050000Y-40465000D03*
D20*
X141050000Y-32965000D03*
%TD*%
D21*
%TO.C,J2*%
X93465000Y-60785000D03*
D22*
X95965000Y-60785000D03*
%TD*%
D23*
%TO.C,REF\u002A\u002A*%
X171000000Y-63000000D03*
%TD*%
D21*
%TO.C,J7*%
X148075000Y-62055000D03*
D22*
X150575000Y-62055000D03*
%TD*%
D24*
%TO.C,J3*%
X110570000Y-34750000D03*
D25*
X110570000Y-37290000D03*
X110570000Y-39830000D03*
X110570000Y-42370000D03*
X110570000Y-44910000D03*
X110570000Y-47450000D03*
X110570000Y-49990000D03*
%TD*%
D26*
%TO.C,J1*%
X153290000Y-23480000D03*
X164290000Y-23480000D03*
D27*
X161290000Y-33480000D03*
D28*
X156290000Y-33480000D03*
%TD*%
D29*
%TO.C,J4*%
X80170000Y-31575000D03*
D30*
X85170000Y-31575000D03*
%TD*%
D29*
%TO.C,J5*%
X80170000Y-43005000D03*
D30*
X85170000Y-43005000D03*
%TD*%
D21*
%TO.C,J10*%
X125850000Y-62055000D03*
D22*
X128350000Y-62055000D03*
%TD*%
D21*
%TO.C,J8*%
X158235000Y-62055000D03*
D22*
X160735000Y-62055000D03*
%TD*%
D23*
%TO.C,REF\u002A\u002A*%
X171000000Y-24000000D03*
%TD*%
D18*
%TO.C,R1*%
X168355000Y-29035000D03*
X168355000Y-31575000D03*
%TD*%
D21*
%TO.C,J11*%
X136010000Y-62055000D03*
D22*
X138510000Y-62055000D03*
%TD*%
D19*
%TO.C,C6*%
X123905000Y-40465000D03*
D20*
X123905000Y-32965000D03*
%TD*%
D21*
%TO.C,J9*%
X168500000Y-52000000D03*
D22*
X171000000Y-52000000D03*
%TD*%
D31*
%TO.C,D1*%
X170895000Y-36020000D03*
D32*
X168355000Y-36020000D03*
%TD*%
D33*
%TO.C,U1*%
X152480000Y-51895000D03*
D34*
X155020000Y-51895000D03*
X157560000Y-51895000D03*
%TD*%
D18*
%TO.C,R4*%
X152420000Y-43040000D03*
X152420000Y-40500000D03*
%TD*%
D23*
%TO.C,REF\u002A\u002A*%
X79000000Y-63000000D03*
%TD*%
D33*
%TO.C,U2*%
X127715000Y-51895000D03*
D34*
X130255000Y-51895000D03*
X132795000Y-51895000D03*
%TD*%
D23*
%TO.C,REF\u002A\u002A*%
X79000000Y-24000000D03*
%TD*%
D35*
%TO.C,RV1*%
X118190000Y-63325000D03*
D36*
X118190000Y-60785000D03*
X118190000Y-58245000D03*
%TD*%
D31*
%TO.C,D4*%
X157500000Y-43040000D03*
D32*
X157500000Y-40500000D03*
%TD*%
D29*
%TO.C,J6*%
X80170000Y-55070000D03*
D30*
X85170000Y-55070000D03*
%TD*%
D31*
%TO.C,D6*%
X144225000Y-51895000D03*
D32*
X144225000Y-49355000D03*
%TD*%
D37*
%TO.C,C9*%
X132795000Y-53800000D03*
X130895000Y-53800000D03*
%TD*%
D38*
%TO.C,C4*%
X135335000Y-40605000D03*
X135335000Y-39055000D03*
%TD*%
D39*
%TO.C,R3*%
X116285000Y-63325000D03*
X116285000Y-64975000D03*
%TD*%
%TO.C,R2*%
X118190000Y-54055000D03*
X118190000Y-55705000D03*
%TD*%
D40*
%TO.C,C3*%
X137875000Y-40465000D03*
X137875000Y-37515000D03*
%TD*%
D41*
%TO.C,C1*%
X151845000Y-34750000D03*
X151845000Y-36300000D03*
%TD*%
D42*
%TO.C,D5*%
X128985000Y-40465000D03*
X128985000Y-33595000D03*
%TD*%
D37*
%TO.C,C5*%
X157560000Y-53800000D03*
X155660000Y-53800000D03*
%TD*%
D40*
%TO.C,C7*%
X120730000Y-40465000D03*
X120730000Y-37515000D03*
%TD*%
D38*
%TO.C,C8*%
X118190000Y-40465000D03*
X118190000Y-38915000D03*
%TD*%
D42*
%TO.C,D2*%
X105490000Y-34115000D03*
X105490000Y-27245000D03*
%TD*%
%TO.C,D3*%
X146130000Y-40465000D03*
X146130000Y-33595000D03*
%TD*%
%LPD*%
M02*
