M48
; DRILL file KiCad 10.0.3-10.0.3~ubuntu26.04.1 date 2026-06-22T17:47:26
; FORMAT={-:-/ absolute / inch / decimal}
; #@! TF.CreationDate,2026-06-22T17:47:26+09:00
; #@! TF.GenerationSoftware,Kicad,Pcbnew,10.0.3-10.0.3~ubuntu26.04.1
; #@! TF.FileFunction,Plated,1,2,PTH
FMAT,2
INCH
; #@! TA.AperFunction,Plated,PTH,ViaDrill
T1C0.0197
; #@! TA.AperFunction,Plated,PTH,ComponentDrill
T2C0.0280
; #@! TA.AperFunction,Plated,PTH,ComponentDrill
T3C0.0315
; #@! TA.AperFunction,Plated,PTH,ComponentDrill
T4C0.0354
; #@! TA.AperFunction,Plated,PTH,ComponentDrill
T5C0.0370
; #@! TA.AperFunction,Plated,PTH,ComponentDrill
T6C0.0394
; #@! TA.AperFunction,Plated,PTH,ComponentDrill
T7C0.0433
; #@! TA.AperFunction,Plated,PTH,ComponentDrill
T8C0.0472
; #@! TA.AperFunction,Plated,PTH,ComponentDrill
T9C0.0709
; #@! TA.AperFunction,Plated,PTH,ComponentDrill
T10C0.0748
; #@! TA.AperFunction,Plated,PTH,ComponentDrill
T11C0.1063
%
G90
G05
T1
X3.1496Y-1.378
X3.1496Y-1.5748
X3.1496Y-1.9685
X3.1496Y-2.3622
X3.3465Y-0.9843
X3.3465Y-2.3622
X3.3465Y-2.5591
X3.5433Y-0.9843
X3.5433Y-2.3622
X3.5433Y-2.5591
X3.7402Y-0.9843
X3.7402Y-2.5591
X3.937Y-0.9843
X3.937Y-2.3622
X3.937Y-2.5591
X4.0551Y-1.5157
X4.1339Y-2.3622
X4.1339Y-2.5591
X4.3307Y-2.1654
X4.3307Y-2.3622
X4.3307Y-2.5591
X4.5276Y-1.378
X4.5276Y-1.5748
X4.5276Y-1.7717
X4.5276Y-2.1654
X4.5276Y-2.3622
X4.5276Y-2.5591
X4.7244Y-1.378
X4.7244Y-1.9685
X4.7244Y-2.1654
X4.7244Y-2.3622
X4.7244Y-2.5591
X4.9213Y-1.378
X4.9213Y-1.7717
X4.9213Y-2.1654
X4.9213Y-2.3622
X4.9213Y-2.5591
X5.1181Y-1.7717
X5.1181Y-1.9685
X5.1181Y-2.5591
X5.315Y-1.7717
X5.315Y-1.9685
X5.315Y-2.5591
X5.5118Y-1.7717
X5.5118Y-2.1654
X5.5118Y-2.3622
X5.5118Y-2.5591
X5.7087Y-1.7717
X5.7087Y-2.1654
X5.7087Y-2.3622
X5.7087Y-2.5591
X5.9055Y-1.7717
X5.9055Y-1.9685
X5.9055Y-2.1654
X5.9055Y-2.3622
X5.9055Y-2.5591
X6.1024Y-1.7717
X6.1024Y-2.5591
X6.2992Y-0.9843
X6.2992Y-1.5748
X6.2992Y-1.7717
X6.2992Y-1.9685
X6.2992Y-2.5591
X6.4961Y-0.9843
X6.4961Y-1.1811
X6.4961Y-1.378
X6.4961Y-1.5748
X6.4961Y-1.7717
X6.4961Y-1.9685
X6.4961Y-2.3622
X6.4961Y-2.5591
X6.6929Y-1.1811
X6.6929Y-1.5748
X6.6929Y-1.7717
X6.6929Y-1.9685
X6.6929Y-2.3622
T2
X4.6531Y-2.2931
X4.6531Y-2.3931
X4.6531Y-2.4931
T3
X5.4781Y-1.9431
X5.4781Y-2.0431
X6.0008Y-1.5945
X6.0008Y-1.6945
X6.6281Y-1.1431
X6.6281Y-1.2431
T4
X5.6781Y-1.9431
X5.6781Y-2.0431
X6.2008Y-1.5945
X6.2008Y-1.6945
X6.6281Y-1.4181
X6.7281Y-1.4181
T5
X5.0281Y-2.0431
X5.1281Y-2.0431
X5.2281Y-2.0431
X6.0031Y-2.0431
X6.1031Y-2.0431
X6.2031Y-2.0431
T6
X4.3531Y-1.3681
X4.3531Y-1.4681
X4.3531Y-1.5681
X4.3531Y-1.6681
X4.3531Y-1.7681
X4.3531Y-1.8681
X4.3531Y-1.9681
X6.035Y-0.9244
X6.4681Y-0.9244
T7
X3.6797Y-2.3931
X3.7781Y-2.3931
X4.9547Y-2.4431
X5.0531Y-2.4431
X5.3547Y-2.4431
X5.4531Y-2.4431
X5.8297Y-2.4431
X5.9281Y-2.4431
X6.2297Y-2.4431
X6.3281Y-2.4431
X6.6339Y-2.0472
X6.7323Y-2.0472
T8
X4.8781Y-1.2978
X4.8781Y-1.5931
X5.5531Y-1.2978
X5.5531Y-1.5931
T9
X5.0787Y-0.9252
X5.2756Y-0.9252
X5.6693Y-0.9252
X5.8661Y-0.9252
T10
X6.1531Y-1.3181
X6.35Y-1.3181
T11
X3.1563Y-1.2431
X3.1563Y-1.6931
X3.1563Y-2.1681
X3.3531Y-1.2431
X3.3531Y-1.6931
X3.3531Y-2.1681
M30
