%TF.GenerationSoftware,KiCad,Pcbnew,10.0.3-10.0.3~ubuntu26.04.1*%
%TF.CreationDate,2026-06-22T17:48:08+09:00*%
%TF.ProjectId,PowerUnit_Servo,506f7765-7255-46e6-9974-5f536572766f,rev?*%
%TF.SameCoordinates,Original*%
%TF.FileFunction,Legend,Bot*%
%TF.FilePolarity,Positive*%
%FSLAX46Y46*%
G04 Gerber Fmt 4.6, Leading zero omitted, Abs format (unit mm)*
G04 Created by KiCad (PCBNEW 10.0.3-10.0.3~ubuntu26.04.1) date 2026-06-22 17:48:08*
%MOMM*%
%LPD*%
G01*
G04 APERTURE LIST*
G04 Aperture macros list*
%AMRoundRect*
0 Rectangle with rounded corners*
0 $1 Rounding radius*
0 $2 $3 $4 $5 $6 $7 $8 $9 X,Y pos of 4 corners*
0 Add a 4 corners polygon primitive as box body*
4,1,4,$2,$3,$4,$5,$6,$7,$8,$9,$2,$3,0*
0 Add four circle primitives for the rounded corners*
1,1,$1+$1,$2,$3*
1,1,$1+$1,$4,$5*
1,1,$1+$1,$6,$7*
1,1,$1+$1,$8,$9*
0 Add four rect primitives between the rounded corners*
20,1,$1+$1,$2,$3,$4,$5,0*
20,1,$1+$1,$4,$5,$6,$7,0*
20,1,$1+$1,$6,$7,$8,$9,0*
20,1,$1+$1,$8,$9,$2,$3,0*%
G04 Aperture macros list end*
%ADD10C,0.125000*%
%ADD11C,0.600000*%
%ADD12C,0.000000*%
%ADD13RoundRect,0.760000X1.140000X1.140000X-1.140000X1.140000X-1.140000X-1.140000X1.140000X-1.140000X0*%
%ADD14C,4.000000*%
%ADD15C,1.600000*%
%ADD16C,3.200000*%
%ADD17C,3.500000*%
%ADD18R,1.700000X1.700000*%
%ADD19C,1.700000*%
%ADD20R,1.800000X1.800000*%
%ADD21C,1.800000*%
%ADD22RoundRect,0.450000X0.950000X-0.450000X0.950000X0.450000X-0.950000X0.450000X-0.950000X-0.450000X0*%
%ADD23O,2.800000X1.800000*%
%ADD24RoundRect,0.102000X0.609000X-0.609000X0.609000X0.609000X-0.609000X0.609000X-0.609000X-0.609000X0*%
%ADD25C,1.422000*%
%ADD26R,0.900000X2.000000*%
%ADD27RoundRect,1.025000X-1.025000X-1.025000X1.025000X-1.025000X1.025000X1.025000X-1.025000X1.025000X0*%
%ADD28C,4.100000*%
%ADD29RoundRect,0.250000X-1.060660X0.000000X0.000000X-1.060660X1.060660X0.000000X0.000000X1.060660X0*%
%ADD30C,2.000000*%
%ADD31C,2.200000*%
G04 APERTURE END LIST*
D10*
X59846335Y-25347309D02*
X59703478Y-25394928D01*
X59703478Y-25394928D02*
X59655859Y-25442547D01*
X59655859Y-25442547D02*
X59608240Y-25537785D01*
X59608240Y-25537785D02*
X59608240Y-25680642D01*
X59608240Y-25680642D02*
X59655859Y-25775880D01*
X59655859Y-25775880D02*
X59703478Y-25823500D01*
X59703478Y-25823500D02*
X59798716Y-25871119D01*
X59798716Y-25871119D02*
X60179668Y-25871119D01*
X60179668Y-25871119D02*
X60179668Y-24871119D01*
X60179668Y-24871119D02*
X59846335Y-24871119D01*
X59846335Y-24871119D02*
X59751097Y-24918738D01*
X59751097Y-24918738D02*
X59703478Y-24966357D01*
X59703478Y-24966357D02*
X59655859Y-25061595D01*
X59655859Y-25061595D02*
X59655859Y-25156833D01*
X59655859Y-25156833D02*
X59703478Y-25252071D01*
X59703478Y-25252071D02*
X59751097Y-25299690D01*
X59751097Y-25299690D02*
X59846335Y-25347309D01*
X59846335Y-25347309D02*
X60179668Y-25347309D01*
X59036811Y-25871119D02*
X59132049Y-25823500D01*
X59132049Y-25823500D02*
X59179668Y-25775880D01*
X59179668Y-25775880D02*
X59227287Y-25680642D01*
X59227287Y-25680642D02*
X59227287Y-25394928D01*
X59227287Y-25394928D02*
X59179668Y-25299690D01*
X59179668Y-25299690D02*
X59132049Y-25252071D01*
X59132049Y-25252071D02*
X59036811Y-25204452D01*
X59036811Y-25204452D02*
X58893954Y-25204452D01*
X58893954Y-25204452D02*
X58798716Y-25252071D01*
X58798716Y-25252071D02*
X58751097Y-25299690D01*
X58751097Y-25299690D02*
X58703478Y-25394928D01*
X58703478Y-25394928D02*
X58703478Y-25680642D01*
X58703478Y-25680642D02*
X58751097Y-25775880D01*
X58751097Y-25775880D02*
X58798716Y-25823500D01*
X58798716Y-25823500D02*
X58893954Y-25871119D01*
X58893954Y-25871119D02*
X59036811Y-25871119D01*
X57846335Y-25871119D02*
X57846335Y-25347309D01*
X57846335Y-25347309D02*
X57893954Y-25252071D01*
X57893954Y-25252071D02*
X57989192Y-25204452D01*
X57989192Y-25204452D02*
X58179668Y-25204452D01*
X58179668Y-25204452D02*
X58274906Y-25252071D01*
X57846335Y-25823500D02*
X57941573Y-25871119D01*
X57941573Y-25871119D02*
X58179668Y-25871119D01*
X58179668Y-25871119D02*
X58274906Y-25823500D01*
X58274906Y-25823500D02*
X58322525Y-25728261D01*
X58322525Y-25728261D02*
X58322525Y-25633023D01*
X58322525Y-25633023D02*
X58274906Y-25537785D01*
X58274906Y-25537785D02*
X58179668Y-25490166D01*
X58179668Y-25490166D02*
X57941573Y-25490166D01*
X57941573Y-25490166D02*
X57846335Y-25442547D01*
X57370144Y-25871119D02*
X57370144Y-25204452D01*
X57370144Y-25394928D02*
X57322525Y-25299690D01*
X57322525Y-25299690D02*
X57274906Y-25252071D01*
X57274906Y-25252071D02*
X57179668Y-25204452D01*
X57179668Y-25204452D02*
X57084430Y-25204452D01*
X56322525Y-25871119D02*
X56322525Y-24871119D01*
X56322525Y-25823500D02*
X56417763Y-25871119D01*
X56417763Y-25871119D02*
X56608239Y-25871119D01*
X56608239Y-25871119D02*
X56703477Y-25823500D01*
X56703477Y-25823500D02*
X56751096Y-25775880D01*
X56751096Y-25775880D02*
X56798715Y-25680642D01*
X56798715Y-25680642D02*
X56798715Y-25394928D01*
X56798715Y-25394928D02*
X56751096Y-25299690D01*
X56751096Y-25299690D02*
X56703477Y-25252071D01*
X56703477Y-25252071D02*
X56608239Y-25204452D01*
X56608239Y-25204452D02*
X56417763Y-25204452D01*
X56417763Y-25204452D02*
X56322525Y-25252071D01*
X55227286Y-24871119D02*
X54655858Y-24871119D01*
X54941572Y-25871119D02*
X54941572Y-24871119D01*
X54417762Y-25204452D02*
X54179667Y-25871119D01*
X53941572Y-25204452D02*
X54179667Y-25871119D01*
X54179667Y-25871119D02*
X54274905Y-26109214D01*
X54274905Y-26109214D02*
X54322524Y-26156833D01*
X54322524Y-26156833D02*
X54417762Y-26204452D01*
X53560619Y-25204452D02*
X53560619Y-26204452D01*
X53560619Y-25252071D02*
X53465381Y-25204452D01*
X53465381Y-25204452D02*
X53274905Y-25204452D01*
X53274905Y-25204452D02*
X53179667Y-25252071D01*
X53179667Y-25252071D02*
X53132048Y-25299690D01*
X53132048Y-25299690D02*
X53084429Y-25394928D01*
X53084429Y-25394928D02*
X53084429Y-25680642D01*
X53084429Y-25680642D02*
X53132048Y-25775880D01*
X53132048Y-25775880D02*
X53179667Y-25823500D01*
X53179667Y-25823500D02*
X53274905Y-25871119D01*
X53274905Y-25871119D02*
X53465381Y-25871119D01*
X53465381Y-25871119D02*
X53560619Y-25823500D01*
X52274905Y-25823500D02*
X52370143Y-25871119D01*
X52370143Y-25871119D02*
X52560619Y-25871119D01*
X52560619Y-25871119D02*
X52655857Y-25823500D01*
X52655857Y-25823500D02*
X52703476Y-25728261D01*
X52703476Y-25728261D02*
X52703476Y-25347309D01*
X52703476Y-25347309D02*
X52655857Y-25252071D01*
X52655857Y-25252071D02*
X52560619Y-25204452D01*
X52560619Y-25204452D02*
X52370143Y-25204452D01*
X52370143Y-25204452D02*
X52274905Y-25252071D01*
X52274905Y-25252071D02*
X52227286Y-25347309D01*
X52227286Y-25347309D02*
X52227286Y-25442547D01*
X52227286Y-25442547D02*
X52703476Y-25537785D01*
X51798714Y-25775880D02*
X51751095Y-25823500D01*
X51751095Y-25823500D02*
X51798714Y-25871119D01*
X51798714Y-25871119D02*
X51846333Y-25823500D01*
X51846333Y-25823500D02*
X51798714Y-25775880D01*
X51798714Y-25775880D02*
X51798714Y-25871119D01*
X51798714Y-25252071D02*
X51751095Y-25299690D01*
X51751095Y-25299690D02*
X51798714Y-25347309D01*
X51798714Y-25347309D02*
X51846333Y-25299690D01*
X51846333Y-25299690D02*
X51798714Y-25252071D01*
X51798714Y-25252071D02*
X51798714Y-25347309D01*
X60179668Y-32151231D02*
X60179668Y-31151231D01*
X60179668Y-31151231D02*
X59941573Y-31151231D01*
X59941573Y-31151231D02*
X59798716Y-31198850D01*
X59798716Y-31198850D02*
X59703478Y-31294088D01*
X59703478Y-31294088D02*
X59655859Y-31389326D01*
X59655859Y-31389326D02*
X59608240Y-31579802D01*
X59608240Y-31579802D02*
X59608240Y-31722659D01*
X59608240Y-31722659D02*
X59655859Y-31913135D01*
X59655859Y-31913135D02*
X59703478Y-32008373D01*
X59703478Y-32008373D02*
X59798716Y-32103612D01*
X59798716Y-32103612D02*
X59941573Y-32151231D01*
X59941573Y-32151231D02*
X60179668Y-32151231D01*
X58798716Y-32103612D02*
X58893954Y-32151231D01*
X58893954Y-32151231D02*
X59084430Y-32151231D01*
X59084430Y-32151231D02*
X59179668Y-32103612D01*
X59179668Y-32103612D02*
X59227287Y-32008373D01*
X59227287Y-32008373D02*
X59227287Y-31627421D01*
X59227287Y-31627421D02*
X59179668Y-31532183D01*
X59179668Y-31532183D02*
X59084430Y-31484564D01*
X59084430Y-31484564D02*
X58893954Y-31484564D01*
X58893954Y-31484564D02*
X58798716Y-31532183D01*
X58798716Y-31532183D02*
X58751097Y-31627421D01*
X58751097Y-31627421D02*
X58751097Y-31722659D01*
X58751097Y-31722659D02*
X59227287Y-31817897D01*
X58370144Y-32103612D02*
X58274906Y-32151231D01*
X58274906Y-32151231D02*
X58084430Y-32151231D01*
X58084430Y-32151231D02*
X57989192Y-32103612D01*
X57989192Y-32103612D02*
X57941573Y-32008373D01*
X57941573Y-32008373D02*
X57941573Y-31960754D01*
X57941573Y-31960754D02*
X57989192Y-31865516D01*
X57989192Y-31865516D02*
X58084430Y-31817897D01*
X58084430Y-31817897D02*
X58227287Y-31817897D01*
X58227287Y-31817897D02*
X58322525Y-31770278D01*
X58322525Y-31770278D02*
X58370144Y-31675040D01*
X58370144Y-31675040D02*
X58370144Y-31627421D01*
X58370144Y-31627421D02*
X58322525Y-31532183D01*
X58322525Y-31532183D02*
X58227287Y-31484564D01*
X58227287Y-31484564D02*
X58084430Y-31484564D01*
X58084430Y-31484564D02*
X57989192Y-31532183D01*
X57513001Y-32151231D02*
X57513001Y-31484564D01*
X57513001Y-31151231D02*
X57560620Y-31198850D01*
X57560620Y-31198850D02*
X57513001Y-31246469D01*
X57513001Y-31246469D02*
X57465382Y-31198850D01*
X57465382Y-31198850D02*
X57513001Y-31151231D01*
X57513001Y-31151231D02*
X57513001Y-31246469D01*
X56608240Y-31484564D02*
X56608240Y-32294088D01*
X56608240Y-32294088D02*
X56655859Y-32389326D01*
X56655859Y-32389326D02*
X56703478Y-32436945D01*
X56703478Y-32436945D02*
X56798716Y-32484564D01*
X56798716Y-32484564D02*
X56941573Y-32484564D01*
X56941573Y-32484564D02*
X57036811Y-32436945D01*
X56608240Y-32103612D02*
X56703478Y-32151231D01*
X56703478Y-32151231D02*
X56893954Y-32151231D01*
X56893954Y-32151231D02*
X56989192Y-32103612D01*
X56989192Y-32103612D02*
X57036811Y-32055992D01*
X57036811Y-32055992D02*
X57084430Y-31960754D01*
X57084430Y-31960754D02*
X57084430Y-31675040D01*
X57084430Y-31675040D02*
X57036811Y-31579802D01*
X57036811Y-31579802D02*
X56989192Y-31532183D01*
X56989192Y-31532183D02*
X56893954Y-31484564D01*
X56893954Y-31484564D02*
X56703478Y-31484564D01*
X56703478Y-31484564D02*
X56608240Y-31532183D01*
X56132049Y-31484564D02*
X56132049Y-32151231D01*
X56132049Y-31579802D02*
X56084430Y-31532183D01*
X56084430Y-31532183D02*
X55989192Y-31484564D01*
X55989192Y-31484564D02*
X55846335Y-31484564D01*
X55846335Y-31484564D02*
X55751097Y-31532183D01*
X55751097Y-31532183D02*
X55703478Y-31627421D01*
X55703478Y-31627421D02*
X55703478Y-32151231D01*
X54846335Y-32103612D02*
X54941573Y-32151231D01*
X54941573Y-32151231D02*
X55132049Y-32151231D01*
X55132049Y-32151231D02*
X55227287Y-32103612D01*
X55227287Y-32103612D02*
X55274906Y-32008373D01*
X55274906Y-32008373D02*
X55274906Y-31627421D01*
X55274906Y-31627421D02*
X55227287Y-31532183D01*
X55227287Y-31532183D02*
X55132049Y-31484564D01*
X55132049Y-31484564D02*
X54941573Y-31484564D01*
X54941573Y-31484564D02*
X54846335Y-31532183D01*
X54846335Y-31532183D02*
X54798716Y-31627421D01*
X54798716Y-31627421D02*
X54798716Y-31722659D01*
X54798716Y-31722659D02*
X55274906Y-31817897D01*
X53941573Y-32151231D02*
X53941573Y-31151231D01*
X53941573Y-32103612D02*
X54036811Y-32151231D01*
X54036811Y-32151231D02*
X54227287Y-32151231D01*
X54227287Y-32151231D02*
X54322525Y-32103612D01*
X54322525Y-32103612D02*
X54370144Y-32055992D01*
X54370144Y-32055992D02*
X54417763Y-31960754D01*
X54417763Y-31960754D02*
X54417763Y-31675040D01*
X54417763Y-31675040D02*
X54370144Y-31579802D01*
X54370144Y-31579802D02*
X54322525Y-31532183D01*
X54322525Y-31532183D02*
X54227287Y-31484564D01*
X54227287Y-31484564D02*
X54036811Y-31484564D01*
X54036811Y-31484564D02*
X53941573Y-31532183D01*
X52703477Y-32151231D02*
X52703477Y-31151231D01*
X52703477Y-31532183D02*
X52608239Y-31484564D01*
X52608239Y-31484564D02*
X52417763Y-31484564D01*
X52417763Y-31484564D02*
X52322525Y-31532183D01*
X52322525Y-31532183D02*
X52274906Y-31579802D01*
X52274906Y-31579802D02*
X52227287Y-31675040D01*
X52227287Y-31675040D02*
X52227287Y-31960754D01*
X52227287Y-31960754D02*
X52274906Y-32055992D01*
X52274906Y-32055992D02*
X52322525Y-32103612D01*
X52322525Y-32103612D02*
X52417763Y-32151231D01*
X52417763Y-32151231D02*
X52608239Y-32151231D01*
X52608239Y-32151231D02*
X52703477Y-32103612D01*
X51893953Y-31484564D02*
X51655858Y-32151231D01*
X51417763Y-31484564D02*
X51655858Y-32151231D01*
X51655858Y-32151231D02*
X51751096Y-32389326D01*
X51751096Y-32389326D02*
X51798715Y-32436945D01*
X51798715Y-32436945D02*
X51893953Y-32484564D01*
X50274905Y-31627421D02*
X49941572Y-31627421D01*
X49798715Y-32151231D02*
X50274905Y-32151231D01*
X50274905Y-32151231D02*
X50274905Y-31151231D01*
X50274905Y-31151231D02*
X49798715Y-31151231D01*
X49370143Y-32055992D02*
X49322524Y-32103612D01*
X49322524Y-32103612D02*
X49370143Y-32151231D01*
X49370143Y-32151231D02*
X49417762Y-32103612D01*
X49417762Y-32103612D02*
X49370143Y-32055992D01*
X49370143Y-32055992D02*
X49370143Y-32151231D01*
X48703477Y-31675040D02*
X48703477Y-32151231D01*
X49036810Y-31151231D02*
X48703477Y-31675040D01*
X48703477Y-31675040D02*
X48370144Y-31151231D01*
X47893953Y-32151231D02*
X47989191Y-32103612D01*
X47989191Y-32103612D02*
X48036810Y-32055992D01*
X48036810Y-32055992D02*
X48084429Y-31960754D01*
X48084429Y-31960754D02*
X48084429Y-31675040D01*
X48084429Y-31675040D02*
X48036810Y-31579802D01*
X48036810Y-31579802D02*
X47989191Y-31532183D01*
X47989191Y-31532183D02*
X47893953Y-31484564D01*
X47893953Y-31484564D02*
X47751096Y-31484564D01*
X47751096Y-31484564D02*
X47655858Y-31532183D01*
X47655858Y-31532183D02*
X47608239Y-31579802D01*
X47608239Y-31579802D02*
X47560620Y-31675040D01*
X47560620Y-31675040D02*
X47560620Y-31960754D01*
X47560620Y-31960754D02*
X47608239Y-32055992D01*
X47608239Y-32055992D02*
X47655858Y-32103612D01*
X47655858Y-32103612D02*
X47751096Y-32151231D01*
X47751096Y-32151231D02*
X47893953Y-32151231D01*
X47179667Y-32103612D02*
X47084429Y-32151231D01*
X47084429Y-32151231D02*
X46893953Y-32151231D01*
X46893953Y-32151231D02*
X46798715Y-32103612D01*
X46798715Y-32103612D02*
X46751096Y-32008373D01*
X46751096Y-32008373D02*
X46751096Y-31960754D01*
X46751096Y-31960754D02*
X46798715Y-31865516D01*
X46798715Y-31865516D02*
X46893953Y-31817897D01*
X46893953Y-31817897D02*
X47036810Y-31817897D01*
X47036810Y-31817897D02*
X47132048Y-31770278D01*
X47132048Y-31770278D02*
X47179667Y-31675040D01*
X47179667Y-31675040D02*
X47179667Y-31627421D01*
X47179667Y-31627421D02*
X47132048Y-31532183D01*
X47132048Y-31532183D02*
X47036810Y-31484564D01*
X47036810Y-31484564D02*
X46893953Y-31484564D01*
X46893953Y-31484564D02*
X46798715Y-31532183D01*
X46322524Y-32151231D02*
X46322524Y-31151231D01*
X45893953Y-32151231D02*
X45893953Y-31627421D01*
X45893953Y-31627421D02*
X45941572Y-31532183D01*
X45941572Y-31532183D02*
X46036810Y-31484564D01*
X46036810Y-31484564D02*
X46179667Y-31484564D01*
X46179667Y-31484564D02*
X46274905Y-31532183D01*
X46274905Y-31532183D02*
X46322524Y-31579802D01*
X45417762Y-32151231D02*
X45417762Y-31484564D01*
X45417762Y-31151231D02*
X45465381Y-31198850D01*
X45465381Y-31198850D02*
X45417762Y-31246469D01*
X45417762Y-31246469D02*
X45370143Y-31198850D01*
X45370143Y-31198850D02*
X45417762Y-31151231D01*
X45417762Y-31151231D02*
X45417762Y-31246469D01*
X44798715Y-32151231D02*
X44893953Y-32103612D01*
X44893953Y-32103612D02*
X44941572Y-32055992D01*
X44941572Y-32055992D02*
X44989191Y-31960754D01*
X44989191Y-31960754D02*
X44989191Y-31675040D01*
X44989191Y-31675040D02*
X44941572Y-31579802D01*
X44941572Y-31579802D02*
X44893953Y-31532183D01*
X44893953Y-31532183D02*
X44798715Y-31484564D01*
X44798715Y-31484564D02*
X44655858Y-31484564D01*
X44655858Y-31484564D02*
X44560620Y-31532183D01*
X44560620Y-31532183D02*
X44513001Y-31579802D01*
X44513001Y-31579802D02*
X44465382Y-31675040D01*
X44465382Y-31675040D02*
X44465382Y-31960754D01*
X44465382Y-31960754D02*
X44513001Y-32055992D01*
X44513001Y-32055992D02*
X44560620Y-32103612D01*
X44560620Y-32103612D02*
X44655858Y-32151231D01*
X44655858Y-32151231D02*
X44798715Y-32151231D01*
X44036810Y-32151231D02*
X44036810Y-31151231D01*
X43941572Y-31770278D02*
X43655858Y-32151231D01*
X43655858Y-31484564D02*
X44036810Y-31865516D01*
X42798715Y-32151231D02*
X42798715Y-31627421D01*
X42798715Y-31627421D02*
X42846334Y-31532183D01*
X42846334Y-31532183D02*
X42941572Y-31484564D01*
X42941572Y-31484564D02*
X43132048Y-31484564D01*
X43132048Y-31484564D02*
X43227286Y-31532183D01*
X42798715Y-32103612D02*
X42893953Y-32151231D01*
X42893953Y-32151231D02*
X43132048Y-32151231D01*
X43132048Y-32151231D02*
X43227286Y-32103612D01*
X43227286Y-32103612D02*
X43274905Y-32008373D01*
X43274905Y-32008373D02*
X43274905Y-31913135D01*
X43274905Y-31913135D02*
X43227286Y-31817897D01*
X43227286Y-31817897D02*
X43132048Y-31770278D01*
X43132048Y-31770278D02*
X42893953Y-31770278D01*
X42893953Y-31770278D02*
X42798715Y-31722659D01*
X60274906Y-34704452D02*
X60036811Y-35371119D01*
X60036811Y-35371119D02*
X59798716Y-34704452D01*
X59036811Y-35323500D02*
X59132049Y-35371119D01*
X59132049Y-35371119D02*
X59322525Y-35371119D01*
X59322525Y-35371119D02*
X59417763Y-35323500D01*
X59417763Y-35323500D02*
X59465382Y-35228261D01*
X59465382Y-35228261D02*
X59465382Y-34847309D01*
X59465382Y-34847309D02*
X59417763Y-34752071D01*
X59417763Y-34752071D02*
X59322525Y-34704452D01*
X59322525Y-34704452D02*
X59132049Y-34704452D01*
X59132049Y-34704452D02*
X59036811Y-34752071D01*
X59036811Y-34752071D02*
X58989192Y-34847309D01*
X58989192Y-34847309D02*
X58989192Y-34942547D01*
X58989192Y-34942547D02*
X59465382Y-35037785D01*
X58560620Y-35371119D02*
X58560620Y-34704452D01*
X58560620Y-34894928D02*
X58513001Y-34799690D01*
X58513001Y-34799690D02*
X58465382Y-34752071D01*
X58465382Y-34752071D02*
X58370144Y-34704452D01*
X58370144Y-34704452D02*
X58274906Y-34704452D01*
X56655858Y-35371119D02*
X57227286Y-35371119D01*
X56941572Y-35371119D02*
X56941572Y-34371119D01*
X56941572Y-34371119D02*
X57036810Y-34513976D01*
X57036810Y-34513976D02*
X57132048Y-34609214D01*
X57132048Y-34609214D02*
X57227286Y-34656833D01*
X56227286Y-35275880D02*
X56179667Y-35323500D01*
X56179667Y-35323500D02*
X56227286Y-35371119D01*
X56227286Y-35371119D02*
X56274905Y-35323500D01*
X56274905Y-35323500D02*
X56227286Y-35275880D01*
X56227286Y-35275880D02*
X56227286Y-35371119D01*
X55560620Y-34371119D02*
X55465382Y-34371119D01*
X55465382Y-34371119D02*
X55370144Y-34418738D01*
X55370144Y-34418738D02*
X55322525Y-34466357D01*
X55322525Y-34466357D02*
X55274906Y-34561595D01*
X55274906Y-34561595D02*
X55227287Y-34752071D01*
X55227287Y-34752071D02*
X55227287Y-34990166D01*
X55227287Y-34990166D02*
X55274906Y-35180642D01*
X55274906Y-35180642D02*
X55322525Y-35275880D01*
X55322525Y-35275880D02*
X55370144Y-35323500D01*
X55370144Y-35323500D02*
X55465382Y-35371119D01*
X55465382Y-35371119D02*
X55560620Y-35371119D01*
X55560620Y-35371119D02*
X55655858Y-35323500D01*
X55655858Y-35323500D02*
X55703477Y-35275880D01*
X55703477Y-35275880D02*
X55751096Y-35180642D01*
X55751096Y-35180642D02*
X55798715Y-34990166D01*
X55798715Y-34990166D02*
X55798715Y-34752071D01*
X55798715Y-34752071D02*
X55751096Y-34561595D01*
X55751096Y-34561595D02*
X55703477Y-34466357D01*
X55703477Y-34466357D02*
X55655858Y-34418738D01*
X55655858Y-34418738D02*
X55560620Y-34371119D01*
D11*
G36*
X51905148Y-27894870D02*
G01*
X51996135Y-27925990D01*
X52074332Y-27977515D01*
X52137552Y-28048906D01*
X52185022Y-28135930D01*
X52220533Y-28243811D01*
X52240879Y-28361851D01*
X52248194Y-28503197D01*
X52242334Y-28635645D01*
X52225662Y-28752325D01*
X52195441Y-28860759D01*
X52152939Y-28950162D01*
X52093751Y-29024782D01*
X52016652Y-29080404D01*
X51923881Y-29114234D01*
X51803428Y-29126566D01*
X51691870Y-29115551D01*
X51600645Y-29084617D01*
X51522360Y-29033153D01*
X51459228Y-28962618D01*
X51412042Y-28876364D01*
X51377346Y-28768811D01*
X51357675Y-28650649D01*
X51350601Y-28509242D01*
X51356224Y-28376924D01*
X51372217Y-28260298D01*
X51401859Y-28151807D01*
X51444940Y-28062278D01*
X51504658Y-27987360D01*
X51581228Y-27931120D01*
X51673372Y-27896551D01*
X51795368Y-27883859D01*
X51905148Y-27894870D01*
G37*
G36*
X57537924Y-27846700D02*
G01*
X57615064Y-27874150D01*
X57681867Y-27917972D01*
X57735964Y-27974351D01*
X57777958Y-28041940D01*
X57809787Y-28123094D01*
X57829878Y-28210743D01*
X57839462Y-28305910D01*
X57068998Y-28305910D01*
X57077081Y-28162524D01*
X57107127Y-28050137D01*
X57156010Y-27962077D01*
X57226815Y-27894317D01*
X57320323Y-27852228D01*
X57443972Y-27836964D01*
X57537924Y-27846700D01*
G37*
G36*
X60704189Y-29870227D02*
G01*
X50486407Y-29870227D01*
X50486407Y-28486711D01*
X50819740Y-28486711D01*
X50821319Y-28509242D01*
X50835686Y-28714217D01*
X50881289Y-28913525D01*
X50959468Y-29094463D01*
X51067768Y-29245635D01*
X51207036Y-29368089D01*
X51381376Y-29461057D01*
X51579742Y-29516882D01*
X51821929Y-29536894D01*
X52056283Y-29518961D01*
X52246179Y-29469300D01*
X52412793Y-29385056D01*
X52545315Y-29272379D01*
X52647552Y-29130481D01*
X52721536Y-28954375D01*
X52763777Y-28758008D01*
X52778872Y-28523714D01*
X52762712Y-28296131D01*
X52716407Y-28095983D01*
X52637307Y-27914252D01*
X52529012Y-27763874D01*
X52389830Y-27642114D01*
X52289803Y-27588752D01*
X52931830Y-27588752D01*
X52932929Y-27613299D01*
X52936959Y-27645172D01*
X52945202Y-27685106D01*
X52958391Y-27736214D01*
X53507754Y-29391081D01*
X53535415Y-29447501D01*
X53592751Y-29481207D01*
X53701378Y-29497510D01*
X53880713Y-29501723D01*
X54058033Y-29496594D01*
X54165744Y-29479192D01*
X54221981Y-29445486D01*
X54249642Y-29391081D01*
X54791345Y-27758745D01*
X54970097Y-27758745D01*
X54974310Y-27878913D01*
X54986584Y-27952185D01*
X55008016Y-27989005D01*
X55041905Y-27999263D01*
X55078724Y-27992119D01*
X55124886Y-27976732D01*
X55181123Y-27961345D01*
X55248717Y-27954200D01*
X55334813Y-27971786D01*
X55424023Y-28026741D01*
X55520376Y-28126392D01*
X55627904Y-28279715D01*
X55627904Y-29419658D01*
X55640177Y-29455561D01*
X55682309Y-29481207D01*
X55761261Y-29496594D01*
X55886008Y-29501723D01*
X56011121Y-29496594D01*
X56090073Y-29481207D01*
X56132021Y-29455561D01*
X56144295Y-29419658D01*
X56144295Y-28368009D01*
X56568911Y-28368009D01*
X56568911Y-28449891D01*
X56580662Y-28535651D01*
X56611043Y-28589110D01*
X56659563Y-28622372D01*
X56726631Y-28634173D01*
X57839462Y-28634173D01*
X57832257Y-28749101D01*
X57811802Y-28848679D01*
X57775400Y-28938666D01*
X57723691Y-29012260D01*
X57655663Y-29070777D01*
X57567986Y-29114842D01*
X57467232Y-29140589D01*
X57339375Y-29150013D01*
X57208318Y-29144673D01*
X57101788Y-29130047D01*
X56924467Y-29085533D01*
X56800636Y-29041203D01*
X56720586Y-29021053D01*
X56689811Y-29028381D01*
X56669478Y-29054209D01*
X56658121Y-29106966D01*
X56655006Y-29192695D01*
X56657021Y-29270364D01*
X56663250Y-29325136D01*
X56675523Y-29363421D01*
X56697138Y-29393463D01*
X56769862Y-29432114D01*
X56921536Y-29479558D01*
X57132562Y-29519675D01*
X57386636Y-29536894D01*
X57621710Y-29520580D01*
X57814000Y-29475345D01*
X57984098Y-29396777D01*
X58120280Y-29288682D01*
X58226079Y-29149746D01*
X58303646Y-28972876D01*
X58347994Y-28772929D01*
X58353035Y-28695539D01*
X58639235Y-28695539D01*
X58659544Y-28895521D01*
X58717088Y-29062086D01*
X58809239Y-29207143D01*
X58928297Y-29325136D01*
X59070997Y-29416571D01*
X59239706Y-29483771D01*
X59422092Y-29523328D01*
X59620908Y-29536894D01*
X59755494Y-29531256D01*
X59876081Y-29515095D01*
X60083993Y-29463072D01*
X60234569Y-29398958D01*
X60321763Y-29339790D01*
X60343690Y-29309608D01*
X60359682Y-29263770D01*
X60370856Y-29118506D01*
X60366826Y-29011528D01*
X60353454Y-28941552D01*
X60328907Y-28903450D01*
X60293004Y-28892093D01*
X60262449Y-28898741D01*
X60212037Y-28925066D01*
X60077948Y-28997606D01*
X59882126Y-29070329D01*
X59763393Y-29094415D01*
X59618710Y-29103119D01*
X59523334Y-29096969D01*
X59442489Y-29079672D01*
X59369216Y-29050513D01*
X59310415Y-29012993D01*
X59262478Y-28964876D01*
X59227433Y-28906564D01*
X59206059Y-28840382D01*
X59198674Y-28765148D01*
X59211321Y-28680411D01*
X59247950Y-28610542D01*
X59303367Y-28550658D01*
X59375994Y-28495870D01*
X59555329Y-28401714D01*
X59762325Y-28308658D01*
X59969321Y-28197100D01*
X60064414Y-28128442D01*
X60148656Y-28047623D01*
X60219340Y-27953829D01*
X60276700Y-27841910D01*
X60312707Y-27715925D01*
X60325793Y-27557245D01*
X60307352Y-27374748D01*
X60255085Y-27222571D01*
X60171534Y-27089781D01*
X60064576Y-26982969D01*
X59935630Y-26900644D01*
X59781742Y-26840636D01*
X59615400Y-26805533D01*
X59436444Y-26793558D01*
X59247950Y-26807663D01*
X59071728Y-26845582D01*
X58926099Y-26899621D01*
X58842201Y-26949446D01*
X58814541Y-26983885D01*
X58802084Y-27021987D01*
X58794940Y-27081704D01*
X58792925Y-27171097D01*
X58796039Y-27272030D01*
X58806297Y-27339991D01*
X58826814Y-27379192D01*
X58862534Y-27391465D01*
X58934342Y-27363621D01*
X59055242Y-27302622D01*
X59221388Y-27242721D01*
X59318367Y-27222626D01*
X59428201Y-27215610D01*
X59513104Y-27221313D01*
X59581891Y-27237042D01*
X59643301Y-27263008D01*
X59691617Y-27295844D01*
X59730050Y-27337275D01*
X59757196Y-27386153D01*
X59778628Y-27497894D01*
X59766308Y-27580965D01*
X59730451Y-27650484D01*
X59675435Y-27710182D01*
X59601308Y-27765157D01*
X59417943Y-27859312D01*
X59208932Y-27952369D01*
X58999921Y-28063927D01*
X58902986Y-28132667D01*
X58817655Y-28213403D01*
X58745944Y-28307158D01*
X58688511Y-28418201D01*
X58652271Y-28542369D01*
X58639235Y-28695539D01*
X58353035Y-28695539D01*
X58364096Y-28525729D01*
X58347517Y-28289074D01*
X58300532Y-28085908D01*
X58221228Y-27902311D01*
X58116067Y-27753616D01*
X57982609Y-27633661D01*
X57822060Y-27545338D01*
X57641497Y-27492148D01*
X57431699Y-27473531D01*
X57212202Y-27491596D01*
X57039323Y-27541125D01*
X56889218Y-27622985D01*
X56771877Y-27728520D01*
X56681845Y-27857907D01*
X56618187Y-28011903D01*
X56581590Y-28180228D01*
X56573104Y-28305910D01*
X56568911Y-28368009D01*
X56144295Y-28368009D01*
X56144295Y-27590767D01*
X56134036Y-27554863D01*
X56097217Y-27529218D01*
X56028524Y-27513831D01*
X55923011Y-27508702D01*
X55814384Y-27513831D01*
X55747889Y-27529218D01*
X55714000Y-27554863D01*
X55703742Y-27590767D01*
X55703742Y-27818279D01*
X55568553Y-27649019D01*
X55447653Y-27543323D01*
X55332798Y-27488918D01*
X55218126Y-27473531D01*
X55160790Y-27476645D01*
X55097226Y-27486720D01*
X55039890Y-27503023D01*
X55003986Y-27522440D01*
X54987500Y-27544788D01*
X54978340Y-27578494D01*
X54972112Y-27642608D01*
X54970097Y-27758745D01*
X54791345Y-27758745D01*
X54798822Y-27736214D01*
X54818422Y-27662575D01*
X54826666Y-27615314D01*
X54827581Y-27588752D01*
X54816407Y-27552848D01*
X54776474Y-27527203D01*
X54697522Y-27512915D01*
X54571493Y-27508702D01*
X54436121Y-27513831D01*
X54355155Y-27528302D01*
X54313206Y-27554863D01*
X54292690Y-27596812D01*
X53876683Y-28939904D01*
X53864410Y-28991195D01*
X53852137Y-28939904D01*
X53442175Y-27596812D01*
X53422758Y-27554863D01*
X53380809Y-27528302D01*
X53303872Y-27513831D01*
X53177843Y-27508702D01*
X53053829Y-27512915D01*
X52979091Y-27527203D01*
X52942088Y-27552848D01*
X52931830Y-27588752D01*
X52289803Y-27588752D01*
X52216320Y-27549551D01*
X52018742Y-27493611D01*
X51776683Y-27473531D01*
X51540518Y-27491273D01*
X51350601Y-27540209D01*
X51184084Y-27623700D01*
X51052381Y-27736214D01*
X50950872Y-27877889D01*
X50877076Y-28054035D01*
X50834869Y-28250633D01*
X50819740Y-28486711D01*
X50486407Y-28486711D01*
X50486407Y-26460225D01*
X60704189Y-26460225D01*
X60704189Y-29870227D01*
G37*
D12*
%TO.C,G\u002A\u002A\u002A*%
G36*
X31415208Y-30595496D02*
G01*
X31454398Y-30625972D01*
X31364056Y-30646649D01*
X31278182Y-30640662D01*
X31252931Y-30602180D01*
X31282885Y-30585403D01*
X31415208Y-30595496D01*
G37*
G36*
X29493015Y-26231857D02*
G01*
X29524704Y-26428751D01*
X29536667Y-26716333D01*
X29526535Y-26982927D01*
X29496244Y-27188909D01*
X29452000Y-27266667D01*
X29410986Y-27200809D01*
X29379296Y-27003915D01*
X29367333Y-26716333D01*
X29377465Y-26449740D01*
X29407757Y-26243757D01*
X29452000Y-26166000D01*
X29493015Y-26231857D01*
G37*
G36*
X29748663Y-29843344D02*
G01*
X29930752Y-29949515D01*
X30072340Y-30114360D01*
X30129333Y-30314667D01*
X30129335Y-30321993D01*
X30122649Y-30432627D01*
X30076339Y-30471748D01*
X29951123Y-30442446D01*
X29707714Y-30347807D01*
X29583494Y-30296123D01*
X29421165Y-30202695D01*
X29376253Y-30098291D01*
X29418725Y-29940591D01*
X29439349Y-29899862D01*
X29570165Y-29819056D01*
X29748663Y-29843344D01*
G37*
G36*
X26815063Y-26928246D02*
G01*
X26905666Y-26996659D01*
X27058359Y-27157218D01*
X27238107Y-27367415D01*
X27409876Y-27584739D01*
X27538630Y-27766681D01*
X27589333Y-27870731D01*
X27575266Y-27929601D01*
X27496209Y-27914998D01*
X27341069Y-27769060D01*
X27102500Y-27485982D01*
X27083849Y-27462624D01*
X26877710Y-27195766D01*
X26771367Y-27032358D01*
X26753393Y-26950427D01*
X26812362Y-26928000D01*
X26815063Y-26928246D01*
G37*
G36*
X35921472Y-25482419D02*
G01*
X36047472Y-25632852D01*
X36112154Y-25853267D01*
X36052628Y-26043063D01*
X35908556Y-26140263D01*
X35722319Y-26157954D01*
X35586852Y-26075700D01*
X35557344Y-25976175D01*
X35623214Y-25930964D01*
X35756619Y-25994137D01*
X35762051Y-25998615D01*
X35871420Y-26053167D01*
X35937057Y-25963869D01*
X35962504Y-25755885D01*
X35873807Y-25627581D01*
X35696584Y-25618915D01*
X35596966Y-25646587D01*
X35556514Y-25633021D01*
X35649584Y-25526193D01*
X35676059Y-25499467D01*
X35799857Y-25424817D01*
X35921472Y-25482419D01*
G37*
G36*
X36008213Y-31453372D02*
G01*
X36049595Y-31562514D01*
X36056000Y-31796333D01*
X36054564Y-31940069D01*
X36032165Y-32102519D01*
X35958189Y-32166289D01*
X35802000Y-32177333D01*
X35798840Y-32177327D01*
X35621573Y-32152114D01*
X35548000Y-32092667D01*
X35579753Y-32043456D01*
X35717333Y-32008000D01*
X35815754Y-31992123D01*
X35886667Y-31923333D01*
X35872339Y-31884384D01*
X35759667Y-31838667D01*
X35701243Y-31829114D01*
X35632667Y-31754000D01*
X35646995Y-31715051D01*
X35759667Y-31669333D01*
X35796810Y-31667288D01*
X35883163Y-31617790D01*
X35844404Y-31537779D01*
X35696167Y-31475085D01*
X35633352Y-31460795D01*
X35625233Y-31439833D01*
X35780833Y-31426863D01*
X35898602Y-31424261D01*
X36008213Y-31453372D01*
G37*
G36*
X41898000Y-27653290D02*
G01*
X41896809Y-27774667D01*
X41896523Y-27803869D01*
X41875470Y-27962767D01*
X41807469Y-28018428D01*
X41665167Y-28013124D01*
X41635350Y-28009383D01*
X41500340Y-27967000D01*
X41435247Y-27856186D01*
X41424973Y-27774667D01*
X41559333Y-27774667D01*
X41561794Y-27794904D01*
X41644000Y-27859333D01*
X41664238Y-27856873D01*
X41728667Y-27774667D01*
X41726207Y-27754429D01*
X41644000Y-27690000D01*
X41623763Y-27692460D01*
X41559333Y-27774667D01*
X41424973Y-27774667D01*
X41406299Y-27626500D01*
X41398114Y-27499135D01*
X41399046Y-27483330D01*
X41559333Y-27483330D01*
X41561535Y-27491780D01*
X41644000Y-27520667D01*
X41667206Y-27517221D01*
X41728667Y-27431003D01*
X41722019Y-27400379D01*
X41644000Y-27393667D01*
X41618662Y-27411044D01*
X41559333Y-27483330D01*
X41399046Y-27483330D01*
X41407578Y-27338604D01*
X41477764Y-27276805D01*
X41639132Y-27266667D01*
X41743734Y-27269151D01*
X41849820Y-27304008D01*
X41891051Y-27416834D01*
X41891467Y-27431003D01*
X41898000Y-27653290D01*
G37*
G36*
X33420306Y-35017780D02*
G01*
X33334962Y-35422876D01*
X33122848Y-35771542D01*
X32796333Y-36024423D01*
X32597675Y-36104551D01*
X32208443Y-36150377D01*
X31850729Y-36061423D01*
X31546013Y-35860767D01*
X31315774Y-35571483D01*
X31181493Y-35216649D01*
X31171274Y-34975591D01*
X31767448Y-34975591D01*
X31828983Y-35224492D01*
X32020513Y-35438975D01*
X32059381Y-35466114D01*
X32196443Y-35545481D01*
X32312441Y-35541329D01*
X32493314Y-35456918D01*
X32609522Y-35381085D01*
X32767698Y-35168618D01*
X32805544Y-34926388D01*
X32732183Y-34698616D01*
X32556738Y-34529524D01*
X32288333Y-34463333D01*
X32241284Y-34465091D01*
X31985751Y-34551619D01*
X31823755Y-34736543D01*
X31767448Y-34975591D01*
X31171274Y-34975591D01*
X31164650Y-34819340D01*
X31286724Y-34402633D01*
X31384627Y-34235599D01*
X31663536Y-33967239D01*
X32007326Y-33819210D01*
X32379414Y-33791140D01*
X32743213Y-33882660D01*
X33062137Y-34093400D01*
X33299603Y-34422990D01*
X33366512Y-34595610D01*
X33408661Y-34926388D01*
X33420306Y-35017780D01*
G37*
G36*
X29048085Y-26647465D02*
G01*
X29142796Y-26860601D01*
X29206808Y-27068057D01*
X29222026Y-27247850D01*
X29182153Y-27326712D01*
X29101714Y-27281974D01*
X28995228Y-27090965D01*
X28872853Y-26801000D01*
X28844927Y-27134528D01*
X28838802Y-27204594D01*
X28813474Y-27371349D01*
X28766824Y-27402691D01*
X28675124Y-27325272D01*
X28643339Y-27295686D01*
X28506542Y-27229795D01*
X28322208Y-27252806D01*
X28044069Y-27367840D01*
X27928213Y-27456694D01*
X27908741Y-27625498D01*
X27918378Y-27740144D01*
X27839622Y-27759318D01*
X27744554Y-27669201D01*
X27662339Y-27484886D01*
X27588644Y-27295749D01*
X27461707Y-27096641D01*
X27382579Y-26969184D01*
X27411895Y-26890011D01*
X27534303Y-26894306D01*
X27714511Y-26996106D01*
X27857707Y-27089415D01*
X28021115Y-27117089D01*
X28260300Y-27069778D01*
X28315114Y-27054196D01*
X28538013Y-26949585D01*
X28622773Y-26805670D01*
X28648468Y-26708467D01*
X28698154Y-26674000D01*
X28749093Y-26679319D01*
X28875897Y-26610720D01*
X28887703Y-26601237D01*
X28972599Y-26569947D01*
X29048085Y-26647465D01*
G37*
G36*
X34256769Y-34816494D02*
G01*
X34266139Y-34991573D01*
X34197811Y-35564179D01*
X33980496Y-36069458D01*
X33624082Y-36489801D01*
X33138460Y-36807598D01*
X32991339Y-36870481D01*
X32454946Y-36990661D01*
X31917304Y-36957967D01*
X31408449Y-36781542D01*
X30958415Y-36470528D01*
X30597238Y-36034068D01*
X30462540Y-35796220D01*
X30384692Y-35582915D01*
X30350105Y-35332064D01*
X30343361Y-34997716D01*
X30565956Y-34997716D01*
X30574249Y-35277602D01*
X30639797Y-35521549D01*
X30780900Y-35818000D01*
X30933697Y-36076225D01*
X31150285Y-36318427D01*
X31445244Y-36514522D01*
X31856256Y-36681854D01*
X32355312Y-36743806D01*
X32832095Y-36664615D01*
X33260639Y-36457623D01*
X33614981Y-36136170D01*
X33869157Y-35713599D01*
X33997201Y-35203250D01*
X34002683Y-34759788D01*
X33886820Y-34236051D01*
X33642448Y-33802291D01*
X33282793Y-33473893D01*
X32821081Y-33266243D01*
X32270540Y-33194726D01*
X31742940Y-33269407D01*
X31289652Y-33484933D01*
X30934044Y-33826662D01*
X30691277Y-34279960D01*
X30576510Y-34830190D01*
X30565956Y-34997716D01*
X30343361Y-34997716D01*
X30342963Y-34977973D01*
X30343245Y-34930332D01*
X30362899Y-34538019D01*
X30421516Y-34243775D01*
X30531005Y-33984689D01*
X30614441Y-33841655D01*
X30962012Y-33436208D01*
X31389017Y-33151393D01*
X31867184Y-32987260D01*
X32368237Y-32943859D01*
X32863905Y-33021239D01*
X33325912Y-33219450D01*
X33725985Y-33538540D01*
X34035850Y-33978560D01*
X34100258Y-34130452D01*
X34198801Y-34469998D01*
X34247282Y-34759788D01*
X34256769Y-34816494D01*
G37*
G36*
X30044667Y-34759667D02*
G01*
X30044667Y-35515458D01*
X30044667Y-36664667D01*
X29066796Y-36664667D01*
X28639212Y-36659040D01*
X28227281Y-36630028D01*
X27932782Y-36566517D01*
X27727107Y-36457703D01*
X27581648Y-36292788D01*
X27467799Y-36060970D01*
X27449966Y-36014055D01*
X27372700Y-35605174D01*
X28049712Y-35605174D01*
X28132293Y-35840693D01*
X28325240Y-35993508D01*
X28543851Y-36044131D01*
X28890381Y-36058336D01*
X29219167Y-36013637D01*
X29227843Y-36011193D01*
X29313320Y-35947111D01*
X29355826Y-35795285D01*
X29367333Y-35515458D01*
X29367333Y-35056000D01*
X28818952Y-35056000D01*
X28562961Y-35060326D01*
X28356092Y-35085789D01*
X28230612Y-35147077D01*
X28137755Y-35258701D01*
X28092012Y-35343839D01*
X28049712Y-35605174D01*
X27372700Y-35605174D01*
X27369305Y-35587209D01*
X27431400Y-35187021D01*
X27630891Y-34853171D01*
X27828688Y-34639745D01*
X27661338Y-34318706D01*
X27594085Y-34167431D01*
X27548089Y-33907364D01*
X28182000Y-33907364D01*
X28217206Y-34143949D01*
X28345767Y-34291021D01*
X28422107Y-34319361D01*
X28657553Y-34361917D01*
X28942859Y-34378667D01*
X29376183Y-34378667D01*
X29350591Y-33934167D01*
X29325000Y-33489667D01*
X28901667Y-33491855D01*
X28808255Y-33492908D01*
X28487672Y-33515285D01*
X28297145Y-33579863D01*
X28205609Y-33704577D01*
X28182000Y-33907364D01*
X27548089Y-33907364D01*
X27523675Y-33769323D01*
X27606884Y-33399507D01*
X27839442Y-33087500D01*
X27919942Y-33017885D01*
X28033912Y-32940481D01*
X28169112Y-32892449D01*
X28362566Y-32866797D01*
X28651299Y-32856534D01*
X29072336Y-32854667D01*
X30044667Y-32854667D01*
X30044667Y-34378667D01*
X30044667Y-34759667D01*
G37*
G36*
X27135674Y-34994154D02*
G01*
X27039000Y-35110049D01*
X26944804Y-35195681D01*
X26918336Y-35366688D01*
X27000720Y-35534187D01*
X27047973Y-35671698D01*
X26989230Y-35850765D01*
X26851190Y-36008495D01*
X26667632Y-36088656D01*
X26504852Y-36143429D01*
X26419254Y-36305019D01*
X26329418Y-36496935D01*
X26126721Y-36617406D01*
X25862361Y-36616950D01*
X25684216Y-36613352D01*
X25561311Y-36741901D01*
X25461406Y-36854614D01*
X25218667Y-36918667D01*
X25045407Y-36890458D01*
X24876022Y-36741901D01*
X24760947Y-36616601D01*
X24574973Y-36616950D01*
X24332412Y-36622681D01*
X24122235Y-36511891D01*
X24018080Y-36305019D01*
X23956450Y-36164309D01*
X23769702Y-36088656D01*
X23596239Y-36016073D01*
X23454504Y-35861420D01*
X23390036Y-35682047D01*
X23436613Y-35534187D01*
X23504150Y-35433103D01*
X23502291Y-35241176D01*
X23356000Y-35075649D01*
X23309699Y-35034067D01*
X23226298Y-34879026D01*
X23216109Y-34836215D01*
X24428445Y-34836215D01*
X24434960Y-35007897D01*
X24493383Y-35250022D01*
X24633056Y-35440080D01*
X24686879Y-35490315D01*
X25003343Y-35670606D01*
X25333469Y-35694971D01*
X25643459Y-35567370D01*
X25899513Y-35291759D01*
X25953168Y-35194719D01*
X26039417Y-34840787D01*
X25963110Y-34496621D01*
X25728272Y-34188167D01*
X25631541Y-34109287D01*
X25322762Y-33968985D01*
X25012089Y-33997914D01*
X24697891Y-34196084D01*
X24526005Y-34376947D01*
X24447123Y-34563622D01*
X24428445Y-34836215D01*
X23216109Y-34836215D01*
X23181392Y-34690354D01*
X23185756Y-34530530D01*
X23250167Y-34462037D01*
X23364884Y-34440078D01*
X23476534Y-34320633D01*
X23445640Y-34133959D01*
X23411640Y-34029644D01*
X23447067Y-33815700D01*
X23589829Y-33644427D01*
X23802606Y-33574333D01*
X23944834Y-33536174D01*
X23966528Y-33395736D01*
X23996852Y-33229050D01*
X24139820Y-33075083D01*
X24343235Y-33001529D01*
X24548457Y-33043847D01*
X24625663Y-33085400D01*
X24742584Y-33089280D01*
X24856082Y-32960500D01*
X24859699Y-32955261D01*
X25029036Y-32814648D01*
X25237428Y-32763879D01*
X25425230Y-32804819D01*
X25532801Y-32939333D01*
X25573827Y-33033831D01*
X25703415Y-33105028D01*
X25866187Y-33019946D01*
X26009857Y-32973505D01*
X26188689Y-33032590D01*
X26340138Y-33164445D01*
X26404000Y-33333923D01*
X26404352Y-33356136D01*
X26452504Y-33495208D01*
X26613715Y-33532000D01*
X26767324Y-33563136D01*
X26945292Y-33703592D01*
X27027674Y-33908140D01*
X26980619Y-34122315D01*
X26944597Y-34184770D01*
X26919786Y-34302534D01*
X27017833Y-34387571D01*
X27051509Y-34412855D01*
X27139870Y-34575302D01*
X27168612Y-34792487D01*
X27160723Y-34840787D01*
X27135674Y-34994154D01*
G37*
G36*
X34314413Y-29897689D02*
G01*
X34456932Y-30344921D01*
X34571599Y-30704184D01*
X34650608Y-30951004D01*
X34686151Y-31060912D01*
X34687243Y-31108157D01*
X34596070Y-31148823D01*
X34365509Y-31145579D01*
X34184878Y-31126909D01*
X34047058Y-31073731D01*
X33957618Y-30946254D01*
X33867540Y-30700683D01*
X33727667Y-30282367D01*
X33137549Y-30305027D01*
X33126119Y-30305472D01*
X32826193Y-30321601D01*
X32598594Y-30341895D01*
X32491795Y-30362071D01*
X32470393Y-30390541D01*
X32408107Y-30544685D01*
X32339861Y-30778894D01*
X32295864Y-30943928D01*
X32226949Y-31094186D01*
X32113749Y-31151916D01*
X31906114Y-31161333D01*
X31819741Y-31159638D01*
X31647668Y-31127253D01*
X31576538Y-31030749D01*
X31596601Y-30840363D01*
X31698108Y-30526333D01*
X31734883Y-30422017D01*
X31808041Y-30154995D01*
X31790309Y-29989801D01*
X31666269Y-29886343D01*
X31420500Y-29804532D01*
X31290080Y-29766591D01*
X31053433Y-29683451D01*
X30912500Y-29613828D01*
X30831317Y-29591083D01*
X30806667Y-29714361D01*
X30792186Y-29792189D01*
X30672862Y-29936443D01*
X30491602Y-30002819D01*
X30319833Y-29955882D01*
X30301943Y-29936701D01*
X30239309Y-29774179D01*
X30214000Y-29539571D01*
X30213603Y-29530611D01*
X32792399Y-29530611D01*
X32808703Y-29553951D01*
X32946126Y-29612588D01*
X33152197Y-29636005D01*
X33351203Y-29620596D01*
X33467431Y-29562756D01*
X33470704Y-29554115D01*
X33462170Y-29420025D01*
X33411829Y-29178096D01*
X33328851Y-28873907D01*
X33144180Y-28259635D01*
X32947813Y-28841762D01*
X32939459Y-28866735D01*
X32850579Y-29164440D01*
X32797837Y-29402233D01*
X32792399Y-29530611D01*
X30213603Y-29530611D01*
X30207089Y-29383668D01*
X30153287Y-29222669D01*
X30023500Y-29137730D01*
X29858136Y-29097819D01*
X29684499Y-29138184D01*
X29621333Y-29290792D01*
X29603603Y-29392081D01*
X29484949Y-29564362D01*
X29308067Y-29637333D01*
X29227380Y-29560795D01*
X29198000Y-29346705D01*
X29197349Y-29303680D01*
X29155311Y-29098453D01*
X29032998Y-29003708D01*
X28875179Y-28893753D01*
X28803076Y-28659090D01*
X28850491Y-28317894D01*
X28955761Y-28021216D01*
X29107343Y-27829848D01*
X29337713Y-27747331D01*
X29687934Y-27745602D01*
X30261491Y-27787112D01*
X30960833Y-27844003D01*
X31533373Y-27898682D01*
X31968513Y-27950000D01*
X32255653Y-27996809D01*
X32384196Y-28037958D01*
X32444475Y-28050635D01*
X32526902Y-27947257D01*
X32625771Y-27693700D01*
X32709981Y-27456348D01*
X32792499Y-27324036D01*
X32914382Y-27274275D01*
X33122639Y-27266667D01*
X33477668Y-27266667D01*
X34063184Y-29108167D01*
X34151850Y-29386957D01*
X34205055Y-29554115D01*
X34314413Y-29897689D01*
G37*
G36*
X40920286Y-28529145D02*
G01*
X41345643Y-28554072D01*
X41426541Y-28559362D01*
X41648445Y-28589691D01*
X41718855Y-28629550D01*
X41757207Y-28651261D01*
X41797452Y-28764892D01*
X41802894Y-28834867D01*
X41767199Y-28913840D01*
X41640401Y-28954406D01*
X41383389Y-28976559D01*
X40942874Y-29002333D01*
X40899273Y-29173287D01*
X40829520Y-29446776D01*
X40767684Y-29663970D01*
X40482139Y-30327116D01*
X40084530Y-30871172D01*
X39581560Y-31288436D01*
X38979934Y-31571208D01*
X38614714Y-31678437D01*
X38227541Y-31742002D01*
X37856391Y-31727815D01*
X37427895Y-31639085D01*
X36984887Y-31524170D01*
X37006613Y-33997667D01*
X37007277Y-34073252D01*
X37029667Y-36622333D01*
X37220167Y-36595845D01*
X37261666Y-36591310D01*
X37380719Y-36624813D01*
X37410667Y-36779289D01*
X37386071Y-36922663D01*
X37306625Y-37023903D01*
X37290642Y-37030280D01*
X37255360Y-37104434D01*
X37334122Y-37263791D01*
X37433396Y-37434101D01*
X37520173Y-37617167D01*
X37551705Y-37730141D01*
X37531188Y-37780167D01*
X37457982Y-37725336D01*
X37356225Y-37586456D01*
X37250056Y-37384333D01*
X37191377Y-37261362D01*
X37053101Y-37064116D01*
X36909523Y-37003333D01*
X36832706Y-37008347D01*
X36777392Y-37063823D01*
X36820167Y-37220699D01*
X36890982Y-37392287D01*
X36990384Y-37601699D01*
X37035215Y-37717670D01*
X36985552Y-37765333D01*
X36944087Y-37742563D01*
X36839433Y-37605031D01*
X36724611Y-37384333D01*
X36681216Y-37291727D01*
X36536278Y-37072928D01*
X36390705Y-37003333D01*
X36287040Y-37006102D01*
X36238343Y-37040476D01*
X36261563Y-37148250D01*
X36352333Y-37371274D01*
X36398252Y-37482697D01*
X36464222Y-37664979D01*
X36468052Y-37746496D01*
X36415833Y-37765016D01*
X36385304Y-37742615D01*
X36298568Y-37605127D01*
X36195780Y-37384016D01*
X36137330Y-37258176D01*
X36019355Y-37075244D01*
X35920613Y-37003333D01*
X35846155Y-36962153D01*
X35802000Y-36809496D01*
X35804284Y-36756893D01*
X35862264Y-36645114D01*
X36034833Y-36618996D01*
X36267667Y-36622333D01*
X36292130Y-35881500D01*
X36316593Y-35140667D01*
X36069663Y-35140667D01*
X36016049Y-35141874D01*
X35881612Y-35166537D01*
X35760819Y-35242041D01*
X35630595Y-35393164D01*
X35467866Y-35644685D01*
X35249558Y-36021385D01*
X34908783Y-36622333D01*
X34505253Y-36648281D01*
X34101723Y-36674228D01*
X34410372Y-36055614D01*
X34437688Y-36001563D01*
X34613390Y-35679974D01*
X34785436Y-35401924D01*
X34920125Y-35222494D01*
X35121229Y-35007989D01*
X34836574Y-34854692D01*
X34807755Y-34838395D01*
X34595292Y-34673391D01*
X34457293Y-34493714D01*
X34450073Y-34477399D01*
X34369540Y-34148667D01*
X34371936Y-33902470D01*
X35044538Y-33902470D01*
X35071107Y-34140677D01*
X35173048Y-34330286D01*
X35213961Y-34363178D01*
X35438037Y-34438871D01*
X35808048Y-34463333D01*
X36310000Y-34463333D01*
X36310000Y-33997667D01*
X36305991Y-33747693D01*
X36279732Y-33599058D01*
X36210396Y-33538435D01*
X36077167Y-33523422D01*
X36055005Y-33522648D01*
X35639875Y-33526459D01*
X35325800Y-33565205D01*
X35145833Y-33634929D01*
X35096479Y-33695852D01*
X35044538Y-33902470D01*
X34371936Y-33902470D01*
X34373099Y-33783010D01*
X34450069Y-33430710D01*
X34589769Y-33142048D01*
X34781520Y-32967306D01*
X34822491Y-32954149D01*
X35019740Y-32919936D01*
X35319546Y-32886260D01*
X35675000Y-32858817D01*
X36437000Y-32812333D01*
X36461121Y-32046052D01*
X36485241Y-31279772D01*
X36152497Y-30929985D01*
X36052501Y-30812101D01*
X37092898Y-30812101D01*
X37144857Y-30913529D01*
X37277579Y-30990401D01*
X37486801Y-31065546D01*
X37972654Y-31149458D01*
X38508918Y-31099556D01*
X39030772Y-30920481D01*
X39490670Y-30622740D01*
X39644620Y-30468853D01*
X39882236Y-30154111D01*
X40088648Y-29797419D01*
X40234224Y-29452553D01*
X40289333Y-29173287D01*
X40287686Y-29095580D01*
X40262180Y-29014311D01*
X40176680Y-28975334D01*
X39994792Y-28966949D01*
X39680119Y-28977457D01*
X39070904Y-29002333D01*
X39059219Y-29764333D01*
X39056508Y-29944610D01*
X39049065Y-30327816D01*
X39035482Y-30579505D01*
X39008168Y-30727256D01*
X38959533Y-30798648D01*
X38881987Y-30821258D01*
X38767939Y-30822667D01*
X38516545Y-30822667D01*
X38492773Y-29794998D01*
X38469000Y-28767330D01*
X37728576Y-29771217D01*
X37464248Y-30132183D01*
X37248329Y-30444257D01*
X37125967Y-30663287D01*
X37092898Y-30812101D01*
X36052501Y-30812101D01*
X36003525Y-30754363D01*
X35769779Y-30421926D01*
X35578398Y-30087599D01*
X35515692Y-29955777D01*
X35421633Y-29718389D01*
X35367514Y-29482753D01*
X35342733Y-29191907D01*
X35336688Y-28788886D01*
X35336880Y-28762709D01*
X35890797Y-28762709D01*
X35961603Y-29384407D01*
X36192827Y-29979041D01*
X36294594Y-30154520D01*
X36415383Y-30330993D01*
X36489696Y-30399333D01*
X36515045Y-30384116D01*
X36628823Y-30265294D01*
X36805040Y-30054774D01*
X37019776Y-29784050D01*
X37249108Y-29484611D01*
X37469117Y-29187950D01*
X37655883Y-28925559D01*
X37785484Y-28728928D01*
X37834000Y-28629550D01*
X37823420Y-28598804D01*
X37729960Y-28453924D01*
X37563026Y-28232580D01*
X37350816Y-27968628D01*
X37121528Y-27695922D01*
X36903359Y-27448315D01*
X36724508Y-27259663D01*
X36613171Y-27163818D01*
X36602358Y-27158347D01*
X36506102Y-27165204D01*
X36389585Y-27284799D01*
X36230525Y-27538979D01*
X36228831Y-27541949D01*
X35980006Y-28139904D01*
X35890797Y-28762709D01*
X35336880Y-28762709D01*
X35338863Y-28491835D01*
X35355528Y-28180866D01*
X35398868Y-27937938D01*
X35480799Y-27704074D01*
X35613240Y-27420296D01*
X35786864Y-27111190D01*
X35994077Y-26811564D01*
X36074281Y-26721941D01*
X36985663Y-26721941D01*
X37727331Y-27646594D01*
X38469000Y-28571248D01*
X38493351Y-27687173D01*
X38504391Y-27413725D01*
X38528630Y-27081045D01*
X38559518Y-26839352D01*
X38592985Y-26727815D01*
X38699508Y-26691935D01*
X38890049Y-26708194D01*
X39111828Y-26763857D01*
X39086748Y-27629095D01*
X39061667Y-28494333D01*
X39675500Y-28519209D01*
X39755709Y-28522406D01*
X40059114Y-28525672D01*
X40228337Y-28486991D01*
X40281974Y-28377245D01*
X40238620Y-28167313D01*
X40116873Y-27828076D01*
X40050836Y-27673977D01*
X39742561Y-27207805D01*
X39319891Y-26819286D01*
X38823325Y-26548480D01*
X38463376Y-26460197D01*
X38011545Y-26435862D01*
X37569740Y-26484684D01*
X37210454Y-26604160D01*
X36985663Y-26721941D01*
X36074281Y-26721941D01*
X36182010Y-26601560D01*
X36473873Y-26345301D01*
X36497770Y-25345484D01*
X36506250Y-25019409D01*
X36519733Y-24700189D01*
X36540971Y-24499694D01*
X36576059Y-24388730D01*
X36631092Y-24338101D01*
X36712167Y-24318611D01*
X36763837Y-24312643D01*
X36830610Y-24324489D01*
X36871581Y-24389708D01*
X36893050Y-24537290D01*
X36901312Y-24796225D01*
X36902667Y-25195503D01*
X36902715Y-25277682D01*
X36905908Y-25650017D01*
X36917533Y-25885081D01*
X36942374Y-26010095D01*
X36985213Y-26052286D01*
X37050833Y-26038876D01*
X37414640Y-25917335D01*
X38056493Y-25828537D01*
X38679346Y-25891760D01*
X39263548Y-26096209D01*
X39789445Y-26431084D01*
X40237385Y-26885589D01*
X40587718Y-27448925D01*
X40820791Y-28110294D01*
X40884203Y-28377245D01*
X40920286Y-28529145D01*
G37*
%TD*%
%LPC*%
D13*
%TO.C,J10*%
X48880000Y-75455000D03*
D14*
X43880000Y-75455000D03*
%TD*%
D13*
%TO.C,J7*%
X78725000Y-75455000D03*
D14*
X73725000Y-75455000D03*
%TD*%
D15*
%TO.C,R6*%
X26655000Y-50690000D03*
X26655000Y-53230000D03*
%TD*%
D13*
%TO.C,J5*%
X97140000Y-75455000D03*
D14*
X92140000Y-75455000D03*
%TD*%
D15*
%TO.C,C1*%
X92500000Y-37000000D03*
X92500000Y-42000000D03*
%TD*%
D13*
%TO.C,J4*%
X108570000Y-75455000D03*
D14*
X103570000Y-75455000D03*
%TD*%
D15*
%TO.C,R1*%
X113035000Y-29100000D03*
X115575000Y-29100000D03*
%TD*%
D16*
%TO.C,REF\u002A\u002A*%
X24000000Y-76000000D03*
%TD*%
D15*
%TO.C,R4*%
X50150000Y-50690000D03*
X50150000Y-53230000D03*
%TD*%
D17*
%TO.C,SW1*%
X101585000Y-55120559D03*
X101585000Y-59820559D03*
X101585000Y-64520559D03*
X96755000Y-55120559D03*
X96755000Y-59820559D03*
X96755000Y-64520559D03*
%TD*%
D18*
%TO.C,J9*%
X39990000Y-34815000D03*
D19*
X39990000Y-37355000D03*
X39990000Y-39895000D03*
X39990000Y-42435000D03*
X39990000Y-44975000D03*
X39990000Y-47515000D03*
X39990000Y-50055000D03*
%TD*%
D18*
%TO.C,J3*%
X87615000Y-34815000D03*
D19*
X87615000Y-37355000D03*
X87615000Y-39895000D03*
X87615000Y-42435000D03*
X87615000Y-44975000D03*
X87615000Y-47515000D03*
X87615000Y-50055000D03*
%TD*%
D20*
%TO.C,D1*%
X113030000Y-34180000D03*
D21*
X115570000Y-34180000D03*
%TD*%
D15*
%TO.C,R2*%
X74280000Y-50690000D03*
X74280000Y-53230000D03*
%TD*%
D22*
%TO.C,J2*%
X104140000Y-47475000D03*
D23*
X104140000Y-44975000D03*
%TD*%
D15*
%TO.C,R7*%
X22210000Y-62755000D03*
X22210000Y-60215000D03*
%TD*%
%TO.C,R5*%
X45705000Y-62755000D03*
X45705000Y-60215000D03*
%TD*%
D24*
%TO.C,RV3*%
X26655000Y-62755000D03*
D25*
X26655000Y-60215000D03*
X26655000Y-57675000D03*
%TD*%
D15*
%TO.C,R3*%
X69835000Y-62755000D03*
X69835000Y-60215000D03*
%TD*%
D13*
%TO.C,J11*%
X37450000Y-75455000D03*
D14*
X32450000Y-75455000D03*
%TD*%
D16*
%TO.C,REF\u002A\u002A*%
X116000000Y-76000000D03*
%TD*%
D26*
%TO.C,J1*%
X95680000Y-31000000D03*
X109180000Y-31000000D03*
D27*
X98830000Y-37000000D03*
D28*
X106030000Y-37000000D03*
%TD*%
D16*
%TO.C,REF\u002A\u002A*%
X24000000Y-24000000D03*
%TD*%
D13*
%TO.C,J8*%
X67295000Y-75455000D03*
D14*
X62295000Y-75455000D03*
%TD*%
D24*
%TO.C,RV1*%
X74280000Y-62755000D03*
D25*
X74280000Y-60215000D03*
X74280000Y-57675000D03*
%TD*%
D16*
%TO.C,REF\u002A\u002A*%
X116000000Y-24000000D03*
%TD*%
D18*
%TO.C,J6*%
X63485000Y-34815000D03*
D19*
X63485000Y-37355000D03*
X63485000Y-39895000D03*
X63485000Y-42435000D03*
X63485000Y-44975000D03*
X63485000Y-47515000D03*
X63485000Y-50055000D03*
%TD*%
D29*
%TO.C,C2*%
X112464466Y-45964466D03*
D30*
X116000000Y-49500000D03*
%TD*%
D31*
%TO.C,REF\u002A\u002A*%
X114285000Y-39895000D03*
X114285000Y-65895000D03*
%TD*%
D24*
%TO.C,RV2*%
X50150000Y-62755000D03*
D25*
X50150000Y-60215000D03*
X50150000Y-57675000D03*
%TD*%
%LPD*%
M02*
