%TF.GenerationSoftware,KiCad,Pcbnew,10.0.3-10.0.3~ubuntu26.04.1*%
%TF.CreationDate,2026-06-22T17:48:08+09:00*%
%TF.ProjectId,PowerUnit_Servo,506f7765-7255-46e6-9974-5f536572766f,rev?*%
%TF.SameCoordinates,Original*%
%TF.FileFunction,Copper,L1,Top*%
%TF.FilePolarity,Positive*%
%FSLAX46Y46*%
G04 Gerber Fmt 4.6, Leading zero omitted, Abs format (unit mm)*
G04 Created by KiCad (PCBNEW 10.0.3-10.0.3~ubuntu26.04.1) date 2026-06-22 17:48:08*
%MOMM*%
%LPD*%
G01*
G04 APERTURE LIST*
G04 Aperture macros list*
%AMRoundRect*
0 Rectangle with rounded corners*
0 $1 Rounding radius*
0 $2 $3 $4 $5 $6 $7 $8 $9 X,Y pos of 4 corners*
0 Add a 4 corners polygon primitive as box body*
4,1,4,$2,$3,$4,$5,$6,$7,$8,$9,$2,$3,0*
0 Add four circle primitives for the rounded corners*
1,1,$1+$1,$2,$3*
1,1,$1+$1,$4,$5*
1,1,$1+$1,$6,$7*
1,1,$1+$1,$8,$9*
0 Add four rect primitives between the rounded corners*
20,1,$1+$1,$2,$3,$4,$5,0*
20,1,$1+$1,$4,$5,$6,$7,0*
20,1,$1+$1,$6,$7,$8,$9,0*
20,1,$1+$1,$8,$9,$2,$3,0*%
G04 Aperture macros list end*
%TA.AperFunction,ComponentPad*%
%ADD10RoundRect,0.760000X1.140000X1.140000X-1.140000X1.140000X-1.140000X-1.140000X1.140000X-1.140000X0*%
%TD*%
%TA.AperFunction,ComponentPad*%
%ADD11C,4.000000*%
%TD*%
%TA.AperFunction,ComponentPad*%
%ADD12C,1.600000*%
%TD*%
%TA.AperFunction,ComponentPad*%
%ADD13C,3.500000*%
%TD*%
%TA.AperFunction,ComponentPad*%
%ADD14R,1.700000X1.700000*%
%TD*%
%TA.AperFunction,ComponentPad*%
%ADD15C,1.700000*%
%TD*%
%TA.AperFunction,ComponentPad*%
%ADD16R,1.800000X1.800000*%
%TD*%
%TA.AperFunction,ComponentPad*%
%ADD17C,1.800000*%
%TD*%
%TA.AperFunction,ComponentPad*%
%ADD18RoundRect,0.450000X0.950000X-0.450000X0.950000X0.450000X-0.950000X0.450000X-0.950000X-0.450000X0*%
%TD*%
%TA.AperFunction,ComponentPad*%
%ADD19O,2.800000X1.800000*%
%TD*%
%TA.AperFunction,ComponentPad*%
%ADD20R,1.218000X1.218000*%
%TD*%
%TA.AperFunction,ComponentPad*%
%ADD21C,1.218000*%
%TD*%
%TA.AperFunction,ComponentPad*%
%ADD22R,0.900000X2.000000*%
%TD*%
%TA.AperFunction,ComponentPad*%
%ADD23RoundRect,1.025000X-1.025000X-1.025000X1.025000X-1.025000X1.025000X1.025000X-1.025000X1.025000X0*%
%TD*%
%TA.AperFunction,ComponentPad*%
%ADD24C,4.100000*%
%TD*%
%TA.AperFunction,ComponentPad*%
%ADD25RoundRect,0.250000X-1.060660X0.000000X0.000000X-1.060660X1.060660X0.000000X0.000000X1.060660X0*%
%TD*%
%TA.AperFunction,ComponentPad*%
%ADD26C,2.000000*%
%TD*%
%TA.AperFunction,ViaPad*%
%ADD27C,0.900000*%
%TD*%
%TA.AperFunction,Conductor*%
%ADD28C,0.250000*%
%TD*%
G04 APERTURE END LIST*
D10*
%TO.P,J10,1,Pin_1_1*%
%TO.N,GNDPWR*%
X48880000Y-75455000D03*
D11*
%TO.P,J10,2,Pin_2_2*%
%TO.N,Net-(J10-Pin_2)*%
X43880000Y-75455000D03*
%TD*%
D10*
%TO.P,J7,1,Pin_1_1*%
%TO.N,GNDPWR*%
X78725000Y-75455000D03*
D11*
%TO.P,J7,2,Pin_2_2*%
%TO.N,Net-(J6-Pin_5)*%
X73725000Y-75455000D03*
%TD*%
D12*
%TO.P,R6,1*%
%TO.N,Net-(J10-Pin_2)*%
X26655000Y-50690000D03*
%TO.P,R6,2*%
%TO.N,Net-(R6-Pad2)*%
X26655000Y-53230000D03*
%TD*%
D10*
%TO.P,J5,1,Pin_1_1*%
%TO.N,GNDPWR*%
X97140000Y-75455000D03*
D11*
%TO.P,J5,2,Pin_2_2*%
%TO.N,Net-(J3-Pin_5)*%
X92140000Y-75455000D03*
%TD*%
D12*
%TO.P,C1,1*%
%TO.N,Net-(J1-Pin_2)*%
X92500000Y-37000000D03*
%TO.P,C1,2*%
%TO.N,GNDPWR*%
X92500000Y-42000000D03*
%TD*%
D10*
%TO.P,J4,1,Pin_1_1*%
%TO.N,GNDPWR*%
X108570000Y-75455000D03*
D11*
%TO.P,J4,2,Pin_2_2*%
%TO.N,Net-(J3-Pin_5)*%
X103570000Y-75455000D03*
%TD*%
D12*
%TO.P,R1,1*%
%TO.N,Net-(J1-Pin_2)*%
X113035000Y-29100000D03*
%TO.P,R1,2*%
%TO.N,Net-(D1-A)*%
X115575000Y-29100000D03*
%TD*%
%TO.P,R4,1*%
%TO.N,Net-(J6-Pin_5)*%
X50150000Y-50690000D03*
%TO.P,R4,2*%
%TO.N,Net-(R4-Pad2)*%
X50150000Y-53230000D03*
%TD*%
D13*
%TO.P,SW1,1,A_1*%
%TO.N,Net-(J3-Pin_5)*%
X101585000Y-55120559D03*
%TO.P,SW1,2,B_2*%
%TO.N,Net-(J2-Pin_2)*%
X101585000Y-59820559D03*
%TO.P,SW1,3,C_3*%
%TO.N,Net-(SW1-B-Pad5)*%
X101585000Y-64520559D03*
%TO.P,SW1,4,A_4*%
%TO.N,Net-(J6-Pin_5)*%
X96755000Y-55120559D03*
%TO.P,SW1,5,B_5*%
%TO.N,Net-(SW1-B-Pad5)*%
X96755000Y-59820559D03*
%TO.P,SW1,6,C_6*%
%TO.N,Net-(J10-Pin_2)*%
X96755000Y-64520559D03*
%TD*%
D14*
%TO.P,J9,1,Pin_1_1*%
%TO.N,Net-(J1-Pin_2)*%
X39990000Y-34815000D03*
D15*
%TO.P,J9,2,Pin_2_2*%
X39990000Y-37355000D03*
%TO.P,J9,3,Pin_3_3*%
%TO.N,GNDPWR*%
X39990000Y-39895000D03*
%TO.P,J9,4,Pin_4_4*%
X39990000Y-42435000D03*
%TO.P,J9,5,Pin_5_5*%
%TO.N,Net-(J10-Pin_2)*%
X39990000Y-44975000D03*
%TO.P,J9,6,Pin_6_6*%
X39990000Y-47515000D03*
%TO.P,J9,7,Pin_7_7*%
%TO.N,Net-(J9-Pin_7)*%
X39990000Y-50055000D03*
%TD*%
D14*
%TO.P,J3,1,Pin_1_1*%
%TO.N,Net-(J1-Pin_2)*%
X87615000Y-34815000D03*
D15*
%TO.P,J3,2,Pin_2_2*%
X87615000Y-37355000D03*
%TO.P,J3,3,Pin_3_3*%
%TO.N,GNDPWR*%
X87615000Y-39895000D03*
%TO.P,J3,4,Pin_4_4*%
X87615000Y-42435000D03*
%TO.P,J3,5,Pin_5_5*%
%TO.N,Net-(J3-Pin_5)*%
X87615000Y-44975000D03*
%TO.P,J3,6,Pin_6_6*%
X87615000Y-47515000D03*
%TO.P,J3,7,Pin_7_7*%
%TO.N,Net-(J3-Pin_7)*%
X87615000Y-50055000D03*
%TD*%
D16*
%TO.P,D1,1,K_1*%
%TO.N,GNDPWR*%
X113030000Y-34180000D03*
D17*
%TO.P,D1,2,A_2*%
%TO.N,Net-(D1-A)*%
X115570000Y-34180000D03*
%TD*%
D12*
%TO.P,R2,1*%
%TO.N,Net-(J3-Pin_5)*%
X74280000Y-50690000D03*
%TO.P,R2,2*%
%TO.N,Net-(R2-Pad2)*%
X74280000Y-53230000D03*
%TD*%
D18*
%TO.P,J2,1,Pin_1_1*%
%TO.N,GNDPWR*%
X104140000Y-47475000D03*
D19*
%TO.P,J2,2,Pin_2_2*%
%TO.N,Net-(J2-Pin_2)*%
X104140000Y-44975000D03*
%TD*%
D12*
%TO.P,R7,1*%
%TO.N,Net-(R7-Pad1)*%
X22210000Y-62755000D03*
%TO.P,R7,2*%
%TO.N,GNDPWR*%
X22210000Y-60215000D03*
%TD*%
%TO.P,R5,1*%
%TO.N,Net-(R5-Pad1)*%
X45705000Y-62755000D03*
%TO.P,R5,2*%
%TO.N,GNDPWR*%
X45705000Y-60215000D03*
%TD*%
D20*
%TO.P,RV3,1,1_1*%
%TO.N,Net-(R7-Pad1)*%
X26655000Y-62755000D03*
D21*
%TO.P,RV3,2,2_2*%
%TO.N,Net-(J9-Pin_7)*%
X26655000Y-60215000D03*
%TO.P,RV3,3,3_3*%
%TO.N,Net-(R6-Pad2)*%
X26655000Y-57675000D03*
%TD*%
D12*
%TO.P,R3,1*%
%TO.N,Net-(R3-Pad1)*%
X69835000Y-62755000D03*
%TO.P,R3,2*%
%TO.N,GNDPWR*%
X69835000Y-60215000D03*
%TD*%
D10*
%TO.P,J11,1,Pin_1_1*%
%TO.N,GNDPWR*%
X37450000Y-75455000D03*
D11*
%TO.P,J11,2,Pin_2_2*%
%TO.N,Net-(J10-Pin_2)*%
X32450000Y-75455000D03*
%TD*%
D22*
%TO.P,J1,*%
%TO.N,*%
X95680000Y-31000000D03*
X109180000Y-31000000D03*
D23*
%TO.P,J1,1,Pin_1_1*%
%TO.N,GNDPWR*%
X98830000Y-37000000D03*
D24*
%TO.P,J1,2,Pin_2_2*%
%TO.N,Net-(J1-Pin_2)*%
X106030000Y-37000000D03*
%TD*%
D10*
%TO.P,J8,1,Pin_1_1*%
%TO.N,GNDPWR*%
X67295000Y-75455000D03*
D11*
%TO.P,J8,2,Pin_2_2*%
%TO.N,Net-(J6-Pin_5)*%
X62295000Y-75455000D03*
%TD*%
D20*
%TO.P,RV1,1,1_1*%
%TO.N,Net-(R3-Pad1)*%
X74280000Y-62755000D03*
D21*
%TO.P,RV1,2,2_2*%
%TO.N,Net-(J3-Pin_7)*%
X74280000Y-60215000D03*
%TO.P,RV1,3,3_3*%
%TO.N,Net-(R2-Pad2)*%
X74280000Y-57675000D03*
%TD*%
D14*
%TO.P,J6,1,Pin_1_1*%
%TO.N,Net-(J1-Pin_2)*%
X63485000Y-34815000D03*
D15*
%TO.P,J6,2,Pin_2_2*%
X63485000Y-37355000D03*
%TO.P,J6,3,Pin_3_3*%
%TO.N,GNDPWR*%
X63485000Y-39895000D03*
%TO.P,J6,4,Pin_4_4*%
X63485000Y-42435000D03*
%TO.P,J6,5,Pin_5_5*%
%TO.N,Net-(J6-Pin_5)*%
X63485000Y-44975000D03*
%TO.P,J6,6,Pin_6_6*%
X63485000Y-47515000D03*
%TO.P,J6,7,Pin_7_7*%
%TO.N,Net-(J6-Pin_7)*%
X63485000Y-50055000D03*
%TD*%
D25*
%TO.P,C2,1*%
%TO.N,Net-(J1-Pin_2)*%
X112464466Y-45964466D03*
D26*
%TO.P,C2,2*%
%TO.N,GNDPWR*%
X116000000Y-49500000D03*
%TD*%
D20*
%TO.P,RV2,1,1_1*%
%TO.N,Net-(R5-Pad1)*%
X50150000Y-62755000D03*
D21*
%TO.P,RV2,2,2_2*%
%TO.N,Net-(J6-Pin_7)*%
X50150000Y-60215000D03*
%TO.P,RV2,3,3_3*%
%TO.N,Net-(R4-Pad2)*%
X50150000Y-57675000D03*
%TD*%
D27*
%TO.N,GNDPWR*%
X80000000Y-65000000D03*
X50000000Y-45000000D03*
X55000000Y-75000000D03*
X50000000Y-40000000D03*
X35000000Y-40000000D03*
X80000000Y-22000000D03*
X45466000Y-78740000D03*
X70000000Y-22000000D03*
X110000000Y-50000000D03*
X60000000Y-45000000D03*
X107442000Y-69088000D03*
X25000000Y-45000000D03*
X25000000Y-70000000D03*
X55000000Y-65000000D03*
X55000000Y-22000000D03*
X90000000Y-22000000D03*
X30000000Y-25000000D03*
X65000000Y-22000000D03*
X25000000Y-40000000D03*
X70000000Y-40000000D03*
X30000000Y-30000000D03*
X22500000Y-52500000D03*
X85000000Y-40000000D03*
X110000000Y-65000000D03*
X50000000Y-22000000D03*
X60000000Y-22000000D03*
X25000000Y-35000000D03*
X85000000Y-55000000D03*
X105000000Y-60000000D03*
X80000000Y-40000000D03*
X50000000Y-65000000D03*
X85000000Y-75000000D03*
X45000000Y-40000000D03*
X30000000Y-40000000D03*
X75000000Y-22000000D03*
X115000000Y-70000000D03*
X105000000Y-65000000D03*
X30000000Y-45000000D03*
X110000000Y-22000000D03*
X110000000Y-60000000D03*
X95000000Y-22000000D03*
X85000000Y-22000000D03*
X55000000Y-40000000D03*
X55000000Y-70000000D03*
X105000000Y-22000000D03*
X85000000Y-65000000D03*
X35000000Y-25000000D03*
X80000000Y-45000000D03*
X22500000Y-57500000D03*
X45000000Y-22000000D03*
X60000000Y-40000000D03*
X85000000Y-70000000D03*
X110000000Y-55000000D03*
X95000000Y-45000000D03*
X75000000Y-65000000D03*
X55000000Y-60000000D03*
X80000000Y-60000000D03*
X100000000Y-22000000D03*
X50000000Y-70000000D03*
X22500000Y-47500000D03*
X30000000Y-35000000D03*
X35000000Y-45000000D03*
X27500000Y-77500000D03*
X25000000Y-30000000D03*
X75000000Y-40000000D03*
X35000000Y-30000000D03*
X95000000Y-40000000D03*
X85000000Y-45000000D03*
X85000000Y-60000000D03*
X35000000Y-35000000D03*
X55000000Y-45000000D03*
X115000000Y-55000000D03*
X40000000Y-22000000D03*
X97790000Y-67056000D03*
X75000000Y-45000000D03*
X80000000Y-70000000D03*
X115000000Y-60000000D03*
%TD*%
%TO.N,Net-(J10-Pin_2)*%
D28*
X112000000Y-72000000D02*
X106595559Y-66595559D01*
X43880000Y-75455000D02*
X47425000Y-79000000D01*
X110000000Y-79000000D02*
X112000000Y-77000000D01*
X106595559Y-66595559D02*
X98830000Y-66595559D01*
X29830000Y-47515000D02*
X39990000Y-47515000D01*
X98830000Y-66595559D02*
X96755000Y-64520559D01*
X112000000Y-77000000D02*
X112000000Y-72000000D01*
X47425000Y-79000000D02*
X110000000Y-79000000D01*
X26655000Y-50690000D02*
X29830000Y-47515000D01*
%TO.N,Net-(J6-Pin_5)*%
X76270000Y-78000000D02*
X73725000Y-75455000D01*
X106000000Y-77000000D02*
X105000000Y-78000000D01*
X96755000Y-55120559D02*
X94680000Y-57195559D01*
X106000000Y-69000000D02*
X106000000Y-77000000D01*
X94680000Y-57195559D02*
X94680000Y-65380053D01*
X97299947Y-68000000D02*
X105000000Y-68000000D01*
X105000000Y-78000000D02*
X76270000Y-78000000D01*
X59040000Y-47515000D02*
X63485000Y-47515000D01*
X94680000Y-65380053D02*
X97299947Y-68000000D01*
X55865000Y-50690000D02*
X59040000Y-47515000D01*
X50150000Y-50690000D02*
X55865000Y-50690000D01*
X105000000Y-68000000D02*
X106000000Y-69000000D01*
%TO.N,Net-(R6-Pad2)*%
X26655000Y-57675000D02*
X26655000Y-53230000D01*
%TO.N,Net-(J3-Pin_5)*%
X74280000Y-50690000D02*
X84440000Y-50690000D01*
X101585000Y-55120559D02*
X93979441Y-47515000D01*
X93979441Y-47515000D02*
X87615000Y-47515000D01*
X84440000Y-50690000D02*
X87615000Y-47515000D01*
%TO.N,Net-(J1-Pin_2)*%
X107935000Y-29100000D02*
X106030000Y-31005000D01*
X106030000Y-31005000D02*
X106030000Y-37000000D01*
X107935000Y-29100000D02*
X113035000Y-29100000D01*
%TO.N,Net-(D1-A)*%
X116190000Y-34175000D02*
X116185000Y-34180000D01*
X115575000Y-34175000D02*
X115570000Y-34180000D01*
X115575000Y-29100000D02*
X115575000Y-34175000D01*
%TO.N,Net-(R4-Pad2)*%
X50150000Y-57675000D02*
X50150000Y-53230000D01*
%TO.N,Net-(J2-Pin_2)*%
X101585000Y-59820559D02*
X105865000Y-55540559D01*
X105865000Y-46200000D02*
X104640000Y-44975000D01*
X104640000Y-44975000D02*
X104140000Y-44975000D01*
X105865000Y-55540559D02*
X105865000Y-46200000D01*
X103355000Y-44975000D02*
X102855000Y-44975000D01*
%TO.N,Net-(SW1-B-Pad5)*%
X101455000Y-64520559D02*
X101585000Y-64520559D01*
X96755000Y-59820559D02*
X101455000Y-64520559D01*
%TO.N,Net-(J9-Pin_7)*%
X31100000Y-50055000D02*
X29195000Y-51960000D01*
X29195000Y-57675000D02*
X26655000Y-60215000D01*
X29195000Y-51960000D02*
X29195000Y-57675000D01*
X39990000Y-50055000D02*
X31100000Y-50055000D01*
%TO.N,Net-(J3-Pin_7)*%
X77455000Y-60215000D02*
X87615000Y-50055000D01*
X74280000Y-60215000D02*
X77455000Y-60215000D01*
%TO.N,Net-(R2-Pad2)*%
X74280000Y-57675000D02*
X74280000Y-53230000D01*
%TO.N,Net-(R7-Pad1)*%
X26655000Y-62755000D02*
X22210000Y-62755000D01*
%TO.N,Net-(R5-Pad1)*%
X50150000Y-62755000D02*
X45705000Y-62755000D01*
%TO.N,Net-(R3-Pad1)*%
X69835000Y-62755000D02*
X74280000Y-62755000D01*
%TO.N,Net-(J6-Pin_7)*%
X60310000Y-50055000D02*
X50150000Y-60215000D01*
X63485000Y-50055000D02*
X60310000Y-50055000D01*
%TD*%
%TA.AperFunction,Conductor*%
%TO.N,GNDPWR*%
G36*
X116503243Y-20500669D02*
G01*
X116807061Y-20516591D01*
X116819937Y-20517945D01*
X117117212Y-20565029D01*
X117129896Y-20567724D01*
X117420626Y-20645625D01*
X117432967Y-20649636D01*
X117713935Y-20757489D01*
X117725790Y-20762767D01*
X117993976Y-20899415D01*
X118005192Y-20905891D01*
X118257619Y-21069818D01*
X118268100Y-21077433D01*
X118464849Y-21236757D01*
X118502011Y-21266850D01*
X118511656Y-21275535D01*
X118724464Y-21488343D01*
X118733149Y-21497988D01*
X118922564Y-21731896D01*
X118930183Y-21742384D01*
X119094105Y-21994801D01*
X119100591Y-22006035D01*
X119237231Y-22274206D01*
X119242510Y-22286064D01*
X119350363Y-22567032D01*
X119354374Y-22579375D01*
X119432273Y-22870097D01*
X119434971Y-22882793D01*
X119482052Y-23180046D01*
X119483409Y-23192955D01*
X119499330Y-23496756D01*
X119499500Y-23503245D01*
X119499500Y-76496754D01*
X119499330Y-76503243D01*
X119483409Y-76807044D01*
X119482052Y-76819953D01*
X119434971Y-77117206D01*
X119432273Y-77129902D01*
X119354374Y-77420624D01*
X119350363Y-77432967D01*
X119242510Y-77713935D01*
X119237231Y-77725793D01*
X119100591Y-77993964D01*
X119094101Y-78005204D01*
X118930188Y-78257609D01*
X118922559Y-78268110D01*
X118733149Y-78502011D01*
X118724464Y-78511656D01*
X118511656Y-78724464D01*
X118502011Y-78733149D01*
X118268110Y-78922559D01*
X118257609Y-78930188D01*
X118005204Y-79094101D01*
X117993964Y-79100591D01*
X117725793Y-79237231D01*
X117713935Y-79242510D01*
X117432967Y-79350363D01*
X117420624Y-79354374D01*
X117129902Y-79432273D01*
X117117206Y-79434971D01*
X116819953Y-79482052D01*
X116807044Y-79483409D01*
X116503244Y-79499330D01*
X116496755Y-79499500D01*
X110248616Y-79499500D01*
X110181577Y-79479815D01*
X110135822Y-79427011D01*
X110125878Y-79357853D01*
X110154903Y-79294297D01*
X110186614Y-79268114D01*
X110188403Y-79267080D01*
X110199862Y-79260465D01*
X112260465Y-77199862D01*
X112303318Y-77125639D01*
X112325500Y-77042853D01*
X112325500Y-76957147D01*
X112325500Y-75878711D01*
X114149500Y-75878711D01*
X114149500Y-76121288D01*
X114181161Y-76361785D01*
X114243947Y-76596104D01*
X114319921Y-76779521D01*
X114336776Y-76820212D01*
X114458064Y-77030289D01*
X114458066Y-77030292D01*
X114458067Y-77030293D01*
X114605733Y-77222736D01*
X114605739Y-77222743D01*
X114777256Y-77394260D01*
X114777263Y-77394266D01*
X114831573Y-77435939D01*
X114969711Y-77541936D01*
X115179788Y-77663224D01*
X115403900Y-77756054D01*
X115638211Y-77818838D01*
X115818586Y-77842584D01*
X115878711Y-77850500D01*
X115878712Y-77850500D01*
X116121289Y-77850500D01*
X116169388Y-77844167D01*
X116361789Y-77818838D01*
X116596100Y-77756054D01*
X116820212Y-77663224D01*
X117030289Y-77541936D01*
X117222738Y-77394265D01*
X117394265Y-77222738D01*
X117541936Y-77030289D01*
X117663224Y-76820212D01*
X117756054Y-76596100D01*
X117818838Y-76361789D01*
X117850500Y-76121288D01*
X117850500Y-75878712D01*
X117818838Y-75638211D01*
X117756054Y-75403900D01*
X117663224Y-75179788D01*
X117541936Y-74969711D01*
X117394265Y-74777262D01*
X117394260Y-74777256D01*
X117222743Y-74605739D01*
X117222736Y-74605733D01*
X117030293Y-74458067D01*
X117030292Y-74458066D01*
X117030289Y-74458064D01*
X116820212Y-74336776D01*
X116803945Y-74330038D01*
X116596104Y-74243947D01*
X116361785Y-74181161D01*
X116121289Y-74149500D01*
X116121288Y-74149500D01*
X115878712Y-74149500D01*
X115878711Y-74149500D01*
X115638214Y-74181161D01*
X115403895Y-74243947D01*
X115179794Y-74336773D01*
X115179785Y-74336777D01*
X114969706Y-74458067D01*
X114777263Y-74605733D01*
X114777256Y-74605739D01*
X114605739Y-74777256D01*
X114605733Y-74777263D01*
X114458067Y-74969706D01*
X114336777Y-75179785D01*
X114336773Y-75179794D01*
X114243947Y-75403895D01*
X114181161Y-75638214D01*
X114149500Y-75878711D01*
X112325500Y-75878711D01*
X112325500Y-72052855D01*
X112325501Y-72052842D01*
X112325501Y-71957148D01*
X112325501Y-71957147D01*
X112303318Y-71874361D01*
X112281891Y-71837250D01*
X112260465Y-71800138D01*
X112199862Y-71739535D01*
X112199859Y-71739533D01*
X106795421Y-66335094D01*
X106758309Y-66313667D01*
X106721199Y-66292241D01*
X106651866Y-66273664D01*
X106638412Y-66270059D01*
X106638411Y-66270059D01*
X102874346Y-66270059D01*
X102807307Y-66250374D01*
X102761552Y-66197570D01*
X102751608Y-66128412D01*
X102780633Y-66064856D01*
X102798860Y-66047683D01*
X102832947Y-66021526D01*
X102873813Y-65990169D01*
X103054610Y-65809372D01*
X103070462Y-65788713D01*
X112934500Y-65788713D01*
X112934500Y-66001286D01*
X112961832Y-66173857D01*
X112967754Y-66211243D01*
X113007996Y-66335096D01*
X113033444Y-66413414D01*
X113129951Y-66602820D01*
X113254890Y-66774786D01*
X113405213Y-66925109D01*
X113577179Y-67050048D01*
X113577181Y-67050049D01*
X113577184Y-67050051D01*
X113766588Y-67146557D01*
X113968757Y-67212246D01*
X114178713Y-67245500D01*
X114178714Y-67245500D01*
X114391286Y-67245500D01*
X114391287Y-67245500D01*
X114601243Y-67212246D01*
X114803412Y-67146557D01*
X114992816Y-67050051D01*
X115014789Y-67034086D01*
X115164786Y-66925109D01*
X115164788Y-66925106D01*
X115164792Y-66925104D01*
X115315104Y-66774792D01*
X115315106Y-66774788D01*
X115315109Y-66774786D01*
X115440048Y-66602820D01*
X115440047Y-66602820D01*
X115440051Y-66602816D01*
X115536557Y-66413412D01*
X115602246Y-66211243D01*
X115635500Y-66001287D01*
X115635500Y-65788713D01*
X115602246Y-65578757D01*
X115536557Y-65376588D01*
X115440051Y-65187184D01*
X115440049Y-65187181D01*
X115440048Y-65187179D01*
X115315109Y-65015213D01*
X115164786Y-64864890D01*
X114992820Y-64739951D01*
X114803414Y-64643444D01*
X114803413Y-64643443D01*
X114803412Y-64643443D01*
X114601243Y-64577754D01*
X114601241Y-64577753D01*
X114601240Y-64577753D01*
X114439957Y-64552208D01*
X114391287Y-64544500D01*
X114178713Y-64544500D01*
X114130042Y-64552208D01*
X113968760Y-64577753D01*
X113766585Y-64643444D01*
X113577179Y-64739951D01*
X113405213Y-64864890D01*
X113254890Y-65015213D01*
X113129951Y-65187179D01*
X113033444Y-65376585D01*
X112967753Y-65578760D01*
X112934500Y-65788713D01*
X103070462Y-65788713D01*
X103210261Y-65606524D01*
X103338104Y-65385094D01*
X103435950Y-65148872D01*
X103502126Y-64901899D01*
X103535500Y-64648402D01*
X103535500Y-64392716D01*
X103502126Y-64139219D01*
X103435950Y-63892246D01*
X103338104Y-63656024D01*
X103338102Y-63656020D01*
X103338100Y-63656016D01*
X103210265Y-63434601D01*
X103210261Y-63434594D01*
X103054610Y-63231746D01*
X103054605Y-63231740D01*
X102873818Y-63050953D01*
X102873811Y-63050947D01*
X102670973Y-62895304D01*
X102670971Y-62895302D01*
X102670965Y-62895298D01*
X102670960Y-62895295D01*
X102670957Y-62895293D01*
X102449542Y-62767458D01*
X102449531Y-62767453D01*
X102213322Y-62669612D01*
X102213315Y-62669610D01*
X102213313Y-62669609D01*
X101966340Y-62603433D01*
X101910007Y-62596016D01*
X101712850Y-62570059D01*
X101712843Y-62570059D01*
X101457157Y-62570059D01*
X101457149Y-62570059D01*
X101231826Y-62599724D01*
X101203660Y-62603433D01*
X101005775Y-62656456D01*
X100956687Y-62669609D01*
X100956677Y-62669612D01*
X100720468Y-62767453D01*
X100720457Y-62767458D01*
X100499042Y-62895293D01*
X100499029Y-62895302D01*
X100467064Y-62919829D01*
X100401894Y-62945021D01*
X100333450Y-62930981D01*
X100303899Y-62909132D01*
X98418636Y-61023868D01*
X98385151Y-60962545D01*
X98390135Y-60892853D01*
X98398923Y-60874199D01*
X98508104Y-60685094D01*
X98605950Y-60448872D01*
X98672126Y-60201899D01*
X98705500Y-59948402D01*
X98705500Y-59692716D01*
X98705499Y-59692708D01*
X99634500Y-59692708D01*
X99634500Y-59948409D01*
X99659101Y-60135266D01*
X99667874Y-60201899D01*
X99692748Y-60294729D01*
X99734050Y-60448871D01*
X99734053Y-60448881D01*
X99831894Y-60685090D01*
X99831899Y-60685101D01*
X99959734Y-60906516D01*
X99959745Y-60906532D01*
X100115388Y-61109370D01*
X100115394Y-61109377D01*
X100296181Y-61290164D01*
X100296187Y-61290169D01*
X100499035Y-61445820D01*
X100499042Y-61445824D01*
X100720457Y-61573659D01*
X100720462Y-61573661D01*
X100720465Y-61573663D01*
X100956687Y-61671509D01*
X101203660Y-61737685D01*
X101457157Y-61771059D01*
X101457164Y-61771059D01*
X101712836Y-61771059D01*
X101712843Y-61771059D01*
X101966340Y-61737685D01*
X102213313Y-61671509D01*
X102449535Y-61573663D01*
X102670965Y-61445820D01*
X102873813Y-61290169D01*
X103054610Y-61109372D01*
X103210261Y-60906524D01*
X103338104Y-60685094D01*
X103435950Y-60448872D01*
X103502126Y-60201899D01*
X103535500Y-59948402D01*
X103535500Y-59692716D01*
X103502126Y-59439219D01*
X103435950Y-59192246D01*
X103338104Y-58956024D01*
X103338102Y-58956021D01*
X103338100Y-58956016D01*
X103228930Y-58766929D01*
X103212457Y-58699029D01*
X103235309Y-58633002D01*
X103248630Y-58617254D01*
X106125465Y-55740421D01*
X106168318Y-55666198D01*
X106190500Y-55583412D01*
X106190500Y-55497706D01*
X106190500Y-46252855D01*
X106190501Y-46252842D01*
X106190501Y-46157148D01*
X106174853Y-46098752D01*
X106168318Y-46074362D01*
X106168317Y-46074361D01*
X106168317Y-46074359D01*
X106168315Y-46074356D01*
X106147547Y-46038385D01*
X106147545Y-46038383D01*
X106125465Y-46000138D01*
X106089793Y-45964466D01*
X110948217Y-45964466D01*
X110959358Y-46038383D01*
X110968458Y-46098752D01*
X110968458Y-46098755D01*
X111027378Y-46221104D01*
X111027381Y-46221109D01*
X111039950Y-46236279D01*
X111046882Y-46244646D01*
X111046891Y-46244655D01*
X111046899Y-46244664D01*
X112184267Y-47382032D01*
X112184276Y-47382040D01*
X112184286Y-47382050D01*
X112195791Y-47391582D01*
X112207822Y-47401550D01*
X112207827Y-47401553D01*
X112322562Y-47456806D01*
X112330179Y-47460474D01*
X112464466Y-47480715D01*
X112598753Y-47460474D01*
X112721108Y-47401551D01*
X112744646Y-47382050D01*
X113882050Y-46244646D01*
X113901551Y-46221108D01*
X113960474Y-46098753D01*
X113980715Y-45964466D01*
X113960474Y-45830179D01*
X113952881Y-45814411D01*
X113901553Y-45707827D01*
X113901550Y-45707822D01*
X113888381Y-45691928D01*
X113882050Y-45684286D01*
X113882040Y-45684276D01*
X113882032Y-45684267D01*
X112744664Y-44546899D01*
X112744655Y-44546891D01*
X112744646Y-44546882D01*
X112736279Y-44539950D01*
X112721109Y-44527381D01*
X112721104Y-44527378D01*
X112598754Y-44468458D01*
X112464466Y-44448217D01*
X112330179Y-44468458D01*
X112330176Y-44468458D01*
X112207827Y-44527378D01*
X112207822Y-44527381D01*
X112184294Y-44546875D01*
X112184267Y-44546899D01*
X111046899Y-45684267D01*
X111046875Y-45684294D01*
X111027381Y-45707822D01*
X111027378Y-45707827D01*
X110968458Y-45830176D01*
X110968458Y-45830179D01*
X110948217Y-45964466D01*
X106089793Y-45964466D01*
X106064862Y-45939535D01*
X106064861Y-45939534D01*
X106060531Y-45935204D01*
X106060520Y-45935194D01*
X105677299Y-45551973D01*
X105643814Y-45490650D01*
X105648798Y-45420958D01*
X105654492Y-45408003D01*
X105659873Y-45397445D01*
X105713402Y-45232701D01*
X105740500Y-45061611D01*
X105740500Y-44888389D01*
X105713402Y-44717299D01*
X105659873Y-44552555D01*
X105581232Y-44398212D01*
X105479414Y-44258072D01*
X105356928Y-44135586D01*
X105216788Y-44033768D01*
X105062445Y-43955127D01*
X104897701Y-43901598D01*
X104897699Y-43901597D01*
X104897698Y-43901597D01*
X104766271Y-43880781D01*
X104726611Y-43874500D01*
X103553389Y-43874500D01*
X103513728Y-43880781D01*
X103382302Y-43901597D01*
X103217552Y-43955128D01*
X103063211Y-44033768D01*
X102983256Y-44091859D01*
X102923072Y-44135586D01*
X102923070Y-44135588D01*
X102923069Y-44135588D01*
X102800588Y-44258069D01*
X102800588Y-44258070D01*
X102800586Y-44258072D01*
X102766242Y-44305342D01*
X102698768Y-44398211D01*
X102620128Y-44552552D01*
X102566597Y-44717302D01*
X102542829Y-44867366D01*
X102539500Y-44888389D01*
X102539500Y-44894826D01*
X102529500Y-44932147D01*
X102529500Y-45017853D01*
X102539500Y-45055173D01*
X102539500Y-45061611D01*
X102566598Y-45232701D01*
X102620127Y-45397445D01*
X102698768Y-45551788D01*
X102800586Y-45691928D01*
X102923072Y-45814414D01*
X103063212Y-45916232D01*
X103217555Y-45994873D01*
X103382299Y-46048402D01*
X103553389Y-46075500D01*
X103553390Y-46075500D01*
X104726610Y-46075500D01*
X104726611Y-46075500D01*
X104897701Y-46048402D01*
X105062445Y-45994873D01*
X105072992Y-45989498D01*
X105141659Y-45976598D01*
X105206401Y-46002871D01*
X105216973Y-46012299D01*
X105503181Y-46298507D01*
X105536666Y-46359830D01*
X105539500Y-46386188D01*
X105539500Y-55354369D01*
X105519815Y-55421408D01*
X105503181Y-55442050D01*
X102788308Y-58156922D01*
X102726985Y-58190407D01*
X102657293Y-58185423D01*
X102638635Y-58176632D01*
X102449535Y-58067455D01*
X102449531Y-58067453D01*
X102213322Y-57969612D01*
X102213315Y-57969610D01*
X102213313Y-57969609D01*
X101966340Y-57903433D01*
X101910007Y-57896016D01*
X101712850Y-57870059D01*
X101712843Y-57870059D01*
X101457157Y-57870059D01*
X101457149Y-57870059D01*
X101231826Y-57899724D01*
X101203660Y-57903433D01*
X100956687Y-57969609D01*
X100956677Y-57969612D01*
X100720468Y-58067453D01*
X100720457Y-58067458D01*
X100499042Y-58195293D01*
X100499026Y-58195304D01*
X100296188Y-58350947D01*
X100296181Y-58350953D01*
X100115394Y-58531740D01*
X100115388Y-58531747D01*
X99959745Y-58734585D01*
X99959734Y-58734601D01*
X99831899Y-58956016D01*
X99831894Y-58956027D01*
X99734053Y-59192236D01*
X99734050Y-59192246D01*
X99667874Y-59439220D01*
X99634500Y-59692708D01*
X98705499Y-59692708D01*
X98672126Y-59439219D01*
X98605950Y-59192246D01*
X98508104Y-58956024D01*
X98508102Y-58956021D01*
X98508100Y-58956016D01*
X98380265Y-58734601D01*
X98380261Y-58734594D01*
X98224610Y-58531746D01*
X98224605Y-58531740D01*
X98043818Y-58350953D01*
X98043811Y-58350947D01*
X97840973Y-58195304D01*
X97840971Y-58195302D01*
X97840965Y-58195298D01*
X97840960Y-58195295D01*
X97840957Y-58195293D01*
X97619542Y-58067458D01*
X97619531Y-58067453D01*
X97383322Y-57969612D01*
X97383315Y-57969610D01*
X97383313Y-57969609D01*
X97136340Y-57903433D01*
X97080007Y-57896016D01*
X96882850Y-57870059D01*
X96882843Y-57870059D01*
X96627157Y-57870059D01*
X96627149Y-57870059D01*
X96401826Y-57899724D01*
X96373660Y-57903433D01*
X96126687Y-57969609D01*
X96126677Y-57969612D01*
X95890468Y-58067453D01*
X95890457Y-58067458D01*
X95669042Y-58195293D01*
X95669026Y-58195304D01*
X95466188Y-58350947D01*
X95466181Y-58350953D01*
X95285394Y-58531740D01*
X95285388Y-58531747D01*
X95227876Y-58606699D01*
X95171448Y-58647902D01*
X95101702Y-58652057D01*
X95040782Y-58617845D01*
X95008029Y-58556127D01*
X95005500Y-58531213D01*
X95005500Y-57381747D01*
X95025185Y-57314708D01*
X95041815Y-57294070D01*
X95551691Y-56784193D01*
X95613012Y-56750710D01*
X95682703Y-56755694D01*
X95701370Y-56764489D01*
X95890457Y-56873659D01*
X95890462Y-56873661D01*
X95890465Y-56873663D01*
X96126687Y-56971509D01*
X96373660Y-57037685D01*
X96615760Y-57069558D01*
X96618505Y-57069920D01*
X96627157Y-57071059D01*
X96627164Y-57071059D01*
X96882836Y-57071059D01*
X96882843Y-57071059D01*
X97136340Y-57037685D01*
X97383313Y-56971509D01*
X97619535Y-56873663D01*
X97840965Y-56745820D01*
X98043813Y-56590169D01*
X98224610Y-56409372D01*
X98380261Y-56206524D01*
X98508104Y-55985094D01*
X98605950Y-55748872D01*
X98672126Y-55501899D01*
X98705500Y-55248402D01*
X98705500Y-54992716D01*
X98672126Y-54739219D01*
X98605950Y-54492246D01*
X98508104Y-54256024D01*
X98508102Y-54256021D01*
X98508100Y-54256016D01*
X98380265Y-54034601D01*
X98380261Y-54034594D01*
X98252264Y-53867785D01*
X98224611Y-53831747D01*
X98224605Y-53831740D01*
X98043818Y-53650953D01*
X98043811Y-53650947D01*
X97840973Y-53495304D01*
X97840971Y-53495302D01*
X97840965Y-53495298D01*
X97840960Y-53495295D01*
X97840957Y-53495293D01*
X97619542Y-53367458D01*
X97619531Y-53367453D01*
X97383322Y-53269612D01*
X97383315Y-53269610D01*
X97383313Y-53269609D01*
X97136340Y-53203433D01*
X97080007Y-53196016D01*
X96882850Y-53170059D01*
X96882843Y-53170059D01*
X96627157Y-53170059D01*
X96627149Y-53170059D01*
X96401826Y-53199724D01*
X96373660Y-53203433D01*
X96126687Y-53269609D01*
X96126677Y-53269612D01*
X95890468Y-53367453D01*
X95890457Y-53367458D01*
X95669042Y-53495293D01*
X95669026Y-53495304D01*
X95466188Y-53650947D01*
X95466181Y-53650953D01*
X95285394Y-53831740D01*
X95285388Y-53831747D01*
X95129745Y-54034585D01*
X95129734Y-54034601D01*
X95001899Y-54256016D01*
X95001894Y-54256027D01*
X94904053Y-54492236D01*
X94904050Y-54492246D01*
X94837874Y-54739220D01*
X94804500Y-54992708D01*
X94804500Y-55248409D01*
X94818451Y-55354369D01*
X94837874Y-55501899D01*
X94901786Y-55740421D01*
X94904050Y-55748871D01*
X94904053Y-55748881D01*
X95001894Y-55985090D01*
X95001896Y-55985094D01*
X95111069Y-56174187D01*
X95127542Y-56242086D01*
X95104690Y-56308113D01*
X95091363Y-56323867D01*
X94419537Y-56995694D01*
X94419533Y-56995700D01*
X94376681Y-57069920D01*
X94376682Y-57069921D01*
X94354500Y-57152706D01*
X94354500Y-65422905D01*
X94376682Y-65505693D01*
X94398108Y-65542803D01*
X94419535Y-65579915D01*
X94419536Y-65579916D01*
X94419537Y-65579917D01*
X97035141Y-68195520D01*
X97035151Y-68195531D01*
X97039481Y-68199861D01*
X97039482Y-68199862D01*
X97100085Y-68260465D01*
X97100087Y-68260466D01*
X97100091Y-68260469D01*
X97174302Y-68303314D01*
X97174309Y-68303318D01*
X97257095Y-68325501D01*
X97257097Y-68325501D01*
X97350396Y-68325501D01*
X97350412Y-68325500D01*
X104813811Y-68325500D01*
X104880850Y-68345185D01*
X104901492Y-68361819D01*
X105638181Y-69098507D01*
X105671666Y-69159830D01*
X105674500Y-69186188D01*
X105674500Y-74236325D01*
X105654815Y-74303364D01*
X105602011Y-74349119D01*
X105532853Y-74359063D01*
X105469297Y-74330038D01*
X105443113Y-74298326D01*
X105411717Y-74243947D01*
X105403575Y-74229844D01*
X105227974Y-74000996D01*
X105227969Y-74000990D01*
X105024009Y-73797030D01*
X105024002Y-73797024D01*
X104795164Y-73621431D01*
X104795162Y-73621429D01*
X104795156Y-73621425D01*
X104795151Y-73621422D01*
X104795148Y-73621420D01*
X104545352Y-73477199D01*
X104545336Y-73477191D01*
X104278860Y-73366814D01*
X104278848Y-73366810D01*
X104278845Y-73366809D01*
X104000217Y-73292151D01*
X104000211Y-73292150D01*
X104000206Y-73292149D01*
X103714238Y-73254501D01*
X103714233Y-73254500D01*
X103714228Y-73254500D01*
X103425772Y-73254500D01*
X103425766Y-73254500D01*
X103425761Y-73254501D01*
X103139793Y-73292149D01*
X103139786Y-73292150D01*
X103139783Y-73292151D01*
X102861155Y-73366809D01*
X102861139Y-73366814D01*
X102594663Y-73477191D01*
X102594647Y-73477199D01*
X102344851Y-73621420D01*
X102344835Y-73621431D01*
X102115997Y-73797024D01*
X102115990Y-73797030D01*
X101912030Y-74000990D01*
X101912024Y-74000997D01*
X101736431Y-74229835D01*
X101736420Y-74229851D01*
X101592199Y-74479647D01*
X101592191Y-74479663D01*
X101481814Y-74746139D01*
X101481809Y-74746155D01*
X101421908Y-74969711D01*
X101407152Y-75024780D01*
X101407149Y-75024793D01*
X101369501Y-75310761D01*
X101369500Y-75310778D01*
X101369500Y-75599221D01*
X101369501Y-75599238D01*
X101407149Y-75885206D01*
X101407150Y-75885211D01*
X101407151Y-75885217D01*
X101407152Y-75885219D01*
X101481809Y-76163844D01*
X101481814Y-76163860D01*
X101592191Y-76430336D01*
X101592199Y-76430352D01*
X101736420Y-76680148D01*
X101736431Y-76680164D01*
X101912024Y-76909002D01*
X101912030Y-76909009D01*
X102115989Y-77112968D01*
X102115997Y-77112975D01*
X102229231Y-77199862D01*
X102344844Y-77288575D01*
X102344851Y-77288579D01*
X102594647Y-77432800D01*
X102594663Y-77432808D01*
X102602222Y-77435939D01*
X102656626Y-77479779D01*
X102678691Y-77546074D01*
X102661412Y-77613773D01*
X102610275Y-77661384D01*
X102554770Y-77674500D01*
X93155230Y-77674500D01*
X93088191Y-77654815D01*
X93042436Y-77602011D01*
X93032492Y-77532853D01*
X93061517Y-77469297D01*
X93107778Y-77435939D01*
X93115336Y-77432808D01*
X93115339Y-77432806D01*
X93115345Y-77432804D01*
X93365156Y-77288575D01*
X93594004Y-77112974D01*
X93594006Y-77112971D01*
X93594011Y-77112968D01*
X93797969Y-76909009D01*
X93797974Y-76909004D01*
X93973575Y-76680156D01*
X94117804Y-76430345D01*
X94146203Y-76361785D01*
X94228185Y-76163860D01*
X94228185Y-76163857D01*
X94228191Y-76163845D01*
X94302849Y-75885217D01*
X94340500Y-75599228D01*
X94340500Y-75310772D01*
X94302849Y-75024783D01*
X94228191Y-74746155D01*
X94228186Y-74746145D01*
X94228185Y-74746139D01*
X94117808Y-74479663D01*
X94117800Y-74479647D01*
X93973579Y-74229851D01*
X93973575Y-74229844D01*
X93797974Y-74000996D01*
X93797969Y-74000990D01*
X93594009Y-73797030D01*
X93594002Y-73797024D01*
X93365164Y-73621431D01*
X93365162Y-73621429D01*
X93365156Y-73621425D01*
X93365151Y-73621422D01*
X93365148Y-73621420D01*
X93115352Y-73477199D01*
X93115336Y-73477191D01*
X92848860Y-73366814D01*
X92848848Y-73366810D01*
X92848845Y-73366809D01*
X92570217Y-73292151D01*
X92570211Y-73292150D01*
X92570206Y-73292149D01*
X92284238Y-73254501D01*
X92284233Y-73254500D01*
X92284228Y-73254500D01*
X91995772Y-73254500D01*
X91995766Y-73254500D01*
X91995761Y-73254501D01*
X91709793Y-73292149D01*
X91709786Y-73292150D01*
X91709783Y-73292151D01*
X91431155Y-73366809D01*
X91431139Y-73366814D01*
X91164663Y-73477191D01*
X91164647Y-73477199D01*
X90914851Y-73621420D01*
X90914835Y-73621431D01*
X90685997Y-73797024D01*
X90685990Y-73797030D01*
X90482030Y-74000990D01*
X90482024Y-74000997D01*
X90306431Y-74229835D01*
X90306420Y-74229851D01*
X90162199Y-74479647D01*
X90162191Y-74479663D01*
X90051814Y-74746139D01*
X90051809Y-74746155D01*
X89991908Y-74969711D01*
X89977152Y-75024780D01*
X89977149Y-75024793D01*
X89939501Y-75310761D01*
X89939500Y-75310778D01*
X89939500Y-75599221D01*
X89939501Y-75599238D01*
X89977149Y-75885206D01*
X89977150Y-75885211D01*
X89977151Y-75885217D01*
X89977152Y-75885219D01*
X90051809Y-76163844D01*
X90051814Y-76163860D01*
X90162191Y-76430336D01*
X90162199Y-76430352D01*
X90306420Y-76680148D01*
X90306431Y-76680164D01*
X90482024Y-76909002D01*
X90482030Y-76909009D01*
X90685989Y-77112968D01*
X90685997Y-77112975D01*
X90799231Y-77199862D01*
X90914844Y-77288575D01*
X90914851Y-77288579D01*
X91164647Y-77432800D01*
X91164663Y-77432808D01*
X91172222Y-77435939D01*
X91226626Y-77479779D01*
X91248691Y-77546074D01*
X91231412Y-77613773D01*
X91180275Y-77661384D01*
X91124770Y-77674500D01*
X76456188Y-77674500D01*
X76389149Y-77654815D01*
X76368507Y-77638181D01*
X75571171Y-76840844D01*
X75537686Y-76779521D01*
X75542670Y-76709829D01*
X75557000Y-76683989D01*
X75556318Y-76683533D01*
X75558564Y-76680169D01*
X75558575Y-76680156D01*
X75702804Y-76430345D01*
X75731203Y-76361785D01*
X75813185Y-76163860D01*
X75813185Y-76163857D01*
X75813191Y-76163845D01*
X75887849Y-75885217D01*
X75925500Y-75599228D01*
X75925500Y-75310772D01*
X75887849Y-75024783D01*
X75813191Y-74746155D01*
X75813186Y-74746145D01*
X75813185Y-74746139D01*
X75702808Y-74479663D01*
X75702800Y-74479647D01*
X75558579Y-74229851D01*
X75558575Y-74229844D01*
X75382974Y-74000996D01*
X75382969Y-74000990D01*
X75179009Y-73797030D01*
X75179002Y-73797024D01*
X74950164Y-73621431D01*
X74950162Y-73621429D01*
X74950156Y-73621425D01*
X74950151Y-73621422D01*
X74950148Y-73621420D01*
X74700352Y-73477199D01*
X74700336Y-73477191D01*
X74433860Y-73366814D01*
X74433848Y-73366810D01*
X74433845Y-73366809D01*
X74155217Y-73292151D01*
X74155211Y-73292150D01*
X74155206Y-73292149D01*
X73869238Y-73254501D01*
X73869233Y-73254500D01*
X73869228Y-73254500D01*
X73580772Y-73254500D01*
X73580766Y-73254500D01*
X73580761Y-73254501D01*
X73294793Y-73292149D01*
X73294786Y-73292150D01*
X73294783Y-73292151D01*
X73016155Y-73366809D01*
X73016139Y-73366814D01*
X72749663Y-73477191D01*
X72749647Y-73477199D01*
X72499851Y-73621420D01*
X72499835Y-73621431D01*
X72270997Y-73797024D01*
X72270990Y-73797030D01*
X72067030Y-74000990D01*
X72067024Y-74000997D01*
X71891431Y-74229835D01*
X71891420Y-74229851D01*
X71747199Y-74479647D01*
X71747191Y-74479663D01*
X71636814Y-74746139D01*
X71636809Y-74746155D01*
X71576908Y-74969711D01*
X71562152Y-75024780D01*
X71562149Y-75024793D01*
X71524501Y-75310761D01*
X71524500Y-75310778D01*
X71524500Y-75599221D01*
X71524501Y-75599238D01*
X71562149Y-75885206D01*
X71562150Y-75885211D01*
X71562151Y-75885217D01*
X71562152Y-75885219D01*
X71636809Y-76163844D01*
X71636814Y-76163860D01*
X71747191Y-76430336D01*
X71747199Y-76430352D01*
X71891420Y-76680148D01*
X71891431Y-76680164D01*
X72067024Y-76909002D01*
X72067030Y-76909009D01*
X72270989Y-77112968D01*
X72270997Y-77112975D01*
X72303120Y-77137624D01*
X72344323Y-77194052D01*
X72348478Y-77263798D01*
X72314266Y-77324718D01*
X72252549Y-77357471D01*
X72227634Y-77360000D01*
X63792366Y-77360000D01*
X63725327Y-77340315D01*
X63679572Y-77287511D01*
X63669628Y-77218353D01*
X63698653Y-77154797D01*
X63716880Y-77137624D01*
X63732500Y-77125638D01*
X63749004Y-77112974D01*
X63749006Y-77112971D01*
X63749011Y-77112968D01*
X63952969Y-76909009D01*
X63952974Y-76909004D01*
X64128575Y-76680156D01*
X64272804Y-76430345D01*
X64301203Y-76361785D01*
X64383185Y-76163860D01*
X64383185Y-76163857D01*
X64383191Y-76163845D01*
X64457849Y-75885217D01*
X64495500Y-75599228D01*
X64495500Y-75310772D01*
X64457849Y-75024783D01*
X64383191Y-74746155D01*
X64383186Y-74746145D01*
X64383185Y-74746139D01*
X64272808Y-74479663D01*
X64272800Y-74479647D01*
X64128579Y-74229851D01*
X64128575Y-74229844D01*
X63952974Y-74000996D01*
X63952969Y-74000990D01*
X63749009Y-73797030D01*
X63749002Y-73797024D01*
X63520164Y-73621431D01*
X63520162Y-73621429D01*
X63520156Y-73621425D01*
X63520151Y-73621422D01*
X63520148Y-73621420D01*
X63270352Y-73477199D01*
X63270336Y-73477191D01*
X63003860Y-73366814D01*
X63003848Y-73366810D01*
X63003845Y-73366809D01*
X62725217Y-73292151D01*
X62725211Y-73292150D01*
X62725206Y-73292149D01*
X62439238Y-73254501D01*
X62439233Y-73254500D01*
X62439228Y-73254500D01*
X62150772Y-73254500D01*
X62150766Y-73254500D01*
X62150761Y-73254501D01*
X61864793Y-73292149D01*
X61864786Y-73292150D01*
X61864783Y-73292151D01*
X61586155Y-73366809D01*
X61586139Y-73366814D01*
X61319663Y-73477191D01*
X61319647Y-73477199D01*
X61069851Y-73621420D01*
X61069835Y-73621431D01*
X60840997Y-73797024D01*
X60840990Y-73797030D01*
X60637030Y-74000990D01*
X60637024Y-74000997D01*
X60461431Y-74229835D01*
X60461420Y-74229851D01*
X60317199Y-74479647D01*
X60317191Y-74479663D01*
X60206814Y-74746139D01*
X60206809Y-74746155D01*
X60146908Y-74969711D01*
X60132152Y-75024780D01*
X60132149Y-75024793D01*
X60094501Y-75310761D01*
X60094500Y-75310778D01*
X60094500Y-75599221D01*
X60094501Y-75599238D01*
X60132149Y-75885206D01*
X60132150Y-75885211D01*
X60132151Y-75885217D01*
X60132152Y-75885219D01*
X60206809Y-76163844D01*
X60206814Y-76163860D01*
X60317191Y-76430336D01*
X60317199Y-76430352D01*
X60461420Y-76680148D01*
X60461431Y-76680164D01*
X60637024Y-76909002D01*
X60637030Y-76909009D01*
X60840989Y-77112968D01*
X60840997Y-77112975D01*
X60873120Y-77137624D01*
X60914323Y-77194052D01*
X60918478Y-77263798D01*
X60884266Y-77324718D01*
X60822549Y-77357471D01*
X60797634Y-77360000D01*
X60310000Y-77360000D01*
X60310000Y-78550500D01*
X60290315Y-78617539D01*
X60237511Y-78663294D01*
X60186000Y-78674500D01*
X47611189Y-78674500D01*
X47544150Y-78654815D01*
X47523508Y-78638181D01*
X45726171Y-76840844D01*
X45692686Y-76779521D01*
X45697670Y-76709829D01*
X45712000Y-76683989D01*
X45711318Y-76683533D01*
X45713564Y-76680169D01*
X45713575Y-76680156D01*
X45857804Y-76430345D01*
X45886203Y-76361785D01*
X45968185Y-76163860D01*
X45968185Y-76163857D01*
X45968191Y-76163845D01*
X46042849Y-75885217D01*
X46080500Y-75599228D01*
X46080500Y-75310772D01*
X46042849Y-75024783D01*
X45968191Y-74746155D01*
X45968186Y-74746145D01*
X45968185Y-74746139D01*
X45857808Y-74479663D01*
X45857800Y-74479647D01*
X45713579Y-74229851D01*
X45713575Y-74229844D01*
X45537974Y-74000996D01*
X45537969Y-74000990D01*
X45334009Y-73797030D01*
X45334002Y-73797024D01*
X45105164Y-73621431D01*
X45105162Y-73621429D01*
X45105156Y-73621425D01*
X45105151Y-73621422D01*
X45105148Y-73621420D01*
X44855352Y-73477199D01*
X44855336Y-73477191D01*
X44588860Y-73366814D01*
X44588848Y-73366810D01*
X44588845Y-73366809D01*
X44310217Y-73292151D01*
X44310211Y-73292150D01*
X44310206Y-73292149D01*
X44024238Y-73254501D01*
X44024233Y-73254500D01*
X44024228Y-73254500D01*
X43735772Y-73254500D01*
X43735766Y-73254500D01*
X43735761Y-73254501D01*
X43449793Y-73292149D01*
X43449786Y-73292150D01*
X43449783Y-73292151D01*
X43171155Y-73366809D01*
X43171139Y-73366814D01*
X42904663Y-73477191D01*
X42904647Y-73477199D01*
X42654851Y-73621420D01*
X42654835Y-73621431D01*
X42425997Y-73797024D01*
X42425990Y-73797030D01*
X42222030Y-74000990D01*
X42222024Y-74000997D01*
X42046431Y-74229835D01*
X42046420Y-74229851D01*
X41902199Y-74479647D01*
X41902191Y-74479663D01*
X41791814Y-74746139D01*
X41791809Y-74746155D01*
X41731908Y-74969711D01*
X41717152Y-75024780D01*
X41717149Y-75024793D01*
X41679501Y-75310761D01*
X41679500Y-75310778D01*
X41679500Y-75599221D01*
X41679501Y-75599238D01*
X41717149Y-75885206D01*
X41717150Y-75885211D01*
X41717151Y-75885217D01*
X41717152Y-75885219D01*
X41791809Y-76163844D01*
X41791814Y-76163860D01*
X41902191Y-76430336D01*
X41902199Y-76430352D01*
X42046420Y-76680148D01*
X42046431Y-76680164D01*
X42222024Y-76909002D01*
X42222030Y-76909009D01*
X42425989Y-77112968D01*
X42425997Y-77112975D01*
X42539231Y-77199862D01*
X42654844Y-77288575D01*
X42654851Y-77288579D01*
X42904647Y-77432800D01*
X42904663Y-77432808D01*
X43171139Y-77543185D01*
X43171145Y-77543186D01*
X43171155Y-77543191D01*
X43449783Y-77617849D01*
X43735772Y-77655500D01*
X43735779Y-77655500D01*
X44024221Y-77655500D01*
X44024228Y-77655500D01*
X44310217Y-77617849D01*
X44588845Y-77543191D01*
X44588857Y-77543185D01*
X44588860Y-77543185D01*
X44855336Y-77432808D01*
X44855339Y-77432806D01*
X44855345Y-77432804D01*
X45105156Y-77288575D01*
X45105169Y-77288564D01*
X45108533Y-77286318D01*
X45109557Y-77287851D01*
X45167698Y-77265294D01*
X45236159Y-77279251D01*
X45265844Y-77301171D01*
X47225138Y-79260465D01*
X47235493Y-79266443D01*
X47238386Y-79268114D01*
X47286601Y-79318682D01*
X47299822Y-79387289D01*
X47273853Y-79452153D01*
X47216938Y-79492681D01*
X47176384Y-79499500D01*
X23503245Y-79499500D01*
X23496756Y-79499330D01*
X23192955Y-79483409D01*
X23180046Y-79482052D01*
X22882793Y-79434971D01*
X22870097Y-79432273D01*
X22579375Y-79354374D01*
X22567032Y-79350363D01*
X22286064Y-79242510D01*
X22274206Y-79237231D01*
X22143585Y-79170676D01*
X22006029Y-79100587D01*
X21994801Y-79094105D01*
X21742384Y-78930183D01*
X21731896Y-78922564D01*
X21497988Y-78733149D01*
X21488343Y-78724464D01*
X21275535Y-78511656D01*
X21266850Y-78502011D01*
X21223713Y-78448741D01*
X21077433Y-78268100D01*
X21069818Y-78257619D01*
X20905891Y-78005192D01*
X20899415Y-77993976D01*
X20762767Y-77725790D01*
X20757489Y-77713935D01*
X20742351Y-77674500D01*
X20649635Y-77432966D01*
X20645625Y-77420624D01*
X20644626Y-77416895D01*
X20567724Y-77129896D01*
X20565028Y-77117206D01*
X20554904Y-77053285D01*
X20517945Y-76819937D01*
X20516591Y-76807061D01*
X20500670Y-76503243D01*
X20500500Y-76496754D01*
X20500500Y-75878711D01*
X22149500Y-75878711D01*
X22149500Y-76121288D01*
X22181161Y-76361785D01*
X22243947Y-76596104D01*
X22319921Y-76779521D01*
X22336776Y-76820212D01*
X22458064Y-77030289D01*
X22458066Y-77030292D01*
X22458067Y-77030293D01*
X22605733Y-77222736D01*
X22605739Y-77222743D01*
X22777256Y-77394260D01*
X22777263Y-77394266D01*
X22831573Y-77435939D01*
X22969711Y-77541936D01*
X23179788Y-77663224D01*
X23403900Y-77756054D01*
X23638211Y-77818838D01*
X23818586Y-77842584D01*
X23878711Y-77850500D01*
X23878712Y-77850500D01*
X24121289Y-77850500D01*
X24169388Y-77844167D01*
X24361789Y-77818838D01*
X24596100Y-77756054D01*
X24820212Y-77663224D01*
X25030289Y-77541936D01*
X25222738Y-77394265D01*
X25394265Y-77222738D01*
X25541936Y-77030289D01*
X25663224Y-76820212D01*
X25756054Y-76596100D01*
X25818838Y-76361789D01*
X25850500Y-76121288D01*
X25850500Y-75878712D01*
X25818838Y-75638211D01*
X25756054Y-75403900D01*
X25756051Y-75403892D01*
X25735454Y-75354165D01*
X25717482Y-75310778D01*
X30249500Y-75310778D01*
X30249500Y-75599221D01*
X30249501Y-75599238D01*
X30287149Y-75885206D01*
X30287150Y-75885211D01*
X30287151Y-75885217D01*
X30287152Y-75885219D01*
X30361809Y-76163844D01*
X30361814Y-76163860D01*
X30472191Y-76430336D01*
X30472199Y-76430352D01*
X30616420Y-76680148D01*
X30616431Y-76680164D01*
X30792024Y-76909002D01*
X30792030Y-76909009D01*
X30995989Y-77112968D01*
X30995997Y-77112975D01*
X31109231Y-77199862D01*
X31224844Y-77288575D01*
X31224851Y-77288579D01*
X31474647Y-77432800D01*
X31474663Y-77432808D01*
X31741139Y-77543185D01*
X31741145Y-77543186D01*
X31741155Y-77543191D01*
X32019783Y-77617849D01*
X32305772Y-77655500D01*
X32305779Y-77655500D01*
X32594221Y-77655500D01*
X32594228Y-77655500D01*
X32880217Y-77617849D01*
X33158845Y-77543191D01*
X33158857Y-77543185D01*
X33158860Y-77543185D01*
X33425336Y-77432808D01*
X33425339Y-77432806D01*
X33425345Y-77432804D01*
X33675156Y-77288575D01*
X33904004Y-77112974D01*
X33904006Y-77112971D01*
X33904011Y-77112968D01*
X34107969Y-76909009D01*
X34107974Y-76909004D01*
X34283575Y-76680156D01*
X34427804Y-76430345D01*
X34456203Y-76361785D01*
X34538185Y-76163860D01*
X34538185Y-76163857D01*
X34538191Y-76163845D01*
X34612849Y-75885217D01*
X34650500Y-75599228D01*
X34650500Y-75310772D01*
X34612849Y-75024783D01*
X34538191Y-74746155D01*
X34538186Y-74746145D01*
X34538185Y-74746139D01*
X34427808Y-74479663D01*
X34427800Y-74479647D01*
X34283579Y-74229851D01*
X34283575Y-74229844D01*
X34107974Y-74000996D01*
X34107969Y-74000990D01*
X33904009Y-73797030D01*
X33904002Y-73797024D01*
X33675164Y-73621431D01*
X33675162Y-73621429D01*
X33675156Y-73621425D01*
X33675151Y-73621422D01*
X33675148Y-73621420D01*
X33425352Y-73477199D01*
X33425336Y-73477191D01*
X33158860Y-73366814D01*
X33158848Y-73366810D01*
X33158845Y-73366809D01*
X32880217Y-73292151D01*
X32880211Y-73292150D01*
X32880206Y-73292149D01*
X32594238Y-73254501D01*
X32594233Y-73254500D01*
X32594228Y-73254500D01*
X32305772Y-73254500D01*
X32305766Y-73254500D01*
X32305761Y-73254501D01*
X32019793Y-73292149D01*
X32019786Y-73292150D01*
X32019783Y-73292151D01*
X31741155Y-73366809D01*
X31741139Y-73366814D01*
X31474663Y-73477191D01*
X31474647Y-73477199D01*
X31224851Y-73621420D01*
X31224835Y-73621431D01*
X30995997Y-73797024D01*
X30995990Y-73797030D01*
X30792030Y-74000990D01*
X30792024Y-74000997D01*
X30616431Y-74229835D01*
X30616420Y-74229851D01*
X30472199Y-74479647D01*
X30472191Y-74479663D01*
X30361814Y-74746139D01*
X30361809Y-74746155D01*
X30301908Y-74969711D01*
X30287152Y-75024780D01*
X30287149Y-75024793D01*
X30249501Y-75310761D01*
X30249500Y-75310778D01*
X25717482Y-75310778D01*
X25663226Y-75179794D01*
X25663224Y-75179788D01*
X25541936Y-74969711D01*
X25394265Y-74777262D01*
X25394260Y-74777256D01*
X25222743Y-74605739D01*
X25222736Y-74605733D01*
X25030293Y-74458067D01*
X25030292Y-74458066D01*
X25030289Y-74458064D01*
X24820212Y-74336776D01*
X24803945Y-74330038D01*
X24596104Y-74243947D01*
X24361785Y-74181161D01*
X24121289Y-74149500D01*
X24121288Y-74149500D01*
X23878712Y-74149500D01*
X23878711Y-74149500D01*
X23638214Y-74181161D01*
X23403895Y-74243947D01*
X23179794Y-74336773D01*
X23179785Y-74336777D01*
X22969706Y-74458067D01*
X22777263Y-74605733D01*
X22777256Y-74605739D01*
X22605739Y-74777256D01*
X22605733Y-74777263D01*
X22458067Y-74969706D01*
X22336777Y-75179785D01*
X22336773Y-75179794D01*
X22243947Y-75403895D01*
X22181161Y-75638214D01*
X22149500Y-75878711D01*
X20500500Y-75878711D01*
X20500500Y-62853543D01*
X21209499Y-62853543D01*
X21247947Y-63046829D01*
X21247950Y-63046839D01*
X21323364Y-63228907D01*
X21323371Y-63228920D01*
X21432860Y-63392781D01*
X21432863Y-63392785D01*
X21572214Y-63532136D01*
X21572218Y-63532139D01*
X21736079Y-63641628D01*
X21736092Y-63641635D01*
X21918160Y-63717049D01*
X21918165Y-63717051D01*
X21918169Y-63717051D01*
X21918170Y-63717052D01*
X22111456Y-63755500D01*
X22111459Y-63755500D01*
X22308543Y-63755500D01*
X22438582Y-63729632D01*
X22501835Y-63717051D01*
X22649188Y-63656016D01*
X22683907Y-63641635D01*
X22683907Y-63641634D01*
X22683914Y-63641632D01*
X22847782Y-63532139D01*
X22987139Y-63392782D01*
X23096632Y-63228914D01*
X23126400Y-63157048D01*
X23170240Y-63102644D01*
X23236534Y-63080579D01*
X23240961Y-63080500D01*
X25721500Y-63080500D01*
X25788539Y-63100185D01*
X25834294Y-63152989D01*
X25845500Y-63204500D01*
X25845500Y-63383752D01*
X25857131Y-63442229D01*
X25857132Y-63442230D01*
X25901447Y-63508552D01*
X25967769Y-63552867D01*
X25967770Y-63552868D01*
X26026247Y-63564499D01*
X26026250Y-63564500D01*
X26026252Y-63564500D01*
X27283750Y-63564500D01*
X27283751Y-63564499D01*
X27298568Y-63561552D01*
X27342229Y-63552868D01*
X27342229Y-63552867D01*
X27342231Y-63552867D01*
X27408552Y-63508552D01*
X27452867Y-63442231D01*
X27452867Y-63442229D01*
X27452868Y-63442229D01*
X27464499Y-63383752D01*
X27464500Y-63383750D01*
X27464500Y-62853543D01*
X44704499Y-62853543D01*
X44742947Y-63046829D01*
X44742950Y-63046839D01*
X44818364Y-63228907D01*
X44818371Y-63228920D01*
X44927860Y-63392781D01*
X44927863Y-63392785D01*
X45067214Y-63532136D01*
X45067218Y-63532139D01*
X45231079Y-63641628D01*
X45231092Y-63641635D01*
X45413160Y-63717049D01*
X45413165Y-63717051D01*
X45413169Y-63717051D01*
X45413170Y-63717052D01*
X45606456Y-63755500D01*
X45606459Y-63755500D01*
X45803543Y-63755500D01*
X45933582Y-63729632D01*
X45996835Y-63717051D01*
X46144188Y-63656016D01*
X46178907Y-63641635D01*
X46178907Y-63641634D01*
X46178914Y-63641632D01*
X46342782Y-63532139D01*
X46482139Y-63392782D01*
X46591632Y-63228914D01*
X46621400Y-63157048D01*
X46665240Y-63102644D01*
X46731534Y-63080579D01*
X46735961Y-63080500D01*
X49216500Y-63080500D01*
X49283539Y-63100185D01*
X49329294Y-63152989D01*
X49340500Y-63204500D01*
X49340500Y-63383752D01*
X49352131Y-63442229D01*
X49352132Y-63442230D01*
X49396447Y-63508552D01*
X49462769Y-63552867D01*
X49462770Y-63552868D01*
X49521247Y-63564499D01*
X49521250Y-63564500D01*
X49521252Y-63564500D01*
X50778750Y-63564500D01*
X50778751Y-63564499D01*
X50793568Y-63561552D01*
X50837229Y-63552868D01*
X50837229Y-63552867D01*
X50837231Y-63552867D01*
X50903552Y-63508552D01*
X50947867Y-63442231D01*
X50947867Y-63442229D01*
X50947868Y-63442229D01*
X50959499Y-63383752D01*
X50959500Y-63383750D01*
X50959500Y-62853543D01*
X68834499Y-62853543D01*
X68872947Y-63046829D01*
X68872950Y-63046839D01*
X68948364Y-63228907D01*
X68948371Y-63228920D01*
X69057860Y-63392781D01*
X69057863Y-63392785D01*
X69197214Y-63532136D01*
X69197218Y-63532139D01*
X69361079Y-63641628D01*
X69361092Y-63641635D01*
X69543160Y-63717049D01*
X69543165Y-63717051D01*
X69543169Y-63717051D01*
X69543170Y-63717052D01*
X69736456Y-63755500D01*
X69736459Y-63755500D01*
X69933543Y-63755500D01*
X70063582Y-63729632D01*
X70126835Y-63717051D01*
X70274188Y-63656016D01*
X70308907Y-63641635D01*
X70308907Y-63641634D01*
X70308914Y-63641632D01*
X70472782Y-63532139D01*
X70612139Y-63392782D01*
X70721632Y-63228914D01*
X70751400Y-63157048D01*
X70795240Y-63102644D01*
X70861534Y-63080579D01*
X70865961Y-63080500D01*
X73346500Y-63080500D01*
X73413539Y-63100185D01*
X73459294Y-63152989D01*
X73470500Y-63204500D01*
X73470500Y-63383752D01*
X73482131Y-63442229D01*
X73482132Y-63442230D01*
X73526447Y-63508552D01*
X73592769Y-63552867D01*
X73592770Y-63552868D01*
X73651247Y-63564499D01*
X73651250Y-63564500D01*
X73651252Y-63564500D01*
X74908750Y-63564500D01*
X74908751Y-63564499D01*
X74923568Y-63561552D01*
X74967229Y-63552868D01*
X74967229Y-63552867D01*
X74967231Y-63552867D01*
X75033552Y-63508552D01*
X75077867Y-63442231D01*
X75077867Y-63442229D01*
X75077868Y-63442229D01*
X75089499Y-63383752D01*
X75089500Y-63383750D01*
X75089500Y-62126249D01*
X75089499Y-62126247D01*
X75077868Y-62067770D01*
X75077867Y-62067769D01*
X75033552Y-62001447D01*
X74967230Y-61957132D01*
X74967229Y-61957131D01*
X74908752Y-61945500D01*
X74908748Y-61945500D01*
X73651252Y-61945500D01*
X73651247Y-61945500D01*
X73592770Y-61957131D01*
X73592769Y-61957132D01*
X73526447Y-62001447D01*
X73482132Y-62067769D01*
X73482131Y-62067770D01*
X73470500Y-62126247D01*
X73470500Y-62305500D01*
X73450815Y-62372539D01*
X73398011Y-62418294D01*
X73346500Y-62429500D01*
X70865961Y-62429500D01*
X70798922Y-62409815D01*
X70753167Y-62357011D01*
X70751400Y-62352952D01*
X70721635Y-62281092D01*
X70721628Y-62281079D01*
X70612139Y-62117218D01*
X70612136Y-62117214D01*
X70472785Y-61977863D01*
X70472781Y-61977860D01*
X70308920Y-61868371D01*
X70308907Y-61868364D01*
X70126839Y-61792950D01*
X70126829Y-61792947D01*
X69933543Y-61754500D01*
X69933541Y-61754500D01*
X69736459Y-61754500D01*
X69736457Y-61754500D01*
X69543170Y-61792947D01*
X69543160Y-61792950D01*
X69361092Y-61868364D01*
X69361079Y-61868371D01*
X69197218Y-61977860D01*
X69197214Y-61977863D01*
X69057863Y-62117214D01*
X69057860Y-62117218D01*
X68948371Y-62281079D01*
X68948364Y-62281092D01*
X68872950Y-62463160D01*
X68872947Y-62463170D01*
X68834500Y-62656456D01*
X68834500Y-62656459D01*
X68834500Y-62853541D01*
X68834500Y-62853543D01*
X68834499Y-62853543D01*
X50959500Y-62853543D01*
X50959500Y-62126249D01*
X50959499Y-62126247D01*
X50947868Y-62067770D01*
X50947867Y-62067769D01*
X50903552Y-62001447D01*
X50837230Y-61957132D01*
X50837229Y-61957131D01*
X50778752Y-61945500D01*
X50778748Y-61945500D01*
X49521252Y-61945500D01*
X49521247Y-61945500D01*
X49462770Y-61957131D01*
X49462769Y-61957132D01*
X49396447Y-62001447D01*
X49352132Y-62067769D01*
X49352131Y-62067770D01*
X49340500Y-62126247D01*
X49340500Y-62305500D01*
X49320815Y-62372539D01*
X49268011Y-62418294D01*
X49216500Y-62429500D01*
X46735961Y-62429500D01*
X46668922Y-62409815D01*
X46623167Y-62357011D01*
X46621400Y-62352952D01*
X46591635Y-62281092D01*
X46591628Y-62281079D01*
X46482139Y-62117218D01*
X46482136Y-62117214D01*
X46342785Y-61977863D01*
X46342781Y-61977860D01*
X46178920Y-61868371D01*
X46178907Y-61868364D01*
X45996839Y-61792950D01*
X45996829Y-61792947D01*
X45803543Y-61754500D01*
X45803541Y-61754500D01*
X45606459Y-61754500D01*
X45606457Y-61754500D01*
X45413170Y-61792947D01*
X45413160Y-61792950D01*
X45231092Y-61868364D01*
X45231079Y-61868371D01*
X45067218Y-61977860D01*
X45067214Y-61977863D01*
X44927863Y-62117214D01*
X44927860Y-62117218D01*
X44818371Y-62281079D01*
X44818364Y-62281092D01*
X44742950Y-62463160D01*
X44742947Y-62463170D01*
X44704500Y-62656456D01*
X44704500Y-62656459D01*
X44704500Y-62853541D01*
X44704500Y-62853543D01*
X44704499Y-62853543D01*
X27464500Y-62853543D01*
X27464500Y-62126249D01*
X27464499Y-62126247D01*
X27452868Y-62067770D01*
X27452867Y-62067769D01*
X27408552Y-62001447D01*
X27342230Y-61957132D01*
X27342229Y-61957131D01*
X27283752Y-61945500D01*
X27283748Y-61945500D01*
X26026252Y-61945500D01*
X26026247Y-61945500D01*
X25967770Y-61957131D01*
X25967769Y-61957132D01*
X25901447Y-62001447D01*
X25857132Y-62067769D01*
X25857131Y-62067770D01*
X25845500Y-62126247D01*
X25845500Y-62305500D01*
X25825815Y-62372539D01*
X25773011Y-62418294D01*
X25721500Y-62429500D01*
X23240961Y-62429500D01*
X23173922Y-62409815D01*
X23128167Y-62357011D01*
X23126400Y-62352952D01*
X23096635Y-62281092D01*
X23096628Y-62281079D01*
X22987139Y-62117218D01*
X22987136Y-62117214D01*
X22847785Y-61977863D01*
X22847781Y-61977860D01*
X22683920Y-61868371D01*
X22683907Y-61868364D01*
X22501839Y-61792950D01*
X22501829Y-61792947D01*
X22308543Y-61754500D01*
X22308541Y-61754500D01*
X22111459Y-61754500D01*
X22111457Y-61754500D01*
X21918170Y-61792947D01*
X21918160Y-61792950D01*
X21736092Y-61868364D01*
X21736079Y-61868371D01*
X21572218Y-61977860D01*
X21572214Y-61977863D01*
X21432863Y-62117214D01*
X21432860Y-62117218D01*
X21323371Y-62281079D01*
X21323364Y-62281092D01*
X21247950Y-62463160D01*
X21247947Y-62463170D01*
X21209500Y-62656456D01*
X21209500Y-62656459D01*
X21209500Y-62853541D01*
X21209500Y-62853543D01*
X21209499Y-62853543D01*
X20500500Y-62853543D01*
X20500500Y-60135266D01*
X25845500Y-60135266D01*
X25845500Y-60294733D01*
X25876606Y-60451114D01*
X25876608Y-60451122D01*
X25937628Y-60598439D01*
X25937633Y-60598448D01*
X26026219Y-60731025D01*
X26026222Y-60731029D01*
X26138970Y-60843777D01*
X26138974Y-60843780D01*
X26271551Y-60932366D01*
X26271557Y-60932369D01*
X26271558Y-60932370D01*
X26418878Y-60993392D01*
X26572094Y-61023868D01*
X26575266Y-61024499D01*
X26575270Y-61024500D01*
X26575271Y-61024500D01*
X26734730Y-61024500D01*
X26734731Y-61024499D01*
X26891122Y-60993392D01*
X27038442Y-60932370D01*
X27171026Y-60843780D01*
X27283780Y-60731026D01*
X27372370Y-60598442D01*
X27433392Y-60451122D01*
X27464500Y-60294729D01*
X27464500Y-60135271D01*
X27464499Y-60135266D01*
X49340500Y-60135266D01*
X49340500Y-60294733D01*
X49371606Y-60451114D01*
X49371608Y-60451122D01*
X49432628Y-60598439D01*
X49432633Y-60598448D01*
X49521219Y-60731025D01*
X49521222Y-60731029D01*
X49633970Y-60843777D01*
X49633974Y-60843780D01*
X49766551Y-60932366D01*
X49766557Y-60932369D01*
X49766558Y-60932370D01*
X49913878Y-60993392D01*
X50067094Y-61023868D01*
X50070266Y-61024499D01*
X50070270Y-61024500D01*
X50070271Y-61024500D01*
X50229730Y-61024500D01*
X50229731Y-61024499D01*
X50386122Y-60993392D01*
X50533442Y-60932370D01*
X50666026Y-60843780D01*
X50778780Y-60731026D01*
X50867370Y-60598442D01*
X50928392Y-60451122D01*
X50959500Y-60294729D01*
X50959500Y-60135271D01*
X50959499Y-60135266D01*
X73470500Y-60135266D01*
X73470500Y-60294733D01*
X73501606Y-60451114D01*
X73501608Y-60451122D01*
X73562628Y-60598439D01*
X73562633Y-60598448D01*
X73651219Y-60731025D01*
X73651222Y-60731029D01*
X73763970Y-60843777D01*
X73763974Y-60843780D01*
X73896551Y-60932366D01*
X73896557Y-60932369D01*
X73896558Y-60932370D01*
X74043878Y-60993392D01*
X74197094Y-61023868D01*
X74200266Y-61024499D01*
X74200270Y-61024500D01*
X74200271Y-61024500D01*
X74359730Y-61024500D01*
X74359731Y-61024499D01*
X74516122Y-60993392D01*
X74663442Y-60932370D01*
X74796026Y-60843780D01*
X74908780Y-60731026D01*
X74944059Y-60678227D01*
X74999264Y-60595609D01*
X75052877Y-60550804D01*
X75102366Y-60540500D01*
X77497851Y-60540500D01*
X77497853Y-60540500D01*
X77580639Y-60518318D01*
X77654862Y-60475465D01*
X87077896Y-51052428D01*
X87139217Y-51018945D01*
X87208909Y-51023929D01*
X87212964Y-51025524D01*
X87308580Y-51065130D01*
X87443907Y-51092048D01*
X87511530Y-51105499D01*
X87511534Y-51105500D01*
X87511535Y-51105500D01*
X87718466Y-51105500D01*
X87718467Y-51105499D01*
X87921420Y-51065130D01*
X88112598Y-50985941D01*
X88284655Y-50870977D01*
X88430977Y-50724655D01*
X88545941Y-50552598D01*
X88625130Y-50361420D01*
X88665500Y-50158465D01*
X88665500Y-49951535D01*
X88625130Y-49748580D01*
X88545941Y-49557402D01*
X88430977Y-49385345D01*
X88430975Y-49385342D01*
X88284657Y-49239024D01*
X88198626Y-49181541D01*
X88112598Y-49124059D01*
X87921420Y-49044870D01*
X87921412Y-49044868D01*
X87718469Y-49004500D01*
X87718465Y-49004500D01*
X87511535Y-49004500D01*
X87511530Y-49004500D01*
X87308587Y-49044868D01*
X87308579Y-49044870D01*
X87117403Y-49124058D01*
X86945342Y-49239024D01*
X86799024Y-49385342D01*
X86684058Y-49557403D01*
X86604870Y-49748579D01*
X86604868Y-49748587D01*
X86564500Y-49951530D01*
X86564500Y-50158469D01*
X86604868Y-50361412D01*
X86604871Y-50361424D01*
X86644448Y-50456971D01*
X86651917Y-50526440D01*
X86620642Y-50588919D01*
X86617568Y-50592104D01*
X77356492Y-59853181D01*
X77295169Y-59886666D01*
X77268811Y-59889500D01*
X75102366Y-59889500D01*
X75035327Y-59869815D01*
X74999264Y-59834391D01*
X74908780Y-59698974D01*
X74908777Y-59698970D01*
X74796029Y-59586222D01*
X74796025Y-59586219D01*
X74663448Y-59497633D01*
X74663439Y-59497628D01*
X74516122Y-59436608D01*
X74516114Y-59436606D01*
X74359733Y-59405500D01*
X74359729Y-59405500D01*
X74200271Y-59405500D01*
X74200266Y-59405500D01*
X74043885Y-59436606D01*
X74043877Y-59436608D01*
X73896560Y-59497628D01*
X73896551Y-59497633D01*
X73763974Y-59586219D01*
X73763970Y-59586222D01*
X73651222Y-59698970D01*
X73651219Y-59698974D01*
X73562633Y-59831551D01*
X73562628Y-59831560D01*
X73501608Y-59978877D01*
X73501606Y-59978885D01*
X73470500Y-60135266D01*
X50959499Y-60135266D01*
X50928392Y-59978878D01*
X50928344Y-59978762D01*
X50927570Y-59974732D01*
X50930875Y-59940350D01*
X50933954Y-59905943D01*
X50934222Y-59905533D01*
X50934256Y-59905183D01*
X50935424Y-59903698D01*
X50961661Y-59863664D01*
X57496783Y-53328543D01*
X73279499Y-53328543D01*
X73317947Y-53521829D01*
X73317950Y-53521839D01*
X73393364Y-53703907D01*
X73393371Y-53703920D01*
X73502860Y-53867781D01*
X73502863Y-53867785D01*
X73642217Y-54007139D01*
X73703764Y-54048263D01*
X73806086Y-54116632D01*
X73877953Y-54146399D01*
X73932355Y-54190239D01*
X73954421Y-54256533D01*
X73954500Y-54260960D01*
X73954500Y-56852635D01*
X73934815Y-56919674D01*
X73899391Y-56955737D01*
X73763974Y-57046219D01*
X73763970Y-57046222D01*
X73651222Y-57158970D01*
X73651219Y-57158974D01*
X73562633Y-57291551D01*
X73562628Y-57291560D01*
X73501608Y-57438877D01*
X73501606Y-57438885D01*
X73470500Y-57595266D01*
X73470500Y-57754733D01*
X73501606Y-57911114D01*
X73501608Y-57911122D01*
X73562628Y-58058439D01*
X73562633Y-58058448D01*
X73651219Y-58191025D01*
X73651222Y-58191029D01*
X73763970Y-58303777D01*
X73763974Y-58303780D01*
X73896551Y-58392366D01*
X73896557Y-58392369D01*
X73896558Y-58392370D01*
X74043878Y-58453392D01*
X74200266Y-58484499D01*
X74200270Y-58484500D01*
X74200271Y-58484500D01*
X74359730Y-58484500D01*
X74359731Y-58484499D01*
X74516122Y-58453392D01*
X74663442Y-58392370D01*
X74796026Y-58303780D01*
X74908780Y-58191026D01*
X74997370Y-58058442D01*
X75058392Y-57911122D01*
X75089500Y-57754729D01*
X75089500Y-57595271D01*
X75058392Y-57438878D01*
X74997370Y-57291558D01*
X74997369Y-57291557D01*
X74997366Y-57291551D01*
X74908780Y-57158974D01*
X74908777Y-57158970D01*
X74796029Y-57046222D01*
X74796025Y-57046219D01*
X74660609Y-56955737D01*
X74615804Y-56902125D01*
X74605500Y-56852635D01*
X74605500Y-54260960D01*
X74625185Y-54193921D01*
X74677989Y-54148166D01*
X74682005Y-54146417D01*
X74753914Y-54116632D01*
X74917782Y-54007139D01*
X75057139Y-53867782D01*
X75166632Y-53703914D01*
X75242051Y-53521835D01*
X75272759Y-53367458D01*
X75280500Y-53328543D01*
X75280500Y-53131456D01*
X75242052Y-52938170D01*
X75242051Y-52938169D01*
X75242051Y-52938165D01*
X75242049Y-52938160D01*
X75166635Y-52756092D01*
X75166628Y-52756079D01*
X75057139Y-52592218D01*
X75057136Y-52592214D01*
X74917785Y-52452863D01*
X74917781Y-52452860D01*
X74753920Y-52343371D01*
X74753907Y-52343364D01*
X74571839Y-52267950D01*
X74571829Y-52267947D01*
X74378543Y-52229500D01*
X74378541Y-52229500D01*
X74181459Y-52229500D01*
X74181457Y-52229500D01*
X73988170Y-52267947D01*
X73988160Y-52267950D01*
X73806092Y-52343364D01*
X73806079Y-52343371D01*
X73642218Y-52452860D01*
X73642214Y-52452863D01*
X73502863Y-52592214D01*
X73502860Y-52592218D01*
X73393371Y-52756079D01*
X73393364Y-52756092D01*
X73317950Y-52938160D01*
X73317947Y-52938170D01*
X73279500Y-53131456D01*
X73279500Y-53131459D01*
X73279500Y-53328541D01*
X73279500Y-53328543D01*
X73279499Y-53328543D01*
X57496783Y-53328543D01*
X60408507Y-50416819D01*
X60469830Y-50383334D01*
X60496188Y-50380500D01*
X62399919Y-50380500D01*
X62466958Y-50400185D01*
X62512713Y-50452989D01*
X62514480Y-50457047D01*
X62554057Y-50552596D01*
X62669024Y-50724657D01*
X62815342Y-50870975D01*
X62815345Y-50870977D01*
X62987402Y-50985941D01*
X63178580Y-51065130D01*
X63313907Y-51092048D01*
X63381530Y-51105499D01*
X63381534Y-51105500D01*
X63381535Y-51105500D01*
X63588466Y-51105500D01*
X63588467Y-51105499D01*
X63791420Y-51065130D01*
X63982598Y-50985941D01*
X64154655Y-50870977D01*
X64237089Y-50788543D01*
X73279499Y-50788543D01*
X73317947Y-50981829D01*
X73317950Y-50981839D01*
X73393364Y-51163907D01*
X73393371Y-51163920D01*
X73502860Y-51327781D01*
X73502863Y-51327785D01*
X73642214Y-51467136D01*
X73642218Y-51467139D01*
X73806079Y-51576628D01*
X73806092Y-51576635D01*
X73988160Y-51652049D01*
X73988165Y-51652051D01*
X73988169Y-51652051D01*
X73988170Y-51652052D01*
X74181456Y-51690500D01*
X74181459Y-51690500D01*
X74378543Y-51690500D01*
X74508582Y-51664632D01*
X74571835Y-51652051D01*
X74753914Y-51576632D01*
X74917782Y-51467139D01*
X75057139Y-51327782D01*
X75166632Y-51163914D01*
X75196400Y-51092048D01*
X75240240Y-51037644D01*
X75306534Y-51015579D01*
X75310961Y-51015500D01*
X84482851Y-51015500D01*
X84482853Y-51015500D01*
X84565639Y-50993318D01*
X84639862Y-50950465D01*
X87077895Y-48512430D01*
X87139218Y-48478946D01*
X87208910Y-48483930D01*
X87213023Y-48485548D01*
X87308580Y-48525130D01*
X87511530Y-48565499D01*
X87511534Y-48565500D01*
X87511535Y-48565500D01*
X87718466Y-48565500D01*
X87718467Y-48565499D01*
X87921420Y-48525130D01*
X88112598Y-48445941D01*
X88284655Y-48330977D01*
X88430977Y-48184655D01*
X88545941Y-48012598D01*
X88585520Y-47917047D01*
X88629361Y-47862644D01*
X88695655Y-47840579D01*
X88700081Y-47840500D01*
X93793252Y-47840500D01*
X93860291Y-47860185D01*
X93880933Y-47876819D01*
X99921363Y-53917248D01*
X99954848Y-53978571D01*
X99949864Y-54048263D01*
X99941069Y-54066929D01*
X99831899Y-54256016D01*
X99831894Y-54256027D01*
X99734053Y-54492236D01*
X99734050Y-54492246D01*
X99667874Y-54739220D01*
X99634500Y-54992708D01*
X99634500Y-55248409D01*
X99648451Y-55354369D01*
X99667874Y-55501899D01*
X99731786Y-55740421D01*
X99734050Y-55748871D01*
X99734053Y-55748881D01*
X99831894Y-55985090D01*
X99831899Y-55985101D01*
X99959734Y-56206516D01*
X99959745Y-56206532D01*
X100115388Y-56409370D01*
X100115394Y-56409377D01*
X100296181Y-56590164D01*
X100296187Y-56590169D01*
X100499035Y-56745820D01*
X100499042Y-56745824D01*
X100720457Y-56873659D01*
X100720462Y-56873661D01*
X100720465Y-56873663D01*
X100956687Y-56971509D01*
X101203660Y-57037685D01*
X101445760Y-57069558D01*
X101448505Y-57069920D01*
X101457157Y-57071059D01*
X101457164Y-57071059D01*
X101712836Y-57071059D01*
X101712843Y-57071059D01*
X101966340Y-57037685D01*
X102213313Y-56971509D01*
X102449535Y-56873663D01*
X102670965Y-56745820D01*
X102873813Y-56590169D01*
X103054610Y-56409372D01*
X103210261Y-56206524D01*
X103338104Y-55985094D01*
X103435950Y-55748872D01*
X103502126Y-55501899D01*
X103535500Y-55248402D01*
X103535500Y-54992716D01*
X103502126Y-54739219D01*
X103435950Y-54492246D01*
X103338104Y-54256024D01*
X103338102Y-54256021D01*
X103338100Y-54256016D01*
X103210265Y-54034601D01*
X103210261Y-54034594D01*
X103082264Y-53867785D01*
X103054611Y-53831747D01*
X103054605Y-53831740D01*
X102873818Y-53650953D01*
X102873811Y-53650947D01*
X102670973Y-53495304D01*
X102670971Y-53495302D01*
X102670965Y-53495298D01*
X102670960Y-53495295D01*
X102670957Y-53495293D01*
X102449542Y-53367458D01*
X102449531Y-53367453D01*
X102213322Y-53269612D01*
X102213315Y-53269610D01*
X102213313Y-53269609D01*
X101966340Y-53203433D01*
X101910007Y-53196016D01*
X101712850Y-53170059D01*
X101712843Y-53170059D01*
X101457157Y-53170059D01*
X101457149Y-53170059D01*
X101231826Y-53199724D01*
X101203660Y-53203433D01*
X100956687Y-53269609D01*
X100956677Y-53269612D01*
X100720468Y-53367453D01*
X100720457Y-53367458D01*
X100531370Y-53476628D01*
X100463470Y-53493101D01*
X100397443Y-53470248D01*
X100381689Y-53456922D01*
X97308101Y-50383334D01*
X94179303Y-47254535D01*
X94142191Y-47233108D01*
X94105081Y-47211682D01*
X94063687Y-47200591D01*
X94022294Y-47189500D01*
X94022293Y-47189500D01*
X88700081Y-47189500D01*
X88633042Y-47169815D01*
X88587287Y-47117011D01*
X88585520Y-47112953D01*
X88545942Y-47017403D01*
X88430975Y-46845342D01*
X88284657Y-46699024D01*
X88198626Y-46641541D01*
X88112598Y-46584059D01*
X87921420Y-46504870D01*
X87921412Y-46504868D01*
X87718469Y-46464500D01*
X87718465Y-46464500D01*
X87511535Y-46464500D01*
X87511530Y-46464500D01*
X87308587Y-46504868D01*
X87308579Y-46504870D01*
X87117403Y-46584058D01*
X86945342Y-46699024D01*
X86799024Y-46845342D01*
X86684058Y-47017403D01*
X86604870Y-47208579D01*
X86604868Y-47208587D01*
X86564500Y-47411530D01*
X86564500Y-47618469D01*
X86604868Y-47821412D01*
X86604870Y-47821420D01*
X86644448Y-47916969D01*
X86651917Y-47986438D01*
X86620642Y-48048918D01*
X86617568Y-48052103D01*
X84341492Y-50328181D01*
X84280169Y-50361666D01*
X84253811Y-50364500D01*
X75310961Y-50364500D01*
X75243922Y-50344815D01*
X75198167Y-50292011D01*
X75196400Y-50287952D01*
X75166635Y-50216092D01*
X75166628Y-50216079D01*
X75057139Y-50052218D01*
X75057136Y-50052214D01*
X74917785Y-49912863D01*
X74917781Y-49912860D01*
X74753920Y-49803371D01*
X74753907Y-49803364D01*
X74571839Y-49727950D01*
X74571829Y-49727947D01*
X74378543Y-49689500D01*
X74378541Y-49689500D01*
X74181459Y-49689500D01*
X74181457Y-49689500D01*
X73988170Y-49727947D01*
X73988160Y-49727950D01*
X73806092Y-49803364D01*
X73806079Y-49803371D01*
X73642218Y-49912860D01*
X73642214Y-49912863D01*
X73502863Y-50052214D01*
X73502860Y-50052218D01*
X73393371Y-50216079D01*
X73393364Y-50216092D01*
X73317950Y-50398160D01*
X73317947Y-50398170D01*
X73279500Y-50591456D01*
X73279500Y-50591459D01*
X73279500Y-50788541D01*
X73279500Y-50788543D01*
X73279499Y-50788543D01*
X64237089Y-50788543D01*
X64300977Y-50724655D01*
X64415941Y-50552598D01*
X64418642Y-50546076D01*
X64422025Y-50537912D01*
X64457201Y-50452989D01*
X64495130Y-50361420D01*
X64535500Y-50158465D01*
X64535500Y-49951535D01*
X64495130Y-49748580D01*
X64415941Y-49557402D01*
X64300977Y-49385345D01*
X64300975Y-49385342D01*
X64154657Y-49239024D01*
X64068626Y-49181541D01*
X63982598Y-49124059D01*
X63791420Y-49044870D01*
X63791412Y-49044868D01*
X63588469Y-49004500D01*
X63588465Y-49004500D01*
X63381535Y-49004500D01*
X63381530Y-49004500D01*
X63178587Y-49044868D01*
X63178579Y-49044870D01*
X62987403Y-49124058D01*
X62815342Y-49239024D01*
X62669024Y-49385342D01*
X62554057Y-49557403D01*
X62514480Y-49652953D01*
X62470639Y-49707356D01*
X62404345Y-49729421D01*
X62399919Y-49729500D01*
X60267147Y-49729500D01*
X60184361Y-49751682D01*
X60184358Y-49751683D01*
X60147250Y-49773107D01*
X60147250Y-49773108D01*
X60118992Y-49789423D01*
X60110138Y-49794535D01*
X60110135Y-49794537D01*
X60049533Y-49855140D01*
X50501335Y-59403336D01*
X50440012Y-59436821D01*
X50389463Y-59437272D01*
X50229733Y-59405500D01*
X50229729Y-59405500D01*
X50070271Y-59405500D01*
X50070266Y-59405500D01*
X49913885Y-59436606D01*
X49913877Y-59436608D01*
X49766560Y-59497628D01*
X49766551Y-59497633D01*
X49633974Y-59586219D01*
X49633970Y-59586222D01*
X49521222Y-59698970D01*
X49521219Y-59698974D01*
X49432633Y-59831551D01*
X49432628Y-59831560D01*
X49371608Y-59978877D01*
X49371606Y-59978885D01*
X49340500Y-60135266D01*
X27464499Y-60135266D01*
X27433392Y-59978878D01*
X27433344Y-59978762D01*
X27432570Y-59974732D01*
X27435875Y-59940350D01*
X27438954Y-59905943D01*
X27439222Y-59905533D01*
X27439256Y-59905183D01*
X27440424Y-59903698D01*
X27466661Y-59863664D01*
X29455465Y-57874862D01*
X29498317Y-57800639D01*
X29498318Y-57800638D01*
X29520500Y-57717853D01*
X29520500Y-53328543D01*
X49149499Y-53328543D01*
X49187947Y-53521829D01*
X49187950Y-53521839D01*
X49263364Y-53703907D01*
X49263371Y-53703920D01*
X49372860Y-53867781D01*
X49372863Y-53867785D01*
X49512217Y-54007139D01*
X49573764Y-54048263D01*
X49676086Y-54116632D01*
X49747953Y-54146399D01*
X49802355Y-54190239D01*
X49824421Y-54256533D01*
X49824500Y-54260960D01*
X49824500Y-56852635D01*
X49804815Y-56919674D01*
X49769391Y-56955737D01*
X49633974Y-57046219D01*
X49633970Y-57046222D01*
X49521222Y-57158970D01*
X49521219Y-57158974D01*
X49432633Y-57291551D01*
X49432628Y-57291560D01*
X49371608Y-57438877D01*
X49371606Y-57438885D01*
X49340500Y-57595266D01*
X49340500Y-57754733D01*
X49371606Y-57911114D01*
X49371608Y-57911122D01*
X49432628Y-58058439D01*
X49432633Y-58058448D01*
X49521219Y-58191025D01*
X49521222Y-58191029D01*
X49633970Y-58303777D01*
X49633974Y-58303780D01*
X49766551Y-58392366D01*
X49766557Y-58392369D01*
X49766558Y-58392370D01*
X49913878Y-58453392D01*
X50070266Y-58484499D01*
X50070270Y-58484500D01*
X50070271Y-58484500D01*
X50229730Y-58484500D01*
X50229731Y-58484499D01*
X50386122Y-58453392D01*
X50533442Y-58392370D01*
X50666026Y-58303780D01*
X50778780Y-58191026D01*
X50867370Y-58058442D01*
X50928392Y-57911122D01*
X50959500Y-57754729D01*
X50959500Y-57595271D01*
X50928392Y-57438878D01*
X50867370Y-57291558D01*
X50867369Y-57291557D01*
X50867366Y-57291551D01*
X50778780Y-57158974D01*
X50778777Y-57158970D01*
X50666029Y-57046222D01*
X50666025Y-57046219D01*
X50530609Y-56955737D01*
X50485804Y-56902125D01*
X50475500Y-56852635D01*
X50475500Y-54260960D01*
X50495185Y-54193921D01*
X50547989Y-54148166D01*
X50552005Y-54146417D01*
X50623914Y-54116632D01*
X50787782Y-54007139D01*
X50927139Y-53867782D01*
X51036632Y-53703914D01*
X51112051Y-53521835D01*
X51142759Y-53367458D01*
X51150500Y-53328543D01*
X51150500Y-53131456D01*
X51112052Y-52938170D01*
X51112051Y-52938169D01*
X51112051Y-52938165D01*
X51112049Y-52938160D01*
X51036635Y-52756092D01*
X51036628Y-52756079D01*
X50927139Y-52592218D01*
X50927136Y-52592214D01*
X50787785Y-52452863D01*
X50787781Y-52452860D01*
X50623920Y-52343371D01*
X50623907Y-52343364D01*
X50441839Y-52267950D01*
X50441829Y-52267947D01*
X50248543Y-52229500D01*
X50248541Y-52229500D01*
X50051459Y-52229500D01*
X50051457Y-52229500D01*
X49858170Y-52267947D01*
X49858160Y-52267950D01*
X49676092Y-52343364D01*
X49676079Y-52343371D01*
X49512218Y-52452860D01*
X49512214Y-52452863D01*
X49372863Y-52592214D01*
X49372860Y-52592218D01*
X49263371Y-52756079D01*
X49263364Y-52756092D01*
X49187950Y-52938160D01*
X49187947Y-52938170D01*
X49149500Y-53131456D01*
X49149500Y-53131459D01*
X49149500Y-53328541D01*
X49149500Y-53328543D01*
X49149499Y-53328543D01*
X29520500Y-53328543D01*
X29520500Y-52146188D01*
X29540185Y-52079149D01*
X29556819Y-52058507D01*
X31198507Y-50416819D01*
X31259830Y-50383334D01*
X31286188Y-50380500D01*
X38904919Y-50380500D01*
X38971958Y-50400185D01*
X39017713Y-50452989D01*
X39019480Y-50457047D01*
X39059057Y-50552596D01*
X39174024Y-50724657D01*
X39320342Y-50870975D01*
X39320345Y-50870977D01*
X39492402Y-50985941D01*
X39683580Y-51065130D01*
X39818907Y-51092048D01*
X39886530Y-51105499D01*
X39886534Y-51105500D01*
X39886535Y-51105500D01*
X40093466Y-51105500D01*
X40093467Y-51105499D01*
X40296420Y-51065130D01*
X40487598Y-50985941D01*
X40659655Y-50870977D01*
X40742089Y-50788543D01*
X49149499Y-50788543D01*
X49187947Y-50981829D01*
X49187950Y-50981839D01*
X49263364Y-51163907D01*
X49263371Y-51163920D01*
X49372860Y-51327781D01*
X49372863Y-51327785D01*
X49512214Y-51467136D01*
X49512218Y-51467139D01*
X49676079Y-51576628D01*
X49676092Y-51576635D01*
X49858160Y-51652049D01*
X49858165Y-51652051D01*
X49858169Y-51652051D01*
X49858170Y-51652052D01*
X50051456Y-51690500D01*
X50051459Y-51690500D01*
X50248543Y-51690500D01*
X50378582Y-51664632D01*
X50441835Y-51652051D01*
X50623914Y-51576632D01*
X50787782Y-51467139D01*
X50927139Y-51327782D01*
X51036632Y-51163914D01*
X51066400Y-51092048D01*
X51110240Y-51037644D01*
X51176534Y-51015579D01*
X51180961Y-51015500D01*
X55907851Y-51015500D01*
X55907853Y-51015500D01*
X55990639Y-50993318D01*
X56064862Y-50950465D01*
X59138508Y-47876819D01*
X59199831Y-47843334D01*
X59226189Y-47840500D01*
X62399919Y-47840500D01*
X62466958Y-47860185D01*
X62512713Y-47912989D01*
X62514480Y-47917047D01*
X62554057Y-48012596D01*
X62669024Y-48184657D01*
X62815342Y-48330975D01*
X62815345Y-48330977D01*
X62987402Y-48445941D01*
X63178580Y-48525130D01*
X63381530Y-48565499D01*
X63381534Y-48565500D01*
X63381535Y-48565500D01*
X63588466Y-48565500D01*
X63588467Y-48565499D01*
X63791420Y-48525130D01*
X63982598Y-48445941D01*
X64154655Y-48330977D01*
X64300977Y-48184655D01*
X64415941Y-48012598D01*
X64495130Y-47821420D01*
X64535500Y-47618465D01*
X64535500Y-47411535D01*
X64495130Y-47208580D01*
X64415941Y-47017402D01*
X64300977Y-46845345D01*
X64300975Y-46845342D01*
X64154657Y-46699024D01*
X64068626Y-46641541D01*
X63982598Y-46584059D01*
X63791420Y-46504870D01*
X63791412Y-46504868D01*
X63588469Y-46464500D01*
X63588465Y-46464500D01*
X63381535Y-46464500D01*
X63381530Y-46464500D01*
X63178587Y-46504868D01*
X63178579Y-46504870D01*
X62987403Y-46584058D01*
X62815342Y-46699024D01*
X62669024Y-46845342D01*
X62554057Y-47017403D01*
X62514480Y-47112953D01*
X62470639Y-47167356D01*
X62404345Y-47189421D01*
X62399919Y-47189500D01*
X58997147Y-47189500D01*
X58914359Y-47211682D01*
X58840138Y-47254535D01*
X58840135Y-47254537D01*
X55766492Y-50328181D01*
X55705169Y-50361666D01*
X55678811Y-50364500D01*
X51180961Y-50364500D01*
X51113922Y-50344815D01*
X51068167Y-50292011D01*
X51066400Y-50287952D01*
X51036635Y-50216092D01*
X51036628Y-50216079D01*
X50927139Y-50052218D01*
X50927136Y-50052214D01*
X50787785Y-49912863D01*
X50787781Y-49912860D01*
X50623920Y-49803371D01*
X50623907Y-49803364D01*
X50441839Y-49727950D01*
X50441829Y-49727947D01*
X50248543Y-49689500D01*
X50248541Y-49689500D01*
X50051459Y-49689500D01*
X50051457Y-49689500D01*
X49858170Y-49727947D01*
X49858160Y-49727950D01*
X49676092Y-49803364D01*
X49676079Y-49803371D01*
X49512218Y-49912860D01*
X49512214Y-49912863D01*
X49372863Y-50052214D01*
X49372860Y-50052218D01*
X49263371Y-50216079D01*
X49263364Y-50216092D01*
X49187950Y-50398160D01*
X49187947Y-50398170D01*
X49149500Y-50591456D01*
X49149500Y-50591459D01*
X49149500Y-50788541D01*
X49149500Y-50788543D01*
X49149499Y-50788543D01*
X40742089Y-50788543D01*
X40805977Y-50724655D01*
X40920941Y-50552598D01*
X40923642Y-50546076D01*
X40927025Y-50537912D01*
X40962201Y-50452989D01*
X41000130Y-50361420D01*
X41040500Y-50158465D01*
X41040500Y-49951535D01*
X41000130Y-49748580D01*
X40920941Y-49557402D01*
X40805977Y-49385345D01*
X40805975Y-49385342D01*
X40659657Y-49239024D01*
X40573626Y-49181541D01*
X40487598Y-49124059D01*
X40296420Y-49044870D01*
X40296412Y-49044868D01*
X40093469Y-49004500D01*
X40093465Y-49004500D01*
X39886535Y-49004500D01*
X39886530Y-49004500D01*
X39683587Y-49044868D01*
X39683579Y-49044870D01*
X39492403Y-49124058D01*
X39320342Y-49239024D01*
X39174024Y-49385342D01*
X39059057Y-49557403D01*
X39019480Y-49652953D01*
X38975639Y-49707356D01*
X38909345Y-49729421D01*
X38904919Y-49729500D01*
X31057147Y-49729500D01*
X30974361Y-49751682D01*
X30974358Y-49751683D01*
X30937250Y-49773107D01*
X30937250Y-49773108D01*
X30908992Y-49789423D01*
X30900138Y-49794535D01*
X30900135Y-49794537D01*
X28934537Y-51760135D01*
X28934533Y-51760141D01*
X28891682Y-51834359D01*
X28888725Y-51845399D01*
X28869500Y-51917147D01*
X28869500Y-57488810D01*
X28849815Y-57555849D01*
X28833181Y-57576491D01*
X27006335Y-59403336D01*
X26945012Y-59436821D01*
X26894463Y-59437272D01*
X26734733Y-59405500D01*
X26734729Y-59405500D01*
X26575271Y-59405500D01*
X26575266Y-59405500D01*
X26418885Y-59436606D01*
X26418877Y-59436608D01*
X26271560Y-59497628D01*
X26271551Y-59497633D01*
X26138974Y-59586219D01*
X26138970Y-59586222D01*
X26026222Y-59698970D01*
X26026219Y-59698974D01*
X25937633Y-59831551D01*
X25937628Y-59831560D01*
X25876608Y-59978877D01*
X25876606Y-59978885D01*
X25845500Y-60135266D01*
X20500500Y-60135266D01*
X20500500Y-53328543D01*
X25654499Y-53328543D01*
X25692947Y-53521829D01*
X25692950Y-53521839D01*
X25768364Y-53703907D01*
X25768371Y-53703920D01*
X25877860Y-53867781D01*
X25877863Y-53867785D01*
X26017217Y-54007139D01*
X26078764Y-54048263D01*
X26181086Y-54116632D01*
X26252953Y-54146399D01*
X26307355Y-54190239D01*
X26329421Y-54256533D01*
X26329500Y-54260960D01*
X26329500Y-56852635D01*
X26309815Y-56919674D01*
X26274391Y-56955737D01*
X26138974Y-57046219D01*
X26138970Y-57046222D01*
X26026222Y-57158970D01*
X26026219Y-57158974D01*
X25937633Y-57291551D01*
X25937628Y-57291560D01*
X25876608Y-57438877D01*
X25876606Y-57438885D01*
X25845500Y-57595266D01*
X25845500Y-57754733D01*
X25876606Y-57911114D01*
X25876608Y-57911122D01*
X25937628Y-58058439D01*
X25937633Y-58058448D01*
X26026219Y-58191025D01*
X26026222Y-58191029D01*
X26138970Y-58303777D01*
X26138974Y-58303780D01*
X26271551Y-58392366D01*
X26271557Y-58392369D01*
X26271558Y-58392370D01*
X26418878Y-58453392D01*
X26575266Y-58484499D01*
X26575270Y-58484500D01*
X26575271Y-58484500D01*
X26734730Y-58484500D01*
X26734731Y-58484499D01*
X26891122Y-58453392D01*
X27038442Y-58392370D01*
X27171026Y-58303780D01*
X27283780Y-58191026D01*
X27372370Y-58058442D01*
X27433392Y-57911122D01*
X27464500Y-57754729D01*
X27464500Y-57595271D01*
X27433392Y-57438878D01*
X27372370Y-57291558D01*
X27372369Y-57291557D01*
X27372366Y-57291551D01*
X27283780Y-57158974D01*
X27283777Y-57158970D01*
X27171029Y-57046222D01*
X27171025Y-57046219D01*
X27035609Y-56955737D01*
X26990804Y-56902125D01*
X26980500Y-56852635D01*
X26980500Y-54260960D01*
X27000185Y-54193921D01*
X27052989Y-54148166D01*
X27057005Y-54146417D01*
X27128914Y-54116632D01*
X27292782Y-54007139D01*
X27432139Y-53867782D01*
X27541632Y-53703914D01*
X27617051Y-53521835D01*
X27647759Y-53367458D01*
X27655500Y-53328543D01*
X27655500Y-53131456D01*
X27617052Y-52938170D01*
X27617051Y-52938169D01*
X27617051Y-52938165D01*
X27617049Y-52938160D01*
X27541635Y-52756092D01*
X27541628Y-52756079D01*
X27432139Y-52592218D01*
X27432136Y-52592214D01*
X27292785Y-52452863D01*
X27292781Y-52452860D01*
X27128920Y-52343371D01*
X27128907Y-52343364D01*
X26946839Y-52267950D01*
X26946829Y-52267947D01*
X26753543Y-52229500D01*
X26753541Y-52229500D01*
X26556459Y-52229500D01*
X26556457Y-52229500D01*
X26363170Y-52267947D01*
X26363160Y-52267950D01*
X26181092Y-52343364D01*
X26181079Y-52343371D01*
X26017218Y-52452860D01*
X26017214Y-52452863D01*
X25877863Y-52592214D01*
X25877860Y-52592218D01*
X25768371Y-52756079D01*
X25768364Y-52756092D01*
X25692950Y-52938160D01*
X25692947Y-52938170D01*
X25654500Y-53131456D01*
X25654500Y-53131459D01*
X25654500Y-53328541D01*
X25654500Y-53328543D01*
X25654499Y-53328543D01*
X20500500Y-53328543D01*
X20500500Y-50788543D01*
X25654499Y-50788543D01*
X25692947Y-50981829D01*
X25692950Y-50981839D01*
X25768364Y-51163907D01*
X25768371Y-51163920D01*
X25877860Y-51327781D01*
X25877863Y-51327785D01*
X26017214Y-51467136D01*
X26017218Y-51467139D01*
X26181079Y-51576628D01*
X26181092Y-51576635D01*
X26363160Y-51652049D01*
X26363165Y-51652051D01*
X26363169Y-51652051D01*
X26363170Y-51652052D01*
X26556456Y-51690500D01*
X26556459Y-51690500D01*
X26753543Y-51690500D01*
X26883582Y-51664632D01*
X26946835Y-51652051D01*
X27128914Y-51576632D01*
X27292782Y-51467139D01*
X27432139Y-51327782D01*
X27541632Y-51163914D01*
X27617051Y-50981835D01*
X27655500Y-50788541D01*
X27655500Y-50591459D01*
X27655500Y-50591456D01*
X27617052Y-50398170D01*
X27617051Y-50398169D01*
X27617051Y-50398165D01*
X27587281Y-50326295D01*
X27579813Y-50256828D01*
X27611088Y-50194348D01*
X27614133Y-50191192D01*
X29928508Y-47876819D01*
X29989831Y-47843334D01*
X30016189Y-47840500D01*
X38904919Y-47840500D01*
X38971958Y-47860185D01*
X39017713Y-47912989D01*
X39019480Y-47917047D01*
X39059057Y-48012596D01*
X39174024Y-48184657D01*
X39320342Y-48330975D01*
X39320345Y-48330977D01*
X39492402Y-48445941D01*
X39683580Y-48525130D01*
X39886530Y-48565499D01*
X39886534Y-48565500D01*
X39886535Y-48565500D01*
X40093466Y-48565500D01*
X40093467Y-48565499D01*
X40296420Y-48525130D01*
X40487598Y-48445941D01*
X40659655Y-48330977D01*
X40805977Y-48184655D01*
X40920941Y-48012598D01*
X41000130Y-47821420D01*
X41040500Y-47618465D01*
X41040500Y-47411535D01*
X41000130Y-47208580D01*
X40920941Y-47017402D01*
X40805977Y-46845345D01*
X40805975Y-46845342D01*
X40659657Y-46699024D01*
X40573626Y-46641541D01*
X40487598Y-46584059D01*
X40296420Y-46504870D01*
X40296412Y-46504868D01*
X40093469Y-46464500D01*
X40093465Y-46464500D01*
X39886535Y-46464500D01*
X39886530Y-46464500D01*
X39683587Y-46504868D01*
X39683579Y-46504870D01*
X39492403Y-46584058D01*
X39320342Y-46699024D01*
X39174024Y-46845342D01*
X39059057Y-47017403D01*
X39019480Y-47112953D01*
X38975639Y-47167356D01*
X38909345Y-47189421D01*
X38904919Y-47189500D01*
X29787147Y-47189500D01*
X29704359Y-47211682D01*
X29630138Y-47254535D01*
X29630135Y-47254537D01*
X27153835Y-49730836D01*
X27092512Y-49764321D01*
X27022820Y-49759337D01*
X27018703Y-49757717D01*
X26996660Y-49748587D01*
X26946835Y-49727949D01*
X26946831Y-49727948D01*
X26946828Y-49727947D01*
X26753543Y-49689500D01*
X26753541Y-49689500D01*
X26556459Y-49689500D01*
X26556457Y-49689500D01*
X26363170Y-49727947D01*
X26363160Y-49727950D01*
X26181092Y-49803364D01*
X26181079Y-49803371D01*
X26017218Y-49912860D01*
X26017214Y-49912863D01*
X25877863Y-50052214D01*
X25877860Y-50052218D01*
X25768371Y-50216079D01*
X25768364Y-50216092D01*
X25692950Y-50398160D01*
X25692947Y-50398170D01*
X25654500Y-50591456D01*
X25654500Y-50591459D01*
X25654500Y-50788541D01*
X25654500Y-50788543D01*
X25654499Y-50788543D01*
X20500500Y-50788543D01*
X20500500Y-44871530D01*
X38939500Y-44871530D01*
X38939500Y-45078469D01*
X38979868Y-45281412D01*
X38979870Y-45281420D01*
X39059058Y-45472596D01*
X39174024Y-45644657D01*
X39320342Y-45790975D01*
X39320345Y-45790977D01*
X39492402Y-45905941D01*
X39683580Y-45985130D01*
X39820169Y-46012299D01*
X39886530Y-46025499D01*
X39886534Y-46025500D01*
X39886535Y-46025500D01*
X40093466Y-46025500D01*
X40093467Y-46025499D01*
X40296420Y-45985130D01*
X40487598Y-45905941D01*
X40659655Y-45790977D01*
X40805977Y-45644655D01*
X40920941Y-45472598D01*
X41000130Y-45281420D01*
X41040500Y-45078465D01*
X41040500Y-44871535D01*
X41040499Y-44871530D01*
X62434500Y-44871530D01*
X62434500Y-45078469D01*
X62474868Y-45281412D01*
X62474870Y-45281420D01*
X62554058Y-45472596D01*
X62669024Y-45644657D01*
X62815342Y-45790975D01*
X62815345Y-45790977D01*
X62987402Y-45905941D01*
X63178580Y-45985130D01*
X63315169Y-46012299D01*
X63381530Y-46025499D01*
X63381534Y-46025500D01*
X63381535Y-46025500D01*
X63588466Y-46025500D01*
X63588467Y-46025499D01*
X63791420Y-45985130D01*
X63982598Y-45905941D01*
X64154655Y-45790977D01*
X64300977Y-45644655D01*
X64415941Y-45472598D01*
X64495130Y-45281420D01*
X64535500Y-45078465D01*
X64535500Y-44871535D01*
X64535499Y-44871530D01*
X86564500Y-44871530D01*
X86564500Y-45078469D01*
X86604868Y-45281412D01*
X86604870Y-45281420D01*
X86684058Y-45472596D01*
X86799024Y-45644657D01*
X86945342Y-45790975D01*
X86945345Y-45790977D01*
X87117402Y-45905941D01*
X87308580Y-45985130D01*
X87445169Y-46012299D01*
X87511530Y-46025499D01*
X87511534Y-46025500D01*
X87511535Y-46025500D01*
X87718466Y-46025500D01*
X87718467Y-46025499D01*
X87921420Y-45985130D01*
X88112598Y-45905941D01*
X88284655Y-45790977D01*
X88430977Y-45644655D01*
X88545941Y-45472598D01*
X88625130Y-45281420D01*
X88665500Y-45078465D01*
X88665500Y-44871535D01*
X88625130Y-44668580D01*
X88545941Y-44477402D01*
X88430977Y-44305345D01*
X88430975Y-44305342D01*
X88284657Y-44159024D01*
X88198626Y-44101541D01*
X88112598Y-44044059D01*
X88087753Y-44033768D01*
X87921420Y-43964870D01*
X87921412Y-43964868D01*
X87718469Y-43924500D01*
X87718465Y-43924500D01*
X87511535Y-43924500D01*
X87511530Y-43924500D01*
X87308587Y-43964868D01*
X87308579Y-43964870D01*
X87117403Y-44044058D01*
X86945342Y-44159024D01*
X86799024Y-44305342D01*
X86684058Y-44477403D01*
X86604870Y-44668579D01*
X86604868Y-44668587D01*
X86564500Y-44871530D01*
X64535499Y-44871530D01*
X64495130Y-44668580D01*
X64415941Y-44477402D01*
X64300977Y-44305345D01*
X64300975Y-44305342D01*
X64154657Y-44159024D01*
X64068626Y-44101541D01*
X63982598Y-44044059D01*
X63957753Y-44033768D01*
X63791420Y-43964870D01*
X63791412Y-43964868D01*
X63588469Y-43924500D01*
X63588465Y-43924500D01*
X63381535Y-43924500D01*
X63381530Y-43924500D01*
X63178587Y-43964868D01*
X63178579Y-43964870D01*
X62987403Y-44044058D01*
X62815342Y-44159024D01*
X62669024Y-44305342D01*
X62554058Y-44477403D01*
X62474870Y-44668579D01*
X62474868Y-44668587D01*
X62434500Y-44871530D01*
X41040499Y-44871530D01*
X41000130Y-44668580D01*
X40920941Y-44477402D01*
X40805977Y-44305345D01*
X40805975Y-44305342D01*
X40659657Y-44159024D01*
X40573626Y-44101541D01*
X40487598Y-44044059D01*
X40462753Y-44033768D01*
X40296420Y-43964870D01*
X40296412Y-43964868D01*
X40093469Y-43924500D01*
X40093465Y-43924500D01*
X39886535Y-43924500D01*
X39886530Y-43924500D01*
X39683587Y-43964868D01*
X39683579Y-43964870D01*
X39492403Y-44044058D01*
X39320342Y-44159024D01*
X39174024Y-44305342D01*
X39059058Y-44477403D01*
X38979870Y-44668579D01*
X38979868Y-44668587D01*
X38939500Y-44871530D01*
X20500500Y-44871530D01*
X20500500Y-39788713D01*
X112934500Y-39788713D01*
X112934500Y-40001286D01*
X112967753Y-40211239D01*
X113033444Y-40413414D01*
X113129951Y-40602820D01*
X113254890Y-40774786D01*
X113405213Y-40925109D01*
X113577179Y-41050048D01*
X113577181Y-41050049D01*
X113577184Y-41050051D01*
X113766588Y-41146557D01*
X113968757Y-41212246D01*
X114178713Y-41245500D01*
X114178714Y-41245500D01*
X114391286Y-41245500D01*
X114391287Y-41245500D01*
X114601243Y-41212246D01*
X114803412Y-41146557D01*
X114992816Y-41050051D01*
X115014789Y-41034086D01*
X115164786Y-40925109D01*
X115164788Y-40925106D01*
X115164792Y-40925104D01*
X115315104Y-40774792D01*
X115315106Y-40774788D01*
X115315109Y-40774786D01*
X115440048Y-40602820D01*
X115440047Y-40602820D01*
X115440051Y-40602816D01*
X115536557Y-40413412D01*
X115602246Y-40211243D01*
X115635500Y-40001287D01*
X115635500Y-39788713D01*
X115602246Y-39578757D01*
X115536557Y-39376588D01*
X115440051Y-39187184D01*
X115440049Y-39187181D01*
X115440048Y-39187179D01*
X115315109Y-39015213D01*
X115164786Y-38864890D01*
X114992820Y-38739951D01*
X114803414Y-38643444D01*
X114803413Y-38643443D01*
X114803412Y-38643443D01*
X114601243Y-38577754D01*
X114601241Y-38577753D01*
X114601240Y-38577753D01*
X114439957Y-38552208D01*
X114391287Y-38544500D01*
X114178713Y-38544500D01*
X114130042Y-38552208D01*
X113968760Y-38577753D01*
X113766585Y-38643444D01*
X113577179Y-38739951D01*
X113405213Y-38864890D01*
X113254890Y-39015213D01*
X113129951Y-39187179D01*
X113033444Y-39376585D01*
X112967753Y-39578760D01*
X112934500Y-39788713D01*
X20500500Y-39788713D01*
X20500500Y-37251530D01*
X38939500Y-37251530D01*
X38939500Y-37458469D01*
X38979868Y-37661412D01*
X38979870Y-37661420D01*
X39059058Y-37852596D01*
X39174024Y-38024657D01*
X39320342Y-38170975D01*
X39320345Y-38170977D01*
X39492402Y-38285941D01*
X39683580Y-38365130D01*
X39886530Y-38405499D01*
X39886534Y-38405500D01*
X39886535Y-38405500D01*
X40093466Y-38405500D01*
X40093467Y-38405499D01*
X40296420Y-38365130D01*
X40487598Y-38285941D01*
X40659655Y-38170977D01*
X40805977Y-38024655D01*
X40920941Y-37852598D01*
X41000130Y-37661420D01*
X41040500Y-37458465D01*
X41040500Y-37251535D01*
X41040499Y-37251530D01*
X62434500Y-37251530D01*
X62434500Y-37458469D01*
X62474868Y-37661412D01*
X62474870Y-37661420D01*
X62554058Y-37852596D01*
X62669024Y-38024657D01*
X62815342Y-38170975D01*
X62815345Y-38170977D01*
X62987402Y-38285941D01*
X63178580Y-38365130D01*
X63381530Y-38405499D01*
X63381534Y-38405500D01*
X63381535Y-38405500D01*
X63588466Y-38405500D01*
X63588467Y-38405499D01*
X63791420Y-38365130D01*
X63982598Y-38285941D01*
X64154655Y-38170977D01*
X64300977Y-38024655D01*
X64415941Y-37852598D01*
X64495130Y-37661420D01*
X64535500Y-37458465D01*
X64535500Y-37251535D01*
X64535499Y-37251530D01*
X86564500Y-37251530D01*
X86564500Y-37458469D01*
X86604868Y-37661412D01*
X86604870Y-37661420D01*
X86684058Y-37852596D01*
X86799024Y-38024657D01*
X86945342Y-38170975D01*
X86945345Y-38170977D01*
X87117402Y-38285941D01*
X87308580Y-38365130D01*
X87511530Y-38405499D01*
X87511534Y-38405500D01*
X87511535Y-38405500D01*
X87718466Y-38405500D01*
X87718467Y-38405499D01*
X87921420Y-38365130D01*
X88112598Y-38285941D01*
X88284655Y-38170977D01*
X88430977Y-38024655D01*
X88545941Y-37852598D01*
X88625130Y-37661420D01*
X88665500Y-37458465D01*
X88665500Y-37251535D01*
X88635068Y-37098543D01*
X91499499Y-37098543D01*
X91537947Y-37291829D01*
X91537950Y-37291839D01*
X91613364Y-37473907D01*
X91613371Y-37473920D01*
X91722860Y-37637781D01*
X91722863Y-37637785D01*
X91862214Y-37777136D01*
X91862218Y-37777139D01*
X92026079Y-37886628D01*
X92026092Y-37886635D01*
X92208160Y-37962049D01*
X92208165Y-37962051D01*
X92208169Y-37962051D01*
X92208170Y-37962052D01*
X92401456Y-38000500D01*
X92401459Y-38000500D01*
X92598543Y-38000500D01*
X92728582Y-37974632D01*
X92791835Y-37962051D01*
X92973914Y-37886632D01*
X93137782Y-37777139D01*
X93277139Y-37637782D01*
X93386632Y-37473914D01*
X93393030Y-37458469D01*
X93462049Y-37291839D01*
X93462051Y-37291835D01*
X93500500Y-37098541D01*
X93500500Y-36901459D01*
X93500499Y-36901456D01*
X93494765Y-36872628D01*
X93494765Y-36872626D01*
X93490759Y-36852486D01*
X103779500Y-36852486D01*
X103779500Y-37147513D01*
X103798501Y-37291835D01*
X103818007Y-37439993D01*
X103827096Y-37473914D01*
X103894361Y-37724951D01*
X103894364Y-37724961D01*
X104007254Y-37997500D01*
X104007258Y-37997510D01*
X104154761Y-38252993D01*
X104334352Y-38487040D01*
X104334358Y-38487047D01*
X104542952Y-38695641D01*
X104542959Y-38695647D01*
X104777006Y-38875238D01*
X105032489Y-39022741D01*
X105032490Y-39022741D01*
X105032493Y-39022743D01*
X105305048Y-39135639D01*
X105590007Y-39211993D01*
X105882494Y-39250500D01*
X105882501Y-39250500D01*
X106177499Y-39250500D01*
X106177506Y-39250500D01*
X106469993Y-39211993D01*
X106754952Y-39135639D01*
X107027507Y-39022743D01*
X107282994Y-38875238D01*
X107517042Y-38695646D01*
X107725646Y-38487042D01*
X107905238Y-38252994D01*
X108052743Y-37997507D01*
X108165639Y-37724952D01*
X108241993Y-37439993D01*
X108280500Y-37147506D01*
X108280500Y-36852494D01*
X108241993Y-36560007D01*
X108165639Y-36275048D01*
X108052743Y-36002493D01*
X107905238Y-35747006D01*
X107725646Y-35512958D01*
X107725641Y-35512952D01*
X107517047Y-35304358D01*
X107517040Y-35304352D01*
X107282993Y-35124761D01*
X107027510Y-34977258D01*
X107027500Y-34977254D01*
X106754961Y-34864364D01*
X106754954Y-34864362D01*
X106754952Y-34864361D01*
X106469993Y-34788007D01*
X106467047Y-34787619D01*
X106463304Y-34787126D01*
X106399410Y-34758854D01*
X106360944Y-34700526D01*
X106355500Y-34664188D01*
X106355500Y-34093389D01*
X114469500Y-34093389D01*
X114469500Y-34266611D01*
X114496598Y-34437701D01*
X114550127Y-34602445D01*
X114628768Y-34756788D01*
X114730586Y-34896928D01*
X114853072Y-35019414D01*
X114993212Y-35121232D01*
X115147555Y-35199873D01*
X115312299Y-35253402D01*
X115483389Y-35280500D01*
X115483390Y-35280500D01*
X115656610Y-35280500D01*
X115656611Y-35280500D01*
X115827701Y-35253402D01*
X115992445Y-35199873D01*
X116146788Y-35121232D01*
X116286928Y-35019414D01*
X116409414Y-34896928D01*
X116511232Y-34756788D01*
X116589873Y-34602445D01*
X116643402Y-34437701D01*
X116670500Y-34266611D01*
X116670500Y-34093389D01*
X116643402Y-33922299D01*
X116589873Y-33757555D01*
X116511232Y-33603212D01*
X116409414Y-33463072D01*
X116286928Y-33340586D01*
X116146788Y-33238768D01*
X115992448Y-33160128D01*
X115992445Y-33160127D01*
X115986177Y-33158090D01*
X115928504Y-33118652D01*
X115901308Y-33054292D01*
X115900500Y-33040161D01*
X115900500Y-30130960D01*
X115920185Y-30063921D01*
X115972989Y-30018166D01*
X115977005Y-30016417D01*
X116048914Y-29986632D01*
X116212782Y-29877139D01*
X116352139Y-29737782D01*
X116461632Y-29573914D01*
X116537051Y-29391835D01*
X116575500Y-29198541D01*
X116575500Y-29001459D01*
X116575500Y-29001456D01*
X116537052Y-28808170D01*
X116537051Y-28808169D01*
X116537051Y-28808165D01*
X116523074Y-28774421D01*
X116461635Y-28626092D01*
X116461628Y-28626079D01*
X116352139Y-28462218D01*
X116352136Y-28462214D01*
X116212785Y-28322863D01*
X116212781Y-28322860D01*
X116048920Y-28213371D01*
X116048907Y-28213364D01*
X115866839Y-28137950D01*
X115866829Y-28137947D01*
X115673543Y-28099500D01*
X115673541Y-28099500D01*
X115476459Y-28099500D01*
X115476457Y-28099500D01*
X115283170Y-28137947D01*
X115283160Y-28137950D01*
X115101092Y-28213364D01*
X115101079Y-28213371D01*
X114937218Y-28322860D01*
X114937214Y-28322863D01*
X114797863Y-28462214D01*
X114797860Y-28462218D01*
X114688371Y-28626079D01*
X114688364Y-28626092D01*
X114612950Y-28808160D01*
X114612947Y-28808170D01*
X114574500Y-29001456D01*
X114574500Y-29001459D01*
X114574500Y-29198541D01*
X114574500Y-29198543D01*
X114574499Y-29198543D01*
X114612947Y-29391829D01*
X114612950Y-29391839D01*
X114688364Y-29573907D01*
X114688371Y-29573920D01*
X114797860Y-29737781D01*
X114797863Y-29737785D01*
X114937217Y-29877139D01*
X115091530Y-29980247D01*
X115101086Y-29986632D01*
X115172953Y-30016399D01*
X115227355Y-30060239D01*
X115249421Y-30126533D01*
X115249500Y-30130960D01*
X115249500Y-33036911D01*
X115229815Y-33103950D01*
X115177011Y-33149705D01*
X115163824Y-33154840D01*
X115147554Y-33160127D01*
X114993211Y-33238768D01*
X114913256Y-33296859D01*
X114853072Y-33340586D01*
X114853070Y-33340588D01*
X114853069Y-33340588D01*
X114730588Y-33463069D01*
X114730588Y-33463070D01*
X114730586Y-33463072D01*
X114686859Y-33523256D01*
X114628768Y-33603211D01*
X114550128Y-33757552D01*
X114496597Y-33922302D01*
X114469500Y-34093389D01*
X106355500Y-34093389D01*
X106355500Y-31191188D01*
X106375185Y-31124149D01*
X106391819Y-31103507D01*
X107515079Y-29980247D01*
X108529500Y-29980247D01*
X108529500Y-32019752D01*
X108541131Y-32078229D01*
X108541132Y-32078230D01*
X108585447Y-32144552D01*
X108651769Y-32188867D01*
X108651770Y-32188868D01*
X108710247Y-32200499D01*
X108710250Y-32200500D01*
X108710252Y-32200500D01*
X109649750Y-32200500D01*
X109649751Y-32200499D01*
X109664568Y-32197552D01*
X109708229Y-32188868D01*
X109708229Y-32188867D01*
X109708231Y-32188867D01*
X109774552Y-32144552D01*
X109818867Y-32078231D01*
X109818867Y-32078229D01*
X109818868Y-32078229D01*
X109830499Y-32019752D01*
X109830500Y-32019750D01*
X109830500Y-29980249D01*
X109830499Y-29980247D01*
X109818868Y-29921770D01*
X109818867Y-29921769D01*
X109774552Y-29855447D01*
X109708230Y-29811132D01*
X109708229Y-29811131D01*
X109649752Y-29799500D01*
X109649748Y-29799500D01*
X108710252Y-29799500D01*
X108710247Y-29799500D01*
X108651770Y-29811131D01*
X108651769Y-29811132D01*
X108585447Y-29855447D01*
X108541132Y-29921769D01*
X108541131Y-29921770D01*
X108529500Y-29980247D01*
X107515079Y-29980247D01*
X108033507Y-29461819D01*
X108094830Y-29428334D01*
X108121188Y-29425500D01*
X112004039Y-29425500D01*
X112071078Y-29445185D01*
X112116833Y-29497989D01*
X112118600Y-29502048D01*
X112148364Y-29573907D01*
X112148371Y-29573920D01*
X112257860Y-29737781D01*
X112257863Y-29737785D01*
X112397214Y-29877136D01*
X112397218Y-29877139D01*
X112561079Y-29986628D01*
X112561092Y-29986635D01*
X112738790Y-30060239D01*
X112743165Y-30062051D01*
X112743169Y-30062051D01*
X112743170Y-30062052D01*
X112936456Y-30100500D01*
X112936459Y-30100500D01*
X113133543Y-30100500D01*
X113263582Y-30074632D01*
X113326835Y-30062051D01*
X113508914Y-29986632D01*
X113672782Y-29877139D01*
X113812139Y-29737782D01*
X113921632Y-29573914D01*
X113997051Y-29391835D01*
X114035500Y-29198541D01*
X114035500Y-29001459D01*
X114035500Y-29001456D01*
X113997052Y-28808170D01*
X113997051Y-28808169D01*
X113997051Y-28808165D01*
X113983074Y-28774421D01*
X113921635Y-28626092D01*
X113921628Y-28626079D01*
X113812139Y-28462218D01*
X113812136Y-28462214D01*
X113672785Y-28322863D01*
X113672781Y-28322860D01*
X113508920Y-28213371D01*
X113508907Y-28213364D01*
X113326839Y-28137950D01*
X113326829Y-28137947D01*
X113133543Y-28099500D01*
X113133541Y-28099500D01*
X112936459Y-28099500D01*
X112936457Y-28099500D01*
X112743170Y-28137947D01*
X112743160Y-28137950D01*
X112561092Y-28213364D01*
X112561079Y-28213371D01*
X112397218Y-28322860D01*
X112397214Y-28322863D01*
X112257863Y-28462214D01*
X112257860Y-28462218D01*
X112148371Y-28626079D01*
X112148364Y-28626092D01*
X112118600Y-28697952D01*
X112074760Y-28752356D01*
X112008466Y-28774421D01*
X112004039Y-28774500D01*
X107892147Y-28774500D01*
X107809361Y-28796682D01*
X107809358Y-28796683D01*
X107772250Y-28818107D01*
X107772250Y-28818108D01*
X107735138Y-28839535D01*
X107735135Y-28839537D01*
X105769537Y-30805135D01*
X105769533Y-30805141D01*
X105726681Y-30879361D01*
X105726682Y-30879362D01*
X105704500Y-30962147D01*
X105704500Y-34664188D01*
X105684815Y-34731227D01*
X105632011Y-34776982D01*
X105596696Y-34787126D01*
X105591895Y-34787758D01*
X105590007Y-34788007D01*
X105305048Y-34864361D01*
X105305038Y-34864364D01*
X105032499Y-34977254D01*
X105032489Y-34977258D01*
X104777006Y-35124761D01*
X104542959Y-35304352D01*
X104542952Y-35304358D01*
X104334358Y-35512952D01*
X104334352Y-35512959D01*
X104154761Y-35747006D01*
X104007258Y-36002489D01*
X104007254Y-36002499D01*
X103894364Y-36275038D01*
X103894361Y-36275048D01*
X103823630Y-36539024D01*
X103818008Y-36560004D01*
X103818006Y-36560015D01*
X103779500Y-36852486D01*
X93490759Y-36852486D01*
X93462052Y-36708172D01*
X93462052Y-36708170D01*
X93462051Y-36708165D01*
X93452599Y-36685345D01*
X93386635Y-36526092D01*
X93386628Y-36526079D01*
X93277139Y-36362218D01*
X93277136Y-36362214D01*
X93137785Y-36222863D01*
X93137781Y-36222860D01*
X92973920Y-36113371D01*
X92973907Y-36113364D01*
X92791839Y-36037950D01*
X92791829Y-36037947D01*
X92598543Y-35999500D01*
X92598541Y-35999500D01*
X92401459Y-35999500D01*
X92401457Y-35999500D01*
X92208170Y-36037947D01*
X92208160Y-36037950D01*
X92026092Y-36113364D01*
X92026079Y-36113371D01*
X91862218Y-36222860D01*
X91862214Y-36222863D01*
X91722863Y-36362214D01*
X91722860Y-36362218D01*
X91613371Y-36526079D01*
X91613364Y-36526092D01*
X91537950Y-36708160D01*
X91537947Y-36708170D01*
X91499500Y-36901456D01*
X91499500Y-36901457D01*
X91499500Y-36901459D01*
X91499500Y-37098541D01*
X91499500Y-37098543D01*
X91499499Y-37098543D01*
X88635068Y-37098543D01*
X88625130Y-37048580D01*
X88625128Y-37048575D01*
X88581323Y-36942819D01*
X88545942Y-36857404D01*
X88542665Y-36852500D01*
X88430977Y-36685345D01*
X88430975Y-36685342D01*
X88284657Y-36539024D01*
X88198626Y-36481541D01*
X88112598Y-36424059D01*
X87921420Y-36344870D01*
X87921412Y-36344868D01*
X87718469Y-36304500D01*
X87718465Y-36304500D01*
X87511535Y-36304500D01*
X87511530Y-36304500D01*
X87308587Y-36344868D01*
X87308579Y-36344870D01*
X87117403Y-36424058D01*
X86945342Y-36539024D01*
X86799024Y-36685342D01*
X86684058Y-36857403D01*
X86604870Y-37048579D01*
X86604868Y-37048587D01*
X86564500Y-37251530D01*
X64535499Y-37251530D01*
X64495130Y-37048580D01*
X64415941Y-36857402D01*
X64300977Y-36685345D01*
X64300975Y-36685342D01*
X64154657Y-36539024D01*
X64068626Y-36481541D01*
X63982598Y-36424059D01*
X63791420Y-36344870D01*
X63791412Y-36344868D01*
X63588469Y-36304500D01*
X63588465Y-36304500D01*
X63381535Y-36304500D01*
X63381530Y-36304500D01*
X63178587Y-36344868D01*
X63178579Y-36344870D01*
X62987403Y-36424058D01*
X62815342Y-36539024D01*
X62669024Y-36685342D01*
X62554058Y-36857403D01*
X62474870Y-37048579D01*
X62474868Y-37048587D01*
X62434500Y-37251530D01*
X41040499Y-37251530D01*
X41000130Y-37048580D01*
X40920941Y-36857402D01*
X40805977Y-36685345D01*
X40805975Y-36685342D01*
X40659657Y-36539024D01*
X40573626Y-36481541D01*
X40487598Y-36424059D01*
X40296420Y-36344870D01*
X40296412Y-36344868D01*
X40093469Y-36304500D01*
X40093465Y-36304500D01*
X39886535Y-36304500D01*
X39886530Y-36304500D01*
X39683587Y-36344868D01*
X39683579Y-36344870D01*
X39492403Y-36424058D01*
X39320342Y-36539024D01*
X39174024Y-36685342D01*
X39059058Y-36857403D01*
X38979870Y-37048579D01*
X38979868Y-37048587D01*
X38939500Y-37251530D01*
X20500500Y-37251530D01*
X20500500Y-33945247D01*
X38939500Y-33945247D01*
X38939500Y-35684752D01*
X38951131Y-35743229D01*
X38951132Y-35743230D01*
X38995447Y-35809552D01*
X39061769Y-35853867D01*
X39061770Y-35853868D01*
X39120247Y-35865499D01*
X39120250Y-35865500D01*
X39120252Y-35865500D01*
X40859750Y-35865500D01*
X40859751Y-35865499D01*
X40874568Y-35862552D01*
X40918229Y-35853868D01*
X40918229Y-35853867D01*
X40918231Y-35853867D01*
X40984552Y-35809552D01*
X41028867Y-35743231D01*
X41028867Y-35743229D01*
X41028868Y-35743229D01*
X41040499Y-35684752D01*
X41040500Y-35684750D01*
X41040500Y-33945249D01*
X41040499Y-33945247D01*
X62434500Y-33945247D01*
X62434500Y-35684752D01*
X62446131Y-35743229D01*
X62446132Y-35743230D01*
X62490447Y-35809552D01*
X62556769Y-35853867D01*
X62556770Y-35853868D01*
X62615247Y-35865499D01*
X62615250Y-35865500D01*
X62615252Y-35865500D01*
X64354750Y-35865500D01*
X64354751Y-35865499D01*
X64369568Y-35862552D01*
X64413229Y-35853868D01*
X64413229Y-35853867D01*
X64413231Y-35853867D01*
X64479552Y-35809552D01*
X64523867Y-35743231D01*
X64523867Y-35743229D01*
X64523868Y-35743229D01*
X64535499Y-35684752D01*
X64535500Y-35684750D01*
X64535500Y-33945249D01*
X64535499Y-33945247D01*
X86564500Y-33945247D01*
X86564500Y-35684752D01*
X86576131Y-35743229D01*
X86576132Y-35743230D01*
X86620447Y-35809552D01*
X86686769Y-35853867D01*
X86686770Y-35853868D01*
X86745247Y-35865499D01*
X86745250Y-35865500D01*
X86745252Y-35865500D01*
X88484750Y-35865500D01*
X88484751Y-35865499D01*
X88499568Y-35862552D01*
X88543229Y-35853868D01*
X88543229Y-35853867D01*
X88543231Y-35853867D01*
X88609552Y-35809552D01*
X88653867Y-35743231D01*
X88653867Y-35743229D01*
X88653868Y-35743229D01*
X88665499Y-35684752D01*
X88665500Y-35684750D01*
X88665500Y-33945249D01*
X88665499Y-33945247D01*
X88653868Y-33886770D01*
X88653867Y-33886769D01*
X88609552Y-33820447D01*
X88543230Y-33776132D01*
X88543229Y-33776131D01*
X88484752Y-33764500D01*
X88484748Y-33764500D01*
X86745252Y-33764500D01*
X86745247Y-33764500D01*
X86686770Y-33776131D01*
X86686769Y-33776132D01*
X86620447Y-33820447D01*
X86576132Y-33886769D01*
X86576131Y-33886770D01*
X86564500Y-33945247D01*
X64535499Y-33945247D01*
X64523868Y-33886770D01*
X64523867Y-33886769D01*
X64479552Y-33820447D01*
X64413230Y-33776132D01*
X64413229Y-33776131D01*
X64354752Y-33764500D01*
X64354748Y-33764500D01*
X62615252Y-33764500D01*
X62615247Y-33764500D01*
X62556770Y-33776131D01*
X62556769Y-33776132D01*
X62490447Y-33820447D01*
X62446132Y-33886769D01*
X62446131Y-33886770D01*
X62434500Y-33945247D01*
X41040499Y-33945247D01*
X41028868Y-33886770D01*
X41028867Y-33886769D01*
X40984552Y-33820447D01*
X40918230Y-33776132D01*
X40918229Y-33776131D01*
X40859752Y-33764500D01*
X40859748Y-33764500D01*
X39120252Y-33764500D01*
X39120247Y-33764500D01*
X39061770Y-33776131D01*
X39061769Y-33776132D01*
X38995447Y-33820447D01*
X38951132Y-33886769D01*
X38951131Y-33886770D01*
X38939500Y-33945247D01*
X20500500Y-33945247D01*
X20500500Y-29980247D01*
X95029500Y-29980247D01*
X95029500Y-32019752D01*
X95041131Y-32078229D01*
X95041132Y-32078230D01*
X95085447Y-32144552D01*
X95151769Y-32188867D01*
X95151770Y-32188868D01*
X95210247Y-32200499D01*
X95210250Y-32200500D01*
X95210252Y-32200500D01*
X96149750Y-32200500D01*
X96149751Y-32200499D01*
X96164568Y-32197552D01*
X96208229Y-32188868D01*
X96208229Y-32188867D01*
X96208231Y-32188867D01*
X96274552Y-32144552D01*
X96318867Y-32078231D01*
X96318867Y-32078229D01*
X96318868Y-32078229D01*
X96330499Y-32019752D01*
X96330500Y-32019750D01*
X96330500Y-29980249D01*
X96330499Y-29980247D01*
X96318868Y-29921770D01*
X96318867Y-29921769D01*
X96274552Y-29855447D01*
X96208230Y-29811132D01*
X96208229Y-29811131D01*
X96149752Y-29799500D01*
X96149748Y-29799500D01*
X95210252Y-29799500D01*
X95210247Y-29799500D01*
X95151770Y-29811131D01*
X95151769Y-29811132D01*
X95085447Y-29855447D01*
X95041132Y-29921769D01*
X95041131Y-29921770D01*
X95029500Y-29980247D01*
X20500500Y-29980247D01*
X20500500Y-23878711D01*
X22149500Y-23878711D01*
X22149500Y-24121288D01*
X22181161Y-24361785D01*
X22243947Y-24596104D01*
X22336773Y-24820205D01*
X22336776Y-24820212D01*
X22458064Y-25030289D01*
X22458066Y-25030292D01*
X22458067Y-25030293D01*
X22605733Y-25222736D01*
X22605739Y-25222743D01*
X22777256Y-25394260D01*
X22777262Y-25394265D01*
X22969711Y-25541936D01*
X23179788Y-25663224D01*
X23403900Y-25756054D01*
X23638211Y-25818838D01*
X23818586Y-25842584D01*
X23878711Y-25850500D01*
X23878712Y-25850500D01*
X24121289Y-25850500D01*
X24169388Y-25844167D01*
X24361789Y-25818838D01*
X24596100Y-25756054D01*
X24820212Y-25663224D01*
X25030289Y-25541936D01*
X25222738Y-25394265D01*
X25394265Y-25222738D01*
X25541936Y-25030289D01*
X25663224Y-24820212D01*
X25756054Y-24596100D01*
X25818838Y-24361789D01*
X25850500Y-24121288D01*
X25850500Y-23878712D01*
X25850500Y-23878711D01*
X114149500Y-23878711D01*
X114149500Y-24121288D01*
X114181161Y-24361785D01*
X114243947Y-24596104D01*
X114336773Y-24820205D01*
X114336776Y-24820212D01*
X114458064Y-25030289D01*
X114458066Y-25030292D01*
X114458067Y-25030293D01*
X114605733Y-25222736D01*
X114605739Y-25222743D01*
X114777256Y-25394260D01*
X114777262Y-25394265D01*
X114969711Y-25541936D01*
X115179788Y-25663224D01*
X115403900Y-25756054D01*
X115638211Y-25818838D01*
X115818586Y-25842584D01*
X115878711Y-25850500D01*
X115878712Y-25850500D01*
X116121289Y-25850500D01*
X116169388Y-25844167D01*
X116361789Y-25818838D01*
X116596100Y-25756054D01*
X116820212Y-25663224D01*
X117030289Y-25541936D01*
X117222738Y-25394265D01*
X117394265Y-25222738D01*
X117541936Y-25030289D01*
X117663224Y-24820212D01*
X117756054Y-24596100D01*
X117818838Y-24361789D01*
X117850500Y-24121288D01*
X117850500Y-23878712D01*
X117818838Y-23638211D01*
X117756054Y-23403900D01*
X117663224Y-23179788D01*
X117541936Y-22969711D01*
X117394265Y-22777262D01*
X117394260Y-22777256D01*
X117222743Y-22605739D01*
X117222736Y-22605733D01*
X117030293Y-22458067D01*
X117030292Y-22458066D01*
X117030289Y-22458064D01*
X116820212Y-22336776D01*
X116820205Y-22336773D01*
X116596104Y-22243947D01*
X116361785Y-22181161D01*
X116121289Y-22149500D01*
X116121288Y-22149500D01*
X115878712Y-22149500D01*
X115878711Y-22149500D01*
X115638214Y-22181161D01*
X115403895Y-22243947D01*
X115179794Y-22336773D01*
X115179785Y-22336777D01*
X114969706Y-22458067D01*
X114777263Y-22605733D01*
X114777256Y-22605739D01*
X114605739Y-22777256D01*
X114605733Y-22777263D01*
X114458067Y-22969706D01*
X114336777Y-23179785D01*
X114336773Y-23179794D01*
X114243947Y-23403895D01*
X114181161Y-23638214D01*
X114149500Y-23878711D01*
X25850500Y-23878711D01*
X25818838Y-23638211D01*
X25756054Y-23403900D01*
X25663224Y-23179788D01*
X25541936Y-22969711D01*
X25394265Y-22777262D01*
X25394260Y-22777256D01*
X25222743Y-22605739D01*
X25222736Y-22605733D01*
X25030293Y-22458067D01*
X25030292Y-22458066D01*
X25030289Y-22458064D01*
X24820212Y-22336776D01*
X24820205Y-22336773D01*
X24596104Y-22243947D01*
X24361785Y-22181161D01*
X24121289Y-22149500D01*
X24121288Y-22149500D01*
X23878712Y-22149500D01*
X23878711Y-22149500D01*
X23638214Y-22181161D01*
X23403895Y-22243947D01*
X23179794Y-22336773D01*
X23179785Y-22336777D01*
X22969706Y-22458067D01*
X22777263Y-22605733D01*
X22777256Y-22605739D01*
X22605739Y-22777256D01*
X22605733Y-22777263D01*
X22458067Y-22969706D01*
X22336777Y-23179785D01*
X22336773Y-23179794D01*
X22243947Y-23403895D01*
X22181161Y-23638214D01*
X22149500Y-23878711D01*
X20500500Y-23878711D01*
X20500500Y-23503245D01*
X20500670Y-23496756D01*
X20505536Y-23403895D01*
X20516591Y-23192936D01*
X20517945Y-23180064D01*
X20565030Y-22882783D01*
X20567723Y-22870107D01*
X20645627Y-22579367D01*
X20649636Y-22567032D01*
X20691465Y-22458064D01*
X20757493Y-22286054D01*
X20762763Y-22274215D01*
X20899419Y-22006014D01*
X20905885Y-21994815D01*
X21069824Y-21742371D01*
X21077426Y-21731908D01*
X21266858Y-21497978D01*
X21275525Y-21488353D01*
X21488353Y-21275525D01*
X21497978Y-21266858D01*
X21731908Y-21077426D01*
X21742371Y-21069824D01*
X21994815Y-20905885D01*
X22006014Y-20899419D01*
X22274215Y-20762763D01*
X22286054Y-20757493D01*
X22567039Y-20649633D01*
X22579367Y-20645627D01*
X22870107Y-20567723D01*
X22882783Y-20565030D01*
X23180064Y-20517945D01*
X23192936Y-20516591D01*
X23496756Y-20500669D01*
X23503245Y-20500500D01*
X23565892Y-20500500D01*
X116434108Y-20500500D01*
X116496755Y-20500500D01*
X116503243Y-20500669D01*
G37*
%TD.AperFunction*%
%TA.AperFunction,Conductor*%
G36*
X97942554Y-66170868D02*
G01*
X97958309Y-66184195D01*
X98630138Y-66856024D01*
X98704361Y-66898877D01*
X98787147Y-66921059D01*
X98872853Y-66921059D01*
X106409370Y-66921059D01*
X106476409Y-66940744D01*
X106497051Y-66957378D01*
X111638181Y-72098507D01*
X111671666Y-72159830D01*
X111674500Y-72186188D01*
X111674500Y-76813811D01*
X111654815Y-76880850D01*
X111638181Y-76901492D01*
X110470992Y-78068681D01*
X110409669Y-78102166D01*
X110383311Y-78105000D01*
X105654688Y-78105000D01*
X105587649Y-78085315D01*
X105541894Y-78032511D01*
X105531950Y-77963353D01*
X105560975Y-77899797D01*
X105567007Y-77893319D01*
X105704274Y-77756052D01*
X106189652Y-77270672D01*
X106189657Y-77270669D01*
X106199860Y-77260465D01*
X106199862Y-77260465D01*
X106260465Y-77199862D01*
X106303318Y-77125638D01*
X106306711Y-77112974D01*
X106325501Y-77042852D01*
X106325501Y-76957147D01*
X106325500Y-76957143D01*
X106325500Y-69052855D01*
X106325501Y-69052842D01*
X106325501Y-68957149D01*
X106303317Y-68874360D01*
X106303314Y-68874355D01*
X106260469Y-68800144D01*
X106260466Y-68800140D01*
X106260465Y-68800138D01*
X106199862Y-68739535D01*
X106199861Y-68739534D01*
X106195531Y-68735204D01*
X106195520Y-68735194D01*
X105199864Y-67739537D01*
X105199863Y-67739536D01*
X105199862Y-67739535D01*
X105162750Y-67718108D01*
X105125640Y-67696682D01*
X105084246Y-67685591D01*
X105042853Y-67674500D01*
X105042852Y-67674500D01*
X97486135Y-67674500D01*
X97419096Y-67654815D01*
X97398454Y-67638181D01*
X96429619Y-66669346D01*
X96396134Y-66608023D01*
X96401118Y-66538331D01*
X96442990Y-66482398D01*
X96508454Y-66457981D01*
X96533477Y-66458725D01*
X96627157Y-66471059D01*
X96627164Y-66471059D01*
X96882836Y-66471059D01*
X96882843Y-66471059D01*
X97136340Y-66437685D01*
X97383313Y-66371509D01*
X97619535Y-66273663D01*
X97808631Y-66164487D01*
X97876527Y-66148016D01*
X97942554Y-66170868D01*
G37*
%TD.AperFunction*%
%TD*%
M02*
