M48
; DRILL file KiCad 10.0.3-10.0.3~ubuntu26.04.1 date 2026-06-22T17:48:08
; FORMAT={-:-/ absolute / inch / decimal}
; #@! TF.CreationDate,2026-06-22T17:48:08+09:00
; #@! TF.GenerationSoftware,Kicad,Pcbnew,10.0.3-10.0.3~ubuntu26.04.1
; #@! TF.FileFunction,Plated,1,2,PTH
FMAT,2
INCH
; #@! TA.AperFunction,Plated,PTH,ViaDrill
T1C0.0197
; #@! TA.AperFunction,Plated,PTH,ComponentDrill
T2C0.0236
; #@! TA.AperFunction,Plated,PTH,ComponentDrill
T3C0.0280
; #@! TA.AperFunction,Plated,PTH,ComponentDrill
T4C0.0315
; #@! TA.AperFunction,Plated,PTH,ComponentDrill
T5C0.0354
; #@! TA.AperFunction,Plated,PTH,ComponentDrill
T6C0.0394
; #@! TA.AperFunction,Plated,PTH,ComponentDrill
T7C0.0433
; #@! TA.AperFunction,Plated,PTH,ComponentDrill
T8C0.0945
; #@! TA.AperFunction,Plated,PTH,ComponentDrill
T9C0.1063
%
G90
G05
T1
X0.8858Y-1.8701
X0.8858Y-2.0669
X0.8858Y-2.2638
X0.9843Y-1.1811
X0.9843Y-1.378
X0.9843Y-1.5748
X0.9843Y-1.7717
X0.9843Y-2.7559
X1.0827Y-3.0512
X1.1811Y-0.9843
X1.1811Y-1.1811
X1.1811Y-1.378
X1.1811Y-1.5748
X1.1811Y-1.7717
X1.378Y-0.9843
X1.378Y-1.1811
X1.378Y-1.378
X1.378Y-1.5748
X1.378Y-1.7717
X1.5748Y-0.8661
X1.7717Y-0.8661
X1.7717Y-1.5748
X1.79Y-3.1
X1.9685Y-0.8661
X1.9685Y-1.5748
X1.9685Y-1.7717
X1.9685Y-2.5591
X1.9685Y-2.7559
X2.1654Y-0.8661
X2.1654Y-1.5748
X2.1654Y-1.7717
X2.1654Y-2.3622
X2.1654Y-2.5591
X2.1654Y-2.7559
X2.1654Y-2.9528
X2.3622Y-0.8661
X2.3622Y-1.5748
X2.3622Y-1.7717
X2.5591Y-0.8661
X2.7559Y-0.8661
X2.7559Y-1.5748
X2.9528Y-0.8661
X2.9528Y-1.5748
X2.9528Y-1.7717
X2.9528Y-2.5591
X3.1496Y-0.8661
X3.1496Y-1.5748
X3.1496Y-1.7717
X3.1496Y-2.3622
X3.1496Y-2.5591
X3.1496Y-2.7559
X3.3465Y-0.8661
X3.3465Y-1.5748
X3.3465Y-1.7717
X3.3465Y-2.1654
X3.3465Y-2.3622
X3.3465Y-2.5591
X3.3465Y-2.7559
X3.3465Y-2.9528
X3.5433Y-0.8661
X3.7402Y-0.8661
X3.7402Y-1.5748
X3.7402Y-1.7717
X3.85Y-2.64
X3.937Y-0.8661
X4.1339Y-0.8661
X4.1339Y-2.3622
X4.1339Y-2.5591
X4.23Y-2.72
X4.3307Y-0.8661
X4.3307Y-1.9685
X4.3307Y-2.1654
X4.3307Y-2.3622
X4.3307Y-2.5591
X4.5276Y-2.1654
X4.5276Y-2.3622
X4.5276Y-2.7559
T3
X1.0494Y-2.2707
X1.0494Y-2.3707
X1.0494Y-2.4707
X1.9744Y-2.2707
X1.9744Y-2.3707
X1.9744Y-2.4707
X2.9244Y-2.2707
X2.9244Y-2.3707
X2.9244Y-2.4707
T4
X0.8744Y-2.3707
X0.8744Y-2.4707
X1.0494Y-1.9957
X1.0494Y-2.0957
X1.7994Y-2.3707
X1.7994Y-2.4707
X1.9744Y-1.9957
X1.9744Y-2.0957
X2.7494Y-2.3707
X2.7494Y-2.4707
X2.9244Y-1.9957
X2.9244Y-2.0957
X3.6417Y-1.4567
X3.6417Y-1.6535
X4.4502Y-1.1457
X4.5502Y-1.1457
T5
X4.45Y-1.3457
X4.55Y-1.3457
T6
X1.5744Y-1.3707
X1.5744Y-1.4707
X1.5744Y-1.5707
X1.5744Y-1.6707
X1.5744Y-1.7707
X1.5744Y-1.8707
X1.5744Y-1.9707
X2.4994Y-1.3707
X2.4994Y-1.4707
X2.4994Y-1.5707
X2.4994Y-1.6707
X2.4994Y-1.7707
X2.4994Y-1.8707
X2.4994Y-1.9707
X3.4494Y-1.3707
X3.4494Y-1.4707
X3.4494Y-1.5707
X3.4494Y-1.6707
X3.4494Y-1.7707
X3.4494Y-1.8707
X3.4494Y-1.9707
X4.4277Y-1.8096
X4.5669Y-1.9488
T7
X4.1Y-1.7707
X4.1Y-1.8691
T8
X3.8093Y-2.1701
X3.8093Y-2.3551
X3.8093Y-2.5402
X3.9994Y-2.1701
X3.9994Y-2.3551
X3.9994Y-2.5402
T9
X1.2776Y-2.9707
X1.4744Y-2.9707
X1.7276Y-2.9707
X1.9244Y-2.9707
X2.4526Y-2.9707
X2.6494Y-2.9707
X2.9026Y-2.9707
X3.0994Y-2.9707
X3.6276Y-2.9707
X3.8244Y-2.9707
X3.8909Y-1.4567
X4.0776Y-2.9707
X4.1744Y-1.4567
X4.2744Y-2.9707
T2
G00X3.7669Y-1.1988
M15
G01X3.7669Y-1.2421
M16
G05
G00X4.2984Y-1.1988
M15
G01X4.2984Y-1.2421
M16
G05
M30
