%TF.GenerationSoftware,KiCad,Pcbnew,10.0.3-10.0.3~ubuntu26.04.1*%
%TF.CreationDate,2026-06-22T17:48:08+09:00*%
%TF.ProjectId,PowerUnit_Servo,506f7765-7255-46e6-9974-5f536572766f,rev?*%
%TF.SameCoordinates,Original*%
%TF.FileFunction,Copper,L2,Bot*%
%TF.FilePolarity,Positive*%
%FSLAX46Y46*%
G04 Gerber Fmt 4.6, Leading zero omitted, Abs format (unit mm)*
G04 Created by KiCad (PCBNEW 10.0.3-10.0.3~ubuntu26.04.1) date 2026-06-22 17:48:08*
%MOMM*%
%LPD*%
G01*
G04 APERTURE LIST*
G04 Aperture macros list*
%AMRoundRect*
0 Rectangle with rounded corners*
0 $1 Rounding radius*
0 $2 $3 $4 $5 $6 $7 $8 $9 X,Y pos of 4 corners*
0 Add a 4 corners polygon primitive as box body*
4,1,4,$2,$3,$4,$5,$6,$7,$8,$9,$2,$3,0*
0 Add four circle primitives for the rounded corners*
1,1,$1+$1,$2,$3*
1,1,$1+$1,$4,$5*
1,1,$1+$1,$6,$7*
1,1,$1+$1,$8,$9*
0 Add four rect primitives between the rounded corners*
20,1,$1+$1,$2,$3,$4,$5,0*
20,1,$1+$1,$4,$5,$6,$7,0*
20,1,$1+$1,$6,$7,$8,$9,0*
20,1,$1+$1,$8,$9,$2,$3,0*%
G04 Aperture macros list end*
%TA.AperFunction,ComponentPad*%
%ADD10RoundRect,0.760000X1.140000X1.140000X-1.140000X1.140000X-1.140000X-1.140000X1.140000X-1.140000X0*%
%TD*%
%TA.AperFunction,ComponentPad*%
%ADD11C,4.000000*%
%TD*%
%TA.AperFunction,ComponentPad*%
%ADD12C,1.600000*%
%TD*%
%TA.AperFunction,ComponentPad*%
%ADD13C,3.500000*%
%TD*%
%TA.AperFunction,ComponentPad*%
%ADD14R,1.700000X1.700000*%
%TD*%
%TA.AperFunction,ComponentPad*%
%ADD15C,1.700000*%
%TD*%
%TA.AperFunction,ComponentPad*%
%ADD16R,1.800000X1.800000*%
%TD*%
%TA.AperFunction,ComponentPad*%
%ADD17C,1.800000*%
%TD*%
%TA.AperFunction,ComponentPad*%
%ADD18RoundRect,0.450000X0.950000X-0.450000X0.950000X0.450000X-0.950000X0.450000X-0.950000X-0.450000X0*%
%TD*%
%TA.AperFunction,ComponentPad*%
%ADD19O,2.800000X1.800000*%
%TD*%
%TA.AperFunction,ComponentPad*%
%ADD20R,1.218000X1.218000*%
%TD*%
%TA.AperFunction,ComponentPad*%
%ADD21C,1.218000*%
%TD*%
%TA.AperFunction,ComponentPad*%
%ADD22R,0.900000X2.000000*%
%TD*%
%TA.AperFunction,ComponentPad*%
%ADD23RoundRect,1.025000X-1.025000X-1.025000X1.025000X-1.025000X1.025000X1.025000X-1.025000X1.025000X0*%
%TD*%
%TA.AperFunction,ComponentPad*%
%ADD24C,4.100000*%
%TD*%
%TA.AperFunction,ComponentPad*%
%ADD25RoundRect,0.250000X-1.060660X0.000000X0.000000X-1.060660X1.060660X0.000000X0.000000X1.060660X0*%
%TD*%
%TA.AperFunction,ComponentPad*%
%ADD26C,2.000000*%
%TD*%
%TA.AperFunction,ViaPad*%
%ADD27C,0.900000*%
%TD*%
G04 APERTURE END LIST*
D10*
%TO.P,J10,1,Pin_1_1*%
%TO.N,GNDPWR*%
X48880000Y-75455000D03*
D11*
%TO.P,J10,2,Pin_2_2*%
%TO.N,Net-(J10-Pin_2)*%
X43880000Y-75455000D03*
%TD*%
D10*
%TO.P,J7,1,Pin_1_1*%
%TO.N,GNDPWR*%
X78725000Y-75455000D03*
D11*
%TO.P,J7,2,Pin_2_2*%
%TO.N,Net-(J6-Pin_5)*%
X73725000Y-75455000D03*
%TD*%
D12*
%TO.P,R6,1*%
%TO.N,Net-(J10-Pin_2)*%
X26655000Y-50690000D03*
%TO.P,R6,2*%
%TO.N,Net-(R6-Pad2)*%
X26655000Y-53230000D03*
%TD*%
D10*
%TO.P,J5,1,Pin_1_1*%
%TO.N,GNDPWR*%
X97140000Y-75455000D03*
D11*
%TO.P,J5,2,Pin_2_2*%
%TO.N,Net-(J3-Pin_5)*%
X92140000Y-75455000D03*
%TD*%
D12*
%TO.P,C1,1*%
%TO.N,Net-(J1-Pin_2)*%
X92500000Y-37000000D03*
%TO.P,C1,2*%
%TO.N,GNDPWR*%
X92500000Y-42000000D03*
%TD*%
D10*
%TO.P,J4,1,Pin_1_1*%
%TO.N,GNDPWR*%
X108570000Y-75455000D03*
D11*
%TO.P,J4,2,Pin_2_2*%
%TO.N,Net-(J3-Pin_5)*%
X103570000Y-75455000D03*
%TD*%
D12*
%TO.P,R1,1*%
%TO.N,Net-(J1-Pin_2)*%
X113035000Y-29100000D03*
%TO.P,R1,2*%
%TO.N,Net-(D1-A)*%
X115575000Y-29100000D03*
%TD*%
%TO.P,R4,1*%
%TO.N,Net-(J6-Pin_5)*%
X50150000Y-50690000D03*
%TO.P,R4,2*%
%TO.N,Net-(R4-Pad2)*%
X50150000Y-53230000D03*
%TD*%
D13*
%TO.P,SW1,1,A_1*%
%TO.N,Net-(J3-Pin_5)*%
X101585000Y-55120559D03*
%TO.P,SW1,2,B_2*%
%TO.N,Net-(J2-Pin_2)*%
X101585000Y-59820559D03*
%TO.P,SW1,3,C_3*%
%TO.N,Net-(SW1-B-Pad5)*%
X101585000Y-64520559D03*
%TO.P,SW1,4,A_4*%
%TO.N,Net-(J6-Pin_5)*%
X96755000Y-55120559D03*
%TO.P,SW1,5,B_5*%
%TO.N,Net-(SW1-B-Pad5)*%
X96755000Y-59820559D03*
%TO.P,SW1,6,C_6*%
%TO.N,Net-(J10-Pin_2)*%
X96755000Y-64520559D03*
%TD*%
D14*
%TO.P,J9,1,Pin_1_1*%
%TO.N,Net-(J1-Pin_2)*%
X39990000Y-34815000D03*
D15*
%TO.P,J9,2,Pin_2_2*%
X39990000Y-37355000D03*
%TO.P,J9,3,Pin_3_3*%
%TO.N,GNDPWR*%
X39990000Y-39895000D03*
%TO.P,J9,4,Pin_4_4*%
X39990000Y-42435000D03*
%TO.P,J9,5,Pin_5_5*%
%TO.N,Net-(J10-Pin_2)*%
X39990000Y-44975000D03*
%TO.P,J9,6,Pin_6_6*%
X39990000Y-47515000D03*
%TO.P,J9,7,Pin_7_7*%
%TO.N,Net-(J9-Pin_7)*%
X39990000Y-50055000D03*
%TD*%
D14*
%TO.P,J3,1,Pin_1_1*%
%TO.N,Net-(J1-Pin_2)*%
X87615000Y-34815000D03*
D15*
%TO.P,J3,2,Pin_2_2*%
X87615000Y-37355000D03*
%TO.P,J3,3,Pin_3_3*%
%TO.N,GNDPWR*%
X87615000Y-39895000D03*
%TO.P,J3,4,Pin_4_4*%
X87615000Y-42435000D03*
%TO.P,J3,5,Pin_5_5*%
%TO.N,Net-(J3-Pin_5)*%
X87615000Y-44975000D03*
%TO.P,J3,6,Pin_6_6*%
X87615000Y-47515000D03*
%TO.P,J3,7,Pin_7_7*%
%TO.N,Net-(J3-Pin_7)*%
X87615000Y-50055000D03*
%TD*%
D16*
%TO.P,D1,1,K_1*%
%TO.N,GNDPWR*%
X113030000Y-34180000D03*
D17*
%TO.P,D1,2,A_2*%
%TO.N,Net-(D1-A)*%
X115570000Y-34180000D03*
%TD*%
D12*
%TO.P,R2,1*%
%TO.N,Net-(J3-Pin_5)*%
X74280000Y-50690000D03*
%TO.P,R2,2*%
%TO.N,Net-(R2-Pad2)*%
X74280000Y-53230000D03*
%TD*%
D18*
%TO.P,J2,1,Pin_1_1*%
%TO.N,GNDPWR*%
X104140000Y-47475000D03*
D19*
%TO.P,J2,2,Pin_2_2*%
%TO.N,Net-(J2-Pin_2)*%
X104140000Y-44975000D03*
%TD*%
D12*
%TO.P,R7,1*%
%TO.N,Net-(R7-Pad1)*%
X22210000Y-62755000D03*
%TO.P,R7,2*%
%TO.N,GNDPWR*%
X22210000Y-60215000D03*
%TD*%
%TO.P,R5,1*%
%TO.N,Net-(R5-Pad1)*%
X45705000Y-62755000D03*
%TO.P,R5,2*%
%TO.N,GNDPWR*%
X45705000Y-60215000D03*
%TD*%
D20*
%TO.P,RV3,1,1_1*%
%TO.N,Net-(R7-Pad1)*%
X26655000Y-62755000D03*
D21*
%TO.P,RV3,2,2_2*%
%TO.N,Net-(J9-Pin_7)*%
X26655000Y-60215000D03*
%TO.P,RV3,3,3_3*%
%TO.N,Net-(R6-Pad2)*%
X26655000Y-57675000D03*
%TD*%
D12*
%TO.P,R3,1*%
%TO.N,Net-(R3-Pad1)*%
X69835000Y-62755000D03*
%TO.P,R3,2*%
%TO.N,GNDPWR*%
X69835000Y-60215000D03*
%TD*%
D10*
%TO.P,J11,1,Pin_1_1*%
%TO.N,GNDPWR*%
X37450000Y-75455000D03*
D11*
%TO.P,J11,2,Pin_2_2*%
%TO.N,Net-(J10-Pin_2)*%
X32450000Y-75455000D03*
%TD*%
D22*
%TO.P,J1,*%
%TO.N,*%
X95680000Y-31000000D03*
X109180000Y-31000000D03*
D23*
%TO.P,J1,1,Pin_1_1*%
%TO.N,GNDPWR*%
X98830000Y-37000000D03*
D24*
%TO.P,J1,2,Pin_2_2*%
%TO.N,Net-(J1-Pin_2)*%
X106030000Y-37000000D03*
%TD*%
D10*
%TO.P,J8,1,Pin_1_1*%
%TO.N,GNDPWR*%
X67295000Y-75455000D03*
D11*
%TO.P,J8,2,Pin_2_2*%
%TO.N,Net-(J6-Pin_5)*%
X62295000Y-75455000D03*
%TD*%
D20*
%TO.P,RV1,1,1_1*%
%TO.N,Net-(R3-Pad1)*%
X74280000Y-62755000D03*
D21*
%TO.P,RV1,2,2_2*%
%TO.N,Net-(J3-Pin_7)*%
X74280000Y-60215000D03*
%TO.P,RV1,3,3_3*%
%TO.N,Net-(R2-Pad2)*%
X74280000Y-57675000D03*
%TD*%
D14*
%TO.P,J6,1,Pin_1_1*%
%TO.N,Net-(J1-Pin_2)*%
X63485000Y-34815000D03*
D15*
%TO.P,J6,2,Pin_2_2*%
X63485000Y-37355000D03*
%TO.P,J6,3,Pin_3_3*%
%TO.N,GNDPWR*%
X63485000Y-39895000D03*
%TO.P,J6,4,Pin_4_4*%
X63485000Y-42435000D03*
%TO.P,J6,5,Pin_5_5*%
%TO.N,Net-(J6-Pin_5)*%
X63485000Y-44975000D03*
%TO.P,J6,6,Pin_6_6*%
X63485000Y-47515000D03*
%TO.P,J6,7,Pin_7_7*%
%TO.N,Net-(J6-Pin_7)*%
X63485000Y-50055000D03*
%TD*%
D25*
%TO.P,C2,1*%
%TO.N,Net-(J1-Pin_2)*%
X112464466Y-45964466D03*
D26*
%TO.P,C2,2*%
%TO.N,GNDPWR*%
X116000000Y-49500000D03*
%TD*%
D20*
%TO.P,RV2,1,1_1*%
%TO.N,Net-(R5-Pad1)*%
X50150000Y-62755000D03*
D21*
%TO.P,RV2,2,2_2*%
%TO.N,Net-(J6-Pin_7)*%
X50150000Y-60215000D03*
%TO.P,RV2,3,3_3*%
%TO.N,Net-(R4-Pad2)*%
X50150000Y-57675000D03*
%TD*%
D27*
%TO.N,GNDPWR*%
X80000000Y-65000000D03*
X50000000Y-45000000D03*
X55000000Y-75000000D03*
X50000000Y-40000000D03*
X35000000Y-40000000D03*
X80000000Y-22000000D03*
X45466000Y-78740000D03*
X70000000Y-22000000D03*
X110000000Y-50000000D03*
X60000000Y-45000000D03*
X107442000Y-69088000D03*
X25000000Y-45000000D03*
X25000000Y-70000000D03*
X55000000Y-65000000D03*
X55000000Y-22000000D03*
X90000000Y-22000000D03*
X30000000Y-25000000D03*
X65000000Y-22000000D03*
X25000000Y-40000000D03*
X70000000Y-40000000D03*
X30000000Y-30000000D03*
X22500000Y-52500000D03*
X85000000Y-40000000D03*
X110000000Y-65000000D03*
X50000000Y-22000000D03*
X60000000Y-22000000D03*
X25000000Y-35000000D03*
X85000000Y-55000000D03*
X105000000Y-60000000D03*
X80000000Y-40000000D03*
X50000000Y-65000000D03*
X85000000Y-75000000D03*
X45000000Y-40000000D03*
X30000000Y-40000000D03*
X75000000Y-22000000D03*
X115000000Y-70000000D03*
X105000000Y-65000000D03*
X30000000Y-45000000D03*
X110000000Y-22000000D03*
X110000000Y-60000000D03*
X95000000Y-22000000D03*
X85000000Y-22000000D03*
X55000000Y-40000000D03*
X55000000Y-70000000D03*
X105000000Y-22000000D03*
X85000000Y-65000000D03*
X35000000Y-25000000D03*
X80000000Y-45000000D03*
X22500000Y-57500000D03*
X45000000Y-22000000D03*
X60000000Y-40000000D03*
X85000000Y-70000000D03*
X110000000Y-55000000D03*
X95000000Y-45000000D03*
X75000000Y-65000000D03*
X55000000Y-60000000D03*
X80000000Y-60000000D03*
X100000000Y-22000000D03*
X50000000Y-70000000D03*
X22500000Y-47500000D03*
X30000000Y-35000000D03*
X35000000Y-45000000D03*
X27500000Y-77500000D03*
X25000000Y-30000000D03*
X75000000Y-40000000D03*
X35000000Y-30000000D03*
X95000000Y-40000000D03*
X85000000Y-45000000D03*
X85000000Y-60000000D03*
X35000000Y-35000000D03*
X55000000Y-45000000D03*
X115000000Y-55000000D03*
X40000000Y-22000000D03*
X97790000Y-67056000D03*
X75000000Y-45000000D03*
X80000000Y-70000000D03*
X115000000Y-60000000D03*
%TD*%
%TA.AperFunction,Conductor*%
%TO.N,GNDPWR*%
G36*
X116498316Y-20500540D02*
G01*
X116501667Y-20500627D01*
X116504828Y-20500752D01*
X116803842Y-20516422D01*
X116810274Y-20516928D01*
X116816733Y-20517608D01*
X116823136Y-20518451D01*
X117114005Y-20564521D01*
X117114011Y-20564522D01*
X117120369Y-20565699D01*
X117126716Y-20567048D01*
X117133023Y-20568562D01*
X117203302Y-20587393D01*
X117417498Y-20644786D01*
X117423707Y-20646626D01*
X117429904Y-20648640D01*
X117435991Y-20650796D01*
X117710920Y-20756332D01*
X117716888Y-20758803D01*
X117722821Y-20761445D01*
X117728675Y-20764237D01*
X117991091Y-20897945D01*
X117996778Y-20901033D01*
X118002399Y-20904278D01*
X118007901Y-20907650D01*
X118254886Y-21068043D01*
X118260232Y-21071717D01*
X118265471Y-21075523D01*
X118270613Y-21079468D01*
X118464849Y-21236757D01*
X118464848Y-21236757D01*
X118499482Y-21264802D01*
X118504400Y-21269001D01*
X118509267Y-21273383D01*
X118513950Y-21277829D01*
X118722169Y-21486048D01*
X118726617Y-21490735D01*
X118730986Y-21495586D01*
X118735188Y-21500506D01*
X118920516Y-21729367D01*
X118924470Y-21734521D01*
X118928279Y-21739764D01*
X118931954Y-21745111D01*
X119092335Y-21992076D01*
X119095728Y-21997612D01*
X119098964Y-22003217D01*
X119102061Y-22008921D01*
X119235762Y-22271323D01*
X119238558Y-22277187D01*
X119238559Y-22277190D01*
X119238560Y-22277191D01*
X119241189Y-22283097D01*
X119243667Y-22289079D01*
X119308535Y-22458067D01*
X119349195Y-22563988D01*
X119351360Y-22570101D01*
X119353370Y-22576286D01*
X119355216Y-22582517D01*
X119431431Y-22866955D01*
X119432950Y-22873284D01*
X119434301Y-22879644D01*
X119435480Y-22886011D01*
X119481541Y-23176823D01*
X119482389Y-23183259D01*
X119483070Y-23189738D01*
X119483579Y-23196211D01*
X119499245Y-23495150D01*
X119499371Y-23498355D01*
X119499457Y-23501607D01*
X119499500Y-23504850D01*
X119499500Y-76495148D01*
X119499457Y-76498361D01*
X119499373Y-76501602D01*
X119499372Y-76501640D01*
X119499245Y-76504848D01*
X119483579Y-76803787D01*
X119483070Y-76810260D01*
X119482389Y-76816739D01*
X119481541Y-76823175D01*
X119435480Y-77113987D01*
X119434301Y-77120354D01*
X119432950Y-77126714D01*
X119431431Y-77133043D01*
X119355216Y-77417481D01*
X119353370Y-77423712D01*
X119351360Y-77429897D01*
X119349196Y-77436006D01*
X119331918Y-77481018D01*
X119243670Y-77710912D01*
X119241189Y-77716901D01*
X119238560Y-77722807D01*
X119235762Y-77728675D01*
X119102065Y-77991070D01*
X119098961Y-77996785D01*
X119095715Y-78002406D01*
X119092329Y-78007931D01*
X118931959Y-78254880D01*
X118928284Y-78260227D01*
X118924467Y-78265481D01*
X118920513Y-78270635D01*
X118735188Y-78499492D01*
X118730969Y-78504432D01*
X118726635Y-78509245D01*
X118722169Y-78513950D01*
X118513950Y-78722169D01*
X118509245Y-78726635D01*
X118504432Y-78730969D01*
X118499492Y-78735188D01*
X118270635Y-78920513D01*
X118265481Y-78924467D01*
X118260227Y-78928284D01*
X118254880Y-78931959D01*
X118007931Y-79092329D01*
X118002406Y-79095715D01*
X117996785Y-79098961D01*
X117991070Y-79102065D01*
X117728675Y-79235762D01*
X117722807Y-79238560D01*
X117716901Y-79241189D01*
X117710912Y-79243670D01*
X117436010Y-79349195D01*
X117429897Y-79351360D01*
X117423712Y-79353370D01*
X117417481Y-79355216D01*
X117133043Y-79431431D01*
X117126714Y-79432950D01*
X117120354Y-79434301D01*
X117113987Y-79435480D01*
X116823175Y-79481541D01*
X116816739Y-79482389D01*
X116810260Y-79483070D01*
X116803787Y-79483579D01*
X116504849Y-79499245D01*
X116501641Y-79499371D01*
X116498362Y-79499457D01*
X116495149Y-79499500D01*
X23504851Y-79499500D01*
X23501636Y-79499457D01*
X23498358Y-79499371D01*
X23495150Y-79499245D01*
X23196211Y-79483579D01*
X23189738Y-79483070D01*
X23183259Y-79482389D01*
X23176823Y-79481541D01*
X22886011Y-79435480D01*
X22879644Y-79434301D01*
X22873284Y-79432950D01*
X22866955Y-79431431D01*
X22582517Y-79355216D01*
X22576286Y-79353370D01*
X22570101Y-79351360D01*
X22564004Y-79349200D01*
X22289086Y-79243670D01*
X22283097Y-79241189D01*
X22277191Y-79238560D01*
X22271323Y-79235762D01*
X22143585Y-79170676D01*
X22143584Y-79170675D01*
X22008908Y-79102053D01*
X22003204Y-79098956D01*
X21997613Y-79095728D01*
X21992078Y-79092336D01*
X21745111Y-78931954D01*
X21739764Y-78928279D01*
X21734521Y-78924470D01*
X21729367Y-78920516D01*
X21500506Y-78735188D01*
X21495586Y-78730986D01*
X21490735Y-78726617D01*
X21486048Y-78722169D01*
X21277829Y-78513950D01*
X21273381Y-78509265D01*
X21269010Y-78504409D01*
X21264810Y-78499491D01*
X21223713Y-78448740D01*
X21223713Y-78448741D01*
X21079468Y-78270613D01*
X21075523Y-78265471D01*
X21071717Y-78260232D01*
X21068043Y-78254886D01*
X21068039Y-78254880D01*
X20907650Y-78007901D01*
X20904278Y-78002399D01*
X20901033Y-77996778D01*
X20897945Y-77991091D01*
X20764237Y-77728675D01*
X20761443Y-77722816D01*
X20758813Y-77716909D01*
X20756330Y-77710917D01*
X20720604Y-77617847D01*
X20650790Y-77435974D01*
X20648636Y-77429893D01*
X20646620Y-77423687D01*
X20644775Y-77417453D01*
X20644626Y-77416895D01*
X20568564Y-77133031D01*
X20567049Y-77126718D01*
X20565701Y-77120375D01*
X20564527Y-77114047D01*
X20554904Y-77053285D01*
X20518451Y-76823136D01*
X20517607Y-76816725D01*
X20516928Y-76810274D01*
X20516422Y-76803843D01*
X20500753Y-76504839D01*
X20500629Y-76501678D01*
X20500541Y-76498324D01*
X20500500Y-76495148D01*
X20500500Y-75878710D01*
X22149500Y-75878710D01*
X22149500Y-76121288D01*
X22176564Y-76326873D01*
X22181161Y-76361785D01*
X22216429Y-76493406D01*
X22243947Y-76596104D01*
X22278763Y-76680156D01*
X22278763Y-76680157D01*
X22336770Y-76820200D01*
X22336777Y-76820215D01*
X22458060Y-77030283D01*
X22458062Y-77030286D01*
X22458281Y-77030615D01*
X22459284Y-77031879D01*
X22605726Y-77222728D01*
X22605730Y-77222733D01*
X22605733Y-77222736D01*
X22605739Y-77222743D01*
X22777256Y-77394260D01*
X22777263Y-77394266D01*
X22777266Y-77394268D01*
X22777270Y-77394272D01*
X22890321Y-77481018D01*
X22969711Y-77541936D01*
X23179788Y-77663224D01*
X23403900Y-77756054D01*
X23638211Y-77818838D01*
X23818586Y-77842584D01*
X23878710Y-77850500D01*
X23878711Y-77850500D01*
X23878712Y-77850500D01*
X24121283Y-77850500D01*
X24121289Y-77850500D01*
X24169388Y-77844167D01*
X24361789Y-77818838D01*
X24596100Y-77756054D01*
X24820212Y-77663224D01*
X25030289Y-77541936D01*
X25222738Y-77394265D01*
X25394265Y-77222738D01*
X25541936Y-77030289D01*
X25663224Y-76820212D01*
X25756054Y-76596100D01*
X25818838Y-76361789D01*
X25850500Y-76121288D01*
X25850500Y-75878712D01*
X25818838Y-75638211D01*
X25756054Y-75403900D01*
X25756051Y-75403892D01*
X25735454Y-75354165D01*
X25664906Y-75183851D01*
X25664202Y-75181965D01*
X25663235Y-75179817D01*
X25663226Y-75179794D01*
X25663224Y-75179788D01*
X25541936Y-74969711D01*
X25394265Y-74777262D01*
X25394260Y-74777256D01*
X25394259Y-74777255D01*
X25394247Y-74777242D01*
X25222751Y-74605747D01*
X25222743Y-74605739D01*
X25222736Y-74605733D01*
X25222733Y-74605730D01*
X25222728Y-74605726D01*
X25031879Y-74459284D01*
X25030615Y-74458281D01*
X25030286Y-74458062D01*
X25030283Y-74458060D01*
X24820220Y-74336780D01*
X24820207Y-74336773D01*
X24820203Y-74336772D01*
X24596104Y-74243947D01*
X24391197Y-74189042D01*
X24361785Y-74181161D01*
X24361784Y-74181160D01*
X24361781Y-74181160D01*
X24121290Y-74149500D01*
X24121289Y-74149500D01*
X24121288Y-74149500D01*
X23878712Y-74149500D01*
X23878711Y-74149500D01*
X23878710Y-74149500D01*
X23638217Y-74181160D01*
X23403894Y-74243947D01*
X23179790Y-74336774D01*
X23179782Y-74336778D01*
X22969706Y-74458067D01*
X22969697Y-74458073D01*
X22777270Y-74605726D01*
X22777255Y-74605740D01*
X22777247Y-74605747D01*
X22605747Y-74777247D01*
X22605740Y-74777255D01*
X22605726Y-74777270D01*
X22458073Y-74969697D01*
X22458067Y-74969706D01*
X22336778Y-75179782D01*
X22336774Y-75179790D01*
X22243947Y-75403894D01*
X22181160Y-75638217D01*
X22149500Y-75878710D01*
X20500500Y-75878710D01*
X20500500Y-62827094D01*
X21204237Y-62827094D01*
X21247945Y-63046822D01*
X21247946Y-63046826D01*
X21247947Y-63046829D01*
X21247950Y-63046839D01*
X21247953Y-63046847D01*
X21247958Y-63046861D01*
X21323360Y-63228900D01*
X21323365Y-63228909D01*
X21323375Y-63228926D01*
X21432861Y-63392783D01*
X21432862Y-63392784D01*
X21432867Y-63392790D01*
X21572208Y-63532131D01*
X21572214Y-63532136D01*
X21572218Y-63532139D01*
X21736079Y-63641628D01*
X21736092Y-63641635D01*
X21918160Y-63717049D01*
X21918165Y-63717051D01*
X21918169Y-63717051D01*
X21918170Y-63717052D01*
X21918442Y-63717106D01*
X21918469Y-63717112D01*
X22111453Y-63755500D01*
X22308543Y-63755500D01*
X22308544Y-63755500D01*
X22330216Y-63751188D01*
X22438582Y-63729632D01*
X22438583Y-63729632D01*
X22451301Y-63727102D01*
X22501835Y-63717051D01*
X22683914Y-63641632D01*
X22847782Y-63532139D01*
X22987139Y-63392782D01*
X23096632Y-63228914D01*
X23172051Y-63046835D01*
X23210500Y-62853541D01*
X23210500Y-62656459D01*
X23210500Y-62656456D01*
X23210500Y-62656453D01*
X23172112Y-62463471D01*
X23172112Y-62463472D01*
X23172052Y-62463170D01*
X23172051Y-62463169D01*
X23171811Y-62461964D01*
X23169735Y-62457573D01*
X23096635Y-62281092D01*
X23096628Y-62281079D01*
X23035137Y-62189051D01*
X23035137Y-62189050D01*
X23035134Y-62189047D01*
X22994540Y-62128295D01*
X22993172Y-62126247D01*
X25845500Y-62126247D01*
X25845500Y-63383752D01*
X25857131Y-63442229D01*
X25857132Y-63442230D01*
X25857132Y-63442231D01*
X25857134Y-63442233D01*
X25901447Y-63508552D01*
X25967765Y-63552864D01*
X25967767Y-63552866D01*
X25967770Y-63552868D01*
X26018612Y-63562981D01*
X26021337Y-63563703D01*
X26026249Y-63564500D01*
X27283750Y-63564500D01*
X27287873Y-63564500D01*
X27295732Y-63562116D01*
X27317855Y-63557716D01*
X27330258Y-63555249D01*
X27336354Y-63554648D01*
X27336386Y-63554639D01*
X27347311Y-63551902D01*
X27357515Y-63542654D01*
X27408552Y-63508552D01*
X27452867Y-63442231D01*
X27452867Y-63442229D01*
X27452868Y-63442229D01*
X27455030Y-63431355D01*
X27455166Y-63431090D01*
X27455249Y-63430256D01*
X27462703Y-63392784D01*
X27464072Y-63385896D01*
X27464500Y-63383931D01*
X27464500Y-62128295D01*
X27464500Y-62126249D01*
X27464499Y-62126247D01*
X27452868Y-62067770D01*
X27452867Y-62067769D01*
X27408552Y-62001447D01*
X27372146Y-61977121D01*
X27352385Y-61963917D01*
X27347641Y-61960024D01*
X27342230Y-61957132D01*
X27342229Y-61957131D01*
X27283752Y-61945500D01*
X27283750Y-61945500D01*
X26026249Y-61945500D01*
X26026247Y-61945500D01*
X25967770Y-61957131D01*
X25967769Y-61957131D01*
X25967768Y-61957132D01*
X25962355Y-61960024D01*
X25957614Y-61963916D01*
X25901447Y-62001446D01*
X25901446Y-62001447D01*
X25874272Y-62042114D01*
X25874270Y-62042119D01*
X25857132Y-62067769D01*
X25857131Y-62067770D01*
X25845500Y-62126247D01*
X22993172Y-62126247D01*
X22987139Y-62117218D01*
X22987136Y-62117214D01*
X22987131Y-62117208D01*
X22847790Y-61977867D01*
X22847784Y-61977862D01*
X22847783Y-61977861D01*
X22683926Y-61868375D01*
X22683925Y-61868374D01*
X22683920Y-61868371D01*
X22683907Y-61868364D01*
X22683900Y-61868360D01*
X22501861Y-61792958D01*
X22501847Y-61792953D01*
X22501839Y-61792950D01*
X22501829Y-61792947D01*
X22501826Y-61792946D01*
X22501822Y-61792945D01*
X22308546Y-61754500D01*
X22308543Y-61754500D01*
X22308541Y-61754500D01*
X22111459Y-61754500D01*
X22111457Y-61754500D01*
X22111453Y-61754500D01*
X21918176Y-61792945D01*
X21918170Y-61792947D01*
X21918160Y-61792950D01*
X21918155Y-61792951D01*
X21918137Y-61792958D01*
X21736098Y-61868360D01*
X21736089Y-61868365D01*
X21736072Y-61868375D01*
X21572215Y-61977861D01*
X21572214Y-61977862D01*
X21572208Y-61977867D01*
X21432867Y-62117208D01*
X21432862Y-62117214D01*
X21432861Y-62117215D01*
X21323375Y-62281072D01*
X21323365Y-62281089D01*
X21323360Y-62281098D01*
X21247958Y-62463137D01*
X21247945Y-62463176D01*
X21209500Y-62656451D01*
X21209500Y-62809174D01*
X21204237Y-62827094D01*
X20500500Y-62827094D01*
X20500500Y-60135262D01*
X25845500Y-60135262D01*
X25845500Y-60294736D01*
X25876600Y-60451088D01*
X25876608Y-60451123D01*
X25937624Y-60598433D01*
X25937629Y-60598443D01*
X26026220Y-60731027D01*
X26026221Y-60731028D01*
X26026226Y-60731034D01*
X26138964Y-60843772D01*
X26138970Y-60843777D01*
X26138971Y-60843778D01*
X26271554Y-60932368D01*
X26271557Y-60932369D01*
X26271558Y-60932370D01*
X26418878Y-60993392D01*
X26575266Y-61024499D01*
X26575270Y-61024500D01*
X26575271Y-61024500D01*
X26734730Y-61024500D01*
X26734731Y-61024499D01*
X26891122Y-60993392D01*
X27038442Y-60932370D01*
X27171026Y-60843780D01*
X27283780Y-60731026D01*
X27372370Y-60598442D01*
X27433392Y-60451122D01*
X27464500Y-60294729D01*
X27464500Y-60135271D01*
X27464500Y-60135266D01*
X27433393Y-59978885D01*
X27433392Y-59978878D01*
X27372370Y-59831558D01*
X27372369Y-59831557D01*
X27372368Y-59831555D01*
X27372368Y-59831554D01*
X27283778Y-59698971D01*
X27283777Y-59698970D01*
X27283772Y-59698964D01*
X27171034Y-59586226D01*
X27171028Y-59586221D01*
X27171027Y-59586220D01*
X27038442Y-59497629D01*
X27038443Y-59497629D01*
X27038433Y-59497624D01*
X26891123Y-59436608D01*
X26891088Y-59436600D01*
X26734736Y-59405500D01*
X26734733Y-59405500D01*
X26734729Y-59405500D01*
X26575271Y-59405500D01*
X26575266Y-59405500D01*
X26575262Y-59405500D01*
X26418910Y-59436600D01*
X26418875Y-59436608D01*
X26271565Y-59497624D01*
X26271555Y-59497629D01*
X26138971Y-59586220D01*
X26138970Y-59586221D01*
X26138964Y-59586226D01*
X26026226Y-59698964D01*
X26026221Y-59698970D01*
X26026220Y-59698971D01*
X25937629Y-59831555D01*
X25937624Y-59831565D01*
X25876608Y-59978875D01*
X25876600Y-59978910D01*
X25845500Y-60135262D01*
X20500500Y-60135262D01*
X20500500Y-57595262D01*
X25845500Y-57595262D01*
X25845500Y-57754736D01*
X25876600Y-57911088D01*
X25876608Y-57911123D01*
X25937624Y-58058433D01*
X25937629Y-58058443D01*
X26026220Y-58191027D01*
X26026221Y-58191028D01*
X26026226Y-58191034D01*
X26138964Y-58303772D01*
X26138970Y-58303777D01*
X26138971Y-58303778D01*
X26271554Y-58392368D01*
X26271557Y-58392369D01*
X26271558Y-58392370D01*
X26418878Y-58453392D01*
X26575266Y-58484499D01*
X26575270Y-58484500D01*
X26575271Y-58484500D01*
X26734730Y-58484500D01*
X26734731Y-58484499D01*
X26891122Y-58453392D01*
X27038442Y-58392370D01*
X27171026Y-58303780D01*
X27283780Y-58191026D01*
X27372370Y-58058442D01*
X27433392Y-57911122D01*
X27464500Y-57754729D01*
X27464500Y-57595271D01*
X27433392Y-57438878D01*
X27372370Y-57291558D01*
X27372369Y-57291557D01*
X27372368Y-57291555D01*
X27372368Y-57291554D01*
X27283778Y-57158971D01*
X27283777Y-57158970D01*
X27283772Y-57158964D01*
X27171034Y-57046226D01*
X27171028Y-57046221D01*
X27171027Y-57046220D01*
X27038442Y-56957629D01*
X27038443Y-56957629D01*
X27038433Y-56957624D01*
X26891123Y-56896608D01*
X26891088Y-56896600D01*
X26734736Y-56865500D01*
X26734733Y-56865500D01*
X26734729Y-56865500D01*
X26575271Y-56865500D01*
X26575266Y-56865500D01*
X26575262Y-56865500D01*
X26418910Y-56896600D01*
X26418875Y-56896608D01*
X26271565Y-56957624D01*
X26271555Y-56957629D01*
X26138971Y-57046220D01*
X26138970Y-57046221D01*
X26138964Y-57046226D01*
X26026226Y-57158964D01*
X26026221Y-57158970D01*
X26026220Y-57158971D01*
X25937629Y-57291555D01*
X25937624Y-57291565D01*
X25876608Y-57438875D01*
X25876600Y-57438910D01*
X25845500Y-57595262D01*
X20500500Y-57595262D01*
X20500500Y-53302094D01*
X25649237Y-53302094D01*
X25692945Y-53521822D01*
X25692946Y-53521826D01*
X25692947Y-53521829D01*
X25692950Y-53521839D01*
X25692953Y-53521847D01*
X25692958Y-53521861D01*
X25768360Y-53703900D01*
X25768365Y-53703909D01*
X25768375Y-53703926D01*
X25877861Y-53867783D01*
X25877862Y-53867784D01*
X25877867Y-53867790D01*
X26017208Y-54007131D01*
X26017214Y-54007136D01*
X26017218Y-54007139D01*
X26181079Y-54116628D01*
X26181092Y-54116635D01*
X26363160Y-54192049D01*
X26363165Y-54192051D01*
X26363169Y-54192051D01*
X26363170Y-54192052D01*
X26363442Y-54192106D01*
X26363469Y-54192112D01*
X26556453Y-54230500D01*
X26753543Y-54230500D01*
X26753544Y-54230500D01*
X26775216Y-54226188D01*
X26883582Y-54204632D01*
X26883583Y-54204632D01*
X26896301Y-54202102D01*
X26946835Y-54192051D01*
X27128914Y-54116632D01*
X27292782Y-54007139D01*
X27432139Y-53867782D01*
X27541632Y-53703914D01*
X27617051Y-53521835D01*
X27647759Y-53367458D01*
X27655500Y-53328543D01*
X27655500Y-53131456D01*
X27655500Y-53131453D01*
X27635543Y-53031125D01*
X27631612Y-53011363D01*
X29959500Y-53011363D01*
X29959500Y-76308640D01*
X29962397Y-76362688D01*
X29962397Y-76362689D01*
X29965229Y-76389022D01*
X29965232Y-76389049D01*
X29973885Y-76442445D01*
X29973885Y-76442447D01*
X29997160Y-76504848D01*
X30024168Y-76577257D01*
X30046555Y-76618256D01*
X30055696Y-76634997D01*
X30057653Y-76638580D01*
X30143877Y-76753761D01*
X30143881Y-76753765D01*
X30143886Y-76753771D01*
X30612844Y-77222728D01*
X31071239Y-77681123D01*
X31071255Y-77681137D01*
X31071262Y-77681144D01*
X31111480Y-77717271D01*
X31111492Y-77717281D01*
X31111500Y-77717288D01*
X31125631Y-77728675D01*
X31132143Y-77733923D01*
X31138539Y-77738535D01*
X31176026Y-77765567D01*
X31306903Y-77825338D01*
X31373942Y-77845023D01*
X31373946Y-77845024D01*
X31516362Y-77865500D01*
X35080516Y-77865500D01*
X35080525Y-77865500D01*
X35151957Y-77860428D01*
X35186649Y-77855476D01*
X35256641Y-77840362D01*
X35256644Y-77840361D01*
X35387637Y-77780862D01*
X35387637Y-77780861D01*
X35387641Y-77780860D01*
X35446496Y-77743206D01*
X35555424Y-77649208D01*
X35583467Y-77605767D01*
X35633456Y-77528335D01*
X35633457Y-77528332D01*
X35633460Y-77528328D01*
X35662615Y-77464832D01*
X35662618Y-77464824D01*
X35703435Y-77326855D01*
X35703727Y-77182975D01*
X35702416Y-77173725D01*
X35696427Y-77131461D01*
X35693924Y-77113796D01*
X35653670Y-76975664D01*
X35599104Y-76855535D01*
X35591761Y-76834551D01*
X35563138Y-76720954D01*
X35559762Y-76700386D01*
X35559169Y-76692856D01*
X35555382Y-76644723D01*
X35555000Y-76634997D01*
X35555000Y-74275000D01*
X35555382Y-74265272D01*
X35559762Y-74209612D01*
X35563137Y-74189047D01*
X35591762Y-74075442D01*
X35599101Y-74054468D01*
X35646083Y-73951035D01*
X35657044Y-73931718D01*
X35721733Y-73838349D01*
X35735973Y-73821291D01*
X35816291Y-73740973D01*
X35833349Y-73726733D01*
X35926714Y-73662048D01*
X35926718Y-73662044D01*
X35946035Y-73651083D01*
X36049468Y-73604101D01*
X36070442Y-73596762D01*
X36184047Y-73568137D01*
X36204609Y-73564762D01*
X36246884Y-73561435D01*
X36260275Y-73560382D01*
X36270002Y-73560000D01*
X38629996Y-73560000D01*
X38639723Y-73560382D01*
X38656771Y-73561723D01*
X38695387Y-73564762D01*
X38715956Y-73568139D01*
X38829553Y-73596763D01*
X38850532Y-73604103D01*
X38953957Y-73651080D01*
X38973282Y-73662047D01*
X39066648Y-73726733D01*
X39083712Y-73740979D01*
X39164018Y-73821285D01*
X39178265Y-73838350D01*
X39242948Y-73931714D01*
X39253919Y-73951048D01*
X39300896Y-74054469D01*
X39308239Y-74075453D01*
X39336860Y-74189040D01*
X39340236Y-74209607D01*
X39344618Y-74265274D01*
X39345000Y-74275005D01*
X39345000Y-76634993D01*
X39344618Y-76644724D01*
X39340236Y-76700391D01*
X39336860Y-76720958D01*
X39308238Y-76834549D01*
X39300896Y-76855531D01*
X39246330Y-76975663D01*
X39221408Y-77042794D01*
X39221406Y-77042798D01*
X39211569Y-77076426D01*
X39196382Y-77146417D01*
X39196382Y-77290293D01*
X39196383Y-77290297D01*
X39206327Y-77359455D01*
X39206328Y-77359460D01*
X39206329Y-77359463D01*
X39246861Y-77497501D01*
X39246864Y-77497507D01*
X39324646Y-77618537D01*
X39324654Y-77618548D01*
X39370398Y-77671340D01*
X39370401Y-77671343D01*
X39370405Y-77671347D01*
X39479139Y-77765567D01*
X39479142Y-77765568D01*
X39479143Y-77765569D01*
X39556358Y-77800833D01*
X39610016Y-77825338D01*
X39677055Y-77845023D01*
X39677059Y-77845024D01*
X39819475Y-77865500D01*
X39819478Y-77865500D01*
X44653638Y-77865500D01*
X44653640Y-77865500D01*
X44666434Y-77864814D01*
X44707678Y-77862603D01*
X44707686Y-77862602D01*
X44707688Y-77862602D01*
X44707689Y-77862602D01*
X44714682Y-77861849D01*
X44734036Y-77859769D01*
X44734046Y-77859767D01*
X44734049Y-77859767D01*
X44743648Y-77858211D01*
X44787448Y-77851114D01*
X44922257Y-77800832D01*
X44983580Y-77767347D01*
X45098761Y-77681123D01*
X46026123Y-76753761D01*
X46062288Y-76713500D01*
X46078922Y-76692858D01*
X46110567Y-76648974D01*
X46170338Y-76518097D01*
X46190023Y-76451058D01*
X46190024Y-76451054D01*
X46210500Y-76308638D01*
X46210500Y-64177616D01*
X46205856Y-64109252D01*
X46201320Y-64076020D01*
X46187473Y-64008912D01*
X46129579Y-63877193D01*
X46100389Y-63830313D01*
X46081666Y-63762999D01*
X46102307Y-63696248D01*
X46155760Y-63651252D01*
X46158149Y-63650232D01*
X46178914Y-63641632D01*
X46342782Y-63532139D01*
X46482139Y-63392782D01*
X46591632Y-63228914D01*
X46667051Y-63046835D01*
X46705500Y-62853541D01*
X46705500Y-62656459D01*
X46705500Y-62656456D01*
X46705500Y-62656453D01*
X46667112Y-62463471D01*
X46667112Y-62463472D01*
X46667052Y-62463170D01*
X46667051Y-62463169D01*
X46666811Y-62461964D01*
X46664735Y-62457573D01*
X46591635Y-62281092D01*
X46591628Y-62281079D01*
X46530137Y-62189051D01*
X46530137Y-62189050D01*
X46530134Y-62189047D01*
X46489540Y-62128295D01*
X46488172Y-62126247D01*
X49340500Y-62126247D01*
X49340500Y-63383752D01*
X49352131Y-63442229D01*
X49352132Y-63442230D01*
X49352132Y-63442231D01*
X49352134Y-63442233D01*
X49396447Y-63508552D01*
X49462765Y-63552864D01*
X49462767Y-63552866D01*
X49462770Y-63552868D01*
X49513612Y-63562981D01*
X49516337Y-63563703D01*
X49521249Y-63564500D01*
X50778750Y-63564500D01*
X50782873Y-63564500D01*
X50790732Y-63562116D01*
X50812855Y-63557716D01*
X50825258Y-63555249D01*
X50831354Y-63554648D01*
X50831386Y-63554639D01*
X50842311Y-63551902D01*
X50852515Y-63542654D01*
X50903552Y-63508552D01*
X50947867Y-63442231D01*
X50947867Y-63442229D01*
X50947868Y-63442229D01*
X50950030Y-63431355D01*
X50950166Y-63431090D01*
X50950249Y-63430256D01*
X50957703Y-63392784D01*
X50959072Y-63385896D01*
X50959500Y-63383931D01*
X50959500Y-62128295D01*
X50959500Y-62126249D01*
X50959499Y-62126247D01*
X50947868Y-62067770D01*
X50947867Y-62067769D01*
X50903552Y-62001447D01*
X50867146Y-61977121D01*
X50847385Y-61963917D01*
X50842641Y-61960024D01*
X50837230Y-61957132D01*
X50837229Y-61957131D01*
X50778752Y-61945500D01*
X50778750Y-61945500D01*
X49521249Y-61945500D01*
X49521247Y-61945500D01*
X49462770Y-61957131D01*
X49462769Y-61957131D01*
X49462768Y-61957132D01*
X49457355Y-61960024D01*
X49452614Y-61963916D01*
X49396447Y-62001446D01*
X49396446Y-62001447D01*
X49369272Y-62042114D01*
X49369270Y-62042119D01*
X49352132Y-62067769D01*
X49352131Y-62067770D01*
X49340500Y-62126247D01*
X46488172Y-62126247D01*
X46482139Y-62117218D01*
X46482136Y-62117214D01*
X46482131Y-62117208D01*
X46342790Y-61977867D01*
X46342784Y-61977862D01*
X46342783Y-61977861D01*
X46178926Y-61868375D01*
X46178925Y-61868374D01*
X46178920Y-61868371D01*
X46178907Y-61868364D01*
X46178900Y-61868360D01*
X45996861Y-61792958D01*
X45996847Y-61792953D01*
X45996839Y-61792950D01*
X45996829Y-61792947D01*
X45996826Y-61792946D01*
X45996822Y-61792945D01*
X45803546Y-61754500D01*
X45803543Y-61754500D01*
X45803541Y-61754500D01*
X45792613Y-61754500D01*
X45725574Y-61734815D01*
X45679819Y-61682011D01*
X45669875Y-61612853D01*
X45670735Y-61607658D01*
X45688707Y-61511963D01*
X45674350Y-61368801D01*
X45673763Y-61366430D01*
X45657558Y-61300990D01*
X45657551Y-61300969D01*
X45603448Y-61167666D01*
X45603443Y-61167658D01*
X45513967Y-61054987D01*
X45481686Y-61024499D01*
X45463172Y-61007013D01*
X45463170Y-61007011D01*
X45345573Y-60924111D01*
X45290893Y-60896250D01*
X45285144Y-60892466D01*
X45284488Y-60891692D01*
X45280432Y-60889207D01*
X45194981Y-60827124D01*
X45180185Y-60814486D01*
X45105506Y-60739807D01*
X45092868Y-60725010D01*
X45030792Y-60639568D01*
X45020626Y-60622979D01*
X44972676Y-60528873D01*
X44965230Y-60510896D01*
X44945797Y-60451088D01*
X44932590Y-60410439D01*
X44928048Y-60391518D01*
X44911527Y-60287206D01*
X44910000Y-60267809D01*
X44910000Y-60162188D01*
X44911527Y-60142790D01*
X44912719Y-60135262D01*
X49340500Y-60135262D01*
X49340500Y-60294736D01*
X49371600Y-60451088D01*
X49371608Y-60451123D01*
X49432624Y-60598433D01*
X49432629Y-60598443D01*
X49521220Y-60731027D01*
X49521221Y-60731028D01*
X49521226Y-60731034D01*
X49633964Y-60843772D01*
X49633970Y-60843777D01*
X49633971Y-60843778D01*
X49766554Y-60932368D01*
X49766557Y-60932369D01*
X49766558Y-60932370D01*
X49913878Y-60993392D01*
X50070266Y-61024499D01*
X50070270Y-61024500D01*
X50070271Y-61024500D01*
X50229730Y-61024500D01*
X50229731Y-61024499D01*
X50386122Y-60993392D01*
X50533442Y-60932370D01*
X50666026Y-60843780D01*
X50778780Y-60731026D01*
X50867370Y-60598442D01*
X50928392Y-60451122D01*
X50959500Y-60294729D01*
X50959500Y-60135271D01*
X50959500Y-60135266D01*
X50928393Y-59978885D01*
X50928392Y-59978878D01*
X50867370Y-59831558D01*
X50867369Y-59831557D01*
X50867368Y-59831555D01*
X50867368Y-59831554D01*
X50778778Y-59698971D01*
X50778777Y-59698970D01*
X50778772Y-59698964D01*
X50666034Y-59586226D01*
X50666028Y-59586221D01*
X50666027Y-59586220D01*
X50533442Y-59497629D01*
X50533443Y-59497629D01*
X50533433Y-59497624D01*
X50386123Y-59436608D01*
X50386088Y-59436600D01*
X50229736Y-59405500D01*
X50229733Y-59405500D01*
X50229729Y-59405500D01*
X50070271Y-59405500D01*
X50070266Y-59405500D01*
X50070262Y-59405500D01*
X49913910Y-59436600D01*
X49913875Y-59436608D01*
X49766565Y-59497624D01*
X49766555Y-59497629D01*
X49633971Y-59586220D01*
X49633970Y-59586221D01*
X49633964Y-59586226D01*
X49521226Y-59698964D01*
X49521221Y-59698970D01*
X49521220Y-59698971D01*
X49432629Y-59831555D01*
X49432624Y-59831565D01*
X49371608Y-59978875D01*
X49371600Y-59978910D01*
X49340500Y-60135262D01*
X44912719Y-60135262D01*
X44916756Y-60109776D01*
X44916756Y-60109775D01*
X44928048Y-60038479D01*
X44932590Y-60019558D01*
X44965233Y-59919092D01*
X44972672Y-59901132D01*
X45020629Y-59807011D01*
X45030788Y-59790434D01*
X45092873Y-59704980D01*
X45105500Y-59690196D01*
X45180196Y-59615500D01*
X45194980Y-59602873D01*
X45280434Y-59540788D01*
X45297011Y-59530629D01*
X45391132Y-59482672D01*
X45409088Y-59475234D01*
X45509572Y-59442585D01*
X45528455Y-59438051D01*
X45679475Y-59414133D01*
X45746276Y-59398850D01*
X45778389Y-59389171D01*
X45842504Y-59364996D01*
X45963543Y-59287208D01*
X46016347Y-59241453D01*
X46110567Y-59132719D01*
X46170338Y-59001842D01*
X46190023Y-58934803D01*
X46190024Y-58934799D01*
X46210500Y-58792383D01*
X46210500Y-57595262D01*
X49340500Y-57595262D01*
X49340500Y-57754736D01*
X49371600Y-57911088D01*
X49371608Y-57911123D01*
X49432624Y-58058433D01*
X49432629Y-58058443D01*
X49521220Y-58191027D01*
X49521221Y-58191028D01*
X49521226Y-58191034D01*
X49633964Y-58303772D01*
X49633970Y-58303777D01*
X49633971Y-58303778D01*
X49766554Y-58392368D01*
X49766557Y-58392369D01*
X49766558Y-58392370D01*
X49913878Y-58453392D01*
X50070266Y-58484499D01*
X50070270Y-58484500D01*
X50070271Y-58484500D01*
X50229730Y-58484500D01*
X50229731Y-58484499D01*
X50386122Y-58453392D01*
X50533442Y-58392370D01*
X50666026Y-58303780D01*
X50778780Y-58191026D01*
X50867370Y-58058442D01*
X50928392Y-57911122D01*
X50959500Y-57754729D01*
X50959500Y-57595271D01*
X50928392Y-57438878D01*
X50867370Y-57291558D01*
X50867369Y-57291557D01*
X50867368Y-57291555D01*
X50867368Y-57291554D01*
X50778778Y-57158971D01*
X50778777Y-57158970D01*
X50778772Y-57158964D01*
X50666034Y-57046226D01*
X50666028Y-57046221D01*
X50666027Y-57046220D01*
X50533442Y-56957629D01*
X50533443Y-56957629D01*
X50533433Y-56957624D01*
X50386123Y-56896608D01*
X50386088Y-56896600D01*
X50229736Y-56865500D01*
X50229733Y-56865500D01*
X50229729Y-56865500D01*
X50070271Y-56865500D01*
X50070266Y-56865500D01*
X50070262Y-56865500D01*
X49913910Y-56896600D01*
X49913875Y-56896608D01*
X49766565Y-56957624D01*
X49766555Y-56957629D01*
X49633971Y-57046220D01*
X49633970Y-57046221D01*
X49633964Y-57046226D01*
X49521226Y-57158964D01*
X49521221Y-57158970D01*
X49521220Y-57158971D01*
X49432629Y-57291555D01*
X49432624Y-57291565D01*
X49371608Y-57438875D01*
X49371600Y-57438910D01*
X49340500Y-57595262D01*
X46210500Y-57595262D01*
X46210500Y-53302094D01*
X49144237Y-53302094D01*
X49187945Y-53521822D01*
X49187946Y-53521826D01*
X49187947Y-53521829D01*
X49187950Y-53521839D01*
X49187953Y-53521847D01*
X49187958Y-53521861D01*
X49263360Y-53703900D01*
X49263365Y-53703909D01*
X49263375Y-53703926D01*
X49372861Y-53867783D01*
X49372862Y-53867784D01*
X49372867Y-53867790D01*
X49512208Y-54007131D01*
X49512214Y-54007136D01*
X49512218Y-54007139D01*
X49676079Y-54116628D01*
X49676092Y-54116635D01*
X49858160Y-54192049D01*
X49858165Y-54192051D01*
X49858169Y-54192051D01*
X49858170Y-54192052D01*
X49858442Y-54192106D01*
X49858469Y-54192112D01*
X50051453Y-54230500D01*
X50248543Y-54230500D01*
X50248544Y-54230500D01*
X50270216Y-54226188D01*
X50378582Y-54204632D01*
X50378583Y-54204632D01*
X50391301Y-54202102D01*
X50441835Y-54192051D01*
X50623914Y-54116632D01*
X50787782Y-54007139D01*
X50927139Y-53867782D01*
X51036632Y-53703914D01*
X51112051Y-53521835D01*
X51142759Y-53367458D01*
X51150500Y-53328543D01*
X51150500Y-53131456D01*
X51150500Y-53131453D01*
X51130543Y-53031125D01*
X51126612Y-53011363D01*
X59804500Y-53011363D01*
X59804500Y-76308640D01*
X59807397Y-76362688D01*
X59807397Y-76362689D01*
X59810229Y-76389022D01*
X59810232Y-76389049D01*
X59818885Y-76442445D01*
X59818885Y-76442447D01*
X59842160Y-76504848D01*
X59869168Y-76577257D01*
X59891555Y-76618256D01*
X59900696Y-76634997D01*
X59902653Y-76638580D01*
X59988877Y-76753761D01*
X59988881Y-76753765D01*
X59988886Y-76753771D01*
X60457844Y-77222728D01*
X60916239Y-77681123D01*
X60916255Y-77681137D01*
X60916262Y-77681144D01*
X60956480Y-77717271D01*
X60956492Y-77717281D01*
X60956500Y-77717288D01*
X60970631Y-77728675D01*
X60977143Y-77733923D01*
X60983539Y-77738535D01*
X61021026Y-77765567D01*
X61151903Y-77825338D01*
X61218942Y-77845023D01*
X61218946Y-77845024D01*
X61361362Y-77865500D01*
X64925516Y-77865500D01*
X64925525Y-77865500D01*
X64996957Y-77860428D01*
X65031649Y-77855476D01*
X65101641Y-77840362D01*
X65101644Y-77840361D01*
X65232637Y-77780862D01*
X65232637Y-77780861D01*
X65232641Y-77780860D01*
X65291496Y-77743206D01*
X65400424Y-77649208D01*
X65428467Y-77605767D01*
X65478456Y-77528335D01*
X65478457Y-77528332D01*
X65478460Y-77528328D01*
X65507615Y-77464832D01*
X65507618Y-77464824D01*
X65548435Y-77326855D01*
X65548727Y-77182975D01*
X65547416Y-77173725D01*
X65541427Y-77131461D01*
X65538924Y-77113796D01*
X65498670Y-76975664D01*
X65444104Y-76855535D01*
X65436761Y-76834551D01*
X65408138Y-76720954D01*
X65404762Y-76700386D01*
X65404169Y-76692856D01*
X65400382Y-76644723D01*
X65400000Y-76634997D01*
X65400000Y-74275000D01*
X65400382Y-74265272D01*
X65404762Y-74209612D01*
X65408137Y-74189047D01*
X65436762Y-74075442D01*
X65444101Y-74054468D01*
X65491083Y-73951035D01*
X65502044Y-73931718D01*
X65566733Y-73838349D01*
X65580973Y-73821291D01*
X65661291Y-73740973D01*
X65678349Y-73726733D01*
X65771714Y-73662048D01*
X65771718Y-73662044D01*
X65791035Y-73651083D01*
X65894468Y-73604101D01*
X65915442Y-73596762D01*
X66029047Y-73568137D01*
X66049609Y-73564762D01*
X66091884Y-73561435D01*
X66105275Y-73560382D01*
X66115002Y-73560000D01*
X68474996Y-73560000D01*
X68484723Y-73560382D01*
X68501771Y-73561723D01*
X68540387Y-73564762D01*
X68560956Y-73568139D01*
X68674553Y-73596763D01*
X68695532Y-73604103D01*
X68798957Y-73651080D01*
X68818282Y-73662047D01*
X68911648Y-73726733D01*
X68928712Y-73740979D01*
X69009018Y-73821285D01*
X69023265Y-73838350D01*
X69087948Y-73931714D01*
X69098919Y-73951048D01*
X69145896Y-74054469D01*
X69153239Y-74075453D01*
X69181860Y-74189040D01*
X69185236Y-74209607D01*
X69189618Y-74265274D01*
X69190000Y-74275005D01*
X69190000Y-76634993D01*
X69189618Y-76644724D01*
X69185236Y-76700391D01*
X69181860Y-76720958D01*
X69153238Y-76834549D01*
X69145896Y-76855531D01*
X69091330Y-76975663D01*
X69066408Y-77042794D01*
X69066406Y-77042798D01*
X69056569Y-77076426D01*
X69041382Y-77146417D01*
X69041382Y-77290293D01*
X69041383Y-77290297D01*
X69051327Y-77359455D01*
X69051328Y-77359460D01*
X69051329Y-77359463D01*
X69091861Y-77497501D01*
X69091864Y-77497507D01*
X69169646Y-77618537D01*
X69169654Y-77618548D01*
X69215398Y-77671340D01*
X69215401Y-77671343D01*
X69215405Y-77671347D01*
X69324139Y-77765567D01*
X69324142Y-77765568D01*
X69324143Y-77765569D01*
X69401358Y-77800833D01*
X69455016Y-77825338D01*
X69522055Y-77845023D01*
X69522059Y-77845024D01*
X69664475Y-77865500D01*
X69664478Y-77865500D01*
X74498638Y-77865500D01*
X74498640Y-77865500D01*
X74511434Y-77864814D01*
X74552678Y-77862603D01*
X74552686Y-77862602D01*
X74552688Y-77862602D01*
X74552689Y-77862602D01*
X74559682Y-77861849D01*
X74579036Y-77859769D01*
X74579046Y-77859767D01*
X74579049Y-77859767D01*
X74588648Y-77858211D01*
X74632448Y-77851114D01*
X74767257Y-77800832D01*
X74828580Y-77767347D01*
X74943761Y-77681123D01*
X75871123Y-76753761D01*
X75907288Y-76713500D01*
X75923922Y-76692858D01*
X75955567Y-76648974D01*
X76015338Y-76518097D01*
X76035023Y-76451058D01*
X76035024Y-76451054D01*
X76055500Y-76308638D01*
X76055500Y-69521362D01*
X76052603Y-69467322D01*
X76049769Y-69440964D01*
X76041114Y-69387552D01*
X75990832Y-69252743D01*
X75957347Y-69191420D01*
X75871123Y-69076239D01*
X75871118Y-69076234D01*
X75871113Y-69076228D01*
X74943776Y-68148892D01*
X74943761Y-68148877D01*
X74943737Y-68148855D01*
X74903519Y-68112728D01*
X74903507Y-68112718D01*
X74882856Y-68096076D01*
X74838974Y-68064433D01*
X74708100Y-68004663D01*
X74641055Y-67984976D01*
X74569324Y-67974663D01*
X74498638Y-67964500D01*
X74498636Y-67964500D01*
X70464500Y-67964500D01*
X70397461Y-67944815D01*
X70351706Y-67892011D01*
X70340500Y-67840500D01*
X70340500Y-64177623D01*
X70340500Y-64177616D01*
X70335856Y-64109252D01*
X70331320Y-64076020D01*
X70317473Y-64008912D01*
X70259579Y-63877193D01*
X70230389Y-63830313D01*
X70211666Y-63762999D01*
X70232307Y-63696248D01*
X70285760Y-63651252D01*
X70288149Y-63650232D01*
X70308914Y-63641632D01*
X70472782Y-63532139D01*
X70612139Y-63392782D01*
X70721632Y-63228914D01*
X70797051Y-63046835D01*
X70835500Y-62853541D01*
X70835500Y-62656459D01*
X70835500Y-62656456D01*
X70835500Y-62656453D01*
X70797112Y-62463471D01*
X70797112Y-62463472D01*
X70797052Y-62463170D01*
X70797051Y-62463169D01*
X70796811Y-62461964D01*
X70794735Y-62457573D01*
X70721635Y-62281092D01*
X70721628Y-62281079D01*
X70660137Y-62189051D01*
X70660137Y-62189050D01*
X70660134Y-62189047D01*
X70619540Y-62128295D01*
X70618172Y-62126247D01*
X73470500Y-62126247D01*
X73470500Y-63383752D01*
X73482131Y-63442229D01*
X73482132Y-63442230D01*
X73482132Y-63442231D01*
X73482134Y-63442233D01*
X73526447Y-63508552D01*
X73592765Y-63552864D01*
X73592767Y-63552866D01*
X73592770Y-63552868D01*
X73643612Y-63562981D01*
X73646337Y-63563703D01*
X73651249Y-63564500D01*
X74908750Y-63564500D01*
X74912873Y-63564500D01*
X74920732Y-63562116D01*
X74942855Y-63557716D01*
X74955258Y-63555249D01*
X74961354Y-63554648D01*
X74961386Y-63554639D01*
X74972311Y-63551902D01*
X74982515Y-63542654D01*
X75033552Y-63508552D01*
X75077867Y-63442231D01*
X75077867Y-63442229D01*
X75077868Y-63442229D01*
X75080030Y-63431355D01*
X75080166Y-63431090D01*
X75080249Y-63430256D01*
X75087703Y-63392784D01*
X75089072Y-63385896D01*
X75089500Y-63383931D01*
X75089500Y-62128295D01*
X75089500Y-62126249D01*
X75089499Y-62126247D01*
X75077868Y-62067770D01*
X75077867Y-62067769D01*
X75033552Y-62001447D01*
X74997146Y-61977121D01*
X74977385Y-61963917D01*
X74972641Y-61960024D01*
X74967230Y-61957132D01*
X74967229Y-61957131D01*
X74908752Y-61945500D01*
X74908750Y-61945500D01*
X73651249Y-61945500D01*
X73651247Y-61945500D01*
X73592770Y-61957131D01*
X73592769Y-61957131D01*
X73592768Y-61957132D01*
X73587355Y-61960024D01*
X73582614Y-61963916D01*
X73526447Y-62001446D01*
X73526446Y-62001447D01*
X73499272Y-62042114D01*
X73499270Y-62042119D01*
X73482132Y-62067769D01*
X73482131Y-62067770D01*
X73470500Y-62126247D01*
X70618172Y-62126247D01*
X70612139Y-62117218D01*
X70612136Y-62117214D01*
X70612131Y-62117208D01*
X70472790Y-61977867D01*
X70472784Y-61977862D01*
X70472783Y-61977861D01*
X70308926Y-61868375D01*
X70308925Y-61868374D01*
X70308920Y-61868371D01*
X70308907Y-61868364D01*
X70308900Y-61868360D01*
X70126861Y-61792958D01*
X70126847Y-61792953D01*
X70126839Y-61792950D01*
X70126829Y-61792947D01*
X70126826Y-61792946D01*
X70126822Y-61792945D01*
X69933546Y-61754500D01*
X69933543Y-61754500D01*
X69933541Y-61754500D01*
X69922613Y-61754500D01*
X69855574Y-61734815D01*
X69809819Y-61682011D01*
X69799875Y-61612853D01*
X69800735Y-61607658D01*
X69818707Y-61511963D01*
X69804350Y-61368801D01*
X69803763Y-61366430D01*
X69787558Y-61300990D01*
X69787551Y-61300969D01*
X69733448Y-61167666D01*
X69733443Y-61167658D01*
X69643967Y-61054987D01*
X69611686Y-61024499D01*
X69593172Y-61007013D01*
X69593170Y-61007011D01*
X69475573Y-60924111D01*
X69420893Y-60896250D01*
X69415144Y-60892466D01*
X69414488Y-60891692D01*
X69410432Y-60889207D01*
X69324981Y-60827124D01*
X69310185Y-60814486D01*
X69235506Y-60739807D01*
X69222868Y-60725010D01*
X69160792Y-60639568D01*
X69150626Y-60622979D01*
X69102676Y-60528873D01*
X69095230Y-60510896D01*
X69075797Y-60451088D01*
X69062590Y-60410439D01*
X69058048Y-60391518D01*
X69041527Y-60287206D01*
X69040000Y-60267809D01*
X69040000Y-60162188D01*
X69041527Y-60142790D01*
X69042719Y-60135262D01*
X73470500Y-60135262D01*
X73470500Y-60294736D01*
X73501600Y-60451088D01*
X73501608Y-60451123D01*
X73562624Y-60598433D01*
X73562629Y-60598443D01*
X73651220Y-60731027D01*
X73651221Y-60731028D01*
X73651226Y-60731034D01*
X73763964Y-60843772D01*
X73763970Y-60843777D01*
X73763971Y-60843778D01*
X73896554Y-60932368D01*
X73896557Y-60932369D01*
X73896558Y-60932370D01*
X74043878Y-60993392D01*
X74200266Y-61024499D01*
X74200270Y-61024500D01*
X74200271Y-61024500D01*
X74359730Y-61024500D01*
X74359731Y-61024499D01*
X74516122Y-60993392D01*
X74663442Y-60932370D01*
X74796026Y-60843780D01*
X74908780Y-60731026D01*
X74997370Y-60598442D01*
X75058392Y-60451122D01*
X75089500Y-60294729D01*
X75089500Y-60135271D01*
X75089500Y-60135266D01*
X75058393Y-59978885D01*
X75058392Y-59978878D01*
X74997370Y-59831558D01*
X74908780Y-59698974D01*
X74908777Y-59698970D01*
X74908774Y-59698967D01*
X74908772Y-59698964D01*
X74796034Y-59586226D01*
X74796028Y-59586221D01*
X74796027Y-59586220D01*
X74663442Y-59497629D01*
X74663443Y-59497629D01*
X74663433Y-59497624D01*
X74516123Y-59436608D01*
X74516088Y-59436600D01*
X74359736Y-59405500D01*
X74359733Y-59405500D01*
X74359729Y-59405500D01*
X74200271Y-59405500D01*
X74200266Y-59405500D01*
X74200262Y-59405500D01*
X74043910Y-59436600D01*
X74043875Y-59436608D01*
X73896565Y-59497624D01*
X73896555Y-59497629D01*
X73763971Y-59586220D01*
X73763970Y-59586221D01*
X73763964Y-59586226D01*
X73651226Y-59698964D01*
X73651221Y-59698970D01*
X73651220Y-59698971D01*
X73562629Y-59831555D01*
X73562624Y-59831565D01*
X73501608Y-59978875D01*
X73501600Y-59978910D01*
X73470500Y-60135262D01*
X69042719Y-60135262D01*
X69046756Y-60109776D01*
X69046756Y-60109775D01*
X69058048Y-60038479D01*
X69062590Y-60019558D01*
X69095233Y-59919092D01*
X69102672Y-59901132D01*
X69150629Y-59807011D01*
X69160788Y-59790434D01*
X69222873Y-59704980D01*
X69235500Y-59690196D01*
X69310196Y-59615500D01*
X69324980Y-59602873D01*
X69410434Y-59540788D01*
X69427011Y-59530629D01*
X69521132Y-59482672D01*
X69539088Y-59475234D01*
X69639572Y-59442585D01*
X69658455Y-59438051D01*
X69809475Y-59414133D01*
X69876276Y-59398850D01*
X69908389Y-59389171D01*
X69972504Y-59364996D01*
X70093543Y-59287208D01*
X70146347Y-59241453D01*
X70240567Y-59132719D01*
X70300338Y-59001842D01*
X70320023Y-58934803D01*
X70320024Y-58934799D01*
X70340500Y-58792383D01*
X70340500Y-57595262D01*
X73470500Y-57595262D01*
X73470500Y-57754736D01*
X73501600Y-57911088D01*
X73501608Y-57911123D01*
X73562624Y-58058433D01*
X73562629Y-58058443D01*
X73651220Y-58191027D01*
X73651221Y-58191028D01*
X73651226Y-58191034D01*
X73763964Y-58303772D01*
X73763970Y-58303777D01*
X73763971Y-58303778D01*
X73896554Y-58392368D01*
X73896557Y-58392369D01*
X73896558Y-58392370D01*
X74043878Y-58453392D01*
X74200266Y-58484499D01*
X74200270Y-58484500D01*
X74200271Y-58484500D01*
X74359730Y-58484500D01*
X74359731Y-58484499D01*
X74516122Y-58453392D01*
X74663442Y-58392370D01*
X74796026Y-58303780D01*
X74908780Y-58191026D01*
X74997370Y-58058442D01*
X75058392Y-57911122D01*
X75089500Y-57754729D01*
X75089500Y-57595271D01*
X75058392Y-57438878D01*
X74997370Y-57291558D01*
X74997369Y-57291557D01*
X74997368Y-57291555D01*
X74997368Y-57291554D01*
X74908778Y-57158971D01*
X74908777Y-57158970D01*
X74908772Y-57158964D01*
X74796034Y-57046226D01*
X74796028Y-57046221D01*
X74796027Y-57046220D01*
X74663442Y-56957629D01*
X74663443Y-56957629D01*
X74663433Y-56957624D01*
X74516123Y-56896608D01*
X74516088Y-56896600D01*
X74359736Y-56865500D01*
X74359733Y-56865500D01*
X74359729Y-56865500D01*
X74200271Y-56865500D01*
X74200266Y-56865500D01*
X74200262Y-56865500D01*
X74043910Y-56896600D01*
X74043875Y-56896608D01*
X73896565Y-56957624D01*
X73896555Y-56957629D01*
X73763971Y-57046220D01*
X73763970Y-57046221D01*
X73763964Y-57046226D01*
X73651226Y-57158964D01*
X73651221Y-57158970D01*
X73651220Y-57158971D01*
X73562629Y-57291555D01*
X73562624Y-57291565D01*
X73501608Y-57438875D01*
X73501600Y-57438910D01*
X73470500Y-57595262D01*
X70340500Y-57595262D01*
X70340500Y-53302094D01*
X73274237Y-53302094D01*
X73317945Y-53521822D01*
X73317946Y-53521826D01*
X73317947Y-53521829D01*
X73317950Y-53521839D01*
X73317953Y-53521847D01*
X73317958Y-53521861D01*
X73393360Y-53703900D01*
X73393365Y-53703909D01*
X73393375Y-53703926D01*
X73502861Y-53867783D01*
X73502862Y-53867784D01*
X73502867Y-53867790D01*
X73642208Y-54007131D01*
X73642214Y-54007136D01*
X73642218Y-54007139D01*
X73806079Y-54116628D01*
X73806092Y-54116635D01*
X73988160Y-54192049D01*
X73988165Y-54192051D01*
X73988169Y-54192051D01*
X73988170Y-54192052D01*
X73988442Y-54192106D01*
X73988469Y-54192112D01*
X74181453Y-54230500D01*
X74378543Y-54230500D01*
X74378544Y-54230500D01*
X74400216Y-54226188D01*
X74508582Y-54204632D01*
X74508583Y-54204632D01*
X74521301Y-54202102D01*
X74571835Y-54192051D01*
X74753914Y-54116632D01*
X74917782Y-54007139D01*
X75057139Y-53867782D01*
X75166632Y-53703914D01*
X75242051Y-53521835D01*
X75272759Y-53367458D01*
X75280500Y-53328543D01*
X75280500Y-53131456D01*
X75280500Y-53131453D01*
X75242112Y-52938471D01*
X75242112Y-52938472D01*
X75242052Y-52938170D01*
X75242051Y-52938169D01*
X75241811Y-52936964D01*
X75239735Y-52932573D01*
X75166635Y-52756092D01*
X75166628Y-52756079D01*
X75057139Y-52592218D01*
X75057136Y-52592214D01*
X75057131Y-52592208D01*
X74917790Y-52452867D01*
X74917784Y-52452862D01*
X74917783Y-52452861D01*
X74753926Y-52343375D01*
X74753925Y-52343374D01*
X74753920Y-52343371D01*
X74753907Y-52343364D01*
X74753900Y-52343360D01*
X74571861Y-52267958D01*
X74571847Y-52267953D01*
X74571839Y-52267950D01*
X74571829Y-52267947D01*
X74571826Y-52267946D01*
X74571822Y-52267945D01*
X74378546Y-52229500D01*
X74378543Y-52229500D01*
X74378541Y-52229500D01*
X74181459Y-52229500D01*
X74181457Y-52229500D01*
X74181453Y-52229500D01*
X73988176Y-52267945D01*
X73988170Y-52267947D01*
X73988160Y-52267950D01*
X73988155Y-52267951D01*
X73988137Y-52267958D01*
X73806098Y-52343360D01*
X73806089Y-52343365D01*
X73806072Y-52343375D01*
X73642215Y-52452861D01*
X73642214Y-52452862D01*
X73642208Y-52452867D01*
X73502867Y-52592208D01*
X73502862Y-52592214D01*
X73502861Y-52592215D01*
X73393375Y-52756072D01*
X73393365Y-52756089D01*
X73393360Y-52756098D01*
X73317958Y-52938137D01*
X73317945Y-52938176D01*
X73279500Y-53131451D01*
X73279500Y-53284174D01*
X73274237Y-53302094D01*
X70340500Y-53302094D01*
X70340500Y-50762094D01*
X73274237Y-50762094D01*
X73317945Y-50981822D01*
X73317946Y-50981826D01*
X73317947Y-50981829D01*
X73317950Y-50981839D01*
X73317953Y-50981847D01*
X73317958Y-50981861D01*
X73393360Y-51163900D01*
X73393365Y-51163909D01*
X73393375Y-51163926D01*
X73502861Y-51327783D01*
X73502862Y-51327784D01*
X73502867Y-51327790D01*
X73642208Y-51467131D01*
X73642214Y-51467136D01*
X73642218Y-51467139D01*
X73806079Y-51576628D01*
X73806092Y-51576635D01*
X73988160Y-51652049D01*
X73988165Y-51652051D01*
X73988169Y-51652051D01*
X73988170Y-51652052D01*
X73988442Y-51652106D01*
X73988469Y-51652112D01*
X74181453Y-51690500D01*
X74378543Y-51690500D01*
X74378544Y-51690500D01*
X74400216Y-51686188D01*
X74508582Y-51664632D01*
X74508583Y-51664632D01*
X74521301Y-51662102D01*
X74571835Y-51652051D01*
X74753914Y-51576632D01*
X74917782Y-51467139D01*
X75057139Y-51327782D01*
X75166632Y-51163914D01*
X75242051Y-50981835D01*
X75264102Y-50870977D01*
X75280500Y-50788543D01*
X75280500Y-50591453D01*
X75241812Y-50396964D01*
X75239728Y-50392556D01*
X75226828Y-50361412D01*
X75226821Y-50361394D01*
X75166638Y-50216098D01*
X75166633Y-50216089D01*
X75166628Y-50216079D01*
X75057139Y-50052218D01*
X75057136Y-50052214D01*
X75057131Y-50052208D01*
X74917790Y-49912867D01*
X74917784Y-49912862D01*
X74917783Y-49912861D01*
X74753926Y-49803375D01*
X74753925Y-49803374D01*
X74753920Y-49803371D01*
X74753907Y-49803364D01*
X74753900Y-49803360D01*
X74571861Y-49727958D01*
X74571847Y-49727953D01*
X74571839Y-49727950D01*
X74571829Y-49727947D01*
X74571826Y-49727946D01*
X74571822Y-49727945D01*
X74378546Y-49689500D01*
X74378543Y-49689500D01*
X74378541Y-49689500D01*
X74181459Y-49689500D01*
X74181457Y-49689500D01*
X74181453Y-49689500D01*
X73988176Y-49727945D01*
X73988170Y-49727947D01*
X73988160Y-49727950D01*
X73988155Y-49727951D01*
X73988137Y-49727958D01*
X73806098Y-49803360D01*
X73806089Y-49803365D01*
X73806072Y-49803375D01*
X73642215Y-49912861D01*
X73642214Y-49912862D01*
X73642208Y-49912867D01*
X73502867Y-50052208D01*
X73502862Y-50052214D01*
X73502861Y-50052215D01*
X73393375Y-50216072D01*
X73393365Y-50216089D01*
X73393360Y-50216098D01*
X73317958Y-50398137D01*
X73317945Y-50398176D01*
X73279500Y-50591451D01*
X73279500Y-50744174D01*
X73274237Y-50762094D01*
X70340500Y-50762094D01*
X70340500Y-44774186D01*
X85839500Y-44774186D01*
X85839500Y-47723159D01*
X85855202Y-47848167D01*
X85855204Y-47848177D01*
X85870366Y-47907584D01*
X85870372Y-47907600D01*
X85916491Y-48024822D01*
X85916494Y-48024828D01*
X85916496Y-48024833D01*
X85916497Y-48024834D01*
X85929102Y-48047921D01*
X85968085Y-48108584D01*
X85968093Y-48108595D01*
X85989228Y-48136831D01*
X85989235Y-48136839D01*
X85989238Y-48136843D01*
X86036479Y-48191363D01*
X86036488Y-48191372D01*
X86036498Y-48191383D01*
X86887615Y-49042499D01*
X86922259Y-49074069D01*
X86922503Y-49074281D01*
X86922518Y-49074305D01*
X86923339Y-49075053D01*
X86923138Y-49075273D01*
X86960179Y-49133122D01*
X86960063Y-49202992D01*
X86928826Y-49255539D01*
X86799026Y-49385339D01*
X86684057Y-49557404D01*
X86604870Y-49748579D01*
X86604864Y-49748604D01*
X86564500Y-49951527D01*
X86564500Y-49951530D01*
X86564500Y-50158469D01*
X86564500Y-50158471D01*
X86564499Y-50158471D01*
X86604864Y-50361394D01*
X86604868Y-50361412D01*
X86604868Y-50361416D01*
X86684057Y-50552594D01*
X86799027Y-50724661D01*
X86945336Y-50870970D01*
X86945340Y-50870973D01*
X86945342Y-50870975D01*
X86945345Y-50870977D01*
X86945349Y-50870980D01*
X86945348Y-50870980D01*
X86945411Y-50871032D01*
X86945448Y-50871046D01*
X87117402Y-50985941D01*
X87308580Y-51065130D01*
X87499540Y-51103114D01*
X87508559Y-51104908D01*
X87510794Y-51105409D01*
X87511532Y-51105500D01*
X87718466Y-51105500D01*
X87722586Y-51105500D01*
X87730435Y-51103118D01*
X87921420Y-51065130D01*
X88112598Y-50985941D01*
X88186611Y-50936487D01*
X88253286Y-50915610D01*
X88320666Y-50934094D01*
X88367357Y-50986073D01*
X88379500Y-51039590D01*
X88379500Y-51330500D01*
X88359815Y-51397539D01*
X88307011Y-51443294D01*
X88255500Y-51454500D01*
X87406839Y-51454500D01*
X87281831Y-51470202D01*
X87281825Y-51470203D01*
X87222406Y-51485369D01*
X87166139Y-51507506D01*
X87105175Y-51531491D01*
X87105172Y-51531492D01*
X87105171Y-51531493D01*
X87082086Y-51544096D01*
X87021418Y-51583082D01*
X87021409Y-51583088D01*
X86993159Y-51604234D01*
X86938640Y-51651475D01*
X86938618Y-51651495D01*
X86031296Y-52558817D01*
X86031288Y-52558826D01*
X85953992Y-52658326D01*
X85922701Y-52711062D01*
X85922695Y-52711073D01*
X85872412Y-52826593D01*
X85872407Y-52826608D01*
X85864995Y-52851853D01*
X85861277Y-52868946D01*
X85849665Y-52922332D01*
X85844644Y-52957252D01*
X85844643Y-52957262D01*
X85839500Y-53029187D01*
X85839500Y-76298159D01*
X85855202Y-76423167D01*
X85855204Y-76423177D01*
X85870366Y-76482584D01*
X85870372Y-76482600D01*
X85916491Y-76599822D01*
X85916494Y-76599828D01*
X85916496Y-76599833D01*
X85921464Y-76608931D01*
X85929102Y-76622921D01*
X85968085Y-76683584D01*
X85968093Y-76683595D01*
X85989228Y-76711831D01*
X85989235Y-76711839D01*
X85989238Y-76711843D01*
X86036479Y-76766363D01*
X86036488Y-76766372D01*
X86036498Y-76766383D01*
X86943815Y-77673700D01*
X86943824Y-77673708D01*
X86943827Y-77673711D01*
X87033285Y-77743206D01*
X87043322Y-77751003D01*
X87096070Y-77782301D01*
X87211585Y-77832584D01*
X87211589Y-77832585D01*
X87211593Y-77832587D01*
X87236835Y-77839999D01*
X87307316Y-77855332D01*
X87342252Y-77860355D01*
X87414192Y-77865500D01*
X94761199Y-77865500D01*
X94761205Y-77865500D01*
X94870813Y-77849794D01*
X94903153Y-77845160D01*
X94903154Y-77845159D01*
X94903159Y-77845159D01*
X94903166Y-77845156D01*
X94903170Y-77845156D01*
X94969987Y-77825606D01*
X94969991Y-77825604D01*
X94969996Y-77825603D01*
X94970586Y-77825335D01*
X95002761Y-77810699D01*
X95100450Y-77766266D01*
X95104347Y-77763773D01*
X95104393Y-77763743D01*
X95213316Y-77669737D01*
X95259165Y-77617035D01*
X95337179Y-77496175D01*
X95377996Y-77358206D01*
X95388080Y-77289068D01*
X95388372Y-77145189D01*
X95386425Y-77131449D01*
X95371240Y-77060951D01*
X95364045Y-77036262D01*
X95361367Y-77027069D01*
X95361366Y-77027066D01*
X95336296Y-76959430D01*
X95289103Y-76855534D01*
X95281762Y-76834554D01*
X95281761Y-76834551D01*
X95253137Y-76720953D01*
X95249762Y-76700384D01*
X95245382Y-76644725D01*
X95245000Y-76634997D01*
X95245000Y-74275000D01*
X95245382Y-74265273D01*
X95249762Y-74209608D01*
X95253138Y-74189038D01*
X95255123Y-74181161D01*
X95281763Y-74075435D01*
X95289100Y-74054469D01*
X95336080Y-73951040D01*
X95347047Y-73931715D01*
X95411737Y-73838343D01*
X95425979Y-73821284D01*
X95506285Y-73740977D01*
X95523343Y-73726737D01*
X95616715Y-73662047D01*
X95636045Y-73651078D01*
X95739463Y-73604103D01*
X95760441Y-73596761D01*
X95874052Y-73568135D01*
X95894606Y-73564761D01*
X95943388Y-73560922D01*
X95950260Y-73560382D01*
X95959988Y-73560000D01*
X98320008Y-73560000D01*
X98329733Y-73560382D01*
X98338585Y-73561078D01*
X98385387Y-73564760D01*
X98405957Y-73568137D01*
X98409815Y-73569109D01*
X98430604Y-73574349D01*
X98430661Y-73574361D01*
X98519544Y-73596758D01*
X98540524Y-73604099D01*
X98643947Y-73651077D01*
X98663279Y-73662047D01*
X98663281Y-73662048D01*
X98756652Y-73726736D01*
X98773717Y-73740983D01*
X98854018Y-73821284D01*
X98868265Y-73838349D01*
X98932947Y-73931712D01*
X98943918Y-73951046D01*
X98990896Y-74054469D01*
X98998239Y-74075453D01*
X99026860Y-74189040D01*
X99030236Y-74209607D01*
X99034618Y-74265274D01*
X99035000Y-74275005D01*
X99035000Y-76634993D01*
X99034618Y-76644723D01*
X99030236Y-76700396D01*
X99026859Y-76720964D01*
X98998241Y-76834537D01*
X98990900Y-76855518D01*
X98940182Y-76967180D01*
X98900001Y-77104803D01*
X98890163Y-77173725D01*
X98890241Y-77317130D01*
X98890901Y-77321716D01*
X98890902Y-77321723D01*
X98931426Y-77459719D01*
X98931427Y-77459722D01*
X98931429Y-77459727D01*
X98960450Y-77523276D01*
X98960452Y-77523279D01*
X98960455Y-77523284D01*
X98963701Y-77528335D01*
X99021671Y-77618543D01*
X99038231Y-77644311D01*
X99146961Y-77738532D01*
X99146963Y-77738533D01*
X99146965Y-77738535D01*
X99205742Y-77776311D01*
X99336616Y-77836084D01*
X99349934Y-77839995D01*
X99349941Y-77839997D01*
X99349939Y-77839997D01*
X99420398Y-77855327D01*
X99420404Y-77855328D01*
X99420408Y-77855328D01*
X99420410Y-77855329D01*
X99455345Y-77860353D01*
X99491239Y-77864212D01*
X99496043Y-77863868D01*
X99522532Y-77864813D01*
X99527305Y-77865500D01*
X104968156Y-77865500D01*
X104968157Y-77865500D01*
X105093181Y-77849795D01*
X105152611Y-77834625D01*
X105269862Y-77788489D01*
X105292950Y-77775881D01*
X105353615Y-77736892D01*
X105381866Y-77715743D01*
X105436368Y-77668515D01*
X106343711Y-76761172D01*
X106421004Y-76661675D01*
X106452299Y-76608931D01*
X106502585Y-76493412D01*
X106509997Y-76468171D01*
X106525328Y-76397703D01*
X106530352Y-76362769D01*
X106534212Y-76326873D01*
X106533868Y-76322066D01*
X106534816Y-76295563D01*
X106535500Y-76290808D01*
X106535500Y-75878710D01*
X114149500Y-75878710D01*
X114149500Y-76121288D01*
X114176564Y-76326873D01*
X114181161Y-76361785D01*
X114216429Y-76493406D01*
X114243947Y-76596104D01*
X114278763Y-76680156D01*
X114278763Y-76680157D01*
X114336770Y-76820200D01*
X114336777Y-76820215D01*
X114458060Y-77030283D01*
X114458062Y-77030286D01*
X114458281Y-77030615D01*
X114459284Y-77031879D01*
X114605726Y-77222728D01*
X114605730Y-77222733D01*
X114605733Y-77222736D01*
X114605739Y-77222743D01*
X114777256Y-77394260D01*
X114777263Y-77394266D01*
X114777266Y-77394268D01*
X114777270Y-77394272D01*
X114890321Y-77481018D01*
X114969711Y-77541936D01*
X115179788Y-77663224D01*
X115403900Y-77756054D01*
X115638211Y-77818838D01*
X115818586Y-77842584D01*
X115878710Y-77850500D01*
X115878711Y-77850500D01*
X115878712Y-77850500D01*
X116121283Y-77850500D01*
X116121289Y-77850500D01*
X116169388Y-77844167D01*
X116361789Y-77818838D01*
X116596100Y-77756054D01*
X116820212Y-77663224D01*
X117030289Y-77541936D01*
X117222738Y-77394265D01*
X117394265Y-77222738D01*
X117541936Y-77030289D01*
X117663224Y-76820212D01*
X117756054Y-76596100D01*
X117818838Y-76361789D01*
X117850500Y-76121288D01*
X117850500Y-75878712D01*
X117818838Y-75638211D01*
X117756054Y-75403900D01*
X117663224Y-75179788D01*
X117541936Y-74969711D01*
X117394265Y-74777262D01*
X117394260Y-74777256D01*
X117394259Y-74777255D01*
X117394247Y-74777242D01*
X117222751Y-74605747D01*
X117222743Y-74605739D01*
X117222736Y-74605733D01*
X117222733Y-74605730D01*
X117222728Y-74605726D01*
X117031879Y-74459284D01*
X117030615Y-74458281D01*
X117030286Y-74458062D01*
X117030283Y-74458060D01*
X116820220Y-74336780D01*
X116820207Y-74336773D01*
X116820203Y-74336772D01*
X116596104Y-74243947D01*
X116391197Y-74189042D01*
X116361785Y-74181161D01*
X116361784Y-74181160D01*
X116361781Y-74181160D01*
X116121290Y-74149500D01*
X116121289Y-74149500D01*
X116121288Y-74149500D01*
X115878712Y-74149500D01*
X115878711Y-74149500D01*
X115878710Y-74149500D01*
X115638217Y-74181160D01*
X115403894Y-74243947D01*
X115179790Y-74336774D01*
X115179782Y-74336778D01*
X114969706Y-74458067D01*
X114969697Y-74458073D01*
X114777270Y-74605726D01*
X114777255Y-74605740D01*
X114777247Y-74605747D01*
X114605747Y-74777247D01*
X114605740Y-74777255D01*
X114605726Y-74777270D01*
X114458073Y-74969697D01*
X114458067Y-74969706D01*
X114336778Y-75179782D01*
X114336774Y-75179790D01*
X114243947Y-75403894D01*
X114181160Y-75638217D01*
X114149500Y-75878710D01*
X106535500Y-75878710D01*
X106535500Y-69531846D01*
X106535499Y-69531839D01*
X106534183Y-69521362D01*
X106519797Y-69406825D01*
X106504628Y-69347396D01*
X106458494Y-69230147D01*
X106445886Y-69207058D01*
X106406891Y-69146383D01*
X106385741Y-69118131D01*
X106338515Y-69063631D01*
X106338498Y-69063614D01*
X105431183Y-68156298D01*
X105431167Y-68156284D01*
X105331678Y-68078997D01*
X105331668Y-68078990D01*
X105278929Y-68047698D01*
X105278924Y-68047696D01*
X105163414Y-67997414D01*
X105145268Y-67992086D01*
X105138168Y-67990001D01*
X105138164Y-67990000D01*
X105138157Y-67989998D01*
X105138143Y-67989994D01*
X105067685Y-67974668D01*
X105067672Y-67974665D01*
X105067663Y-67974663D01*
X105067660Y-67974663D01*
X105032728Y-67969642D01*
X105032719Y-67969641D01*
X105032720Y-67969641D01*
X104960813Y-67964500D01*
X104960808Y-67964500D01*
X93324500Y-67964500D01*
X93257461Y-67944815D01*
X93211706Y-67892011D01*
X93200500Y-67840500D01*
X93200500Y-64392707D01*
X94804500Y-64392707D01*
X94804500Y-64648416D01*
X94830457Y-64845565D01*
X94837873Y-64901892D01*
X94837875Y-64901902D01*
X94904048Y-65148867D01*
X94904050Y-65148871D01*
X94904053Y-65148881D01*
X94939205Y-65233745D01*
X95001896Y-65385096D01*
X95001899Y-65385101D01*
X95129734Y-65606516D01*
X95129745Y-65606532D01*
X95129753Y-65606542D01*
X95285381Y-65809362D01*
X95285385Y-65809367D01*
X95285388Y-65809370D01*
X95285394Y-65809377D01*
X95285402Y-65809385D01*
X95466167Y-65990151D01*
X95466181Y-65990164D01*
X95466187Y-65990169D01*
X95526619Y-66036540D01*
X95669040Y-66145824D01*
X95669268Y-66145955D01*
X95887010Y-66271669D01*
X95890457Y-66273659D01*
X95890462Y-66273661D01*
X95890465Y-66273663D01*
X96126687Y-66371509D01*
X96373660Y-66437685D01*
X96627157Y-66471059D01*
X96627164Y-66471059D01*
X96882836Y-66471059D01*
X96882843Y-66471059D01*
X97136340Y-66437685D01*
X97383313Y-66371509D01*
X97619535Y-66273663D01*
X97619539Y-66273660D01*
X97619545Y-66273658D01*
X97742551Y-66202639D01*
X97840965Y-66145820D01*
X98043813Y-65990169D01*
X98224610Y-65809372D01*
X98380261Y-65606524D01*
X98508104Y-65385094D01*
X98605950Y-65148872D01*
X98672126Y-64901899D01*
X98705500Y-64648402D01*
X98705500Y-64392716D01*
X98705499Y-64392707D01*
X99634500Y-64392707D01*
X99634500Y-64648416D01*
X99660457Y-64845565D01*
X99667873Y-64901892D01*
X99667875Y-64901902D01*
X99734048Y-65148867D01*
X99734050Y-65148871D01*
X99734053Y-65148881D01*
X99769205Y-65233745D01*
X99831896Y-65385096D01*
X99831899Y-65385101D01*
X99959734Y-65606516D01*
X99959745Y-65606532D01*
X99959753Y-65606542D01*
X100115381Y-65809362D01*
X100115385Y-65809367D01*
X100115388Y-65809370D01*
X100115394Y-65809377D01*
X100115402Y-65809385D01*
X100296167Y-65990151D01*
X100296181Y-65990164D01*
X100296187Y-65990169D01*
X100356619Y-66036540D01*
X100499040Y-66145824D01*
X100499268Y-66145955D01*
X100717010Y-66271669D01*
X100720457Y-66273659D01*
X100720462Y-66273661D01*
X100720465Y-66273663D01*
X100956687Y-66371509D01*
X101203660Y-66437685D01*
X101457157Y-66471059D01*
X101457164Y-66471059D01*
X101712836Y-66471059D01*
X101712843Y-66471059D01*
X101966340Y-66437685D01*
X102213313Y-66371509D01*
X102449535Y-66273663D01*
X102449539Y-66273660D01*
X102449545Y-66273658D01*
X102572551Y-66202639D01*
X102670965Y-66145820D01*
X102873813Y-65990169D01*
X103054610Y-65809372D01*
X103070467Y-65788707D01*
X112934500Y-65788707D01*
X112934500Y-66001291D01*
X112957392Y-66145824D01*
X112967753Y-66211242D01*
X112981444Y-66253378D01*
X112988034Y-66273659D01*
X113011656Y-66346359D01*
X113033445Y-66413418D01*
X113126532Y-66596111D01*
X113129951Y-66602820D01*
X113254890Y-66774786D01*
X113254892Y-66774788D01*
X113405216Y-66925112D01*
X113577169Y-67050042D01*
X113577177Y-67050047D01*
X113577179Y-67050048D01*
X113577181Y-67050049D01*
X113577182Y-67050050D01*
X113577200Y-67050060D01*
X113577442Y-67050182D01*
X113766588Y-67146557D01*
X113968757Y-67212246D01*
X114178713Y-67245500D01*
X114178714Y-67245500D01*
X114391286Y-67245500D01*
X114391287Y-67245500D01*
X114601243Y-67212246D01*
X114803412Y-67146557D01*
X114992816Y-67050051D01*
X115014789Y-67034086D01*
X115164786Y-66925109D01*
X115164786Y-66925108D01*
X115164844Y-66925066D01*
X115165605Y-66924290D01*
X115315104Y-66774792D01*
X115315106Y-66774788D01*
X115315109Y-66774786D01*
X115440048Y-66602820D01*
X115440047Y-66602820D01*
X115440051Y-66602816D01*
X115440053Y-66602810D01*
X115460445Y-66574744D01*
X115468730Y-66546529D01*
X115536557Y-66413412D01*
X115602246Y-66211243D01*
X115635500Y-66001287D01*
X115635500Y-65788713D01*
X115602246Y-65578757D01*
X115536557Y-65376588D01*
X115440051Y-65187184D01*
X115440049Y-65187181D01*
X115440048Y-65187179D01*
X115439702Y-65186703D01*
X115439700Y-65186699D01*
X115315112Y-65015216D01*
X115164788Y-64864892D01*
X115164786Y-64864890D01*
X114992820Y-64739951D01*
X114979167Y-64732994D01*
X114825245Y-64654567D01*
X114825240Y-64654565D01*
X114803414Y-64643444D01*
X114803413Y-64643443D01*
X114803412Y-64643443D01*
X114706550Y-64611970D01*
X114610074Y-64580623D01*
X114605552Y-64578770D01*
X114596362Y-64576600D01*
X114591599Y-64576226D01*
X114439957Y-64552208D01*
X114420489Y-64549124D01*
X114391290Y-64544500D01*
X114391287Y-64544500D01*
X114178713Y-64544500D01*
X114178709Y-64544500D01*
X114139776Y-64550666D01*
X114130042Y-64552208D01*
X114092654Y-64558129D01*
X113968763Y-64577752D01*
X113766582Y-64643445D01*
X113577182Y-64739949D01*
X113405210Y-64864892D01*
X113254892Y-65015210D01*
X113129949Y-65187182D01*
X113033445Y-65376580D01*
X112967752Y-65578759D01*
X112934500Y-65788707D01*
X103070467Y-65788707D01*
X103210261Y-65606524D01*
X103338104Y-65385094D01*
X103435950Y-65148872D01*
X103502126Y-64901899D01*
X103535500Y-64648402D01*
X103535500Y-64392716D01*
X103502126Y-64139219D01*
X103435950Y-63892246D01*
X103338104Y-63656024D01*
X103338103Y-63656023D01*
X103337987Y-63655742D01*
X103337194Y-63654314D01*
X103336114Y-63652576D01*
X103210396Y-63434827D01*
X103210266Y-63434601D01*
X103210266Y-63434600D01*
X103054613Y-63231750D01*
X103054605Y-63231740D01*
X103054592Y-63231726D01*
X102873826Y-63050961D01*
X102873818Y-63050953D01*
X102873811Y-63050947D01*
X102873808Y-63050944D01*
X102873803Y-63050940D01*
X102674550Y-62898048D01*
X102674538Y-62898039D01*
X102670973Y-62895304D01*
X102670971Y-62895302D01*
X102670965Y-62895298D01*
X102670960Y-62895295D01*
X102670957Y-62895293D01*
X102669211Y-62894285D01*
X102669207Y-62894282D01*
X102578033Y-62841643D01*
X102449542Y-62767458D01*
X102449537Y-62767455D01*
X102217368Y-62671288D01*
X102217361Y-62671285D01*
X102213319Y-62669610D01*
X102026610Y-62619582D01*
X101966340Y-62603433D01*
X101966334Y-62603432D01*
X101966333Y-62603432D01*
X101945318Y-62600665D01*
X101910007Y-62596016D01*
X101910006Y-62596015D01*
X101712857Y-62570059D01*
X101712850Y-62570059D01*
X101712843Y-62570059D01*
X101457157Y-62570059D01*
X101457149Y-62570059D01*
X101457141Y-62570059D01*
X101231826Y-62599723D01*
X101231826Y-62599724D01*
X101227555Y-62600286D01*
X101203662Y-62603432D01*
X101005775Y-62656456D01*
X100956690Y-62669607D01*
X100956667Y-62669616D01*
X100720461Y-62767455D01*
X100499046Y-62895290D01*
X100499029Y-62895302D01*
X100499015Y-62895312D01*
X100296195Y-63050940D01*
X100296180Y-63050954D01*
X100296172Y-63050961D01*
X100115402Y-63231731D01*
X100115395Y-63231739D01*
X100115381Y-63231754D01*
X99959753Y-63434574D01*
X99959743Y-63434588D01*
X99959731Y-63434605D01*
X99831896Y-63656020D01*
X99734057Y-63892226D01*
X99734048Y-63892249D01*
X99684811Y-64076009D01*
X99667875Y-64139219D01*
X99667874Y-64139221D01*
X99634500Y-64392707D01*
X98705499Y-64392707D01*
X98672126Y-64139219D01*
X98605950Y-63892246D01*
X98508104Y-63656024D01*
X98508103Y-63656023D01*
X98507987Y-63655742D01*
X98507194Y-63654314D01*
X98506114Y-63652576D01*
X98380396Y-63434827D01*
X98380266Y-63434601D01*
X98380266Y-63434600D01*
X98224613Y-63231750D01*
X98224605Y-63231740D01*
X98224592Y-63231726D01*
X98043826Y-63050961D01*
X98043818Y-63050953D01*
X98043811Y-63050947D01*
X98043808Y-63050944D01*
X98043803Y-63050940D01*
X97844550Y-62898048D01*
X97844538Y-62898039D01*
X97840973Y-62895304D01*
X97840971Y-62895302D01*
X97840965Y-62895298D01*
X97840960Y-62895295D01*
X97840957Y-62895293D01*
X97839211Y-62894285D01*
X97839207Y-62894282D01*
X97748033Y-62841643D01*
X97619542Y-62767458D01*
X97619537Y-62767455D01*
X97387368Y-62671288D01*
X97387361Y-62671285D01*
X97383319Y-62669610D01*
X97196610Y-62619582D01*
X97136340Y-62603433D01*
X97136334Y-62603432D01*
X97136333Y-62603432D01*
X97115318Y-62600665D01*
X97080007Y-62596016D01*
X97080006Y-62596015D01*
X96882857Y-62570059D01*
X96882850Y-62570059D01*
X96882843Y-62570059D01*
X96627157Y-62570059D01*
X96627149Y-62570059D01*
X96627141Y-62570059D01*
X96401826Y-62599723D01*
X96401826Y-62599724D01*
X96397555Y-62600286D01*
X96373662Y-62603432D01*
X96175775Y-62656456D01*
X96126690Y-62669607D01*
X96126667Y-62669616D01*
X95890461Y-62767455D01*
X95669046Y-62895290D01*
X95669029Y-62895302D01*
X95669015Y-62895312D01*
X95466195Y-63050940D01*
X95466180Y-63050954D01*
X95466172Y-63050961D01*
X95285402Y-63231731D01*
X95285395Y-63231739D01*
X95285381Y-63231754D01*
X95129753Y-63434574D01*
X95129743Y-63434588D01*
X95129731Y-63434605D01*
X95001896Y-63656020D01*
X94904057Y-63892226D01*
X94904048Y-63892249D01*
X94854811Y-64076009D01*
X94837875Y-64139219D01*
X94837874Y-64139221D01*
X94804500Y-64392707D01*
X93200500Y-64392707D01*
X93200500Y-59692707D01*
X94804500Y-59692707D01*
X94804500Y-59948416D01*
X94829101Y-60135266D01*
X94837873Y-60201891D01*
X94837875Y-60201902D01*
X94862748Y-60294730D01*
X94904048Y-60448867D01*
X94904050Y-60448871D01*
X94904053Y-60448881D01*
X94933586Y-60520180D01*
X95001896Y-60685096D01*
X95119741Y-60889207D01*
X95129734Y-60906516D01*
X95129745Y-60906532D01*
X95149571Y-60932370D01*
X95285381Y-61109362D01*
X95285385Y-61109367D01*
X95285388Y-61109370D01*
X95285394Y-61109377D01*
X95285402Y-61109385D01*
X95466167Y-61290151D01*
X95466181Y-61290164D01*
X95466187Y-61290169D01*
X95568663Y-61368802D01*
X95669042Y-61445825D01*
X95669268Y-61445955D01*
X95887010Y-61571669D01*
X95890457Y-61573659D01*
X95890462Y-61573661D01*
X95890465Y-61573663D01*
X96126687Y-61671509D01*
X96373660Y-61737685D01*
X96627157Y-61771059D01*
X96627164Y-61771059D01*
X96882836Y-61771059D01*
X96882843Y-61771059D01*
X97136340Y-61737685D01*
X97383313Y-61671509D01*
X97619535Y-61573663D01*
X97840965Y-61445820D01*
X98043813Y-61290169D01*
X98224610Y-61109372D01*
X98380261Y-60906524D01*
X98508104Y-60685094D01*
X98605950Y-60448872D01*
X98672126Y-60201899D01*
X98705500Y-59948402D01*
X98705500Y-59692716D01*
X98705499Y-59692707D01*
X99634500Y-59692707D01*
X99634500Y-59948416D01*
X99659101Y-60135266D01*
X99667873Y-60201891D01*
X99667875Y-60201902D01*
X99692748Y-60294730D01*
X99734048Y-60448867D01*
X99734050Y-60448871D01*
X99734053Y-60448881D01*
X99763586Y-60520180D01*
X99831896Y-60685096D01*
X99949741Y-60889207D01*
X99959734Y-60906516D01*
X99959745Y-60906532D01*
X99979571Y-60932370D01*
X100115381Y-61109362D01*
X100115385Y-61109367D01*
X100115388Y-61109370D01*
X100115394Y-61109377D01*
X100115402Y-61109385D01*
X100296167Y-61290151D01*
X100296181Y-61290164D01*
X100296187Y-61290169D01*
X100398663Y-61368802D01*
X100499042Y-61445825D01*
X100499268Y-61445955D01*
X100717010Y-61571669D01*
X100720457Y-61573659D01*
X100720462Y-61573661D01*
X100720465Y-61573663D01*
X100956687Y-61671509D01*
X101203660Y-61737685D01*
X101457157Y-61771059D01*
X101457164Y-61771059D01*
X101712836Y-61771059D01*
X101712843Y-61771059D01*
X101966340Y-61737685D01*
X102213313Y-61671509D01*
X102449535Y-61573663D01*
X102670965Y-61445820D01*
X102873813Y-61290169D01*
X103054610Y-61109372D01*
X103210261Y-60906524D01*
X103338104Y-60685094D01*
X103435950Y-60448872D01*
X103502126Y-60201899D01*
X103535500Y-59948402D01*
X103535500Y-59692716D01*
X103502126Y-59439219D01*
X103435950Y-59192246D01*
X103338104Y-58956024D01*
X103338103Y-58956023D01*
X103337987Y-58955742D01*
X103337194Y-58954314D01*
X103336114Y-58952576D01*
X103210396Y-58734827D01*
X103210266Y-58734601D01*
X103210266Y-58734600D01*
X103054613Y-58531750D01*
X103054607Y-58531742D01*
X103054592Y-58531726D01*
X102873826Y-58350961D01*
X102873818Y-58350953D01*
X102873811Y-58350947D01*
X102873808Y-58350944D01*
X102873803Y-58350940D01*
X102674550Y-58198048D01*
X102674538Y-58198039D01*
X102670973Y-58195304D01*
X102670971Y-58195302D01*
X102670965Y-58195298D01*
X102670960Y-58195295D01*
X102670957Y-58195293D01*
X102669211Y-58194285D01*
X102669207Y-58194282D01*
X102578033Y-58141643D01*
X102449542Y-58067458D01*
X102449537Y-58067455D01*
X102217368Y-57971288D01*
X102217361Y-57971285D01*
X102213319Y-57969610D01*
X102026610Y-57919582D01*
X101966340Y-57903433D01*
X101966334Y-57903432D01*
X101966333Y-57903432D01*
X101945318Y-57900665D01*
X101910007Y-57896016D01*
X101910006Y-57896015D01*
X101712857Y-57870059D01*
X101712850Y-57870059D01*
X101712843Y-57870059D01*
X101457157Y-57870059D01*
X101457149Y-57870059D01*
X101457141Y-57870059D01*
X101231826Y-57899723D01*
X101231826Y-57899724D01*
X101227555Y-57900286D01*
X101203662Y-57903432D01*
X100956690Y-57969607D01*
X100956667Y-57969616D01*
X100720461Y-58067455D01*
X100499046Y-58195290D01*
X100499029Y-58195302D01*
X100499015Y-58195312D01*
X100296195Y-58350940D01*
X100296180Y-58350954D01*
X100296172Y-58350961D01*
X100115402Y-58531731D01*
X100115395Y-58531739D01*
X100115381Y-58531754D01*
X99959753Y-58734574D01*
X99959743Y-58734588D01*
X99959731Y-58734605D01*
X99831896Y-58956020D01*
X99734057Y-59192226D01*
X99734048Y-59192249D01*
X99687762Y-59364996D01*
X99667874Y-59439220D01*
X99663133Y-59475230D01*
X99634500Y-59692707D01*
X98705499Y-59692707D01*
X98672126Y-59439219D01*
X98605950Y-59192246D01*
X98508104Y-58956024D01*
X98508103Y-58956023D01*
X98507987Y-58955742D01*
X98507194Y-58954314D01*
X98506114Y-58952576D01*
X98380396Y-58734827D01*
X98380266Y-58734601D01*
X98380266Y-58734600D01*
X98224613Y-58531750D01*
X98224607Y-58531742D01*
X98224592Y-58531726D01*
X98043826Y-58350961D01*
X98043818Y-58350953D01*
X98043811Y-58350947D01*
X98043808Y-58350944D01*
X98043803Y-58350940D01*
X97844550Y-58198048D01*
X97844538Y-58198039D01*
X97840973Y-58195304D01*
X97840971Y-58195302D01*
X97840965Y-58195298D01*
X97840960Y-58195295D01*
X97840957Y-58195293D01*
X97839211Y-58194285D01*
X97839207Y-58194282D01*
X97748033Y-58141643D01*
X97619542Y-58067458D01*
X97619537Y-58067455D01*
X97387368Y-57971288D01*
X97387361Y-57971285D01*
X97383319Y-57969610D01*
X97196610Y-57919582D01*
X97136340Y-57903433D01*
X97136334Y-57903432D01*
X97136333Y-57903432D01*
X97115318Y-57900665D01*
X97080007Y-57896016D01*
X97080006Y-57896015D01*
X96882857Y-57870059D01*
X96882850Y-57870059D01*
X96882843Y-57870059D01*
X96627157Y-57870059D01*
X96627149Y-57870059D01*
X96627141Y-57870059D01*
X96401826Y-57899723D01*
X96401826Y-57899724D01*
X96397555Y-57900286D01*
X96373662Y-57903432D01*
X96126690Y-57969607D01*
X96126667Y-57969616D01*
X95890461Y-58067455D01*
X95669046Y-58195290D01*
X95669029Y-58195302D01*
X95669015Y-58195312D01*
X95466195Y-58350940D01*
X95466180Y-58350954D01*
X95466172Y-58350961D01*
X95285402Y-58531731D01*
X95285395Y-58531739D01*
X95285381Y-58531754D01*
X95129753Y-58734574D01*
X95129743Y-58734588D01*
X95129731Y-58734605D01*
X95001896Y-58956020D01*
X94904057Y-59192226D01*
X94904048Y-59192249D01*
X94857762Y-59364996D01*
X94837874Y-59439220D01*
X94833133Y-59475230D01*
X94804500Y-59692707D01*
X93200500Y-59692707D01*
X93200500Y-54992707D01*
X94804500Y-54992707D01*
X94804500Y-55248416D01*
X94830457Y-55445565D01*
X94837873Y-55501892D01*
X94837875Y-55501902D01*
X94904048Y-55748867D01*
X94904057Y-55748890D01*
X95001896Y-55985096D01*
X95001899Y-55985101D01*
X95129734Y-56206516D01*
X95129745Y-56206532D01*
X95129753Y-56206542D01*
X95285381Y-56409362D01*
X95285385Y-56409367D01*
X95285388Y-56409370D01*
X95285394Y-56409377D01*
X95285402Y-56409385D01*
X95466167Y-56590151D01*
X95466183Y-56590166D01*
X95466191Y-56590172D01*
X95669042Y-56745825D01*
X95669268Y-56745955D01*
X95887010Y-56871669D01*
X95890457Y-56873659D01*
X95890462Y-56873661D01*
X95890465Y-56873663D01*
X95891105Y-56873928D01*
X96093177Y-56957629D01*
X96126687Y-56971509D01*
X96373660Y-57037685D01*
X96627157Y-57071059D01*
X96627164Y-57071059D01*
X96882836Y-57071059D01*
X96882843Y-57071059D01*
X97136340Y-57037685D01*
X97383313Y-56971509D01*
X97619535Y-56873663D01*
X97840965Y-56745820D01*
X98043813Y-56590169D01*
X98224610Y-56409372D01*
X98380261Y-56206524D01*
X98508104Y-55985094D01*
X98605950Y-55748872D01*
X98672126Y-55501899D01*
X98705500Y-55248402D01*
X98705500Y-54992716D01*
X98705499Y-54992707D01*
X99634500Y-54992707D01*
X99634500Y-55248416D01*
X99660457Y-55445565D01*
X99667873Y-55501892D01*
X99667875Y-55501902D01*
X99734048Y-55748867D01*
X99734057Y-55748890D01*
X99831896Y-55985096D01*
X99831899Y-55985101D01*
X99959734Y-56206516D01*
X99959745Y-56206532D01*
X99959753Y-56206542D01*
X100115381Y-56409362D01*
X100115385Y-56409367D01*
X100115388Y-56409370D01*
X100115394Y-56409377D01*
X100115402Y-56409385D01*
X100296167Y-56590151D01*
X100296183Y-56590166D01*
X100296191Y-56590172D01*
X100499042Y-56745825D01*
X100499268Y-56745955D01*
X100717010Y-56871669D01*
X100720457Y-56873659D01*
X100720462Y-56873661D01*
X100720465Y-56873663D01*
X100721105Y-56873928D01*
X100923177Y-56957629D01*
X100956687Y-56971509D01*
X101203660Y-57037685D01*
X101457157Y-57071059D01*
X101457164Y-57071059D01*
X101712836Y-57071059D01*
X101712843Y-57071059D01*
X101966340Y-57037685D01*
X102213313Y-56971509D01*
X102449535Y-56873663D01*
X102670965Y-56745820D01*
X102873813Y-56590169D01*
X103054610Y-56409372D01*
X103210261Y-56206524D01*
X103338104Y-55985094D01*
X103435950Y-55748872D01*
X103502126Y-55501899D01*
X103535500Y-55248402D01*
X103535500Y-54992716D01*
X103502126Y-54739219D01*
X103435950Y-54492246D01*
X103338104Y-54256024D01*
X103338103Y-54256023D01*
X103337987Y-54255742D01*
X103337194Y-54254314D01*
X103336114Y-54252576D01*
X103210396Y-54034827D01*
X103210266Y-54034601D01*
X103210266Y-54034600D01*
X103082264Y-53867785D01*
X103054617Y-53831754D01*
X103054613Y-53831750D01*
X103054611Y-53831747D01*
X103054605Y-53831740D01*
X102873818Y-53650953D01*
X102873811Y-53650947D01*
X102873808Y-53650944D01*
X102873803Y-53650940D01*
X102674550Y-53498048D01*
X102674538Y-53498039D01*
X102670973Y-53495304D01*
X102670971Y-53495302D01*
X102670965Y-53495298D01*
X102670960Y-53495295D01*
X102670957Y-53495293D01*
X102669211Y-53494285D01*
X102669207Y-53494282D01*
X102578033Y-53441643D01*
X102449542Y-53367458D01*
X102449537Y-53367455D01*
X102217368Y-53271288D01*
X102217361Y-53271285D01*
X102213319Y-53269610D01*
X102026610Y-53219582D01*
X101966340Y-53203433D01*
X101966334Y-53203432D01*
X101966333Y-53203432D01*
X101945318Y-53200665D01*
X101910007Y-53196016D01*
X101910006Y-53196015D01*
X101712857Y-53170059D01*
X101712850Y-53170059D01*
X101712843Y-53170059D01*
X101457157Y-53170059D01*
X101457149Y-53170059D01*
X101457141Y-53170059D01*
X101231826Y-53199723D01*
X101231826Y-53199724D01*
X101227555Y-53200286D01*
X101203662Y-53203432D01*
X100956690Y-53269607D01*
X100956667Y-53269616D01*
X100720461Y-53367455D01*
X100499046Y-53495290D01*
X100499029Y-53495302D01*
X100499015Y-53495312D01*
X100296195Y-53650940D01*
X100296180Y-53650954D01*
X100296172Y-53650961D01*
X100115402Y-53831731D01*
X100115395Y-53831739D01*
X100115381Y-53831754D01*
X99959753Y-54034574D01*
X99959743Y-54034588D01*
X99959731Y-54034605D01*
X99831896Y-54256020D01*
X99734057Y-54492226D01*
X99734048Y-54492249D01*
X99679984Y-54694022D01*
X99667875Y-54739219D01*
X99667874Y-54739221D01*
X99634500Y-54992707D01*
X98705499Y-54992707D01*
X98672126Y-54739219D01*
X98605950Y-54492246D01*
X98508104Y-54256024D01*
X98508103Y-54256023D01*
X98507987Y-54255742D01*
X98507194Y-54254314D01*
X98506114Y-54252576D01*
X98380396Y-54034827D01*
X98380266Y-54034601D01*
X98380266Y-54034600D01*
X98252264Y-53867785D01*
X98224617Y-53831754D01*
X98224613Y-53831750D01*
X98224611Y-53831747D01*
X98224605Y-53831740D01*
X98043818Y-53650953D01*
X98043811Y-53650947D01*
X98043808Y-53650944D01*
X98043803Y-53650940D01*
X97844550Y-53498048D01*
X97844538Y-53498039D01*
X97840973Y-53495304D01*
X97840971Y-53495302D01*
X97840965Y-53495298D01*
X97840960Y-53495295D01*
X97840957Y-53495293D01*
X97839211Y-53494285D01*
X97839207Y-53494282D01*
X97748033Y-53441643D01*
X97619542Y-53367458D01*
X97619537Y-53367455D01*
X97387368Y-53271288D01*
X97387361Y-53271285D01*
X97383319Y-53269610D01*
X97196610Y-53219582D01*
X97136340Y-53203433D01*
X97136334Y-53203432D01*
X97136333Y-53203432D01*
X97115318Y-53200665D01*
X97080007Y-53196016D01*
X97080006Y-53196015D01*
X96882857Y-53170059D01*
X96882850Y-53170059D01*
X96882843Y-53170059D01*
X96627157Y-53170059D01*
X96627149Y-53170059D01*
X96627141Y-53170059D01*
X96401826Y-53199723D01*
X96401826Y-53199724D01*
X96397555Y-53200286D01*
X96373662Y-53203432D01*
X96126690Y-53269607D01*
X96126667Y-53269616D01*
X95890461Y-53367455D01*
X95669046Y-53495290D01*
X95669029Y-53495302D01*
X95669015Y-53495312D01*
X95466195Y-53650940D01*
X95466180Y-53650954D01*
X95466172Y-53650961D01*
X95285402Y-53831731D01*
X95285395Y-53831739D01*
X95285381Y-53831754D01*
X95129753Y-54034574D01*
X95129743Y-54034588D01*
X95129731Y-54034605D01*
X95001896Y-54256020D01*
X94904057Y-54492226D01*
X94904048Y-54492249D01*
X94849984Y-54694022D01*
X94837875Y-54739219D01*
X94837874Y-54739221D01*
X94804500Y-54992707D01*
X93200500Y-54992707D01*
X93200500Y-44888389D01*
X102539500Y-44888389D01*
X102539500Y-45061611D01*
X102566598Y-45232701D01*
X102620127Y-45397445D01*
X102698768Y-45551788D01*
X102800586Y-45691928D01*
X102923072Y-45814414D01*
X103063212Y-45916232D01*
X103217555Y-45994873D01*
X103382299Y-46048402D01*
X103553389Y-46075500D01*
X103553390Y-46075500D01*
X104726610Y-46075500D01*
X104726611Y-46075500D01*
X104897701Y-46048402D01*
X105062445Y-45994873D01*
X105216788Y-45916232D01*
X105356928Y-45814414D01*
X105479414Y-45691928D01*
X105581232Y-45551788D01*
X105659873Y-45397445D01*
X105713402Y-45232701D01*
X105740500Y-45061611D01*
X105740500Y-44888389D01*
X105713402Y-44717299D01*
X105659873Y-44552555D01*
X105581232Y-44398212D01*
X105479414Y-44258072D01*
X105356928Y-44135586D01*
X105216788Y-44033768D01*
X105211118Y-44030879D01*
X105062449Y-43955128D01*
X104911215Y-43905988D01*
X104911203Y-43905985D01*
X104897701Y-43901598D01*
X104897699Y-43901597D01*
X104897698Y-43901597D01*
X104883312Y-43899318D01*
X104883306Y-43899317D01*
X104793188Y-43885044D01*
X104766271Y-43880781D01*
X104750407Y-43878268D01*
X104726614Y-43874500D01*
X104726611Y-43874500D01*
X103553389Y-43874500D01*
X103553388Y-43874500D01*
X103513726Y-43880781D01*
X103513725Y-43880780D01*
X103382304Y-43901596D01*
X103217549Y-43955129D01*
X103063210Y-44033768D01*
X102983256Y-44091859D01*
X102983255Y-44091859D01*
X102934941Y-44126961D01*
X102927564Y-44131092D01*
X102796093Y-44262563D01*
X102791962Y-44269940D01*
X102766243Y-44305340D01*
X102766242Y-44305342D01*
X102698768Y-44398210D01*
X102620129Y-44552549D01*
X102566596Y-44717305D01*
X102566595Y-44717306D01*
X102542407Y-44870028D01*
X102542402Y-44870064D01*
X102542170Y-44871530D01*
X102539500Y-44888389D01*
X93200500Y-44888389D01*
X93200500Y-44766846D01*
X93200499Y-44766839D01*
X93199183Y-44756362D01*
X93184797Y-44641825D01*
X93169628Y-44582396D01*
X93123494Y-44465147D01*
X93110886Y-44442058D01*
X93094155Y-44416025D01*
X93071901Y-44381396D01*
X93071898Y-44381392D01*
X93071893Y-44381385D01*
X93050744Y-44353134D01*
X93003516Y-44298632D01*
X92579384Y-43874500D01*
X92096183Y-43391298D01*
X92096167Y-43391284D01*
X91996678Y-43313997D01*
X91996668Y-43313990D01*
X91943929Y-43282698D01*
X91943924Y-43282696D01*
X91828414Y-43232414D01*
X91810268Y-43227086D01*
X91803168Y-43225001D01*
X91803164Y-43225000D01*
X91803157Y-43224998D01*
X91803143Y-43224994D01*
X91732685Y-43209668D01*
X91732672Y-43209665D01*
X91732663Y-43209663D01*
X91732660Y-43209663D01*
X91697728Y-43204642D01*
X91697719Y-43204641D01*
X91697720Y-43204641D01*
X91625813Y-43199500D01*
X91625808Y-43199500D01*
X88106048Y-43199500D01*
X88066422Y-43201056D01*
X88066416Y-43201056D01*
X88066402Y-43201057D01*
X88047028Y-43202581D01*
X88007571Y-43207248D01*
X87988546Y-43210262D01*
X87949617Y-43218004D01*
X87930684Y-43222550D01*
X87892470Y-43233328D01*
X87822142Y-43256179D01*
X87803224Y-43260721D01*
X87751126Y-43268973D01*
X87691145Y-43278473D01*
X87671749Y-43280000D01*
X87558254Y-43280000D01*
X87538856Y-43278473D01*
X87450777Y-43264522D01*
X87450726Y-43264515D01*
X87436106Y-43262889D01*
X87436106Y-43262890D01*
X87435725Y-43262848D01*
X87404184Y-43259342D01*
X87402858Y-43259256D01*
X87402186Y-43259183D01*
X87386826Y-43258074D01*
X87384594Y-43258080D01*
X87384577Y-43258078D01*
X87384577Y-43258079D01*
X87383921Y-43258036D01*
X87381451Y-43257877D01*
X87381300Y-43257868D01*
X87381298Y-43257867D01*
X87379832Y-43257774D01*
X87379829Y-43257773D01*
X87379826Y-43257773D01*
X87356027Y-43256242D01*
X87342021Y-43257163D01*
X87334326Y-43257025D01*
X87329855Y-43257153D01*
X87329847Y-43257154D01*
X87259006Y-43267596D01*
X87259007Y-43267597D01*
X87254298Y-43268291D01*
X87250037Y-43268590D01*
X87249620Y-43268680D01*
X87249682Y-43268972D01*
X87241159Y-43270229D01*
X87241143Y-43270232D01*
X87212307Y-43274483D01*
X87156422Y-43289599D01*
X87046157Y-43333894D01*
X87046145Y-43333900D01*
X87026610Y-43344566D01*
X86998300Y-43362759D01*
X86965932Y-43383561D01*
X86965926Y-43383565D01*
X86965922Y-43383568D01*
X86937673Y-43404715D01*
X86883185Y-43451929D01*
X86883158Y-43451955D01*
X86031296Y-44303816D01*
X86031288Y-44303825D01*
X85953992Y-44403325D01*
X85922701Y-44456061D01*
X85922695Y-44456072D01*
X85872412Y-44571592D01*
X85872407Y-44571607D01*
X85864995Y-44596852D01*
X85849666Y-44667325D01*
X85849665Y-44667331D01*
X85844644Y-44702251D01*
X85844643Y-44702261D01*
X85839500Y-44774186D01*
X70340500Y-44774186D01*
X70340500Y-44756362D01*
X70337603Y-44702322D01*
X70337596Y-44702261D01*
X70334770Y-44675977D01*
X70334767Y-44675950D01*
X70326114Y-44622554D01*
X70326114Y-44622552D01*
X70307112Y-44571607D01*
X70275832Y-44487743D01*
X70242347Y-44426420D01*
X70156123Y-44311239D01*
X70156118Y-44311234D01*
X70156113Y-44311228D01*
X69228776Y-43383892D01*
X69228761Y-43383877D01*
X69228737Y-43383855D01*
X69188519Y-43347728D01*
X69188507Y-43347718D01*
X69167856Y-43331076D01*
X69123974Y-43299433D01*
X68993100Y-43239663D01*
X68926055Y-43219976D01*
X68858511Y-43210265D01*
X68783638Y-43199500D01*
X68783636Y-43199500D01*
X63966280Y-43199500D01*
X63887231Y-43205720D01*
X63887220Y-43205722D01*
X63848900Y-43211790D01*
X63771759Y-43230309D01*
X63692144Y-43256178D01*
X63673226Y-43260720D01*
X63586338Y-43274483D01*
X63561145Y-43278473D01*
X63541748Y-43280000D01*
X63428251Y-43280000D01*
X63408853Y-43278473D01*
X63397620Y-43276693D01*
X63309374Y-43262716D01*
X63309378Y-43262716D01*
X63215848Y-43256697D01*
X63170114Y-43258004D01*
X63170105Y-43258004D01*
X63170103Y-43258005D01*
X63077090Y-43269350D01*
X63077087Y-43269351D01*
X63077084Y-43269351D01*
X62942280Y-43319630D01*
X62942273Y-43319633D01*
X62882916Y-43352044D01*
X62881442Y-43352814D01*
X62880959Y-43353112D01*
X62765777Y-43439337D01*
X62765765Y-43439348D01*
X61893885Y-44311229D01*
X61893854Y-44311261D01*
X61857696Y-44351517D01*
X61841084Y-44372132D01*
X61841058Y-44372166D01*
X61809432Y-44416025D01*
X61809431Y-44416027D01*
X61749664Y-44546895D01*
X61729976Y-44613943D01*
X61709500Y-44756362D01*
X61709500Y-47733640D01*
X61712397Y-47787688D01*
X61712397Y-47787689D01*
X61715229Y-47814022D01*
X61715232Y-47814049D01*
X61723885Y-47867445D01*
X61723885Y-47867447D01*
X61738856Y-47907584D01*
X61774168Y-48002257D01*
X61786496Y-48024834D01*
X61799102Y-48047921D01*
X61807653Y-48063580D01*
X61893877Y-48178761D01*
X61893881Y-48178765D01*
X61893886Y-48178771D01*
X62765766Y-49050651D01*
X62765773Y-49050657D01*
X62791088Y-49071661D01*
X62830113Y-49129617D01*
X62831609Y-49199470D01*
X62799593Y-49254772D01*
X62669026Y-49385339D01*
X62554057Y-49557404D01*
X62474870Y-49748579D01*
X62474864Y-49748604D01*
X62434500Y-49951527D01*
X62434500Y-49951530D01*
X62434500Y-50158469D01*
X62434500Y-50158471D01*
X62434499Y-50158471D01*
X62474864Y-50361394D01*
X62474868Y-50361412D01*
X62474868Y-50361416D01*
X62554057Y-50552594D01*
X62669027Y-50724661D01*
X62815336Y-50870970D01*
X62815340Y-50870973D01*
X62815342Y-50870975D01*
X62815345Y-50870977D01*
X62815349Y-50870980D01*
X62815348Y-50870980D01*
X62815411Y-50871032D01*
X62815448Y-50871046D01*
X62987402Y-50985941D01*
X63178580Y-51065130D01*
X63369540Y-51103114D01*
X63378559Y-51104908D01*
X63380794Y-51105409D01*
X63381532Y-51105500D01*
X63588466Y-51105500D01*
X63592586Y-51105500D01*
X63600435Y-51103118D01*
X63791420Y-51065130D01*
X63982598Y-50985941D01*
X64056611Y-50936487D01*
X64123286Y-50915610D01*
X64190666Y-50934094D01*
X64237357Y-50986073D01*
X64249500Y-51039590D01*
X64249500Y-51330500D01*
X64229815Y-51397539D01*
X64177011Y-51443294D01*
X64125500Y-51454500D01*
X61361360Y-51454500D01*
X61307311Y-51457397D01*
X61307310Y-51457397D01*
X61280977Y-51460229D01*
X61280950Y-51460232D01*
X61227554Y-51468885D01*
X61227552Y-51468885D01*
X61092747Y-51519166D01*
X61031422Y-51552651D01*
X60916240Y-51638876D01*
X60916228Y-51638886D01*
X59988892Y-52566223D01*
X59988855Y-52566262D01*
X59952728Y-52606480D01*
X59952718Y-52606492D01*
X59936076Y-52627143D01*
X59904433Y-52671025D01*
X59844663Y-52801899D01*
X59824976Y-52868944D01*
X59804500Y-53011363D01*
X51126612Y-53011363D01*
X51112112Y-52938469D01*
X51111967Y-52937728D01*
X51111825Y-52936992D01*
X51109735Y-52932573D01*
X51036635Y-52756092D01*
X51036628Y-52756079D01*
X50927139Y-52592218D01*
X50927136Y-52592214D01*
X50927131Y-52592208D01*
X50787790Y-52452867D01*
X50787784Y-52452862D01*
X50787783Y-52452861D01*
X50623926Y-52343375D01*
X50623925Y-52343374D01*
X50623920Y-52343371D01*
X50623907Y-52343364D01*
X50623900Y-52343360D01*
X50441861Y-52267958D01*
X50441847Y-52267953D01*
X50441839Y-52267950D01*
X50441829Y-52267947D01*
X50441826Y-52267946D01*
X50441822Y-52267945D01*
X50248546Y-52229500D01*
X50248543Y-52229500D01*
X50248541Y-52229500D01*
X50051459Y-52229500D01*
X50051457Y-52229500D01*
X50051453Y-52229500D01*
X49858176Y-52267945D01*
X49858170Y-52267947D01*
X49858160Y-52267950D01*
X49858155Y-52267951D01*
X49858137Y-52267958D01*
X49676098Y-52343360D01*
X49676089Y-52343365D01*
X49676072Y-52343375D01*
X49512215Y-52452861D01*
X49512214Y-52452862D01*
X49512208Y-52452867D01*
X49372867Y-52592208D01*
X49372862Y-52592214D01*
X49372861Y-52592215D01*
X49263375Y-52756072D01*
X49263365Y-52756089D01*
X49263360Y-52756098D01*
X49187958Y-52938137D01*
X49187945Y-52938176D01*
X49149500Y-53131451D01*
X49149500Y-53284174D01*
X49144237Y-53302094D01*
X46210500Y-53302094D01*
X46210500Y-50762094D01*
X49144237Y-50762094D01*
X49187945Y-50981822D01*
X49187946Y-50981826D01*
X49187947Y-50981829D01*
X49187950Y-50981839D01*
X49187953Y-50981847D01*
X49187958Y-50981861D01*
X49263360Y-51163900D01*
X49263365Y-51163909D01*
X49263375Y-51163926D01*
X49372861Y-51327783D01*
X49372862Y-51327784D01*
X49372867Y-51327790D01*
X49512208Y-51467131D01*
X49512214Y-51467136D01*
X49512218Y-51467139D01*
X49676079Y-51576628D01*
X49676092Y-51576635D01*
X49858160Y-51652049D01*
X49858165Y-51652051D01*
X49858169Y-51652051D01*
X49858170Y-51652052D01*
X49858442Y-51652106D01*
X49858469Y-51652112D01*
X50051453Y-51690500D01*
X50248543Y-51690500D01*
X50248544Y-51690500D01*
X50270216Y-51686188D01*
X50378582Y-51664632D01*
X50378583Y-51664632D01*
X50391301Y-51662102D01*
X50441835Y-51652051D01*
X50623914Y-51576632D01*
X50787782Y-51467139D01*
X50927139Y-51327782D01*
X51036632Y-51163914D01*
X51112051Y-50981835D01*
X51134102Y-50870977D01*
X51150500Y-50788543D01*
X51150500Y-50591453D01*
X51111812Y-50396964D01*
X51109728Y-50392556D01*
X51096828Y-50361412D01*
X51096821Y-50361394D01*
X51036638Y-50216098D01*
X51036633Y-50216089D01*
X51036628Y-50216079D01*
X50927139Y-50052218D01*
X50927136Y-50052214D01*
X50927131Y-50052208D01*
X50787790Y-49912867D01*
X50787784Y-49912862D01*
X50787783Y-49912861D01*
X50623926Y-49803375D01*
X50623925Y-49803374D01*
X50623920Y-49803371D01*
X50623907Y-49803364D01*
X50623900Y-49803360D01*
X50441861Y-49727958D01*
X50441847Y-49727953D01*
X50441839Y-49727950D01*
X50441829Y-49727947D01*
X50441826Y-49727946D01*
X50441822Y-49727945D01*
X50248546Y-49689500D01*
X50248543Y-49689500D01*
X50248541Y-49689500D01*
X50051459Y-49689500D01*
X50051457Y-49689500D01*
X50051453Y-49689500D01*
X49858176Y-49727945D01*
X49858170Y-49727947D01*
X49858160Y-49727950D01*
X49858155Y-49727951D01*
X49858137Y-49727958D01*
X49676098Y-49803360D01*
X49676089Y-49803365D01*
X49676072Y-49803375D01*
X49512215Y-49912861D01*
X49512214Y-49912862D01*
X49512208Y-49912867D01*
X49372867Y-50052208D01*
X49372862Y-50052214D01*
X49372861Y-50052215D01*
X49263375Y-50216072D01*
X49263365Y-50216089D01*
X49263360Y-50216098D01*
X49187958Y-50398137D01*
X49187945Y-50398176D01*
X49149500Y-50591451D01*
X49149500Y-50744174D01*
X49144237Y-50762094D01*
X46210500Y-50762094D01*
X46210500Y-44756362D01*
X46207603Y-44702322D01*
X46207596Y-44702261D01*
X46204770Y-44675977D01*
X46204767Y-44675950D01*
X46196114Y-44622554D01*
X46196114Y-44622552D01*
X46177112Y-44571607D01*
X46145832Y-44487743D01*
X46112347Y-44426420D01*
X46026123Y-44311239D01*
X46026118Y-44311234D01*
X46026113Y-44311228D01*
X45098776Y-43383892D01*
X45098761Y-43383877D01*
X45098737Y-43383855D01*
X45058519Y-43347728D01*
X45058507Y-43347718D01*
X45037856Y-43331076D01*
X44993974Y-43299433D01*
X44863100Y-43239663D01*
X44796055Y-43219976D01*
X44728511Y-43210265D01*
X44653638Y-43199500D01*
X44653636Y-43199500D01*
X40471280Y-43199500D01*
X40392231Y-43205720D01*
X40392220Y-43205722D01*
X40353900Y-43211790D01*
X40276759Y-43230309D01*
X40197144Y-43256178D01*
X40178226Y-43260720D01*
X40091338Y-43274483D01*
X40066145Y-43278473D01*
X40046748Y-43280000D01*
X39933251Y-43280000D01*
X39913853Y-43278473D01*
X39902620Y-43276693D01*
X39814374Y-43262716D01*
X39814378Y-43262716D01*
X39720848Y-43256697D01*
X39675114Y-43258004D01*
X39675105Y-43258004D01*
X39675103Y-43258005D01*
X39582090Y-43269350D01*
X39582087Y-43269351D01*
X39582084Y-43269351D01*
X39447280Y-43319630D01*
X39447273Y-43319633D01*
X39387916Y-43352044D01*
X39386442Y-43352814D01*
X39385959Y-43353112D01*
X39270777Y-43439337D01*
X39270765Y-43439348D01*
X38398885Y-44311229D01*
X38398854Y-44311261D01*
X38362696Y-44351517D01*
X38346084Y-44372132D01*
X38346058Y-44372166D01*
X38314432Y-44416025D01*
X38314431Y-44416027D01*
X38254664Y-44546895D01*
X38234976Y-44613943D01*
X38214500Y-44756362D01*
X38214500Y-47733640D01*
X38217397Y-47787688D01*
X38217397Y-47787689D01*
X38220229Y-47814022D01*
X38220232Y-47814049D01*
X38228885Y-47867445D01*
X38228885Y-47867447D01*
X38243856Y-47907584D01*
X38279168Y-48002257D01*
X38291496Y-48024834D01*
X38304102Y-48047921D01*
X38312653Y-48063580D01*
X38398877Y-48178761D01*
X38398881Y-48178765D01*
X38398886Y-48178771D01*
X39270766Y-49050651D01*
X39270773Y-49050657D01*
X39296088Y-49071661D01*
X39335113Y-49129617D01*
X39336609Y-49199470D01*
X39304593Y-49254772D01*
X39174026Y-49385339D01*
X39059057Y-49557404D01*
X38979870Y-49748579D01*
X38979864Y-49748604D01*
X38939500Y-49951527D01*
X38939500Y-49951530D01*
X38939500Y-50158469D01*
X38939500Y-50158471D01*
X38939499Y-50158471D01*
X38979864Y-50361394D01*
X38979868Y-50361412D01*
X38979868Y-50361416D01*
X39059057Y-50552594D01*
X39174027Y-50724661D01*
X39320336Y-50870970D01*
X39320340Y-50870973D01*
X39320342Y-50870975D01*
X39320345Y-50870977D01*
X39320349Y-50870980D01*
X39320348Y-50870980D01*
X39320411Y-50871032D01*
X39320448Y-50871046D01*
X39492402Y-50985941D01*
X39683580Y-51065130D01*
X39874540Y-51103114D01*
X39883559Y-51104908D01*
X39885794Y-51105409D01*
X39886532Y-51105500D01*
X40093466Y-51105500D01*
X40097586Y-51105500D01*
X40105435Y-51103118D01*
X40296420Y-51065130D01*
X40487598Y-50985941D01*
X40561611Y-50936487D01*
X40628286Y-50915610D01*
X40695666Y-50934094D01*
X40742357Y-50986073D01*
X40754500Y-51039590D01*
X40754500Y-51330500D01*
X40734815Y-51397539D01*
X40682011Y-51443294D01*
X40630500Y-51454500D01*
X31516360Y-51454500D01*
X31462311Y-51457397D01*
X31462310Y-51457397D01*
X31435977Y-51460229D01*
X31435950Y-51460232D01*
X31382554Y-51468885D01*
X31382552Y-51468885D01*
X31247747Y-51519166D01*
X31186422Y-51552651D01*
X31071240Y-51638876D01*
X31071228Y-51638886D01*
X30143892Y-52566223D01*
X30143855Y-52566262D01*
X30107728Y-52606480D01*
X30107718Y-52606492D01*
X30091076Y-52627143D01*
X30059433Y-52671025D01*
X29999663Y-52801899D01*
X29979976Y-52868944D01*
X29959500Y-53011363D01*
X27631612Y-53011363D01*
X27617112Y-52938469D01*
X27616967Y-52937728D01*
X27616825Y-52936992D01*
X27614735Y-52932573D01*
X27541635Y-52756092D01*
X27541628Y-52756079D01*
X27432139Y-52592218D01*
X27432136Y-52592214D01*
X27432131Y-52592208D01*
X27292790Y-52452867D01*
X27292784Y-52452862D01*
X27292783Y-52452861D01*
X27128926Y-52343375D01*
X27128925Y-52343374D01*
X27128920Y-52343371D01*
X27128907Y-52343364D01*
X27128900Y-52343360D01*
X26946861Y-52267958D01*
X26946847Y-52267953D01*
X26946839Y-52267950D01*
X26946829Y-52267947D01*
X26946826Y-52267946D01*
X26946822Y-52267945D01*
X26753546Y-52229500D01*
X26753543Y-52229500D01*
X26753541Y-52229500D01*
X26556459Y-52229500D01*
X26556457Y-52229500D01*
X26556453Y-52229500D01*
X26363176Y-52267945D01*
X26363170Y-52267947D01*
X26363160Y-52267950D01*
X26363155Y-52267951D01*
X26363137Y-52267958D01*
X26181098Y-52343360D01*
X26181089Y-52343365D01*
X26181072Y-52343375D01*
X26017215Y-52452861D01*
X26017214Y-52452862D01*
X26017208Y-52452867D01*
X25877867Y-52592208D01*
X25877862Y-52592214D01*
X25877861Y-52592215D01*
X25768375Y-52756072D01*
X25768365Y-52756089D01*
X25768360Y-52756098D01*
X25692958Y-52938137D01*
X25692945Y-52938176D01*
X25654500Y-53131451D01*
X25654500Y-53284174D01*
X25649237Y-53302094D01*
X20500500Y-53302094D01*
X20500500Y-50762094D01*
X25649237Y-50762094D01*
X25692945Y-50981822D01*
X25692946Y-50981826D01*
X25692947Y-50981829D01*
X25692950Y-50981839D01*
X25692953Y-50981847D01*
X25692958Y-50981861D01*
X25768360Y-51163900D01*
X25768365Y-51163909D01*
X25768375Y-51163926D01*
X25877861Y-51327783D01*
X25877862Y-51327784D01*
X25877867Y-51327790D01*
X26017208Y-51467131D01*
X26017214Y-51467136D01*
X26017218Y-51467139D01*
X26181079Y-51576628D01*
X26181092Y-51576635D01*
X26363160Y-51652049D01*
X26363165Y-51652051D01*
X26363169Y-51652051D01*
X26363170Y-51652052D01*
X26363442Y-51652106D01*
X26363469Y-51652112D01*
X26556453Y-51690500D01*
X26753543Y-51690500D01*
X26753544Y-51690500D01*
X26775216Y-51686188D01*
X26883582Y-51664632D01*
X26883583Y-51664632D01*
X26896301Y-51662102D01*
X26946835Y-51652051D01*
X27128914Y-51576632D01*
X27292782Y-51467139D01*
X27432139Y-51327782D01*
X27541632Y-51163914D01*
X27617051Y-50981835D01*
X27639102Y-50870977D01*
X27655500Y-50788543D01*
X27655500Y-50591453D01*
X27616812Y-50396964D01*
X27614728Y-50392556D01*
X27601828Y-50361412D01*
X27601821Y-50361394D01*
X27541638Y-50216098D01*
X27541633Y-50216089D01*
X27541628Y-50216079D01*
X27432139Y-50052218D01*
X27432136Y-50052214D01*
X27432131Y-50052208D01*
X27292790Y-49912867D01*
X27292784Y-49912862D01*
X27292783Y-49912861D01*
X27128926Y-49803375D01*
X27128925Y-49803374D01*
X27128920Y-49803371D01*
X27128907Y-49803364D01*
X27128900Y-49803360D01*
X26946861Y-49727958D01*
X26946847Y-49727953D01*
X26946839Y-49727950D01*
X26946829Y-49727947D01*
X26946826Y-49727946D01*
X26946822Y-49727945D01*
X26753546Y-49689500D01*
X26753543Y-49689500D01*
X26753541Y-49689500D01*
X26556459Y-49689500D01*
X26556457Y-49689500D01*
X26556453Y-49689500D01*
X26363176Y-49727945D01*
X26363170Y-49727947D01*
X26363160Y-49727950D01*
X26363155Y-49727951D01*
X26363137Y-49727958D01*
X26181098Y-49803360D01*
X26181089Y-49803365D01*
X26181072Y-49803375D01*
X26017215Y-49912861D01*
X26017214Y-49912862D01*
X26017208Y-49912867D01*
X25877867Y-50052208D01*
X25877862Y-50052214D01*
X25877861Y-50052215D01*
X25768375Y-50216072D01*
X25768365Y-50216089D01*
X25768360Y-50216098D01*
X25692958Y-50398137D01*
X25692945Y-50398176D01*
X25654500Y-50591451D01*
X25654500Y-50744174D01*
X25649237Y-50762094D01*
X20500500Y-50762094D01*
X20500500Y-23878710D01*
X22149500Y-23878710D01*
X22149500Y-24121288D01*
X22181160Y-24361781D01*
X22243947Y-24596104D01*
X22336772Y-24820203D01*
X22336773Y-24820207D01*
X22336780Y-24820220D01*
X22458060Y-25030283D01*
X22458062Y-25030286D01*
X22458281Y-25030615D01*
X22459284Y-25031879D01*
X22605726Y-25222728D01*
X22605730Y-25222733D01*
X22605733Y-25222736D01*
X22605739Y-25222743D01*
X22605747Y-25222751D01*
X22777242Y-25394247D01*
X22777256Y-25394260D01*
X22777262Y-25394265D01*
X22969711Y-25541936D01*
X23179788Y-25663224D01*
X23403900Y-25756054D01*
X23638211Y-25818838D01*
X23818586Y-25842584D01*
X23878710Y-25850500D01*
X23878711Y-25850500D01*
X23878712Y-25850500D01*
X24121283Y-25850500D01*
X24121289Y-25850500D01*
X24169388Y-25844167D01*
X24361789Y-25818838D01*
X24596100Y-25756054D01*
X24820212Y-25663224D01*
X25030289Y-25541936D01*
X25222738Y-25394265D01*
X25394265Y-25222738D01*
X25541936Y-25030289D01*
X25663224Y-24820212D01*
X25756054Y-24596100D01*
X25798856Y-24436363D01*
X38214500Y-24436363D01*
X38214500Y-37573640D01*
X38217397Y-37627688D01*
X38217397Y-37627689D01*
X38220229Y-37654022D01*
X38220232Y-37654049D01*
X38228885Y-37707445D01*
X38228885Y-37707447D01*
X38279166Y-37842252D01*
X38279168Y-37842257D01*
X38312653Y-37903580D01*
X38398877Y-38018761D01*
X38398881Y-38018765D01*
X38398886Y-38018771D01*
X39270764Y-38890649D01*
X39270769Y-38890653D01*
X39270772Y-38890656D01*
X39342881Y-38950485D01*
X39380665Y-38976322D01*
X39427200Y-39002166D01*
X39450697Y-39015216D01*
X39462587Y-39021819D01*
X39601203Y-39060381D01*
X39666270Y-39068790D01*
X39668449Y-39069149D01*
X39670496Y-39069336D01*
X39670497Y-39069337D01*
X39670502Y-39069338D01*
X39670507Y-39069337D01*
X39670508Y-39069338D01*
X39748974Y-39068217D01*
X39814368Y-39067284D01*
X39913857Y-39051526D01*
X39933254Y-39050000D01*
X40046750Y-39050000D01*
X40066135Y-39051525D01*
X40178239Y-39069280D01*
X40197139Y-39073817D01*
X40276763Y-39099690D01*
X40353896Y-39118208D01*
X40392215Y-39124277D01*
X40471291Y-39130500D01*
X63003701Y-39130500D01*
X63003709Y-39130500D01*
X63082785Y-39124277D01*
X63121104Y-39118208D01*
X63198238Y-39099689D01*
X63277852Y-39073820D01*
X63296749Y-39069282D01*
X63408864Y-39051525D01*
X63428251Y-39050000D01*
X63541750Y-39050000D01*
X63561135Y-39051525D01*
X63673239Y-39069280D01*
X63692139Y-39073817D01*
X63771763Y-39099690D01*
X63848896Y-39118208D01*
X63887215Y-39124277D01*
X63966291Y-39130500D01*
X87133701Y-39130500D01*
X87133709Y-39130500D01*
X87212785Y-39124277D01*
X87251104Y-39118208D01*
X87328238Y-39099689D01*
X87407852Y-39073820D01*
X87426749Y-39069282D01*
X87538864Y-39051525D01*
X87558251Y-39050000D01*
X87671750Y-39050000D01*
X87691135Y-39051525D01*
X87803239Y-39069280D01*
X87822139Y-39073817D01*
X87901763Y-39099690D01*
X87978896Y-39118208D01*
X88017215Y-39124277D01*
X88096291Y-39130500D01*
X96221384Y-39130500D01*
X96221387Y-39130500D01*
X96241278Y-39130108D01*
X96251029Y-39129724D01*
X96270886Y-39128551D01*
X96411251Y-39096940D01*
X96476535Y-39072045D01*
X96476539Y-39072043D01*
X96602311Y-39002166D01*
X96703303Y-38899685D01*
X96744764Y-38843446D01*
X96812792Y-38716663D01*
X96842346Y-38575851D01*
X96846820Y-38506125D01*
X96835505Y-38362690D01*
X96793330Y-38175428D01*
X96790608Y-38156914D01*
X96785308Y-38081833D01*
X96785308Y-38081832D01*
X96785000Y-38073102D01*
X96785000Y-35926893D01*
X96785308Y-35918161D01*
X96790608Y-35843081D01*
X96793330Y-35824569D01*
X96825818Y-35680315D01*
X96831750Y-35661276D01*
X96885766Y-35527065D01*
X96894681Y-35509215D01*
X96969520Y-35385417D01*
X96969524Y-35385409D01*
X96981185Y-35369225D01*
X97074916Y-35259029D01*
X97089029Y-35244916D01*
X97141985Y-35199873D01*
X97199225Y-35151185D01*
X97215414Y-35139522D01*
X97339218Y-35064679D01*
X97357064Y-35055766D01*
X97491277Y-35001750D01*
X97510316Y-34995818D01*
X97654574Y-34963329D01*
X97673079Y-34960608D01*
X97731309Y-34956497D01*
X97748165Y-34955308D01*
X97756896Y-34955000D01*
X99903104Y-34955000D01*
X99911835Y-34955307D01*
X99986919Y-34960608D01*
X100005426Y-34963329D01*
X100149673Y-34995816D01*
X100168726Y-35001753D01*
X100302932Y-35055767D01*
X100320784Y-35064683D01*
X100444584Y-35139522D01*
X100460776Y-35151186D01*
X100570966Y-35244913D01*
X100585078Y-35259025D01*
X100678814Y-35369226D01*
X100690478Y-35385417D01*
X100765316Y-35509215D01*
X100774232Y-35527068D01*
X100828244Y-35661269D01*
X100834181Y-35680322D01*
X100866667Y-35824567D01*
X100869389Y-35843077D01*
X100874691Y-35918161D01*
X100874999Y-35926895D01*
X100874999Y-38073098D01*
X100874691Y-38081832D01*
X100869389Y-38156921D01*
X100866667Y-38175431D01*
X100834181Y-38319676D01*
X100828244Y-38338729D01*
X100774232Y-38472930D01*
X100765316Y-38490782D01*
X100690476Y-38614584D01*
X100678812Y-38630775D01*
X100595996Y-38728138D01*
X100520267Y-38847773D01*
X100491983Y-38910466D01*
X100491979Y-38910476D01*
X100452403Y-39046415D01*
X100452403Y-39190293D01*
X100452404Y-39190297D01*
X100462348Y-39259455D01*
X100462349Y-39259460D01*
X100462350Y-39259463D01*
X100502882Y-39397501D01*
X100502885Y-39397507D01*
X100580667Y-39518537D01*
X100580675Y-39518548D01*
X100626419Y-39571340D01*
X100626422Y-39571343D01*
X100626426Y-39571347D01*
X100735160Y-39665567D01*
X100866037Y-39725338D01*
X100933076Y-39745023D01*
X100933080Y-39745024D01*
X101075496Y-39765500D01*
X103121186Y-39765500D01*
X103188225Y-39785185D01*
X103215333Y-39808801D01*
X106779648Y-43967169D01*
X106808331Y-44030879D01*
X106809500Y-44047866D01*
X106809500Y-46866000D01*
X106809501Y-46866009D01*
X106821052Y-46973450D01*
X106821054Y-46973462D01*
X106832260Y-47024972D01*
X106866383Y-47127497D01*
X106866386Y-47127503D01*
X106944171Y-47248537D01*
X106944179Y-47248548D01*
X106989923Y-47301340D01*
X106989926Y-47301343D01*
X106989930Y-47301347D01*
X107098664Y-47395567D01*
X107098667Y-47395568D01*
X107098668Y-47395569D01*
X107192925Y-47438616D01*
X107229541Y-47455338D01*
X107296580Y-47475023D01*
X107296584Y-47475024D01*
X107439000Y-47495500D01*
X115445990Y-47495500D01*
X115446000Y-47495500D01*
X115553456Y-47483947D01*
X115604967Y-47472741D01*
X115639197Y-47461347D01*
X115707497Y-47438616D01*
X115707501Y-47438613D01*
X115707504Y-47438613D01*
X115828543Y-47360825D01*
X115881347Y-47315070D01*
X115975567Y-47206336D01*
X116035338Y-47075459D01*
X116055023Y-47008420D01*
X116055024Y-47008416D01*
X116075500Y-46866000D01*
X116075500Y-40805590D01*
X116072204Y-40747962D01*
X116068981Y-40719875D01*
X116059139Y-40663005D01*
X116006937Y-40528929D01*
X115976657Y-40475311D01*
X115976424Y-40474824D01*
X115972578Y-40468088D01*
X115972577Y-40468085D01*
X115884715Y-40354148D01*
X115884714Y-40354147D01*
X115768314Y-40269580D01*
X115706511Y-40236972D01*
X115706512Y-40236972D01*
X115700863Y-40234957D01*
X115644337Y-40193889D01*
X115618987Y-40128780D01*
X115620058Y-40098776D01*
X115635500Y-40001287D01*
X115635500Y-39788713D01*
X115602246Y-39578757D01*
X115536557Y-39376588D01*
X115440051Y-39187184D01*
X115440049Y-39187181D01*
X115440048Y-39187179D01*
X115439702Y-39186703D01*
X115439700Y-39186699D01*
X115315112Y-39015216D01*
X115164786Y-38864890D01*
X115141226Y-38847773D01*
X115081470Y-38804358D01*
X115038805Y-38749029D01*
X115032826Y-38679416D01*
X115040871Y-38657365D01*
X115040147Y-38657095D01*
X115043242Y-38648790D01*
X115043247Y-38648783D01*
X115073830Y-38508191D01*
X115078814Y-38438499D01*
X115068550Y-38294988D01*
X115018268Y-38160179D01*
X114984783Y-38098856D01*
X114898559Y-37983675D01*
X114898554Y-37983670D01*
X114898549Y-37983664D01*
X111518776Y-34603892D01*
X111518761Y-34603877D01*
X111518737Y-34603855D01*
X111478519Y-34567728D01*
X111478507Y-34567718D01*
X111457856Y-34551076D01*
X111413974Y-34519433D01*
X111283100Y-34459663D01*
X111216055Y-34439976D01*
X111168582Y-34433150D01*
X111073638Y-34419500D01*
X111073636Y-34419500D01*
X109199500Y-34419500D01*
X109190814Y-34416949D01*
X109181853Y-34418238D01*
X109157812Y-34407259D01*
X109132461Y-34399815D01*
X109126533Y-34392974D01*
X109118297Y-34389213D01*
X109104007Y-34366978D01*
X109086706Y-34347011D01*
X109084418Y-34336496D01*
X109080523Y-34330435D01*
X109075500Y-34295500D01*
X109075500Y-34093383D01*
X114469500Y-34093383D01*
X114469500Y-34266610D01*
X114485396Y-34366978D01*
X114496598Y-34437701D01*
X114550127Y-34602445D01*
X114628768Y-34756788D01*
X114730586Y-34896928D01*
X114853072Y-35019414D01*
X114993212Y-35121232D01*
X115147555Y-35199873D01*
X115312299Y-35253402D01*
X115483389Y-35280500D01*
X115483390Y-35280500D01*
X115656610Y-35280500D01*
X115656611Y-35280500D01*
X115827701Y-35253402D01*
X115992445Y-35199873D01*
X116146788Y-35121232D01*
X116286928Y-35019414D01*
X116409414Y-34896928D01*
X116511232Y-34756788D01*
X116589873Y-34602445D01*
X116643402Y-34437701D01*
X116670500Y-34266611D01*
X116670500Y-34093389D01*
X116643402Y-33922299D01*
X116589873Y-33757555D01*
X116511232Y-33603212D01*
X116409414Y-33463072D01*
X116286928Y-33340586D01*
X116146788Y-33238768D01*
X115992449Y-33160128D01*
X115841215Y-33110988D01*
X115841203Y-33110985D01*
X115827701Y-33106598D01*
X115827699Y-33106597D01*
X115827698Y-33106597D01*
X115813312Y-33104318D01*
X115813306Y-33104317D01*
X115723188Y-33090044D01*
X115696271Y-33085781D01*
X115680407Y-33083268D01*
X115656614Y-33079500D01*
X115656611Y-33079500D01*
X115483389Y-33079500D01*
X115483388Y-33079500D01*
X115443726Y-33085781D01*
X115443725Y-33085780D01*
X115312304Y-33106596D01*
X115147549Y-33160129D01*
X114993210Y-33238768D01*
X114913256Y-33296859D01*
X114913255Y-33296859D01*
X114864941Y-33331961D01*
X114857564Y-33336092D01*
X114726092Y-33467564D01*
X114721961Y-33474941D01*
X114686859Y-33523255D01*
X114686859Y-33523256D01*
X114628768Y-33603210D01*
X114550129Y-33757549D01*
X114496596Y-33922305D01*
X114469500Y-34093383D01*
X109075500Y-34093383D01*
X109075500Y-32560594D01*
X109075176Y-32542533D01*
X109075176Y-32542511D01*
X109074859Y-32533657D01*
X109073893Y-32515651D01*
X109043300Y-32375061D01*
X109040606Y-32367841D01*
X109035616Y-32298153D01*
X109069096Y-32236827D01*
X109130416Y-32203336D01*
X109156785Y-32200500D01*
X109653873Y-32200500D01*
X109661732Y-32198116D01*
X109681381Y-32194208D01*
X109696258Y-32191249D01*
X109702354Y-32190648D01*
X109702386Y-32190639D01*
X109713311Y-32187902D01*
X109723515Y-32178654D01*
X109774552Y-32144552D01*
X109818867Y-32078231D01*
X109818867Y-32078229D01*
X109818868Y-32078229D01*
X109821030Y-32067355D01*
X109821166Y-32067090D01*
X109821249Y-32066256D01*
X109830068Y-32021917D01*
X109830500Y-32019931D01*
X109830500Y-29982295D01*
X109830500Y-29980249D01*
X109830499Y-29980247D01*
X109818868Y-29921770D01*
X109818867Y-29921769D01*
X109774552Y-29855447D01*
X109738146Y-29831121D01*
X109718385Y-29817917D01*
X109713641Y-29814024D01*
X109708230Y-29811132D01*
X109708229Y-29811131D01*
X109649752Y-29799500D01*
X109649750Y-29799500D01*
X109156751Y-29799500D01*
X109089712Y-29779815D01*
X109043957Y-29727011D01*
X109034013Y-29657853D01*
X109037774Y-29640564D01*
X109055023Y-29581820D01*
X109055024Y-29581817D01*
X109075500Y-29439401D01*
X109075500Y-29172094D01*
X112029237Y-29172094D01*
X112072945Y-29391822D01*
X112072946Y-29391826D01*
X112072947Y-29391829D01*
X112072950Y-29391839D01*
X112072953Y-29391847D01*
X112072958Y-29391861D01*
X112148360Y-29573900D01*
X112148365Y-29573909D01*
X112148375Y-29573926D01*
X112257861Y-29737783D01*
X112257862Y-29737784D01*
X112257867Y-29737790D01*
X112397208Y-29877131D01*
X112397214Y-29877136D01*
X112397218Y-29877139D01*
X112561079Y-29986628D01*
X112561092Y-29986635D01*
X112743160Y-30062049D01*
X112743165Y-30062051D01*
X112743169Y-30062051D01*
X112743170Y-30062052D01*
X112743442Y-30062106D01*
X112743469Y-30062112D01*
X112936453Y-30100500D01*
X113133543Y-30100500D01*
X113133544Y-30100500D01*
X113155216Y-30096188D01*
X113263582Y-30074632D01*
X113263583Y-30074632D01*
X113276301Y-30072102D01*
X113326835Y-30062051D01*
X113508914Y-29986632D01*
X113672782Y-29877139D01*
X113812139Y-29737782D01*
X113921632Y-29573914D01*
X113997051Y-29391835D01*
X114035500Y-29198541D01*
X114035500Y-29172094D01*
X114569237Y-29172094D01*
X114612945Y-29391822D01*
X114612946Y-29391826D01*
X114612947Y-29391829D01*
X114612950Y-29391839D01*
X114612953Y-29391847D01*
X114612958Y-29391861D01*
X114688360Y-29573900D01*
X114688365Y-29573909D01*
X114688375Y-29573926D01*
X114797861Y-29737783D01*
X114797862Y-29737784D01*
X114797867Y-29737790D01*
X114937208Y-29877131D01*
X114937214Y-29877136D01*
X114937218Y-29877139D01*
X115101079Y-29986628D01*
X115101092Y-29986635D01*
X115283160Y-30062049D01*
X115283165Y-30062051D01*
X115283169Y-30062051D01*
X115283170Y-30062052D01*
X115283442Y-30062106D01*
X115283469Y-30062112D01*
X115476453Y-30100500D01*
X115673543Y-30100500D01*
X115673544Y-30100500D01*
X115695216Y-30096188D01*
X115803582Y-30074632D01*
X115803583Y-30074632D01*
X115816301Y-30072102D01*
X115866835Y-30062051D01*
X116048914Y-29986632D01*
X116212782Y-29877139D01*
X116352139Y-29737782D01*
X116461632Y-29573914D01*
X116537051Y-29391835D01*
X116575500Y-29198541D01*
X116575500Y-29001459D01*
X116575500Y-29001456D01*
X116575500Y-29001453D01*
X116537112Y-28808471D01*
X116537112Y-28808472D01*
X116537052Y-28808170D01*
X116537051Y-28808169D01*
X116536811Y-28806964D01*
X116534735Y-28802573D01*
X116461635Y-28626092D01*
X116461628Y-28626079D01*
X116352139Y-28462218D01*
X116352136Y-28462214D01*
X116352131Y-28462208D01*
X116212790Y-28322867D01*
X116212784Y-28322862D01*
X116212783Y-28322861D01*
X116048926Y-28213375D01*
X116048925Y-28213374D01*
X116048920Y-28213371D01*
X116048907Y-28213364D01*
X116048900Y-28213360D01*
X115866861Y-28137958D01*
X115866847Y-28137953D01*
X115866839Y-28137950D01*
X115866829Y-28137947D01*
X115866826Y-28137946D01*
X115866822Y-28137945D01*
X115673546Y-28099500D01*
X115673543Y-28099500D01*
X115673541Y-28099500D01*
X115476459Y-28099500D01*
X115476457Y-28099500D01*
X115476453Y-28099500D01*
X115283176Y-28137945D01*
X115283170Y-28137947D01*
X115283160Y-28137950D01*
X115283155Y-28137951D01*
X115283137Y-28137958D01*
X115101098Y-28213360D01*
X115101089Y-28213365D01*
X115101072Y-28213375D01*
X114937215Y-28322861D01*
X114937214Y-28322862D01*
X114937208Y-28322867D01*
X114797867Y-28462208D01*
X114797862Y-28462214D01*
X114797861Y-28462215D01*
X114688375Y-28626072D01*
X114688365Y-28626089D01*
X114688360Y-28626098D01*
X114612958Y-28808137D01*
X114612945Y-28808176D01*
X114574500Y-29001451D01*
X114574500Y-29154174D01*
X114569237Y-29172094D01*
X114035500Y-29172094D01*
X114035500Y-29001459D01*
X114035500Y-29001456D01*
X114035500Y-29001453D01*
X113997112Y-28808471D01*
X113997112Y-28808472D01*
X113997052Y-28808170D01*
X113997051Y-28808169D01*
X113996811Y-28806964D01*
X113994735Y-28802573D01*
X113921635Y-28626092D01*
X113921628Y-28626079D01*
X113812139Y-28462218D01*
X113812136Y-28462214D01*
X113812131Y-28462208D01*
X113672790Y-28322867D01*
X113672784Y-28322862D01*
X113672783Y-28322861D01*
X113508926Y-28213375D01*
X113508925Y-28213374D01*
X113508920Y-28213371D01*
X113508907Y-28213364D01*
X113508900Y-28213360D01*
X113326861Y-28137958D01*
X113326847Y-28137953D01*
X113326839Y-28137950D01*
X113326829Y-28137947D01*
X113326826Y-28137946D01*
X113326822Y-28137945D01*
X113133546Y-28099500D01*
X113133543Y-28099500D01*
X113133541Y-28099500D01*
X112936459Y-28099500D01*
X112936457Y-28099500D01*
X112936453Y-28099500D01*
X112743176Y-28137945D01*
X112743170Y-28137947D01*
X112743160Y-28137950D01*
X112743155Y-28137951D01*
X112743137Y-28137958D01*
X112561098Y-28213360D01*
X112561089Y-28213365D01*
X112561072Y-28213375D01*
X112397215Y-28322861D01*
X112397214Y-28322862D01*
X112397208Y-28322867D01*
X112257867Y-28462208D01*
X112257862Y-28462214D01*
X112257861Y-28462215D01*
X112148375Y-28626072D01*
X112148365Y-28626089D01*
X112148360Y-28626098D01*
X112072958Y-28808137D01*
X112072945Y-28808176D01*
X112034500Y-29001451D01*
X112034500Y-29154174D01*
X112029237Y-29172094D01*
X109075500Y-29172094D01*
X109075500Y-24436362D01*
X109072603Y-24382322D01*
X109069769Y-24355964D01*
X109061114Y-24302552D01*
X109010832Y-24167743D01*
X108977347Y-24106420D01*
X108891123Y-23991239D01*
X108891118Y-23991234D01*
X108891113Y-23991228D01*
X108862218Y-23962333D01*
X108778595Y-23878710D01*
X114149500Y-23878710D01*
X114149500Y-24121288D01*
X114181160Y-24361781D01*
X114243947Y-24596104D01*
X114336772Y-24820203D01*
X114336773Y-24820207D01*
X114336780Y-24820220D01*
X114458060Y-25030283D01*
X114458062Y-25030286D01*
X114458281Y-25030615D01*
X114459284Y-25031879D01*
X114605726Y-25222728D01*
X114605730Y-25222733D01*
X114605733Y-25222736D01*
X114605739Y-25222743D01*
X114605747Y-25222751D01*
X114777242Y-25394247D01*
X114777256Y-25394260D01*
X114777262Y-25394265D01*
X114969711Y-25541936D01*
X115179788Y-25663224D01*
X115403900Y-25756054D01*
X115638211Y-25818838D01*
X115818586Y-25842584D01*
X115878710Y-25850500D01*
X115878711Y-25850500D01*
X115878712Y-25850500D01*
X116121283Y-25850500D01*
X116121289Y-25850500D01*
X116169388Y-25844167D01*
X116361789Y-25818838D01*
X116596100Y-25756054D01*
X116820212Y-25663224D01*
X117030289Y-25541936D01*
X117222738Y-25394265D01*
X117394265Y-25222738D01*
X117541936Y-25030289D01*
X117663224Y-24820212D01*
X117756054Y-24596100D01*
X117818838Y-24361789D01*
X117850500Y-24121288D01*
X117850500Y-23878712D01*
X117818838Y-23638211D01*
X117756054Y-23403900D01*
X117663224Y-23179788D01*
X117541936Y-22969711D01*
X117394265Y-22777262D01*
X117394260Y-22777256D01*
X117394259Y-22777255D01*
X117394247Y-22777242D01*
X117222751Y-22605747D01*
X117222743Y-22605739D01*
X117222736Y-22605733D01*
X117222733Y-22605730D01*
X117222728Y-22605726D01*
X117031879Y-22459284D01*
X117030615Y-22458281D01*
X117030286Y-22458062D01*
X117030283Y-22458060D01*
X116820220Y-22336780D01*
X116820207Y-22336773D01*
X116820203Y-22336772D01*
X116596104Y-22243947D01*
X116361781Y-22181160D01*
X116121290Y-22149500D01*
X116121289Y-22149500D01*
X116121288Y-22149500D01*
X115878712Y-22149500D01*
X115878711Y-22149500D01*
X115878710Y-22149500D01*
X115638217Y-22181160D01*
X115403894Y-22243947D01*
X115179790Y-22336774D01*
X115179782Y-22336778D01*
X115032121Y-22422031D01*
X114969706Y-22458067D01*
X114969702Y-22458069D01*
X114969697Y-22458073D01*
X114777270Y-22605726D01*
X114777255Y-22605740D01*
X114777247Y-22605747D01*
X114605747Y-22777247D01*
X114605740Y-22777255D01*
X114605726Y-22777270D01*
X114458073Y-22969697D01*
X114458067Y-22969706D01*
X114336778Y-23179782D01*
X114336774Y-23179790D01*
X114243947Y-23403894D01*
X114181160Y-23638217D01*
X114149500Y-23878710D01*
X108778595Y-23878710D01*
X107963776Y-23063892D01*
X107963770Y-23063886D01*
X107963761Y-23063877D01*
X107963737Y-23063855D01*
X107923519Y-23027728D01*
X107923507Y-23027718D01*
X107902856Y-23011076D01*
X107858974Y-22979433D01*
X107728100Y-22919663D01*
X107661055Y-22899976D01*
X107613582Y-22893150D01*
X107518638Y-22879500D01*
X107518636Y-22879500D01*
X39771360Y-22879500D01*
X39717311Y-22882397D01*
X39717310Y-22882397D01*
X39690977Y-22885229D01*
X39690950Y-22885232D01*
X39637554Y-22893885D01*
X39637552Y-22893885D01*
X39502747Y-22944166D01*
X39441422Y-22977651D01*
X39326240Y-23063876D01*
X39326228Y-23063886D01*
X38398892Y-23991223D01*
X38398855Y-23991262D01*
X38362728Y-24031480D01*
X38362718Y-24031492D01*
X38346076Y-24052143D01*
X38314433Y-24096025D01*
X38254663Y-24226899D01*
X38234976Y-24293944D01*
X38233738Y-24302554D01*
X38214501Y-24436359D01*
X38214500Y-24436363D01*
X25798856Y-24436363D01*
X25818838Y-24361789D01*
X25850500Y-24121288D01*
X25850500Y-23878712D01*
X25818838Y-23638211D01*
X25756054Y-23403900D01*
X25663224Y-23179788D01*
X25541936Y-22969711D01*
X25394265Y-22777262D01*
X25394260Y-22777256D01*
X25394259Y-22777255D01*
X25394247Y-22777242D01*
X25222751Y-22605747D01*
X25222743Y-22605739D01*
X25222736Y-22605733D01*
X25222733Y-22605730D01*
X25222728Y-22605726D01*
X25031879Y-22459284D01*
X25030615Y-22458281D01*
X25030286Y-22458062D01*
X25030283Y-22458060D01*
X24820220Y-22336780D01*
X24820207Y-22336773D01*
X24820203Y-22336772D01*
X24596104Y-22243947D01*
X24361781Y-22181160D01*
X24121290Y-22149500D01*
X24121289Y-22149500D01*
X24121288Y-22149500D01*
X23878712Y-22149500D01*
X23878711Y-22149500D01*
X23878710Y-22149500D01*
X23638217Y-22181160D01*
X23403894Y-22243947D01*
X23179790Y-22336774D01*
X23179782Y-22336778D01*
X23032121Y-22422031D01*
X22969706Y-22458067D01*
X22969702Y-22458069D01*
X22969697Y-22458073D01*
X22777270Y-22605726D01*
X22777255Y-22605740D01*
X22777247Y-22605747D01*
X22605747Y-22777247D01*
X22605740Y-22777255D01*
X22605726Y-22777270D01*
X22458073Y-22969697D01*
X22458067Y-22969706D01*
X22336778Y-23179782D01*
X22336774Y-23179790D01*
X22243947Y-23403894D01*
X22181160Y-23638217D01*
X22149500Y-23878710D01*
X20500500Y-23878710D01*
X20500500Y-23504850D01*
X20500541Y-23501675D01*
X20500629Y-23498317D01*
X20500754Y-23495150D01*
X20505536Y-23403895D01*
X20516420Y-23196193D01*
X20516930Y-23189710D01*
X20517607Y-23183274D01*
X20518454Y-23176848D01*
X20518458Y-23176823D01*
X20564526Y-22885964D01*
X20565703Y-22879614D01*
X20567048Y-22873285D01*
X20568564Y-22866967D01*
X20644794Y-22582474D01*
X20646628Y-22576286D01*
X20648643Y-22570084D01*
X20650798Y-22564004D01*
X20691465Y-22458064D01*
X20738021Y-22336780D01*
X20756342Y-22289051D01*
X20758809Y-22283097D01*
X20761448Y-22277167D01*
X20764226Y-22271342D01*
X20897961Y-22008873D01*
X20901034Y-22003217D01*
X20904283Y-21997589D01*
X20907639Y-21992113D01*
X21068064Y-21745079D01*
X21071718Y-21739764D01*
X21075535Y-21734509D01*
X21079448Y-21729410D01*
X21264836Y-21500474D01*
X21269020Y-21495576D01*
X21273371Y-21490745D01*
X21277800Y-21486077D01*
X21486077Y-21277800D01*
X21490756Y-21273361D01*
X21495576Y-21269020D01*
X21500474Y-21264836D01*
X21729410Y-21079448D01*
X21734509Y-21075535D01*
X21739773Y-21071710D01*
X21745079Y-21068064D01*
X21992113Y-20907639D01*
X21997589Y-20904283D01*
X22003228Y-20901027D01*
X22008873Y-20897961D01*
X22271342Y-20764226D01*
X22277179Y-20761443D01*
X22283099Y-20758808D01*
X22289055Y-20756340D01*
X22564044Y-20650782D01*
X22570101Y-20648638D01*
X22576302Y-20646622D01*
X22582498Y-20644788D01*
X22582517Y-20644783D01*
X22866980Y-20568560D01*
X22873285Y-20567048D01*
X22875773Y-20566519D01*
X22879623Y-20565701D01*
X22885964Y-20564526D01*
X23176861Y-20518452D01*
X23183261Y-20517608D01*
X23189722Y-20516928D01*
X23196178Y-20516421D01*
X23495173Y-20500751D01*
X23498328Y-20500628D01*
X23501685Y-20500540D01*
X23504860Y-20500500D01*
X116495138Y-20500500D01*
X116498316Y-20500540D01*
G37*
%TD.AperFunction*%
%TD*%
%TA.AperFunction,Conductor*%
%TO.N,Net-(J1-Pin_2)*%
G36*
X107585677Y-23404685D02*
G01*
X107606319Y-23421319D01*
X108533681Y-24348681D01*
X108567166Y-24410004D01*
X108570000Y-24436362D01*
X108570000Y-29439401D01*
X108550315Y-29506440D01*
X108497511Y-29552195D01*
X108489343Y-29555579D01*
X108487670Y-29556202D01*
X108487665Y-29556205D01*
X108372455Y-29642452D01*
X108372452Y-29642455D01*
X108286206Y-29757664D01*
X108286202Y-29757671D01*
X108235908Y-29892517D01*
X108229501Y-29952116D01*
X108229501Y-29952123D01*
X108229500Y-29952135D01*
X108229500Y-32047870D01*
X108229501Y-32047876D01*
X108235908Y-32107483D01*
X108286202Y-32242328D01*
X108286206Y-32242335D01*
X108372452Y-32357544D01*
X108372455Y-32357547D01*
X108487664Y-32443793D01*
X108487665Y-32443793D01*
X108487669Y-32443796D01*
X108489328Y-32444415D01*
X108490748Y-32445477D01*
X108495452Y-32448046D01*
X108495082Y-32448722D01*
X108545262Y-32486281D01*
X108569683Y-32551744D01*
X108570000Y-32560598D01*
X108570000Y-34925000D01*
X103505000Y-34925000D01*
X103505000Y-39260000D01*
X101075496Y-39260000D01*
X101008457Y-39240315D01*
X100962702Y-39187511D01*
X100952758Y-39118353D01*
X100981043Y-39055659D01*
X101015450Y-39015208D01*
X101096784Y-38919589D01*
X101224205Y-38708809D01*
X101316165Y-38480317D01*
X101370281Y-38240034D01*
X101380500Y-38095295D01*
X101380499Y-35904706D01*
X101370281Y-35759966D01*
X101316165Y-35519683D01*
X101224205Y-35291191D01*
X101096784Y-35080411D01*
X101030930Y-35002990D01*
X100937201Y-34892798D01*
X100807654Y-34782606D01*
X100749589Y-34733216D01*
X100538809Y-34605795D01*
X100310318Y-34513835D01*
X100070036Y-34459719D01*
X100070029Y-34459718D01*
X99925296Y-34449500D01*
X97734707Y-34449500D01*
X97734701Y-34449501D01*
X97589972Y-34459718D01*
X97589966Y-34459718D01*
X97589966Y-34459719D01*
X97589963Y-34459719D01*
X97589961Y-34459720D01*
X97349685Y-34513834D01*
X97349680Y-34513835D01*
X97121190Y-34605795D01*
X97121185Y-34605798D01*
X96910417Y-34733212D01*
X96910407Y-34733219D01*
X96722798Y-34892798D01*
X96563219Y-35080407D01*
X96563212Y-35080417D01*
X96435798Y-35291185D01*
X96435795Y-35291190D01*
X96343835Y-35519680D01*
X96343835Y-35519682D01*
X96289719Y-35759963D01*
X96289718Y-35759970D01*
X96279500Y-35904702D01*
X96279500Y-38095292D01*
X96279501Y-38095298D01*
X96289718Y-38240027D01*
X96289718Y-38240031D01*
X96289719Y-38240034D01*
X96289720Y-38240038D01*
X96342357Y-38473756D01*
X96337883Y-38543482D01*
X96296422Y-38599721D01*
X96231138Y-38624616D01*
X96221387Y-38625000D01*
X88096291Y-38625000D01*
X88057972Y-38618931D01*
X87931243Y-38577754D01*
X87869703Y-38568007D01*
X87721287Y-38544500D01*
X87508713Y-38544500D01*
X87416842Y-38559051D01*
X87298756Y-38577754D01*
X87172028Y-38618931D01*
X87133709Y-38625000D01*
X63966291Y-38625000D01*
X63927972Y-38618931D01*
X63801243Y-38577754D01*
X63739703Y-38568007D01*
X63591287Y-38544500D01*
X63378713Y-38544500D01*
X63286842Y-38559051D01*
X63168756Y-38577754D01*
X63042028Y-38618931D01*
X63003709Y-38625000D01*
X40471291Y-38625000D01*
X40432972Y-38618931D01*
X40306243Y-38577754D01*
X40244703Y-38568007D01*
X40096287Y-38544500D01*
X39883713Y-38544500D01*
X39800476Y-38557683D01*
X39735292Y-38568007D01*
X39665998Y-38559051D01*
X39628214Y-38533214D01*
X38756319Y-37661319D01*
X38722834Y-37599996D01*
X38720000Y-37573638D01*
X38720000Y-29952135D01*
X94729500Y-29952135D01*
X94729500Y-32047870D01*
X94729501Y-32047876D01*
X94735908Y-32107483D01*
X94786202Y-32242328D01*
X94786206Y-32242335D01*
X94872452Y-32357544D01*
X94872455Y-32357547D01*
X94987664Y-32443793D01*
X94987671Y-32443797D01*
X95122517Y-32494091D01*
X95122516Y-32494091D01*
X95129444Y-32494835D01*
X95182127Y-32500500D01*
X96177872Y-32500499D01*
X96237483Y-32494091D01*
X96372331Y-32443796D01*
X96487546Y-32357546D01*
X96573796Y-32242331D01*
X96624091Y-32107483D01*
X96630500Y-32047873D01*
X96630499Y-29952128D01*
X96624091Y-29892517D01*
X96573796Y-29757669D01*
X96573795Y-29757668D01*
X96573793Y-29757664D01*
X96487547Y-29642455D01*
X96487544Y-29642452D01*
X96372335Y-29556206D01*
X96372328Y-29556202D01*
X96237482Y-29505908D01*
X96237483Y-29505908D01*
X96177883Y-29499501D01*
X96177881Y-29499500D01*
X96177873Y-29499500D01*
X96177864Y-29499500D01*
X95182129Y-29499500D01*
X95182123Y-29499501D01*
X95122516Y-29505908D01*
X94987671Y-29556202D01*
X94987664Y-29556206D01*
X94872455Y-29642452D01*
X94872452Y-29642455D01*
X94786206Y-29757664D01*
X94786202Y-29757671D01*
X94735908Y-29892517D01*
X94729501Y-29952116D01*
X94729501Y-29952123D01*
X94729500Y-29952135D01*
X38720000Y-29952135D01*
X38720000Y-24436362D01*
X38739685Y-24369323D01*
X38756319Y-24348681D01*
X39683681Y-23421319D01*
X39745004Y-23387834D01*
X39771362Y-23385000D01*
X107518638Y-23385000D01*
X107585677Y-23404685D01*
G37*
%TD.AperFunction*%
%TD*%
%TA.AperFunction,Conductor*%
%TO.N,Net-(J3-Pin_5)*%
G36*
X91660740Y-43710021D02*
G01*
X91685984Y-43717434D01*
X91738730Y-43748730D01*
X92646074Y-44656074D01*
X92667223Y-44684325D01*
X92679831Y-44707414D01*
X92695000Y-44766843D01*
X92695000Y-68470000D01*
X104960808Y-68470000D01*
X104995740Y-68475021D01*
X105020984Y-68482434D01*
X105073730Y-68513730D01*
X105981073Y-69421073D01*
X106002223Y-69449325D01*
X106014831Y-69472414D01*
X106030000Y-69531843D01*
X106030000Y-76290808D01*
X106029999Y-76290810D01*
X106030000Y-76290811D01*
X106024976Y-76325745D01*
X106017564Y-76350986D01*
X105986269Y-76403730D01*
X105078926Y-77311073D01*
X105050675Y-77332222D01*
X105027587Y-77344830D01*
X104968157Y-77360000D01*
X99527305Y-77360000D01*
X99527302Y-77359999D01*
X99527301Y-77360000D01*
X99492366Y-77354976D01*
X99479048Y-77351065D01*
X99420271Y-77313289D01*
X99391250Y-77249740D01*
X99390591Y-77245159D01*
X99400429Y-77176235D01*
X99473637Y-77015062D01*
X99474413Y-77013435D01*
X99474571Y-77013007D01*
X99474571Y-77013005D01*
X99474573Y-77013002D01*
X99474574Y-77013000D01*
X99530013Y-76792983D01*
X99540500Y-76659736D01*
X99540500Y-74250264D01*
X99530013Y-74117017D01*
X99474574Y-73897000D01*
X99474571Y-73896994D01*
X99380741Y-73690420D01*
X99380740Y-73690418D01*
X99380736Y-73690410D01*
X99251526Y-73503909D01*
X99251525Y-73503908D01*
X99251523Y-73503905D01*
X99091093Y-73343475D01*
X98904591Y-73214264D01*
X98904575Y-73214256D01*
X98698000Y-73120425D01*
X98697997Y-73120424D01*
X98551324Y-73083465D01*
X98551324Y-73083466D01*
X98477984Y-73064987D01*
X98461327Y-73063676D01*
X98444671Y-73062365D01*
X98444670Y-73062364D01*
X98344744Y-73054500D01*
X98344739Y-73054500D01*
X98344736Y-73054500D01*
X95935264Y-73054500D01*
X95935260Y-73054500D01*
X95935256Y-73054500D01*
X95802017Y-73064987D01*
X95581994Y-73120426D01*
X95375423Y-73214256D01*
X95375407Y-73214264D01*
X95188905Y-73343475D01*
X95028475Y-73503905D01*
X94899264Y-73690407D01*
X94899256Y-73690423D01*
X94805426Y-73896994D01*
X94749987Y-74117017D01*
X94739500Y-74250260D01*
X94739500Y-76659739D01*
X94749987Y-76792982D01*
X94805426Y-77013002D01*
X94805623Y-77013435D01*
X94876051Y-77168486D01*
X94885925Y-77202371D01*
X94887872Y-77216111D01*
X94877788Y-77285249D01*
X94831939Y-77337951D01*
X94828042Y-77340444D01*
X94761205Y-77360000D01*
X87414192Y-77360000D01*
X87379256Y-77354977D01*
X87354014Y-77347565D01*
X87301269Y-77316269D01*
X86393926Y-76408926D01*
X86393921Y-76408921D01*
X86372774Y-76380670D01*
X86360167Y-76357581D01*
X86345000Y-76298156D01*
X86345000Y-53029191D01*
X86350022Y-52994258D01*
X86357434Y-52969013D01*
X86388728Y-52916271D01*
X87296081Y-52008918D01*
X87324326Y-51987775D01*
X87347418Y-51975167D01*
X87406843Y-51960000D01*
X88885000Y-51960000D01*
X88885000Y-50546045D01*
X88886525Y-50526657D01*
X88889543Y-50507602D01*
X88894080Y-50488703D01*
X88932246Y-50371243D01*
X88965500Y-50161287D01*
X88965500Y-49948713D01*
X88932246Y-49738757D01*
X88894083Y-49621306D01*
X88889541Y-49602384D01*
X88886526Y-49583343D01*
X88885000Y-49563950D01*
X88885000Y-48785000D01*
X88106047Y-48785000D01*
X88086650Y-48783473D01*
X88067612Y-48780457D01*
X88048693Y-48775916D01*
X87931240Y-48737753D01*
X87836411Y-48722734D01*
X87721287Y-48704500D01*
X87721286Y-48704500D01*
X87508709Y-48704500D01*
X87425477Y-48717682D01*
X87425476Y-48717683D01*
X87394335Y-48722615D01*
X87377899Y-48725218D01*
X87342609Y-48725721D01*
X87320521Y-48722866D01*
X87266426Y-48702248D01*
X87262742Y-48699729D01*
X87245051Y-48685051D01*
X86393926Y-47833926D01*
X86393921Y-47833921D01*
X86372774Y-47805670D01*
X86360167Y-47782581D01*
X86345000Y-47723156D01*
X86345000Y-44774190D01*
X86350022Y-44739257D01*
X86352739Y-44730004D01*
X86357434Y-44714012D01*
X86388728Y-44661270D01*
X87240615Y-43809383D01*
X87268861Y-43788239D01*
X87288411Y-43777564D01*
X87344296Y-43762448D01*
X87348774Y-43762320D01*
X87356265Y-43762803D01*
X87356682Y-43762713D01*
X87357062Y-43762854D01*
X87371683Y-43763796D01*
X87508713Y-43785500D01*
X87508714Y-43785500D01*
X87721286Y-43785500D01*
X87721287Y-43785500D01*
X87931243Y-43752246D01*
X88048692Y-43714083D01*
X88067612Y-43709541D01*
X88086654Y-43706525D01*
X88106048Y-43705000D01*
X91625808Y-43705000D01*
X91660740Y-43710021D01*
G37*
%TD.AperFunction*%
%TD*%
%TA.AperFunction,Conductor*%
%TO.N,Net-(J1-Pin_2)*%
G36*
X111140677Y-34944685D02*
G01*
X111161319Y-34961319D01*
X114541117Y-38341117D01*
X114574602Y-38402440D01*
X114569618Y-38472132D01*
X114527746Y-38528065D01*
X114462282Y-38552482D01*
X114434039Y-38551271D01*
X114391287Y-38544500D01*
X114178713Y-38544500D01*
X114135963Y-38551271D01*
X113968760Y-38577753D01*
X113766585Y-38643444D01*
X113577179Y-38739951D01*
X113405213Y-38864890D01*
X113254890Y-39015213D01*
X113129951Y-39187179D01*
X113033444Y-39376585D01*
X112967753Y-39578760D01*
X112934500Y-39788713D01*
X112934500Y-40001286D01*
X112967753Y-40211239D01*
X113033444Y-40413414D01*
X113129951Y-40602820D01*
X113254890Y-40774786D01*
X113405213Y-40925109D01*
X113577179Y-41050048D01*
X113577181Y-41050049D01*
X113577184Y-41050051D01*
X113766588Y-41146557D01*
X113968757Y-41212246D01*
X114178713Y-41245500D01*
X114178714Y-41245500D01*
X114391286Y-41245500D01*
X114391287Y-41245500D01*
X114601243Y-41212246D01*
X114803412Y-41146557D01*
X114992816Y-41050051D01*
X115014789Y-41034086D01*
X115164786Y-40925109D01*
X115164788Y-40925106D01*
X115164792Y-40925104D01*
X115315104Y-40774792D01*
X115345681Y-40732705D01*
X115401010Y-40690040D01*
X115470623Y-40684059D01*
X115532419Y-40716664D01*
X115566777Y-40777503D01*
X115570000Y-40805590D01*
X115570000Y-46866000D01*
X115550315Y-46933039D01*
X115497511Y-46978794D01*
X115446000Y-46990000D01*
X107439000Y-46990000D01*
X107371961Y-46970315D01*
X107326206Y-46917511D01*
X107315000Y-46866000D01*
X107315000Y-43815001D01*
X107315000Y-43815000D01*
X104673034Y-40732706D01*
X103534852Y-39404827D01*
X103506169Y-39341116D01*
X103505000Y-39324129D01*
X103505000Y-39260000D01*
X103505000Y-34925000D01*
X108570000Y-34925000D01*
X111073638Y-34925000D01*
X111140677Y-34944685D01*
G37*
%TD.AperFunction*%
%TD*%
%TA.AperFunction,Conductor*%
%TO.N,Net-(J6-Pin_5)*%
G36*
X68850677Y-43724685D02*
G01*
X68871319Y-43741319D01*
X69798681Y-44668681D01*
X69832166Y-44730004D01*
X69835000Y-44756362D01*
X69835000Y-58792383D01*
X69815315Y-58859422D01*
X69762511Y-58905177D01*
X69730398Y-58914856D01*
X69530465Y-58946522D01*
X69335776Y-59009781D01*
X69153386Y-59102715D01*
X68987786Y-59223028D01*
X68843028Y-59367786D01*
X68722715Y-59533386D01*
X68629781Y-59715776D01*
X68566522Y-59910465D01*
X68534500Y-60112648D01*
X68534500Y-60317351D01*
X68566522Y-60519534D01*
X68629781Y-60714223D01*
X68722715Y-60896613D01*
X68843028Y-61062213D01*
X68987786Y-61206971D01*
X69111952Y-61297181D01*
X69153390Y-61327287D01*
X69244840Y-61373883D01*
X69246080Y-61374515D01*
X69296876Y-61422490D01*
X69313671Y-61490311D01*
X69291134Y-61556446D01*
X69246080Y-61595485D01*
X69153386Y-61642715D01*
X68987786Y-61763028D01*
X68843028Y-61907786D01*
X68722715Y-62073386D01*
X68629781Y-62255776D01*
X68566522Y-62450465D01*
X68534500Y-62652648D01*
X68534500Y-62857351D01*
X68566522Y-63059534D01*
X68629781Y-63254223D01*
X68693691Y-63379653D01*
X68710108Y-63411872D01*
X68722715Y-63436613D01*
X68843028Y-63602213D01*
X68987786Y-63746971D01*
X69140733Y-63858091D01*
X69153390Y-63867287D01*
X69269607Y-63926503D01*
X69335776Y-63960218D01*
X69335778Y-63960218D01*
X69335781Y-63960220D01*
X69530466Y-64023477D01*
X69730399Y-64055143D01*
X69793533Y-64085072D01*
X69830464Y-64144384D01*
X69835000Y-64177616D01*
X69835000Y-68470000D01*
X74498638Y-68470000D01*
X74565677Y-68489685D01*
X74586319Y-68506319D01*
X75513681Y-69433681D01*
X75547166Y-69495004D01*
X75550000Y-69521362D01*
X75550000Y-76308638D01*
X75530315Y-76375677D01*
X75513681Y-76396319D01*
X74586319Y-77323681D01*
X74524996Y-77357166D01*
X74498638Y-77360000D01*
X69664475Y-77360000D01*
X69597436Y-77340315D01*
X69551681Y-77287511D01*
X69541737Y-77218353D01*
X69551576Y-77184719D01*
X69629573Y-77013002D01*
X69629574Y-77013000D01*
X69685013Y-76792983D01*
X69695500Y-76659736D01*
X69695500Y-74250264D01*
X69685013Y-74117017D01*
X69629574Y-73897000D01*
X69535740Y-73690418D01*
X69535736Y-73690410D01*
X69406526Y-73503909D01*
X69246090Y-73343473D01*
X69059589Y-73214263D01*
X69059579Y-73214258D01*
X68853002Y-73120426D01*
X68706322Y-73083466D01*
X68632983Y-73064987D01*
X68599671Y-73062365D01*
X68499739Y-73054500D01*
X68499736Y-73054500D01*
X66090264Y-73054500D01*
X66090260Y-73054500D01*
X65957017Y-73064987D01*
X65736997Y-73120426D01*
X65530420Y-73214258D01*
X65530410Y-73214263D01*
X65343909Y-73343473D01*
X65183473Y-73503909D01*
X65054263Y-73690410D01*
X65054258Y-73690420D01*
X64960426Y-73896997D01*
X64904987Y-74117017D01*
X64894500Y-74250260D01*
X64894500Y-76659739D01*
X64904987Y-76792982D01*
X64960426Y-77013002D01*
X65038424Y-77184719D01*
X65048227Y-77253898D01*
X65019072Y-77317394D01*
X64960217Y-77355048D01*
X64925525Y-77360000D01*
X61361362Y-77360000D01*
X61294323Y-77340315D01*
X61273681Y-77323681D01*
X60346319Y-76396319D01*
X60312834Y-76334996D01*
X60310000Y-76308638D01*
X60310000Y-53011362D01*
X60329685Y-52944323D01*
X60346319Y-52923681D01*
X61273681Y-51996319D01*
X61335004Y-51962834D01*
X61361362Y-51960000D01*
X64755000Y-51960000D01*
X64755000Y-50536289D01*
X64761069Y-50497971D01*
X64802246Y-50371243D01*
X64835500Y-50161287D01*
X64835500Y-49948713D01*
X64802246Y-49738757D01*
X64761068Y-49612027D01*
X64755000Y-49573709D01*
X64755000Y-48785000D01*
X63966291Y-48785000D01*
X63927972Y-48778931D01*
X63801243Y-48737754D01*
X63739703Y-48728007D01*
X63591287Y-48704500D01*
X63378713Y-48704500D01*
X63295476Y-48717683D01*
X63230292Y-48728007D01*
X63160998Y-48719051D01*
X63123214Y-48693214D01*
X62251319Y-47821319D01*
X62217834Y-47759996D01*
X62215000Y-47733638D01*
X62215000Y-44756361D01*
X62234685Y-44689322D01*
X62251314Y-44668685D01*
X63123218Y-43796781D01*
X63184537Y-43763299D01*
X63230290Y-43761992D01*
X63378713Y-43785500D01*
X63378714Y-43785500D01*
X63591286Y-43785500D01*
X63591287Y-43785500D01*
X63801243Y-43752246D01*
X63927972Y-43711068D01*
X63966291Y-43705000D01*
X68783638Y-43705000D01*
X68850677Y-43724685D01*
G37*
%TD.AperFunction*%
%TD*%
%TA.AperFunction,Conductor*%
%TO.N,Net-(J10-Pin_2)*%
G36*
X44720677Y-43724685D02*
G01*
X44741319Y-43741319D01*
X45668681Y-44668681D01*
X45702166Y-44730004D01*
X45705000Y-44756362D01*
X45705000Y-58792383D01*
X45685315Y-58859422D01*
X45632511Y-58905177D01*
X45600398Y-58914856D01*
X45400465Y-58946522D01*
X45205776Y-59009781D01*
X45023386Y-59102715D01*
X44857786Y-59223028D01*
X44713028Y-59367786D01*
X44592715Y-59533386D01*
X44499781Y-59715776D01*
X44436522Y-59910465D01*
X44404500Y-60112648D01*
X44404500Y-60317351D01*
X44436522Y-60519534D01*
X44499781Y-60714223D01*
X44592715Y-60896613D01*
X44713028Y-61062213D01*
X44857786Y-61206971D01*
X45012749Y-61319556D01*
X45023390Y-61327287D01*
X45114840Y-61373883D01*
X45116080Y-61374515D01*
X45166876Y-61422490D01*
X45183671Y-61490311D01*
X45161134Y-61556446D01*
X45116080Y-61595485D01*
X45023386Y-61642715D01*
X44857786Y-61763028D01*
X44713028Y-61907786D01*
X44592715Y-62073386D01*
X44499781Y-62255776D01*
X44436522Y-62450465D01*
X44404500Y-62652648D01*
X44404500Y-62857351D01*
X44436522Y-63059534D01*
X44499781Y-63254223D01*
X44592715Y-63436613D01*
X44713028Y-63602213D01*
X44857786Y-63746971D01*
X45012749Y-63859556D01*
X45023390Y-63867287D01*
X45139607Y-63926503D01*
X45205776Y-63960218D01*
X45205778Y-63960218D01*
X45205781Y-63960220D01*
X45400466Y-64023477D01*
X45600399Y-64055143D01*
X45663533Y-64085072D01*
X45700464Y-64144384D01*
X45705000Y-64177616D01*
X45705000Y-76308638D01*
X45685315Y-76375677D01*
X45668681Y-76396319D01*
X44741319Y-77323681D01*
X44679996Y-77357166D01*
X44653638Y-77360000D01*
X39819475Y-77360000D01*
X39752436Y-77340315D01*
X39706681Y-77287511D01*
X39696737Y-77218353D01*
X39706576Y-77184719D01*
X39784573Y-77013002D01*
X39784574Y-77013000D01*
X39840013Y-76792983D01*
X39850500Y-76659736D01*
X39850500Y-74250264D01*
X39840013Y-74117017D01*
X39784574Y-73897000D01*
X39690740Y-73690418D01*
X39690736Y-73690410D01*
X39561526Y-73503909D01*
X39401090Y-73343473D01*
X39214589Y-73214263D01*
X39214579Y-73214258D01*
X39008002Y-73120426D01*
X38861322Y-73083466D01*
X38787983Y-73064987D01*
X38754671Y-73062365D01*
X38654739Y-73054500D01*
X38654736Y-73054500D01*
X36245264Y-73054500D01*
X36245260Y-73054500D01*
X36112017Y-73064987D01*
X35891997Y-73120426D01*
X35685420Y-73214258D01*
X35685410Y-73214263D01*
X35498909Y-73343473D01*
X35338473Y-73503909D01*
X35209263Y-73690410D01*
X35209258Y-73690420D01*
X35115426Y-73896997D01*
X35059987Y-74117017D01*
X35049500Y-74250260D01*
X35049500Y-76659739D01*
X35059987Y-76792982D01*
X35115426Y-77013002D01*
X35193424Y-77184719D01*
X35203227Y-77253898D01*
X35174072Y-77317394D01*
X35115217Y-77355048D01*
X35080525Y-77360000D01*
X31516362Y-77360000D01*
X31449323Y-77340315D01*
X31428681Y-77323681D01*
X30501319Y-76396319D01*
X30467834Y-76334996D01*
X30465000Y-76308638D01*
X30465000Y-53011362D01*
X30484685Y-52944323D01*
X30501319Y-52923681D01*
X31428681Y-51996319D01*
X31490004Y-51962834D01*
X31516362Y-51960000D01*
X41260000Y-51960000D01*
X41260000Y-50536289D01*
X41266069Y-50497971D01*
X41307246Y-50371243D01*
X41340500Y-50161287D01*
X41340500Y-49948713D01*
X41307246Y-49738757D01*
X41266068Y-49612027D01*
X41260000Y-49573709D01*
X41260000Y-48785000D01*
X40471291Y-48785000D01*
X40432972Y-48778931D01*
X40306243Y-48737754D01*
X40244703Y-48728007D01*
X40096287Y-48704500D01*
X39883713Y-48704500D01*
X39800476Y-48717683D01*
X39735292Y-48728007D01*
X39665998Y-48719051D01*
X39628214Y-48693214D01*
X38756319Y-47821319D01*
X38722834Y-47759996D01*
X38720000Y-47733638D01*
X38720000Y-44756361D01*
X38739685Y-44689322D01*
X38756314Y-44668685D01*
X39628218Y-43796781D01*
X39689537Y-43763299D01*
X39735290Y-43761992D01*
X39883713Y-43785500D01*
X39883714Y-43785500D01*
X40096286Y-43785500D01*
X40096287Y-43785500D01*
X40306243Y-43752246D01*
X40432972Y-43711068D01*
X40471291Y-43705000D01*
X44653638Y-43705000D01*
X44720677Y-43724685D01*
G37*
%TD.AperFunction*%
%TD*%
M02*
