%TF.GenerationSoftware,KiCad,Pcbnew,10.0.3-10.0.3~ubuntu26.04.1*%
%TF.CreationDate,2026-06-22T17:47:50+09:00*%
%TF.ProjectId,PowerUnit_Motor,506f7765-7255-46e6-9974-5f4d6f746f72,rev?*%
%TF.SameCoordinates,Original*%
%TF.FileFunction,Copper,L1,Top*%
%TF.FilePolarity,Positive*%
%FSLAX46Y46*%
G04 Gerber Fmt 4.6, Leading zero omitted, Abs format (unit mm)*
G04 Created by KiCad (PCBNEW 10.0.3-10.0.3~ubuntu26.04.1) date 2026-06-22 17:47:50*
%MOMM*%
%LPD*%
G01*
G04 APERTURE LIST*
G04 Aperture macros list*
%AMRoundRect*
0 Rectangle with rounded corners*
0 $1 Rounding radius*
0 $2 $3 $4 $5 $6 $7 $8 $9 X,Y pos of 4 corners*
0 Add a 4 corners polygon primitive as box body*
4,1,4,$2,$3,$4,$5,$6,$7,$8,$9,$2,$3,0*
0 Add four circle primitives for the rounded corners*
1,1,$1+$1,$2,$3*
1,1,$1+$1,$4,$5*
1,1,$1+$1,$6,$7*
1,1,$1+$1,$8,$9*
0 Add four rect primitives between the rounded corners*
20,1,$1+$1,$2,$3,$4,$5,0*
20,1,$1+$1,$4,$5,$6,$7,0*
20,1,$1+$1,$6,$7,$8,$9,0*
20,1,$1+$1,$8,$9,$2,$3,0*%
G04 Aperture macros list end*
%TA.AperFunction,ComponentPad*%
%ADD10R,0.900000X2.000000*%
%TD*%
%TA.AperFunction,ComponentPad*%
%ADD11RoundRect,1.025000X-1.025000X-1.025000X1.025000X-1.025000X1.025000X1.025000X-1.025000X1.025000X0*%
%TD*%
%TA.AperFunction,ComponentPad*%
%ADD12C,4.100000*%
%TD*%
%TA.AperFunction,ComponentPad*%
%ADD13R,2.000000X0.900000*%
%TD*%
%TA.AperFunction,ComponentPad*%
%ADD14RoundRect,1.025000X1.025000X-1.025000X1.025000X1.025000X-1.025000X1.025000X-1.025000X-1.025000X0*%
%TD*%
%TA.AperFunction,ComponentPad*%
%ADD15RoundRect,1.025000X1.025000X1.025000X-1.025000X1.025000X-1.025000X-1.025000X1.025000X-1.025000X0*%
%TD*%
%TA.AperFunction,ComponentPad*%
%ADD16RoundRect,1.500000X1.500000X1.500000X-1.500000X1.500000X-1.500000X-1.500000X1.500000X-1.500000X0*%
%TD*%
%TA.AperFunction,ComponentPad*%
%ADD17C,6.000000*%
%TD*%
%TA.AperFunction,ComponentPad*%
%ADD18RoundRect,0.250001X0.949999X0.949999X-0.949999X0.949999X-0.949999X-0.949999X0.949999X-0.949999X0*%
%TD*%
%TA.AperFunction,ComponentPad*%
%ADD19C,2.400000*%
%TD*%
%TA.AperFunction,ComponentPad*%
%ADD20C,1.600000*%
%TD*%
%TA.AperFunction,ComponentPad*%
%ADD21R,1.800000X1.800000*%
%TD*%
%TA.AperFunction,ComponentPad*%
%ADD22C,1.800000*%
%TD*%
%TA.AperFunction,ComponentPad*%
%ADD23RoundRect,0.250001X-0.949999X-0.949999X0.949999X-0.949999X0.949999X0.949999X-0.949999X0.949999X0*%
%TD*%
%TA.AperFunction,ViaPad*%
%ADD24C,0.900000*%
%TD*%
G04 APERTURE END LIST*
D10*
%TO.P,J1,*%
%TO.N,*%
X101410000Y-40990000D03*
X114910000Y-40990000D03*
D11*
%TO.P,J1,1,Pin_1_1*%
%TO.N,GNDPWR*%
X104560000Y-46990000D03*
D12*
%TO.P,J1,2,Pin_2_2*%
%TO.N,+24V_DRV*%
X111760000Y-46990000D03*
%TD*%
D10*
%TO.P,J9,*%
%TO.N,*%
X77495000Y-32000000D03*
X90995000Y-32000000D03*
D11*
%TO.P,J9,1,Pin_1_1*%
%TO.N,GNDPWR*%
X87845000Y-38000000D03*
D12*
%TO.P,J9,2,Pin_2_2*%
%TO.N,+24V_DRV*%
X80645000Y-38000000D03*
%TD*%
D13*
%TO.P,J6,*%
%TO.N,*%
X32000000Y-73635000D03*
X32000000Y-60135000D03*
D14*
%TO.P,J6,1,Pin_1_1*%
%TO.N,GNDPWR*%
X38000000Y-63285000D03*
D12*
%TO.P,J6,2,Pin_2_2*%
%TO.N,+24V_DRV*%
X38000000Y-70485000D03*
%TD*%
D10*
%TO.P,J3,*%
%TO.N,*%
X97341667Y-85375000D03*
X83841667Y-85375000D03*
D15*
%TO.P,J3,1,Pin_1_1*%
%TO.N,GNDPWR*%
X86991667Y-79375000D03*
D12*
%TO.P,J3,2,Pin_2_2*%
%TO.N,+24V_DRV*%
X94191667Y-79375000D03*
%TD*%
D10*
%TO.P,J5,*%
%TO.N,*%
X54585000Y-85375000D03*
X41085000Y-85375000D03*
D15*
%TO.P,J5,1,Pin_1_1*%
%TO.N,GNDPWR*%
X44235000Y-79375000D03*
D12*
%TO.P,J5,2,Pin_2_2*%
%TO.N,+24V_DRV*%
X51435000Y-79375000D03*
%TD*%
D16*
%TO.P,J11,1,Pin_1_1*%
%TO.N,GNDPWR*%
X68795000Y-55880000D03*
D17*
%TO.P,J11,2,Pin_2_2*%
%TO.N,+24V_DRV*%
X61595000Y-55880000D03*
%TD*%
D16*
%TO.P,J10,1,Pin_1_1*%
%TO.N,GNDPWR*%
X87845000Y-55880000D03*
D17*
%TO.P,J10,2,Pin_2_2*%
%TO.N,+24V_DRV*%
X80645000Y-55880000D03*
%TD*%
D18*
%TO.P,C4,1*%
%TO.N,+24V_DRV*%
X107315000Y-59055000D03*
D19*
%TO.P,C4,2*%
%TO.N,GNDPWR*%
X99815000Y-59055000D03*
%TD*%
D20*
%TO.P,R1,1*%
%TO.N,+24V_DRV*%
X128270000Y-40005000D03*
%TO.P,R1,2*%
%TO.N,Net-(D1-A)*%
X128270000Y-42545000D03*
%TD*%
D10*
%TO.P,J4,*%
%TO.N,*%
X75963333Y-85375000D03*
X62463333Y-85375000D03*
D15*
%TO.P,J4,1,Pin_1_1*%
%TO.N,GNDPWR*%
X65613333Y-79375000D03*
D12*
%TO.P,J4,2,Pin_2_2*%
%TO.N,+24V_DRV*%
X72813333Y-79375000D03*
%TD*%
D10*
%TO.P,J2,*%
%TO.N,*%
X118720000Y-85375000D03*
X105220000Y-85375000D03*
D15*
%TO.P,J2,1,Pin_1_1*%
%TO.N,GNDPWR*%
X108370000Y-79375000D03*
D12*
%TO.P,J2,2,Pin_2_2*%
%TO.N,+24V_DRV*%
X115570000Y-79375000D03*
%TD*%
D13*
%TO.P,J7,*%
%TO.N,*%
X32000000Y-54585000D03*
X32000000Y-41085000D03*
D14*
%TO.P,J7,1,Pin_1_1*%
%TO.N,GNDPWR*%
X38000000Y-44235000D03*
D12*
%TO.P,J7,2,Pin_2_2*%
%TO.N,+24V_DRV*%
X38000000Y-51435000D03*
%TD*%
D10*
%TO.P,J8,*%
%TO.N,*%
X58445000Y-32000000D03*
X71945000Y-32000000D03*
D11*
%TO.P,J8,1,Pin_1_1*%
%TO.N,GNDPWR*%
X68795000Y-38000000D03*
D12*
%TO.P,J8,2,Pin_2_2*%
%TO.N,+24V_DRV*%
X61595000Y-38000000D03*
%TD*%
D21*
%TO.P,D1,1,K_1*%
%TO.N,GNDPWR*%
X126365000Y-48895000D03*
D22*
%TO.P,D1,2,A_2*%
%TO.N,Net-(D1-A)*%
X126365000Y-46355000D03*
%TD*%
D23*
%TO.P,C3,1*%
%TO.N,+24V_DRV*%
X116960000Y-59055000D03*
D19*
%TO.P,C3,2*%
%TO.N,GNDPWR*%
X124460000Y-59055000D03*
%TD*%
D24*
%TO.N,GNDPWR*%
X100000000Y-85000000D03*
X55000000Y-35000000D03*
X34000000Y-60000000D03*
X60000000Y-85000000D03*
X90000000Y-45000000D03*
X34000000Y-40000000D03*
X125000000Y-55000000D03*
X45000000Y-85000000D03*
X115000000Y-85000000D03*
X40000000Y-35000000D03*
X110000000Y-35000000D03*
X50000000Y-35000000D03*
X34000000Y-45000000D03*
X120000000Y-40000000D03*
X90000000Y-35000000D03*
X95000000Y-40000000D03*
X80000000Y-35000000D03*
X45000000Y-35000000D03*
X45000000Y-40000000D03*
X45000000Y-45000000D03*
X95000000Y-50000000D03*
X60000000Y-35000000D03*
X70000000Y-45000000D03*
X105000000Y-35000000D03*
X55000000Y-45000000D03*
X120000000Y-35000000D03*
X40000000Y-40000000D03*
X50000000Y-40000000D03*
X90000000Y-50000000D03*
X90000000Y-85000000D03*
X50000000Y-45000000D03*
X95000000Y-85000000D03*
X55000000Y-40000000D03*
X100000000Y-35000000D03*
X95000000Y-35000000D03*
X110000000Y-40000000D03*
X80000000Y-85000000D03*
X105000000Y-40000000D03*
X85000000Y-35000000D03*
X95000000Y-55000000D03*
X34000000Y-65000000D03*
X34000000Y-75000000D03*
X95000000Y-45000000D03*
X110000000Y-85000000D03*
X125000000Y-75000000D03*
X100000000Y-50000000D03*
X100000000Y-45000000D03*
X115000000Y-35000000D03*
X70000000Y-85000000D03*
X75000000Y-35000000D03*
X50000000Y-85000000D03*
X34000000Y-70000000D03*
X65000000Y-35000000D03*
X70000000Y-35000000D03*
X70000000Y-50000000D03*
X65000000Y-85000000D03*
X34000000Y-50000000D03*
X34000000Y-55000000D03*
X125000000Y-70000000D03*
%TD*%
%TA.AperFunction,Conductor*%
%TO.N,GNDPWR*%
G36*
X57563038Y-30520185D02*
G01*
X57608793Y-30572989D01*
X57618737Y-30642147D01*
X57595265Y-30698810D01*
X57575238Y-30725562D01*
X57551204Y-30757668D01*
X57551202Y-30757671D01*
X57500908Y-30892517D01*
X57494501Y-30952116D01*
X57494501Y-30952123D01*
X57494500Y-30952135D01*
X57494500Y-33047870D01*
X57494501Y-33047876D01*
X57500908Y-33107483D01*
X57551202Y-33242328D01*
X57551206Y-33242335D01*
X57637452Y-33357544D01*
X57637455Y-33357547D01*
X57752664Y-33443793D01*
X57752671Y-33443797D01*
X57887517Y-33494091D01*
X57887516Y-33494091D01*
X57894444Y-33494835D01*
X57947127Y-33500500D01*
X58942872Y-33500499D01*
X59002483Y-33494091D01*
X59137331Y-33443796D01*
X59252546Y-33357546D01*
X59338796Y-33242331D01*
X59389091Y-33107483D01*
X59395500Y-33047873D01*
X59395499Y-30952128D01*
X59389091Y-30892517D01*
X59339598Y-30759820D01*
X59338797Y-30757671D01*
X59338795Y-30757668D01*
X59338661Y-30757489D01*
X59294734Y-30698810D01*
X59270317Y-30633348D01*
X59285168Y-30565075D01*
X59334573Y-30515669D01*
X59394001Y-30500500D01*
X70995999Y-30500500D01*
X71063038Y-30520185D01*
X71108793Y-30572989D01*
X71118737Y-30642147D01*
X71095265Y-30698810D01*
X71075238Y-30725562D01*
X71051204Y-30757668D01*
X71051202Y-30757671D01*
X71000908Y-30892517D01*
X70994501Y-30952116D01*
X70994501Y-30952123D01*
X70994500Y-30952135D01*
X70994500Y-33047870D01*
X70994501Y-33047876D01*
X71000908Y-33107483D01*
X71051202Y-33242328D01*
X71051206Y-33242335D01*
X71137452Y-33357544D01*
X71137455Y-33357547D01*
X71252664Y-33443793D01*
X71252671Y-33443797D01*
X71387517Y-33494091D01*
X71387516Y-33494091D01*
X71394444Y-33494835D01*
X71447127Y-33500500D01*
X72442872Y-33500499D01*
X72502483Y-33494091D01*
X72637331Y-33443796D01*
X72752546Y-33357546D01*
X72838796Y-33242331D01*
X72889091Y-33107483D01*
X72895500Y-33047873D01*
X72895499Y-30952128D01*
X72889091Y-30892517D01*
X72839598Y-30759820D01*
X72838797Y-30757671D01*
X72838795Y-30757668D01*
X72838661Y-30757489D01*
X72794734Y-30698810D01*
X72770317Y-30633348D01*
X72785168Y-30565075D01*
X72834573Y-30515669D01*
X72894001Y-30500500D01*
X76545999Y-30500500D01*
X76613038Y-30520185D01*
X76658793Y-30572989D01*
X76668737Y-30642147D01*
X76645265Y-30698810D01*
X76625238Y-30725562D01*
X76601204Y-30757668D01*
X76601202Y-30757671D01*
X76550908Y-30892517D01*
X76544501Y-30952116D01*
X76544501Y-30952123D01*
X76544500Y-30952135D01*
X76544500Y-33047870D01*
X76544501Y-33047876D01*
X76550908Y-33107483D01*
X76601202Y-33242328D01*
X76601206Y-33242335D01*
X76687452Y-33357544D01*
X76687455Y-33357547D01*
X76802664Y-33443793D01*
X76802671Y-33443797D01*
X76937517Y-33494091D01*
X76937516Y-33494091D01*
X76944444Y-33494835D01*
X76997127Y-33500500D01*
X77992872Y-33500499D01*
X78052483Y-33494091D01*
X78187331Y-33443796D01*
X78302546Y-33357546D01*
X78388796Y-33242331D01*
X78439091Y-33107483D01*
X78445500Y-33047873D01*
X78445499Y-30952128D01*
X78439091Y-30892517D01*
X78389598Y-30759820D01*
X78388797Y-30757671D01*
X78388795Y-30757668D01*
X78388661Y-30757489D01*
X78344734Y-30698810D01*
X78320317Y-30633348D01*
X78335168Y-30565075D01*
X78384573Y-30515669D01*
X78444001Y-30500500D01*
X90045999Y-30500500D01*
X90113038Y-30520185D01*
X90158793Y-30572989D01*
X90168737Y-30642147D01*
X90145265Y-30698810D01*
X90125238Y-30725562D01*
X90101204Y-30757668D01*
X90101202Y-30757671D01*
X90050908Y-30892517D01*
X90044501Y-30952116D01*
X90044501Y-30952123D01*
X90044500Y-30952135D01*
X90044500Y-33047870D01*
X90044501Y-33047876D01*
X90050908Y-33107483D01*
X90101202Y-33242328D01*
X90101206Y-33242335D01*
X90187452Y-33357544D01*
X90187455Y-33357547D01*
X90302664Y-33443793D01*
X90302671Y-33443797D01*
X90437517Y-33494091D01*
X90437516Y-33494091D01*
X90444444Y-33494835D01*
X90497127Y-33500500D01*
X91492872Y-33500499D01*
X91552483Y-33494091D01*
X91687331Y-33443796D01*
X91802546Y-33357546D01*
X91888796Y-33242331D01*
X91939091Y-33107483D01*
X91945500Y-33047873D01*
X91945499Y-30952128D01*
X91939091Y-30892517D01*
X91889598Y-30759820D01*
X91888797Y-30757671D01*
X91888795Y-30757668D01*
X91888661Y-30757489D01*
X91844734Y-30698810D01*
X91820317Y-30633348D01*
X91835168Y-30565075D01*
X91884573Y-30515669D01*
X91944001Y-30500500D01*
X126434108Y-30500500D01*
X126496755Y-30500500D01*
X126503243Y-30500669D01*
X126807061Y-30516591D01*
X126819937Y-30517945D01*
X127117212Y-30565029D01*
X127129896Y-30567724D01*
X127420626Y-30645625D01*
X127432967Y-30649636D01*
X127713935Y-30757489D01*
X127725790Y-30762767D01*
X127993976Y-30899415D01*
X128005192Y-30905891D01*
X128257619Y-31069818D01*
X128268100Y-31077433D01*
X128464849Y-31236757D01*
X128502011Y-31266850D01*
X128511656Y-31275535D01*
X128724464Y-31488343D01*
X128733149Y-31497988D01*
X128922564Y-31731896D01*
X128930183Y-31742384D01*
X129094105Y-31994801D01*
X129100591Y-32006035D01*
X129237231Y-32274206D01*
X129242510Y-32286064D01*
X129350363Y-32567032D01*
X129354374Y-32579375D01*
X129432273Y-32870097D01*
X129434971Y-32882793D01*
X129482052Y-33180046D01*
X129483409Y-33192955D01*
X129499330Y-33496756D01*
X129499500Y-33503245D01*
X129499500Y-39103085D01*
X129479815Y-39170124D01*
X129427011Y-39215879D01*
X129357853Y-39225823D01*
X129294297Y-39196798D01*
X129275182Y-39175970D01*
X129261971Y-39157787D01*
X129261967Y-39157782D01*
X129117213Y-39013028D01*
X128951613Y-38892715D01*
X128951612Y-38892714D01*
X128951610Y-38892713D01*
X128894653Y-38863691D01*
X128769223Y-38799781D01*
X128574534Y-38736522D01*
X128399995Y-38708878D01*
X128372352Y-38704500D01*
X128167648Y-38704500D01*
X128143329Y-38708351D01*
X127965465Y-38736522D01*
X127770776Y-38799781D01*
X127588386Y-38892715D01*
X127422786Y-39013028D01*
X127278028Y-39157786D01*
X127157715Y-39323386D01*
X127064781Y-39505776D01*
X127001522Y-39700465D01*
X126969500Y-39902648D01*
X126969500Y-40107351D01*
X127001522Y-40309534D01*
X127064781Y-40504223D01*
X127157715Y-40686613D01*
X127278028Y-40852213D01*
X127422786Y-40996971D01*
X127577749Y-41109556D01*
X127588390Y-41117287D01*
X127679840Y-41163883D01*
X127681080Y-41164515D01*
X127731876Y-41212490D01*
X127748671Y-41280311D01*
X127726134Y-41346446D01*
X127681080Y-41385485D01*
X127588386Y-41432715D01*
X127422786Y-41553028D01*
X127278028Y-41697786D01*
X127157715Y-41863386D01*
X127064781Y-42045776D01*
X127001522Y-42240465D01*
X126969500Y-42442648D01*
X126969500Y-42647351D01*
X127001522Y-42849534D01*
X127064781Y-43044223D01*
X127157715Y-43226613D01*
X127278028Y-43392213D01*
X127422786Y-43536971D01*
X127577749Y-43649556D01*
X127588390Y-43657287D01*
X127704607Y-43716503D01*
X127770776Y-43750218D01*
X127770778Y-43750218D01*
X127770781Y-43750220D01*
X127875137Y-43784127D01*
X127965465Y-43813477D01*
X128066557Y-43829488D01*
X128167648Y-43845500D01*
X128167649Y-43845500D01*
X128372351Y-43845500D01*
X128372352Y-43845500D01*
X128574534Y-43813477D01*
X128769219Y-43750220D01*
X128951610Y-43657287D01*
X129044590Y-43589732D01*
X129117213Y-43536971D01*
X129117215Y-43536968D01*
X129117219Y-43536966D01*
X129261966Y-43392219D01*
X129275180Y-43374030D01*
X129330509Y-43331364D01*
X129400122Y-43325383D01*
X129461918Y-43357988D01*
X129496277Y-43418825D01*
X129499500Y-43446914D01*
X129499500Y-83496754D01*
X129499330Y-83503243D01*
X129483409Y-83807044D01*
X129482052Y-83819953D01*
X129434971Y-84117206D01*
X129432273Y-84129902D01*
X129354374Y-84420624D01*
X129350363Y-84432967D01*
X129242510Y-84713935D01*
X129237231Y-84725793D01*
X129100591Y-84993964D01*
X129094101Y-85005204D01*
X128930188Y-85257609D01*
X128922559Y-85268110D01*
X128733149Y-85502011D01*
X128724464Y-85511656D01*
X128511656Y-85724464D01*
X128502011Y-85733149D01*
X128268110Y-85922559D01*
X128257609Y-85930188D01*
X128005204Y-86094101D01*
X127993964Y-86100591D01*
X127725793Y-86237231D01*
X127713935Y-86242510D01*
X127432967Y-86350363D01*
X127420624Y-86354374D01*
X127129902Y-86432273D01*
X127117206Y-86434971D01*
X126819953Y-86482052D01*
X126807044Y-86483409D01*
X126503244Y-86499330D01*
X126496755Y-86499500D01*
X119794500Y-86499500D01*
X119727461Y-86479815D01*
X119681706Y-86427011D01*
X119670500Y-86375500D01*
X119670499Y-84327129D01*
X119670498Y-84327123D01*
X119670497Y-84327116D01*
X119664091Y-84267517D01*
X119647391Y-84222743D01*
X119613797Y-84132671D01*
X119613793Y-84132664D01*
X119527547Y-84017455D01*
X119527544Y-84017452D01*
X119412335Y-83931206D01*
X119412328Y-83931202D01*
X119277482Y-83880908D01*
X119277483Y-83880908D01*
X119217883Y-83874501D01*
X119217881Y-83874500D01*
X119217873Y-83874500D01*
X119217864Y-83874500D01*
X118222129Y-83874500D01*
X118222123Y-83874501D01*
X118162516Y-83880908D01*
X118027671Y-83931202D01*
X118027664Y-83931206D01*
X117912455Y-84017452D01*
X117912452Y-84017455D01*
X117826206Y-84132664D01*
X117826202Y-84132671D01*
X117775908Y-84267517D01*
X117769501Y-84327116D01*
X117769501Y-84327123D01*
X117769500Y-84327135D01*
X117769501Y-86375500D01*
X117749816Y-86442539D01*
X117697013Y-86488294D01*
X117645501Y-86499500D01*
X106294500Y-86499500D01*
X106227461Y-86479815D01*
X106181706Y-86427011D01*
X106170500Y-86375500D01*
X106170499Y-84327129D01*
X106170498Y-84327123D01*
X106170497Y-84327116D01*
X106164091Y-84267517D01*
X106147391Y-84222743D01*
X106113797Y-84132671D01*
X106113793Y-84132664D01*
X106027547Y-84017455D01*
X106027544Y-84017452D01*
X105912335Y-83931206D01*
X105912328Y-83931202D01*
X105777482Y-83880908D01*
X105777483Y-83880908D01*
X105717883Y-83874501D01*
X105717881Y-83874500D01*
X105717873Y-83874500D01*
X105717864Y-83874500D01*
X104722129Y-83874500D01*
X104722123Y-83874501D01*
X104662516Y-83880908D01*
X104527671Y-83931202D01*
X104527664Y-83931206D01*
X104412455Y-84017452D01*
X104412452Y-84017455D01*
X104326206Y-84132664D01*
X104326202Y-84132671D01*
X104275908Y-84267517D01*
X104269501Y-84327116D01*
X104269501Y-84327123D01*
X104269500Y-84327135D01*
X104269501Y-86375500D01*
X104249816Y-86442539D01*
X104197013Y-86488294D01*
X104145501Y-86499500D01*
X98416167Y-86499500D01*
X98349128Y-86479815D01*
X98303373Y-86427011D01*
X98292167Y-86375500D01*
X98292166Y-84327129D01*
X98292165Y-84327123D01*
X98292164Y-84327116D01*
X98285758Y-84267517D01*
X98269058Y-84222743D01*
X98235464Y-84132671D01*
X98235460Y-84132664D01*
X98149214Y-84017455D01*
X98149211Y-84017452D01*
X98034002Y-83931206D01*
X98033995Y-83931202D01*
X97899149Y-83880908D01*
X97899150Y-83880908D01*
X97839550Y-83874501D01*
X97839548Y-83874500D01*
X97839540Y-83874500D01*
X97839531Y-83874500D01*
X96843796Y-83874500D01*
X96843790Y-83874501D01*
X96784183Y-83880908D01*
X96649338Y-83931202D01*
X96649331Y-83931206D01*
X96534122Y-84017452D01*
X96534119Y-84017455D01*
X96447873Y-84132664D01*
X96447869Y-84132671D01*
X96397575Y-84267517D01*
X96391168Y-84327116D01*
X96391168Y-84327123D01*
X96391167Y-84327135D01*
X96391168Y-86375500D01*
X96371483Y-86442539D01*
X96318680Y-86488294D01*
X96267168Y-86499500D01*
X84916167Y-86499500D01*
X84849128Y-86479815D01*
X84803373Y-86427011D01*
X84792167Y-86375500D01*
X84792166Y-84327129D01*
X84792165Y-84327123D01*
X84792164Y-84327116D01*
X84785758Y-84267517D01*
X84769058Y-84222743D01*
X84735464Y-84132671D01*
X84735460Y-84132664D01*
X84649214Y-84017455D01*
X84649211Y-84017452D01*
X84534002Y-83931206D01*
X84533995Y-83931202D01*
X84399149Y-83880908D01*
X84399150Y-83880908D01*
X84339550Y-83874501D01*
X84339548Y-83874500D01*
X84339540Y-83874500D01*
X84339531Y-83874500D01*
X83343796Y-83874500D01*
X83343790Y-83874501D01*
X83284183Y-83880908D01*
X83149338Y-83931202D01*
X83149331Y-83931206D01*
X83034122Y-84017452D01*
X83034119Y-84017455D01*
X82947873Y-84132664D01*
X82947869Y-84132671D01*
X82897575Y-84267517D01*
X82891168Y-84327116D01*
X82891168Y-84327123D01*
X82891167Y-84327135D01*
X82891168Y-86375500D01*
X82871483Y-86442539D01*
X82818680Y-86488294D01*
X82767168Y-86499500D01*
X77037833Y-86499500D01*
X76970794Y-86479815D01*
X76925039Y-86427011D01*
X76913833Y-86375500D01*
X76913832Y-84327129D01*
X76913831Y-84327123D01*
X76913830Y-84327116D01*
X76907424Y-84267517D01*
X76890724Y-84222743D01*
X76857130Y-84132671D01*
X76857126Y-84132664D01*
X76770880Y-84017455D01*
X76770877Y-84017452D01*
X76655668Y-83931206D01*
X76655661Y-83931202D01*
X76520815Y-83880908D01*
X76520816Y-83880908D01*
X76461216Y-83874501D01*
X76461214Y-83874500D01*
X76461206Y-83874500D01*
X76461197Y-83874500D01*
X75465462Y-83874500D01*
X75465456Y-83874501D01*
X75405849Y-83880908D01*
X75271004Y-83931202D01*
X75270997Y-83931206D01*
X75155788Y-84017452D01*
X75155785Y-84017455D01*
X75069539Y-84132664D01*
X75069535Y-84132671D01*
X75019241Y-84267517D01*
X75012834Y-84327116D01*
X75012834Y-84327123D01*
X75012833Y-84327135D01*
X75012834Y-86375500D01*
X74993149Y-86442539D01*
X74940346Y-86488294D01*
X74888834Y-86499500D01*
X63537833Y-86499500D01*
X63470794Y-86479815D01*
X63425039Y-86427011D01*
X63413833Y-86375500D01*
X63413832Y-84327129D01*
X63413831Y-84327123D01*
X63413830Y-84327116D01*
X63407424Y-84267517D01*
X63390724Y-84222743D01*
X63357130Y-84132671D01*
X63357126Y-84132664D01*
X63270880Y-84017455D01*
X63270877Y-84017452D01*
X63155668Y-83931206D01*
X63155661Y-83931202D01*
X63020815Y-83880908D01*
X63020816Y-83880908D01*
X62961216Y-83874501D01*
X62961214Y-83874500D01*
X62961206Y-83874500D01*
X62961197Y-83874500D01*
X61965462Y-83874500D01*
X61965456Y-83874501D01*
X61905849Y-83880908D01*
X61771004Y-83931202D01*
X61770997Y-83931206D01*
X61655788Y-84017452D01*
X61655785Y-84017455D01*
X61569539Y-84132664D01*
X61569535Y-84132671D01*
X61519241Y-84267517D01*
X61512834Y-84327116D01*
X61512834Y-84327123D01*
X61512833Y-84327135D01*
X61512834Y-86375500D01*
X61493149Y-86442539D01*
X61440346Y-86488294D01*
X61388834Y-86499500D01*
X55659500Y-86499500D01*
X55592461Y-86479815D01*
X55546706Y-86427011D01*
X55535500Y-86375500D01*
X55535499Y-84327129D01*
X55535498Y-84327123D01*
X55535497Y-84327116D01*
X55529091Y-84267517D01*
X55512391Y-84222743D01*
X55478797Y-84132671D01*
X55478793Y-84132664D01*
X55392547Y-84017455D01*
X55392544Y-84017452D01*
X55277335Y-83931206D01*
X55277328Y-83931202D01*
X55142482Y-83880908D01*
X55142483Y-83880908D01*
X55082883Y-83874501D01*
X55082881Y-83874500D01*
X55082873Y-83874500D01*
X55082864Y-83874500D01*
X54087129Y-83874500D01*
X54087123Y-83874501D01*
X54027516Y-83880908D01*
X53892671Y-83931202D01*
X53892664Y-83931206D01*
X53777455Y-84017452D01*
X53777452Y-84017455D01*
X53691206Y-84132664D01*
X53691202Y-84132671D01*
X53640908Y-84267517D01*
X53634501Y-84327116D01*
X53634501Y-84327123D01*
X53634500Y-84327135D01*
X53634501Y-86375500D01*
X53614816Y-86442539D01*
X53562013Y-86488294D01*
X53510501Y-86499500D01*
X42159500Y-86499500D01*
X42092461Y-86479815D01*
X42046706Y-86427011D01*
X42035500Y-86375500D01*
X42035499Y-84327129D01*
X42035498Y-84327123D01*
X42035497Y-84327116D01*
X42029091Y-84267517D01*
X42012391Y-84222743D01*
X41978797Y-84132671D01*
X41978793Y-84132664D01*
X41892547Y-84017455D01*
X41892544Y-84017452D01*
X41777335Y-83931206D01*
X41777328Y-83931202D01*
X41642482Y-83880908D01*
X41642483Y-83880908D01*
X41582883Y-83874501D01*
X41582881Y-83874500D01*
X41582873Y-83874500D01*
X41582864Y-83874500D01*
X40587129Y-83874500D01*
X40587123Y-83874501D01*
X40527516Y-83880908D01*
X40392671Y-83931202D01*
X40392664Y-83931206D01*
X40277455Y-84017452D01*
X40277452Y-84017455D01*
X40191206Y-84132664D01*
X40191202Y-84132671D01*
X40140908Y-84267517D01*
X40134501Y-84327116D01*
X40134501Y-84327123D01*
X40134500Y-84327135D01*
X40134501Y-86375500D01*
X40114816Y-86442539D01*
X40062013Y-86488294D01*
X40010501Y-86499500D01*
X33503245Y-86499500D01*
X33496756Y-86499330D01*
X33192955Y-86483409D01*
X33180046Y-86482052D01*
X32882793Y-86434971D01*
X32870097Y-86432273D01*
X32579375Y-86354374D01*
X32567032Y-86350363D01*
X32286064Y-86242510D01*
X32274206Y-86237231D01*
X32143585Y-86170676D01*
X32006029Y-86100587D01*
X31994801Y-86094105D01*
X31742384Y-85930183D01*
X31731896Y-85922564D01*
X31497988Y-85733149D01*
X31488343Y-85724464D01*
X31275535Y-85511656D01*
X31266850Y-85502011D01*
X31223713Y-85448741D01*
X31077433Y-85268100D01*
X31069818Y-85257619D01*
X30905891Y-85005192D01*
X30899415Y-84993976D01*
X30762767Y-84725790D01*
X30757489Y-84713935D01*
X30649636Y-84432967D01*
X30645625Y-84420624D01*
X30644626Y-84416895D01*
X30567724Y-84129896D01*
X30565028Y-84117206D01*
X30554904Y-84053285D01*
X30517945Y-83819937D01*
X30516591Y-83807061D01*
X30500670Y-83503243D01*
X30500500Y-83496754D01*
X30500500Y-82878711D01*
X32149500Y-82878711D01*
X32149500Y-83121288D01*
X32181161Y-83361785D01*
X32243947Y-83596104D01*
X32280750Y-83684954D01*
X32336776Y-83820212D01*
X32458064Y-84030289D01*
X32458066Y-84030292D01*
X32458067Y-84030293D01*
X32605733Y-84222736D01*
X32605739Y-84222743D01*
X32777256Y-84394260D01*
X32777263Y-84394266D01*
X32890321Y-84481018D01*
X32969711Y-84541936D01*
X33179788Y-84663224D01*
X33403900Y-84756054D01*
X33638211Y-84818838D01*
X33818586Y-84842584D01*
X33878711Y-84850500D01*
X33878712Y-84850500D01*
X34121289Y-84850500D01*
X34169388Y-84844167D01*
X34361789Y-84818838D01*
X34596100Y-84756054D01*
X34820212Y-84663224D01*
X35030289Y-84541936D01*
X35222738Y-84394265D01*
X35394265Y-84222738D01*
X35541936Y-84030289D01*
X35663224Y-83820212D01*
X35756054Y-83596100D01*
X35818838Y-83361789D01*
X35850500Y-83121288D01*
X35850500Y-82878712D01*
X35850500Y-82878711D01*
X124149500Y-82878711D01*
X124149500Y-83121288D01*
X124181161Y-83361785D01*
X124243947Y-83596104D01*
X124280750Y-83684954D01*
X124336776Y-83820212D01*
X124458064Y-84030289D01*
X124458066Y-84030292D01*
X124458067Y-84030293D01*
X124605733Y-84222736D01*
X124605739Y-84222743D01*
X124777256Y-84394260D01*
X124777263Y-84394266D01*
X124890321Y-84481018D01*
X124969711Y-84541936D01*
X125179788Y-84663224D01*
X125403900Y-84756054D01*
X125638211Y-84818838D01*
X125818586Y-84842584D01*
X125878711Y-84850500D01*
X125878712Y-84850500D01*
X126121289Y-84850500D01*
X126169388Y-84844167D01*
X126361789Y-84818838D01*
X126596100Y-84756054D01*
X126820212Y-84663224D01*
X127030289Y-84541936D01*
X127222738Y-84394265D01*
X127394265Y-84222738D01*
X127541936Y-84030289D01*
X127663224Y-83820212D01*
X127756054Y-83596100D01*
X127818838Y-83361789D01*
X127850500Y-83121288D01*
X127850500Y-82878712D01*
X127818838Y-82638211D01*
X127756054Y-82403900D01*
X127663224Y-82179788D01*
X127541936Y-81969711D01*
X127394265Y-81777262D01*
X127394260Y-81777256D01*
X127222743Y-81605739D01*
X127222736Y-81605733D01*
X127030293Y-81458067D01*
X127030292Y-81458066D01*
X127030289Y-81458064D01*
X126820212Y-81336776D01*
X126820205Y-81336773D01*
X126596104Y-81243947D01*
X126361785Y-81181161D01*
X126121289Y-81149500D01*
X126121288Y-81149500D01*
X125878712Y-81149500D01*
X125878711Y-81149500D01*
X125638214Y-81181161D01*
X125403895Y-81243947D01*
X125179794Y-81336773D01*
X125179785Y-81336777D01*
X124969706Y-81458067D01*
X124777263Y-81605733D01*
X124777256Y-81605739D01*
X124605739Y-81777256D01*
X124605733Y-81777263D01*
X124458067Y-81969706D01*
X124336777Y-82179785D01*
X124336773Y-82179794D01*
X124243947Y-82403895D01*
X124181161Y-82638214D01*
X124149500Y-82878711D01*
X35850500Y-82878711D01*
X35818838Y-82638211D01*
X35756054Y-82403900D01*
X35663224Y-82179788D01*
X35541936Y-81969711D01*
X35394265Y-81777262D01*
X35394260Y-81777256D01*
X35222743Y-81605739D01*
X35222736Y-81605733D01*
X35030293Y-81458067D01*
X35030292Y-81458066D01*
X35030289Y-81458064D01*
X34820212Y-81336776D01*
X34820205Y-81336773D01*
X34596104Y-81243947D01*
X34361785Y-81181161D01*
X34121289Y-81149500D01*
X34121288Y-81149500D01*
X33878712Y-81149500D01*
X33878711Y-81149500D01*
X33638214Y-81181161D01*
X33403895Y-81243947D01*
X33179794Y-81336773D01*
X33179785Y-81336777D01*
X32969706Y-81458067D01*
X32777263Y-81605733D01*
X32777256Y-81605739D01*
X32605739Y-81777256D01*
X32605733Y-81777263D01*
X32458067Y-81969706D01*
X32336777Y-82179785D01*
X32336773Y-82179794D01*
X32243947Y-82403895D01*
X32181161Y-82638214D01*
X32149500Y-82878711D01*
X30500500Y-82878711D01*
X30500500Y-79231762D01*
X48884500Y-79231762D01*
X48884500Y-79518237D01*
X48916572Y-79802891D01*
X48980317Y-80082181D01*
X48980321Y-80082193D01*
X49074929Y-80352565D01*
X49074935Y-80352579D01*
X49199223Y-80610666D01*
X49199225Y-80610669D01*
X49351634Y-80853227D01*
X49530243Y-81077195D01*
X49732805Y-81279757D01*
X49956773Y-81458366D01*
X50199331Y-81610775D01*
X50457428Y-81735068D01*
X50457434Y-81735070D01*
X50727806Y-81829678D01*
X50727818Y-81829682D01*
X51007102Y-81893426D01*
X51007105Y-81893426D01*
X51007108Y-81893427D01*
X51007107Y-81893427D01*
X51149434Y-81909463D01*
X51291763Y-81925499D01*
X51291764Y-81925500D01*
X51291767Y-81925500D01*
X51578236Y-81925500D01*
X51578236Y-81925499D01*
X51783815Y-81902336D01*
X51862891Y-81893427D01*
X51862892Y-81893426D01*
X51862898Y-81893426D01*
X52142182Y-81829682D01*
X52412572Y-81735068D01*
X52670669Y-81610775D01*
X52913227Y-81458366D01*
X53137195Y-81279757D01*
X53339757Y-81077195D01*
X53518366Y-80853227D01*
X53670775Y-80610669D01*
X53795068Y-80352572D01*
X53889682Y-80082182D01*
X53953426Y-79802898D01*
X53985500Y-79518233D01*
X53985500Y-79231767D01*
X53985499Y-79231762D01*
X70262833Y-79231762D01*
X70262833Y-79518237D01*
X70294905Y-79802891D01*
X70358650Y-80082181D01*
X70358654Y-80082193D01*
X70453262Y-80352565D01*
X70453268Y-80352579D01*
X70577556Y-80610666D01*
X70577558Y-80610669D01*
X70729967Y-80853227D01*
X70908576Y-81077195D01*
X71111138Y-81279757D01*
X71335106Y-81458366D01*
X71577664Y-81610775D01*
X71835761Y-81735068D01*
X71835767Y-81735070D01*
X72106139Y-81829678D01*
X72106151Y-81829682D01*
X72385435Y-81893426D01*
X72385438Y-81893426D01*
X72385441Y-81893427D01*
X72385440Y-81893427D01*
X72527767Y-81909463D01*
X72670096Y-81925499D01*
X72670097Y-81925500D01*
X72670100Y-81925500D01*
X72956569Y-81925500D01*
X72956569Y-81925499D01*
X73162148Y-81902336D01*
X73241224Y-81893427D01*
X73241225Y-81893426D01*
X73241231Y-81893426D01*
X73520515Y-81829682D01*
X73790905Y-81735068D01*
X74049002Y-81610775D01*
X74291560Y-81458366D01*
X74515528Y-81279757D01*
X74718090Y-81077195D01*
X74896699Y-80853227D01*
X75049108Y-80610669D01*
X75173401Y-80352572D01*
X75268015Y-80082182D01*
X75331759Y-79802898D01*
X75363833Y-79518233D01*
X75363833Y-79231767D01*
X75363832Y-79231762D01*
X91641167Y-79231762D01*
X91641167Y-79518237D01*
X91673239Y-79802891D01*
X91736984Y-80082181D01*
X91736988Y-80082193D01*
X91831596Y-80352565D01*
X91831602Y-80352579D01*
X91955890Y-80610666D01*
X91955892Y-80610669D01*
X92108301Y-80853227D01*
X92286910Y-81077195D01*
X92489472Y-81279757D01*
X92713440Y-81458366D01*
X92955998Y-81610775D01*
X93214095Y-81735068D01*
X93214101Y-81735070D01*
X93484473Y-81829678D01*
X93484485Y-81829682D01*
X93763769Y-81893426D01*
X93763772Y-81893426D01*
X93763775Y-81893427D01*
X93763774Y-81893427D01*
X93906101Y-81909463D01*
X94048430Y-81925499D01*
X94048431Y-81925500D01*
X94048434Y-81925500D01*
X94334903Y-81925500D01*
X94334903Y-81925499D01*
X94540482Y-81902336D01*
X94619558Y-81893427D01*
X94619559Y-81893426D01*
X94619565Y-81893426D01*
X94898849Y-81829682D01*
X95169239Y-81735068D01*
X95427336Y-81610775D01*
X95669894Y-81458366D01*
X95893862Y-81279757D01*
X96096424Y-81077195D01*
X96275033Y-80853227D01*
X96427442Y-80610669D01*
X96551735Y-80352572D01*
X96646349Y-80082182D01*
X96710093Y-79802898D01*
X96742167Y-79518233D01*
X96742167Y-79231767D01*
X96742166Y-79231762D01*
X113019500Y-79231762D01*
X113019500Y-79518237D01*
X113051572Y-79802891D01*
X113115317Y-80082181D01*
X113115321Y-80082193D01*
X113209929Y-80352565D01*
X113209935Y-80352579D01*
X113334223Y-80610666D01*
X113334225Y-80610669D01*
X113486634Y-80853227D01*
X113665243Y-81077195D01*
X113867805Y-81279757D01*
X114091773Y-81458366D01*
X114334331Y-81610775D01*
X114592428Y-81735068D01*
X114592434Y-81735070D01*
X114862806Y-81829678D01*
X114862818Y-81829682D01*
X115142102Y-81893426D01*
X115142105Y-81893426D01*
X115142108Y-81893427D01*
X115142107Y-81893427D01*
X115284434Y-81909463D01*
X115426763Y-81925499D01*
X115426764Y-81925500D01*
X115426767Y-81925500D01*
X115713236Y-81925500D01*
X115713236Y-81925499D01*
X115918815Y-81902336D01*
X115997891Y-81893427D01*
X115997892Y-81893426D01*
X115997898Y-81893426D01*
X116277182Y-81829682D01*
X116547572Y-81735068D01*
X116805669Y-81610775D01*
X117048227Y-81458366D01*
X117272195Y-81279757D01*
X117474757Y-81077195D01*
X117653366Y-80853227D01*
X117805775Y-80610669D01*
X117930068Y-80352572D01*
X118024682Y-80082182D01*
X118088426Y-79802898D01*
X118120500Y-79518233D01*
X118120500Y-79231767D01*
X118088426Y-78947102D01*
X118024682Y-78667818D01*
X117930068Y-78397428D01*
X117805775Y-78139331D01*
X117653366Y-77896773D01*
X117474757Y-77672805D01*
X117272195Y-77470243D01*
X117048227Y-77291634D01*
X116805669Y-77139225D01*
X116805666Y-77139223D01*
X116547579Y-77014935D01*
X116547565Y-77014929D01*
X116277193Y-76920321D01*
X116277181Y-76920317D01*
X115997891Y-76856572D01*
X115997892Y-76856572D01*
X115713237Y-76824500D01*
X115713233Y-76824500D01*
X115426767Y-76824500D01*
X115426762Y-76824500D01*
X115142108Y-76856572D01*
X114862818Y-76920317D01*
X114862806Y-76920321D01*
X114592434Y-77014929D01*
X114592420Y-77014935D01*
X114334333Y-77139223D01*
X114091774Y-77291633D01*
X113867805Y-77470242D01*
X113665242Y-77672805D01*
X113486633Y-77896774D01*
X113334223Y-78139333D01*
X113209935Y-78397420D01*
X113209929Y-78397434D01*
X113115321Y-78667806D01*
X113115317Y-78667818D01*
X113051572Y-78947108D01*
X113019500Y-79231762D01*
X96742166Y-79231762D01*
X96710093Y-78947102D01*
X96646349Y-78667818D01*
X96551735Y-78397428D01*
X96427442Y-78139331D01*
X96275033Y-77896773D01*
X96096424Y-77672805D01*
X95893862Y-77470243D01*
X95669894Y-77291634D01*
X95427336Y-77139225D01*
X95427333Y-77139223D01*
X95169246Y-77014935D01*
X95169232Y-77014929D01*
X94898860Y-76920321D01*
X94898848Y-76920317D01*
X94619558Y-76856572D01*
X94619559Y-76856572D01*
X94334904Y-76824500D01*
X94334900Y-76824500D01*
X94048434Y-76824500D01*
X94048429Y-76824500D01*
X93763775Y-76856572D01*
X93484485Y-76920317D01*
X93484473Y-76920321D01*
X93214101Y-77014929D01*
X93214087Y-77014935D01*
X92956000Y-77139223D01*
X92713441Y-77291633D01*
X92489472Y-77470242D01*
X92286909Y-77672805D01*
X92108300Y-77896774D01*
X91955890Y-78139333D01*
X91831602Y-78397420D01*
X91831596Y-78397434D01*
X91736988Y-78667806D01*
X91736984Y-78667818D01*
X91673239Y-78947108D01*
X91641167Y-79231762D01*
X75363832Y-79231762D01*
X75331759Y-78947102D01*
X75268015Y-78667818D01*
X75173401Y-78397428D01*
X75049108Y-78139331D01*
X74896699Y-77896773D01*
X74718090Y-77672805D01*
X74515528Y-77470243D01*
X74291560Y-77291634D01*
X74049002Y-77139225D01*
X74048999Y-77139223D01*
X73790912Y-77014935D01*
X73790898Y-77014929D01*
X73520526Y-76920321D01*
X73520514Y-76920317D01*
X73241224Y-76856572D01*
X73241225Y-76856572D01*
X72956570Y-76824500D01*
X72956566Y-76824500D01*
X72670100Y-76824500D01*
X72670095Y-76824500D01*
X72385441Y-76856572D01*
X72106151Y-76920317D01*
X72106139Y-76920321D01*
X71835767Y-77014929D01*
X71835753Y-77014935D01*
X71577666Y-77139223D01*
X71335107Y-77291633D01*
X71111138Y-77470242D01*
X70908575Y-77672805D01*
X70729966Y-77896774D01*
X70577556Y-78139333D01*
X70453268Y-78397420D01*
X70453262Y-78397434D01*
X70358654Y-78667806D01*
X70358650Y-78667818D01*
X70294905Y-78947108D01*
X70262833Y-79231762D01*
X53985499Y-79231762D01*
X53953426Y-78947102D01*
X53889682Y-78667818D01*
X53795068Y-78397428D01*
X53670775Y-78139331D01*
X53518366Y-77896773D01*
X53339757Y-77672805D01*
X53137195Y-77470243D01*
X52913227Y-77291634D01*
X52670669Y-77139225D01*
X52670666Y-77139223D01*
X52412579Y-77014935D01*
X52412565Y-77014929D01*
X52142193Y-76920321D01*
X52142181Y-76920317D01*
X51862891Y-76856572D01*
X51862892Y-76856572D01*
X51578237Y-76824500D01*
X51578233Y-76824500D01*
X51291767Y-76824500D01*
X51291762Y-76824500D01*
X51007108Y-76856572D01*
X50727818Y-76920317D01*
X50727806Y-76920321D01*
X50457434Y-77014929D01*
X50457420Y-77014935D01*
X50199333Y-77139223D01*
X49956774Y-77291633D01*
X49732805Y-77470242D01*
X49530242Y-77672805D01*
X49351633Y-77896774D01*
X49199223Y-78139333D01*
X49074935Y-78397420D01*
X49074929Y-78397434D01*
X48980321Y-78667806D01*
X48980317Y-78667818D01*
X48916572Y-78947108D01*
X48884500Y-79231762D01*
X30500500Y-79231762D01*
X30500500Y-74584001D01*
X30520185Y-74516962D01*
X30572989Y-74471207D01*
X30642147Y-74461263D01*
X30698810Y-74484734D01*
X30741861Y-74516962D01*
X30757668Y-74528795D01*
X30757671Y-74528797D01*
X30892517Y-74579091D01*
X30892516Y-74579091D01*
X30899444Y-74579835D01*
X30952127Y-74585500D01*
X33047872Y-74585499D01*
X33107483Y-74579091D01*
X33242331Y-74528796D01*
X33357546Y-74442546D01*
X33443796Y-74327331D01*
X33494091Y-74192483D01*
X33500500Y-74132873D01*
X33500499Y-73137128D01*
X33494091Y-73077517D01*
X33478419Y-73035499D01*
X33443797Y-72942671D01*
X33443793Y-72942664D01*
X33357547Y-72827455D01*
X33357544Y-72827452D01*
X33242335Y-72741206D01*
X33242328Y-72741202D01*
X33107482Y-72690908D01*
X33107483Y-72690908D01*
X33047883Y-72684501D01*
X33047881Y-72684500D01*
X33047873Y-72684500D01*
X33047864Y-72684500D01*
X30952129Y-72684500D01*
X30952123Y-72684501D01*
X30892516Y-72690908D01*
X30757671Y-72741202D01*
X30757668Y-72741204D01*
X30698811Y-72785265D01*
X30633347Y-72809682D01*
X30565074Y-72794830D01*
X30515668Y-72745425D01*
X30500500Y-72685998D01*
X30500500Y-70341762D01*
X35449500Y-70341762D01*
X35449500Y-70628237D01*
X35481572Y-70912891D01*
X35545317Y-71192181D01*
X35545321Y-71192193D01*
X35639929Y-71462565D01*
X35639935Y-71462579D01*
X35764223Y-71720666D01*
X35764225Y-71720669D01*
X35916634Y-71963227D01*
X36095243Y-72187195D01*
X36297805Y-72389757D01*
X36521773Y-72568366D01*
X36764331Y-72720775D01*
X37022428Y-72845068D01*
X37022434Y-72845070D01*
X37292806Y-72939678D01*
X37292818Y-72939682D01*
X37572102Y-73003426D01*
X37572105Y-73003426D01*
X37572108Y-73003427D01*
X37572107Y-73003427D01*
X37714434Y-73019463D01*
X37856763Y-73035499D01*
X37856764Y-73035500D01*
X37856767Y-73035500D01*
X38143236Y-73035500D01*
X38143236Y-73035499D01*
X38348815Y-73012336D01*
X38427891Y-73003427D01*
X38427892Y-73003426D01*
X38427898Y-73003426D01*
X38707182Y-72939682D01*
X38977572Y-72845068D01*
X39235669Y-72720775D01*
X39478227Y-72568366D01*
X39702195Y-72389757D01*
X39904757Y-72187195D01*
X40083366Y-71963227D01*
X40235775Y-71720669D01*
X40360068Y-71462572D01*
X40454682Y-71192182D01*
X40518426Y-70912898D01*
X40550500Y-70628233D01*
X40550500Y-70341767D01*
X40518426Y-70057102D01*
X40454682Y-69777818D01*
X40360068Y-69507428D01*
X40235775Y-69249331D01*
X40083366Y-69006773D01*
X39904757Y-68782805D01*
X39702195Y-68580243D01*
X39478227Y-68401634D01*
X39235669Y-68249225D01*
X39235666Y-68249223D01*
X38977579Y-68124935D01*
X38977565Y-68124929D01*
X38707193Y-68030321D01*
X38707181Y-68030317D01*
X38427891Y-67966572D01*
X38427892Y-67966572D01*
X38143237Y-67934500D01*
X38143233Y-67934500D01*
X37856767Y-67934500D01*
X37856762Y-67934500D01*
X37572108Y-67966572D01*
X37292818Y-68030317D01*
X37292806Y-68030321D01*
X37022434Y-68124929D01*
X37022420Y-68124935D01*
X36764333Y-68249223D01*
X36521774Y-68401633D01*
X36297805Y-68580242D01*
X36095242Y-68782805D01*
X35916633Y-69006774D01*
X35764223Y-69249333D01*
X35639935Y-69507420D01*
X35639929Y-69507434D01*
X35545321Y-69777806D01*
X35545317Y-69777818D01*
X35481572Y-70057108D01*
X35449500Y-70341762D01*
X30500500Y-70341762D01*
X30500500Y-61084001D01*
X30520185Y-61016962D01*
X30572989Y-60971207D01*
X30642147Y-60961263D01*
X30698810Y-60984734D01*
X30741861Y-61016962D01*
X30757668Y-61028795D01*
X30757671Y-61028797D01*
X30892517Y-61079091D01*
X30892516Y-61079091D01*
X30899444Y-61079835D01*
X30952127Y-61085500D01*
X33047872Y-61085499D01*
X33107483Y-61079091D01*
X33242331Y-61028796D01*
X33357546Y-60942546D01*
X33443796Y-60827331D01*
X33494091Y-60692483D01*
X33500500Y-60632873D01*
X33500499Y-59637128D01*
X33494091Y-59577517D01*
X33443796Y-59442669D01*
X33443795Y-59442668D01*
X33443793Y-59442664D01*
X33357547Y-59327455D01*
X33357544Y-59327452D01*
X33242335Y-59241206D01*
X33242328Y-59241202D01*
X33107482Y-59190908D01*
X33107483Y-59190908D01*
X33047883Y-59184501D01*
X33047881Y-59184500D01*
X33047873Y-59184500D01*
X33047864Y-59184500D01*
X30952129Y-59184500D01*
X30952123Y-59184501D01*
X30892516Y-59190908D01*
X30757671Y-59241202D01*
X30757668Y-59241204D01*
X30698811Y-59285265D01*
X30633347Y-59309682D01*
X30565074Y-59294830D01*
X30515668Y-59245425D01*
X30500500Y-59185998D01*
X30500500Y-55708034D01*
X58094500Y-55708034D01*
X58094500Y-56051965D01*
X58128210Y-56394249D01*
X58195308Y-56731572D01*
X58295150Y-57060706D01*
X58426770Y-57378464D01*
X58426772Y-57378469D01*
X58588893Y-57681775D01*
X58588904Y-57681793D01*
X58779975Y-57967751D01*
X58779985Y-57967765D01*
X58998176Y-58233632D01*
X59241367Y-58476823D01*
X59241372Y-58476827D01*
X59241373Y-58476828D01*
X59507240Y-58695019D01*
X59793213Y-58886100D01*
X59793222Y-58886105D01*
X59793224Y-58886106D01*
X60096530Y-59048227D01*
X60096532Y-59048227D01*
X60096538Y-59048231D01*
X60414295Y-59179850D01*
X60743422Y-59279690D01*
X61080750Y-59346789D01*
X61423031Y-59380500D01*
X61423034Y-59380500D01*
X61766966Y-59380500D01*
X61766969Y-59380500D01*
X62109250Y-59346789D01*
X62446578Y-59279690D01*
X62775705Y-59179850D01*
X63093462Y-59048231D01*
X63396787Y-58886100D01*
X63682760Y-58695019D01*
X63948627Y-58476828D01*
X64191828Y-58233627D01*
X64410019Y-57967760D01*
X64601100Y-57681787D01*
X64763231Y-57378462D01*
X64894850Y-57060705D01*
X64994690Y-56731578D01*
X65061789Y-56394250D01*
X65095500Y-56051969D01*
X65095500Y-55708034D01*
X77144500Y-55708034D01*
X77144500Y-56051965D01*
X77178210Y-56394249D01*
X77245308Y-56731572D01*
X77345150Y-57060706D01*
X77476770Y-57378464D01*
X77476772Y-57378469D01*
X77638893Y-57681775D01*
X77638904Y-57681793D01*
X77829975Y-57967751D01*
X77829985Y-57967765D01*
X78048176Y-58233632D01*
X78291367Y-58476823D01*
X78291372Y-58476827D01*
X78291373Y-58476828D01*
X78557240Y-58695019D01*
X78843213Y-58886100D01*
X78843222Y-58886105D01*
X78843224Y-58886106D01*
X79146530Y-59048227D01*
X79146532Y-59048227D01*
X79146538Y-59048231D01*
X79464295Y-59179850D01*
X79793422Y-59279690D01*
X80130750Y-59346789D01*
X80473031Y-59380500D01*
X80473034Y-59380500D01*
X80816966Y-59380500D01*
X80816969Y-59380500D01*
X81159250Y-59346789D01*
X81496578Y-59279690D01*
X81825705Y-59179850D01*
X82143462Y-59048231D01*
X82446787Y-58886100D01*
X82732760Y-58695019D01*
X82998627Y-58476828D01*
X83241828Y-58233627D01*
X83388436Y-58054984D01*
X105614500Y-58054984D01*
X105614500Y-60055015D01*
X105625000Y-60157795D01*
X105625001Y-60157796D01*
X105680186Y-60324335D01*
X105680187Y-60324337D01*
X105772286Y-60473651D01*
X105772289Y-60473655D01*
X105896344Y-60597710D01*
X105896348Y-60597713D01*
X106045662Y-60689812D01*
X106045664Y-60689813D01*
X106045666Y-60689814D01*
X106212203Y-60744999D01*
X106314992Y-60755500D01*
X106314997Y-60755500D01*
X108315003Y-60755500D01*
X108315008Y-60755500D01*
X108417797Y-60744999D01*
X108584334Y-60689814D01*
X108733655Y-60597711D01*
X108857711Y-60473655D01*
X108949814Y-60324334D01*
X109004999Y-60157797D01*
X109015500Y-60055008D01*
X109015500Y-58054992D01*
X109015499Y-58054984D01*
X115259500Y-58054984D01*
X115259500Y-60055015D01*
X115270000Y-60157795D01*
X115270001Y-60157796D01*
X115325186Y-60324335D01*
X115325187Y-60324337D01*
X115417286Y-60473651D01*
X115417289Y-60473655D01*
X115541344Y-60597710D01*
X115541348Y-60597713D01*
X115690662Y-60689812D01*
X115690664Y-60689813D01*
X115690666Y-60689814D01*
X115857203Y-60744999D01*
X115959992Y-60755500D01*
X115959997Y-60755500D01*
X117960003Y-60755500D01*
X117960008Y-60755500D01*
X118062797Y-60744999D01*
X118229334Y-60689814D01*
X118378655Y-60597711D01*
X118502711Y-60473655D01*
X118594814Y-60324334D01*
X118649999Y-60157797D01*
X118660500Y-60055008D01*
X118660500Y-58054992D01*
X118649999Y-57952203D01*
X118594814Y-57785666D01*
X118502711Y-57636345D01*
X118378655Y-57512289D01*
X118378651Y-57512286D01*
X118229337Y-57420187D01*
X118229335Y-57420186D01*
X118146065Y-57392593D01*
X118062797Y-57365001D01*
X118062795Y-57365000D01*
X117960015Y-57354500D01*
X117960008Y-57354500D01*
X115959992Y-57354500D01*
X115959984Y-57354500D01*
X115857204Y-57365000D01*
X115857203Y-57365001D01*
X115690664Y-57420186D01*
X115690662Y-57420187D01*
X115541348Y-57512286D01*
X115541344Y-57512289D01*
X115417289Y-57636344D01*
X115417286Y-57636348D01*
X115325187Y-57785662D01*
X115325186Y-57785664D01*
X115270001Y-57952203D01*
X115270000Y-57952204D01*
X115259500Y-58054984D01*
X109015499Y-58054984D01*
X109004999Y-57952203D01*
X108949814Y-57785666D01*
X108857711Y-57636345D01*
X108733655Y-57512289D01*
X108733651Y-57512286D01*
X108584337Y-57420187D01*
X108584335Y-57420186D01*
X108501065Y-57392593D01*
X108417797Y-57365001D01*
X108417795Y-57365000D01*
X108315015Y-57354500D01*
X108315008Y-57354500D01*
X106314992Y-57354500D01*
X106314984Y-57354500D01*
X106212204Y-57365000D01*
X106212203Y-57365001D01*
X106045664Y-57420186D01*
X106045662Y-57420187D01*
X105896348Y-57512286D01*
X105896344Y-57512289D01*
X105772289Y-57636344D01*
X105772286Y-57636348D01*
X105680187Y-57785662D01*
X105680186Y-57785664D01*
X105625001Y-57952203D01*
X105625000Y-57952204D01*
X105614500Y-58054984D01*
X83388436Y-58054984D01*
X83460019Y-57967760D01*
X83651100Y-57681787D01*
X83813231Y-57378462D01*
X83944850Y-57060705D01*
X84044690Y-56731578D01*
X84111789Y-56394250D01*
X84145500Y-56051969D01*
X84145500Y-55708031D01*
X84111789Y-55365750D01*
X84044690Y-55028422D01*
X83944850Y-54699295D01*
X83813231Y-54381538D01*
X83651100Y-54078213D01*
X83460019Y-53792240D01*
X83241828Y-53526373D01*
X83241827Y-53526372D01*
X83241823Y-53526367D01*
X82998632Y-53283176D01*
X82732765Y-53064985D01*
X82732764Y-53064984D01*
X82732760Y-53064981D01*
X82446787Y-52873900D01*
X82446782Y-52873897D01*
X82446775Y-52873893D01*
X82143469Y-52711772D01*
X82143464Y-52711770D01*
X81825706Y-52580150D01*
X81496572Y-52480308D01*
X81159248Y-52413210D01*
X81159249Y-52413210D01*
X80901456Y-52387821D01*
X80816969Y-52379500D01*
X80473031Y-52379500D01*
X80394966Y-52387188D01*
X80130750Y-52413210D01*
X79793427Y-52480308D01*
X79464293Y-52580150D01*
X79146535Y-52711770D01*
X79146530Y-52711772D01*
X78843224Y-52873893D01*
X78843206Y-52873904D01*
X78557248Y-53064975D01*
X78557234Y-53064985D01*
X78291367Y-53283176D01*
X78048176Y-53526367D01*
X77829985Y-53792234D01*
X77829975Y-53792248D01*
X77638904Y-54078206D01*
X77638893Y-54078224D01*
X77476772Y-54381530D01*
X77476770Y-54381535D01*
X77345150Y-54699293D01*
X77245308Y-55028427D01*
X77178210Y-55365750D01*
X77144500Y-55708034D01*
X65095500Y-55708034D01*
X65095500Y-55708031D01*
X65061789Y-55365750D01*
X64994690Y-55028422D01*
X64894850Y-54699295D01*
X64763231Y-54381538D01*
X64601100Y-54078213D01*
X64410019Y-53792240D01*
X64191828Y-53526373D01*
X64191827Y-53526372D01*
X64191823Y-53526367D01*
X63948632Y-53283176D01*
X63682765Y-53064985D01*
X63682764Y-53064984D01*
X63682760Y-53064981D01*
X63396787Y-52873900D01*
X63396782Y-52873897D01*
X63396775Y-52873893D01*
X63093469Y-52711772D01*
X63093464Y-52711770D01*
X62775706Y-52580150D01*
X62446572Y-52480308D01*
X62109248Y-52413210D01*
X62109249Y-52413210D01*
X61851456Y-52387821D01*
X61766969Y-52379500D01*
X61423031Y-52379500D01*
X61344966Y-52387188D01*
X61080750Y-52413210D01*
X60743427Y-52480308D01*
X60414293Y-52580150D01*
X60096535Y-52711770D01*
X60096530Y-52711772D01*
X59793224Y-52873893D01*
X59793206Y-52873904D01*
X59507248Y-53064975D01*
X59507234Y-53064985D01*
X59241367Y-53283176D01*
X58998176Y-53526367D01*
X58779985Y-53792234D01*
X58779975Y-53792248D01*
X58588904Y-54078206D01*
X58588893Y-54078224D01*
X58426772Y-54381530D01*
X58426770Y-54381535D01*
X58295150Y-54699293D01*
X58195308Y-55028427D01*
X58128210Y-55365750D01*
X58094500Y-55708034D01*
X30500500Y-55708034D01*
X30500500Y-55534001D01*
X30520185Y-55466962D01*
X30572989Y-55421207D01*
X30642147Y-55411263D01*
X30698810Y-55434734D01*
X30741861Y-55466962D01*
X30757668Y-55478795D01*
X30757671Y-55478797D01*
X30892517Y-55529091D01*
X30892516Y-55529091D01*
X30899444Y-55529835D01*
X30952127Y-55535500D01*
X33047872Y-55535499D01*
X33107483Y-55529091D01*
X33242331Y-55478796D01*
X33357546Y-55392546D01*
X33443796Y-55277331D01*
X33494091Y-55142483D01*
X33500500Y-55082873D01*
X33500499Y-54087128D01*
X33494091Y-54027517D01*
X33478419Y-53985499D01*
X33443797Y-53892671D01*
X33443793Y-53892664D01*
X33357547Y-53777455D01*
X33357544Y-53777452D01*
X33242335Y-53691206D01*
X33242328Y-53691202D01*
X33107482Y-53640908D01*
X33107483Y-53640908D01*
X33047883Y-53634501D01*
X33047881Y-53634500D01*
X33047873Y-53634500D01*
X33047864Y-53634500D01*
X30952129Y-53634500D01*
X30952123Y-53634501D01*
X30892516Y-53640908D01*
X30757671Y-53691202D01*
X30757668Y-53691204D01*
X30698811Y-53735265D01*
X30633347Y-53759682D01*
X30565074Y-53744830D01*
X30515668Y-53695425D01*
X30500500Y-53635998D01*
X30500500Y-51291762D01*
X35449500Y-51291762D01*
X35449500Y-51578237D01*
X35481572Y-51862891D01*
X35545317Y-52142181D01*
X35545321Y-52142193D01*
X35639929Y-52412565D01*
X35639935Y-52412579D01*
X35764223Y-52670666D01*
X35764225Y-52670669D01*
X35916634Y-52913227D01*
X36095243Y-53137195D01*
X36297805Y-53339757D01*
X36521773Y-53518366D01*
X36764331Y-53670775D01*
X37022428Y-53795068D01*
X37022434Y-53795070D01*
X37292806Y-53889678D01*
X37292818Y-53889682D01*
X37572102Y-53953426D01*
X37572105Y-53953426D01*
X37572108Y-53953427D01*
X37572107Y-53953427D01*
X37714434Y-53969463D01*
X37856763Y-53985499D01*
X37856764Y-53985500D01*
X37856767Y-53985500D01*
X38143236Y-53985500D01*
X38143236Y-53985499D01*
X38348815Y-53962336D01*
X38427891Y-53953427D01*
X38427892Y-53953426D01*
X38427898Y-53953426D01*
X38707182Y-53889682D01*
X38977572Y-53795068D01*
X39235669Y-53670775D01*
X39478227Y-53518366D01*
X39702195Y-53339757D01*
X39904757Y-53137195D01*
X40083366Y-52913227D01*
X40235775Y-52670669D01*
X40360068Y-52412572D01*
X40454682Y-52142182D01*
X40518426Y-51862898D01*
X40550500Y-51578233D01*
X40550500Y-51291767D01*
X40518426Y-51007102D01*
X40454682Y-50727818D01*
X40360068Y-50457428D01*
X40235775Y-50199331D01*
X40083366Y-49956773D01*
X39904757Y-49732805D01*
X39702195Y-49530243D01*
X39674837Y-49508426D01*
X39594900Y-49444678D01*
X39478227Y-49351634D01*
X39235669Y-49199225D01*
X39235666Y-49199223D01*
X38977579Y-49074935D01*
X38977565Y-49074929D01*
X38707193Y-48980321D01*
X38707181Y-48980317D01*
X38427891Y-48916572D01*
X38427892Y-48916572D01*
X38143237Y-48884500D01*
X38143233Y-48884500D01*
X37856767Y-48884500D01*
X37856762Y-48884500D01*
X37572108Y-48916572D01*
X37292818Y-48980317D01*
X37292806Y-48980321D01*
X37022434Y-49074929D01*
X37022420Y-49074935D01*
X36764333Y-49199223D01*
X36521774Y-49351633D01*
X36297805Y-49530242D01*
X36095242Y-49732805D01*
X35916633Y-49956774D01*
X35764223Y-50199333D01*
X35639935Y-50457420D01*
X35639929Y-50457434D01*
X35545321Y-50727806D01*
X35545317Y-50727818D01*
X35481572Y-51007108D01*
X35449500Y-51291762D01*
X30500500Y-51291762D01*
X30500500Y-46846762D01*
X109209500Y-46846762D01*
X109209500Y-47133237D01*
X109241572Y-47417891D01*
X109305317Y-47697181D01*
X109305321Y-47697193D01*
X109399929Y-47967565D01*
X109399935Y-47967579D01*
X109524223Y-48225666D01*
X109524225Y-48225669D01*
X109676634Y-48468227D01*
X109855243Y-48692195D01*
X110057805Y-48894757D01*
X110281773Y-49073366D01*
X110524331Y-49225775D01*
X110782428Y-49350068D01*
X110872558Y-49381606D01*
X111052806Y-49444678D01*
X111052818Y-49444682D01*
X111332102Y-49508426D01*
X111332105Y-49508426D01*
X111332108Y-49508427D01*
X111332107Y-49508427D01*
X111474434Y-49524463D01*
X111616763Y-49540499D01*
X111616764Y-49540500D01*
X111616767Y-49540500D01*
X111903236Y-49540500D01*
X111903236Y-49540499D01*
X112108815Y-49517336D01*
X112187891Y-49508427D01*
X112187892Y-49508426D01*
X112187898Y-49508426D01*
X112467182Y-49444682D01*
X112737572Y-49350068D01*
X112995669Y-49225775D01*
X113238227Y-49073366D01*
X113462195Y-48894757D01*
X113664757Y-48692195D01*
X113843366Y-48468227D01*
X113995775Y-48225669D01*
X114120068Y-47967572D01*
X114214682Y-47697182D01*
X114278426Y-47417898D01*
X114310500Y-47133233D01*
X114310500Y-46846767D01*
X114278426Y-46562102D01*
X114214682Y-46282818D01*
X114201371Y-46244778D01*
X124964500Y-46244778D01*
X124964500Y-46465221D01*
X124998985Y-46682952D01*
X125067103Y-46892603D01*
X125067104Y-46892606D01*
X125167187Y-47089025D01*
X125296752Y-47267358D01*
X125296756Y-47267363D01*
X125452636Y-47423243D01*
X125452641Y-47423247D01*
X125608192Y-47536260D01*
X125630978Y-47552815D01*
X125759375Y-47618237D01*
X125827393Y-47652895D01*
X125827396Y-47652896D01*
X125932221Y-47686955D01*
X126037049Y-47721015D01*
X126254778Y-47755500D01*
X126254779Y-47755500D01*
X126475221Y-47755500D01*
X126475222Y-47755500D01*
X126692951Y-47721015D01*
X126902606Y-47652895D01*
X127099022Y-47552815D01*
X127277365Y-47423242D01*
X127433242Y-47267365D01*
X127562815Y-47089022D01*
X127662895Y-46892606D01*
X127731015Y-46682951D01*
X127765500Y-46465222D01*
X127765500Y-46244778D01*
X127731015Y-46027049D01*
X127662895Y-45817394D01*
X127662895Y-45817393D01*
X127628237Y-45749375D01*
X127562815Y-45620978D01*
X127483474Y-45511774D01*
X127433247Y-45442641D01*
X127433243Y-45442636D01*
X127277363Y-45286756D01*
X127277358Y-45286752D01*
X127099025Y-45157187D01*
X127099024Y-45157186D01*
X127099022Y-45157185D01*
X127036096Y-45125122D01*
X126902606Y-45057104D01*
X126902603Y-45057103D01*
X126692952Y-44988985D01*
X126584086Y-44971742D01*
X126475222Y-44954500D01*
X126254778Y-44954500D01*
X126182201Y-44965995D01*
X126037047Y-44988985D01*
X125827396Y-45057103D01*
X125827393Y-45057104D01*
X125630974Y-45157187D01*
X125452641Y-45286752D01*
X125452636Y-45286756D01*
X125296756Y-45442636D01*
X125296752Y-45442641D01*
X125167187Y-45620974D01*
X125067104Y-45817393D01*
X125067103Y-45817396D01*
X124998985Y-46027047D01*
X124964500Y-46244778D01*
X114201371Y-46244778D01*
X114120068Y-46012428D01*
X113995775Y-45754331D01*
X113843366Y-45511773D01*
X113664757Y-45287805D01*
X113462195Y-45085243D01*
X113238227Y-44906634D01*
X112995669Y-44754225D01*
X112995666Y-44754223D01*
X112737579Y-44629935D01*
X112737565Y-44629929D01*
X112467193Y-44535321D01*
X112467181Y-44535317D01*
X112187891Y-44471572D01*
X112187892Y-44471572D01*
X111903237Y-44439500D01*
X111903233Y-44439500D01*
X111616767Y-44439500D01*
X111616762Y-44439500D01*
X111332108Y-44471572D01*
X111052818Y-44535317D01*
X111052806Y-44535321D01*
X110782434Y-44629929D01*
X110782420Y-44629935D01*
X110524333Y-44754223D01*
X110281774Y-44906633D01*
X110057805Y-45085242D01*
X109855242Y-45287805D01*
X109676633Y-45511774D01*
X109524223Y-45754333D01*
X109399935Y-46012420D01*
X109399929Y-46012434D01*
X109305321Y-46282806D01*
X109305317Y-46282818D01*
X109241572Y-46562108D01*
X109209500Y-46846762D01*
X30500500Y-46846762D01*
X30500500Y-42034001D01*
X30520185Y-41966962D01*
X30572989Y-41921207D01*
X30642147Y-41911263D01*
X30698810Y-41934734D01*
X30741861Y-41966962D01*
X30757668Y-41978795D01*
X30757671Y-41978797D01*
X30892517Y-42029091D01*
X30892516Y-42029091D01*
X30899444Y-42029835D01*
X30952127Y-42035500D01*
X33047872Y-42035499D01*
X33107483Y-42029091D01*
X33242331Y-41978796D01*
X33357546Y-41892546D01*
X33443796Y-41777331D01*
X33494091Y-41642483D01*
X33500500Y-41582873D01*
X33500499Y-40587128D01*
X33494091Y-40527517D01*
X33490700Y-40518426D01*
X33443797Y-40392671D01*
X33443793Y-40392664D01*
X33357547Y-40277455D01*
X33357544Y-40277452D01*
X33242335Y-40191206D01*
X33242328Y-40191202D01*
X33107482Y-40140908D01*
X33107483Y-40140908D01*
X33047883Y-40134501D01*
X33047881Y-40134500D01*
X33047873Y-40134500D01*
X33047864Y-40134500D01*
X30952129Y-40134500D01*
X30952123Y-40134501D01*
X30892516Y-40140908D01*
X30757671Y-40191202D01*
X30757668Y-40191204D01*
X30698811Y-40235265D01*
X30633347Y-40259682D01*
X30565074Y-40244830D01*
X30515668Y-40195425D01*
X30500500Y-40135998D01*
X30500500Y-37856762D01*
X59044500Y-37856762D01*
X59044500Y-38143237D01*
X59076572Y-38427891D01*
X59140317Y-38707181D01*
X59140321Y-38707193D01*
X59234929Y-38977565D01*
X59234935Y-38977579D01*
X59359223Y-39235666D01*
X59359225Y-39235669D01*
X59511634Y-39478227D01*
X59690243Y-39702195D01*
X59892805Y-39904757D01*
X60116773Y-40083366D01*
X60359331Y-40235775D01*
X60617428Y-40360068D01*
X60617434Y-40360070D01*
X60887806Y-40454678D01*
X60887818Y-40454682D01*
X61167102Y-40518426D01*
X61167105Y-40518426D01*
X61167108Y-40518427D01*
X61167107Y-40518427D01*
X61309434Y-40534463D01*
X61451763Y-40550499D01*
X61451764Y-40550500D01*
X61451767Y-40550500D01*
X61738236Y-40550500D01*
X61738236Y-40550499D01*
X61943815Y-40527336D01*
X62022891Y-40518427D01*
X62022892Y-40518426D01*
X62022898Y-40518426D01*
X62302182Y-40454682D01*
X62572572Y-40360068D01*
X62830669Y-40235775D01*
X63073227Y-40083366D01*
X63297195Y-39904757D01*
X63499757Y-39702195D01*
X63678366Y-39478227D01*
X63830775Y-39235669D01*
X63955068Y-38977572D01*
X64049682Y-38707182D01*
X64113426Y-38427898D01*
X64145500Y-38143233D01*
X64145500Y-37856767D01*
X64145499Y-37856762D01*
X78094500Y-37856762D01*
X78094500Y-38143237D01*
X78126572Y-38427891D01*
X78190317Y-38707181D01*
X78190321Y-38707193D01*
X78284929Y-38977565D01*
X78284935Y-38977579D01*
X78409223Y-39235666D01*
X78409225Y-39235669D01*
X78561634Y-39478227D01*
X78740243Y-39702195D01*
X78942805Y-39904757D01*
X79166773Y-40083366D01*
X79409331Y-40235775D01*
X79667428Y-40360068D01*
X79667434Y-40360070D01*
X79937806Y-40454678D01*
X79937818Y-40454682D01*
X80217102Y-40518426D01*
X80217105Y-40518426D01*
X80217108Y-40518427D01*
X80217107Y-40518427D01*
X80359434Y-40534463D01*
X80501763Y-40550499D01*
X80501764Y-40550500D01*
X80501767Y-40550500D01*
X80788236Y-40550500D01*
X80788236Y-40550499D01*
X80993815Y-40527336D01*
X81072891Y-40518427D01*
X81072892Y-40518426D01*
X81072898Y-40518426D01*
X81352182Y-40454682D01*
X81622572Y-40360068D01*
X81880669Y-40235775D01*
X82123227Y-40083366D01*
X82300325Y-39942135D01*
X100459500Y-39942135D01*
X100459500Y-42037870D01*
X100459501Y-42037876D01*
X100465908Y-42097483D01*
X100516202Y-42232328D01*
X100516206Y-42232335D01*
X100602452Y-42347544D01*
X100602455Y-42347547D01*
X100717664Y-42433793D01*
X100717671Y-42433797D01*
X100852517Y-42484091D01*
X100852516Y-42484091D01*
X100859444Y-42484835D01*
X100912127Y-42490500D01*
X101907872Y-42490499D01*
X101967483Y-42484091D01*
X102102331Y-42433796D01*
X102217546Y-42347546D01*
X102303796Y-42232331D01*
X102354091Y-42097483D01*
X102360500Y-42037873D01*
X102360499Y-39942135D01*
X113959500Y-39942135D01*
X113959500Y-42037870D01*
X113959501Y-42037876D01*
X113965908Y-42097483D01*
X114016202Y-42232328D01*
X114016206Y-42232335D01*
X114102452Y-42347544D01*
X114102455Y-42347547D01*
X114217664Y-42433793D01*
X114217671Y-42433797D01*
X114352517Y-42484091D01*
X114352516Y-42484091D01*
X114359444Y-42484835D01*
X114412127Y-42490500D01*
X115407872Y-42490499D01*
X115467483Y-42484091D01*
X115602331Y-42433796D01*
X115717546Y-42347546D01*
X115803796Y-42232331D01*
X115854091Y-42097483D01*
X115860500Y-42037873D01*
X115860499Y-39942128D01*
X115854091Y-39882517D01*
X115803796Y-39747669D01*
X115803795Y-39747668D01*
X115803793Y-39747664D01*
X115717547Y-39632455D01*
X115717544Y-39632452D01*
X115602335Y-39546206D01*
X115602328Y-39546202D01*
X115467482Y-39495908D01*
X115467483Y-39495908D01*
X115407883Y-39489501D01*
X115407881Y-39489500D01*
X115407873Y-39489500D01*
X115407864Y-39489500D01*
X114412129Y-39489500D01*
X114412123Y-39489501D01*
X114352516Y-39495908D01*
X114217671Y-39546202D01*
X114217664Y-39546206D01*
X114102455Y-39632452D01*
X114102452Y-39632455D01*
X114016206Y-39747664D01*
X114016202Y-39747671D01*
X113965908Y-39882517D01*
X113959501Y-39942116D01*
X113959501Y-39942123D01*
X113959500Y-39942135D01*
X102360499Y-39942135D01*
X102360499Y-39942128D01*
X102354091Y-39882517D01*
X102303796Y-39747669D01*
X102303795Y-39747668D01*
X102303793Y-39747664D01*
X102217547Y-39632455D01*
X102217544Y-39632452D01*
X102102335Y-39546206D01*
X102102328Y-39546202D01*
X101967482Y-39495908D01*
X101967483Y-39495908D01*
X101907883Y-39489501D01*
X101907881Y-39489500D01*
X101907873Y-39489500D01*
X101907864Y-39489500D01*
X100912129Y-39489500D01*
X100912123Y-39489501D01*
X100852516Y-39495908D01*
X100717671Y-39546202D01*
X100717664Y-39546206D01*
X100602455Y-39632452D01*
X100602452Y-39632455D01*
X100516206Y-39747664D01*
X100516202Y-39747671D01*
X100465908Y-39882517D01*
X100459501Y-39942116D01*
X100459501Y-39942123D01*
X100459500Y-39942135D01*
X82300325Y-39942135D01*
X82347195Y-39904757D01*
X82549757Y-39702195D01*
X82728366Y-39478227D01*
X82880775Y-39235669D01*
X83005068Y-38977572D01*
X83099682Y-38707182D01*
X83163426Y-38427898D01*
X83195500Y-38143233D01*
X83195500Y-37856767D01*
X83163426Y-37572102D01*
X83099682Y-37292818D01*
X83005068Y-37022428D01*
X82880775Y-36764331D01*
X82728366Y-36521773D01*
X82549757Y-36297805D01*
X82347195Y-36095243D01*
X82123227Y-35916634D01*
X81880669Y-35764225D01*
X81880666Y-35764223D01*
X81622579Y-35639935D01*
X81622565Y-35639929D01*
X81352193Y-35545321D01*
X81352181Y-35545317D01*
X81072891Y-35481572D01*
X81072892Y-35481572D01*
X80788237Y-35449500D01*
X80788233Y-35449500D01*
X80501767Y-35449500D01*
X80501762Y-35449500D01*
X80217108Y-35481572D01*
X79937818Y-35545317D01*
X79937806Y-35545321D01*
X79667434Y-35639929D01*
X79667420Y-35639935D01*
X79409333Y-35764223D01*
X79166774Y-35916633D01*
X78942805Y-36095242D01*
X78740242Y-36297805D01*
X78561633Y-36521774D01*
X78409223Y-36764333D01*
X78284935Y-37022420D01*
X78284929Y-37022434D01*
X78190321Y-37292806D01*
X78190317Y-37292818D01*
X78126572Y-37572108D01*
X78094500Y-37856762D01*
X64145499Y-37856762D01*
X64113426Y-37572102D01*
X64049682Y-37292818D01*
X63955068Y-37022428D01*
X63830775Y-36764331D01*
X63678366Y-36521773D01*
X63499757Y-36297805D01*
X63297195Y-36095243D01*
X63073227Y-35916634D01*
X62830669Y-35764225D01*
X62830666Y-35764223D01*
X62572579Y-35639935D01*
X62572565Y-35639929D01*
X62302193Y-35545321D01*
X62302181Y-35545317D01*
X62022891Y-35481572D01*
X62022892Y-35481572D01*
X61738237Y-35449500D01*
X61738233Y-35449500D01*
X61451767Y-35449500D01*
X61451762Y-35449500D01*
X61167108Y-35481572D01*
X60887818Y-35545317D01*
X60887806Y-35545321D01*
X60617434Y-35639929D01*
X60617420Y-35639935D01*
X60359333Y-35764223D01*
X60116774Y-35916633D01*
X59892805Y-36095242D01*
X59690242Y-36297805D01*
X59511633Y-36521774D01*
X59359223Y-36764333D01*
X59234935Y-37022420D01*
X59234929Y-37022434D01*
X59140321Y-37292806D01*
X59140317Y-37292818D01*
X59076572Y-37572108D01*
X59044500Y-37856762D01*
X30500500Y-37856762D01*
X30500500Y-33878711D01*
X32149500Y-33878711D01*
X32149500Y-34121288D01*
X32181161Y-34361785D01*
X32243947Y-34596104D01*
X32336773Y-34820205D01*
X32336776Y-34820212D01*
X32458064Y-35030289D01*
X32458066Y-35030292D01*
X32458067Y-35030293D01*
X32605733Y-35222736D01*
X32605739Y-35222743D01*
X32777256Y-35394260D01*
X32777262Y-35394265D01*
X32969711Y-35541936D01*
X33179788Y-35663224D01*
X33403900Y-35756054D01*
X33638211Y-35818838D01*
X33818586Y-35842584D01*
X33878711Y-35850500D01*
X33878712Y-35850500D01*
X34121289Y-35850500D01*
X34169388Y-35844167D01*
X34361789Y-35818838D01*
X34596100Y-35756054D01*
X34820212Y-35663224D01*
X35030289Y-35541936D01*
X35222738Y-35394265D01*
X35394265Y-35222738D01*
X35541936Y-35030289D01*
X35663224Y-34820212D01*
X35756054Y-34596100D01*
X35818838Y-34361789D01*
X35850500Y-34121288D01*
X35850500Y-33878712D01*
X35850500Y-33878711D01*
X124149500Y-33878711D01*
X124149500Y-34121288D01*
X124181161Y-34361785D01*
X124243947Y-34596104D01*
X124336773Y-34820205D01*
X124336776Y-34820212D01*
X124458064Y-35030289D01*
X124458066Y-35030292D01*
X124458067Y-35030293D01*
X124605733Y-35222736D01*
X124605739Y-35222743D01*
X124777256Y-35394260D01*
X124777262Y-35394265D01*
X124969711Y-35541936D01*
X125179788Y-35663224D01*
X125403900Y-35756054D01*
X125638211Y-35818838D01*
X125818586Y-35842584D01*
X125878711Y-35850500D01*
X125878712Y-35850500D01*
X126121289Y-35850500D01*
X126169388Y-35844167D01*
X126361789Y-35818838D01*
X126596100Y-35756054D01*
X126820212Y-35663224D01*
X127030289Y-35541936D01*
X127222738Y-35394265D01*
X127394265Y-35222738D01*
X127541936Y-35030289D01*
X127663224Y-34820212D01*
X127756054Y-34596100D01*
X127818838Y-34361789D01*
X127850500Y-34121288D01*
X127850500Y-33878712D01*
X127818838Y-33638211D01*
X127756054Y-33403900D01*
X127663224Y-33179788D01*
X127541936Y-32969711D01*
X127394265Y-32777262D01*
X127394260Y-32777256D01*
X127222743Y-32605739D01*
X127222736Y-32605733D01*
X127030293Y-32458067D01*
X127030292Y-32458066D01*
X127030289Y-32458064D01*
X126820212Y-32336776D01*
X126820205Y-32336773D01*
X126596104Y-32243947D01*
X126361785Y-32181161D01*
X126121289Y-32149500D01*
X126121288Y-32149500D01*
X125878712Y-32149500D01*
X125878711Y-32149500D01*
X125638214Y-32181161D01*
X125403895Y-32243947D01*
X125179794Y-32336773D01*
X125179785Y-32336777D01*
X124969706Y-32458067D01*
X124777263Y-32605733D01*
X124777256Y-32605739D01*
X124605739Y-32777256D01*
X124605733Y-32777263D01*
X124458067Y-32969706D01*
X124336777Y-33179785D01*
X124336773Y-33179794D01*
X124243947Y-33403895D01*
X124181161Y-33638214D01*
X124149500Y-33878711D01*
X35850500Y-33878711D01*
X35818838Y-33638211D01*
X35756054Y-33403900D01*
X35663224Y-33179788D01*
X35541936Y-32969711D01*
X35394265Y-32777262D01*
X35394260Y-32777256D01*
X35222743Y-32605739D01*
X35222736Y-32605733D01*
X35030293Y-32458067D01*
X35030292Y-32458066D01*
X35030289Y-32458064D01*
X34820212Y-32336776D01*
X34820205Y-32336773D01*
X34596104Y-32243947D01*
X34361785Y-32181161D01*
X34121289Y-32149500D01*
X34121288Y-32149500D01*
X33878712Y-32149500D01*
X33878711Y-32149500D01*
X33638214Y-32181161D01*
X33403895Y-32243947D01*
X33179794Y-32336773D01*
X33179785Y-32336777D01*
X32969706Y-32458067D01*
X32777263Y-32605733D01*
X32777256Y-32605739D01*
X32605739Y-32777256D01*
X32605733Y-32777263D01*
X32458067Y-32969706D01*
X32336777Y-33179785D01*
X32336773Y-33179794D01*
X32243947Y-33403895D01*
X32181161Y-33638214D01*
X32149500Y-33878711D01*
X30500500Y-33878711D01*
X30500500Y-33503245D01*
X30500670Y-33496756D01*
X30503445Y-33443796D01*
X30516591Y-33192936D01*
X30517945Y-33180064D01*
X30565030Y-32882783D01*
X30567723Y-32870107D01*
X30645627Y-32579367D01*
X30649636Y-32567032D01*
X30691465Y-32458064D01*
X30757493Y-32286054D01*
X30762763Y-32274215D01*
X30899419Y-32006014D01*
X30905885Y-31994815D01*
X31069824Y-31742371D01*
X31077426Y-31731908D01*
X31266858Y-31497978D01*
X31275525Y-31488353D01*
X31488353Y-31275525D01*
X31497978Y-31266858D01*
X31731908Y-31077426D01*
X31742371Y-31069824D01*
X31994815Y-30905885D01*
X32006014Y-30899419D01*
X32274215Y-30762763D01*
X32286054Y-30757493D01*
X32567039Y-30649633D01*
X32579367Y-30645627D01*
X32870107Y-30567723D01*
X32882783Y-30565030D01*
X33180064Y-30517945D01*
X33192936Y-30516591D01*
X33496756Y-30500669D01*
X33503245Y-30500500D01*
X33565892Y-30500500D01*
X57495999Y-30500500D01*
X57563038Y-30520185D01*
G37*
%TD.AperFunction*%
%TD*%
M02*
