%TF.GenerationSoftware,KiCad,Pcbnew,10.0.3-10.0.3~ubuntu26.04.1*%
%TF.CreationDate,2026-06-22T17:47:50+09:00*%
%TF.ProjectId,PowerUnit_Motor,506f7765-7255-46e6-9974-5f4d6f746f72,rev?*%
%TF.SameCoordinates,Original*%
%TF.FileFunction,Legend,Bot*%
%TF.FilePolarity,Positive*%
%FSLAX46Y46*%
G04 Gerber Fmt 4.6, Leading zero omitted, Abs format (unit mm)*
G04 Created by KiCad (PCBNEW 10.0.3-10.0.3~ubuntu26.04.1) date 2026-06-22 17:47:50*
%MOMM*%
%LPD*%
G01*
G04 APERTURE LIST*
G04 Aperture macros list*
%AMRoundRect*
0 Rectangle with rounded corners*
0 $1 Rounding radius*
0 $2 $3 $4 $5 $6 $7 $8 $9 X,Y pos of 4 corners*
0 Add a 4 corners polygon primitive as box body*
4,1,4,$2,$3,$4,$5,$6,$7,$8,$9,$2,$3,0*
0 Add four circle primitives for the rounded corners*
1,1,$1+$1,$2,$3*
1,1,$1+$1,$4,$5*
1,1,$1+$1,$6,$7*
1,1,$1+$1,$8,$9*
0 Add four rect primitives between the rounded corners*
20,1,$1+$1,$2,$3,$4,$5,0*
20,1,$1+$1,$4,$5,$6,$7,0*
20,1,$1+$1,$6,$7,$8,$9,0*
20,1,$1+$1,$8,$9,$2,$3,0*%
G04 Aperture macros list end*
%ADD10C,0.150000*%
%ADD11C,0.152400*%
%ADD12R,0.900000X2.000000*%
%ADD13RoundRect,1.025000X-1.025000X-1.025000X1.025000X-1.025000X1.025000X1.025000X-1.025000X1.025000X0*%
%ADD14C,4.100000*%
%ADD15R,2.000000X0.900000*%
%ADD16RoundRect,1.025000X1.025000X-1.025000X1.025000X1.025000X-1.025000X1.025000X-1.025000X-1.025000X0*%
%ADD17RoundRect,1.025000X1.025000X1.025000X-1.025000X1.025000X-1.025000X-1.025000X1.025000X-1.025000X0*%
%ADD18RoundRect,1.500000X1.500000X1.500000X-1.500000X1.500000X-1.500000X-1.500000X1.500000X-1.500000X0*%
%ADD19C,6.000000*%
%ADD20C,3.200000*%
%ADD21RoundRect,0.250001X0.949999X0.949999X-0.949999X0.949999X-0.949999X-0.949999X0.949999X-0.949999X0*%
%ADD22C,2.400000*%
%ADD23C,1.600000*%
%ADD24R,1.800000X1.800000*%
%ADD25C,1.800000*%
%ADD26RoundRect,0.250001X-0.949999X-0.949999X0.949999X-0.949999X0.949999X0.949999X-0.949999X0.949999X0*%
%ADD27R,3.184400X3.200400*%
G04 APERTURE END LIST*
D10*
X121131105Y-64950180D02*
X121131105Y-65950180D01*
X121131105Y-65950180D02*
X121369200Y-65950180D01*
X121369200Y-65950180D02*
X121512057Y-65902561D01*
X121512057Y-65902561D02*
X121607295Y-65807323D01*
X121607295Y-65807323D02*
X121654914Y-65712085D01*
X121654914Y-65712085D02*
X121702533Y-65521609D01*
X121702533Y-65521609D02*
X121702533Y-65378752D01*
X121702533Y-65378752D02*
X121654914Y-65188276D01*
X121654914Y-65188276D02*
X121607295Y-65093038D01*
X121607295Y-65093038D02*
X121512057Y-64997800D01*
X121512057Y-64997800D02*
X121369200Y-64950180D01*
X121369200Y-64950180D02*
X121131105Y-64950180D01*
X122083486Y-65854942D02*
X122131105Y-65902561D01*
X122131105Y-65902561D02*
X122226343Y-65950180D01*
X122226343Y-65950180D02*
X122464438Y-65950180D01*
X122464438Y-65950180D02*
X122559676Y-65902561D01*
X122559676Y-65902561D02*
X122607295Y-65854942D01*
X122607295Y-65854942D02*
X122654914Y-65759704D01*
X122654914Y-65759704D02*
X122654914Y-65664466D01*
X122654914Y-65664466D02*
X122607295Y-65521609D01*
X122607295Y-65521609D02*
X122035867Y-64950180D01*
X122035867Y-64950180D02*
X122654914Y-64950180D01*
%TO.C,D2*%
D11*
X117678200Y-62166500D02*
X126060200Y-62166500D01*
X117678200Y-63472060D02*
X117678200Y-62166500D01*
X117678200Y-68643500D02*
X117678200Y-67337940D01*
X126060200Y-62166500D02*
X126060200Y-63472060D01*
X126060200Y-67337940D02*
X126060200Y-68643500D01*
X126060200Y-68643500D02*
X117678200Y-68643500D01*
X127853200Y-65405000D02*
X128615200Y-64770000D01*
X127853200Y-65405000D02*
X128615200Y-64897000D01*
X127853200Y-65405000D02*
X128615200Y-65024000D01*
X127853200Y-65405000D02*
X128615200Y-65151000D01*
X127853200Y-65405000D02*
X128615200Y-65278000D01*
X127853200Y-65405000D02*
X128615200Y-65532000D01*
X127853200Y-65405000D02*
X128615200Y-65659000D01*
X127853200Y-65405000D02*
X128615200Y-65786000D01*
X127853200Y-65405000D02*
X128615200Y-65913000D01*
X127853200Y-65405000D02*
X128615200Y-66040000D01*
X127853200Y-66040000D02*
X127853200Y-64770000D01*
X128615200Y-66040000D02*
X128615200Y-64770000D01*
X128869200Y-65405000D02*
X127599200Y-65405000D01*
%TD*%
%LPC*%
D12*
%TO.C,J1*%
X101410000Y-40990000D03*
X114910000Y-40990000D03*
D13*
X104560000Y-46990000D03*
D14*
X111760000Y-46990000D03*
%TD*%
D12*
%TO.C,J9*%
X77495000Y-32000000D03*
X90995000Y-32000000D03*
D13*
X87845000Y-38000000D03*
D14*
X80645000Y-38000000D03*
%TD*%
D15*
%TO.C,J6*%
X32000000Y-73635000D03*
X32000000Y-60135000D03*
D16*
X38000000Y-63285000D03*
D14*
X38000000Y-70485000D03*
%TD*%
D12*
%TO.C,J3*%
X97341667Y-85375000D03*
X83841667Y-85375000D03*
D17*
X86991667Y-79375000D03*
D14*
X94191667Y-79375000D03*
%TD*%
D12*
%TO.C,J5*%
X54585000Y-85375000D03*
X41085000Y-85375000D03*
D17*
X44235000Y-79375000D03*
D14*
X51435000Y-79375000D03*
%TD*%
D18*
%TO.C,J11*%
X68795000Y-55880000D03*
D19*
X61595000Y-55880000D03*
%TD*%
D18*
%TO.C,J10*%
X87845000Y-55880000D03*
D19*
X80645000Y-55880000D03*
%TD*%
D20*
%TO.C,REF\u002A\u002A*%
X126000000Y-83000000D03*
%TD*%
%TO.C,REF\u002A\u002A*%
X126000000Y-34000000D03*
%TD*%
%TO.C,REF\u002A\u002A*%
X34000000Y-83000000D03*
%TD*%
D21*
%TO.C,C4*%
X107315000Y-59055000D03*
D22*
X99815000Y-59055000D03*
%TD*%
D23*
%TO.C,R1*%
X128270000Y-40005000D03*
X128270000Y-42545000D03*
%TD*%
D12*
%TO.C,J4*%
X75963333Y-85375000D03*
X62463333Y-85375000D03*
D17*
X65613333Y-79375000D03*
D14*
X72813333Y-79375000D03*
%TD*%
D12*
%TO.C,J2*%
X118720000Y-85375000D03*
X105220000Y-85375000D03*
D17*
X108370000Y-79375000D03*
D14*
X115570000Y-79375000D03*
%TD*%
D15*
%TO.C,J7*%
X32000000Y-54585000D03*
X32000000Y-41085000D03*
D16*
X38000000Y-44235000D03*
D14*
X38000000Y-51435000D03*
%TD*%
D12*
%TO.C,J8*%
X58445000Y-32000000D03*
X71945000Y-32000000D03*
D13*
X68795000Y-38000000D03*
D14*
X61595000Y-38000000D03*
%TD*%
D20*
%TO.C,REF\u002A\u002A*%
X34000000Y-34000000D03*
%TD*%
D24*
%TO.C,D1*%
X126365000Y-48895000D03*
D25*
X126365000Y-46355000D03*
%TD*%
D26*
%TO.C,C3*%
X116960000Y-59055000D03*
D22*
X124460000Y-59055000D03*
%TD*%
D27*
%TO.C,D2*%
X118245000Y-65405000D03*
X125493400Y-65405000D03*
%TD*%
G36*
X121863039Y-43199685D02*
G01*
X121908794Y-43252489D01*
X121920000Y-43304000D01*
X121920000Y-81791000D01*
X121900315Y-81858039D01*
X121847511Y-81903794D01*
X121796000Y-81915000D01*
X35939000Y-81915000D01*
X35871961Y-81895315D01*
X35826206Y-81842511D01*
X35815000Y-81791000D01*
X35815000Y-49019000D01*
X35834685Y-48951961D01*
X35887489Y-48906206D01*
X35939000Y-48895000D01*
X57026000Y-48895000D01*
X57093039Y-48914685D01*
X57138794Y-48967489D01*
X57150000Y-49019000D01*
X57150000Y-52705000D01*
X85681952Y-52705000D01*
X85748991Y-52724685D01*
X85758788Y-52731675D01*
X97790000Y-62229999D01*
X97790001Y-62230000D01*
X102235000Y-62230000D01*
X102235000Y-54026362D01*
X102254685Y-53959323D01*
X102271319Y-53938681D01*
X107314999Y-48895000D01*
X107315000Y-48894999D01*
X107315000Y-43304000D01*
X107334685Y-43236961D01*
X107387489Y-43191206D01*
X107439000Y-43180000D01*
X121796000Y-43180000D01*
X121863039Y-43199685D01*
G37*
%LPD*%
M02*
