M48
; DRILL file KiCad 10.0.3-10.0.3~ubuntu26.04.1 date 2026-06-22T17:47:50
; FORMAT={-:-/ absolute / inch / decimal}
; #@! TF.CreationDate,2026-06-22T17:47:50+09:00
; #@! TF.GenerationSoftware,Kicad,Pcbnew,10.0.3-10.0.3~ubuntu26.04.1
; #@! TF.FileFunction,Plated,1,2,PTH
FMAT,2
INCH
; #@! TA.AperFunction,Plated,PTH,ViaDrill
T1C0.0197
; #@! TA.AperFunction,Plated,PTH,ComponentDrill
T2C0.0236
; #@! TA.AperFunction,Plated,PTH,ComponentDrill
T3C0.0315
; #@! TA.AperFunction,Plated,PTH,ComponentDrill
T4C0.0354
; #@! TA.AperFunction,Plated,PTH,ComponentDrill
T5C0.0472
; #@! TA.AperFunction,Plated,PTH,ComponentDrill
T6C0.1063
; #@! TA.AperFunction,Plated,PTH,ComponentDrill
T7C0.1772
%
G90
G05
T1
X1.3386Y-1.5748
X1.3386Y-1.7717
X1.3386Y-1.9685
X1.3386Y-2.1654
X1.3386Y-2.3622
X1.3386Y-2.5591
X1.3386Y-2.7559
X1.3386Y-2.9528
X1.5748Y-1.378
X1.5748Y-1.5748
X1.7717Y-1.378
X1.7717Y-1.5748
X1.7717Y-1.7717
X1.7717Y-3.3465
X1.9685Y-1.378
X1.9685Y-1.5748
X1.9685Y-1.7717
X1.9685Y-3.3465
X2.1654Y-1.378
X2.1654Y-1.5748
X2.1654Y-1.7717
X2.3622Y-1.378
X2.3622Y-3.3465
X2.5591Y-1.378
X2.5591Y-3.3465
X2.7559Y-1.378
X2.7559Y-1.7717
X2.7559Y-1.9685
X2.7559Y-3.3465
X2.9528Y-1.378
X3.1496Y-1.378
X3.1496Y-3.3465
X3.3465Y-1.378
X3.5433Y-1.378
X3.5433Y-1.7717
X3.5433Y-1.9685
X3.5433Y-3.3465
X3.7402Y-1.378
X3.7402Y-1.5748
X3.7402Y-1.7717
X3.7402Y-1.9685
X3.7402Y-2.1654
X3.7402Y-3.3465
X3.937Y-1.378
X3.937Y-1.7717
X3.937Y-1.9685
X3.937Y-3.3465
X4.1339Y-1.378
X4.1339Y-1.5748
X4.3307Y-1.378
X4.3307Y-1.5748
X4.3307Y-3.3465
X4.5276Y-1.378
X4.5276Y-3.3465
X4.7244Y-1.378
X4.7244Y-1.5748
X4.9213Y-2.1654
X4.9213Y-2.7559
X4.9213Y-2.9528
T3
X5.05Y-1.575
X5.05Y-1.675
T4
X4.975Y-1.825
X4.975Y-1.925
T5
X3.9297Y-2.325
X4.225Y-2.325
X4.6047Y-2.325
X4.9Y-2.325
T6
X1.4961Y-1.7415
X1.4961Y-2.025
X1.4961Y-2.4915
X1.4961Y-2.775
X1.7415Y-3.125
X2.025Y-3.125
X2.425Y-1.4961
X2.5832Y-3.125
X2.7085Y-1.4961
X2.8667Y-3.125
X3.175Y-1.4961
X3.4249Y-3.125
X3.4585Y-1.4961
X3.7083Y-3.125
X4.1165Y-1.85
X4.2665Y-3.125
X4.4Y-1.85
X4.55Y-3.125
T7
X2.425Y-2.2
X2.7085Y-2.2
X3.175Y-2.2
X3.4585Y-2.2
T2
G00X1.2382Y-1.6175
M15
G01X1.2815Y-1.6175
M16
G05
G00X1.2382Y-2.149
M15
G01X1.2815Y-2.149
M16
G05
G00X1.2382Y-2.3675
M15
G01X1.2815Y-2.3675
M16
G05
G00X1.2382Y-2.899
M15
G01X1.2815Y-2.899
M16
G05
G00X1.6175Y-3.3829
M15
G01X1.6175Y-3.3396
M16
G05
G00X2.149Y-3.3829
M15
G01X2.149Y-3.3396
M16
G05
G00X2.301Y-1.2382
M15
G01X2.301Y-1.2815
M16
G05
G00X2.4592Y-3.3829
M15
G01X2.4592Y-3.3396
M16
G05
G00X2.8325Y-1.2382
M15
G01X2.8325Y-1.2815
M16
G05
G00X2.9907Y-3.3829
M15
G01X2.9907Y-3.3396
M16
G05
G00X3.051Y-1.2382
M15
G01X3.051Y-1.2815
M16
G05
G00X3.3009Y-3.3829
M15
G01X3.3009Y-3.3396
M16
G05
G00X3.5825Y-1.2382
M15
G01X3.5825Y-1.2815
M16
G05
G00X3.8323Y-3.3829
M15
G01X3.8323Y-3.3396
M16
G05
G00X3.9925Y-1.5921
M15
G01X3.9925Y-1.6354
M16
G05
G00X4.1425Y-3.3829
M15
G01X4.1425Y-3.3396
M16
G05
G00X4.524Y-1.5921
M15
G01X4.524Y-1.6354
M16
G05
G00X4.674Y-3.3829
M15
G01X4.674Y-3.3396
M16
G05
M30
