%TF.GenerationSoftware,KiCad,Pcbnew,10.0.3-10.0.3~ubuntu26.04.1*%
%TF.CreationDate,2026-06-22T17:46:59+09:00*%
%TF.ProjectId,PowerUnit_24V,506f7765-7255-46e6-9974-5f3234562e6b,rev?*%
%TF.SameCoordinates,Original*%
%TF.FileFunction,Copper,L1,Top*%
%TF.FilePolarity,Positive*%
%FSLAX46Y46*%
G04 Gerber Fmt 4.6, Leading zero omitted, Abs format (unit mm)*
G04 Created by KiCad (PCBNEW 10.0.3-10.0.3~ubuntu26.04.1) date 2026-06-22 17:46:59*
%MOMM*%
%LPD*%
G01*
G04 APERTURE LIST*
G04 Aperture macros list*
%AMRoundRect*
0 Rectangle with rounded corners*
0 $1 Rounding radius*
0 $2 $3 $4 $5 $6 $7 $8 $9 X,Y pos of 4 corners*
0 Add a 4 corners polygon primitive as box body*
4,1,4,$2,$3,$4,$5,$6,$7,$8,$9,$2,$3,0*
0 Add four circle primitives for the rounded corners*
1,1,$1+$1,$2,$3*
1,1,$1+$1,$4,$5*
1,1,$1+$1,$6,$7*
1,1,$1+$1,$8,$9*
0 Add four rect primitives between the rounded corners*
20,1,$1+$1,$2,$3,$4,$5,0*
20,1,$1+$1,$4,$5,$6,$7,0*
20,1,$1+$1,$6,$7,$8,$9,0*
20,1,$1+$1,$8,$9,$2,$3,0*%
G04 Aperture macros list end*
%TA.AperFunction,ComponentPad*%
%ADD10R,1.717500X1.800000*%
%TD*%
%TA.AperFunction,ComponentPad*%
%ADD11O,1.717500X1.800000*%
%TD*%
%TA.AperFunction,ComponentPad*%
%ADD12C,2.400000*%
%TD*%
%TA.AperFunction,ComponentPad*%
%ADD13RoundRect,0.760000X1.140000X1.140000X-1.140000X1.140000X-1.140000X-1.140000X1.140000X-1.140000X0*%
%TD*%
%TA.AperFunction,ComponentPad*%
%ADD14C,4.000000*%
%TD*%
%TA.AperFunction,ComponentPad*%
%ADD15RoundRect,0.250000X-0.550000X0.550000X-0.550000X-0.550000X0.550000X-0.550000X0.550000X0.550000X0*%
%TD*%
%TA.AperFunction,ComponentPad*%
%ADD16C,1.600000*%
%TD*%
%TA.AperFunction,ComponentPad*%
%ADD17C,3.510000*%
%TD*%
%TA.AperFunction,ComponentPad*%
%ADD18R,3.510000X3.510000*%
%TD*%
%TA.AperFunction,ComponentPad*%
%ADD19RoundRect,0.250000X0.550000X-0.550000X0.550000X0.550000X-0.550000X0.550000X-0.550000X-0.550000X0*%
%TD*%
%TA.AperFunction,ComponentPad*%
%ADD20RoundRect,0.450000X-0.950000X0.450000X-0.950000X-0.450000X0.950000X-0.450000X0.950000X0.450000X0*%
%TD*%
%TA.AperFunction,ComponentPad*%
%ADD21O,2.800000X1.800000*%
%TD*%
%TA.AperFunction,ComponentPad*%
%ADD22R,1.800000X1.800000*%
%TD*%
%TA.AperFunction,ComponentPad*%
%ADD23C,1.800000*%
%TD*%
%TA.AperFunction,ComponentPad*%
%ADD24RoundRect,1.500000X1.500000X1.500000X-1.500000X1.500000X-1.500000X-1.500000X1.500000X-1.500000X0*%
%TD*%
%TA.AperFunction,ComponentPad*%
%ADD25C,6.000000*%
%TD*%
%TA.AperFunction,ComponentPad*%
%ADD26R,0.900000X2.000000*%
%TD*%
%TA.AperFunction,ComponentPad*%
%ADD27RoundRect,1.025000X-1.025000X-1.025000X1.025000X-1.025000X1.025000X1.025000X-1.025000X1.025000X0*%
%TD*%
%TA.AperFunction,ComponentPad*%
%ADD28C,4.100000*%
%TD*%
%TA.AperFunction,ComponentPad*%
%ADD29RoundRect,0.250000X-0.550000X-0.550000X0.550000X-0.550000X0.550000X0.550000X-0.550000X0.550000X0*%
%TD*%
%TA.AperFunction,ComponentPad*%
%ADD30R,1.222000X1.222000*%
%TD*%
%TA.AperFunction,ComponentPad*%
%ADD31C,1.222000*%
%TD*%
%TA.AperFunction,ComponentPad*%
%ADD32RoundRect,0.450000X-0.450000X-0.950000X0.450000X-0.950000X0.450000X0.950000X-0.450000X0.950000X0*%
%TD*%
%TA.AperFunction,ComponentPad*%
%ADD33O,1.800000X2.800000*%
%TD*%
%TA.AperFunction,ComponentPad*%
%ADD34RoundRect,0.450000X0.950000X-0.450000X0.950000X0.450000X-0.950000X0.450000X-0.950000X-0.450000X0*%
%TD*%
%TA.AperFunction,ComponentPad*%
%ADD35R,2.700000X2.700000*%
%TD*%
%TA.AperFunction,ComponentPad*%
%ADD36C,2.700000*%
%TD*%
%TA.AperFunction,ComponentPad*%
%ADD37R,2.025000X2.025000*%
%TD*%
%TA.AperFunction,ComponentPad*%
%ADD38C,2.025000*%
%TD*%
%TA.AperFunction,ViaPad*%
%ADD39C,0.600000*%
%TD*%
G04 APERTURE END LIST*
D10*
%TO.P,Q1,1,G_1*%
%TO.N,Net-(Q1-G)*%
X62405000Y-42860000D03*
D11*
%TO.P,Q1,2,D_2*%
%TO.N,Net-(Q1-D)*%
X60115000Y-42860000D03*
%TO.P,Q1,3,S_3*%
%TO.N,GNDPWR*%
X57825000Y-42860000D03*
%TD*%
D12*
%TO.P,R12,1*%
%TO.N,Net-(K1-Pad30)*%
X60500000Y-75880000D03*
%TO.P,R12,2*%
%TO.N,+24V_CTRL*%
X52880000Y-75880000D03*
%TD*%
D13*
%TO.P,J7,1,Pin_1_1*%
%TO.N,GND*%
X27940000Y-33335000D03*
D14*
%TO.P,J7,2,Pin_2_2*%
%TO.N,+24V_CTRL*%
X22940000Y-33335000D03*
%TD*%
D15*
%TO.P,C11,1*%
%TO.N,+12V*%
X70025000Y-32065000D03*
D16*
%TO.P,C11,2*%
%TO.N,Net-(D4-K)*%
X70025000Y-34065000D03*
%TD*%
D17*
%TO.P,K1,30*%
%TO.N,Net-(K1-Pad30)*%
X91615000Y-55560000D03*
%TO.P,K1,85*%
%TO.N,GNDPWR*%
X100045000Y-46060000D03*
D18*
%TO.P,K1,86*%
%TO.N,Net-(J13-Pin_2)*%
X100045000Y-55970000D03*
D17*
%TO.P,K1,87*%
%TO.N,/Vsense1*%
X108475000Y-55560000D03*
%TO.P,K1,87a*%
%TO.N,Net-(K1-Pad87a)*%
X100045000Y-63970000D03*
%TD*%
D13*
%TO.P,J8,1,Pin_1_1*%
%TO.N,GND*%
X53975000Y-23175000D03*
D14*
%TO.P,J8,2,Pin_2_2*%
%TO.N,+24V_CTRL*%
X48975000Y-23175000D03*
%TD*%
D19*
%TO.P,C12,1*%
%TO.N,+3.3V*%
X62278000Y-24953000D03*
D16*
%TO.P,C12,2*%
%TO.N,GND*%
X62278000Y-22953000D03*
%TD*%
D15*
%TO.P,D4,1,K_1*%
%TO.N,Net-(D4-K)*%
X70787000Y-37145000D03*
D16*
%TO.P,D4,2,A_2*%
%TO.N,GND*%
X70787000Y-39685000D03*
%TD*%
%TO.P,R7,1*%
%TO.N,Net-(F1-Pad2)*%
X108760000Y-21905000D03*
%TO.P,R7,2*%
%TO.N,Net-(D3-A)*%
X106220000Y-21905000D03*
%TD*%
D20*
%TO.P,J13,1,Pin_1_1*%
%TO.N,/Vsense1*%
X109374560Y-66398507D03*
D21*
%TO.P,J13,2,Pin_2_2*%
%TO.N,Net-(J13-Pin_2)*%
X109374560Y-68898507D03*
%TD*%
D22*
%TO.P,D6,1,K_1*%
%TO.N,GNDPWR*%
X24940000Y-73975000D03*
D23*
%TO.P,D6,2,A_2*%
%TO.N,Net-(D6-A)*%
X22400000Y-73975000D03*
%TD*%
D24*
%TO.P,J2,1,Pin_1_1*%
%TO.N,GNDPWR*%
X42935000Y-90485000D03*
D25*
%TO.P,J2,2,Pin_2_2*%
%TO.N,+24V_DRV*%
X35735000Y-90485000D03*
%TD*%
D26*
%TO.P,J1,*%
%TO.N,*%
X83170000Y-30510000D03*
X96670000Y-30510000D03*
D27*
%TO.P,J1,1,Pin_1_1*%
%TO.N,GNDPWR*%
X86320000Y-36510000D03*
D28*
%TO.P,J1,2,Pin_2_2*%
%TO.N,Net-(J1-Pin_2)*%
X93520000Y-36510000D03*
%TD*%
D29*
%TO.P,U2,1,GND_1*%
%TO.N,GND*%
X57965000Y-30165000D03*
D16*
%TO.P,U2,2,TRIG_2*%
%TO.N,Net-(D4-K)*%
X57965000Y-32705000D03*
%TO.P,U2,3,OUT_3*%
%TO.N,Net-(U2-OUT)*%
X57965000Y-35245000D03*
%TO.P,U2,4,~{RST}_4*%
%TO.N,+12V*%
X57965000Y-37785000D03*
%TO.P,U2,5,CONT_5*%
%TO.N,Net-(U2-CONT)*%
X65585000Y-37785000D03*
%TO.P,U2,6,THRES_6*%
%TO.N,Net-(D4-K)*%
X65585000Y-35245000D03*
%TO.P,U2,7,DISCH_7*%
%TO.N,unconnected-(U2-DISCH-Pad7)*%
X65585000Y-32705000D03*
%TO.P,U2,8,VCC_8*%
%TO.N,+12V*%
X65585000Y-30165000D03*
%TD*%
D24*
%TO.P,J5,1,Pin_1_1*%
%TO.N,GNDPWR*%
X96275000Y-90485000D03*
D25*
%TO.P,J5,2,Pin_2_2*%
%TO.N,+24V_DRV*%
X89075000Y-90485000D03*
%TD*%
D16*
%TO.P,R10,1*%
%TO.N,+24V_CTRL*%
X22400000Y-64450000D03*
%TO.P,R10,2*%
%TO.N,Net-(D6-A)*%
X22400000Y-66990000D03*
%TD*%
D17*
%TO.P,K3,30*%
%TO.N,+24V_DRV*%
X29845000Y-55560000D03*
%TO.P,K3,85*%
%TO.N,GNDPWR*%
X38275000Y-46060000D03*
D18*
%TO.P,K3,86*%
%TO.N,Net-(J19-Pin_2)*%
X38275000Y-55970000D03*
D17*
%TO.P,K3,87*%
%TO.N,+24V_CTRL*%
X46705000Y-55560000D03*
%TO.P,K3,87a*%
%TO.N,Net-(K3-Pad87a)*%
X38275000Y-63970000D03*
%TD*%
%TO.P,K2,30*%
%TO.N,+24V_CTRL*%
X60785000Y-55535000D03*
%TO.P,K2,85*%
%TO.N,Net-(Q1-D)*%
X69215000Y-46035000D03*
D18*
%TO.P,K2,86*%
%TO.N,Net-(K1-Pad30)*%
X69215000Y-55945000D03*
D17*
%TO.P,K2,87*%
X77645000Y-55535000D03*
%TO.P,K2,87a*%
%TO.N,unconnected-(K2-Pad87a)*%
X69215000Y-63945000D03*
%TD*%
D22*
%TO.P,D3,1,K_1*%
%TO.N,GNDPWR*%
X101775000Y-24445000D03*
D23*
%TO.P,D3,2,A_2*%
%TO.N,Net-(D3-A)*%
X101775000Y-21905000D03*
%TD*%
D22*
%TO.P,D5,1,K_1*%
%TO.N,GNDPWR*%
X24940000Y-84135000D03*
D23*
%TO.P,D5,2,A_2*%
%TO.N,Net-(D5-A)*%
X22400000Y-84135000D03*
%TD*%
D30*
%TO.P,RV2,1,1_1*%
%TO.N,Net-(R13-Pad2)*%
X74343000Y-37145000D03*
D31*
%TO.P,RV2,2,2_2*%
%TO.N,GND*%
X76883000Y-34605000D03*
%TO.P,RV2,3,3_3*%
%TO.N,unconnected-(RV2-Pad3)*%
X79423000Y-37145000D03*
%TD*%
D24*
%TO.P,J3,1,Pin_1_1*%
%TO.N,GNDPWR*%
X60715000Y-90485000D03*
D25*
%TO.P,J3,2,Pin_2_2*%
%TO.N,+24V_DRV*%
X53515000Y-90485000D03*
%TD*%
D32*
%TO.P,J10,1,Pin_1_1*%
%TO.N,GND*%
X70486000Y-24953000D03*
D33*
%TO.P,J10,2,Pin_2_2*%
%TO.N,/I2C_SCL*%
X72986000Y-24953000D03*
%TO.P,J10,3,Pin_3_3*%
%TO.N,+3.3V*%
X75486000Y-24953000D03*
%TO.P,J10,4,Pin_4_4*%
%TO.N,/I2C_SDA*%
X77986000Y-24953000D03*
%TD*%
D34*
%TO.P,J12,1,Pin_1_1*%
%TO.N,GNDPWR*%
X115745000Y-79335000D03*
D21*
%TO.P,J12,2,Pin_2_2*%
%TO.N,/Vsense1*%
X115745000Y-76835000D03*
%TD*%
D16*
%TO.P,R9,1*%
%TO.N,+24V_DRV*%
X24940000Y-79055000D03*
%TO.P,R9,2*%
%TO.N,Net-(D5-A)*%
X22400000Y-79055000D03*
%TD*%
D24*
%TO.P,J4,1,Pin_1_1*%
%TO.N,GNDPWR*%
X78495000Y-90485000D03*
D25*
%TO.P,J4,2,Pin_2_2*%
%TO.N,+24V_DRV*%
X71295000Y-90485000D03*
%TD*%
D12*
%TO.P,R17,1*%
%TO.N,GNDPWR*%
X43355000Y-73340000D03*
%TO.P,R17,2*%
%TO.N,Net-(K3-Pad87a)*%
X38275000Y-73340000D03*
%TD*%
D34*
%TO.P,J19,1,Pin_1_1*%
%TO.N,+24V_CTRL*%
X30020000Y-46670000D03*
D21*
%TO.P,J19,2,Pin_2_2*%
%TO.N,Net-(J19-Pin_2)*%
X30020000Y-44170000D03*
%TD*%
D13*
%TO.P,J6,1,Pin_1_1*%
%TO.N,GND*%
X37465000Y-23175000D03*
D14*
%TO.P,J6,2,Pin_2_2*%
%TO.N,+24V_CTRL*%
X32465000Y-23175000D03*
%TD*%
D13*
%TO.P,J9,1,Pin_1_1*%
%TO.N,GND*%
X44450000Y-33335000D03*
D14*
%TO.P,J9,2,Pin_2_2*%
%TO.N,+24V_CTRL*%
X39450000Y-33335000D03*
%TD*%
D35*
%TO.P,F1,1*%
%TO.N,Net-(J1-Pin_2)*%
X102918000Y-30160000D03*
D36*
X102918000Y-33563600D03*
%TO.P,F1,2*%
%TO.N,Net-(F1-Pad2)*%
X116380000Y-30160000D03*
X116380000Y-33563600D03*
%TD*%
D37*
%TO.P,U3,1,VI_1*%
%TO.N,+24V_CTRL*%
X53515000Y-35875000D03*
D38*
%TO.P,U3,2,GND_2*%
%TO.N,GND*%
X53515000Y-33335000D03*
%TO.P,U3,3,VO_3*%
%TO.N,+12V*%
X53515000Y-30795000D03*
%TD*%
D12*
%TO.P,R8,1*%
%TO.N,GNDPWR*%
X103030000Y-73340000D03*
%TO.P,R8,2*%
%TO.N,Net-(K1-Pad87a)*%
X97950000Y-73340000D03*
%TD*%
D39*
%TO.N,GNDPWR*%
X110000000Y-90000000D03*
X105000000Y-27500000D03*
X21000000Y-71000000D03*
X92500000Y-27500000D03*
X64500000Y-42000000D03*
X87500000Y-22500000D03*
X87500000Y-30000000D03*
X100000000Y-75000000D03*
X65000000Y-70000000D03*
X55000000Y-70000000D03*
X85000000Y-75000000D03*
X107500000Y-25000000D03*
X21000000Y-88000000D03*
X90000000Y-22500000D03*
X117500000Y-75000000D03*
X97500000Y-25000000D03*
X83000000Y-37000000D03*
X87000000Y-34000000D03*
X100000000Y-85000000D03*
X85000000Y-30000000D03*
X86000000Y-34000000D03*
X117500000Y-70000000D03*
X45000000Y-65000000D03*
X24000000Y-62000000D03*
X87000000Y-33000000D03*
X87500000Y-25000000D03*
X85000000Y-32000000D03*
X100000000Y-80000000D03*
X110000000Y-27500000D03*
X92500000Y-22500000D03*
X85000000Y-33000000D03*
X95000000Y-22500000D03*
X112500000Y-60000000D03*
X112500000Y-65000000D03*
X90000000Y-25000000D03*
X45000000Y-70000000D03*
X25000000Y-59000000D03*
X117500000Y-60000000D03*
X50000000Y-70000000D03*
X100000000Y-27500000D03*
X26670000Y-42545000D03*
X112500000Y-62500000D03*
X107500000Y-27500000D03*
X97500000Y-22500000D03*
X22000000Y-43000000D03*
X86000000Y-33000000D03*
X90000000Y-27500000D03*
X65000000Y-65000000D03*
X117500000Y-62500000D03*
X85000000Y-22500000D03*
X110000000Y-75000000D03*
X95000000Y-25000000D03*
X105000000Y-75000000D03*
X21000000Y-62000000D03*
X95000000Y-27500000D03*
X115000000Y-62500000D03*
X100000000Y-25000000D03*
X95000000Y-85000000D03*
X117500000Y-65000000D03*
X86000000Y-32000000D03*
X100000000Y-50000000D03*
X25000000Y-52000000D03*
X83000000Y-35000000D03*
X110000000Y-85000000D03*
X80000000Y-75000000D03*
X50000000Y-65000000D03*
X27000000Y-88000000D03*
X75000000Y-75000000D03*
X110000000Y-32500000D03*
X102500000Y-27500000D03*
X85000000Y-34000000D03*
X107500000Y-32500000D03*
X66000000Y-44500000D03*
X100000000Y-60000000D03*
X105000000Y-25000000D03*
X95000000Y-70000000D03*
X92500000Y-25000000D03*
X60000000Y-65000000D03*
X110000000Y-80000000D03*
X90000000Y-75000000D03*
X110000000Y-35000000D03*
X105000000Y-80000000D03*
X110000000Y-30000000D03*
X24000000Y-69000000D03*
X85000000Y-25000000D03*
X95000000Y-80000000D03*
X105000000Y-85000000D03*
X50000000Y-75000000D03*
X87500000Y-27500000D03*
X83000000Y-36000000D03*
X115000000Y-60000000D03*
X117500000Y-67500000D03*
X70000000Y-60000000D03*
X115000000Y-85000000D03*
X70000000Y-75000000D03*
X105000000Y-90000000D03*
X107500000Y-30000000D03*
X55000000Y-65000000D03*
X117500000Y-72500000D03*
X105000000Y-70000000D03*
X87000000Y-32000000D03*
X60000000Y-70000000D03*
X70000000Y-50000000D03*
X21000000Y-52000000D03*
X85000000Y-27500000D03*
X115000000Y-65000000D03*
X97500000Y-27500000D03*
X95000000Y-65000000D03*
X75000000Y-45000000D03*
%TO.N,GND*%
X72500000Y-35000000D03*
X50000000Y-30500000D03*
X81000000Y-29000000D03*
X64000000Y-31500000D03*
X61000000Y-30500000D03*
X81000000Y-26000000D03*
X81000000Y-30000000D03*
X81000000Y-27000000D03*
X81000000Y-31000000D03*
X77500000Y-40000000D03*
X73000000Y-21000000D03*
X66000000Y-21000000D03*
X50000000Y-28000000D03*
X60500000Y-38000000D03*
X81000000Y-25000000D03*
X81000000Y-32000000D03*
X60000000Y-34500000D03*
X81000000Y-28000000D03*
X80000000Y-22500000D03*
X106000000Y-45000000D03*
X68000000Y-36000000D03*
X103500000Y-45000000D03*
X100500000Y-36000000D03*
X63500000Y-38000000D03*
X67500000Y-40000000D03*
X81200000Y-34800000D03*
X75000000Y-27500000D03*
X62500000Y-34500000D03*
%TD*%
%TA.AperFunction,Conductor*%
%TO.N,GNDPWR*%
G36*
X114685653Y-34438205D02*
G01*
X114696966Y-34437009D01*
X114718572Y-34447871D01*
X114741777Y-34454685D01*
X114750662Y-34464004D01*
X114759391Y-34468392D01*
X114781489Y-34495911D01*
X114781798Y-34496434D01*
X114838064Y-34593889D01*
X114838066Y-34593892D01*
X114838067Y-34593893D01*
X114843844Y-34601422D01*
X114843846Y-34601425D01*
X114985726Y-34786328D01*
X114985730Y-34786333D01*
X114985733Y-34786336D01*
X114985739Y-34786343D01*
X114985747Y-34786351D01*
X115157242Y-34957847D01*
X115157256Y-34957860D01*
X115157262Y-34957865D01*
X115349711Y-35105536D01*
X115559788Y-35226824D01*
X115783900Y-35319654D01*
X116018211Y-35382438D01*
X116198586Y-35406184D01*
X116258710Y-35414100D01*
X116258711Y-35414100D01*
X116258712Y-35414100D01*
X116501283Y-35414100D01*
X116501289Y-35414100D01*
X116549388Y-35407767D01*
X116741789Y-35382438D01*
X116976100Y-35319654D01*
X117200212Y-35226824D01*
X117410289Y-35105536D01*
X117602738Y-34957865D01*
X117774265Y-34786338D01*
X117921936Y-34593889D01*
X117977875Y-34496999D01*
X118028442Y-34448784D01*
X118085262Y-34435000D01*
X119375500Y-34435000D01*
X119442539Y-34454685D01*
X119488294Y-34507489D01*
X119499500Y-34559000D01*
X119499500Y-92430148D01*
X119499457Y-92433361D01*
X119499373Y-92436602D01*
X119499372Y-92436640D01*
X119499245Y-92439848D01*
X119483579Y-92738787D01*
X119483070Y-92745260D01*
X119482389Y-92751739D01*
X119481541Y-92758175D01*
X119435480Y-93048987D01*
X119434301Y-93055354D01*
X119432950Y-93061714D01*
X119431431Y-93068043D01*
X119355216Y-93352481D01*
X119353370Y-93358712D01*
X119351360Y-93364897D01*
X119349195Y-93371010D01*
X119243670Y-93645912D01*
X119241189Y-93651901D01*
X119238560Y-93657807D01*
X119235762Y-93663675D01*
X119102065Y-93926070D01*
X119098961Y-93931785D01*
X119095715Y-93937406D01*
X119092329Y-93942931D01*
X118931959Y-94189880D01*
X118928284Y-94195227D01*
X118924467Y-94200481D01*
X118920513Y-94205635D01*
X118735188Y-94434492D01*
X118730969Y-94439432D01*
X118726635Y-94444245D01*
X118722169Y-94448950D01*
X118513950Y-94657169D01*
X118509245Y-94661635D01*
X118504432Y-94665969D01*
X118499492Y-94670188D01*
X118270635Y-94855513D01*
X118265481Y-94859467D01*
X118260227Y-94863284D01*
X118254880Y-94866959D01*
X118007931Y-95027329D01*
X118002406Y-95030715D01*
X117996785Y-95033961D01*
X117991070Y-95037065D01*
X117728675Y-95170762D01*
X117722807Y-95173560D01*
X117716901Y-95176189D01*
X117710912Y-95178670D01*
X117436010Y-95284195D01*
X117429897Y-95286360D01*
X117423712Y-95288370D01*
X117417481Y-95290216D01*
X117133043Y-95366431D01*
X117126714Y-95367950D01*
X117120354Y-95369301D01*
X117113987Y-95370480D01*
X116823175Y-95416541D01*
X116816739Y-95417389D01*
X116810260Y-95418070D01*
X116803787Y-95418579D01*
X116504849Y-95434245D01*
X116501641Y-95434371D01*
X116498362Y-95434457D01*
X116495149Y-95434500D01*
X23504851Y-95434500D01*
X23501636Y-95434457D01*
X23498358Y-95434371D01*
X23495150Y-95434245D01*
X23196211Y-95418579D01*
X23189738Y-95418070D01*
X23183259Y-95417389D01*
X23176823Y-95416541D01*
X22886011Y-95370480D01*
X22879644Y-95369301D01*
X22873284Y-95367950D01*
X22866955Y-95366431D01*
X22582517Y-95290216D01*
X22576286Y-95288370D01*
X22570101Y-95286360D01*
X22564004Y-95284200D01*
X22289086Y-95178670D01*
X22283097Y-95176189D01*
X22277191Y-95173560D01*
X22271323Y-95170762D01*
X22143585Y-95105676D01*
X22143584Y-95105675D01*
X22008908Y-95037053D01*
X22003204Y-95033956D01*
X21997613Y-95030728D01*
X21992078Y-95027336D01*
X21745111Y-94866954D01*
X21739764Y-94863279D01*
X21734521Y-94859470D01*
X21729367Y-94855516D01*
X21500506Y-94670188D01*
X21495586Y-94665986D01*
X21490735Y-94661617D01*
X21486048Y-94657169D01*
X21277829Y-94448950D01*
X21273381Y-94444265D01*
X21269010Y-94439409D01*
X21264810Y-94434491D01*
X21223713Y-94383740D01*
X21223713Y-94383741D01*
X21079468Y-94205613D01*
X21075523Y-94200471D01*
X21071717Y-94195232D01*
X21068043Y-94189886D01*
X20913422Y-93951789D01*
X20907650Y-93942901D01*
X20904278Y-93937399D01*
X20901033Y-93931778D01*
X20897945Y-93926091D01*
X20764237Y-93663675D01*
X20761443Y-93657816D01*
X20758813Y-93651909D01*
X20756330Y-93645917D01*
X20696904Y-93491106D01*
X20650790Y-93370974D01*
X20648636Y-93364893D01*
X20646620Y-93358687D01*
X20644775Y-93352453D01*
X20644626Y-93351895D01*
X20568564Y-93068031D01*
X20567049Y-93061718D01*
X20565701Y-93055375D01*
X20564527Y-93049047D01*
X20554904Y-92988285D01*
X20518451Y-92758136D01*
X20517607Y-92751725D01*
X20516928Y-92745274D01*
X20516422Y-92738843D01*
X20500753Y-92439839D01*
X20500629Y-92436678D01*
X20500541Y-92433324D01*
X20500500Y-92430148D01*
X20500500Y-91813710D01*
X22149500Y-91813710D01*
X22149500Y-92056288D01*
X22181160Y-92296781D01*
X22243947Y-92531104D01*
X22261198Y-92572751D01*
X22336774Y-92755208D01*
X22336779Y-92755219D01*
X22458060Y-92965283D01*
X22458062Y-92965286D01*
X22458281Y-92965615D01*
X22459284Y-92966879D01*
X22605726Y-93157728D01*
X22605730Y-93157733D01*
X22605733Y-93157736D01*
X22605739Y-93157743D01*
X22777256Y-93329260D01*
X22777263Y-93329266D01*
X22777266Y-93329268D01*
X22777270Y-93329272D01*
X22890321Y-93416018D01*
X22969711Y-93476936D01*
X23179788Y-93598224D01*
X23403900Y-93691054D01*
X23638211Y-93753838D01*
X23818586Y-93777584D01*
X23878710Y-93785500D01*
X23878711Y-93785500D01*
X23878712Y-93785500D01*
X24121283Y-93785500D01*
X24121289Y-93785500D01*
X24169388Y-93779167D01*
X24361789Y-93753838D01*
X24596100Y-93691054D01*
X24820212Y-93598224D01*
X25030289Y-93476936D01*
X25222738Y-93329265D01*
X25394265Y-93157738D01*
X25541936Y-92965289D01*
X25663224Y-92755212D01*
X25756054Y-92531100D01*
X25818838Y-92296789D01*
X25850500Y-92056288D01*
X25850500Y-91813712D01*
X25818838Y-91573211D01*
X25756054Y-91338900D01*
X25663224Y-91114788D01*
X25541936Y-90904711D01*
X25394265Y-90712262D01*
X25394260Y-90712256D01*
X25394259Y-90712255D01*
X25394247Y-90712242D01*
X25222751Y-90540747D01*
X25222743Y-90540739D01*
X25222736Y-90540733D01*
X25050227Y-90408363D01*
X25050226Y-90408362D01*
X25030294Y-90393067D01*
X25030285Y-90393062D01*
X24891673Y-90313034D01*
X32234500Y-90313034D01*
X32234500Y-90656965D01*
X32239947Y-90712270D01*
X32268209Y-90999246D01*
X32268209Y-90999247D01*
X32335306Y-91336566D01*
X32435151Y-91665711D01*
X32566488Y-91982785D01*
X32566723Y-91983364D01*
X32566768Y-91983459D01*
X32566770Y-91983464D01*
X32566772Y-91983469D01*
X32728893Y-92286775D01*
X32728904Y-92286793D01*
X32919975Y-92572751D01*
X32919981Y-92572760D01*
X32919992Y-92572774D01*
X32919994Y-92572777D01*
X33138180Y-92838637D01*
X33381360Y-93081817D01*
X33381437Y-93081886D01*
X33381970Y-93082318D01*
X33647240Y-93300019D01*
X33753454Y-93370989D01*
X33933214Y-93491101D01*
X33933877Y-93491469D01*
X33934659Y-93491873D01*
X34133631Y-93598226D01*
X34231230Y-93650394D01*
X34235503Y-93652678D01*
X34235504Y-93652679D01*
X34240001Y-93655083D01*
X34244978Y-93656727D01*
X34554295Y-93784850D01*
X34883422Y-93884690D01*
X35220750Y-93951789D01*
X35563031Y-93985500D01*
X35563034Y-93985500D01*
X35906966Y-93985500D01*
X35906969Y-93985500D01*
X36249250Y-93951789D01*
X36586578Y-93884690D01*
X36915705Y-93784850D01*
X37233462Y-93653231D01*
X37536787Y-93491100D01*
X37822760Y-93300019D01*
X38088627Y-93081828D01*
X38331828Y-92838627D01*
X38550019Y-92572760D01*
X38741100Y-92286787D01*
X38903231Y-91983462D01*
X39034850Y-91665705D01*
X39134690Y-91336578D01*
X39201789Y-90999250D01*
X39235500Y-90656969D01*
X39235500Y-90313034D01*
X50014500Y-90313034D01*
X50014500Y-90656965D01*
X50019947Y-90712270D01*
X50048209Y-90999246D01*
X50048209Y-90999247D01*
X50115306Y-91336566D01*
X50215151Y-91665711D01*
X50346488Y-91982785D01*
X50346723Y-91983364D01*
X50346768Y-91983459D01*
X50346770Y-91983464D01*
X50346772Y-91983469D01*
X50508893Y-92286775D01*
X50508904Y-92286793D01*
X50699975Y-92572751D01*
X50699981Y-92572760D01*
X50699992Y-92572774D01*
X50699994Y-92572777D01*
X50918180Y-92838637D01*
X51161360Y-93081817D01*
X51161437Y-93081886D01*
X51161970Y-93082318D01*
X51427240Y-93300019D01*
X51533454Y-93370989D01*
X51713214Y-93491101D01*
X51713877Y-93491469D01*
X51714659Y-93491873D01*
X51913631Y-93598226D01*
X52011230Y-93650394D01*
X52015503Y-93652678D01*
X52015504Y-93652679D01*
X52020001Y-93655083D01*
X52024978Y-93656727D01*
X52334295Y-93784850D01*
X52663422Y-93884690D01*
X53000750Y-93951789D01*
X53343031Y-93985500D01*
X53343034Y-93985500D01*
X53686966Y-93985500D01*
X53686969Y-93985500D01*
X54029250Y-93951789D01*
X54366578Y-93884690D01*
X54695705Y-93784850D01*
X55013462Y-93653231D01*
X55316787Y-93491100D01*
X55602760Y-93300019D01*
X55868627Y-93081828D01*
X56111828Y-92838627D01*
X56330019Y-92572760D01*
X56521100Y-92286787D01*
X56683231Y-91983462D01*
X56814850Y-91665705D01*
X56914690Y-91336578D01*
X56981789Y-90999250D01*
X57015500Y-90656969D01*
X57015500Y-90313034D01*
X67794500Y-90313034D01*
X67794500Y-90656965D01*
X67799947Y-90712270D01*
X67828209Y-90999246D01*
X67828209Y-90999247D01*
X67895306Y-91336566D01*
X67995151Y-91665711D01*
X68126488Y-91982785D01*
X68126723Y-91983364D01*
X68126768Y-91983459D01*
X68126770Y-91983464D01*
X68126772Y-91983469D01*
X68288893Y-92286775D01*
X68288904Y-92286793D01*
X68479975Y-92572751D01*
X68479981Y-92572760D01*
X68479992Y-92572774D01*
X68479994Y-92572777D01*
X68698180Y-92838637D01*
X68941360Y-93081817D01*
X68941437Y-93081886D01*
X68941970Y-93082318D01*
X69207240Y-93300019D01*
X69313454Y-93370989D01*
X69493214Y-93491101D01*
X69493877Y-93491469D01*
X69494659Y-93491873D01*
X69693631Y-93598226D01*
X69791230Y-93650394D01*
X69795503Y-93652678D01*
X69795504Y-93652679D01*
X69800001Y-93655083D01*
X69804978Y-93656727D01*
X70114295Y-93784850D01*
X70443422Y-93884690D01*
X70780750Y-93951789D01*
X71123031Y-93985500D01*
X71123034Y-93985500D01*
X71466966Y-93985500D01*
X71466969Y-93985500D01*
X71809250Y-93951789D01*
X72146578Y-93884690D01*
X72475705Y-93784850D01*
X72793462Y-93653231D01*
X73096787Y-93491100D01*
X73382760Y-93300019D01*
X73648627Y-93081828D01*
X73891828Y-92838627D01*
X74110019Y-92572760D01*
X74301100Y-92286787D01*
X74463231Y-91983462D01*
X74594850Y-91665705D01*
X74694690Y-91336578D01*
X74761789Y-90999250D01*
X74795500Y-90656969D01*
X74795500Y-90313034D01*
X85574500Y-90313034D01*
X85574500Y-90656965D01*
X85579947Y-90712270D01*
X85608209Y-90999246D01*
X85608209Y-90999247D01*
X85675306Y-91336566D01*
X85775151Y-91665711D01*
X85906488Y-91982785D01*
X85906723Y-91983364D01*
X85906768Y-91983459D01*
X85906770Y-91983464D01*
X85906772Y-91983469D01*
X86068893Y-92286775D01*
X86068904Y-92286793D01*
X86259975Y-92572751D01*
X86259981Y-92572760D01*
X86259992Y-92572774D01*
X86259994Y-92572777D01*
X86478180Y-92838637D01*
X86721360Y-93081817D01*
X86721437Y-93081886D01*
X86721970Y-93082318D01*
X86987240Y-93300019D01*
X87093454Y-93370989D01*
X87273214Y-93491101D01*
X87273877Y-93491469D01*
X87274659Y-93491873D01*
X87473631Y-93598226D01*
X87571230Y-93650394D01*
X87575503Y-93652678D01*
X87575504Y-93652679D01*
X87580001Y-93655083D01*
X87584978Y-93656727D01*
X87894295Y-93784850D01*
X88223422Y-93884690D01*
X88560750Y-93951789D01*
X88903031Y-93985500D01*
X88903034Y-93985500D01*
X89246966Y-93985500D01*
X89246969Y-93985500D01*
X89589250Y-93951789D01*
X89926578Y-93884690D01*
X90255705Y-93784850D01*
X90573462Y-93653231D01*
X90876787Y-93491100D01*
X91162760Y-93300019D01*
X91428627Y-93081828D01*
X91671828Y-92838627D01*
X91890019Y-92572760D01*
X92081100Y-92286787D01*
X92243231Y-91983462D01*
X92313544Y-91813710D01*
X114149500Y-91813710D01*
X114149500Y-92056288D01*
X114181160Y-92296781D01*
X114243947Y-92531104D01*
X114261198Y-92572751D01*
X114336774Y-92755208D01*
X114336779Y-92755219D01*
X114458060Y-92965283D01*
X114458062Y-92965286D01*
X114458281Y-92965615D01*
X114459284Y-92966879D01*
X114605726Y-93157728D01*
X114605730Y-93157733D01*
X114605733Y-93157736D01*
X114605739Y-93157743D01*
X114777256Y-93329260D01*
X114777263Y-93329266D01*
X114777266Y-93329268D01*
X114777270Y-93329272D01*
X114890321Y-93416018D01*
X114969711Y-93476936D01*
X115179788Y-93598224D01*
X115403900Y-93691054D01*
X115638211Y-93753838D01*
X115818586Y-93777584D01*
X115878710Y-93785500D01*
X115878711Y-93785500D01*
X115878712Y-93785500D01*
X116121283Y-93785500D01*
X116121289Y-93785500D01*
X116169388Y-93779167D01*
X116361789Y-93753838D01*
X116596100Y-93691054D01*
X116820212Y-93598224D01*
X117030289Y-93476936D01*
X117222738Y-93329265D01*
X117394265Y-93157738D01*
X117541936Y-92965289D01*
X117663224Y-92755212D01*
X117756054Y-92531100D01*
X117818838Y-92296789D01*
X117850500Y-92056288D01*
X117850500Y-91813712D01*
X117818838Y-91573211D01*
X117756054Y-91338900D01*
X117663224Y-91114788D01*
X117541936Y-90904711D01*
X117394265Y-90712262D01*
X117394260Y-90712256D01*
X117394259Y-90712255D01*
X117394247Y-90712242D01*
X117222751Y-90540747D01*
X117222743Y-90540739D01*
X117222736Y-90540733D01*
X117222733Y-90540730D01*
X117222728Y-90540726D01*
X117031879Y-90394284D01*
X117030615Y-90393281D01*
X117030286Y-90393062D01*
X117030283Y-90393060D01*
X116820220Y-90271780D01*
X116820207Y-90271773D01*
X116820203Y-90271772D01*
X116596104Y-90178947D01*
X116361785Y-90116161D01*
X116361784Y-90116160D01*
X116361781Y-90116160D01*
X116121290Y-90084500D01*
X116121289Y-90084500D01*
X116121288Y-90084500D01*
X115878712Y-90084500D01*
X115878711Y-90084500D01*
X115878710Y-90084500D01*
X115638217Y-90116160D01*
X115403894Y-90178947D01*
X115179790Y-90271774D01*
X115179782Y-90271778D01*
X114969706Y-90393067D01*
X114969697Y-90393073D01*
X114777270Y-90540726D01*
X114777255Y-90540740D01*
X114777247Y-90540747D01*
X114605747Y-90712247D01*
X114605740Y-90712255D01*
X114605726Y-90712270D01*
X114458073Y-90904697D01*
X114458067Y-90904706D01*
X114336778Y-91114782D01*
X114336774Y-91114790D01*
X114243947Y-91338894D01*
X114181160Y-91573217D01*
X114149500Y-91813710D01*
X92313544Y-91813710D01*
X92374850Y-91665705D01*
X92474690Y-91336578D01*
X92541789Y-90999250D01*
X92575500Y-90656969D01*
X92575500Y-90313031D01*
X92541789Y-89970750D01*
X92474690Y-89633422D01*
X92374850Y-89304295D01*
X92243231Y-88986538D01*
X92081100Y-88683213D01*
X91890019Y-88397240D01*
X91672318Y-88131970D01*
X91672318Y-88131969D01*
X91671818Y-88131361D01*
X91428637Y-87888180D01*
X91376708Y-87845563D01*
X91164070Y-87671056D01*
X91163083Y-87670223D01*
X91162766Y-87669985D01*
X91162761Y-87669982D01*
X91162755Y-87669978D01*
X91024505Y-87577602D01*
X90876801Y-87478909D01*
X90876793Y-87478904D01*
X90876787Y-87478900D01*
X90876782Y-87478897D01*
X90876775Y-87478893D01*
X90876766Y-87478888D01*
X90876759Y-87478884D01*
X90701573Y-87385245D01*
X90573469Y-87316772D01*
X90573464Y-87316770D01*
X90573459Y-87316768D01*
X90573364Y-87316723D01*
X90572785Y-87316488D01*
X90255711Y-87185151D01*
X89926562Y-87085305D01*
X89926551Y-87085302D01*
X89694156Y-87039077D01*
X89669344Y-87026098D01*
X89331456Y-86992821D01*
X89331455Y-86992820D01*
X89267821Y-86986553D01*
X89246969Y-86984500D01*
X89246966Y-86984500D01*
X88903034Y-86984500D01*
X88903031Y-86984500D01*
X88824966Y-86992188D01*
X88560752Y-87018209D01*
X88560751Y-87018209D01*
X88223432Y-87085306D01*
X87894287Y-87185151D01*
X87577213Y-87316488D01*
X87576638Y-87316722D01*
X87576524Y-87316775D01*
X87273233Y-87478888D01*
X87273214Y-87478899D01*
X87273208Y-87478902D01*
X86987243Y-87669978D01*
X86987224Y-87669992D01*
X86987221Y-87669994D01*
X86721361Y-87888180D01*
X86478180Y-88131361D01*
X86259994Y-88397221D01*
X86259992Y-88397224D01*
X86259978Y-88397243D01*
X86068902Y-88683208D01*
X86068899Y-88683214D01*
X86068888Y-88683233D01*
X85906775Y-88986524D01*
X85906722Y-88986638D01*
X85906488Y-88987213D01*
X85775151Y-89304287D01*
X85675306Y-89633432D01*
X85608209Y-89970751D01*
X85608209Y-89970752D01*
X85593889Y-90116162D01*
X85578607Y-90271327D01*
X85578592Y-90271481D01*
X85578564Y-90271773D01*
X85574500Y-90313034D01*
X74795500Y-90313034D01*
X74795500Y-90313031D01*
X74761789Y-89970750D01*
X74694690Y-89633422D01*
X74594850Y-89304295D01*
X74463231Y-88986538D01*
X74301100Y-88683213D01*
X74110019Y-88397240D01*
X73892318Y-88131970D01*
X73892318Y-88131969D01*
X73891818Y-88131361D01*
X73648637Y-87888180D01*
X73596708Y-87845563D01*
X73384070Y-87671056D01*
X73383083Y-87670223D01*
X73382766Y-87669985D01*
X73382761Y-87669982D01*
X73382755Y-87669978D01*
X73244505Y-87577602D01*
X73096801Y-87478909D01*
X73096793Y-87478904D01*
X73096787Y-87478900D01*
X73096782Y-87478897D01*
X73096775Y-87478893D01*
X73096766Y-87478888D01*
X73096759Y-87478884D01*
X72921573Y-87385245D01*
X72793469Y-87316772D01*
X72793464Y-87316770D01*
X72793459Y-87316768D01*
X72793364Y-87316723D01*
X72792785Y-87316488D01*
X72475711Y-87185151D01*
X72146562Y-87085305D01*
X72146551Y-87085302D01*
X71914156Y-87039077D01*
X71889344Y-87026098D01*
X71551456Y-86992821D01*
X71551455Y-86992820D01*
X71487821Y-86986553D01*
X71466969Y-86984500D01*
X71466966Y-86984500D01*
X71123034Y-86984500D01*
X71123031Y-86984500D01*
X71044966Y-86992188D01*
X70780752Y-87018209D01*
X70780751Y-87018209D01*
X70443432Y-87085306D01*
X70114287Y-87185151D01*
X69797213Y-87316488D01*
X69796638Y-87316722D01*
X69796524Y-87316775D01*
X69493233Y-87478888D01*
X69493214Y-87478899D01*
X69493208Y-87478902D01*
X69207243Y-87669978D01*
X69207224Y-87669992D01*
X69207221Y-87669994D01*
X68941361Y-87888180D01*
X68698180Y-88131361D01*
X68479994Y-88397221D01*
X68479992Y-88397224D01*
X68479978Y-88397243D01*
X68288902Y-88683208D01*
X68288899Y-88683214D01*
X68288888Y-88683233D01*
X68126775Y-88986524D01*
X68126722Y-88986638D01*
X68126488Y-88987213D01*
X67995151Y-89304287D01*
X67895306Y-89633432D01*
X67828209Y-89970751D01*
X67828209Y-89970752D01*
X67813889Y-90116162D01*
X67798607Y-90271327D01*
X67798592Y-90271481D01*
X67798564Y-90271773D01*
X67794500Y-90313034D01*
X57015500Y-90313034D01*
X57015500Y-90313031D01*
X56981789Y-89970750D01*
X56914690Y-89633422D01*
X56814850Y-89304295D01*
X56683231Y-88986538D01*
X56521100Y-88683213D01*
X56330019Y-88397240D01*
X56112318Y-88131970D01*
X56112318Y-88131969D01*
X56111818Y-88131361D01*
X55868637Y-87888180D01*
X55816708Y-87845563D01*
X55604070Y-87671056D01*
X55603083Y-87670223D01*
X55602766Y-87669985D01*
X55602761Y-87669982D01*
X55602755Y-87669978D01*
X55464505Y-87577602D01*
X55316801Y-87478909D01*
X55316793Y-87478904D01*
X55316787Y-87478900D01*
X55316782Y-87478897D01*
X55316775Y-87478893D01*
X55316766Y-87478888D01*
X55316759Y-87478884D01*
X55141573Y-87385245D01*
X55013469Y-87316772D01*
X55013464Y-87316770D01*
X55013459Y-87316768D01*
X55013364Y-87316723D01*
X55012785Y-87316488D01*
X54695711Y-87185151D01*
X54366562Y-87085305D01*
X54366551Y-87085302D01*
X54134156Y-87039077D01*
X54109344Y-87026098D01*
X53771456Y-86992821D01*
X53771455Y-86992820D01*
X53707821Y-86986553D01*
X53686969Y-86984500D01*
X53686966Y-86984500D01*
X53343034Y-86984500D01*
X53343031Y-86984500D01*
X53264966Y-86992188D01*
X53000752Y-87018209D01*
X53000751Y-87018209D01*
X52663432Y-87085306D01*
X52334287Y-87185151D01*
X52017213Y-87316488D01*
X52016638Y-87316722D01*
X52016524Y-87316775D01*
X51713233Y-87478888D01*
X51713214Y-87478899D01*
X51713208Y-87478902D01*
X51427243Y-87669978D01*
X51427224Y-87669992D01*
X51427221Y-87669994D01*
X51161361Y-87888180D01*
X50918180Y-88131361D01*
X50699994Y-88397221D01*
X50699992Y-88397224D01*
X50699978Y-88397243D01*
X50508902Y-88683208D01*
X50508899Y-88683214D01*
X50508888Y-88683233D01*
X50346775Y-88986524D01*
X50346722Y-88986638D01*
X50346488Y-88987213D01*
X50215151Y-89304287D01*
X50115306Y-89633432D01*
X50048209Y-89970751D01*
X50048209Y-89970752D01*
X50033889Y-90116162D01*
X50018607Y-90271327D01*
X50018592Y-90271481D01*
X50018564Y-90271773D01*
X50014500Y-90313034D01*
X39235500Y-90313034D01*
X39235500Y-90313031D01*
X39201789Y-89970750D01*
X39134690Y-89633422D01*
X39034850Y-89304295D01*
X38903231Y-88986538D01*
X38741100Y-88683213D01*
X38550019Y-88397240D01*
X38332318Y-88131970D01*
X38332318Y-88131969D01*
X38331818Y-88131361D01*
X38088637Y-87888180D01*
X38036708Y-87845563D01*
X37824070Y-87671056D01*
X37823083Y-87670223D01*
X37822766Y-87669985D01*
X37822761Y-87669982D01*
X37822755Y-87669978D01*
X37684505Y-87577602D01*
X37536801Y-87478909D01*
X37536793Y-87478904D01*
X37536787Y-87478900D01*
X37536782Y-87478897D01*
X37536775Y-87478893D01*
X37536766Y-87478888D01*
X37536759Y-87478884D01*
X37361573Y-87385245D01*
X37233469Y-87316772D01*
X37233464Y-87316770D01*
X37233459Y-87316768D01*
X37233364Y-87316723D01*
X37232785Y-87316488D01*
X36915711Y-87185151D01*
X36586562Y-87085305D01*
X36586551Y-87085302D01*
X36354156Y-87039077D01*
X36329344Y-87026098D01*
X35991456Y-86992821D01*
X35991455Y-86992820D01*
X35927821Y-86986553D01*
X35906969Y-86984500D01*
X35906966Y-86984500D01*
X35563034Y-86984500D01*
X35563031Y-86984500D01*
X35484966Y-86992188D01*
X35220752Y-87018209D01*
X35220751Y-87018209D01*
X34883432Y-87085306D01*
X34554287Y-87185151D01*
X34237213Y-87316488D01*
X34236638Y-87316722D01*
X34236524Y-87316775D01*
X33933233Y-87478888D01*
X33933214Y-87478899D01*
X33933208Y-87478902D01*
X33647243Y-87669978D01*
X33647224Y-87669992D01*
X33647221Y-87669994D01*
X33381361Y-87888180D01*
X33138180Y-88131361D01*
X32919994Y-88397221D01*
X32919992Y-88397224D01*
X32919978Y-88397243D01*
X32728902Y-88683208D01*
X32728899Y-88683214D01*
X32728888Y-88683233D01*
X32566775Y-88986524D01*
X32566722Y-88986638D01*
X32566488Y-88987213D01*
X32435151Y-89304287D01*
X32335306Y-89633432D01*
X32268209Y-89970751D01*
X32268209Y-89970752D01*
X32253889Y-90116162D01*
X32238564Y-90271771D01*
X32238563Y-90271780D01*
X32234500Y-90313034D01*
X24891673Y-90313034D01*
X24820216Y-90271778D01*
X24820208Y-90271774D01*
X24596104Y-90178947D01*
X24361785Y-90116161D01*
X24361784Y-90116160D01*
X24361781Y-90116160D01*
X24121290Y-90084500D01*
X24121289Y-90084500D01*
X24121288Y-90084500D01*
X23878712Y-90084500D01*
X23878711Y-90084500D01*
X23878710Y-90084500D01*
X23638217Y-90116160D01*
X23403894Y-90178947D01*
X23179790Y-90271774D01*
X23179782Y-90271778D01*
X22969706Y-90393067D01*
X22969697Y-90393073D01*
X22777270Y-90540726D01*
X22777255Y-90540740D01*
X22777247Y-90540747D01*
X22605747Y-90712247D01*
X22605740Y-90712255D01*
X22605726Y-90712270D01*
X22458073Y-90904697D01*
X22458067Y-90904706D01*
X22336778Y-91114782D01*
X22336774Y-91114790D01*
X22243947Y-91338894D01*
X22181160Y-91573217D01*
X22149500Y-91813710D01*
X20500500Y-91813710D01*
X20500500Y-84024772D01*
X20999500Y-84024772D01*
X20999500Y-84245226D01*
X21033985Y-84462955D01*
X21102094Y-84672579D01*
X21102102Y-84672602D01*
X21102104Y-84672606D01*
X21202187Y-84869026D01*
X21319235Y-85030129D01*
X21331752Y-85047358D01*
X21331756Y-85047363D01*
X21331761Y-85047369D01*
X21487627Y-85203235D01*
X21487636Y-85203243D01*
X21487660Y-85203261D01*
X21636851Y-85311654D01*
X21636856Y-85311656D01*
X21643192Y-85316260D01*
X21665978Y-85332815D01*
X21794375Y-85398237D01*
X21862393Y-85432895D01*
X21862396Y-85432896D01*
X21862433Y-85432908D01*
X21862468Y-85432920D01*
X21967221Y-85466955D01*
X22072049Y-85501015D01*
X22289778Y-85535500D01*
X22289779Y-85535500D01*
X22510221Y-85535500D01*
X22510222Y-85535500D01*
X22727951Y-85501015D01*
X22937606Y-85432895D01*
X23134022Y-85332815D01*
X23312365Y-85203242D01*
X23468242Y-85047365D01*
X23597815Y-84869022D01*
X23697895Y-84672606D01*
X23766015Y-84462951D01*
X23800500Y-84245222D01*
X23800500Y-84024778D01*
X23766015Y-83807049D01*
X23697895Y-83597394D01*
X23697895Y-83597393D01*
X23663237Y-83529375D01*
X23597815Y-83400978D01*
X23597812Y-83400974D01*
X23581261Y-83378194D01*
X23581259Y-83378190D01*
X23468261Y-83222660D01*
X23468243Y-83222636D01*
X23468235Y-83222627D01*
X23312369Y-83066761D01*
X23312364Y-83066757D01*
X23312363Y-83066756D01*
X23312358Y-83066752D01*
X23298940Y-83057003D01*
X23144630Y-82944891D01*
X23144618Y-82944883D01*
X23134025Y-82937187D01*
X23134024Y-82937186D01*
X23134022Y-82937185D01*
X23127909Y-82934070D01*
X23127898Y-82934063D01*
X23071098Y-82905123D01*
X23071096Y-82905122D01*
X22937606Y-82837104D01*
X22937602Y-82837102D01*
X22937579Y-82837094D01*
X22727954Y-82768985D01*
X22727955Y-82768985D01*
X22619086Y-82751742D01*
X22510227Y-82734500D01*
X22510222Y-82734500D01*
X22289778Y-82734500D01*
X22289774Y-82734500D01*
X22231716Y-82743696D01*
X22217201Y-82745995D01*
X22072043Y-82768985D01*
X21862419Y-82837094D01*
X21862396Y-82837102D01*
X21862392Y-82837104D01*
X21665972Y-82937187D01*
X21487658Y-83066739D01*
X21487629Y-83066761D01*
X21331761Y-83222629D01*
X21331739Y-83222658D01*
X21202187Y-83400972D01*
X21102104Y-83597392D01*
X21102102Y-83597396D01*
X21102094Y-83597419D01*
X21033985Y-83807043D01*
X20999500Y-84024772D01*
X20500500Y-84024772D01*
X20500500Y-78952642D01*
X21099500Y-78952642D01*
X21099500Y-79157356D01*
X21131521Y-79359530D01*
X21194780Y-79554221D01*
X21194786Y-79554234D01*
X21287708Y-79736601D01*
X21287709Y-79736602D01*
X21287715Y-79736613D01*
X21408028Y-79902213D01*
X21552786Y-80046971D01*
X21707749Y-80159556D01*
X21718390Y-80167287D01*
X21834607Y-80226503D01*
X21895154Y-80257353D01*
X21896043Y-80257824D01*
X21896249Y-80258025D01*
X21899629Y-80259662D01*
X21901637Y-80260660D01*
X21905403Y-80261722D01*
X21945488Y-80274746D01*
X22005135Y-80294126D01*
X22005136Y-80294127D01*
X22048612Y-80308253D01*
X22095465Y-80323477D01*
X22196557Y-80339488D01*
X22297648Y-80355500D01*
X22297649Y-80355500D01*
X22502351Y-80355500D01*
X22502352Y-80355500D01*
X22704534Y-80323477D01*
X22899219Y-80260220D01*
X23081610Y-80167287D01*
X23174590Y-80099732D01*
X23247213Y-80046971D01*
X23247213Y-80046969D01*
X23247272Y-80046927D01*
X23248031Y-80046153D01*
X23391966Y-79902219D01*
X23391968Y-79902215D01*
X23391971Y-79902213D01*
X23512284Y-79736614D01*
X23512285Y-79736613D01*
X23512287Y-79736610D01*
X23551968Y-79658730D01*
X23552520Y-79657697D01*
X23553887Y-79656303D01*
X23571752Y-79630960D01*
X23580649Y-79621541D01*
X23597861Y-79611494D01*
X23601458Y-79607829D01*
X23605851Y-79606829D01*
X23640988Y-79586320D01*
X23710793Y-79589312D01*
X23764506Y-79625478D01*
X23770580Y-79632488D01*
X23787350Y-79657392D01*
X23827715Y-79736614D01*
X23948028Y-79902213D01*
X24092786Y-80046971D01*
X24247749Y-80159556D01*
X24258390Y-80167287D01*
X24374607Y-80226503D01*
X24435154Y-80257353D01*
X24436043Y-80257824D01*
X24436249Y-80258025D01*
X24439629Y-80259662D01*
X24441637Y-80260660D01*
X24445403Y-80261722D01*
X24485488Y-80274746D01*
X24545135Y-80294126D01*
X24545136Y-80294127D01*
X24588612Y-80308253D01*
X24635465Y-80323477D01*
X24736557Y-80339488D01*
X24837648Y-80355500D01*
X24837649Y-80355500D01*
X25042351Y-80355500D01*
X25042352Y-80355500D01*
X25244534Y-80323477D01*
X25439219Y-80260220D01*
X25621610Y-80167287D01*
X25714590Y-80099732D01*
X25787213Y-80046971D01*
X25787213Y-80046969D01*
X25787272Y-80046927D01*
X25788031Y-80046153D01*
X25931966Y-79902219D01*
X25931968Y-79902215D01*
X25931971Y-79902213D01*
X25984730Y-79829593D01*
X25984732Y-79829591D01*
X26008172Y-79797327D01*
X26052287Y-79736610D01*
X26145220Y-79554219D01*
X26208477Y-79359534D01*
X26240500Y-79157352D01*
X26240500Y-78952648D01*
X26208477Y-78750466D01*
X26208476Y-78750462D01*
X26208476Y-78750461D01*
X26147834Y-78563826D01*
X26147833Y-78563825D01*
X26145220Y-78555781D01*
X26145218Y-78555778D01*
X26145218Y-78555776D01*
X26142970Y-78551365D01*
X26142663Y-78550577D01*
X26141933Y-78549329D01*
X26099515Y-78466080D01*
X26091422Y-78450196D01*
X26052287Y-78373390D01*
X26044556Y-78362749D01*
X25931971Y-78207786D01*
X25787213Y-78063028D01*
X25787212Y-78063027D01*
X25787211Y-78063026D01*
X25632202Y-77950408D01*
X25632199Y-77950406D01*
X25621613Y-77942715D01*
X25621612Y-77942714D01*
X25621610Y-77942713D01*
X25544144Y-77903242D01*
X25544144Y-77903241D01*
X25544142Y-77903241D01*
X25439228Y-77849783D01*
X25439221Y-77849780D01*
X25334316Y-77815694D01*
X25244534Y-77786522D01*
X25244532Y-77786521D01*
X25244530Y-77786521D01*
X25244529Y-77786520D01*
X25069995Y-77758878D01*
X25053409Y-77756251D01*
X25042354Y-77754500D01*
X25042352Y-77754500D01*
X24837648Y-77754500D01*
X24837647Y-77754500D01*
X24813327Y-77758351D01*
X24813326Y-77758350D01*
X24635468Y-77786521D01*
X24440777Y-77849780D01*
X24440764Y-77849786D01*
X24258397Y-77942708D01*
X24258388Y-77942713D01*
X24258386Y-77942715D01*
X24155120Y-78017740D01*
X24092787Y-78063027D01*
X24092784Y-78063029D01*
X23948029Y-78207784D01*
X23948027Y-78207787D01*
X23827715Y-78373385D01*
X23827711Y-78373392D01*
X23788577Y-78450196D01*
X23788575Y-78450198D01*
X23788575Y-78450200D01*
X23768238Y-78479046D01*
X23759347Y-78488459D01*
X23699003Y-78523679D01*
X23629198Y-78520683D01*
X23575489Y-78484516D01*
X23569417Y-78477508D01*
X23552650Y-78452605D01*
X23512288Y-78373392D01*
X23512288Y-78373391D01*
X23504557Y-78362750D01*
X23504555Y-78362748D01*
X23391971Y-78207786D01*
X23247213Y-78063028D01*
X23247212Y-78063027D01*
X23247211Y-78063026D01*
X23092202Y-77950408D01*
X23092199Y-77950406D01*
X23081613Y-77942715D01*
X23081612Y-77942714D01*
X23081610Y-77942713D01*
X23004144Y-77903242D01*
X23004144Y-77903241D01*
X23004142Y-77903241D01*
X22899228Y-77849783D01*
X22899221Y-77849780D01*
X22794316Y-77815694D01*
X22704534Y-77786522D01*
X22704532Y-77786521D01*
X22704530Y-77786521D01*
X22704529Y-77786520D01*
X22529995Y-77758878D01*
X22513409Y-77756251D01*
X22502354Y-77754500D01*
X22502352Y-77754500D01*
X22297648Y-77754500D01*
X22297647Y-77754500D01*
X22273327Y-77758351D01*
X22273326Y-77758350D01*
X22095468Y-77786521D01*
X21900777Y-77849780D01*
X21900764Y-77849786D01*
X21718397Y-77942708D01*
X21718388Y-77942713D01*
X21718386Y-77942715D01*
X21615120Y-78017740D01*
X21552787Y-78063027D01*
X21552784Y-78063029D01*
X21408029Y-78207784D01*
X21408027Y-78207787D01*
X21287715Y-78373385D01*
X21287708Y-78373397D01*
X21194786Y-78555764D01*
X21194780Y-78555777D01*
X21131521Y-78750468D01*
X21099500Y-78952642D01*
X20500500Y-78952642D01*
X20500500Y-75768541D01*
X51179500Y-75768541D01*
X51179500Y-75991457D01*
X51179503Y-75991482D01*
X51208593Y-76212447D01*
X51208597Y-76212467D01*
X51261181Y-76408713D01*
X51266289Y-76427779D01*
X51266290Y-76427781D01*
X51266293Y-76427790D01*
X51299123Y-76507049D01*
X51351592Y-76633719D01*
X51351594Y-76633725D01*
X51461206Y-76823579D01*
X51463048Y-76826769D01*
X51464569Y-76828751D01*
X51464571Y-76828754D01*
X51553942Y-76945226D01*
X51598751Y-77003622D01*
X51598757Y-77003629D01*
X51756370Y-77161242D01*
X51756377Y-77161248D01*
X51756384Y-77161253D01*
X51756386Y-77161255D01*
X51758601Y-77162955D01*
X51758602Y-77162955D01*
X51933226Y-77296948D01*
X52126274Y-77408405D01*
X52332219Y-77493710D01*
X52547537Y-77551404D01*
X52768543Y-77580500D01*
X52768550Y-77580500D01*
X52991450Y-77580500D01*
X52991457Y-77580500D01*
X53212463Y-77551404D01*
X53427781Y-77493710D01*
X53633726Y-77408405D01*
X53826774Y-77296948D01*
X54003624Y-77161247D01*
X54161247Y-77003624D01*
X54296948Y-76826774D01*
X54408405Y-76633726D01*
X54493710Y-76427781D01*
X54551404Y-76212463D01*
X54580500Y-75991457D01*
X54580500Y-75768543D01*
X54580500Y-75768541D01*
X58799500Y-75768541D01*
X58799500Y-75991457D01*
X58799503Y-75991482D01*
X58828593Y-76212447D01*
X58828597Y-76212467D01*
X58881181Y-76408713D01*
X58886289Y-76427779D01*
X58886290Y-76427781D01*
X58886293Y-76427790D01*
X58919123Y-76507049D01*
X58971592Y-76633719D01*
X58971594Y-76633725D01*
X59081206Y-76823579D01*
X59083048Y-76826769D01*
X59084569Y-76828751D01*
X59084571Y-76828754D01*
X59173942Y-76945226D01*
X59218751Y-77003622D01*
X59218757Y-77003629D01*
X59376370Y-77161242D01*
X59376377Y-77161248D01*
X59376384Y-77161253D01*
X59376386Y-77161255D01*
X59378601Y-77162955D01*
X59378602Y-77162955D01*
X59553226Y-77296948D01*
X59746274Y-77408405D01*
X59952219Y-77493710D01*
X60167537Y-77551404D01*
X60388543Y-77580500D01*
X60388550Y-77580500D01*
X60611450Y-77580500D01*
X60611457Y-77580500D01*
X60832463Y-77551404D01*
X61047781Y-77493710D01*
X61253726Y-77408405D01*
X61446774Y-77296948D01*
X61623624Y-77161247D01*
X61781247Y-77003624D01*
X61916948Y-76826774D01*
X62028405Y-76633726D01*
X62113710Y-76427781D01*
X62118821Y-76408707D01*
X66649500Y-76408707D01*
X66649500Y-76408713D01*
X66649500Y-76621287D01*
X66665891Y-76724772D01*
X66682754Y-76831244D01*
X66682754Y-76831247D01*
X66738763Y-77003622D01*
X66748442Y-77033410D01*
X66748443Y-77033412D01*
X66830645Y-77194744D01*
X66844951Y-77222820D01*
X66969890Y-77394786D01*
X66969892Y-77394788D01*
X67120216Y-77545112D01*
X67292169Y-77670042D01*
X67292177Y-77670047D01*
X67292179Y-77670048D01*
X67292181Y-77670049D01*
X67292182Y-77670050D01*
X67292200Y-77670060D01*
X67292442Y-77670182D01*
X67481588Y-77766557D01*
X67683757Y-77832246D01*
X67893713Y-77865500D01*
X67893714Y-77865500D01*
X68106286Y-77865500D01*
X68106287Y-77865500D01*
X68316243Y-77832246D01*
X68518412Y-77766557D01*
X68707816Y-77670051D01*
X68729789Y-77654086D01*
X68879786Y-77545109D01*
X68879786Y-77545108D01*
X68879844Y-77545066D01*
X68880605Y-77544290D01*
X69030104Y-77394792D01*
X69030106Y-77394788D01*
X69030109Y-77394786D01*
X69155048Y-77222820D01*
X69155047Y-77222820D01*
X69155051Y-77222816D01*
X69155053Y-77222810D01*
X69175445Y-77194744D01*
X69183730Y-77166529D01*
X69251557Y-77033412D01*
X69317246Y-76831243D01*
X69350500Y-76621287D01*
X69350500Y-76408713D01*
X69350499Y-76408707D01*
X92649500Y-76408707D01*
X92649500Y-76408713D01*
X92649500Y-76621287D01*
X92665891Y-76724772D01*
X92682754Y-76831244D01*
X92682754Y-76831247D01*
X92738763Y-77003622D01*
X92748442Y-77033410D01*
X92748443Y-77033412D01*
X92830645Y-77194744D01*
X92844951Y-77222820D01*
X92969890Y-77394786D01*
X92969892Y-77394788D01*
X93120216Y-77545112D01*
X93292169Y-77670042D01*
X93292177Y-77670047D01*
X93292179Y-77670048D01*
X93292181Y-77670049D01*
X93292182Y-77670050D01*
X93292200Y-77670060D01*
X93292442Y-77670182D01*
X93481588Y-77766557D01*
X93683757Y-77832246D01*
X93893713Y-77865500D01*
X93893714Y-77865500D01*
X94106286Y-77865500D01*
X94106287Y-77865500D01*
X94316243Y-77832246D01*
X94518412Y-77766557D01*
X94707816Y-77670051D01*
X94729789Y-77654086D01*
X94879786Y-77545109D01*
X94879786Y-77545108D01*
X94879844Y-77545066D01*
X94880605Y-77544290D01*
X95030104Y-77394792D01*
X95030106Y-77394788D01*
X95030109Y-77394786D01*
X95155048Y-77222820D01*
X95155047Y-77222820D01*
X95155051Y-77222816D01*
X95155053Y-77222810D01*
X95175445Y-77194744D01*
X95183730Y-77166529D01*
X95251557Y-77033412D01*
X95317246Y-76831243D01*
X95334110Y-76724772D01*
X113844500Y-76724772D01*
X113844500Y-76945226D01*
X113878985Y-77162955D01*
X113947094Y-77372579D01*
X113947102Y-77372602D01*
X113947104Y-77372606D01*
X114047187Y-77569026D01*
X114120584Y-77670049D01*
X114176752Y-77747358D01*
X114176756Y-77747363D01*
X114176761Y-77747369D01*
X114332627Y-77903235D01*
X114332636Y-77903243D01*
X114332660Y-77903261D01*
X114386958Y-77942711D01*
X114386962Y-77942713D01*
X114510978Y-78032815D01*
X114639375Y-78098237D01*
X114707393Y-78132895D01*
X114707396Y-78132896D01*
X114812221Y-78166955D01*
X114917049Y-78201015D01*
X115134778Y-78235500D01*
X115134779Y-78235500D01*
X116355221Y-78235500D01*
X116355222Y-78235500D01*
X116572951Y-78201015D01*
X116782606Y-78132895D01*
X116979022Y-78032815D01*
X117157365Y-77903242D01*
X117313242Y-77747365D01*
X117442815Y-77569022D01*
X117542895Y-77372606D01*
X117611015Y-77162951D01*
X117645500Y-76945222D01*
X117645500Y-76724778D01*
X117611015Y-76507049D01*
X117542895Y-76297394D01*
X117542895Y-76297393D01*
X117492636Y-76198757D01*
X117442815Y-76100978D01*
X117366972Y-75996588D01*
X117366971Y-75996585D01*
X117313261Y-75922660D01*
X117313243Y-75922636D01*
X117313235Y-75922627D01*
X117157369Y-75766761D01*
X117157364Y-75766757D01*
X117157363Y-75766756D01*
X117157358Y-75766752D01*
X117143940Y-75757003D01*
X116989630Y-75644891D01*
X116989618Y-75644883D01*
X116979025Y-75637187D01*
X116979024Y-75637186D01*
X116979022Y-75637185D01*
X116972909Y-75634070D01*
X116972898Y-75634063D01*
X116916098Y-75605123D01*
X116916096Y-75605122D01*
X116782606Y-75537104D01*
X116782602Y-75537102D01*
X116782579Y-75537094D01*
X116572954Y-75468985D01*
X116572955Y-75468985D01*
X116464086Y-75451742D01*
X116355227Y-75434500D01*
X116355222Y-75434500D01*
X115134778Y-75434500D01*
X115134774Y-75434500D01*
X115076716Y-75443696D01*
X115062201Y-75445995D01*
X114917043Y-75468985D01*
X114707419Y-75537094D01*
X114707396Y-75537102D01*
X114707392Y-75537104D01*
X114510972Y-75637187D01*
X114332658Y-75766739D01*
X114332629Y-75766761D01*
X114176761Y-75922629D01*
X114176739Y-75922658D01*
X114047187Y-76100972D01*
X113947104Y-76297392D01*
X113947102Y-76297396D01*
X113947094Y-76297419D01*
X113878985Y-76507043D01*
X113844500Y-76724772D01*
X95334110Y-76724772D01*
X95338747Y-76695493D01*
X95348532Y-76633719D01*
X95350499Y-76621293D01*
X95350500Y-76621288D01*
X95350500Y-76408713D01*
X95332869Y-76297396D01*
X95317246Y-76198757D01*
X95316940Y-76197814D01*
X95251557Y-75996588D01*
X95155051Y-75807184D01*
X95155049Y-75807181D01*
X95155048Y-75807179D01*
X95154702Y-75806703D01*
X95154700Y-75806699D01*
X95030112Y-75635216D01*
X94879788Y-75484892D01*
X94879786Y-75484890D01*
X94707820Y-75359951D01*
X94653354Y-75332199D01*
X94540245Y-75274567D01*
X94540240Y-75274565D01*
X94518414Y-75263444D01*
X94518413Y-75263443D01*
X94518412Y-75263443D01*
X94421550Y-75231970D01*
X94325074Y-75200623D01*
X94320552Y-75198770D01*
X94311362Y-75196600D01*
X94306599Y-75196226D01*
X94154957Y-75172208D01*
X94135489Y-75169124D01*
X94106290Y-75164500D01*
X94106287Y-75164500D01*
X93893713Y-75164500D01*
X93893709Y-75164500D01*
X93854776Y-75170666D01*
X93845042Y-75172208D01*
X93807654Y-75178129D01*
X93683763Y-75197752D01*
X93481582Y-75263445D01*
X93292182Y-75359949D01*
X93292179Y-75359950D01*
X93292179Y-75359951D01*
X93206196Y-75422420D01*
X93120210Y-75484892D01*
X92969892Y-75635210D01*
X92844949Y-75807182D01*
X92748445Y-75996580D01*
X92682752Y-76198759D01*
X92649500Y-76408707D01*
X69350499Y-76408707D01*
X69317246Y-76198757D01*
X69251557Y-75996588D01*
X69155051Y-75807184D01*
X69155049Y-75807181D01*
X69155048Y-75807179D01*
X69154702Y-75806703D01*
X69154700Y-75806699D01*
X69030112Y-75635216D01*
X68879788Y-75484892D01*
X68879786Y-75484890D01*
X68707820Y-75359951D01*
X68653354Y-75332199D01*
X68540245Y-75274567D01*
X68540240Y-75274565D01*
X68518414Y-75263444D01*
X68518413Y-75263443D01*
X68518412Y-75263443D01*
X68421550Y-75231970D01*
X68325074Y-75200623D01*
X68320552Y-75198770D01*
X68311362Y-75196600D01*
X68306599Y-75196226D01*
X68154957Y-75172208D01*
X68135489Y-75169124D01*
X68106290Y-75164500D01*
X68106287Y-75164500D01*
X67893713Y-75164500D01*
X67893709Y-75164500D01*
X67854776Y-75170666D01*
X67845042Y-75172208D01*
X67807654Y-75178129D01*
X67683763Y-75197752D01*
X67481582Y-75263445D01*
X67292182Y-75359949D01*
X67292179Y-75359950D01*
X67292179Y-75359951D01*
X67206196Y-75422420D01*
X67120210Y-75484892D01*
X66969892Y-75635210D01*
X66844949Y-75807182D01*
X66748445Y-75996580D01*
X66682752Y-76198759D01*
X66649500Y-76408707D01*
X62118821Y-76408707D01*
X62171404Y-76212463D01*
X62200500Y-75991457D01*
X62200500Y-75768543D01*
X62171404Y-75547537D01*
X62113710Y-75332219D01*
X62028405Y-75126274D01*
X61916948Y-74933226D01*
X61781247Y-74756376D01*
X61781242Y-74756370D01*
X61623629Y-74598757D01*
X61623622Y-74598751D01*
X61623612Y-74598743D01*
X61623603Y-74598736D01*
X61448754Y-74464571D01*
X61448751Y-74464569D01*
X61446505Y-74462845D01*
X61445486Y-74462233D01*
X61443589Y-74461212D01*
X61253726Y-74351595D01*
X61253722Y-74351593D01*
X61051829Y-74267966D01*
X61047787Y-74266291D01*
X60833476Y-74208867D01*
X60833472Y-74208866D01*
X60832463Y-74208596D01*
X60832457Y-74208595D01*
X60832452Y-74208594D01*
X60613259Y-74179737D01*
X60613255Y-74179735D01*
X60611654Y-74179500D01*
X60611463Y-74179500D01*
X60611457Y-74179500D01*
X60388543Y-74179500D01*
X60388537Y-74179500D01*
X60388535Y-74179500D01*
X60383039Y-74180176D01*
X60382316Y-74180316D01*
X60381796Y-74180387D01*
X60167547Y-74208594D01*
X60167540Y-74208595D01*
X60167537Y-74208596D01*
X60156495Y-74211554D01*
X60156492Y-74211555D01*
X59952222Y-74266288D01*
X59952199Y-74266297D01*
X59746272Y-74351595D01*
X59553237Y-74463044D01*
X59553212Y-74463061D01*
X59553210Y-74463062D01*
X59376395Y-74598736D01*
X59376379Y-74598749D01*
X59376369Y-74598758D01*
X59376361Y-74598765D01*
X59218765Y-74756361D01*
X59218758Y-74756369D01*
X59218749Y-74756379D01*
X59218736Y-74756395D01*
X59083062Y-74933210D01*
X59083061Y-74933212D01*
X59083044Y-74933237D01*
X58971595Y-75126272D01*
X58886297Y-75332199D01*
X58886288Y-75332222D01*
X58828600Y-75547518D01*
X58828595Y-75547543D01*
X58828592Y-75547556D01*
X58799503Y-75768516D01*
X58799500Y-75768541D01*
X54580500Y-75768541D01*
X54551404Y-75547537D01*
X54493710Y-75332219D01*
X54408405Y-75126274D01*
X54296948Y-74933226D01*
X54161247Y-74756376D01*
X54161242Y-74756370D01*
X54003629Y-74598757D01*
X54003622Y-74598751D01*
X54003612Y-74598743D01*
X54003603Y-74598736D01*
X53828754Y-74464571D01*
X53828751Y-74464569D01*
X53826505Y-74462845D01*
X53825486Y-74462233D01*
X53823589Y-74461212D01*
X53633726Y-74351595D01*
X53633722Y-74351593D01*
X53431829Y-74267966D01*
X53427787Y-74266291D01*
X53213476Y-74208867D01*
X53213472Y-74208866D01*
X53212463Y-74208596D01*
X53212457Y-74208595D01*
X53212452Y-74208594D01*
X52993259Y-74179737D01*
X52993255Y-74179735D01*
X52991654Y-74179500D01*
X52991463Y-74179500D01*
X52991457Y-74179500D01*
X52768543Y-74179500D01*
X52768537Y-74179500D01*
X52768535Y-74179500D01*
X52763039Y-74180176D01*
X52762316Y-74180316D01*
X52761796Y-74180387D01*
X52547547Y-74208594D01*
X52547540Y-74208595D01*
X52547537Y-74208596D01*
X52536495Y-74211554D01*
X52536492Y-74211555D01*
X52332222Y-74266288D01*
X52332199Y-74266297D01*
X52126272Y-74351595D01*
X51933237Y-74463044D01*
X51933212Y-74463061D01*
X51933210Y-74463062D01*
X51756395Y-74598736D01*
X51756379Y-74598749D01*
X51756369Y-74598758D01*
X51756361Y-74598765D01*
X51598765Y-74756361D01*
X51598758Y-74756369D01*
X51598749Y-74756379D01*
X51598736Y-74756395D01*
X51463062Y-74933210D01*
X51463061Y-74933212D01*
X51463044Y-74933237D01*
X51351595Y-75126272D01*
X51266297Y-75332199D01*
X51266288Y-75332222D01*
X51208600Y-75547518D01*
X51208595Y-75547543D01*
X51208592Y-75547556D01*
X51179503Y-75768516D01*
X51179500Y-75768541D01*
X20500500Y-75768541D01*
X20500500Y-73864772D01*
X20999500Y-73864772D01*
X20999500Y-74085226D01*
X21033985Y-74302955D01*
X21102094Y-74512579D01*
X21102102Y-74512602D01*
X21102104Y-74512606D01*
X21202187Y-74709026D01*
X21317981Y-74868404D01*
X21331752Y-74887358D01*
X21331756Y-74887363D01*
X21331761Y-74887369D01*
X21487627Y-75043235D01*
X21487636Y-75043243D01*
X21487660Y-75043261D01*
X21636851Y-75151654D01*
X21636856Y-75151656D01*
X21643192Y-75156260D01*
X21665978Y-75172815D01*
X21794375Y-75238237D01*
X21862393Y-75272895D01*
X21862396Y-75272896D01*
X21862433Y-75272908D01*
X21862468Y-75272920D01*
X21967221Y-75306955D01*
X22072049Y-75341015D01*
X22289778Y-75375500D01*
X22289779Y-75375500D01*
X22510221Y-75375500D01*
X22510222Y-75375500D01*
X22727951Y-75341015D01*
X22937606Y-75272895D01*
X23134022Y-75172815D01*
X23312365Y-75043242D01*
X23468242Y-74887365D01*
X23597815Y-74709022D01*
X23697895Y-74512606D01*
X23766015Y-74302951D01*
X23800500Y-74085222D01*
X23800500Y-73864778D01*
X23766015Y-73647049D01*
X23731955Y-73542221D01*
X23702465Y-73451457D01*
X23697904Y-73437419D01*
X23697897Y-73437400D01*
X23697895Y-73437394D01*
X23697895Y-73437393D01*
X23618095Y-73280779D01*
X23618094Y-73280777D01*
X23597814Y-73240976D01*
X23588780Y-73228541D01*
X36574500Y-73228541D01*
X36574500Y-73451457D01*
X36574503Y-73451482D01*
X36603593Y-73672447D01*
X36603597Y-73672467D01*
X36661288Y-73887776D01*
X36661290Y-73887780D01*
X36661293Y-73887790D01*
X36743072Y-74085222D01*
X36746595Y-74093726D01*
X36856206Y-74283579D01*
X36858048Y-74286769D01*
X36859569Y-74288751D01*
X36859571Y-74288754D01*
X36993320Y-74463061D01*
X36993751Y-74463622D01*
X36993757Y-74463629D01*
X37151370Y-74621242D01*
X37151376Y-74621247D01*
X37328226Y-74756948D01*
X37521274Y-74868405D01*
X37727219Y-74953710D01*
X37942537Y-75011404D01*
X38163543Y-75040500D01*
X38163550Y-75040500D01*
X38386450Y-75040500D01*
X38386457Y-75040500D01*
X38607463Y-75011404D01*
X38822781Y-74953710D01*
X39028726Y-74868405D01*
X39221774Y-74756948D01*
X39398624Y-74621247D01*
X39556247Y-74463624D01*
X39691948Y-74286774D01*
X39803405Y-74093726D01*
X39888710Y-73887781D01*
X39946404Y-73672463D01*
X39975500Y-73451457D01*
X39975500Y-73228543D01*
X39975500Y-73228541D01*
X96249500Y-73228541D01*
X96249500Y-73451457D01*
X96249503Y-73451482D01*
X96278593Y-73672447D01*
X96278597Y-73672467D01*
X96336288Y-73887776D01*
X96336290Y-73887780D01*
X96336293Y-73887790D01*
X96418072Y-74085222D01*
X96421595Y-74093726D01*
X96531206Y-74283579D01*
X96533048Y-74286769D01*
X96534569Y-74288751D01*
X96534571Y-74288754D01*
X96668320Y-74463061D01*
X96668751Y-74463622D01*
X96668757Y-74463629D01*
X96826370Y-74621242D01*
X96826376Y-74621247D01*
X97003226Y-74756948D01*
X97196274Y-74868405D01*
X97402219Y-74953710D01*
X97617537Y-75011404D01*
X97838543Y-75040500D01*
X97838550Y-75040500D01*
X98061450Y-75040500D01*
X98061457Y-75040500D01*
X98282463Y-75011404D01*
X98497781Y-74953710D01*
X98703726Y-74868405D01*
X98896774Y-74756948D01*
X99073624Y-74621247D01*
X99231247Y-74463624D01*
X99366948Y-74286774D01*
X99478405Y-74093726D01*
X99563710Y-73887781D01*
X99621404Y-73672463D01*
X99650500Y-73451457D01*
X99650500Y-73228543D01*
X99621404Y-73007537D01*
X99563710Y-72792219D01*
X99478405Y-72586274D01*
X99366948Y-72393226D01*
X99231247Y-72216376D01*
X99231242Y-72216370D01*
X99073629Y-72058757D01*
X99073622Y-72058751D01*
X99073612Y-72058743D01*
X99073603Y-72058736D01*
X98898754Y-71924571D01*
X98898751Y-71924569D01*
X98896505Y-71922845D01*
X98895486Y-71922233D01*
X98893589Y-71921212D01*
X98703726Y-71811595D01*
X98703722Y-71811593D01*
X98501829Y-71727966D01*
X98497787Y-71726291D01*
X98283476Y-71668867D01*
X98283472Y-71668866D01*
X98282463Y-71668596D01*
X98282457Y-71668595D01*
X98282452Y-71668594D01*
X98063259Y-71639737D01*
X98063255Y-71639735D01*
X98061654Y-71639500D01*
X98061463Y-71639500D01*
X98061457Y-71639500D01*
X97838543Y-71639500D01*
X97838537Y-71639500D01*
X97838535Y-71639500D01*
X97833039Y-71640176D01*
X97832316Y-71640316D01*
X97831796Y-71640387D01*
X97617547Y-71668594D01*
X97617540Y-71668595D01*
X97617537Y-71668596D01*
X97606495Y-71671554D01*
X97606492Y-71671555D01*
X97402222Y-71726288D01*
X97402199Y-71726297D01*
X97196272Y-71811595D01*
X97003237Y-71923044D01*
X97003212Y-71923061D01*
X97003210Y-71923062D01*
X96826395Y-72058736D01*
X96826379Y-72058749D01*
X96826369Y-72058758D01*
X96826361Y-72058765D01*
X96668765Y-72216361D01*
X96668758Y-72216369D01*
X96668749Y-72216379D01*
X96668736Y-72216395D01*
X96533062Y-72393210D01*
X96533061Y-72393212D01*
X96533044Y-72393237D01*
X96421595Y-72586272D01*
X96336297Y-72792199D01*
X96336288Y-72792222D01*
X96278600Y-73007518D01*
X96278595Y-73007543D01*
X96278592Y-73007556D01*
X96249503Y-73228516D01*
X96249500Y-73228541D01*
X39975500Y-73228541D01*
X39946404Y-73007537D01*
X39888710Y-72792219D01*
X39803405Y-72586274D01*
X39691948Y-72393226D01*
X39556247Y-72216376D01*
X39556242Y-72216370D01*
X39398629Y-72058757D01*
X39398622Y-72058751D01*
X39398612Y-72058743D01*
X39398603Y-72058736D01*
X39223754Y-71924571D01*
X39223751Y-71924569D01*
X39221505Y-71922845D01*
X39220486Y-71922233D01*
X39218589Y-71921212D01*
X39028726Y-71811595D01*
X39028722Y-71811593D01*
X38826829Y-71727966D01*
X38822787Y-71726291D01*
X38608476Y-71668867D01*
X38608472Y-71668866D01*
X38607463Y-71668596D01*
X38607457Y-71668595D01*
X38607452Y-71668594D01*
X38388259Y-71639737D01*
X38388255Y-71639735D01*
X38386654Y-71639500D01*
X38386463Y-71639500D01*
X38386457Y-71639500D01*
X38163543Y-71639500D01*
X38163537Y-71639500D01*
X38163535Y-71639500D01*
X38158039Y-71640176D01*
X38157316Y-71640316D01*
X38156796Y-71640387D01*
X37942547Y-71668594D01*
X37942540Y-71668595D01*
X37942537Y-71668596D01*
X37931495Y-71671554D01*
X37931492Y-71671555D01*
X37727222Y-71726288D01*
X37727199Y-71726297D01*
X37521272Y-71811595D01*
X37328237Y-71923044D01*
X37328212Y-71923061D01*
X37328210Y-71923062D01*
X37151395Y-72058736D01*
X37151379Y-72058749D01*
X37151369Y-72058758D01*
X37151361Y-72058765D01*
X36993765Y-72216361D01*
X36993758Y-72216369D01*
X36993749Y-72216379D01*
X36993736Y-72216395D01*
X36858062Y-72393210D01*
X36858061Y-72393212D01*
X36858044Y-72393237D01*
X36746595Y-72586272D01*
X36661297Y-72792199D01*
X36661288Y-72792222D01*
X36603600Y-73007518D01*
X36603595Y-73007543D01*
X36603592Y-73007556D01*
X36574503Y-73228516D01*
X36574500Y-73228541D01*
X23588780Y-73228541D01*
X23468247Y-73062641D01*
X23468243Y-73062636D01*
X23468240Y-73062633D01*
X23468237Y-73062629D01*
X23312369Y-72906761D01*
X23312364Y-72906757D01*
X23312363Y-72906756D01*
X23312358Y-72906752D01*
X23298940Y-72897003D01*
X23144630Y-72784891D01*
X23144618Y-72784883D01*
X23134025Y-72777187D01*
X23134024Y-72777186D01*
X23134022Y-72777185D01*
X23127909Y-72774070D01*
X23127898Y-72774063D01*
X23071098Y-72745123D01*
X23071096Y-72745122D01*
X22937606Y-72677104D01*
X22937602Y-72677102D01*
X22937579Y-72677094D01*
X22727954Y-72608985D01*
X22727955Y-72608985D01*
X22619086Y-72591742D01*
X22510227Y-72574500D01*
X22510222Y-72574500D01*
X22289778Y-72574500D01*
X22289774Y-72574500D01*
X22231716Y-72583696D01*
X22217201Y-72585995D01*
X22072043Y-72608985D01*
X21862419Y-72677094D01*
X21862396Y-72677102D01*
X21862392Y-72677104D01*
X21665972Y-72777187D01*
X21487658Y-72906739D01*
X21487629Y-72906761D01*
X21331761Y-73062629D01*
X21331739Y-73062658D01*
X21202187Y-73240972D01*
X21102104Y-73437392D01*
X21102102Y-73437396D01*
X21102094Y-73437419D01*
X21033985Y-73647043D01*
X20999500Y-73864772D01*
X20500500Y-73864772D01*
X20500500Y-64347642D01*
X21099500Y-64347642D01*
X21099500Y-64552356D01*
X21131521Y-64754530D01*
X21194780Y-64949221D01*
X21194785Y-64949232D01*
X21287708Y-65131601D01*
X21287713Y-65131610D01*
X21287715Y-65131613D01*
X21408028Y-65297213D01*
X21552786Y-65441971D01*
X21707749Y-65554556D01*
X21718390Y-65562287D01*
X21796878Y-65602278D01*
X21798506Y-65603171D01*
X21800463Y-65605134D01*
X21824045Y-65621760D01*
X21833459Y-65630652D01*
X21844146Y-65648963D01*
X21847829Y-65652658D01*
X21848724Y-65656806D01*
X21868679Y-65690996D01*
X21865683Y-65760801D01*
X21829521Y-65814505D01*
X21822519Y-65820573D01*
X21797606Y-65837350D01*
X21718387Y-65877714D01*
X21718385Y-65877715D01*
X21552787Y-65998027D01*
X21552784Y-65998029D01*
X21408029Y-66142784D01*
X21408027Y-66142787D01*
X21287715Y-66308385D01*
X21287708Y-66308397D01*
X21194786Y-66490764D01*
X21194780Y-66490777D01*
X21131521Y-66685468D01*
X21099500Y-66887642D01*
X21099500Y-67092356D01*
X21131521Y-67294530D01*
X21131522Y-67294534D01*
X21194781Y-67489223D01*
X21258691Y-67614653D01*
X21283627Y-67663591D01*
X21287713Y-67671610D01*
X21287717Y-67671616D01*
X21408026Y-67837211D01*
X21408028Y-67837213D01*
X21552786Y-67981971D01*
X21707749Y-68094556D01*
X21718390Y-68102287D01*
X21834607Y-68161503D01*
X21895154Y-68192353D01*
X21896043Y-68192824D01*
X21896249Y-68193025D01*
X21899629Y-68194662D01*
X21901637Y-68195660D01*
X21905403Y-68196722D01*
X21945488Y-68209746D01*
X22005135Y-68229126D01*
X22005136Y-68229127D01*
X22048612Y-68243253D01*
X22095465Y-68258477D01*
X22196557Y-68274488D01*
X22297648Y-68290500D01*
X22297649Y-68290500D01*
X22502351Y-68290500D01*
X22502352Y-68290500D01*
X22704534Y-68258477D01*
X22899219Y-68195220D01*
X23081610Y-68102287D01*
X23241462Y-67986149D01*
X23247213Y-67981971D01*
X23247214Y-67981969D01*
X23247275Y-67981925D01*
X23248034Y-67981150D01*
X23391966Y-67837219D01*
X23391968Y-67837215D01*
X23391971Y-67837213D01*
X23465691Y-67735744D01*
X23512287Y-67671610D01*
X23605220Y-67489219D01*
X23668477Y-67294534D01*
X23700500Y-67092352D01*
X23700500Y-66887648D01*
X23668477Y-66685466D01*
X23668476Y-66685462D01*
X23668476Y-66685461D01*
X23607833Y-66498823D01*
X23605220Y-66490781D01*
X23605218Y-66490778D01*
X23605218Y-66490776D01*
X23602977Y-66486378D01*
X23602667Y-66485583D01*
X23601932Y-66484327D01*
X23571503Y-66424607D01*
X23512287Y-66308390D01*
X23504556Y-66297749D01*
X23391971Y-66142786D01*
X23247213Y-65998028D01*
X23247212Y-65998027D01*
X23247209Y-65998024D01*
X23081616Y-65877716D01*
X23081337Y-65877574D01*
X23075006Y-65874348D01*
X23004799Y-65838575D01*
X22975956Y-65818242D01*
X22966538Y-65809347D01*
X22957553Y-65793953D01*
X22954005Y-65790602D01*
X22952831Y-65785862D01*
X22931320Y-65749005D01*
X22934315Y-65679200D01*
X22970481Y-65625491D01*
X22977486Y-65619421D01*
X23002396Y-65602648D01*
X23019165Y-65594104D01*
X23081610Y-65562287D01*
X23102770Y-65546913D01*
X23221922Y-65460346D01*
X23247251Y-65441944D01*
X23247270Y-65441929D01*
X23248032Y-65441152D01*
X23391966Y-65297219D01*
X23391968Y-65297215D01*
X23391971Y-65297213D01*
X23462034Y-65200778D01*
X23512287Y-65131610D01*
X23605220Y-64949219D01*
X23668477Y-64754534D01*
X23700500Y-64552352D01*
X23700500Y-64347648D01*
X23668477Y-64145466D01*
X23659498Y-64117833D01*
X23649369Y-64086658D01*
X23607449Y-63957641D01*
X23606982Y-63955855D01*
X23605626Y-63951949D01*
X23605257Y-63950853D01*
X23605216Y-63950773D01*
X23605216Y-63950771D01*
X23566305Y-63874405D01*
X23566304Y-63874404D01*
X23561876Y-63865715D01*
X23561875Y-63865712D01*
X23561871Y-63865705D01*
X23539690Y-63822172D01*
X36019500Y-63822172D01*
X36019500Y-64117820D01*
X36019501Y-64117849D01*
X36054800Y-64385970D01*
X36058090Y-64410959D01*
X36058091Y-64410964D01*
X36058092Y-64410970D01*
X36058093Y-64410972D01*
X36059393Y-64415824D01*
X36059399Y-64415849D01*
X36086909Y-64518516D01*
X36134616Y-64696564D01*
X36239275Y-64949232D01*
X36247478Y-64969035D01*
X36247738Y-64969673D01*
X36247762Y-64969723D01*
X36395594Y-65225776D01*
X36575577Y-65460336D01*
X36575581Y-65460341D01*
X36575584Y-65460344D01*
X36575590Y-65460351D01*
X36784648Y-65669409D01*
X36784655Y-65669415D01*
X36784658Y-65669417D01*
X36784662Y-65669421D01*
X36986641Y-65824404D01*
X37019222Y-65849404D01*
X37275273Y-65997235D01*
X37277045Y-65998258D01*
X37277046Y-65998259D01*
X37277629Y-65998596D01*
X37282773Y-66000341D01*
X37397029Y-66047668D01*
X37457384Y-66072668D01*
X37544377Y-66108702D01*
X37546198Y-66109533D01*
X37546682Y-66109717D01*
X37549086Y-66110671D01*
X37552345Y-66111431D01*
X37834030Y-66186908D01*
X38127167Y-66225500D01*
X38127174Y-66225500D01*
X38422826Y-66225500D01*
X38422833Y-66225500D01*
X38715970Y-66186908D01*
X39001562Y-66110384D01*
X39274723Y-65997237D01*
X39530778Y-65849404D01*
X39765346Y-65669414D01*
X39974414Y-65460346D01*
X40154404Y-65225778D01*
X40302237Y-64969723D01*
X40415384Y-64696562D01*
X40491908Y-64410970D01*
X40530500Y-64117833D01*
X40530500Y-63822167D01*
X40528805Y-63809294D01*
X40527210Y-63797178D01*
X66959500Y-63797178D01*
X66959500Y-64092820D01*
X66959501Y-64092849D01*
X66998090Y-64385961D01*
X66998091Y-64385966D01*
X66998092Y-64385972D01*
X67004791Y-64410972D01*
X67033607Y-64518516D01*
X67074615Y-64671562D01*
X67074616Y-64671564D01*
X67187478Y-64944035D01*
X67187738Y-64944673D01*
X67187762Y-64944723D01*
X67335594Y-65200776D01*
X67515577Y-65435336D01*
X67515581Y-65435341D01*
X67515584Y-65435344D01*
X67515590Y-65435351D01*
X67724648Y-65644409D01*
X67724655Y-65644415D01*
X67724658Y-65644417D01*
X67724662Y-65644421D01*
X67901301Y-65779960D01*
X67959222Y-65824404D01*
X68215273Y-65972235D01*
X68217045Y-65973258D01*
X68217046Y-65973259D01*
X68217629Y-65973596D01*
X68222773Y-65975341D01*
X68397384Y-66047668D01*
X68484377Y-66083702D01*
X68486198Y-66084533D01*
X68486682Y-66084717D01*
X68489086Y-66085671D01*
X68492345Y-66086431D01*
X68774030Y-66161908D01*
X69067167Y-66200500D01*
X69067174Y-66200500D01*
X69362826Y-66200500D01*
X69362833Y-66200500D01*
X69655970Y-66161908D01*
X69941562Y-66085384D01*
X70214723Y-65972237D01*
X70470778Y-65824404D01*
X70705346Y-65644414D01*
X70914414Y-65435346D01*
X71075222Y-65225777D01*
X71094406Y-65200776D01*
X71205653Y-65008088D01*
X71242237Y-64944723D01*
X71355384Y-64671562D01*
X71431908Y-64385970D01*
X71470500Y-64092833D01*
X71470500Y-63822172D01*
X97789500Y-63822172D01*
X97789500Y-64117820D01*
X97789501Y-64117849D01*
X97824800Y-64385970D01*
X97828090Y-64410959D01*
X97828091Y-64410964D01*
X97828092Y-64410970D01*
X97828093Y-64410972D01*
X97829393Y-64415824D01*
X97829399Y-64415849D01*
X97856909Y-64518516D01*
X97904616Y-64696564D01*
X98009275Y-64949232D01*
X98017478Y-64969035D01*
X98017738Y-64969673D01*
X98017762Y-64969723D01*
X98165594Y-65225776D01*
X98345577Y-65460336D01*
X98345581Y-65460341D01*
X98345584Y-65460344D01*
X98345590Y-65460351D01*
X98554648Y-65669409D01*
X98554655Y-65669415D01*
X98554658Y-65669417D01*
X98554662Y-65669421D01*
X98756641Y-65824404D01*
X98789222Y-65849404D01*
X99045273Y-65997235D01*
X99047045Y-65998258D01*
X99047046Y-65998259D01*
X99047629Y-65998596D01*
X99052773Y-66000341D01*
X99167029Y-66047668D01*
X99227384Y-66072668D01*
X99314377Y-66108702D01*
X99316198Y-66109533D01*
X99316682Y-66109717D01*
X99319086Y-66110671D01*
X99322345Y-66111431D01*
X99604030Y-66186908D01*
X99897167Y-66225500D01*
X99897174Y-66225500D01*
X100192826Y-66225500D01*
X100192833Y-66225500D01*
X100485970Y-66186908D01*
X100771562Y-66110384D01*
X101044723Y-65997237D01*
X101224625Y-65893371D01*
X107474060Y-65893371D01*
X107474060Y-66903641D01*
X107484141Y-67017051D01*
X107537419Y-67203250D01*
X107538773Y-67205690D01*
X107626826Y-67374258D01*
X107674078Y-67432207D01*
X107748988Y-67524078D01*
X107823899Y-67585159D01*
X107829219Y-67589497D01*
X107829226Y-67589504D01*
X107898802Y-67646236D01*
X107898806Y-67646238D01*
X107898809Y-67646241D01*
X107898811Y-67646242D01*
X107904061Y-67649702D01*
X107903655Y-67650316D01*
X107924486Y-67665320D01*
X107934483Y-67674955D01*
X107969090Y-67735652D01*
X107965389Y-67805420D01*
X107962979Y-67812264D01*
X107933701Y-67858759D01*
X107806307Y-67986153D01*
X107676747Y-68164479D01*
X107576664Y-68360899D01*
X107576662Y-68360903D01*
X107576654Y-68360926D01*
X107508545Y-68570550D01*
X107474060Y-68788279D01*
X107474060Y-69008733D01*
X107508545Y-69226462D01*
X107576654Y-69436086D01*
X107576662Y-69436109D01*
X107576664Y-69436113D01*
X107676747Y-69632533D01*
X107793795Y-69793636D01*
X107806312Y-69810865D01*
X107806316Y-69810870D01*
X107806321Y-69810876D01*
X107962187Y-69966742D01*
X107962196Y-69966750D01*
X107962220Y-69966768D01*
X108111411Y-70075161D01*
X108111416Y-70075163D01*
X108117752Y-70079767D01*
X108140538Y-70096322D01*
X108268935Y-70161744D01*
X108336953Y-70196402D01*
X108336956Y-70196403D01*
X108336993Y-70196415D01*
X108337028Y-70196427D01*
X108441781Y-70230462D01*
X108546609Y-70264522D01*
X108764338Y-70299007D01*
X108764339Y-70299007D01*
X109984781Y-70299007D01*
X109984782Y-70299007D01*
X110202511Y-70264522D01*
X110412166Y-70196402D01*
X110608582Y-70096322D01*
X110786925Y-69966749D01*
X110942802Y-69810872D01*
X111072375Y-69632529D01*
X111172455Y-69436113D01*
X111240575Y-69226458D01*
X111275060Y-69008729D01*
X111275060Y-68788285D01*
X111240575Y-68570556D01*
X111172455Y-68360901D01*
X111172455Y-68360900D01*
X111088034Y-68195218D01*
X111072375Y-68164485D01*
X111072371Y-68164479D01*
X111027185Y-68102285D01*
X111016164Y-68087116D01*
X110942807Y-67986148D01*
X110942803Y-67986143D01*
X110942799Y-67986139D01*
X110942797Y-67986136D01*
X110819811Y-67863150D01*
X110819809Y-67863149D01*
X110798657Y-67834895D01*
X110792005Y-67822714D01*
X110777151Y-67754442D01*
X110801564Y-67688979D01*
X110805052Y-67684318D01*
X110835267Y-67661703D01*
X110833702Y-67659784D01*
X110840524Y-67654220D01*
X110846267Y-67650434D01*
X110855599Y-67641928D01*
X111000131Y-67524078D01*
X111122294Y-67374258D01*
X111211797Y-67202913D01*
X111264977Y-67017059D01*
X111275060Y-66903645D01*
X111275060Y-65893369D01*
X111264977Y-65779955D01*
X111211797Y-65594101D01*
X111132330Y-65441969D01*
X111122293Y-65422754D01*
X111065553Y-65353170D01*
X111061212Y-65347846D01*
X111000131Y-65272935D01*
X110908260Y-65198025D01*
X110903828Y-65194411D01*
X110903826Y-65194409D01*
X110850312Y-65150773D01*
X110813624Y-65131609D01*
X110813623Y-65131608D01*
X110678964Y-65061268D01*
X110524405Y-65017044D01*
X110524403Y-65017043D01*
X110499913Y-65010035D01*
X110493713Y-65007871D01*
X110487630Y-65007602D01*
X110404222Y-65000187D01*
X110404222Y-65000186D01*
X110379703Y-64998007D01*
X110379698Y-64998007D01*
X108369422Y-64998007D01*
X108369411Y-64998007D01*
X108357159Y-64999096D01*
X108357159Y-64999097D01*
X108347290Y-64999974D01*
X108256013Y-65008088D01*
X108070157Y-65061267D01*
X107898809Y-65150772D01*
X107748988Y-65272935D01*
X107626825Y-65422756D01*
X107537320Y-65594104D01*
X107484141Y-65779960D01*
X107474060Y-65893371D01*
X101224625Y-65893371D01*
X101300778Y-65849404D01*
X101376311Y-65791446D01*
X101476341Y-65714690D01*
X101535346Y-65669414D01*
X101744414Y-65460346D01*
X101924404Y-65225778D01*
X102072237Y-64969723D01*
X102185384Y-64696562D01*
X102261908Y-64410970D01*
X102300500Y-64117833D01*
X102300500Y-63822167D01*
X102261908Y-63529030D01*
X102185384Y-63243438D01*
X102175028Y-63218437D01*
X102175028Y-63218436D01*
X102146474Y-63149501D01*
X102146474Y-63149500D01*
X102072237Y-62970277D01*
X102064594Y-62957040D01*
X102057803Y-62945276D01*
X102057802Y-62945275D01*
X101924407Y-62714226D01*
X101924406Y-62714224D01*
X101744421Y-62479662D01*
X101744417Y-62479658D01*
X101744415Y-62479655D01*
X101744409Y-62479648D01*
X101535351Y-62270590D01*
X101535344Y-62270584D01*
X101535341Y-62270581D01*
X101535336Y-62270577D01*
X101300776Y-62090594D01*
X101044723Y-61942762D01*
X101044673Y-61942738D01*
X101044035Y-61942478D01*
X100771564Y-61829616D01*
X100771557Y-61829614D01*
X100618516Y-61788607D01*
X100541993Y-61768103D01*
X100485972Y-61753092D01*
X100485966Y-61753091D01*
X100485961Y-61753090D01*
X100196933Y-61715039D01*
X100194917Y-61714705D01*
X100192843Y-61714500D01*
X100192838Y-61714500D01*
X100192833Y-61714500D01*
X99897167Y-61714500D01*
X99897161Y-61714500D01*
X99897156Y-61714500D01*
X99895079Y-61714705D01*
X99893065Y-61715039D01*
X99604061Y-61753087D01*
X99604029Y-61753091D01*
X99602222Y-61753518D01*
X99600439Y-61754054D01*
X99548007Y-61768103D01*
X99318441Y-61829614D01*
X99318427Y-61829619D01*
X99045963Y-61942478D01*
X99045333Y-61942734D01*
X99045275Y-61942762D01*
X98789222Y-62090594D01*
X98554662Y-62270577D01*
X98554647Y-62270591D01*
X98554639Y-62270598D01*
X98345598Y-62479639D01*
X98345591Y-62479647D01*
X98345577Y-62479662D01*
X98165594Y-62714222D01*
X98017762Y-62970275D01*
X98017734Y-62970333D01*
X98017478Y-62970963D01*
X97904616Y-63243435D01*
X97897537Y-63269854D01*
X97828096Y-63529011D01*
X97828091Y-63529036D01*
X97828088Y-63529049D01*
X97791193Y-63809293D01*
X97791194Y-63809294D01*
X97789504Y-63822136D01*
X97789500Y-63822172D01*
X71470500Y-63822172D01*
X71470500Y-63797167D01*
X71431908Y-63504030D01*
X71355384Y-63218438D01*
X71327683Y-63151563D01*
X71326828Y-63149500D01*
X71288009Y-63055780D01*
X71277652Y-63030777D01*
X71242237Y-62945277D01*
X71242236Y-62945275D01*
X71242235Y-62945273D01*
X71094404Y-62689222D01*
X70976939Y-62536138D01*
X70914421Y-62454662D01*
X70914417Y-62454658D01*
X70914415Y-62454655D01*
X70914409Y-62454648D01*
X70705351Y-62245590D01*
X70705344Y-62245584D01*
X70705341Y-62245581D01*
X70705336Y-62245577D01*
X70535145Y-62114985D01*
X70535083Y-62114939D01*
X70470779Y-62065597D01*
X70470780Y-62065597D01*
X70470778Y-62065596D01*
X70461374Y-62060166D01*
X70461371Y-62060164D01*
X70460690Y-62059771D01*
X70460689Y-62059770D01*
X70283127Y-61957255D01*
X92239500Y-61957255D01*
X92239500Y-62162745D01*
X92255573Y-62264225D01*
X92267686Y-62340706D01*
X92270119Y-62356064D01*
X92270120Y-62356072D01*
X92271646Y-62365712D01*
X92335144Y-62561136D01*
X92337490Y-62565980D01*
X92338435Y-62567594D01*
X92428436Y-62744231D01*
X92549220Y-62910476D01*
X92694524Y-63055780D01*
X92860769Y-63176564D01*
X93043862Y-63269854D01*
X93043864Y-63269855D01*
X93230368Y-63330453D01*
X93238900Y-63333226D01*
X93238908Y-63333229D01*
X93239267Y-63333345D01*
X93239291Y-63333353D01*
X93239292Y-63333353D01*
X93239295Y-63333354D01*
X93442255Y-63365500D01*
X93442256Y-63365500D01*
X93647744Y-63365500D01*
X93647745Y-63365500D01*
X93850705Y-63333354D01*
X93850708Y-63333353D01*
X93850709Y-63333353D01*
X94046135Y-63269855D01*
X94046135Y-63269854D01*
X94055416Y-63266839D01*
X94055417Y-63266838D01*
X94055422Y-63266837D01*
X94063407Y-63264242D01*
X94072656Y-63256342D01*
X94229231Y-63176564D01*
X94395476Y-63055780D01*
X94540780Y-62910476D01*
X94661564Y-62744231D01*
X94754854Y-62561138D01*
X94762978Y-62536135D01*
X94818353Y-62365709D01*
X94818353Y-62365708D01*
X94818354Y-62365705D01*
X94850500Y-62162745D01*
X94850500Y-61957255D01*
X94848160Y-61942478D01*
X94818354Y-61754293D01*
X94809722Y-61727728D01*
X94754855Y-61558864D01*
X94754853Y-61558861D01*
X94754853Y-61558859D01*
X94705639Y-61462273D01*
X94661563Y-61375768D01*
X94655508Y-61367435D01*
X94643402Y-61350771D01*
X94643400Y-61350770D01*
X94643400Y-61350769D01*
X94540780Y-61209524D01*
X94395476Y-61064220D01*
X94229231Y-60943436D01*
X94180166Y-60918436D01*
X94046132Y-60850142D01*
X93850712Y-60786646D01*
X93850709Y-60786646D01*
X93692863Y-60761646D01*
X93683222Y-60760119D01*
X93647745Y-60754500D01*
X93647744Y-60754500D01*
X93442251Y-60754500D01*
X93374601Y-60765215D01*
X93248934Y-60785119D01*
X93248926Y-60785119D01*
X93248927Y-60785120D01*
X93239288Y-60786646D01*
X93043859Y-60850145D01*
X92860767Y-60943436D01*
X92765917Y-61012349D01*
X92694521Y-61064222D01*
X92694519Y-61064224D01*
X92694518Y-61064224D01*
X92549224Y-61209518D01*
X92549224Y-61209519D01*
X92549222Y-61209521D01*
X92549221Y-61209523D01*
X92428436Y-61375767D01*
X92335145Y-61558859D01*
X92271646Y-61754288D01*
X92270189Y-61763491D01*
X92239500Y-61957255D01*
X70283127Y-61957255D01*
X70214723Y-61917762D01*
X70214673Y-61917738D01*
X70214035Y-61917478D01*
X69941564Y-61804616D01*
X69941557Y-61804614D01*
X69754051Y-61754372D01*
X69753862Y-61754322D01*
X69753761Y-61754295D01*
X69655970Y-61728092D01*
X69655964Y-61728091D01*
X69655959Y-61728090D01*
X69653210Y-61727728D01*
X69366933Y-61690039D01*
X69364917Y-61689705D01*
X69362843Y-61689500D01*
X69362838Y-61689500D01*
X69362833Y-61689500D01*
X69067167Y-61689500D01*
X69067161Y-61689500D01*
X69067156Y-61689500D01*
X69065079Y-61689705D01*
X69063065Y-61690039D01*
X68774061Y-61728087D01*
X68774029Y-61728091D01*
X68772222Y-61728518D01*
X68770439Y-61729054D01*
X68718007Y-61743103D01*
X68488441Y-61804614D01*
X68488427Y-61804619D01*
X68215963Y-61917478D01*
X68215333Y-61917734D01*
X68215275Y-61917762D01*
X67959222Y-62065594D01*
X67724662Y-62245577D01*
X67724647Y-62245591D01*
X67724639Y-62245598D01*
X67515598Y-62454639D01*
X67515591Y-62454647D01*
X67515577Y-62454662D01*
X67335594Y-62689222D01*
X67187763Y-62945274D01*
X67187734Y-62945333D01*
X67187478Y-62945963D01*
X67177384Y-62970333D01*
X67074616Y-63218435D01*
X67067537Y-63244854D01*
X66998096Y-63504011D01*
X66998091Y-63504036D01*
X66998088Y-63504049D01*
X66959501Y-63797149D01*
X66959500Y-63797178D01*
X40527210Y-63797178D01*
X40508816Y-63657466D01*
X40491908Y-63529030D01*
X40415384Y-63243438D01*
X40405028Y-63218437D01*
X40405028Y-63218436D01*
X40376474Y-63149501D01*
X40376474Y-63149500D01*
X40302237Y-62970277D01*
X40294594Y-62957040D01*
X40287803Y-62945276D01*
X40287802Y-62945275D01*
X40154407Y-62714226D01*
X40154406Y-62714224D01*
X39974421Y-62479662D01*
X39974417Y-62479658D01*
X39974415Y-62479655D01*
X39974409Y-62479648D01*
X39765351Y-62270590D01*
X39765344Y-62270584D01*
X39765341Y-62270581D01*
X39765336Y-62270577D01*
X39530776Y-62090594D01*
X39434449Y-62034980D01*
X39434428Y-62034968D01*
X39434085Y-62034770D01*
X39274726Y-61942764D01*
X39274716Y-61942760D01*
X39266857Y-61939504D01*
X39266856Y-61939504D01*
X39249351Y-61932253D01*
X61409500Y-61932253D01*
X61409500Y-62137744D01*
X61413460Y-62162747D01*
X61440119Y-62331064D01*
X61440120Y-62331072D01*
X61441646Y-62340710D01*
X61441771Y-62341095D01*
X61505144Y-62536135D01*
X61505145Y-62536136D01*
X61505146Y-62536140D01*
X61517883Y-62561136D01*
X61517883Y-62561138D01*
X61517884Y-62561138D01*
X61598436Y-62719231D01*
X61719220Y-62885476D01*
X61864524Y-63030780D01*
X61898934Y-63055780D01*
X62030770Y-63151565D01*
X62202873Y-63239255D01*
X62211077Y-63243435D01*
X62213864Y-63244855D01*
X62409291Y-63308353D01*
X62409292Y-63308353D01*
X62409295Y-63308354D01*
X62612255Y-63340500D01*
X62612256Y-63340500D01*
X62817744Y-63340500D01*
X62817745Y-63340500D01*
X63020705Y-63308354D01*
X63020708Y-63308353D01*
X63020709Y-63308353D01*
X63216135Y-63244855D01*
X63216135Y-63244854D01*
X63225416Y-63241839D01*
X63225417Y-63241838D01*
X63225422Y-63241837D01*
X63233407Y-63239242D01*
X63242656Y-63231342D01*
X63399231Y-63151564D01*
X63565476Y-63030780D01*
X63710780Y-62885476D01*
X63831564Y-62719231D01*
X63924854Y-62536138D01*
X63924855Y-62536135D01*
X63988353Y-62340709D01*
X63988353Y-62340708D01*
X63988354Y-62340705D01*
X64020500Y-62137745D01*
X64020500Y-61932255D01*
X64004244Y-61829619D01*
X63988354Y-61729293D01*
X63987209Y-61725771D01*
X63924855Y-61533864D01*
X63844302Y-61375769D01*
X63831564Y-61350769D01*
X63710780Y-61184524D01*
X63565476Y-61039220D01*
X63399231Y-60918436D01*
X63265200Y-60850144D01*
X63265196Y-60850142D01*
X63216139Y-60825145D01*
X63020708Y-60761646D01*
X62975590Y-60754500D01*
X62868485Y-60737536D01*
X62848189Y-60734321D01*
X62817748Y-60729500D01*
X62817745Y-60729500D01*
X62612255Y-60729500D01*
X62612251Y-60729500D01*
X62544601Y-60740215D01*
X62418934Y-60760119D01*
X62418926Y-60760119D01*
X62418927Y-60760120D01*
X62409288Y-60761646D01*
X62213859Y-60825145D01*
X62030767Y-60918436D01*
X61935917Y-60987349D01*
X61864521Y-61039222D01*
X61864519Y-61039224D01*
X61864518Y-61039224D01*
X61719224Y-61184518D01*
X61719224Y-61184519D01*
X61719222Y-61184521D01*
X61667349Y-61255917D01*
X61598436Y-61350767D01*
X61505145Y-61533859D01*
X61441646Y-61729288D01*
X61440120Y-61738927D01*
X61440119Y-61738934D01*
X61411796Y-61917758D01*
X61409500Y-61932253D01*
X39249351Y-61932253D01*
X39001564Y-61829616D01*
X39001557Y-61829614D01*
X38848516Y-61788607D01*
X38771993Y-61768103D01*
X38715972Y-61753092D01*
X38715966Y-61753091D01*
X38715961Y-61753090D01*
X38426933Y-61715039D01*
X38424917Y-61714705D01*
X38422843Y-61714500D01*
X38422838Y-61714500D01*
X38422833Y-61714500D01*
X38127167Y-61714500D01*
X38127161Y-61714500D01*
X38127156Y-61714500D01*
X38125079Y-61714705D01*
X38123065Y-61715039D01*
X37834061Y-61753087D01*
X37834029Y-61753091D01*
X37832222Y-61753518D01*
X37830439Y-61754054D01*
X37778007Y-61768103D01*
X37548441Y-61829614D01*
X37548427Y-61829619D01*
X37275963Y-61942478D01*
X37275333Y-61942734D01*
X37275275Y-61942762D01*
X37019222Y-62090594D01*
X36784662Y-62270577D01*
X36784647Y-62270591D01*
X36784639Y-62270598D01*
X36575598Y-62479639D01*
X36575591Y-62479647D01*
X36575577Y-62479662D01*
X36395594Y-62714222D01*
X36247762Y-62970275D01*
X36247734Y-62970333D01*
X36247478Y-62970963D01*
X36134616Y-63243435D01*
X36127537Y-63269854D01*
X36058096Y-63529011D01*
X36058091Y-63529036D01*
X36058088Y-63529049D01*
X36021193Y-63809293D01*
X36021194Y-63809294D01*
X36019504Y-63822136D01*
X36019500Y-63822172D01*
X23539690Y-63822172D01*
X23512287Y-63768390D01*
X23512285Y-63768387D01*
X23512284Y-63768385D01*
X23512283Y-63768383D01*
X23512278Y-63768375D01*
X23391974Y-63602789D01*
X23247211Y-63458026D01*
X23092202Y-63345408D01*
X23092199Y-63345406D01*
X23081613Y-63337715D01*
X23081612Y-63337714D01*
X23081610Y-63337713D01*
X23075535Y-63334617D01*
X23075531Y-63334615D01*
X23023988Y-63308353D01*
X23023988Y-63308352D01*
X23023986Y-63308352D01*
X22899229Y-63244783D01*
X22899221Y-63244780D01*
X22794316Y-63210694D01*
X22704534Y-63181522D01*
X22704532Y-63181521D01*
X22704530Y-63181521D01*
X22704529Y-63181520D01*
X22515378Y-63151563D01*
X22502352Y-63149500D01*
X22297648Y-63149500D01*
X22284622Y-63151563D01*
X22095469Y-63181520D01*
X22095468Y-63181521D01*
X21900777Y-63244780D01*
X21900764Y-63244786D01*
X21718397Y-63337708D01*
X21718385Y-63337715D01*
X21552787Y-63458027D01*
X21552784Y-63458029D01*
X21408029Y-63602784D01*
X21408027Y-63602787D01*
X21287715Y-63768385D01*
X21287708Y-63768397D01*
X21194786Y-63950764D01*
X21194780Y-63950777D01*
X21131521Y-64145468D01*
X21099500Y-64347642D01*
X20500500Y-64347642D01*
X20500500Y-61957255D01*
X30469500Y-61957255D01*
X30469500Y-62162745D01*
X30485573Y-62264225D01*
X30497686Y-62340706D01*
X30500119Y-62356064D01*
X30500120Y-62356072D01*
X30501646Y-62365712D01*
X30565144Y-62561136D01*
X30567490Y-62565980D01*
X30568435Y-62567594D01*
X30658436Y-62744231D01*
X30779220Y-62910476D01*
X30924524Y-63055780D01*
X31090769Y-63176564D01*
X31273862Y-63269854D01*
X31273864Y-63269855D01*
X31460368Y-63330453D01*
X31468900Y-63333226D01*
X31468908Y-63333229D01*
X31469267Y-63333345D01*
X31469291Y-63333353D01*
X31469292Y-63333353D01*
X31469295Y-63333354D01*
X31672255Y-63365500D01*
X31672256Y-63365500D01*
X31877744Y-63365500D01*
X31877745Y-63365500D01*
X32080705Y-63333354D01*
X32080708Y-63333353D01*
X32080709Y-63333353D01*
X32276135Y-63269855D01*
X32276135Y-63269854D01*
X32285416Y-63266839D01*
X32285417Y-63266838D01*
X32285422Y-63266837D01*
X32293407Y-63264242D01*
X32302656Y-63256342D01*
X32459231Y-63176564D01*
X32625476Y-63055780D01*
X32770780Y-62910476D01*
X32891564Y-62744231D01*
X32984854Y-62561138D01*
X32992978Y-62536135D01*
X33048353Y-62365709D01*
X33048353Y-62365708D01*
X33048354Y-62365705D01*
X33080500Y-62162745D01*
X33080500Y-61957255D01*
X33078160Y-61942478D01*
X33048354Y-61754293D01*
X33039722Y-61727728D01*
X32984855Y-61558864D01*
X32984853Y-61558861D01*
X32984853Y-61558859D01*
X32935639Y-61462273D01*
X32891563Y-61375768D01*
X32885508Y-61367435D01*
X32873402Y-61350771D01*
X32873400Y-61350770D01*
X32873400Y-61350769D01*
X32770780Y-61209524D01*
X32625476Y-61064220D01*
X32459231Y-60943436D01*
X32410166Y-60918436D01*
X32276132Y-60850142D01*
X32080712Y-60786646D01*
X32080709Y-60786646D01*
X31922863Y-60761646D01*
X31913222Y-60760119D01*
X31877745Y-60754500D01*
X31877744Y-60754500D01*
X31672251Y-60754500D01*
X31604601Y-60765215D01*
X31478934Y-60785119D01*
X31478926Y-60785119D01*
X31478927Y-60785120D01*
X31469288Y-60786646D01*
X31273859Y-60850145D01*
X31090767Y-60943436D01*
X30995917Y-61012349D01*
X30924521Y-61064222D01*
X30924519Y-61064224D01*
X30924518Y-61064224D01*
X30779224Y-61209518D01*
X30779224Y-61209519D01*
X30779222Y-61209521D01*
X30779221Y-61209523D01*
X30658436Y-61375767D01*
X30565145Y-61558859D01*
X30501646Y-61754288D01*
X30500188Y-61763491D01*
X30500189Y-61763491D01*
X30469500Y-61957255D01*
X20500500Y-61957255D01*
X20500500Y-55412172D01*
X27589500Y-55412172D01*
X27589500Y-55707820D01*
X27589501Y-55707849D01*
X27624800Y-55975970D01*
X27628090Y-56000959D01*
X27628091Y-56000964D01*
X27628092Y-56000970D01*
X27628093Y-56000972D01*
X27629393Y-56005824D01*
X27629399Y-56005849D01*
X27656909Y-56108516D01*
X27704616Y-56286564D01*
X27807409Y-56534726D01*
X27817478Y-56559035D01*
X27817738Y-56559673D01*
X27817762Y-56559723D01*
X27965594Y-56815776D01*
X28145577Y-57050336D01*
X28145581Y-57050341D01*
X28145584Y-57050344D01*
X28145590Y-57050351D01*
X28354648Y-57259409D01*
X28354655Y-57259415D01*
X28354658Y-57259417D01*
X28354662Y-57259421D01*
X28556641Y-57414404D01*
X28589222Y-57439404D01*
X28845273Y-57587235D01*
X28847045Y-57588258D01*
X28847046Y-57588259D01*
X28847629Y-57588596D01*
X28852773Y-57590341D01*
X28967029Y-57637668D01*
X29027384Y-57662668D01*
X29114377Y-57698702D01*
X29116198Y-57699533D01*
X29116682Y-57699717D01*
X29119086Y-57700671D01*
X29122345Y-57701431D01*
X29404030Y-57776908D01*
X29697167Y-57815500D01*
X29697174Y-57815500D01*
X29992826Y-57815500D01*
X29992833Y-57815500D01*
X30285970Y-57776908D01*
X30571562Y-57700384D01*
X30844723Y-57587237D01*
X31100778Y-57439404D01*
X31335346Y-57259414D01*
X31544414Y-57050346D01*
X31724404Y-56815778D01*
X31872237Y-56559723D01*
X31985384Y-56286562D01*
X32061908Y-56000970D01*
X32100500Y-55707833D01*
X32100500Y-55412167D01*
X32061908Y-55119030D01*
X31985384Y-54833438D01*
X31975027Y-54808435D01*
X31872483Y-54560872D01*
X31872258Y-54560319D01*
X31872236Y-54560275D01*
X31858199Y-54535963D01*
X31724404Y-54304222D01*
X31675157Y-54240042D01*
X31675154Y-54240033D01*
X31675142Y-54240022D01*
X31674582Y-54239292D01*
X31619209Y-54167128D01*
X36019500Y-54167128D01*
X36019500Y-57772876D01*
X36019659Y-57774806D01*
X36019885Y-57776454D01*
X36025907Y-57832482D01*
X36053690Y-57906971D01*
X36076202Y-57967328D01*
X36076203Y-57967330D01*
X36076204Y-57967332D01*
X36076205Y-57967333D01*
X36162450Y-58082542D01*
X36162452Y-58082544D01*
X36162455Y-58082547D01*
X36277664Y-58168793D01*
X36277671Y-58168797D01*
X36412517Y-58219091D01*
X36412516Y-58219091D01*
X36419444Y-58219835D01*
X36472127Y-58225500D01*
X40077872Y-58225499D01*
X40137483Y-58219091D01*
X40272331Y-58168796D01*
X40387546Y-58082546D01*
X40473796Y-57967331D01*
X40524091Y-57832483D01*
X40530500Y-57772873D01*
X40530499Y-55412172D01*
X44449500Y-55412172D01*
X44449500Y-55707820D01*
X44449501Y-55707849D01*
X44484800Y-55975970D01*
X44488090Y-56000959D01*
X44488091Y-56000964D01*
X44488092Y-56000970D01*
X44488093Y-56000972D01*
X44489393Y-56005824D01*
X44489399Y-56005849D01*
X44516909Y-56108516D01*
X44564616Y-56286564D01*
X44667409Y-56534726D01*
X44677478Y-56559035D01*
X44677738Y-56559673D01*
X44677762Y-56559723D01*
X44825594Y-56815776D01*
X45005577Y-57050336D01*
X45005581Y-57050341D01*
X45005584Y-57050344D01*
X45005590Y-57050351D01*
X45214648Y-57259409D01*
X45214655Y-57259415D01*
X45214658Y-57259417D01*
X45214662Y-57259421D01*
X45416641Y-57414404D01*
X45449222Y-57439404D01*
X45705273Y-57587235D01*
X45707045Y-57588258D01*
X45707046Y-57588259D01*
X45707629Y-57588596D01*
X45712773Y-57590341D01*
X45827029Y-57637668D01*
X45887384Y-57662668D01*
X45974377Y-57698702D01*
X45976198Y-57699533D01*
X45976682Y-57699717D01*
X45979086Y-57700671D01*
X45982345Y-57701431D01*
X46264030Y-57776908D01*
X46557167Y-57815500D01*
X46557174Y-57815500D01*
X46852826Y-57815500D01*
X46852833Y-57815500D01*
X47145970Y-57776908D01*
X47431562Y-57700384D01*
X47704723Y-57587237D01*
X47960778Y-57439404D01*
X48195346Y-57259414D01*
X48404414Y-57050346D01*
X48584404Y-56815778D01*
X48732237Y-56559723D01*
X48845384Y-56286562D01*
X48921908Y-56000970D01*
X48960500Y-55707833D01*
X48960500Y-55412167D01*
X48958805Y-55399294D01*
X48957210Y-55387178D01*
X58529500Y-55387178D01*
X58529500Y-55682820D01*
X58529501Y-55682849D01*
X58568090Y-55975961D01*
X58568091Y-55975966D01*
X58568092Y-55975972D01*
X58603607Y-56108515D01*
X58644616Y-56261564D01*
X58757478Y-56534035D01*
X58757738Y-56534673D01*
X58757762Y-56534723D01*
X58905594Y-56790776D01*
X59085577Y-57025336D01*
X59085581Y-57025341D01*
X59085584Y-57025344D01*
X59085590Y-57025351D01*
X59294648Y-57234409D01*
X59294655Y-57234415D01*
X59294658Y-57234417D01*
X59294662Y-57234421D01*
X59529222Y-57414404D01*
X59785273Y-57562235D01*
X59787045Y-57563258D01*
X59787046Y-57563259D01*
X59787629Y-57563596D01*
X59792773Y-57565341D01*
X59967384Y-57637668D01*
X60054377Y-57673702D01*
X60056198Y-57674533D01*
X60056682Y-57674717D01*
X60059086Y-57675671D01*
X60062345Y-57676431D01*
X60344030Y-57751908D01*
X60637167Y-57790500D01*
X60637174Y-57790500D01*
X60932826Y-57790500D01*
X60932833Y-57790500D01*
X61225970Y-57751908D01*
X61511562Y-57675384D01*
X61784723Y-57562237D01*
X62040778Y-57414404D01*
X62275346Y-57234414D01*
X62484414Y-57025346D01*
X62664404Y-56790778D01*
X62812237Y-56534723D01*
X62925384Y-56261562D01*
X63001908Y-55975970D01*
X63040500Y-55682833D01*
X63040500Y-55387167D01*
X63001908Y-55094030D01*
X62925384Y-54808438D01*
X62812237Y-54535277D01*
X62664404Y-54279222D01*
X62578392Y-54167129D01*
X62559206Y-54142125D01*
X66959500Y-54142125D01*
X66959500Y-57747876D01*
X66959659Y-57749806D01*
X66959885Y-57751454D01*
X66965907Y-57807482D01*
X66968897Y-57815498D01*
X67016202Y-57942328D01*
X67016203Y-57942330D01*
X67016204Y-57942332D01*
X67016205Y-57942333D01*
X67102450Y-58057542D01*
X67102452Y-58057544D01*
X67102455Y-58057547D01*
X67217664Y-58143793D01*
X67217671Y-58143797D01*
X67352517Y-58194091D01*
X67352516Y-58194091D01*
X67359444Y-58194835D01*
X67412127Y-58200500D01*
X71017872Y-58200499D01*
X71077483Y-58194091D01*
X71212331Y-58143796D01*
X71327546Y-58057546D01*
X71413796Y-57942331D01*
X71464091Y-57807483D01*
X71470500Y-57747873D01*
X71470499Y-55387178D01*
X75389500Y-55387178D01*
X75389500Y-55682820D01*
X75389501Y-55682849D01*
X75428090Y-55975961D01*
X75428091Y-55975966D01*
X75428092Y-55975972D01*
X75463607Y-56108515D01*
X75504616Y-56261564D01*
X75617478Y-56534035D01*
X75617738Y-56534673D01*
X75617762Y-56534723D01*
X75765594Y-56790776D01*
X75945577Y-57025336D01*
X75945581Y-57025341D01*
X75945584Y-57025344D01*
X75945590Y-57025351D01*
X76154648Y-57234409D01*
X76154655Y-57234415D01*
X76154658Y-57234417D01*
X76154662Y-57234421D01*
X76389222Y-57414404D01*
X76645273Y-57562235D01*
X76647045Y-57563258D01*
X76647046Y-57563259D01*
X76647629Y-57563596D01*
X76652773Y-57565341D01*
X76827384Y-57637668D01*
X76914377Y-57673702D01*
X76916198Y-57674533D01*
X76916682Y-57674717D01*
X76919086Y-57675671D01*
X76922345Y-57676431D01*
X77204030Y-57751908D01*
X77497167Y-57790500D01*
X77497174Y-57790500D01*
X77792826Y-57790500D01*
X77792833Y-57790500D01*
X78085970Y-57751908D01*
X78371562Y-57675384D01*
X78644723Y-57562237D01*
X78900778Y-57414404D01*
X79135346Y-57234414D01*
X79344414Y-57025346D01*
X79524404Y-56790778D01*
X79672237Y-56534723D01*
X79785384Y-56261562D01*
X79861908Y-55975970D01*
X79900500Y-55682833D01*
X79900500Y-55412172D01*
X89359500Y-55412172D01*
X89359500Y-55707820D01*
X89359501Y-55707849D01*
X89394800Y-55975970D01*
X89398090Y-56000959D01*
X89398091Y-56000964D01*
X89398092Y-56000970D01*
X89398093Y-56000972D01*
X89399393Y-56005824D01*
X89399399Y-56005849D01*
X89426909Y-56108516D01*
X89474616Y-56286564D01*
X89577409Y-56534726D01*
X89587478Y-56559035D01*
X89587738Y-56559673D01*
X89587762Y-56559723D01*
X89735594Y-56815776D01*
X89915577Y-57050336D01*
X89915581Y-57050341D01*
X89915584Y-57050344D01*
X89915590Y-57050351D01*
X90124648Y-57259409D01*
X90124655Y-57259415D01*
X90124658Y-57259417D01*
X90124662Y-57259421D01*
X90326641Y-57414404D01*
X90359222Y-57439404D01*
X90615273Y-57587235D01*
X90617045Y-57588258D01*
X90617046Y-57588259D01*
X90617629Y-57588596D01*
X90622773Y-57590341D01*
X90737029Y-57637668D01*
X90797384Y-57662668D01*
X90884377Y-57698702D01*
X90886198Y-57699533D01*
X90886682Y-57699717D01*
X90889086Y-57700671D01*
X90892345Y-57701431D01*
X91174030Y-57776908D01*
X91467167Y-57815500D01*
X91467174Y-57815500D01*
X91762826Y-57815500D01*
X91762833Y-57815500D01*
X92055970Y-57776908D01*
X92341562Y-57700384D01*
X92614723Y-57587237D01*
X92870778Y-57439404D01*
X93105346Y-57259414D01*
X93314414Y-57050346D01*
X93494404Y-56815778D01*
X93642237Y-56559723D01*
X93755384Y-56286562D01*
X93831908Y-56000970D01*
X93870500Y-55707833D01*
X93870500Y-55412167D01*
X93831908Y-55119030D01*
X93755384Y-54833438D01*
X93745027Y-54808435D01*
X93642483Y-54560872D01*
X93642258Y-54560319D01*
X93642236Y-54560275D01*
X93628199Y-54535963D01*
X93494404Y-54304222D01*
X93445157Y-54240042D01*
X93445154Y-54240033D01*
X93445142Y-54240022D01*
X93444582Y-54239292D01*
X93389209Y-54167128D01*
X97789500Y-54167128D01*
X97789500Y-57772876D01*
X97789659Y-57774806D01*
X97789885Y-57776454D01*
X97795907Y-57832482D01*
X97823690Y-57906971D01*
X97846202Y-57967328D01*
X97846203Y-57967330D01*
X97846204Y-57967332D01*
X97846205Y-57967333D01*
X97932450Y-58082542D01*
X97932452Y-58082544D01*
X97932455Y-58082547D01*
X98047664Y-58168793D01*
X98047671Y-58168797D01*
X98182517Y-58219091D01*
X98182516Y-58219091D01*
X98189444Y-58219835D01*
X98242127Y-58225500D01*
X101847872Y-58225499D01*
X101907483Y-58219091D01*
X102042331Y-58168796D01*
X102157546Y-58082546D01*
X102243796Y-57967331D01*
X102294091Y-57832483D01*
X102300500Y-57772873D01*
X102300499Y-55412172D01*
X106219500Y-55412172D01*
X106219500Y-55707820D01*
X106219501Y-55707849D01*
X106254800Y-55975970D01*
X106258090Y-56000959D01*
X106258091Y-56000964D01*
X106258092Y-56000970D01*
X106258093Y-56000972D01*
X106259393Y-56005824D01*
X106259399Y-56005849D01*
X106286909Y-56108516D01*
X106334616Y-56286564D01*
X106437409Y-56534726D01*
X106447478Y-56559035D01*
X106447738Y-56559673D01*
X106447762Y-56559723D01*
X106595594Y-56815776D01*
X106775577Y-57050336D01*
X106775581Y-57050341D01*
X106775584Y-57050344D01*
X106775590Y-57050351D01*
X106984648Y-57259409D01*
X106984655Y-57259415D01*
X106984658Y-57259417D01*
X106984662Y-57259421D01*
X107186641Y-57414404D01*
X107219222Y-57439404D01*
X107475273Y-57587235D01*
X107477045Y-57588258D01*
X107477046Y-57588259D01*
X107477629Y-57588596D01*
X107482773Y-57590341D01*
X107597029Y-57637668D01*
X107657384Y-57662668D01*
X107744377Y-57698702D01*
X107746198Y-57699533D01*
X107746682Y-57699717D01*
X107749086Y-57700671D01*
X107752345Y-57701431D01*
X108034030Y-57776908D01*
X108327167Y-57815500D01*
X108327174Y-57815500D01*
X108622826Y-57815500D01*
X108622833Y-57815500D01*
X108915970Y-57776908D01*
X109201562Y-57700384D01*
X109474723Y-57587237D01*
X109730778Y-57439404D01*
X109965346Y-57259414D01*
X110174414Y-57050346D01*
X110354404Y-56815778D01*
X110502237Y-56559723D01*
X110615384Y-56286562D01*
X110691908Y-56000970D01*
X110730500Y-55707833D01*
X110730500Y-55412167D01*
X110691908Y-55119030D01*
X110615384Y-54833438D01*
X110605027Y-54808435D01*
X110502483Y-54560872D01*
X110502258Y-54560319D01*
X110502236Y-54560275D01*
X110488199Y-54535963D01*
X110354404Y-54304222D01*
X110249210Y-54167130D01*
X110174421Y-54069662D01*
X110174417Y-54069658D01*
X110174415Y-54069655D01*
X110174409Y-54069648D01*
X109965351Y-53860590D01*
X109965344Y-53860584D01*
X109965342Y-53860582D01*
X109965336Y-53860577D01*
X109730776Y-53680594D01*
X109474723Y-53532762D01*
X109474673Y-53532738D01*
X109474035Y-53532478D01*
X109201564Y-53419616D01*
X109201557Y-53419614D01*
X109048516Y-53378607D01*
X108971993Y-53358103D01*
X108915972Y-53343092D01*
X108915966Y-53343091D01*
X108915961Y-53343090D01*
X108626933Y-53305039D01*
X108624917Y-53304705D01*
X108622843Y-53304500D01*
X108622838Y-53304500D01*
X108622833Y-53304500D01*
X108327167Y-53304500D01*
X108327161Y-53304500D01*
X108327156Y-53304500D01*
X108325079Y-53304705D01*
X108323065Y-53305039D01*
X108034061Y-53343087D01*
X108034029Y-53343091D01*
X108032222Y-53343518D01*
X108030439Y-53344054D01*
X107978007Y-53358103D01*
X107748441Y-53419614D01*
X107748427Y-53419619D01*
X107475963Y-53532478D01*
X107475333Y-53532734D01*
X107475275Y-53532762D01*
X107219222Y-53680594D01*
X106984662Y-53860577D01*
X106984653Y-53860586D01*
X106984639Y-53860598D01*
X106775598Y-54069639D01*
X106775591Y-54069647D01*
X106775577Y-54069662D01*
X106595594Y-54304222D01*
X106447762Y-54560275D01*
X106447734Y-54560333D01*
X106447478Y-54560963D01*
X106334615Y-54833437D01*
X106258096Y-55119011D01*
X106258091Y-55119036D01*
X106258088Y-55119049D01*
X106221193Y-55399293D01*
X106221194Y-55399294D01*
X106219504Y-55412136D01*
X106219500Y-55412172D01*
X102300499Y-55412172D01*
X102300499Y-54167128D01*
X102294091Y-54107517D01*
X102294091Y-54107516D01*
X102294089Y-54107510D01*
X102284767Y-54082516D01*
X102284766Y-54082515D01*
X102243797Y-53972671D01*
X102243795Y-53972668D01*
X102243793Y-53972664D01*
X102159891Y-53860586D01*
X102157548Y-53857456D01*
X102157542Y-53857450D01*
X102099616Y-53814086D01*
X102042335Y-53771206D01*
X102042332Y-53771204D01*
X102042330Y-53771203D01*
X102042328Y-53771202D01*
X101907482Y-53720908D01*
X101907483Y-53720908D01*
X101847883Y-53714501D01*
X101847881Y-53714500D01*
X101847873Y-53714500D01*
X101847864Y-53714500D01*
X101846841Y-53714500D01*
X98242123Y-53714500D01*
X98240192Y-53714659D01*
X98238545Y-53714885D01*
X98182516Y-53720908D01*
X98114692Y-53746205D01*
X98047666Y-53771204D01*
X98047665Y-53771205D01*
X97932456Y-53857450D01*
X97932450Y-53857456D01*
X97846205Y-53972665D01*
X97846203Y-53972668D01*
X97795907Y-54107517D01*
X97792187Y-54142134D01*
X97789500Y-54167128D01*
X93389209Y-54167128D01*
X93314421Y-54069662D01*
X93314417Y-54069658D01*
X93314415Y-54069655D01*
X93314409Y-54069648D01*
X93105351Y-53860590D01*
X93105344Y-53860584D01*
X93105342Y-53860582D01*
X93105336Y-53860577D01*
X92870776Y-53680594D01*
X92614723Y-53532762D01*
X92614673Y-53532738D01*
X92614035Y-53532478D01*
X92341564Y-53419616D01*
X92341557Y-53419614D01*
X92188516Y-53378607D01*
X92111993Y-53358103D01*
X92055972Y-53343092D01*
X92055966Y-53343091D01*
X92055961Y-53343090D01*
X91766933Y-53305039D01*
X91764917Y-53304705D01*
X91762843Y-53304500D01*
X91762838Y-53304500D01*
X91762833Y-53304500D01*
X91467167Y-53304500D01*
X91467161Y-53304500D01*
X91467156Y-53304500D01*
X91465079Y-53304705D01*
X91463065Y-53305039D01*
X91174061Y-53343087D01*
X91174029Y-53343091D01*
X91172222Y-53343518D01*
X91170439Y-53344054D01*
X91118007Y-53358103D01*
X90888441Y-53419614D01*
X90888427Y-53419619D01*
X90615963Y-53532478D01*
X90615333Y-53532734D01*
X90615275Y-53532762D01*
X90359222Y-53680594D01*
X90124662Y-53860577D01*
X90124653Y-53860586D01*
X90124639Y-53860598D01*
X89915598Y-54069639D01*
X89915591Y-54069647D01*
X89915577Y-54069662D01*
X89735594Y-54304222D01*
X89587762Y-54560275D01*
X89587734Y-54560333D01*
X89587478Y-54560963D01*
X89474615Y-54833437D01*
X89398096Y-55119011D01*
X89398091Y-55119036D01*
X89398088Y-55119049D01*
X89361193Y-55399293D01*
X89361194Y-55399294D01*
X89359504Y-55412136D01*
X89359500Y-55412172D01*
X79900500Y-55412172D01*
X79900500Y-55387167D01*
X79861908Y-55094030D01*
X79785384Y-54808438D01*
X79672237Y-54535277D01*
X79538838Y-54304222D01*
X79524407Y-54279226D01*
X79494333Y-54240033D01*
X79438392Y-54167129D01*
X79344415Y-54044655D01*
X79344409Y-54044648D01*
X79135351Y-53835590D01*
X79135344Y-53835584D01*
X79135342Y-53835582D01*
X79135336Y-53835577D01*
X78900776Y-53655594D01*
X78644723Y-53507762D01*
X78644673Y-53507738D01*
X78644035Y-53507478D01*
X78371564Y-53394616D01*
X78311817Y-53378607D01*
X78179373Y-53343119D01*
X78179267Y-53343091D01*
X78085970Y-53318092D01*
X78085964Y-53318091D01*
X78085959Y-53318090D01*
X78083229Y-53317730D01*
X78083223Y-53317729D01*
X77796933Y-53280039D01*
X77794917Y-53279705D01*
X77792843Y-53279500D01*
X77792838Y-53279500D01*
X77792833Y-53279500D01*
X77497167Y-53279500D01*
X77497161Y-53279500D01*
X77497156Y-53279500D01*
X77495079Y-53279705D01*
X77493065Y-53280039D01*
X77204061Y-53318087D01*
X77204029Y-53318091D01*
X77202222Y-53318518D01*
X77200439Y-53319054D01*
X77148007Y-53333103D01*
X76918441Y-53394614D01*
X76918427Y-53394619D01*
X76645963Y-53507478D01*
X76645333Y-53507734D01*
X76645275Y-53507762D01*
X76389222Y-53655594D01*
X76154662Y-53835577D01*
X76154653Y-53835586D01*
X76154639Y-53835598D01*
X75945598Y-54044639D01*
X75945591Y-54044647D01*
X75945577Y-54044662D01*
X75765594Y-54279222D01*
X75617762Y-54535275D01*
X75617734Y-54535333D01*
X75617478Y-54535963D01*
X75504615Y-54808437D01*
X75428096Y-55094011D01*
X75428091Y-55094036D01*
X75428088Y-55094049D01*
X75389501Y-55387149D01*
X75389500Y-55387178D01*
X71470499Y-55387178D01*
X71470499Y-54142128D01*
X71464091Y-54082517D01*
X71464091Y-54082516D01*
X71464091Y-54082515D01*
X71459293Y-54069652D01*
X71459292Y-54069650D01*
X71413798Y-53947673D01*
X71413797Y-53947671D01*
X71413795Y-53947668D01*
X71413793Y-53947664D01*
X71329891Y-53835586D01*
X71327548Y-53832456D01*
X71327542Y-53832450D01*
X71223880Y-53754849D01*
X71212335Y-53746206D01*
X71212332Y-53746204D01*
X71212330Y-53746203D01*
X71212328Y-53746202D01*
X71077482Y-53695908D01*
X71077483Y-53695908D01*
X71017883Y-53689501D01*
X71017881Y-53689500D01*
X71017873Y-53689500D01*
X71017864Y-53689500D01*
X71016841Y-53689500D01*
X67412123Y-53689500D01*
X67410192Y-53689659D01*
X67408545Y-53689885D01*
X67352516Y-53695908D01*
X67217666Y-53746204D01*
X67217665Y-53746205D01*
X67102456Y-53832450D01*
X67102450Y-53832456D01*
X67016205Y-53947665D01*
X67016203Y-53947668D01*
X66965908Y-54082516D01*
X66959500Y-54142125D01*
X62559206Y-54142125D01*
X62484415Y-54044655D01*
X62484409Y-54044648D01*
X62275351Y-53835590D01*
X62275344Y-53835584D01*
X62275342Y-53835582D01*
X62275336Y-53835577D01*
X62040776Y-53655594D01*
X61784723Y-53507762D01*
X61784673Y-53507738D01*
X61784035Y-53507478D01*
X61511564Y-53394616D01*
X61451817Y-53378607D01*
X61319373Y-53343119D01*
X61319267Y-53343091D01*
X61225970Y-53318092D01*
X61225964Y-53318091D01*
X61225959Y-53318090D01*
X61223229Y-53317730D01*
X61223223Y-53317729D01*
X60936933Y-53280039D01*
X60934917Y-53279705D01*
X60932843Y-53279500D01*
X60932838Y-53279500D01*
X60932833Y-53279500D01*
X60637167Y-53279500D01*
X60637161Y-53279500D01*
X60637156Y-53279500D01*
X60635079Y-53279705D01*
X60633065Y-53280039D01*
X60344061Y-53318087D01*
X60344029Y-53318091D01*
X60342222Y-53318518D01*
X60340439Y-53319054D01*
X60288007Y-53333103D01*
X60058441Y-53394614D01*
X60058427Y-53394619D01*
X59785963Y-53507478D01*
X59785333Y-53507734D01*
X59785275Y-53507762D01*
X59529222Y-53655594D01*
X59294662Y-53835577D01*
X59294653Y-53835586D01*
X59294639Y-53835598D01*
X59085598Y-54044639D01*
X59085591Y-54044647D01*
X59085577Y-54044662D01*
X58905594Y-54279222D01*
X58757762Y-54535275D01*
X58757734Y-54535333D01*
X58757478Y-54535963D01*
X58644615Y-54808437D01*
X58568096Y-55094011D01*
X58568091Y-55094036D01*
X58568088Y-55094049D01*
X58529501Y-55387149D01*
X58529500Y-55387178D01*
X48957210Y-55387178D01*
X48938816Y-55247466D01*
X48921908Y-55119030D01*
X48845384Y-54833438D01*
X48835027Y-54808435D01*
X48732483Y-54560872D01*
X48732258Y-54560319D01*
X48732236Y-54560275D01*
X48718199Y-54535963D01*
X48584404Y-54304222D01*
X48479210Y-54167130D01*
X48404421Y-54069662D01*
X48404417Y-54069658D01*
X48404415Y-54069655D01*
X48404409Y-54069648D01*
X48195351Y-53860590D01*
X48195344Y-53860584D01*
X48195342Y-53860582D01*
X48195336Y-53860577D01*
X47960776Y-53680594D01*
X47704723Y-53532762D01*
X47704673Y-53532738D01*
X47704035Y-53532478D01*
X47431564Y-53419616D01*
X47431557Y-53419614D01*
X47278516Y-53378607D01*
X47201993Y-53358103D01*
X47145972Y-53343092D01*
X47145966Y-53343091D01*
X47145961Y-53343090D01*
X46856933Y-53305039D01*
X46854917Y-53304705D01*
X46852843Y-53304500D01*
X46852838Y-53304500D01*
X46852833Y-53304500D01*
X46557167Y-53304500D01*
X46557161Y-53304500D01*
X46557156Y-53304500D01*
X46555079Y-53304705D01*
X46553065Y-53305039D01*
X46264061Y-53343087D01*
X46264029Y-53343091D01*
X46262222Y-53343518D01*
X46260439Y-53344054D01*
X46208007Y-53358103D01*
X45978441Y-53419614D01*
X45978427Y-53419619D01*
X45705963Y-53532478D01*
X45705333Y-53532734D01*
X45705275Y-53532762D01*
X45449222Y-53680594D01*
X45214662Y-53860577D01*
X45214653Y-53860586D01*
X45214639Y-53860598D01*
X45005598Y-54069639D01*
X45005591Y-54069647D01*
X45005577Y-54069662D01*
X44825594Y-54304222D01*
X44677762Y-54560275D01*
X44677734Y-54560333D01*
X44677478Y-54560963D01*
X44564615Y-54833437D01*
X44488096Y-55119011D01*
X44488091Y-55119036D01*
X44488088Y-55119049D01*
X44451193Y-55399293D01*
X44451194Y-55399294D01*
X44449504Y-55412136D01*
X44449500Y-55412172D01*
X40530499Y-55412172D01*
X40530499Y-54167128D01*
X40524091Y-54107517D01*
X40524091Y-54107516D01*
X40524089Y-54107510D01*
X40514767Y-54082516D01*
X40514766Y-54082515D01*
X40473797Y-53972671D01*
X40473795Y-53972668D01*
X40473793Y-53972664D01*
X40389891Y-53860586D01*
X40387548Y-53857456D01*
X40387542Y-53857450D01*
X40329616Y-53814086D01*
X40272335Y-53771206D01*
X40272332Y-53771204D01*
X40272330Y-53771203D01*
X40272328Y-53771202D01*
X40137482Y-53720908D01*
X40137483Y-53720908D01*
X40077883Y-53714501D01*
X40077881Y-53714500D01*
X40077873Y-53714500D01*
X40077864Y-53714500D01*
X40076841Y-53714500D01*
X36472123Y-53714500D01*
X36470192Y-53714659D01*
X36468545Y-53714885D01*
X36412516Y-53720908D01*
X36344692Y-53746205D01*
X36277666Y-53771204D01*
X36277665Y-53771205D01*
X36162456Y-53857450D01*
X36162450Y-53857456D01*
X36076205Y-53972665D01*
X36076203Y-53972668D01*
X36025907Y-54107517D01*
X36022187Y-54142134D01*
X36019500Y-54167128D01*
X31619209Y-54167128D01*
X31544421Y-54069662D01*
X31544417Y-54069658D01*
X31544415Y-54069655D01*
X31544409Y-54069648D01*
X31335351Y-53860590D01*
X31335344Y-53860584D01*
X31335342Y-53860582D01*
X31335336Y-53860577D01*
X31100776Y-53680594D01*
X30844723Y-53532762D01*
X30844673Y-53532738D01*
X30844035Y-53532478D01*
X30571564Y-53419616D01*
X30571557Y-53419614D01*
X30418516Y-53378607D01*
X30341993Y-53358103D01*
X30285972Y-53343092D01*
X30285966Y-53343091D01*
X30285961Y-53343090D01*
X29996933Y-53305039D01*
X29994917Y-53304705D01*
X29992843Y-53304500D01*
X29992838Y-53304500D01*
X29992833Y-53304500D01*
X29697167Y-53304500D01*
X29697161Y-53304500D01*
X29697156Y-53304500D01*
X29695079Y-53304705D01*
X29693065Y-53305039D01*
X29404061Y-53343087D01*
X29404029Y-53343091D01*
X29402222Y-53343518D01*
X29400439Y-53344054D01*
X29348007Y-53358103D01*
X29118441Y-53419614D01*
X29118427Y-53419619D01*
X28845963Y-53532478D01*
X28845333Y-53532734D01*
X28845275Y-53532762D01*
X28589222Y-53680594D01*
X28354662Y-53860577D01*
X28354653Y-53860586D01*
X28354639Y-53860598D01*
X28145598Y-54069639D01*
X28145591Y-54069647D01*
X28145577Y-54069662D01*
X27965594Y-54304222D01*
X27817762Y-54560275D01*
X27817734Y-54560333D01*
X27817478Y-54560963D01*
X27704615Y-54833437D01*
X27628096Y-55119011D01*
X27628091Y-55119036D01*
X27628088Y-55119049D01*
X27591193Y-55399293D01*
X27591194Y-55399294D01*
X27589504Y-55412136D01*
X27589500Y-55412172D01*
X20500500Y-55412172D01*
X20500500Y-44059778D01*
X28119500Y-44059778D01*
X28119500Y-44280222D01*
X28128270Y-44335591D01*
X28135020Y-44378211D01*
X28153985Y-44497955D01*
X28222094Y-44707579D01*
X28222102Y-44707602D01*
X28222104Y-44707606D01*
X28322187Y-44904026D01*
X28417546Y-45035277D01*
X28451752Y-45082358D01*
X28451756Y-45082363D01*
X28451761Y-45082369D01*
X28574746Y-45205354D01*
X28574749Y-45205356D01*
X28595901Y-45233610D01*
X28602553Y-45245791D01*
X28617407Y-45314063D01*
X28592993Y-45379528D01*
X28592989Y-45379534D01*
X28588641Y-45385342D01*
X28549428Y-45418694D01*
X28549501Y-45418804D01*
X28548605Y-45419394D01*
X28546794Y-45420935D01*
X28544254Y-45422261D01*
X28544248Y-45422265D01*
X28394430Y-45544425D01*
X28272265Y-45694249D01*
X28182760Y-45865597D01*
X28129581Y-46051453D01*
X28119500Y-46164864D01*
X28119500Y-47175134D01*
X28129581Y-47288545D01*
X28182761Y-47474405D01*
X28260227Y-47622703D01*
X28264604Y-47631082D01*
X28272266Y-47645751D01*
X28319518Y-47703700D01*
X28394428Y-47795571D01*
X28469339Y-47856652D01*
X28544247Y-47917733D01*
X28544249Y-47917734D01*
X28715594Y-48007237D01*
X28901448Y-48060417D01*
X29014862Y-48070500D01*
X29014870Y-48070500D01*
X31025130Y-48070500D01*
X31025138Y-48070500D01*
X31138552Y-48060417D01*
X31324406Y-48007237D01*
X31400948Y-47967255D01*
X43469500Y-47967255D01*
X43469500Y-48172744D01*
X43497687Y-48350709D01*
X43500119Y-48366064D01*
X43500120Y-48366072D01*
X43501646Y-48375712D01*
X43565144Y-48571136D01*
X43567490Y-48575980D01*
X43568435Y-48577594D01*
X43658436Y-48754231D01*
X43779220Y-48920476D01*
X43924524Y-49065780D01*
X44090769Y-49186564D01*
X44273862Y-49279854D01*
X44273864Y-49279855D01*
X44460368Y-49340453D01*
X44468900Y-49343226D01*
X44468908Y-49343229D01*
X44469267Y-49343345D01*
X44469291Y-49343353D01*
X44469292Y-49343353D01*
X44469295Y-49343354D01*
X44672255Y-49375500D01*
X44672256Y-49375500D01*
X44877744Y-49375500D01*
X44877745Y-49375500D01*
X45080705Y-49343354D01*
X45080708Y-49343353D01*
X45080709Y-49343353D01*
X45276135Y-49279855D01*
X45276135Y-49279854D01*
X45285416Y-49276839D01*
X45285417Y-49276838D01*
X45285422Y-49276837D01*
X45293407Y-49274242D01*
X45302656Y-49266342D01*
X45459231Y-49186564D01*
X45625476Y-49065780D01*
X45770780Y-48920476D01*
X45891564Y-48754231D01*
X45984854Y-48571138D01*
X46048354Y-48375705D01*
X46080500Y-48172745D01*
X46080500Y-47967255D01*
X46064282Y-47864859D01*
X46048354Y-47764293D01*
X45984853Y-47568859D01*
X45962684Y-47525351D01*
X45962683Y-47525350D01*
X45962680Y-47525345D01*
X45891564Y-47385769D01*
X45891563Y-47385768D01*
X45822548Y-47290777D01*
X45770780Y-47219524D01*
X45625476Y-47074220D01*
X45459231Y-46953436D01*
X45423048Y-46935000D01*
X45423045Y-46934998D01*
X45276139Y-46860145D01*
X45080708Y-46796646D01*
X44922863Y-46771646D01*
X44913222Y-46770119D01*
X44877745Y-46764500D01*
X44877744Y-46764500D01*
X44672251Y-46764500D01*
X44604601Y-46775215D01*
X44478934Y-46795119D01*
X44478926Y-46795119D01*
X44478927Y-46795120D01*
X44469288Y-46796646D01*
X44273859Y-46860145D01*
X44090767Y-46953436D01*
X44016371Y-47007489D01*
X43924521Y-47074222D01*
X43924519Y-47074224D01*
X43924518Y-47074224D01*
X43779224Y-47219518D01*
X43779224Y-47219519D01*
X43779222Y-47219521D01*
X43779220Y-47219524D01*
X43658436Y-47385767D01*
X43565145Y-47568859D01*
X43501646Y-47764288D01*
X43500120Y-47773927D01*
X43469500Y-47967255D01*
X31400948Y-47967255D01*
X31495751Y-47917734D01*
X31592302Y-47839007D01*
X31645571Y-47795571D01*
X31691458Y-47739295D01*
X31767734Y-47645751D01*
X31857237Y-47474406D01*
X31910417Y-47288552D01*
X31920500Y-47175138D01*
X31920500Y-46164862D01*
X31910417Y-46051448D01*
X31863413Y-45887178D01*
X66959500Y-45887178D01*
X66959500Y-46182820D01*
X66959501Y-46182849D01*
X66997901Y-46474526D01*
X66998090Y-46475959D01*
X66998091Y-46475964D01*
X66998092Y-46475970D01*
X66998093Y-46475972D01*
X66999393Y-46480824D01*
X66999399Y-46480849D01*
X67055173Y-46689002D01*
X67074616Y-46761564D01*
X67168150Y-46987373D01*
X67187478Y-47034035D01*
X67187738Y-47034673D01*
X67187762Y-47034723D01*
X67335594Y-47290776D01*
X67515577Y-47525336D01*
X67515582Y-47525342D01*
X67515584Y-47525344D01*
X67515590Y-47525351D01*
X67724648Y-47734409D01*
X67724655Y-47734415D01*
X67724658Y-47734417D01*
X67724662Y-47734421D01*
X67894653Y-47864859D01*
X67959222Y-47914404D01*
X68215273Y-48062235D01*
X68217045Y-48063258D01*
X68217046Y-48063259D01*
X68217629Y-48063596D01*
X68222773Y-48065341D01*
X68397384Y-48137668D01*
X68482066Y-48172745D01*
X68484377Y-48173702D01*
X68486198Y-48174533D01*
X68486682Y-48174717D01*
X68489086Y-48175671D01*
X68492345Y-48176431D01*
X68774030Y-48251908D01*
X69067167Y-48290500D01*
X69067174Y-48290500D01*
X69362826Y-48290500D01*
X69362833Y-48290500D01*
X69655970Y-48251908D01*
X69941562Y-48175384D01*
X70214723Y-48062237D01*
X70422539Y-47942255D01*
X74409500Y-47942255D01*
X74409500Y-47946740D01*
X74409500Y-48147744D01*
X74413878Y-48175386D01*
X74440119Y-48341064D01*
X74440120Y-48341072D01*
X74441646Y-48350709D01*
X74505144Y-48546135D01*
X74505145Y-48546136D01*
X74505146Y-48546140D01*
X74517883Y-48571136D01*
X74517883Y-48571138D01*
X74517884Y-48571138D01*
X74598436Y-48729231D01*
X74719220Y-48895476D01*
X74864524Y-49040780D01*
X75030769Y-49161564D01*
X75079833Y-49186563D01*
X75213866Y-49254856D01*
X75290803Y-49279854D01*
X75408914Y-49318230D01*
X75408921Y-49318233D01*
X75409063Y-49318278D01*
X75409291Y-49318353D01*
X75409292Y-49318353D01*
X75409295Y-49318354D01*
X75612255Y-49350500D01*
X75612256Y-49350500D01*
X75817744Y-49350500D01*
X75817745Y-49350500D01*
X76020705Y-49318354D01*
X76020708Y-49318353D01*
X76020709Y-49318353D01*
X76216135Y-49254855D01*
X76216135Y-49254854D01*
X76225416Y-49251839D01*
X76225417Y-49251838D01*
X76225422Y-49251837D01*
X76233407Y-49249242D01*
X76242656Y-49241342D01*
X76399231Y-49161564D01*
X76565476Y-49040780D01*
X76710780Y-48895476D01*
X76831564Y-48729231D01*
X76924854Y-48546138D01*
X76983364Y-48366064D01*
X76988353Y-48350709D01*
X76988353Y-48350708D01*
X76988354Y-48350705D01*
X77020500Y-48147745D01*
X77020500Y-47942255D01*
X76988354Y-47739295D01*
X76988353Y-47739291D01*
X76988353Y-47739290D01*
X76924855Y-47543864D01*
X76915419Y-47525344D01*
X76831564Y-47360769D01*
X76710780Y-47194524D01*
X76565476Y-47049220D01*
X76399231Y-46928436D01*
X76265200Y-46860144D01*
X76216139Y-46835145D01*
X76020708Y-46771646D01*
X75957047Y-46761563D01*
X75868485Y-46747536D01*
X75848189Y-46744321D01*
X75817748Y-46739500D01*
X75817745Y-46739500D01*
X75612255Y-46739500D01*
X75612251Y-46739500D01*
X75544601Y-46750215D01*
X75418934Y-46770119D01*
X75418926Y-46770119D01*
X75418927Y-46770120D01*
X75409288Y-46771646D01*
X75213859Y-46835145D01*
X75030767Y-46928436D01*
X74935917Y-46997349D01*
X74864521Y-47049222D01*
X74864519Y-47049224D01*
X74864518Y-47049224D01*
X74719224Y-47194518D01*
X74719224Y-47194519D01*
X74719222Y-47194521D01*
X74667349Y-47265917D01*
X74598436Y-47360767D01*
X74505145Y-47543859D01*
X74441646Y-47739288D01*
X74440120Y-47748927D01*
X74440119Y-47748934D01*
X74432733Y-47795571D01*
X74425853Y-47839007D01*
X74409500Y-47942255D01*
X70422539Y-47942255D01*
X70470778Y-47914404D01*
X70535349Y-47864856D01*
X70569038Y-47839007D01*
X70666407Y-47764293D01*
X70705346Y-47734414D01*
X70808678Y-47631082D01*
X70914411Y-47525350D01*
X70914418Y-47525342D01*
X71021516Y-47385768D01*
X71094404Y-47290778D01*
X71242237Y-47034723D01*
X71355384Y-46761562D01*
X71431908Y-46475970D01*
X71470500Y-46182833D01*
X71470500Y-45887167D01*
X71431908Y-45594030D01*
X71355384Y-45308438D01*
X71242237Y-45035277D01*
X71166459Y-44904026D01*
X71094404Y-44779222D01*
X71039448Y-44707602D01*
X70914414Y-44544654D01*
X70914409Y-44544648D01*
X70914408Y-44544647D01*
X70914396Y-44544634D01*
X70705359Y-44335598D01*
X70705351Y-44335590D01*
X70705344Y-44335584D01*
X70705341Y-44335581D01*
X70705336Y-44335577D01*
X70470776Y-44155594D01*
X70214723Y-44007762D01*
X70214673Y-44007738D01*
X70214035Y-44007478D01*
X69941564Y-43894616D01*
X69890483Y-43880929D01*
X69788516Y-43853607D01*
X69711993Y-43833103D01*
X69655972Y-43818092D01*
X69655966Y-43818091D01*
X69655961Y-43818090D01*
X69366933Y-43780039D01*
X69364917Y-43779705D01*
X69362843Y-43779500D01*
X69362838Y-43779500D01*
X69362833Y-43779500D01*
X69067167Y-43779500D01*
X69067161Y-43779500D01*
X69067156Y-43779500D01*
X69065079Y-43779705D01*
X69063065Y-43780039D01*
X68774061Y-43818087D01*
X68774029Y-43818091D01*
X68772222Y-43818518D01*
X68770439Y-43819054D01*
X68718007Y-43833103D01*
X68488441Y-43894614D01*
X68488427Y-43894619D01*
X68215963Y-44007478D01*
X68215333Y-44007734D01*
X68215275Y-44007762D01*
X67959222Y-44155594D01*
X67724662Y-44335577D01*
X67724647Y-44335591D01*
X67724639Y-44335598D01*
X67515598Y-44544639D01*
X67515591Y-44544647D01*
X67515577Y-44544662D01*
X67335594Y-44779222D01*
X67187762Y-45035275D01*
X67187734Y-45035333D01*
X67187478Y-45035963D01*
X67074615Y-45308437D01*
X66998096Y-45594011D01*
X66998093Y-45594027D01*
X66998088Y-45594049D01*
X66959501Y-45887149D01*
X66959500Y-45887178D01*
X31863413Y-45887178D01*
X31857237Y-45865594D01*
X31767734Y-45694249D01*
X31686013Y-45594027D01*
X31645571Y-45544428D01*
X31645569Y-45544426D01*
X31645568Y-45544425D01*
X31495745Y-45422261D01*
X31490494Y-45418800D01*
X31490899Y-45418185D01*
X31470066Y-45403180D01*
X31460076Y-45393551D01*
X31425468Y-45332854D01*
X31429169Y-45263084D01*
X31431584Y-45256229D01*
X31460856Y-45209749D01*
X31588242Y-45082365D01*
X31717815Y-44904022D01*
X31817895Y-44707606D01*
X31886015Y-44497951D01*
X31920500Y-44280222D01*
X31920500Y-44059778D01*
X31886015Y-43842049D01*
X31817895Y-43632394D01*
X31817895Y-43632393D01*
X31783237Y-43564375D01*
X31717815Y-43435978D01*
X31717812Y-43435974D01*
X31701261Y-43413194D01*
X31701259Y-43413190D01*
X31588261Y-43257660D01*
X31588243Y-43257636D01*
X31588235Y-43257627D01*
X31432369Y-43101761D01*
X31432364Y-43101757D01*
X31432363Y-43101756D01*
X31432358Y-43101752D01*
X31303635Y-43008230D01*
X31264630Y-42979891D01*
X31264618Y-42979883D01*
X31254025Y-42972187D01*
X31254024Y-42972186D01*
X31254022Y-42972185D01*
X31247909Y-42969070D01*
X31247898Y-42969063D01*
X31191098Y-42940123D01*
X31191096Y-42940122D01*
X31057606Y-42872104D01*
X31057602Y-42872102D01*
X31057579Y-42872094D01*
X30940924Y-42834192D01*
X30916650Y-42817594D01*
X30909775Y-42813776D01*
X30684654Y-42778121D01*
X30673767Y-42776396D01*
X30630226Y-42769500D01*
X30630222Y-42769500D01*
X29409778Y-42769500D01*
X29409774Y-42769500D01*
X29355347Y-42778121D01*
X29337201Y-42780995D01*
X29192043Y-42803985D01*
X28982419Y-42872094D01*
X28982396Y-42872102D01*
X28982392Y-42872104D01*
X28785972Y-42972187D01*
X28607658Y-43101739D01*
X28607629Y-43101761D01*
X28451761Y-43257629D01*
X28451739Y-43257658D01*
X28322187Y-43435972D01*
X28222104Y-43632392D01*
X28222102Y-43632396D01*
X28222094Y-43632419D01*
X28153986Y-43842039D01*
X28153984Y-43842047D01*
X28147826Y-43880929D01*
X28147787Y-43881175D01*
X28147779Y-43881232D01*
X28119500Y-44059778D01*
X20500500Y-44059778D01*
X20500500Y-42711769D01*
X58755750Y-42711769D01*
X58755750Y-43008229D01*
X58789215Y-43219525D01*
X58789218Y-43219541D01*
X58789220Y-43219547D01*
X58855335Y-43423025D01*
X58926726Y-43563136D01*
X58952465Y-43613652D01*
X59078222Y-43786742D01*
X59229508Y-43938028D01*
X59402598Y-44063785D01*
X59492663Y-44109675D01*
X59593224Y-44160914D01*
X59593226Y-44160914D01*
X59593229Y-44160916D01*
X59796708Y-44227031D01*
X59815785Y-44230052D01*
X59875790Y-44239556D01*
X59875889Y-44239571D01*
X59875951Y-44239581D01*
X60008020Y-44260500D01*
X60008025Y-44260500D01*
X60221979Y-44260500D01*
X60221980Y-44260500D01*
X60339373Y-44241906D01*
X60433292Y-44227031D01*
X60636771Y-44160916D01*
X60827402Y-44063785D01*
X60886466Y-44020872D01*
X60922036Y-43995029D01*
X60922036Y-43995028D01*
X60922037Y-43995028D01*
X60953247Y-43978559D01*
X60967974Y-43973304D01*
X61037728Y-43969317D01*
X61037731Y-43969317D01*
X61039954Y-43969834D01*
X61093726Y-43997471D01*
X61098930Y-44002046D01*
X61116328Y-44020865D01*
X61188702Y-44117544D01*
X61188705Y-44117547D01*
X61303914Y-44203793D01*
X61303921Y-44203797D01*
X61438767Y-44254091D01*
X61438766Y-44254091D01*
X61445694Y-44254835D01*
X61498377Y-44260500D01*
X63311622Y-44260499D01*
X63371233Y-44254091D01*
X63506081Y-44203796D01*
X63621296Y-44117546D01*
X63707546Y-44002331D01*
X63757841Y-43867483D01*
X63764250Y-43807873D01*
X63764249Y-41912128D01*
X63757841Y-41852517D01*
X63731530Y-41781974D01*
X63721953Y-41756297D01*
X63707548Y-41717673D01*
X63707547Y-41717671D01*
X63707543Y-41717664D01*
X63621297Y-41602455D01*
X63621294Y-41602452D01*
X63621292Y-41602450D01*
X63563362Y-41559084D01*
X63506085Y-41516206D01*
X63506082Y-41516204D01*
X63506080Y-41516203D01*
X63506078Y-41516202D01*
X63371232Y-41465908D01*
X63371233Y-41465908D01*
X63311633Y-41459501D01*
X63311631Y-41459500D01*
X63311623Y-41459500D01*
X63311614Y-41459500D01*
X63310591Y-41459500D01*
X61498373Y-41459500D01*
X61496442Y-41459659D01*
X61494795Y-41459885D01*
X61438766Y-41465908D01*
X61366215Y-41492968D01*
X61303916Y-41516204D01*
X61303915Y-41516205D01*
X61188702Y-41602453D01*
X61119298Y-41695164D01*
X61119298Y-41695167D01*
X61094341Y-41720124D01*
X61081824Y-41729494D01*
X61016359Y-41753910D01*
X61016318Y-41753913D01*
X61014042Y-41754075D01*
X60954544Y-41743552D01*
X60950954Y-41741943D01*
X60948228Y-41740722D01*
X60926040Y-41727878D01*
X60838005Y-41663917D01*
X60837989Y-41663906D01*
X60827405Y-41656217D01*
X60827404Y-41656216D01*
X60827402Y-41656215D01*
X60721888Y-41602453D01*
X60636775Y-41559085D01*
X60446818Y-41497363D01*
X60446807Y-41497360D01*
X60433292Y-41492969D01*
X60433290Y-41492968D01*
X60433288Y-41492968D01*
X60418891Y-41490687D01*
X60418884Y-41490686D01*
X60261857Y-41465816D01*
X60221980Y-41459500D01*
X60221979Y-41459500D01*
X60008015Y-41459500D01*
X59796714Y-41492967D01*
X59593223Y-41559086D01*
X59402596Y-41656215D01*
X59229502Y-41781976D01*
X59078226Y-41933252D01*
X59078226Y-41933253D01*
X59078224Y-41933255D01*
X59024215Y-42007591D01*
X58952465Y-42106346D01*
X58855336Y-42296973D01*
X58789217Y-42500464D01*
X58755750Y-42711769D01*
X20500500Y-42711769D01*
X20500500Y-40076829D01*
X20505523Y-40041893D01*
X20509927Y-40026895D01*
X20547672Y-39968144D01*
X20547700Y-39968119D01*
X20547699Y-39968119D01*
X20549041Y-39966956D01*
X20603920Y-39939477D01*
X20611479Y-39937833D01*
X20637832Y-39935000D01*
X65358171Y-39935000D01*
X65393106Y-39940023D01*
X65408104Y-39944427D01*
X65466855Y-39982172D01*
X65466879Y-39982200D01*
X65466882Y-39982202D01*
X65466883Y-39982204D01*
X65468042Y-39983541D01*
X65495518Y-40038402D01*
X65497163Y-40045960D01*
X65500000Y-40072331D01*
X65500000Y-42435000D01*
X78858171Y-42435000D01*
X78893106Y-42440023D01*
X78908104Y-42444427D01*
X78966855Y-42482172D01*
X78966879Y-42482200D01*
X78966882Y-42482202D01*
X78966883Y-42482204D01*
X78968042Y-42483541D01*
X78995518Y-42538402D01*
X78997163Y-42545960D01*
X79000000Y-42572331D01*
X79000000Y-44435000D01*
X101858171Y-44435000D01*
X101893106Y-44440023D01*
X101908104Y-44444427D01*
X101966855Y-44482172D01*
X101966879Y-44482200D01*
X101966882Y-44482202D01*
X101966883Y-44482204D01*
X101968042Y-44483541D01*
X101995518Y-44538402D01*
X101997163Y-44545960D01*
X102000000Y-44572331D01*
X102000000Y-46935000D01*
X105516552Y-46935000D01*
X105551479Y-46940021D01*
X105562332Y-46943207D01*
X105621113Y-46980977D01*
X105650142Y-47044531D01*
X105640203Y-47113690D01*
X105640202Y-47113691D01*
X105637018Y-47120664D01*
X105611902Y-47156840D01*
X105549227Y-47219514D01*
X105428436Y-47385767D01*
X105335145Y-47568859D01*
X105271646Y-47764288D01*
X105270120Y-47773927D01*
X105239500Y-47967255D01*
X105239500Y-48172744D01*
X105267687Y-48350709D01*
X105270119Y-48366064D01*
X105270120Y-48366072D01*
X105271646Y-48375712D01*
X105335144Y-48571136D01*
X105337490Y-48575980D01*
X105338435Y-48577594D01*
X105428436Y-48754231D01*
X105549220Y-48920476D01*
X105694524Y-49065780D01*
X105860769Y-49186564D01*
X106043862Y-49279854D01*
X106043864Y-49279855D01*
X106230368Y-49340453D01*
X106238900Y-49343226D01*
X106238908Y-49343229D01*
X106239267Y-49343345D01*
X106239291Y-49343353D01*
X106239292Y-49343353D01*
X106239295Y-49343354D01*
X106442255Y-49375500D01*
X106442256Y-49375500D01*
X106647744Y-49375500D01*
X106647745Y-49375500D01*
X106850705Y-49343354D01*
X106850708Y-49343353D01*
X106850709Y-49343353D01*
X107046135Y-49279855D01*
X107046135Y-49279854D01*
X107055416Y-49276839D01*
X107055417Y-49276838D01*
X107055422Y-49276837D01*
X107063407Y-49274242D01*
X107072656Y-49266342D01*
X107229231Y-49186564D01*
X107395476Y-49065780D01*
X107540780Y-48920476D01*
X107661564Y-48754231D01*
X107754854Y-48571138D01*
X107818354Y-48375705D01*
X107850500Y-48172745D01*
X107850500Y-47967255D01*
X107834282Y-47864859D01*
X107818354Y-47764293D01*
X107754853Y-47568859D01*
X107732684Y-47525351D01*
X107732683Y-47525350D01*
X107732680Y-47525345D01*
X107661564Y-47385769D01*
X107661563Y-47385768D01*
X107592548Y-47290777D01*
X107540780Y-47219524D01*
X107480544Y-47159288D01*
X107459395Y-47131038D01*
X107453973Y-47121108D01*
X107439120Y-47052838D01*
X107463534Y-46987373D01*
X107519464Y-46945501D01*
X107523343Y-46944054D01*
X107526679Y-46942811D01*
X107569993Y-46935000D01*
X108000000Y-46935000D01*
X108000000Y-34559000D01*
X108019685Y-34491961D01*
X108072489Y-34446206D01*
X108124000Y-34435000D01*
X114674738Y-34435000D01*
X114685653Y-34438205D01*
G37*
%TD.AperFunction*%
%TD*%
%TA.AperFunction,Conductor*%
%TO.N,GND*%
G36*
X32254820Y-20440517D02*
G01*
X32259768Y-20441970D01*
X32318549Y-20479736D01*
X32347582Y-20543288D01*
X32337647Y-20612448D01*
X32291899Y-20665258D01*
X32238729Y-20684171D01*
X32045522Y-20705939D01*
X32045512Y-20705940D01*
X32045484Y-20705945D01*
X31771678Y-20768440D01*
X31771666Y-20768443D01*
X31771645Y-20768450D01*
X31506594Y-20861197D01*
X31506572Y-20861206D01*
X31253562Y-20983049D01*
X31015754Y-21132475D01*
X30796175Y-21307582D01*
X30597582Y-21506175D01*
X30422475Y-21725754D01*
X30273049Y-21963562D01*
X30151206Y-22216572D01*
X30151197Y-22216594D01*
X30058450Y-22481645D01*
X30058443Y-22481666D01*
X30058442Y-22481672D01*
X30058439Y-22481682D01*
X30044958Y-22540747D01*
X29995945Y-22755484D01*
X29995939Y-22755519D01*
X29964500Y-23034561D01*
X29964500Y-23315437D01*
X29995939Y-23594479D01*
X29995945Y-23594514D01*
X30024353Y-23718978D01*
X30058439Y-23868317D01*
X30058440Y-23868320D01*
X30058443Y-23868332D01*
X30058450Y-23868353D01*
X30151197Y-24133404D01*
X30151203Y-24133418D01*
X30273052Y-24386440D01*
X30273256Y-24386798D01*
X30273942Y-24387857D01*
X30422477Y-24624248D01*
X30597584Y-24843825D01*
X30796175Y-25042416D01*
X31015752Y-25217523D01*
X31253555Y-25366945D01*
X31506592Y-25488801D01*
X31644381Y-25537015D01*
X31690053Y-25552997D01*
X31690057Y-25552998D01*
X31690065Y-25553001D01*
X31719272Y-25563221D01*
X31771666Y-25581555D01*
X31771670Y-25581556D01*
X31771682Y-25581560D01*
X32045491Y-25644055D01*
X32045495Y-25644055D01*
X32045498Y-25644055D01*
X32045505Y-25644057D01*
X32052408Y-25644834D01*
X32052409Y-25644835D01*
X32079726Y-25647912D01*
X32231547Y-25665018D01*
X32321560Y-25675160D01*
X32324034Y-25675500D01*
X32605428Y-25675500D01*
X32615222Y-25675500D01*
X32622820Y-25673539D01*
X32748055Y-25659429D01*
X32883788Y-25644136D01*
X32884429Y-25644068D01*
X32884504Y-25644055D01*
X32884509Y-25644055D01*
X33158318Y-25581560D01*
X33423408Y-25488801D01*
X33676445Y-25366945D01*
X33914248Y-25217523D01*
X34133825Y-25042416D01*
X34332416Y-24843825D01*
X34507523Y-24624248D01*
X34656945Y-24386445D01*
X34778801Y-24133408D01*
X34871560Y-23868318D01*
X34934055Y-23594509D01*
X34936455Y-23573214D01*
X34962855Y-23338900D01*
X34965500Y-23315425D01*
X34965500Y-23034575D01*
X34941075Y-22817793D01*
X34934057Y-22755505D01*
X34934054Y-22755487D01*
X34924188Y-22712263D01*
X34885039Y-22540740D01*
X34871560Y-22481682D01*
X34871556Y-22481670D01*
X34778803Y-22216598D01*
X34778801Y-22216592D01*
X34681826Y-22015222D01*
X34681825Y-22015221D01*
X34681825Y-22015218D01*
X34656968Y-21963601D01*
X34656948Y-21963562D01*
X34656946Y-21963557D01*
X34656945Y-21963555D01*
X34507523Y-21725752D01*
X34332416Y-21506175D01*
X34133825Y-21307584D01*
X34133822Y-21307582D01*
X34078060Y-21263113D01*
X33914248Y-21132477D01*
X33711069Y-21004811D01*
X33711069Y-21004810D01*
X33711067Y-21004810D01*
X33676442Y-20983053D01*
X33676428Y-20983045D01*
X33423426Y-20861206D01*
X33423404Y-20861197D01*
X33158353Y-20768450D01*
X33158332Y-20768443D01*
X33158320Y-20768440D01*
X33158317Y-20768439D01*
X33046467Y-20742910D01*
X32884514Y-20705945D01*
X32884486Y-20705940D01*
X32884477Y-20705939D01*
X32696101Y-20684716D01*
X32696100Y-20684715D01*
X32696099Y-20684715D01*
X32696097Y-20684715D01*
X32661947Y-20675813D01*
X32657197Y-20673817D01*
X32603018Y-20629699D01*
X32581292Y-20563293D01*
X32598917Y-20495683D01*
X32650297Y-20448334D01*
X32705234Y-20435500D01*
X48729902Y-20435500D01*
X48764820Y-20440517D01*
X48769768Y-20441970D01*
X48828549Y-20479736D01*
X48857582Y-20543288D01*
X48847647Y-20612448D01*
X48801899Y-20665258D01*
X48748729Y-20684171D01*
X48555522Y-20705939D01*
X48555512Y-20705940D01*
X48555484Y-20705945D01*
X48281678Y-20768440D01*
X48281666Y-20768443D01*
X48281645Y-20768450D01*
X48016594Y-20861197D01*
X48016572Y-20861206D01*
X47763562Y-20983049D01*
X47525754Y-21132475D01*
X47306175Y-21307582D01*
X47107582Y-21506175D01*
X46932475Y-21725754D01*
X46783049Y-21963562D01*
X46661206Y-22216572D01*
X46661197Y-22216594D01*
X46568450Y-22481645D01*
X46568443Y-22481666D01*
X46568442Y-22481672D01*
X46568439Y-22481682D01*
X46554958Y-22540747D01*
X46505945Y-22755484D01*
X46505939Y-22755519D01*
X46474500Y-23034561D01*
X46474500Y-23315437D01*
X46505939Y-23594479D01*
X46505945Y-23594514D01*
X46534353Y-23718978D01*
X46568439Y-23868317D01*
X46568440Y-23868320D01*
X46568443Y-23868332D01*
X46568450Y-23868353D01*
X46661197Y-24133404D01*
X46661203Y-24133418D01*
X46783052Y-24386440D01*
X46783256Y-24386798D01*
X46783942Y-24387857D01*
X46932477Y-24624248D01*
X47107584Y-24843825D01*
X47306175Y-25042416D01*
X47525752Y-25217523D01*
X47763555Y-25366945D01*
X48016592Y-25488801D01*
X48154381Y-25537015D01*
X48200053Y-25552997D01*
X48200057Y-25552998D01*
X48200065Y-25553001D01*
X48229272Y-25563221D01*
X48281666Y-25581555D01*
X48281670Y-25581556D01*
X48281682Y-25581560D01*
X48555491Y-25644055D01*
X48555495Y-25644055D01*
X48555498Y-25644055D01*
X48555505Y-25644057D01*
X48562408Y-25644834D01*
X48562409Y-25644835D01*
X48589726Y-25647912D01*
X48741547Y-25665018D01*
X48831560Y-25675160D01*
X48834034Y-25675500D01*
X49115428Y-25675500D01*
X49125222Y-25675500D01*
X49132820Y-25673539D01*
X49258055Y-25659429D01*
X49393788Y-25644136D01*
X49394429Y-25644068D01*
X49394504Y-25644055D01*
X49394509Y-25644055D01*
X49668318Y-25581560D01*
X49933408Y-25488801D01*
X50186445Y-25366945D01*
X50424248Y-25217523D01*
X50643825Y-25042416D01*
X50842416Y-24843825D01*
X51017523Y-24624248D01*
X51166945Y-24386445D01*
X51183064Y-24352973D01*
X60977500Y-24352973D01*
X60977500Y-24352983D01*
X60977500Y-25553001D01*
X60977501Y-25553018D01*
X60988000Y-25655796D01*
X60988001Y-25655799D01*
X61035950Y-25800498D01*
X61043184Y-25822330D01*
X61043185Y-25822331D01*
X61043186Y-25822334D01*
X61135288Y-25971656D01*
X61259344Y-26095712D01*
X61408666Y-26187814D01*
X61575203Y-26242999D01*
X61677991Y-26253500D01*
X62878008Y-26253499D01*
X62980797Y-26242999D01*
X63147334Y-26187814D01*
X63296656Y-26095712D01*
X63420712Y-25971656D01*
X63512814Y-25822334D01*
X63567999Y-25655797D01*
X63578500Y-25553009D01*
X63578499Y-24352992D01*
X63577456Y-24342778D01*
X71585500Y-24342778D01*
X71585500Y-24347454D01*
X71585500Y-25563221D01*
X71600163Y-25655799D01*
X71619985Y-25780952D01*
X71619986Y-25780959D01*
X71688094Y-25990579D01*
X71688102Y-25990602D01*
X71688104Y-25990606D01*
X71788187Y-26187026D01*
X71905235Y-26348129D01*
X71917752Y-26365358D01*
X71917756Y-26365363D01*
X71917761Y-26365369D01*
X72073627Y-26521235D01*
X72073636Y-26521243D01*
X72073660Y-26521261D01*
X72223221Y-26629923D01*
X72223227Y-26629926D01*
X72229192Y-26634260D01*
X72251978Y-26650815D01*
X72347527Y-26699500D01*
X72388734Y-26720496D01*
X72448392Y-26750895D01*
X72448396Y-26750896D01*
X72448419Y-26750904D01*
X72553221Y-26784955D01*
X72658049Y-26819015D01*
X72875778Y-26853500D01*
X72875779Y-26853500D01*
X73096221Y-26853500D01*
X73096222Y-26853500D01*
X73313951Y-26819015D01*
X73523606Y-26750895D01*
X73720022Y-26650815D01*
X73898365Y-26521242D01*
X74054242Y-26365365D01*
X74125204Y-26267691D01*
X74149793Y-26242388D01*
X74160791Y-26233908D01*
X74225896Y-26208560D01*
X74294374Y-26222435D01*
X74294377Y-26222436D01*
X74300559Y-26225698D01*
X74343008Y-26262480D01*
X74417490Y-26364996D01*
X74417744Y-26365349D01*
X74417751Y-26365357D01*
X74417755Y-26365361D01*
X74417758Y-26365365D01*
X74573628Y-26521235D01*
X74573636Y-26521243D01*
X74573660Y-26521261D01*
X74723221Y-26629923D01*
X74723227Y-26629926D01*
X74729192Y-26634260D01*
X74751978Y-26650815D01*
X74847527Y-26699500D01*
X74888734Y-26720496D01*
X74948392Y-26750895D01*
X74948396Y-26750896D01*
X74948419Y-26750904D01*
X75053221Y-26784955D01*
X75158049Y-26819015D01*
X75375778Y-26853500D01*
X75375779Y-26853500D01*
X75596221Y-26853500D01*
X75596222Y-26853500D01*
X75813951Y-26819015D01*
X76023606Y-26750895D01*
X76220022Y-26650815D01*
X76398365Y-26521242D01*
X76554242Y-26365365D01*
X76625204Y-26267691D01*
X76649793Y-26242388D01*
X76660791Y-26233908D01*
X76725896Y-26208560D01*
X76794374Y-26222435D01*
X76794377Y-26222436D01*
X76800559Y-26225698D01*
X76843008Y-26262480D01*
X76917490Y-26364996D01*
X76917744Y-26365349D01*
X76917751Y-26365357D01*
X76917755Y-26365361D01*
X76917758Y-26365365D01*
X77073628Y-26521235D01*
X77073636Y-26521243D01*
X77073660Y-26521261D01*
X77223221Y-26629923D01*
X77223227Y-26629926D01*
X77229192Y-26634260D01*
X77251978Y-26650815D01*
X77347527Y-26699500D01*
X77388734Y-26720496D01*
X77448392Y-26750895D01*
X77448396Y-26750896D01*
X77448419Y-26750904D01*
X77553221Y-26784955D01*
X77658049Y-26819015D01*
X77875778Y-26853500D01*
X77875779Y-26853500D01*
X78096221Y-26853500D01*
X78096222Y-26853500D01*
X78313951Y-26819015D01*
X78523606Y-26750895D01*
X78720022Y-26650815D01*
X78898365Y-26521242D01*
X79054242Y-26365365D01*
X79183815Y-26187022D01*
X79283895Y-25990606D01*
X79352015Y-25780951D01*
X79386500Y-25563222D01*
X79386500Y-24342778D01*
X79352015Y-24125049D01*
X79290052Y-23934344D01*
X79283896Y-23915396D01*
X79283895Y-23915393D01*
X79249237Y-23847375D01*
X79183815Y-23718978D01*
X79077910Y-23573211D01*
X79054247Y-23540641D01*
X79054243Y-23540636D01*
X79054235Y-23540627D01*
X78898369Y-23384761D01*
X78898364Y-23384757D01*
X78898363Y-23384756D01*
X78898358Y-23384752D01*
X78835249Y-23338901D01*
X78730615Y-23262880D01*
X78730602Y-23262871D01*
X78720025Y-23255187D01*
X78720024Y-23255186D01*
X78720022Y-23255185D01*
X78622511Y-23205500D01*
X78622511Y-23205499D01*
X78622509Y-23205499D01*
X78523606Y-23155104D01*
X78523530Y-23155078D01*
X78313954Y-23086985D01*
X78313955Y-23086985D01*
X78205086Y-23069742D01*
X78096227Y-23052500D01*
X78096222Y-23052500D01*
X77875778Y-23052500D01*
X77875774Y-23052500D01*
X77817716Y-23061696D01*
X77803201Y-23063995D01*
X77658043Y-23086985D01*
X77448419Y-23155094D01*
X77448396Y-23155102D01*
X77448392Y-23155104D01*
X77251972Y-23255187D01*
X77073658Y-23384739D01*
X77073629Y-23384761D01*
X76917763Y-23540627D01*
X76917755Y-23540636D01*
X76917752Y-23540640D01*
X76846794Y-23638306D01*
X76822742Y-23663056D01*
X76822200Y-23663613D01*
X76811212Y-23672086D01*
X76746106Y-23697438D01*
X76677627Y-23683565D01*
X76677620Y-23683562D01*
X76671440Y-23680301D01*
X76628991Y-23643517D01*
X76554251Y-23540646D01*
X76554246Y-23540639D01*
X76554244Y-23540637D01*
X76554235Y-23540627D01*
X76398369Y-23384761D01*
X76398364Y-23384757D01*
X76398363Y-23384756D01*
X76398358Y-23384752D01*
X76335249Y-23338901D01*
X76230615Y-23262880D01*
X76230602Y-23262871D01*
X76220025Y-23255187D01*
X76220024Y-23255186D01*
X76220022Y-23255185D01*
X76122511Y-23205500D01*
X76122511Y-23205499D01*
X76122509Y-23205499D01*
X76023606Y-23155104D01*
X76023530Y-23155078D01*
X75813954Y-23086985D01*
X75813955Y-23086985D01*
X75705086Y-23069742D01*
X75596227Y-23052500D01*
X75596222Y-23052500D01*
X75375778Y-23052500D01*
X75375774Y-23052500D01*
X75317716Y-23061696D01*
X75303201Y-23063995D01*
X75158043Y-23086985D01*
X74948419Y-23155094D01*
X74948396Y-23155102D01*
X74948392Y-23155104D01*
X74751972Y-23255187D01*
X74573658Y-23384739D01*
X74573629Y-23384761D01*
X74417763Y-23540627D01*
X74417755Y-23540636D01*
X74417752Y-23540640D01*
X74346794Y-23638306D01*
X74322742Y-23663056D01*
X74322200Y-23663613D01*
X74311212Y-23672086D01*
X74246106Y-23697438D01*
X74177627Y-23683565D01*
X74177620Y-23683562D01*
X74171440Y-23680301D01*
X74128991Y-23643517D01*
X74054251Y-23540646D01*
X74054246Y-23540639D01*
X74054244Y-23540637D01*
X74054235Y-23540627D01*
X73898369Y-23384761D01*
X73898364Y-23384757D01*
X73898363Y-23384756D01*
X73898358Y-23384752D01*
X73835249Y-23338901D01*
X73730615Y-23262880D01*
X73730602Y-23262871D01*
X73720025Y-23255187D01*
X73720024Y-23255186D01*
X73720022Y-23255185D01*
X73622511Y-23205500D01*
X73622511Y-23205499D01*
X73622509Y-23205499D01*
X73523606Y-23155104D01*
X73523530Y-23155078D01*
X73313954Y-23086985D01*
X73313955Y-23086985D01*
X73205086Y-23069742D01*
X73096227Y-23052500D01*
X73096222Y-23052500D01*
X72875778Y-23052500D01*
X72875774Y-23052500D01*
X72817716Y-23061696D01*
X72803201Y-23063995D01*
X72658043Y-23086985D01*
X72448419Y-23155094D01*
X72448396Y-23155102D01*
X72448392Y-23155104D01*
X72251972Y-23255187D01*
X72073658Y-23384739D01*
X72073629Y-23384761D01*
X71917761Y-23540629D01*
X71917739Y-23540658D01*
X71788187Y-23718972D01*
X71688104Y-23915392D01*
X71688102Y-23915396D01*
X71688094Y-23915419D01*
X71619987Y-24125038D01*
X71619986Y-24125043D01*
X71619985Y-24125047D01*
X71618659Y-24133419D01*
X71585500Y-24342778D01*
X63577456Y-24342778D01*
X63567999Y-24250203D01*
X63512814Y-24083666D01*
X63420712Y-23934344D01*
X63296656Y-23810288D01*
X63148612Y-23718974D01*
X63147336Y-23718187D01*
X63147331Y-23718185D01*
X62989265Y-23665807D01*
X62986445Y-23664641D01*
X62980792Y-23662999D01*
X62878019Y-23652500D01*
X62878010Y-23652500D01*
X61677998Y-23652500D01*
X61677981Y-23652501D01*
X61675769Y-23652727D01*
X61575198Y-23663000D01*
X61575193Y-23663001D01*
X61575032Y-23663056D01*
X61408667Y-23718185D01*
X61408665Y-23718186D01*
X61408663Y-23718187D01*
X61407381Y-23718978D01*
X61259340Y-23810290D01*
X61135290Y-23934340D01*
X61043185Y-24083667D01*
X61043178Y-24083685D01*
X61029473Y-24125048D01*
X61029472Y-24125050D01*
X60998298Y-24219123D01*
X60989852Y-24232066D01*
X60988365Y-24246630D01*
X60987542Y-24252881D01*
X60987359Y-24256476D01*
X60977500Y-24352973D01*
X51183064Y-24352973D01*
X51210486Y-24296032D01*
X51210487Y-24296030D01*
X51288796Y-24133419D01*
X51288797Y-24133416D01*
X51288801Y-24133408D01*
X51381560Y-23868318D01*
X51444055Y-23594509D01*
X51446455Y-23573214D01*
X51472855Y-23338900D01*
X51475500Y-23315425D01*
X51475500Y-23034575D01*
X51451075Y-22817793D01*
X51444057Y-22755505D01*
X51444054Y-22755487D01*
X51434188Y-22712263D01*
X51395039Y-22540740D01*
X51381560Y-22481682D01*
X51381556Y-22481670D01*
X51288803Y-22216598D01*
X51288801Y-22216592D01*
X51191826Y-22015222D01*
X51191825Y-22015221D01*
X51191825Y-22015218D01*
X51166968Y-21963601D01*
X51166948Y-21963562D01*
X51166946Y-21963557D01*
X51166945Y-21963555D01*
X51017523Y-21725752D01*
X50842416Y-21506175D01*
X50643825Y-21307584D01*
X50643822Y-21307582D01*
X50588060Y-21263113D01*
X50424248Y-21132477D01*
X50221069Y-21004811D01*
X50221069Y-21004810D01*
X50221067Y-21004810D01*
X50186442Y-20983053D01*
X50186428Y-20983045D01*
X49933426Y-20861206D01*
X49933404Y-20861197D01*
X49668353Y-20768450D01*
X49668332Y-20768443D01*
X49668320Y-20768440D01*
X49668317Y-20768439D01*
X49556467Y-20742910D01*
X49394514Y-20705945D01*
X49394486Y-20705940D01*
X49394477Y-20705939D01*
X49206101Y-20684716D01*
X49206100Y-20684715D01*
X49206099Y-20684715D01*
X49206097Y-20684715D01*
X49171947Y-20675813D01*
X49167197Y-20673817D01*
X49113018Y-20629699D01*
X49091292Y-20563293D01*
X49108917Y-20495683D01*
X49160297Y-20448334D01*
X49215234Y-20435500D01*
X81358170Y-20435500D01*
X81393106Y-20440523D01*
X81408104Y-20444927D01*
X81466855Y-20482672D01*
X81468042Y-20484041D01*
X81495518Y-20538902D01*
X81497163Y-20546460D01*
X81500000Y-20572831D01*
X81500000Y-41935000D01*
X99960000Y-41935000D01*
X99960000Y-35576829D01*
X99960444Y-35573744D01*
X99965023Y-35541893D01*
X99969427Y-35526895D01*
X100007172Y-35468144D01*
X100007200Y-35468119D01*
X100007199Y-35468119D01*
X100008541Y-35466956D01*
X100063420Y-35439477D01*
X100070979Y-35437833D01*
X100097332Y-35435000D01*
X106778171Y-35435000D01*
X106813106Y-35440023D01*
X106828104Y-35444427D01*
X106886855Y-35482172D01*
X106886879Y-35482200D01*
X106886882Y-35482202D01*
X106886883Y-35482204D01*
X106888042Y-35483541D01*
X106915518Y-35538402D01*
X106917163Y-35545960D01*
X106920000Y-35572331D01*
X106920000Y-45893170D01*
X106919999Y-45893176D01*
X106920000Y-45893179D01*
X106914975Y-45928114D01*
X106910570Y-45943112D01*
X106872827Y-46001855D01*
X106872792Y-46001885D01*
X106872791Y-46001887D01*
X106872789Y-46001887D01*
X106871458Y-46003042D01*
X106816597Y-46030518D01*
X106809039Y-46032163D01*
X106782668Y-46035000D01*
X103186830Y-46035000D01*
X103186825Y-46034999D01*
X103186823Y-46035000D01*
X103151889Y-46029975D01*
X103136890Y-46025570D01*
X103078144Y-45987827D01*
X103078115Y-45987793D01*
X103078114Y-45987793D01*
X103078113Y-45987791D01*
X103076957Y-45986458D01*
X103049477Y-45931583D01*
X103047832Y-45924021D01*
X103045000Y-45897668D01*
X103045000Y-43435000D01*
X80141830Y-43435000D01*
X80141825Y-43434999D01*
X80141823Y-43435000D01*
X80106889Y-43429975D01*
X80091890Y-43425570D01*
X80033144Y-43387827D01*
X80033115Y-43387793D01*
X80033114Y-43387793D01*
X80033113Y-43387791D01*
X80031957Y-43386458D01*
X80004477Y-43331583D01*
X80002832Y-43324021D01*
X80000000Y-43297668D01*
X80000000Y-41435000D01*
X66641830Y-41435000D01*
X66641825Y-41434999D01*
X66641823Y-41435000D01*
X66606889Y-41429975D01*
X66591890Y-41425570D01*
X66533144Y-41387827D01*
X66533115Y-41387793D01*
X66533114Y-41387793D01*
X66533113Y-41387791D01*
X66531957Y-41386458D01*
X66504477Y-41331583D01*
X66502832Y-41324021D01*
X66500000Y-41297668D01*
X66500000Y-38935000D01*
X66499999Y-38934998D01*
X66487410Y-38922419D01*
X66466249Y-38894176D01*
X66458752Y-38880460D01*
X66443871Y-38812193D01*
X66444001Y-38810366D01*
X66463352Y-38752184D01*
X66467542Y-38745660D01*
X66484191Y-38724992D01*
X66576966Y-38632219D01*
X66697287Y-38466610D01*
X66790220Y-38284219D01*
X66853477Y-38089534D01*
X66885500Y-37887352D01*
X66885500Y-37682648D01*
X66858201Y-37510289D01*
X66853477Y-37480465D01*
X66790218Y-37285776D01*
X66710759Y-37129831D01*
X66697287Y-37103390D01*
X66663963Y-37057523D01*
X66576971Y-36937786D01*
X66432213Y-36793028D01*
X66266614Y-36672715D01*
X66228378Y-36653233D01*
X66228377Y-36653232D01*
X66227610Y-36652842D01*
X66189798Y-36633575D01*
X66160953Y-36613239D01*
X66151539Y-36604348D01*
X66142554Y-36588954D01*
X66139006Y-36585603D01*
X66137832Y-36580863D01*
X66116885Y-36544973D01*
X69486500Y-36544973D01*
X69486500Y-36544983D01*
X69486500Y-37745001D01*
X69486501Y-37745018D01*
X69492514Y-37803883D01*
X69497000Y-37847796D01*
X69497003Y-37847804D01*
X69497070Y-37848007D01*
X69545051Y-37992803D01*
X69546882Y-37998328D01*
X69552186Y-38014334D01*
X69644288Y-38163656D01*
X69768344Y-38287712D01*
X69917666Y-38379814D01*
X70084203Y-38434999D01*
X70186991Y-38445500D01*
X71387008Y-38445499D01*
X71489797Y-38434999D01*
X71656334Y-38379814D01*
X71805656Y-38287712D01*
X71929712Y-38163656D01*
X72021814Y-38014334D01*
X72076999Y-37847797D01*
X72087500Y-37745009D01*
X72087499Y-36544992D01*
X72081487Y-36486139D01*
X73231500Y-36486139D01*
X73231500Y-37803876D01*
X73231659Y-37805806D01*
X73231885Y-37807454D01*
X73237907Y-37863482D01*
X73246812Y-37887356D01*
X73288202Y-37998328D01*
X73288206Y-37998335D01*
X73331086Y-38055616D01*
X73374450Y-38113542D01*
X73374452Y-38113544D01*
X73374455Y-38113547D01*
X73489664Y-38199793D01*
X73489671Y-38199797D01*
X73624517Y-38250091D01*
X73624516Y-38250091D01*
X73631444Y-38250835D01*
X73684127Y-38256500D01*
X75001872Y-38256499D01*
X75061483Y-38250091D01*
X75196331Y-38199796D01*
X75311546Y-38113546D01*
X75397796Y-37998331D01*
X75448091Y-37863483D01*
X75454500Y-37803873D01*
X75454499Y-37057523D01*
X78311500Y-37057523D01*
X78311500Y-37061799D01*
X78311500Y-37232476D01*
X78313491Y-37245047D01*
X78313491Y-37245049D01*
X78336132Y-37388001D01*
X78338867Y-37405271D01*
X78338868Y-37405276D01*
X78365607Y-37487571D01*
X78392933Y-37571670D01*
X78449480Y-37682648D01*
X78472362Y-37727557D01*
X78575189Y-37869087D01*
X78575193Y-37869092D01*
X78575195Y-37869094D01*
X78575198Y-37869098D01*
X78698900Y-37992800D01*
X78698904Y-37992803D01*
X78698907Y-37992806D01*
X78698912Y-37992810D01*
X78728540Y-38014336D01*
X78832041Y-38089534D01*
X78840442Y-38095637D01*
X78840444Y-38095638D01*
X78840447Y-38095640D01*
X78840452Y-38095642D01*
X78840468Y-38095652D01*
X78840731Y-38095784D01*
X78996332Y-38175067D01*
X79162723Y-38229131D01*
X79335523Y-38256500D01*
X79335524Y-38256500D01*
X79510476Y-38256500D01*
X79510477Y-38256500D01*
X79683277Y-38229131D01*
X79849668Y-38175067D01*
X80005553Y-38095640D01*
X80147094Y-37992805D01*
X80270805Y-37869094D01*
X80373640Y-37727553D01*
X80453067Y-37571668D01*
X80507131Y-37405277D01*
X80534500Y-37232477D01*
X80534500Y-37057523D01*
X80507131Y-36884723D01*
X80453067Y-36718332D01*
X80373640Y-36562447D01*
X80373638Y-36562444D01*
X80373637Y-36562442D01*
X80270810Y-36420912D01*
X80270806Y-36420907D01*
X80270803Y-36420904D01*
X80270800Y-36420900D01*
X80147099Y-36297199D01*
X80147095Y-36297196D01*
X80147092Y-36297193D01*
X80147087Y-36297189D01*
X80005557Y-36194362D01*
X79871501Y-36126057D01*
X79871496Y-36126055D01*
X79849670Y-36114934D01*
X79849669Y-36114933D01*
X79849668Y-36114933D01*
X79767927Y-36088373D01*
X79692108Y-36063738D01*
X79687586Y-36061885D01*
X79678396Y-36059715D01*
X79673633Y-36059341D01*
X79657711Y-36056819D01*
X79550533Y-36039844D01*
X79534510Y-36037306D01*
X79510480Y-36033500D01*
X79510477Y-36033500D01*
X79335523Y-36033500D01*
X79335520Y-36033500D01*
X79311488Y-36037306D01*
X79295466Y-36039844D01*
X79270486Y-36043800D01*
X79162728Y-36060867D01*
X78996326Y-36114935D01*
X78840441Y-36194362D01*
X78781798Y-36236969D01*
X78698912Y-36297189D01*
X78698907Y-36297193D01*
X78698905Y-36297194D01*
X78698899Y-36297199D01*
X78575198Y-36420900D01*
X78575194Y-36420905D01*
X78575193Y-36420907D01*
X78575189Y-36420912D01*
X78527802Y-36486135D01*
X78472362Y-36562441D01*
X78392935Y-36718326D01*
X78338867Y-36884729D01*
X78330540Y-36937306D01*
X78321405Y-36994983D01*
X78311500Y-37057523D01*
X75454499Y-37057523D01*
X75454499Y-36486128D01*
X75448091Y-36426517D01*
X75446000Y-36420912D01*
X75399858Y-36297196D01*
X75397798Y-36291673D01*
X75397797Y-36291671D01*
X75397795Y-36291668D01*
X75397793Y-36291664D01*
X75311547Y-36176455D01*
X75311544Y-36176452D01*
X75196335Y-36090206D01*
X75196332Y-36090204D01*
X75196330Y-36090203D01*
X75196328Y-36090202D01*
X75061482Y-36039908D01*
X75061483Y-36039908D01*
X75001883Y-36033501D01*
X75001881Y-36033500D01*
X75001873Y-36033500D01*
X75001864Y-36033500D01*
X75000841Y-36033500D01*
X73684123Y-36033500D01*
X73682192Y-36033659D01*
X73680545Y-36033885D01*
X73625111Y-36039844D01*
X73624516Y-36039908D01*
X73568320Y-36060868D01*
X73489666Y-36090204D01*
X73489665Y-36090205D01*
X73374459Y-36176449D01*
X73374453Y-36176453D01*
X73374450Y-36176456D01*
X73288205Y-36291665D01*
X73288203Y-36291668D01*
X73237907Y-36426516D01*
X73235116Y-36452490D01*
X73231501Y-36486118D01*
X73231500Y-36486139D01*
X72081487Y-36486139D01*
X72081485Y-36486123D01*
X72076999Y-36442203D01*
X72076998Y-36442200D01*
X72052002Y-36366767D01*
X72021814Y-36275666D01*
X71929712Y-36126344D01*
X71805656Y-36002288D01*
X71682967Y-35926613D01*
X71656336Y-35910187D01*
X71656331Y-35910185D01*
X71498265Y-35857807D01*
X71495445Y-35856641D01*
X71489792Y-35854999D01*
X71387019Y-35844500D01*
X71387010Y-35844500D01*
X70186998Y-35844500D01*
X70186981Y-35844501D01*
X70172959Y-35845933D01*
X70084198Y-35855000D01*
X70084193Y-35855001D01*
X70084032Y-35855056D01*
X69917667Y-35910185D01*
X69917665Y-35910186D01*
X69917663Y-35910187D01*
X69818115Y-35971588D01*
X69768340Y-36002290D01*
X69644290Y-36126340D01*
X69644289Y-36126342D01*
X69576053Y-36236971D01*
X69552186Y-36275665D01*
X69552177Y-36275691D01*
X69545052Y-36297191D01*
X69545052Y-36297196D01*
X69507299Y-36411123D01*
X69498852Y-36424067D01*
X69497365Y-36438630D01*
X69496542Y-36444881D01*
X69496359Y-36448476D01*
X69486500Y-36544973D01*
X66116885Y-36544973D01*
X66116320Y-36544005D01*
X66119315Y-36474199D01*
X66155481Y-36420491D01*
X66162486Y-36414421D01*
X66187396Y-36397648D01*
X66266610Y-36357287D01*
X66287770Y-36341913D01*
X66432213Y-36236971D01*
X66432214Y-36236969D01*
X66432274Y-36236926D01*
X66433036Y-36236148D01*
X66576966Y-36092219D01*
X66576968Y-36092215D01*
X66576971Y-36092213D01*
X66642304Y-36002288D01*
X66697287Y-35926610D01*
X66790220Y-35744219D01*
X66853477Y-35549534D01*
X66885500Y-35347352D01*
X66885500Y-35142648D01*
X66853477Y-34940466D01*
X66847203Y-34921158D01*
X66803398Y-34786338D01*
X66791712Y-34750374D01*
X66790658Y-34746635D01*
X66789653Y-34744612D01*
X66787864Y-34740920D01*
X66786932Y-34739327D01*
X66756503Y-34679606D01*
X66756503Y-34679607D01*
X66697287Y-34563390D01*
X66667122Y-34521871D01*
X66576971Y-34397786D01*
X66432213Y-34253028D01*
X66432212Y-34253027D01*
X66432209Y-34253024D01*
X66266616Y-34132716D01*
X66266337Y-34132574D01*
X66260006Y-34129348D01*
X66189799Y-34093575D01*
X66160956Y-34073242D01*
X66151538Y-34064347D01*
X66142553Y-34048953D01*
X66139005Y-34045602D01*
X66137831Y-34040862D01*
X66116320Y-34004005D01*
X66119315Y-33934200D01*
X66155474Y-33880498D01*
X66162479Y-33874427D01*
X66187386Y-33857652D01*
X66266610Y-33817287D01*
X66344818Y-33760466D01*
X66432213Y-33696971D01*
X66432214Y-33696969D01*
X66432217Y-33696966D01*
X66432219Y-33696966D01*
X66432220Y-33696964D01*
X66432273Y-33696926D01*
X66433032Y-33696152D01*
X66576966Y-33552219D01*
X66576968Y-33552215D01*
X66576971Y-33552213D01*
X66656816Y-33442313D01*
X66656817Y-33442313D01*
X66675823Y-33416152D01*
X66697287Y-33386610D01*
X66790220Y-33204219D01*
X66853477Y-33009534D01*
X66885500Y-32807352D01*
X66885500Y-32602648D01*
X66853477Y-32400466D01*
X66846560Y-32379179D01*
X66790218Y-32205776D01*
X66748324Y-32123555D01*
X66697287Y-32023390D01*
X66672818Y-31989711D01*
X66576971Y-31857786D01*
X66432213Y-31713028D01*
X66266614Y-31592715D01*
X66266608Y-31592712D01*
X66266607Y-31592711D01*
X66257330Y-31587984D01*
X66226569Y-31572310D01*
X66226569Y-31572309D01*
X66189801Y-31553575D01*
X66160956Y-31533241D01*
X66151545Y-31524353D01*
X66142556Y-31508955D01*
X66139005Y-31505601D01*
X66137830Y-31500859D01*
X66116882Y-31464973D01*
X68724500Y-31464973D01*
X68724500Y-31464981D01*
X68724500Y-31464983D01*
X68724500Y-32665001D01*
X68724501Y-32665018D01*
X68735000Y-32767796D01*
X68735001Y-32767799D01*
X68748108Y-32807352D01*
X68790186Y-32934334D01*
X68882288Y-33083656D01*
X68920421Y-33121789D01*
X68938548Y-33139916D01*
X68959695Y-33168165D01*
X68967188Y-33181888D01*
X68982039Y-33250160D01*
X68982038Y-33250172D01*
X68981567Y-33256748D01*
X68958204Y-33320771D01*
X68912728Y-33383365D01*
X68912706Y-33383401D01*
X68865443Y-33476160D01*
X68819781Y-33565776D01*
X68758457Y-33754512D01*
X68756522Y-33760466D01*
X68724500Y-33962642D01*
X68724500Y-34167356D01*
X68756521Y-34369530D01*
X68756522Y-34369534D01*
X68772499Y-34418705D01*
X68819780Y-34564221D01*
X68819783Y-34564228D01*
X68848619Y-34620819D01*
X68848619Y-34620821D01*
X68848620Y-34620821D01*
X68912271Y-34745744D01*
X68912713Y-34746611D01*
X69033026Y-34912211D01*
X69033028Y-34912213D01*
X69177786Y-35056971D01*
X69295713Y-35142648D01*
X69343390Y-35177287D01*
X69440612Y-35226824D01*
X69519329Y-35266933D01*
X69520927Y-35267869D01*
X69524615Y-35269655D01*
X69526640Y-35270661D01*
X69530406Y-35271723D01*
X69572956Y-35285547D01*
X69630135Y-35304126D01*
X69630136Y-35304127D01*
X69660246Y-35313910D01*
X69720465Y-35333477D01*
X69808068Y-35347352D01*
X69922648Y-35365500D01*
X69922649Y-35365500D01*
X70127351Y-35365500D01*
X70127352Y-35365500D01*
X70329534Y-35333477D01*
X70524219Y-35270220D01*
X70706610Y-35177287D01*
X70805368Y-35105536D01*
X70872213Y-35056971D01*
X70872214Y-35056969D01*
X70872274Y-35056925D01*
X70873032Y-35056152D01*
X71016966Y-34912219D01*
X71016968Y-34912215D01*
X71016971Y-34912213D01*
X71087864Y-34814635D01*
X71137287Y-34746610D01*
X71230220Y-34564219D01*
X71293477Y-34369534D01*
X71325500Y-34167352D01*
X71325500Y-33962648D01*
X71293477Y-33760466D01*
X71291542Y-33754512D01*
X71264127Y-33670137D01*
X71231721Y-33570401D01*
X71230659Y-33566637D01*
X71229663Y-33564632D01*
X71227868Y-33560927D01*
X71226935Y-33559332D01*
X71138929Y-33386613D01*
X71137287Y-33383390D01*
X71095851Y-33326359D01*
X71095055Y-33325209D01*
X71094348Y-33323077D01*
X71080215Y-33296292D01*
X71074964Y-33281575D01*
X71073788Y-33261034D01*
X71073077Y-33258886D01*
X71073558Y-33257008D01*
X71070974Y-33211826D01*
X71072467Y-33205404D01*
X71105564Y-33145802D01*
X71167712Y-33083656D01*
X71259814Y-32934334D01*
X71314999Y-32767797D01*
X71325500Y-32665009D01*
X71325499Y-31464992D01*
X71319472Y-31405996D01*
X71314999Y-31362203D01*
X71314998Y-31362200D01*
X71313816Y-31358634D01*
X71259814Y-31195666D01*
X71167712Y-31046344D01*
X71043656Y-30922288D01*
X70920967Y-30846613D01*
X70894336Y-30830187D01*
X70894331Y-30830185D01*
X70736265Y-30777807D01*
X70733445Y-30776641D01*
X70727792Y-30774999D01*
X70625019Y-30764500D01*
X70625010Y-30764500D01*
X69424998Y-30764500D01*
X69424981Y-30764501D01*
X69410959Y-30765933D01*
X69322198Y-30775000D01*
X69322193Y-30775001D01*
X69322032Y-30775056D01*
X69155667Y-30830185D01*
X69155665Y-30830186D01*
X69155663Y-30830187D01*
X69097700Y-30865939D01*
X69006340Y-30922290D01*
X68882290Y-31046340D01*
X68882289Y-31046342D01*
X68813976Y-31157096D01*
X68790185Y-31195667D01*
X68790182Y-31195675D01*
X68763140Y-31277284D01*
X68763139Y-31277286D01*
X68745298Y-31331124D01*
X68736852Y-31344068D01*
X68735364Y-31358634D01*
X68734542Y-31364871D01*
X68734359Y-31368476D01*
X68724500Y-31464973D01*
X66116882Y-31464973D01*
X66116321Y-31464012D01*
X66119313Y-31394206D01*
X66155474Y-31340498D01*
X66162479Y-31334427D01*
X66187386Y-31317652D01*
X66266610Y-31277287D01*
X66274019Y-31271903D01*
X66331335Y-31230263D01*
X66356828Y-31211740D01*
X66432213Y-31156971D01*
X66432215Y-31156968D01*
X66432219Y-31156966D01*
X66432224Y-31156960D01*
X66432276Y-31156923D01*
X66433019Y-31156165D01*
X66576966Y-31012219D01*
X66576968Y-31012215D01*
X66576971Y-31012213D01*
X66637832Y-30928443D01*
X66697287Y-30846610D01*
X66790220Y-30664219D01*
X66853477Y-30469534D01*
X66885500Y-30267352D01*
X66885500Y-30062648D01*
X66853477Y-29860466D01*
X66836867Y-29809347D01*
X66790218Y-29665776D01*
X66790216Y-29665773D01*
X66790216Y-29665771D01*
X66756503Y-29599607D01*
X66697287Y-29483390D01*
X66638530Y-29402517D01*
X66638530Y-29402516D01*
X66638529Y-29402516D01*
X66631505Y-29392847D01*
X66576971Y-29317786D01*
X66432213Y-29173028D01*
X66266613Y-29052715D01*
X66266612Y-29052714D01*
X66266610Y-29052713D01*
X66181800Y-29009500D01*
X66181800Y-29009499D01*
X66181798Y-29009499D01*
X66084228Y-28959783D01*
X66084221Y-28959780D01*
X65979316Y-28925694D01*
X65889534Y-28896522D01*
X65889532Y-28896521D01*
X65889530Y-28896521D01*
X65889529Y-28896520D01*
X65714995Y-28868878D01*
X65698409Y-28866251D01*
X65687354Y-28864500D01*
X65687352Y-28864500D01*
X65482648Y-28864500D01*
X65482647Y-28864500D01*
X65458327Y-28868351D01*
X65458326Y-28868350D01*
X65280468Y-28896521D01*
X65085777Y-28959780D01*
X65085764Y-28959786D01*
X64903397Y-29052708D01*
X64903385Y-29052715D01*
X64737787Y-29173027D01*
X64737784Y-29173029D01*
X64593029Y-29317784D01*
X64593027Y-29317787D01*
X64472715Y-29483385D01*
X64472708Y-29483397D01*
X64379786Y-29665764D01*
X64379780Y-29665777D01*
X64337076Y-29797207D01*
X64316523Y-29860464D01*
X64316522Y-29860466D01*
X64284500Y-30062642D01*
X64284500Y-30267352D01*
X64284499Y-30267354D01*
X64316521Y-30469530D01*
X64379780Y-30664221D01*
X64379786Y-30664234D01*
X64472708Y-30846601D01*
X64472713Y-30846610D01*
X64472715Y-30846613D01*
X64593028Y-31012213D01*
X64737786Y-31156971D01*
X64838666Y-31230263D01*
X64903390Y-31277287D01*
X64984390Y-31318558D01*
X64988411Y-31321008D01*
X64991466Y-31324367D01*
X65009045Y-31336760D01*
X65018459Y-31345652D01*
X65032132Y-31369078D01*
X65035422Y-31372696D01*
X65035900Y-31375534D01*
X65053679Y-31405996D01*
X65050683Y-31475801D01*
X65014521Y-31529505D01*
X65007519Y-31535573D01*
X64982606Y-31552350D01*
X64903387Y-31592714D01*
X64903385Y-31592715D01*
X64737787Y-31713027D01*
X64737784Y-31713029D01*
X64593029Y-31857784D01*
X64593027Y-31857787D01*
X64472715Y-32023385D01*
X64472708Y-32023397D01*
X64379786Y-32205764D01*
X64379780Y-32205777D01*
X64316521Y-32400468D01*
X64284500Y-32602642D01*
X64284500Y-32807352D01*
X64284499Y-32807354D01*
X64316521Y-33009530D01*
X64316522Y-33009534D01*
X64376645Y-33194572D01*
X64379782Y-33204225D01*
X64441426Y-33325209D01*
X64443691Y-33329653D01*
X64471072Y-33383390D01*
X64472715Y-33386613D01*
X64593028Y-33552213D01*
X64737786Y-33696971D01*
X64833491Y-33766503D01*
X64903390Y-33817287D01*
X64984537Y-33858633D01*
X64988697Y-33861183D01*
X64991773Y-33864584D01*
X65009045Y-33876760D01*
X65018459Y-33885652D01*
X65032329Y-33909416D01*
X65035569Y-33912998D01*
X65036024Y-33915747D01*
X65053679Y-33945996D01*
X65050683Y-34015801D01*
X65014521Y-34069505D01*
X65007519Y-34075573D01*
X64982606Y-34092350D01*
X64903387Y-34132714D01*
X64903385Y-34132715D01*
X64737787Y-34253027D01*
X64737784Y-34253029D01*
X64593029Y-34397784D01*
X64593027Y-34397787D01*
X64472715Y-34563385D01*
X64472708Y-34563397D01*
X64379786Y-34745764D01*
X64379780Y-34745777D01*
X64316521Y-34940468D01*
X64284500Y-35142642D01*
X64284500Y-35347352D01*
X64284499Y-35347354D01*
X64315956Y-35545960D01*
X64316522Y-35549534D01*
X64325391Y-35576829D01*
X64379780Y-35744221D01*
X64379786Y-35744234D01*
X64472708Y-35926601D01*
X64472713Y-35926610D01*
X64472715Y-35926613D01*
X64593028Y-36092213D01*
X64737786Y-36236971D01*
X64892749Y-36349556D01*
X64903390Y-36357287D01*
X64981878Y-36397278D01*
X64983506Y-36398171D01*
X64985463Y-36400134D01*
X65009045Y-36416760D01*
X65018459Y-36425652D01*
X65029146Y-36443963D01*
X65032829Y-36447658D01*
X65033724Y-36451806D01*
X65053679Y-36485996D01*
X65050683Y-36555801D01*
X65014521Y-36609505D01*
X65007519Y-36615573D01*
X64982606Y-36632350D01*
X64903387Y-36672714D01*
X64903385Y-36672715D01*
X64737787Y-36793027D01*
X64737784Y-36793029D01*
X64593029Y-36937784D01*
X64593027Y-36937787D01*
X64472715Y-37103385D01*
X64472708Y-37103397D01*
X64379786Y-37285764D01*
X64379780Y-37285777D01*
X64316521Y-37480468D01*
X64284500Y-37682642D01*
X64284500Y-37887356D01*
X64304612Y-38014336D01*
X64316522Y-38089534D01*
X64324325Y-38113548D01*
X64379780Y-38284221D01*
X64379783Y-38284228D01*
X64428486Y-38379810D01*
X64428486Y-38379812D01*
X64428487Y-38379812D01*
X64461955Y-38445498D01*
X64472711Y-38466608D01*
X64472713Y-38466610D01*
X64472715Y-38466613D01*
X64593028Y-38632213D01*
X64593030Y-38632215D01*
X64673061Y-38712246D01*
X64692287Y-38737927D01*
X64694210Y-38740496D01*
X64699631Y-38750423D01*
X64714485Y-38818696D01*
X64690071Y-38884161D01*
X64634139Y-38926034D01*
X64634127Y-38926039D01*
X64626908Y-38928731D01*
X64583682Y-38936546D01*
X58965373Y-38941084D01*
X58930437Y-38936090D01*
X58919582Y-38932912D01*
X58904574Y-38923285D01*
X58887462Y-38918275D01*
X58875777Y-38904811D01*
X58860774Y-38895187D01*
X58853353Y-38878974D01*
X58841666Y-38865507D01*
X58839114Y-38847862D01*
X58831697Y-38831655D01*
X58834219Y-38814005D01*
X58831668Y-38796356D01*
X58841580Y-38762497D01*
X58844754Y-38755531D01*
X58869906Y-38719278D01*
X58956965Y-38632220D01*
X58956969Y-38632216D01*
X59017126Y-38549414D01*
X59077287Y-38466610D01*
X59170220Y-38284219D01*
X59233477Y-38089534D01*
X59265500Y-37887352D01*
X59265500Y-37682648D01*
X59238201Y-37510289D01*
X59233477Y-37480465D01*
X59170218Y-37285776D01*
X59090759Y-37129831D01*
X59077287Y-37103390D01*
X59043963Y-37057523D01*
X58956971Y-36937786D01*
X58812213Y-36793028D01*
X58646614Y-36672715D01*
X58608378Y-36653233D01*
X58569798Y-36633575D01*
X58540953Y-36613239D01*
X58531539Y-36604348D01*
X58522554Y-36588954D01*
X58519006Y-36585603D01*
X58517832Y-36580863D01*
X58496320Y-36544005D01*
X58499315Y-36474199D01*
X58535481Y-36420491D01*
X58542486Y-36414421D01*
X58567396Y-36397648D01*
X58646610Y-36357287D01*
X58667770Y-36341913D01*
X58812213Y-36236971D01*
X58812214Y-36236969D01*
X58812274Y-36236926D01*
X58813036Y-36236148D01*
X58956966Y-36092219D01*
X58956968Y-36092215D01*
X58956971Y-36092213D01*
X59022304Y-36002288D01*
X59077287Y-35926610D01*
X59170220Y-35744219D01*
X59233477Y-35549534D01*
X59265500Y-35347352D01*
X59265500Y-35142648D01*
X59233477Y-34940466D01*
X59227203Y-34921158D01*
X59183398Y-34786338D01*
X59171712Y-34750374D01*
X59170658Y-34746635D01*
X59169653Y-34744612D01*
X59167864Y-34740920D01*
X59166932Y-34739327D01*
X59136503Y-34679606D01*
X59136503Y-34679607D01*
X59077287Y-34563390D01*
X59047122Y-34521871D01*
X58956971Y-34397786D01*
X58812213Y-34253028D01*
X58812212Y-34253027D01*
X58812209Y-34253024D01*
X58646616Y-34132716D01*
X58646337Y-34132574D01*
X58640006Y-34129348D01*
X58569799Y-34093575D01*
X58540956Y-34073242D01*
X58531538Y-34064347D01*
X58522553Y-34048953D01*
X58519005Y-34045602D01*
X58517831Y-34040862D01*
X58496320Y-34004005D01*
X58499315Y-33934200D01*
X58535474Y-33880498D01*
X58542479Y-33874427D01*
X58567386Y-33857652D01*
X58646610Y-33817287D01*
X58724818Y-33760466D01*
X58812213Y-33696971D01*
X58812214Y-33696969D01*
X58812217Y-33696966D01*
X58812219Y-33696966D01*
X58812220Y-33696964D01*
X58812273Y-33696926D01*
X58813032Y-33696152D01*
X58956966Y-33552219D01*
X58956968Y-33552215D01*
X58956971Y-33552213D01*
X59036816Y-33442313D01*
X59036817Y-33442313D01*
X59055823Y-33416152D01*
X59077287Y-33386610D01*
X59170220Y-33204219D01*
X59233477Y-33009534D01*
X59265500Y-32807352D01*
X59265500Y-32602648D01*
X59233477Y-32400466D01*
X59226560Y-32379179D01*
X59170218Y-32205776D01*
X59128324Y-32123555D01*
X59077287Y-32023390D01*
X59052818Y-31989711D01*
X58956971Y-31857786D01*
X58812213Y-31713028D01*
X58812212Y-31713027D01*
X58812211Y-31713026D01*
X58657202Y-31600408D01*
X58657199Y-31600406D01*
X58646613Y-31592715D01*
X58646612Y-31592714D01*
X58646610Y-31592713D01*
X58640535Y-31589617D01*
X58640531Y-31589615D01*
X58578231Y-31557872D01*
X58578231Y-31557871D01*
X58578229Y-31557871D01*
X58464228Y-31499783D01*
X58464221Y-31499780D01*
X58354139Y-31464012D01*
X58269534Y-31436522D01*
X58269532Y-31436521D01*
X58269530Y-31436521D01*
X58269529Y-31436520D01*
X58094995Y-31408878D01*
X58076798Y-31405996D01*
X58067354Y-31404500D01*
X58067352Y-31404500D01*
X57862648Y-31404500D01*
X57862647Y-31404500D01*
X57838327Y-31408351D01*
X57838326Y-31408350D01*
X57660468Y-31436521D01*
X57465777Y-31499780D01*
X57465764Y-31499786D01*
X57283397Y-31592708D01*
X57283385Y-31592715D01*
X57117787Y-31713027D01*
X57117784Y-31713029D01*
X56973029Y-31857784D01*
X56973027Y-31857787D01*
X56852715Y-32023385D01*
X56852708Y-32023397D01*
X56759786Y-32205764D01*
X56759780Y-32205777D01*
X56696521Y-32400468D01*
X56664500Y-32602642D01*
X56664500Y-32807352D01*
X56664499Y-32807354D01*
X56696521Y-33009530D01*
X56696522Y-33009534D01*
X56756645Y-33194572D01*
X56759782Y-33204225D01*
X56821426Y-33325209D01*
X56823691Y-33329653D01*
X56851072Y-33383390D01*
X56852715Y-33386613D01*
X56973028Y-33552213D01*
X57117786Y-33696971D01*
X57213491Y-33766503D01*
X57283390Y-33817287D01*
X57364537Y-33858633D01*
X57368697Y-33861183D01*
X57371773Y-33864584D01*
X57389045Y-33876760D01*
X57398459Y-33885652D01*
X57412329Y-33909416D01*
X57415569Y-33912998D01*
X57416024Y-33915747D01*
X57433679Y-33945996D01*
X57430683Y-34015801D01*
X57394521Y-34069505D01*
X57387519Y-34075573D01*
X57362606Y-34092350D01*
X57283387Y-34132714D01*
X57283385Y-34132715D01*
X57117787Y-34253027D01*
X57117784Y-34253029D01*
X56973029Y-34397784D01*
X56973027Y-34397787D01*
X56852715Y-34563385D01*
X56852708Y-34563397D01*
X56759786Y-34745764D01*
X56759780Y-34745777D01*
X56696521Y-34940468D01*
X56664500Y-35142642D01*
X56664500Y-35347352D01*
X56664499Y-35347354D01*
X56695956Y-35545960D01*
X56696522Y-35549534D01*
X56705391Y-35576829D01*
X56759780Y-35744221D01*
X56759786Y-35744234D01*
X56852708Y-35926601D01*
X56852713Y-35926610D01*
X56852715Y-35926613D01*
X56973028Y-36092213D01*
X57117786Y-36236971D01*
X57272749Y-36349556D01*
X57283390Y-36357287D01*
X57361878Y-36397278D01*
X57363506Y-36398171D01*
X57365463Y-36400134D01*
X57389045Y-36416760D01*
X57398459Y-36425652D01*
X57409146Y-36443963D01*
X57412829Y-36447658D01*
X57413724Y-36451806D01*
X57433679Y-36485996D01*
X57430683Y-36555801D01*
X57394521Y-36609505D01*
X57387519Y-36615573D01*
X57362606Y-36632350D01*
X57283387Y-36672714D01*
X57283385Y-36672715D01*
X57117787Y-36793027D01*
X57117784Y-36793029D01*
X56973029Y-36937784D01*
X56973027Y-36937787D01*
X56852715Y-37103385D01*
X56852708Y-37103397D01*
X56759786Y-37285764D01*
X56759780Y-37285777D01*
X56696521Y-37480468D01*
X56664500Y-37682642D01*
X56664500Y-37887356D01*
X56684612Y-38014336D01*
X56696522Y-38089534D01*
X56704325Y-38113548D01*
X56759780Y-38284221D01*
X56759783Y-38284228D01*
X56808486Y-38379810D01*
X56808486Y-38379812D01*
X56808487Y-38379812D01*
X56841955Y-38445498D01*
X56852711Y-38466608D01*
X56852713Y-38466610D01*
X56852715Y-38466613D01*
X56973028Y-38632213D01*
X56973030Y-38632215D01*
X57059211Y-38718396D01*
X57073916Y-38738038D01*
X57080360Y-38746646D01*
X57085781Y-38756573D01*
X57100635Y-38824846D01*
X57076221Y-38890311D01*
X57020289Y-38932184D01*
X57020277Y-38932189D01*
X57013058Y-38934881D01*
X56969832Y-38942696D01*
X20642426Y-38972037D01*
X20607487Y-38967042D01*
X20592488Y-38962651D01*
X20577483Y-38953025D01*
X20560374Y-38948017D01*
X20533681Y-38924926D01*
X20532511Y-38923578D01*
X20505000Y-38868699D01*
X20503343Y-38861095D01*
X20500500Y-38834694D01*
X20500500Y-34593500D01*
X20505522Y-34558568D01*
X20508406Y-34548745D01*
X20515343Y-34537949D01*
X20517940Y-34525385D01*
X20533869Y-34509120D01*
X20546179Y-34489966D01*
X20557851Y-34484635D01*
X20566829Y-34475469D01*
X20589023Y-34470398D01*
X20609734Y-34460940D01*
X20622434Y-34462765D01*
X20634943Y-34459908D01*
X20656355Y-34467641D01*
X20678892Y-34470881D01*
X20690127Y-34479838D01*
X20700658Y-34483642D01*
X20725873Y-34508338D01*
X20728498Y-34511771D01*
X20741730Y-34533311D01*
X20748050Y-34546438D01*
X20748052Y-34546442D01*
X20748053Y-34546443D01*
X20859121Y-34723205D01*
X20897477Y-34784248D01*
X21072584Y-35003825D01*
X21271175Y-35202416D01*
X21490752Y-35377523D01*
X21728555Y-35526945D01*
X21981592Y-35648801D01*
X22131108Y-35701119D01*
X22180668Y-35718461D01*
X22180672Y-35718462D01*
X22180680Y-35718465D01*
X22211483Y-35729243D01*
X22246666Y-35741555D01*
X22246670Y-35741556D01*
X22246682Y-35741560D01*
X22520491Y-35804055D01*
X22520495Y-35804055D01*
X22520498Y-35804055D01*
X22520505Y-35804057D01*
X22527408Y-35804834D01*
X22527409Y-35804835D01*
X22554726Y-35807912D01*
X22706547Y-35825018D01*
X22796560Y-35835160D01*
X22799034Y-35835500D01*
X23080428Y-35835500D01*
X23090222Y-35835500D01*
X23097820Y-35833539D01*
X23223055Y-35819429D01*
X23358788Y-35804136D01*
X23359429Y-35804068D01*
X23359504Y-35804055D01*
X23359509Y-35804055D01*
X23633318Y-35741560D01*
X23898408Y-35648801D01*
X24151445Y-35526945D01*
X24389248Y-35377523D01*
X24608825Y-35202416D01*
X24807416Y-35003825D01*
X24982523Y-34784248D01*
X25131945Y-34546445D01*
X25253801Y-34293408D01*
X25346560Y-34028318D01*
X25409055Y-33754509D01*
X25409059Y-33754479D01*
X25415539Y-33696967D01*
X25418562Y-33670137D01*
X25440437Y-33475980D01*
X25440500Y-33475445D01*
X25440500Y-33195879D01*
X25440500Y-33194572D01*
X25440499Y-33194568D01*
X25440498Y-33194561D01*
X36949500Y-33194561D01*
X36949500Y-33475437D01*
X36980939Y-33754479D01*
X36980944Y-33754508D01*
X36980945Y-33754512D01*
X37043439Y-34028317D01*
X37043440Y-34028320D01*
X37043443Y-34028332D01*
X37043450Y-34028353D01*
X37136197Y-34293404D01*
X37136203Y-34293418D01*
X37221432Y-34470398D01*
X37251729Y-34533311D01*
X37258356Y-34547071D01*
X37259902Y-34549385D01*
X37304787Y-34620819D01*
X37407477Y-34784248D01*
X37582584Y-35003825D01*
X37781175Y-35202416D01*
X38000752Y-35377523D01*
X38238555Y-35526945D01*
X38491592Y-35648801D01*
X38641108Y-35701119D01*
X38690668Y-35718461D01*
X38690672Y-35718462D01*
X38690680Y-35718465D01*
X38721483Y-35729243D01*
X38756666Y-35741555D01*
X38756670Y-35741556D01*
X38756682Y-35741560D01*
X39030491Y-35804055D01*
X39030495Y-35804055D01*
X39030498Y-35804055D01*
X39030505Y-35804057D01*
X39037408Y-35804834D01*
X39037409Y-35804835D01*
X39064726Y-35807912D01*
X39216547Y-35825018D01*
X39306560Y-35835160D01*
X39309034Y-35835500D01*
X39590428Y-35835500D01*
X39600222Y-35835500D01*
X39607820Y-35833539D01*
X39733055Y-35819429D01*
X39868788Y-35804136D01*
X39869429Y-35804068D01*
X39869504Y-35804055D01*
X39869509Y-35804055D01*
X40143318Y-35741560D01*
X40408408Y-35648801D01*
X40661445Y-35526945D01*
X40899248Y-35377523D01*
X41118825Y-35202416D01*
X41317416Y-35003825D01*
X41468293Y-34814631D01*
X52002000Y-34814631D01*
X52002000Y-36935376D01*
X52002159Y-36937306D01*
X52002385Y-36938954D01*
X52008407Y-36994982D01*
X52029319Y-37051048D01*
X52058702Y-37129828D01*
X52058706Y-37129835D01*
X52101586Y-37187116D01*
X52144950Y-37245042D01*
X52144952Y-37245044D01*
X52144955Y-37245047D01*
X52260164Y-37331293D01*
X52260171Y-37331297D01*
X52395017Y-37381591D01*
X52395016Y-37381591D01*
X52401944Y-37382335D01*
X52454627Y-37388000D01*
X54575372Y-37387999D01*
X54634983Y-37381591D01*
X54769831Y-37331296D01*
X54885046Y-37245046D01*
X54971296Y-37129831D01*
X55021591Y-36994983D01*
X55028000Y-36935373D01*
X55027999Y-34814628D01*
X55021591Y-34755017D01*
X55018455Y-34746610D01*
X55018259Y-34746085D01*
X54971298Y-34620173D01*
X54971297Y-34620171D01*
X54971295Y-34620168D01*
X54971293Y-34620164D01*
X54897711Y-34521872D01*
X54885048Y-34504956D01*
X54885042Y-34504950D01*
X54815556Y-34452933D01*
X54769835Y-34418706D01*
X54769832Y-34418704D01*
X54769830Y-34418703D01*
X54769828Y-34418702D01*
X54634982Y-34368408D01*
X54634983Y-34368408D01*
X54575383Y-34362001D01*
X54575381Y-34362000D01*
X54575373Y-34362000D01*
X54575364Y-34362000D01*
X54574341Y-34362000D01*
X52454623Y-34362000D01*
X52452692Y-34362159D01*
X52451045Y-34362385D01*
X52395016Y-34368408D01*
X52260166Y-34418704D01*
X52260165Y-34418705D01*
X52144956Y-34504950D01*
X52144950Y-34504956D01*
X52058705Y-34620165D01*
X52058703Y-34620168D01*
X52008409Y-34755013D01*
X52008407Y-34755020D01*
X52002731Y-34807815D01*
X52002003Y-34814598D01*
X52002000Y-34814631D01*
X41468293Y-34814631D01*
X41492523Y-34784248D01*
X41516173Y-34746610D01*
X41516974Y-34745335D01*
X41516974Y-34745334D01*
X41595211Y-34620821D01*
X41641945Y-34546445D01*
X41763801Y-34293408D01*
X41856560Y-34028318D01*
X41919055Y-33754509D01*
X41919059Y-33754479D01*
X41925539Y-33696967D01*
X41928562Y-33670137D01*
X41950437Y-33475980D01*
X41950500Y-33475445D01*
X41950500Y-33194547D01*
X41950419Y-33193860D01*
X41924915Y-32967500D01*
X41919057Y-32915505D01*
X41919054Y-32915487D01*
X41885049Y-32766503D01*
X41856560Y-32641682D01*
X41849260Y-32620821D01*
X41779395Y-32421158D01*
X41772155Y-32400468D01*
X41763800Y-32376589D01*
X41763798Y-32376585D01*
X41653780Y-32148129D01*
X41653780Y-32148128D01*
X41641945Y-32123555D01*
X41641940Y-32123547D01*
X41620254Y-32089034D01*
X41620253Y-32089033D01*
X41579004Y-32023386D01*
X41492523Y-31885752D01*
X41317416Y-31666175D01*
X41118825Y-31467584D01*
X41118824Y-31467583D01*
X41118823Y-31467582D01*
X41115580Y-31464996D01*
X41115578Y-31464995D01*
X41115560Y-31464981D01*
X40998134Y-31371336D01*
X40899248Y-31292477D01*
X40683584Y-31156966D01*
X40683584Y-31156965D01*
X40683582Y-31156965D01*
X40683515Y-31156923D01*
X40661442Y-31143053D01*
X40661428Y-31143045D01*
X40408426Y-31021206D01*
X40408404Y-31021197D01*
X40143353Y-30928450D01*
X40143332Y-30928443D01*
X40143320Y-30928440D01*
X40143317Y-30928439D01*
X40031467Y-30902910D01*
X39869514Y-30865945D01*
X39869479Y-30865939D01*
X39590437Y-30834500D01*
X39590431Y-30834500D01*
X39590425Y-30834500D01*
X39309575Y-30834500D01*
X39309568Y-30834500D01*
X39309561Y-30834500D01*
X39030519Y-30865939D01*
X39030484Y-30865945D01*
X38756678Y-30928440D01*
X38756666Y-30928443D01*
X38756645Y-30928450D01*
X38491594Y-31021197D01*
X38491572Y-31021206D01*
X38238562Y-31143049D01*
X38000754Y-31292475D01*
X37781175Y-31467582D01*
X37582582Y-31666175D01*
X37407475Y-31885754D01*
X37258054Y-32123555D01*
X37258049Y-32123562D01*
X37136206Y-32376572D01*
X37136197Y-32376594D01*
X37043450Y-32641645D01*
X37043443Y-32641666D01*
X37043440Y-32641678D01*
X36980945Y-32915484D01*
X36980939Y-32915519D01*
X36949500Y-33194561D01*
X25440498Y-33194561D01*
X25435761Y-33152520D01*
X25434340Y-33139911D01*
X25414915Y-32967500D01*
X25409057Y-32915505D01*
X25409054Y-32915487D01*
X25375049Y-32766503D01*
X25346560Y-32641682D01*
X25339260Y-32620821D01*
X25269395Y-32421158D01*
X25262155Y-32400468D01*
X25253800Y-32376589D01*
X25253798Y-32376585D01*
X25143780Y-32148129D01*
X25143780Y-32148128D01*
X25131945Y-32123555D01*
X25131940Y-32123547D01*
X25110254Y-32089034D01*
X25110253Y-32089033D01*
X25069004Y-32023386D01*
X24982523Y-31885752D01*
X24807416Y-31666175D01*
X24608825Y-31467584D01*
X24608824Y-31467583D01*
X24608823Y-31467582D01*
X24605580Y-31464996D01*
X24605578Y-31464995D01*
X24605560Y-31464981D01*
X24488134Y-31371336D01*
X24389248Y-31292477D01*
X24173584Y-31156966D01*
X24173584Y-31156965D01*
X24173582Y-31156965D01*
X24173515Y-31156923D01*
X24151442Y-31143053D01*
X24151428Y-31143045D01*
X23898426Y-31021206D01*
X23898404Y-31021197D01*
X23633353Y-30928450D01*
X23633332Y-30928443D01*
X23633320Y-30928440D01*
X23633317Y-30928439D01*
X23521467Y-30902910D01*
X23359514Y-30865945D01*
X23359479Y-30865939D01*
X23080437Y-30834500D01*
X23080431Y-30834500D01*
X23080425Y-30834500D01*
X22799575Y-30834500D01*
X22799568Y-30834500D01*
X22799561Y-30834500D01*
X22520519Y-30865939D01*
X22520484Y-30865945D01*
X22246678Y-30928440D01*
X22246666Y-30928443D01*
X22246645Y-30928450D01*
X21981594Y-31021197D01*
X21981572Y-31021206D01*
X21728562Y-31143049D01*
X21490754Y-31292475D01*
X21271175Y-31467582D01*
X21072582Y-31666175D01*
X20897475Y-31885754D01*
X20748054Y-32123555D01*
X20743957Y-32132063D01*
X20735904Y-32140982D01*
X20724266Y-32161369D01*
X20717405Y-32168967D01*
X20702221Y-32178291D01*
X20697136Y-32183924D01*
X20681775Y-32191939D01*
X20675652Y-32194607D01*
X20657866Y-32205530D01*
X20588011Y-32204100D01*
X20546602Y-32176274D01*
X20541678Y-32173921D01*
X20540666Y-32172285D01*
X20530018Y-32165130D01*
X20508125Y-32119657D01*
X20504933Y-32114495D01*
X20504957Y-32113078D01*
X20503943Y-32110971D01*
X20503069Y-32106744D01*
X20500500Y-32081636D01*
X20500500Y-30675925D01*
X52002000Y-30675925D01*
X52002000Y-30914074D01*
X52004276Y-30928443D01*
X52039256Y-31149297D01*
X52112844Y-31375783D01*
X52112845Y-31375786D01*
X52112846Y-31375787D01*
X52112847Y-31375790D01*
X52157799Y-31464012D01*
X52205623Y-31557872D01*
X52212980Y-31572310D01*
X52220967Y-31587985D01*
X52360949Y-31780653D01*
X52529347Y-31949051D01*
X52722015Y-32089033D01*
X52789768Y-32123555D01*
X52934209Y-32197152D01*
X52934212Y-32197153D01*
X52934219Y-32197155D01*
X52934235Y-32197161D01*
X53046068Y-32233497D01*
X53046069Y-32233497D01*
X53160705Y-32270744D01*
X53395924Y-32308000D01*
X53395925Y-32308000D01*
X53634075Y-32308000D01*
X53634076Y-32308000D01*
X53869295Y-32270744D01*
X54095790Y-32197152D01*
X54307985Y-32089033D01*
X54500653Y-31949051D01*
X54669051Y-31780653D01*
X54809033Y-31587985D01*
X54917152Y-31375790D01*
X54990744Y-31149295D01*
X55028000Y-30914076D01*
X55028000Y-30675924D01*
X54990744Y-30440705D01*
X54934419Y-30267352D01*
X54917153Y-30214212D01*
X54917152Y-30214209D01*
X54809032Y-30002014D01*
X54669051Y-29809347D01*
X54500653Y-29640949D01*
X54404319Y-29570958D01*
X54307983Y-29500965D01*
X54285894Y-29489710D01*
X54285894Y-29489711D01*
X54095790Y-29392847D01*
X54095787Y-29392846D01*
X54095786Y-29392845D01*
X54095783Y-29392844D01*
X53869297Y-29319256D01*
X53751685Y-29300628D01*
X53634076Y-29282000D01*
X53634075Y-29282000D01*
X53395920Y-29282000D01*
X53317517Y-29294417D01*
X53317517Y-29294418D01*
X53265245Y-29302697D01*
X53160701Y-29319256D01*
X52934215Y-29392844D01*
X52722013Y-29500967D01*
X52612090Y-29580832D01*
X52541218Y-29632324D01*
X52533837Y-29636457D01*
X52356456Y-29813838D01*
X52352326Y-29821214D01*
X52323810Y-29860464D01*
X52323809Y-29860466D01*
X52220967Y-30002014D01*
X52220964Y-30002018D01*
X52220963Y-30002021D01*
X52112844Y-30214215D01*
X52039256Y-30440701D01*
X52003854Y-30664219D01*
X52002000Y-30675925D01*
X20500500Y-30675925D01*
X20500500Y-23813710D01*
X22149500Y-23813710D01*
X22149500Y-24056288D01*
X22181061Y-24296032D01*
X22181161Y-24296785D01*
X22205187Y-24386452D01*
X22243947Y-24531104D01*
X22282528Y-24624246D01*
X22336774Y-24755208D01*
X22336779Y-24755219D01*
X22458060Y-24965283D01*
X22458062Y-24965286D01*
X22458281Y-24965615D01*
X22459284Y-24966879D01*
X22605726Y-25157728D01*
X22605730Y-25157733D01*
X22605733Y-25157736D01*
X22605739Y-25157743D01*
X22777256Y-25329260D01*
X22777263Y-25329266D01*
X22826369Y-25366946D01*
X22969711Y-25476936D01*
X23179788Y-25598224D01*
X23403900Y-25691054D01*
X23638211Y-25753838D01*
X23818586Y-25777584D01*
X23878710Y-25785500D01*
X23878711Y-25785500D01*
X23878712Y-25785500D01*
X24121283Y-25785500D01*
X24121289Y-25785500D01*
X24169388Y-25779167D01*
X24361789Y-25753838D01*
X24596100Y-25691054D01*
X24820212Y-25598224D01*
X25030289Y-25476936D01*
X25222738Y-25329265D01*
X25394265Y-25157738D01*
X25541936Y-24965289D01*
X25663224Y-24755212D01*
X25756054Y-24531100D01*
X25818838Y-24296789D01*
X25850500Y-24056288D01*
X25850500Y-23813712D01*
X25850049Y-23810290D01*
X25835710Y-23701372D01*
X25818838Y-23573211D01*
X25756054Y-23338900D01*
X25663224Y-23114788D01*
X25541936Y-22904711D01*
X25465500Y-22805097D01*
X25463098Y-22801967D01*
X25394272Y-22712270D01*
X25394268Y-22712266D01*
X25394266Y-22712263D01*
X25394260Y-22712256D01*
X25222743Y-22540739D01*
X25222736Y-22540733D01*
X25222733Y-22540730D01*
X25222728Y-22540726D01*
X25031879Y-22394284D01*
X25030615Y-22393281D01*
X25030286Y-22393062D01*
X25030283Y-22393060D01*
X24820220Y-22271780D01*
X24820213Y-22271776D01*
X24807482Y-22266502D01*
X24807482Y-22266503D01*
X24596104Y-22178947D01*
X24361781Y-22116160D01*
X24121290Y-22084500D01*
X24121289Y-22084500D01*
X24121288Y-22084500D01*
X23878712Y-22084500D01*
X23878711Y-22084500D01*
X23878710Y-22084500D01*
X23638217Y-22116160D01*
X23403894Y-22178947D01*
X23179790Y-22271774D01*
X23179782Y-22271778D01*
X22969706Y-22393067D01*
X22969697Y-22393073D01*
X22777270Y-22540726D01*
X22777255Y-22540740D01*
X22777247Y-22540747D01*
X22605747Y-22712247D01*
X22605740Y-22712255D01*
X22605726Y-22712270D01*
X22458073Y-22904697D01*
X22458067Y-22904706D01*
X22336778Y-23114782D01*
X22336774Y-23114790D01*
X22243947Y-23338894D01*
X22217326Y-23438245D01*
X22181161Y-23573214D01*
X22155157Y-23770733D01*
X22149500Y-23813710D01*
X20500500Y-23813710D01*
X20500500Y-23439850D01*
X20500541Y-23436677D01*
X20500629Y-23433317D01*
X20500754Y-23430151D01*
X20505537Y-23338895D01*
X20507435Y-23302669D01*
X20516420Y-23131183D01*
X20516930Y-23124710D01*
X20517607Y-23118274D01*
X20518454Y-23111848D01*
X20525123Y-23069742D01*
X20564526Y-22820964D01*
X20565703Y-22814614D01*
X20567048Y-22808285D01*
X20568564Y-22801967D01*
X20581010Y-22755519D01*
X20644794Y-22517474D01*
X20646622Y-22511303D01*
X20648647Y-22505074D01*
X20650788Y-22499030D01*
X20657448Y-22481682D01*
X20756342Y-22224051D01*
X20758799Y-22218118D01*
X20761448Y-22212167D01*
X20764226Y-22206342D01*
X20897961Y-21943873D01*
X20901027Y-21938228D01*
X20904283Y-21932589D01*
X20907639Y-21927113D01*
X21068064Y-21680079D01*
X21071710Y-21674773D01*
X21075535Y-21669509D01*
X21079448Y-21664410D01*
X21264836Y-21435474D01*
X21269020Y-21430576D01*
X21273371Y-21425745D01*
X21277800Y-21421077D01*
X21486077Y-21212800D01*
X21490745Y-21208371D01*
X21495576Y-21204020D01*
X21500474Y-21199836D01*
X21729410Y-21014448D01*
X21734509Y-21010535D01*
X21739773Y-21006710D01*
X21745079Y-21003064D01*
X21992113Y-20842639D01*
X21997589Y-20839283D01*
X22003228Y-20836027D01*
X22008873Y-20832961D01*
X22271342Y-20699226D01*
X22277179Y-20696443D01*
X22283099Y-20693808D01*
X22289055Y-20691340D01*
X22564044Y-20585782D01*
X22570096Y-20583639D01*
X22576302Y-20581622D01*
X22582498Y-20579788D01*
X22644058Y-20563293D01*
X22866980Y-20503560D01*
X22873285Y-20502048D01*
X22875773Y-20501519D01*
X22879623Y-20500701D01*
X22885964Y-20499526D01*
X23176861Y-20453452D01*
X23183261Y-20452608D01*
X23189722Y-20451928D01*
X23196178Y-20451421D01*
X23495173Y-20435751D01*
X23498328Y-20435628D01*
X23501685Y-20435540D01*
X23504860Y-20435500D01*
X32219902Y-20435500D01*
X32254820Y-20440517D01*
G37*
%TD.AperFunction*%
%TD*%
%TA.AperFunction,Conductor*%
%TO.N,GNDPWR*%
G36*
X101124730Y-20455185D02*
G01*
X101170485Y-20507989D01*
X101180429Y-20577147D01*
X101151404Y-20640703D01*
X101113987Y-20669984D01*
X101040976Y-20707185D01*
X100862641Y-20836752D01*
X100862636Y-20836756D01*
X100706756Y-20992636D01*
X100706752Y-20992641D01*
X100577187Y-21170974D01*
X100477104Y-21367393D01*
X100477103Y-21367396D01*
X100408985Y-21577047D01*
X100374500Y-21794778D01*
X100374500Y-22015221D01*
X100408985Y-22232952D01*
X100477103Y-22442603D01*
X100477104Y-22442606D01*
X100527107Y-22540739D01*
X100550479Y-22586610D01*
X100577187Y-22639025D01*
X100706752Y-22817358D01*
X100706756Y-22817363D01*
X100862636Y-22973243D01*
X100862641Y-22973247D01*
X100923258Y-23017287D01*
X101040978Y-23102815D01*
X101169375Y-23168237D01*
X101237393Y-23202895D01*
X101237396Y-23202896D01*
X101342221Y-23236955D01*
X101447049Y-23271015D01*
X101664778Y-23305500D01*
X101664779Y-23305500D01*
X101885221Y-23305500D01*
X101885222Y-23305500D01*
X102102951Y-23271015D01*
X102312606Y-23202895D01*
X102509022Y-23102815D01*
X102687365Y-22973242D01*
X102843242Y-22817365D01*
X102972815Y-22639022D01*
X103072895Y-22442606D01*
X103141015Y-22232951D01*
X103175500Y-22015222D01*
X103175500Y-21794778D01*
X103141015Y-21577049D01*
X103106955Y-21472221D01*
X103072896Y-21367396D01*
X103072895Y-21367393D01*
X103038237Y-21299375D01*
X102972815Y-21170978D01*
X102890573Y-21057781D01*
X102843247Y-20992641D01*
X102843243Y-20992636D01*
X102687363Y-20836756D01*
X102687358Y-20836752D01*
X102509023Y-20707185D01*
X102436013Y-20669984D01*
X102385218Y-20622010D01*
X102368423Y-20554189D01*
X102390961Y-20488054D01*
X102445676Y-20444603D01*
X102492309Y-20435500D01*
X105751246Y-20435500D01*
X105818285Y-20455185D01*
X105864040Y-20507989D01*
X105873984Y-20577147D01*
X105844959Y-20640703D01*
X105789565Y-20677430D01*
X105768296Y-20684341D01*
X105720776Y-20699781D01*
X105538386Y-20792715D01*
X105372786Y-20913028D01*
X105228028Y-21057786D01*
X105107715Y-21223386D01*
X105014781Y-21405776D01*
X104951522Y-21600465D01*
X104919500Y-21802648D01*
X104919500Y-22007351D01*
X104951522Y-22209534D01*
X105014781Y-22404223D01*
X105070907Y-22514375D01*
X105084338Y-22540735D01*
X105107715Y-22586613D01*
X105228028Y-22752213D01*
X105372786Y-22896971D01*
X105527749Y-23009556D01*
X105538390Y-23017287D01*
X105654607Y-23076503D01*
X105720776Y-23110218D01*
X105720778Y-23110218D01*
X105720781Y-23110220D01*
X105755396Y-23121467D01*
X105915465Y-23173477D01*
X106016557Y-23189488D01*
X106117648Y-23205500D01*
X106117649Y-23205500D01*
X106322351Y-23205500D01*
X106322352Y-23205500D01*
X106524534Y-23173477D01*
X106719219Y-23110220D01*
X106901610Y-23017287D01*
X106994590Y-22949732D01*
X107067213Y-22896971D01*
X107067215Y-22896968D01*
X107067219Y-22896966D01*
X107211966Y-22752219D01*
X107211968Y-22752215D01*
X107211971Y-22752213D01*
X107332284Y-22586614D01*
X107332285Y-22586613D01*
X107332287Y-22586610D01*
X107379516Y-22493917D01*
X107427489Y-22443123D01*
X107495310Y-22426328D01*
X107561445Y-22448865D01*
X107600483Y-22493917D01*
X107624341Y-22540739D01*
X107647715Y-22586614D01*
X107768028Y-22752213D01*
X107912786Y-22896971D01*
X108067749Y-23009556D01*
X108078390Y-23017287D01*
X108194607Y-23076503D01*
X108260776Y-23110218D01*
X108260778Y-23110218D01*
X108260781Y-23110220D01*
X108295396Y-23121467D01*
X108455465Y-23173477D01*
X108556557Y-23189488D01*
X108657648Y-23205500D01*
X108657649Y-23205500D01*
X108862351Y-23205500D01*
X108862352Y-23205500D01*
X109064534Y-23173477D01*
X109259219Y-23110220D01*
X109441610Y-23017287D01*
X109534590Y-22949732D01*
X109607213Y-22896971D01*
X109607215Y-22896968D01*
X109607219Y-22896966D01*
X109751966Y-22752219D01*
X109751968Y-22752215D01*
X109751971Y-22752213D01*
X109804732Y-22679590D01*
X109872287Y-22586610D01*
X109965220Y-22404219D01*
X110028477Y-22209534D01*
X110060500Y-22007352D01*
X110060500Y-21802648D01*
X110028477Y-21600465D01*
X109974060Y-21432988D01*
X109965220Y-21405781D01*
X109965218Y-21405778D01*
X109965218Y-21405776D01*
X109919515Y-21316080D01*
X109872287Y-21223390D01*
X109834205Y-21170974D01*
X109751971Y-21057786D01*
X109607213Y-20913028D01*
X109441613Y-20792715D01*
X109441612Y-20792714D01*
X109441610Y-20792713D01*
X109384653Y-20763691D01*
X109259223Y-20699781D01*
X109223633Y-20688217D01*
X109190434Y-20677430D01*
X109132760Y-20637993D01*
X109105562Y-20573634D01*
X109117477Y-20504788D01*
X109164721Y-20453312D01*
X109228754Y-20435500D01*
X116434108Y-20435500D01*
X116496755Y-20435500D01*
X116503243Y-20435669D01*
X116807061Y-20451591D01*
X116819937Y-20452945D01*
X117117212Y-20500029D01*
X117129896Y-20502724D01*
X117420626Y-20580625D01*
X117432966Y-20584635D01*
X117532674Y-20622910D01*
X117713935Y-20692489D01*
X117725790Y-20697767D01*
X117993976Y-20834415D01*
X118005192Y-20840891D01*
X118257619Y-21004818D01*
X118268100Y-21012433D01*
X118324101Y-21057781D01*
X118502011Y-21201850D01*
X118511656Y-21210535D01*
X118724464Y-21423343D01*
X118733149Y-21432988D01*
X118922564Y-21666896D01*
X118930183Y-21677384D01*
X119094105Y-21929801D01*
X119100587Y-21941029D01*
X119138391Y-22015222D01*
X119237231Y-22209206D01*
X119242510Y-22221064D01*
X119350363Y-22502032D01*
X119354374Y-22514375D01*
X119432273Y-22805097D01*
X119434971Y-22817793D01*
X119482052Y-23115046D01*
X119483409Y-23127955D01*
X119499330Y-23431756D01*
X119499500Y-23438245D01*
X119499500Y-34435000D01*
X118013671Y-34435000D01*
X118043224Y-34383812D01*
X118136054Y-34159700D01*
X118198838Y-33925389D01*
X118230500Y-33684888D01*
X118230500Y-33442312D01*
X118198838Y-33201811D01*
X118136054Y-32967500D01*
X118043224Y-32743388D01*
X117921936Y-32533311D01*
X117774265Y-32340862D01*
X117774260Y-32340856D01*
X117602743Y-32169339D01*
X117602736Y-32169333D01*
X117410293Y-32021667D01*
X117410292Y-32021666D01*
X117410289Y-32021664D01*
X117319393Y-31969185D01*
X117271179Y-31918620D01*
X117257956Y-31850013D01*
X117283924Y-31785148D01*
X117319392Y-31754415D01*
X117410289Y-31701936D01*
X117602738Y-31554265D01*
X117774265Y-31382738D01*
X117921936Y-31190289D01*
X118043224Y-30980212D01*
X118136054Y-30756100D01*
X118198838Y-30521789D01*
X118230500Y-30281288D01*
X118230500Y-30038712D01*
X118198838Y-29798211D01*
X118136054Y-29563900D01*
X118043224Y-29339788D01*
X117921936Y-29129711D01*
X117774265Y-28937262D01*
X117774260Y-28937256D01*
X117602743Y-28765739D01*
X117602736Y-28765733D01*
X117410293Y-28618067D01*
X117410292Y-28618066D01*
X117410289Y-28618064D01*
X117200212Y-28496776D01*
X117200205Y-28496773D01*
X116976104Y-28403947D01*
X116741785Y-28341161D01*
X116501289Y-28309500D01*
X116501288Y-28309500D01*
X116258712Y-28309500D01*
X116258711Y-28309500D01*
X116018214Y-28341161D01*
X115783895Y-28403947D01*
X115559794Y-28496773D01*
X115559785Y-28496777D01*
X115349706Y-28618067D01*
X115157263Y-28765733D01*
X115157256Y-28765739D01*
X114985739Y-28937256D01*
X114985733Y-28937263D01*
X114838067Y-29129706D01*
X114838064Y-29129710D01*
X114838064Y-29129711D01*
X114824933Y-29152454D01*
X114716777Y-29339785D01*
X114716773Y-29339794D01*
X114623947Y-29563895D01*
X114561161Y-29798214D01*
X114529500Y-30038711D01*
X114529500Y-30281288D01*
X114561161Y-30521785D01*
X114623947Y-30756104D01*
X114716773Y-30980205D01*
X114716776Y-30980212D01*
X114838064Y-31190289D01*
X114838066Y-31190292D01*
X114838067Y-31190293D01*
X114985733Y-31382736D01*
X114985739Y-31382743D01*
X115157256Y-31554260D01*
X115157263Y-31554266D01*
X115161964Y-31557873D01*
X115349711Y-31701936D01*
X115436993Y-31752328D01*
X115440604Y-31754413D01*
X115488819Y-31804981D01*
X115502041Y-31873588D01*
X115476073Y-31938453D01*
X115440604Y-31969186D01*
X115349711Y-32021664D01*
X115349708Y-32021665D01*
X115349703Y-32021669D01*
X115157263Y-32169333D01*
X115157256Y-32169339D01*
X114985739Y-32340856D01*
X114985733Y-32340863D01*
X114838067Y-32533306D01*
X114716777Y-32743385D01*
X114716773Y-32743394D01*
X114623947Y-32967495D01*
X114561161Y-33201814D01*
X114529500Y-33442311D01*
X114529500Y-33684888D01*
X114561161Y-33925385D01*
X114623947Y-34159704D01*
X114716773Y-34383805D01*
X114716777Y-34383814D01*
X114746329Y-34435000D01*
X104745601Y-34435000D01*
X104678562Y-34415315D01*
X104632807Y-34362511D01*
X104622863Y-34293353D01*
X104631040Y-34263548D01*
X104674051Y-34159707D01*
X104674052Y-34159704D01*
X104674054Y-34159700D01*
X104736838Y-33925389D01*
X104768500Y-33684888D01*
X104768500Y-33442312D01*
X104736838Y-33201811D01*
X104674054Y-32967500D01*
X104581224Y-32743388D01*
X104459936Y-32533311D01*
X104312265Y-32340862D01*
X104312260Y-32340856D01*
X104193584Y-32222180D01*
X104160099Y-32160857D01*
X104165083Y-32091165D01*
X104206955Y-32035232D01*
X104272419Y-32010815D01*
X104281265Y-32010499D01*
X104315871Y-32010499D01*
X104315872Y-32010499D01*
X104375483Y-32004091D01*
X104510331Y-31953796D01*
X104625546Y-31867546D01*
X104711796Y-31752331D01*
X104762091Y-31617483D01*
X104768500Y-31557873D01*
X104768499Y-28762128D01*
X104762091Y-28702517D01*
X104730593Y-28618067D01*
X104711797Y-28567671D01*
X104711793Y-28567664D01*
X104625547Y-28452455D01*
X104625544Y-28452452D01*
X104510335Y-28366206D01*
X104510328Y-28366202D01*
X104375482Y-28315908D01*
X104375483Y-28315908D01*
X104315883Y-28309501D01*
X104315881Y-28309500D01*
X104315873Y-28309500D01*
X104315864Y-28309500D01*
X101520129Y-28309500D01*
X101520123Y-28309501D01*
X101460516Y-28315908D01*
X101325671Y-28366202D01*
X101325664Y-28366206D01*
X101210455Y-28452452D01*
X101210452Y-28452455D01*
X101124206Y-28567664D01*
X101124202Y-28567671D01*
X101073908Y-28702517D01*
X101067501Y-28762116D01*
X101067501Y-28762123D01*
X101067500Y-28762135D01*
X101067500Y-31557870D01*
X101067501Y-31557876D01*
X101073908Y-31617483D01*
X101124202Y-31752328D01*
X101124206Y-31752335D01*
X101210452Y-31867544D01*
X101210455Y-31867547D01*
X101325664Y-31953793D01*
X101325671Y-31953797D01*
X101366934Y-31969187D01*
X101460517Y-32004091D01*
X101520127Y-32010500D01*
X101554734Y-32010499D01*
X101621771Y-32030182D01*
X101667527Y-32082985D01*
X101677472Y-32152143D01*
X101648449Y-32215699D01*
X101642416Y-32222180D01*
X101523732Y-32340864D01*
X101376067Y-32533306D01*
X101254777Y-32743385D01*
X101254773Y-32743394D01*
X101161947Y-32967495D01*
X101099161Y-33201814D01*
X101067500Y-33442311D01*
X101067500Y-33442312D01*
X101067500Y-33684888D01*
X101099162Y-33925389D01*
X101159329Y-34149935D01*
X101161948Y-34159707D01*
X101204960Y-34263548D01*
X101212429Y-34333017D01*
X101181154Y-34395496D01*
X101121064Y-34431148D01*
X101090399Y-34435000D01*
X98600000Y-34435000D01*
X98600000Y-40811000D01*
X98580315Y-40878039D01*
X98527511Y-40923794D01*
X98476000Y-40935000D01*
X82624000Y-40935000D01*
X82556961Y-40915315D01*
X82511206Y-40862511D01*
X82500000Y-40811000D01*
X82500000Y-36366762D01*
X90969500Y-36366762D01*
X90969500Y-36653237D01*
X91001572Y-36937891D01*
X91065317Y-37217181D01*
X91065321Y-37217193D01*
X91159929Y-37487565D01*
X91159935Y-37487579D01*
X91284223Y-37745666D01*
X91284225Y-37745669D01*
X91436634Y-37988227D01*
X91615243Y-38212195D01*
X91817805Y-38414757D01*
X92041773Y-38593366D01*
X92284331Y-38745775D01*
X92542428Y-38870068D01*
X92542434Y-38870070D01*
X92812806Y-38964678D01*
X92812818Y-38964682D01*
X93092102Y-39028426D01*
X93092105Y-39028426D01*
X93092108Y-39028427D01*
X93092107Y-39028427D01*
X93234434Y-39044463D01*
X93376763Y-39060499D01*
X93376764Y-39060500D01*
X93376767Y-39060500D01*
X93663236Y-39060500D01*
X93663236Y-39060499D01*
X93868815Y-39037336D01*
X93947891Y-39028427D01*
X93947892Y-39028426D01*
X93947898Y-39028426D01*
X94227182Y-38964682D01*
X94497572Y-38870068D01*
X94755669Y-38745775D01*
X94998227Y-38593366D01*
X95222195Y-38414757D01*
X95424757Y-38212195D01*
X95603366Y-37988227D01*
X95755775Y-37745669D01*
X95880068Y-37487572D01*
X95974682Y-37217182D01*
X96038426Y-36937898D01*
X96070500Y-36653233D01*
X96070500Y-36366767D01*
X96038426Y-36082102D01*
X95974682Y-35802818D01*
X95880068Y-35532428D01*
X95755775Y-35274331D01*
X95603366Y-35031773D01*
X95424757Y-34807805D01*
X95222195Y-34605243D01*
X94998227Y-34426634D01*
X94755669Y-34274225D01*
X94755666Y-34274223D01*
X94497579Y-34149935D01*
X94497565Y-34149929D01*
X94227193Y-34055321D01*
X94227181Y-34055317D01*
X93947891Y-33991572D01*
X93947892Y-33991572D01*
X93663237Y-33959500D01*
X93663233Y-33959500D01*
X93376767Y-33959500D01*
X93376762Y-33959500D01*
X93092108Y-33991572D01*
X92812818Y-34055317D01*
X92812806Y-34055321D01*
X92542434Y-34149929D01*
X92542420Y-34149935D01*
X92284333Y-34274223D01*
X92041774Y-34426633D01*
X91817805Y-34605242D01*
X91615242Y-34807805D01*
X91436633Y-35031774D01*
X91284223Y-35274333D01*
X91159935Y-35532420D01*
X91159929Y-35532434D01*
X91065321Y-35802806D01*
X91065317Y-35802818D01*
X91001572Y-36082108D01*
X90969500Y-36366762D01*
X82500000Y-36366762D01*
X82500000Y-32130039D01*
X82519685Y-32063000D01*
X82572489Y-32017245D01*
X82637254Y-32006750D01*
X82672127Y-32010500D01*
X83667872Y-32010499D01*
X83727483Y-32004091D01*
X83862331Y-31953796D01*
X83977546Y-31867546D01*
X84063796Y-31752331D01*
X84114091Y-31617483D01*
X84120500Y-31557873D01*
X84120499Y-29462135D01*
X95719500Y-29462135D01*
X95719500Y-31557870D01*
X95719501Y-31557876D01*
X95725908Y-31617483D01*
X95776202Y-31752328D01*
X95776206Y-31752335D01*
X95862452Y-31867544D01*
X95862455Y-31867547D01*
X95977664Y-31953793D01*
X95977671Y-31953797D01*
X96112517Y-32004091D01*
X96112516Y-32004091D01*
X96119444Y-32004835D01*
X96172127Y-32010500D01*
X97167872Y-32010499D01*
X97227483Y-32004091D01*
X97362331Y-31953796D01*
X97477546Y-31867546D01*
X97563796Y-31752331D01*
X97614091Y-31617483D01*
X97620500Y-31557873D01*
X97620499Y-29462128D01*
X97614091Y-29402517D01*
X97563796Y-29267669D01*
X97563795Y-29267668D01*
X97563793Y-29267664D01*
X97477547Y-29152455D01*
X97477544Y-29152452D01*
X97362335Y-29066206D01*
X97362328Y-29066202D01*
X97227482Y-29015908D01*
X97227483Y-29015908D01*
X97167883Y-29009501D01*
X97167881Y-29009500D01*
X97167873Y-29009500D01*
X97167864Y-29009500D01*
X96172129Y-29009500D01*
X96172123Y-29009501D01*
X96112516Y-29015908D01*
X95977671Y-29066202D01*
X95977664Y-29066206D01*
X95862455Y-29152452D01*
X95862452Y-29152455D01*
X95776206Y-29267664D01*
X95776202Y-29267671D01*
X95725908Y-29402517D01*
X95719501Y-29462116D01*
X95719501Y-29462123D01*
X95719500Y-29462135D01*
X84120499Y-29462135D01*
X84120499Y-29462128D01*
X84114091Y-29402517D01*
X84063796Y-29267669D01*
X84063795Y-29267668D01*
X84063793Y-29267664D01*
X83977547Y-29152455D01*
X83977544Y-29152452D01*
X83862335Y-29066206D01*
X83862328Y-29066202D01*
X83727482Y-29015908D01*
X83727483Y-29015908D01*
X83667883Y-29009501D01*
X83667881Y-29009500D01*
X83667873Y-29009500D01*
X83667864Y-29009500D01*
X82672129Y-29009500D01*
X82672118Y-29009501D01*
X82637251Y-29013249D01*
X82568492Y-29000841D01*
X82517356Y-28953229D01*
X82500000Y-28889959D01*
X82500000Y-23813711D01*
X114149500Y-23813711D01*
X114149500Y-24056288D01*
X114181161Y-24296785D01*
X114243947Y-24531104D01*
X114336773Y-24755205D01*
X114336776Y-24755212D01*
X114458064Y-24965289D01*
X114458066Y-24965292D01*
X114458067Y-24965293D01*
X114605733Y-25157736D01*
X114605739Y-25157743D01*
X114777256Y-25329260D01*
X114777262Y-25329265D01*
X114969711Y-25476936D01*
X115179788Y-25598224D01*
X115403900Y-25691054D01*
X115638211Y-25753838D01*
X115818586Y-25777584D01*
X115878711Y-25785500D01*
X115878712Y-25785500D01*
X116121289Y-25785500D01*
X116169388Y-25779167D01*
X116361789Y-25753838D01*
X116596100Y-25691054D01*
X116820212Y-25598224D01*
X117030289Y-25476936D01*
X117222738Y-25329265D01*
X117394265Y-25157738D01*
X117541936Y-24965289D01*
X117663224Y-24755212D01*
X117756054Y-24531100D01*
X117818838Y-24296789D01*
X117850500Y-24056288D01*
X117850500Y-23813712D01*
X117818838Y-23573211D01*
X117756054Y-23338900D01*
X117663224Y-23114788D01*
X117541936Y-22904711D01*
X117424925Y-22752219D01*
X117394266Y-22712263D01*
X117394260Y-22712256D01*
X117222743Y-22540739D01*
X117222736Y-22540733D01*
X117030293Y-22393067D01*
X117030292Y-22393066D01*
X117030289Y-22393064D01*
X116820212Y-22271776D01*
X116820205Y-22271773D01*
X116596104Y-22178947D01*
X116361785Y-22116161D01*
X116121289Y-22084500D01*
X116121288Y-22084500D01*
X115878712Y-22084500D01*
X115878711Y-22084500D01*
X115638214Y-22116161D01*
X115403895Y-22178947D01*
X115179794Y-22271773D01*
X115179785Y-22271777D01*
X114969706Y-22393067D01*
X114777263Y-22540733D01*
X114777256Y-22540739D01*
X114605739Y-22712256D01*
X114605733Y-22712263D01*
X114458067Y-22904706D01*
X114336777Y-23114785D01*
X114336773Y-23114794D01*
X114243947Y-23338895D01*
X114181161Y-23573214D01*
X114149500Y-23813711D01*
X82500000Y-23813711D01*
X82500000Y-20559500D01*
X82519685Y-20492461D01*
X82572489Y-20446706D01*
X82624000Y-20435500D01*
X101057691Y-20435500D01*
X101124730Y-20455185D01*
G37*
%TD.AperFunction*%
%TD*%
M02*
