%TF.GenerationSoftware,KiCad,Pcbnew,10.0.3-10.0.3~ubuntu26.04.1*%
%TF.CreationDate,2026-06-22T17:46:59+09:00*%
%TF.ProjectId,PowerUnit_24V,506f7765-7255-46e6-9974-5f3234562e6b,rev?*%
%TF.SameCoordinates,Original*%
%TF.FileFunction,Paste,Bot*%
%TF.FilePolarity,Positive*%
%FSLAX46Y46*%
G04 Gerber Fmt 4.6, Leading zero omitted, Abs format (unit mm)*
G04 Created by KiCad (PCBNEW 10.0.3-10.0.3~ubuntu26.04.1) date 2026-06-22 17:46:59*
%MOMM*%
%LPD*%
G01*
G04 APERTURE LIST*
G04 Aperture macros list*
%AMRoundRect*
0 Rectangle with rounded corners*
0 $1 Rounding radius*
0 $2 $3 $4 $5 $6 $7 $8 $9 X,Y pos of 4 corners*
0 Add a 4 corners polygon primitive as box body*
4,1,4,$2,$3,$4,$5,$6,$7,$8,$9,$2,$3,0*
0 Add four circle primitives for the rounded corners*
1,1,$1+$1,$2,$3*
1,1,$1+$1,$4,$5*
1,1,$1+$1,$6,$7*
1,1,$1+$1,$8,$9*
0 Add four rect primitives between the rounded corners*
20,1,$1+$1,$2,$3,$4,$5,0*
20,1,$1+$1,$4,$5,$6,$7,0*
20,1,$1+$1,$6,$7,$8,$9,0*
20,1,$1+$1,$8,$9,$2,$3,0*%
%AMFreePoly0*
4,1,5,1.550000,-2.000000,-1.550000,-2.000000,-1.550000,2.000000,1.550000,2.000000,1.550000,-2.000000,1.550000,-2.000000,$1*%
%AMFreePoly1*
4,1,5,0.125000,-0.125000,-0.125000,-0.125000,-0.125000,0.125000,0.125000,0.125000,0.125000,-0.125000,0.125000,-0.125000,$1*%
G04 Aperture macros list end*
%ADD10RoundRect,0.200000X0.200000X0.275000X-0.200000X0.275000X-0.200000X-0.275000X0.200000X-0.275000X0*%
%ADD11RoundRect,0.225000X0.225000X0.250000X-0.225000X0.250000X-0.225000X-0.250000X0.225000X-0.250000X0*%
%ADD12RoundRect,0.250000X0.475000X-0.250000X0.475000X0.250000X-0.475000X0.250000X-0.475000X-0.250000X0*%
%ADD13RoundRect,0.225000X-0.250000X0.225000X-0.250000X-0.225000X0.250000X-0.225000X0.250000X0.225000X0*%
%ADD14RoundRect,0.225000X-0.225000X-0.250000X0.225000X-0.250000X0.225000X0.250000X-0.225000X0.250000X0*%
%ADD15RoundRect,0.200000X-0.200000X-0.275000X0.200000X-0.275000X0.200000X0.275000X-0.200000X0.275000X0*%
%ADD16FreePoly0,90.000000*%
%ADD17FreePoly1,90.000000*%
%ADD18RoundRect,0.250000X0.312500X0.625000X-0.312500X0.625000X-0.312500X-0.625000X0.312500X-0.625000X0*%
%ADD19RoundRect,0.250000X-0.262500X-0.450000X0.262500X-0.450000X0.262500X0.450000X-0.262500X0.450000X0*%
%ADD20RoundRect,0.075000X0.075000X-0.650000X0.075000X0.650000X-0.075000X0.650000X-0.075000X-0.650000X0*%
G04 APERTURE END LIST*
D10*
%TO.C,R6*%
X110512000Y-39147000D03*
X108862000Y-39147000D03*
%TD*%
D11*
%TO.C,C17*%
X53515000Y-28255000D03*
X51965000Y-28255000D03*
%TD*%
D12*
%TO.C,C18*%
X50975000Y-33970000D03*
X50975000Y-32070000D03*
%TD*%
D10*
%TO.C,R3*%
X109077000Y-41463000D03*
X107427000Y-41463000D03*
%TD*%
D11*
%TO.C,C1*%
X107236000Y-43241000D03*
X105686000Y-43241000D03*
%TD*%
D13*
%TO.C,C2*%
X101622000Y-38389000D03*
X101622000Y-39939000D03*
%TD*%
D14*
%TO.C,C10*%
X61630000Y-36370000D03*
X63180000Y-36370000D03*
%TD*%
D15*
%TO.C,R4*%
X108862000Y-37399000D03*
X110512000Y-37399000D03*
%TD*%
D16*
%TO.C,R5*%
X116380000Y-42180000D03*
D17*
X116380000Y-40630000D03*
X116380000Y-39330000D03*
D16*
X116380000Y-37780000D03*
%TD*%
D15*
%TO.C,R11*%
X59104000Y-40701000D03*
X60754000Y-40701000D03*
%TD*%
D18*
%TO.C,R2*%
X83500000Y-33435000D03*
X80575000Y-33435000D03*
%TD*%
D13*
%TO.C,C7*%
X63040000Y-28610000D03*
X63040000Y-30160000D03*
%TD*%
D15*
%TO.C,R13*%
X72820000Y-32065000D03*
X74470000Y-32065000D03*
%TD*%
D19*
%TO.C,R14*%
X62532000Y-40447000D03*
X64357000Y-40447000D03*
%TD*%
D13*
%TO.C,C5*%
X107210000Y-37399000D03*
X107210000Y-38949000D03*
%TD*%
D20*
%TO.C,U1*%
X105432000Y-41191000D03*
X104932000Y-41191000D03*
X104432000Y-41191000D03*
X103932000Y-41191000D03*
X103432000Y-41191000D03*
X103432000Y-36891000D03*
X103932000Y-36891000D03*
X104432000Y-36891000D03*
X104932000Y-36891000D03*
X105432000Y-36891000D03*
%TD*%
M02*
