%TF.GenerationSoftware,KiCad,Pcbnew,10.0.3-10.0.3~ubuntu26.04.1*%
%TF.CreationDate,2026-06-22T17:46:59+09:00*%
%TF.ProjectId,PowerUnit_24V,506f7765-7255-46e6-9974-5f3234562e6b,rev?*%
%TF.SameCoordinates,Original*%
%TF.FileFunction,Soldermask,Top*%
%TF.FilePolarity,Negative*%
%FSLAX46Y46*%
G04 Gerber Fmt 4.6, Leading zero omitted, Abs format (unit mm)*
G04 Created by KiCad (PCBNEW 10.0.3-10.0.3~ubuntu26.04.1) date 2026-06-22 17:46:59*
%MOMM*%
%LPD*%
G01*
G04 APERTURE LIST*
G04 Aperture macros list*
%AMRoundRect*
0 Rectangle with rounded corners*
0 $1 Rounding radius*
0 $2 $3 $4 $5 $6 $7 $8 $9 X,Y pos of 4 corners*
0 Add a 4 corners polygon primitive as box body*
4,1,4,$2,$3,$4,$5,$6,$7,$8,$9,$2,$3,0*
0 Add four circle primitives for the rounded corners*
1,1,$1+$1,$2,$3*
1,1,$1+$1,$4,$5*
1,1,$1+$1,$6,$7*
1,1,$1+$1,$8,$9*
0 Add four rect primitives between the rounded corners*
20,1,$1+$1,$2,$3,$4,$5,0*
20,1,$1+$1,$4,$5,$6,$7,0*
20,1,$1+$1,$6,$7,$8,$9,0*
20,1,$1+$1,$8,$9,$2,$3,0*%
G04 Aperture macros list end*
%ADD10R,1.717500X1.800000*%
%ADD11O,1.717500X1.800000*%
%ADD12C,2.400000*%
%ADD13RoundRect,0.760000X1.140000X1.140000X-1.140000X1.140000X-1.140000X-1.140000X1.140000X-1.140000X0*%
%ADD14C,4.000000*%
%ADD15RoundRect,0.250000X-0.550000X0.550000X-0.550000X-0.550000X0.550000X-0.550000X0.550000X0.550000X0*%
%ADD16C,1.600000*%
%ADD17C,3.510000*%
%ADD18R,3.510000X3.510000*%
%ADD19RoundRect,0.250000X0.550000X-0.550000X0.550000X0.550000X-0.550000X0.550000X-0.550000X-0.550000X0*%
%ADD20RoundRect,0.450000X-0.950000X0.450000X-0.950000X-0.450000X0.950000X-0.450000X0.950000X0.450000X0*%
%ADD21O,2.800000X1.800000*%
%ADD22R,1.800000X1.800000*%
%ADD23C,1.800000*%
%ADD24RoundRect,1.500000X1.500000X1.500000X-1.500000X1.500000X-1.500000X-1.500000X1.500000X-1.500000X0*%
%ADD25C,6.000000*%
%ADD26R,0.900000X2.000000*%
%ADD27RoundRect,1.025000X-1.025000X-1.025000X1.025000X-1.025000X1.025000X1.025000X-1.025000X1.025000X0*%
%ADD28C,4.100000*%
%ADD29RoundRect,0.250000X-0.550000X-0.550000X0.550000X-0.550000X0.550000X0.550000X-0.550000X0.550000X0*%
%ADD30RoundRect,0.102000X-0.611000X-0.611000X0.611000X-0.611000X0.611000X0.611000X-0.611000X0.611000X0*%
%ADD31C,1.426000*%
%ADD32RoundRect,0.450000X-0.450000X-0.950000X0.450000X-0.950000X0.450000X0.950000X-0.450000X0.950000X0*%
%ADD33O,1.800000X2.800000*%
%ADD34RoundRect,0.450000X0.950000X-0.450000X0.950000X0.450000X-0.950000X0.450000X-0.950000X-0.450000X0*%
%ADD35R,2.700000X2.700000*%
%ADD36C,2.700000*%
%ADD37R,2.025000X2.025000*%
%ADD38C,2.025000*%
G04 APERTURE END LIST*
D10*
%TO.C,Q1*%
X62405000Y-42860000D03*
D11*
X60115000Y-42860000D03*
X57825000Y-42860000D03*
%TD*%
D12*
%TO.C,R12*%
X60500000Y-75880000D03*
X52880000Y-75880000D03*
%TD*%
D13*
%TO.C,J7*%
X27940000Y-33335000D03*
D14*
X22940000Y-33335000D03*
%TD*%
D15*
%TO.C,C11*%
X70025000Y-32065000D03*
D16*
X70025000Y-34065000D03*
%TD*%
D17*
%TO.C,K1*%
X91615000Y-55560000D03*
X100045000Y-46060000D03*
D18*
X100045000Y-55970000D03*
D17*
X108475000Y-55560000D03*
X100045000Y-63970000D03*
%TD*%
D13*
%TO.C,J8*%
X53975000Y-23175000D03*
D14*
X48975000Y-23175000D03*
%TD*%
D19*
%TO.C,C12*%
X62278000Y-24953000D03*
D16*
X62278000Y-22953000D03*
%TD*%
D15*
%TO.C,D4*%
X70787000Y-37145000D03*
D16*
X70787000Y-39685000D03*
%TD*%
%TO.C,R7*%
X108760000Y-21905000D03*
X106220000Y-21905000D03*
%TD*%
D20*
%TO.C,J13*%
X109374560Y-66398507D03*
D21*
X109374560Y-68898507D03*
%TD*%
D22*
%TO.C,D6*%
X24940000Y-73975000D03*
D23*
X22400000Y-73975000D03*
%TD*%
D24*
%TO.C,J2*%
X42935000Y-90485000D03*
D25*
X35735000Y-90485000D03*
%TD*%
D26*
%TO.C,J1*%
X83170000Y-30510000D03*
X96670000Y-30510000D03*
D27*
X86320000Y-36510000D03*
D28*
X93520000Y-36510000D03*
%TD*%
D29*
%TO.C,U2*%
X57965000Y-30165000D03*
D16*
X57965000Y-32705000D03*
X57965000Y-35245000D03*
X57965000Y-37785000D03*
X65585000Y-37785000D03*
X65585000Y-35245000D03*
X65585000Y-32705000D03*
X65585000Y-30165000D03*
%TD*%
D24*
%TO.C,J5*%
X96275000Y-90485000D03*
D25*
X89075000Y-90485000D03*
%TD*%
D16*
%TO.C,R10*%
X22400000Y-64450000D03*
X22400000Y-66990000D03*
%TD*%
D17*
%TO.C,K3*%
X29845000Y-55560000D03*
X38275000Y-46060000D03*
D18*
X38275000Y-55970000D03*
D17*
X46705000Y-55560000D03*
X38275000Y-63970000D03*
%TD*%
%TO.C,K2*%
X60785000Y-55535000D03*
X69215000Y-46035000D03*
D18*
X69215000Y-55945000D03*
D17*
X77645000Y-55535000D03*
X69215000Y-63945000D03*
%TD*%
D22*
%TO.C,D3*%
X101775000Y-24445000D03*
D23*
X101775000Y-21905000D03*
%TD*%
D22*
%TO.C,D5*%
X24940000Y-84135000D03*
D23*
X22400000Y-84135000D03*
%TD*%
D30*
%TO.C,RV2*%
X74343000Y-37145000D03*
D31*
X76883000Y-34605000D03*
X79423000Y-37145000D03*
%TD*%
D24*
%TO.C,J3*%
X60715000Y-90485000D03*
D25*
X53515000Y-90485000D03*
%TD*%
D32*
%TO.C,J10*%
X70486000Y-24953000D03*
D33*
X72986000Y-24953000D03*
X75486000Y-24953000D03*
X77986000Y-24953000D03*
%TD*%
D34*
%TO.C,J12*%
X115745000Y-79335000D03*
D21*
X115745000Y-76835000D03*
%TD*%
D16*
%TO.C,R9*%
X24940000Y-79055000D03*
X22400000Y-79055000D03*
%TD*%
D24*
%TO.C,J4*%
X78495000Y-90485000D03*
D25*
X71295000Y-90485000D03*
%TD*%
D12*
%TO.C,R17*%
X43355000Y-73340000D03*
X38275000Y-73340000D03*
%TD*%
D34*
%TO.C,J19*%
X30020000Y-46670000D03*
D21*
X30020000Y-44170000D03*
%TD*%
D13*
%TO.C,J6*%
X37465000Y-23175000D03*
D14*
X32465000Y-23175000D03*
%TD*%
D13*
%TO.C,J9*%
X44450000Y-33335000D03*
D14*
X39450000Y-33335000D03*
%TD*%
D35*
%TO.C,F1*%
X102918000Y-30160000D03*
D36*
X102918000Y-33563600D03*
X116380000Y-30160000D03*
X116380000Y-33563600D03*
%TD*%
D37*
%TO.C,U3*%
X53515000Y-35875000D03*
D38*
X53515000Y-33335000D03*
X53515000Y-30795000D03*
%TD*%
D12*
%TO.C,R8*%
X103030000Y-73340000D03*
X97950000Y-73340000D03*
%TD*%
M02*
