M48
; DRILL file KiCad 10.0.3-10.0.3~ubuntu26.04.1 date 2026-06-22T17:46:59
; FORMAT={-:-/ absolute / inch / decimal}
; #@! TF.CreationDate,2026-06-22T17:46:59+09:00
; #@! TF.GenerationSoftware,Kicad,Pcbnew,10.0.3-10.0.3~ubuntu26.04.1
; #@! TF.FileFunction,Plated,1,2,PTH
FMAT,2
INCH
; #@! TA.AperFunction,Plated,PTH,ViaDrill
T1C0.0118
; #@! TA.AperFunction,Plated,PTH,ComponentDrill
T2C0.0236
; #@! TA.AperFunction,Plated,PTH,ComponentDrill
T3C0.0281
; #@! TA.AperFunction,Plated,PTH,ComponentDrill
T4C0.0315
; #@! TA.AperFunction,Plated,PTH,ComponentDrill
T5C0.0354
; #@! TA.AperFunction,Plated,PTH,ComponentDrill
T6C0.0433
; #@! TA.AperFunction,Plated,PTH,ComponentDrill
T7C0.0472
; #@! TA.AperFunction,Plated,PTH,ComponentDrill
T8C0.0531
; #@! TA.AperFunction,Plated,PTH,ComponentDrill
T9C0.0787
; #@! TA.AperFunction,Plated,PTH,ComponentDrill
T10C0.0921
; #@! TA.AperFunction,Plated,PTH,ComponentDrill
T11C0.1063
; #@! TA.AperFunction,Plated,PTH,ComponentDrill
T12C0.1772
%
G90
G05
T1
X0.8268Y-2.0472
X0.8268Y-2.4409
X0.8268Y-2.7953
X0.8268Y-3.4646
X0.8661Y-1.6929
X0.9449Y-2.4409
X0.9449Y-2.7165
X0.9843Y-2.0472
X0.9843Y-2.3228
X1.05Y-1.675
X1.063Y-3.4646
X1.7717Y-2.5591
X1.7717Y-2.7559
X1.9685Y-1.1024
X1.9685Y-1.2008
X1.9685Y-2.5591
X1.9685Y-2.7559
X1.9685Y-2.9528
X2.1654Y-2.5591
X2.1654Y-2.7559
X2.3622Y-1.3583
X2.3622Y-2.5591
X2.3622Y-2.7559
X2.3819Y-1.4961
X2.4016Y-1.2008
X2.4606Y-1.3583
X2.5Y-1.4961
X2.5197Y-1.2402
X2.5394Y-1.6535
X2.5591Y-2.5591
X2.5591Y-2.7559
X2.5984Y-0.8268
X2.5984Y-1.752
X2.6575Y-1.5748
X2.6772Y-1.4173
X2.7559Y-1.9685
X2.7559Y-2.3622
X2.7559Y-2.9528
X2.8543Y-1.378
X2.874Y-0.8268
X2.9528Y-1.0827
X2.9528Y-1.7717
X2.9528Y-2.9528
X3.0512Y-1.5748
X3.1496Y-0.8858
X3.1496Y-2.9528
X3.189Y-0.9843
X3.189Y-1.0236
X3.189Y-1.063
X3.189Y-1.1024
X3.189Y-1.1417
X3.189Y-1.1811
X3.189Y-1.2205
X3.189Y-1.2598
X3.1969Y-1.3701
X3.2677Y-1.378
X3.2677Y-1.4173
X3.2677Y-1.4567
X3.3465Y-0.8858
X3.3465Y-0.9843
X3.3465Y-1.0827
X3.3465Y-1.1811
X3.3465Y-1.2598
X3.3465Y-1.2992
X3.3465Y-1.3386
X3.3465Y-2.9528
X3.3858Y-1.2598
X3.3858Y-1.2992
X3.3858Y-1.3386
X3.4252Y-1.2598
X3.4252Y-1.2992
X3.4252Y-1.3386
X3.4449Y-0.8858
X3.4449Y-0.9843
X3.4449Y-1.0827
X3.4449Y-1.1811
X3.5433Y-0.8858
X3.5433Y-0.9843
X3.5433Y-1.0827
X3.5433Y-2.9528
X3.6417Y-0.8858
X3.6417Y-0.9843
X3.6417Y-1.0827
X3.7402Y-0.8858
X3.7402Y-0.9843
X3.7402Y-1.0827
X3.7402Y-2.5591
X3.7402Y-2.7559
X3.7402Y-3.1496
X3.7402Y-3.3465
X3.8386Y-0.8858
X3.8386Y-0.9843
X3.8386Y-1.0827
X3.937Y-0.9843
X3.937Y-1.0827
X3.937Y-1.9685
X3.937Y-2.3622
X3.937Y-2.9528
X3.937Y-3.1496
X3.937Y-3.3465
X3.9567Y-1.4173
X4.0354Y-1.0827
X4.0748Y-1.7717
X4.1339Y-0.9843
X4.1339Y-1.0827
X4.1339Y-2.7559
X4.1339Y-2.9528
X4.1339Y-3.1496
X4.1339Y-3.3465
X4.1339Y-3.5433
X4.1732Y-1.7717
X4.2323Y-0.9843
X4.2323Y-1.0827
X4.2323Y-1.1811
X4.2323Y-1.2795
X4.3307Y-1.0827
X4.3307Y-1.1811
X4.3307Y-1.2795
X4.3307Y-1.378
X4.3307Y-2.9528
X4.3307Y-3.1496
X4.3307Y-3.3465
X4.3307Y-3.5433
X4.4291Y-2.3622
X4.4291Y-2.4606
X4.4291Y-2.5591
X4.5276Y-2.3622
X4.5276Y-2.4606
X4.5276Y-2.5591
X4.5276Y-3.3465
X4.626Y-2.3622
X4.626Y-2.4606
X4.626Y-2.5591
X4.626Y-2.6575
X4.626Y-2.7559
X4.626Y-2.8543
X4.626Y-2.9528
T3
X2.9269Y-1.4624
X3.0269Y-1.3624
X3.1269Y-1.4624
T4
X0.8819Y-2.5374
X0.8819Y-2.6374
X0.8819Y-3.1124
X0.9819Y-3.1124
X2.2821Y-1.1876
X2.2821Y-1.2876
X2.2821Y-1.3876
X2.2821Y-1.4876
X2.4519Y-0.9037
X2.4519Y-0.9824
X2.5821Y-1.1876
X2.5821Y-1.2876
X2.5821Y-1.3876
X2.5821Y-1.4876
X2.7569Y-1.2624
X2.7569Y-1.3411
X2.7869Y-1.4624
X2.7869Y-1.5624
X4.1819Y-0.8624
X4.2819Y-0.8624
T5
X0.8819Y-2.9124
X0.8819Y-3.3124
X0.9819Y-2.9124
X0.9819Y-3.3124
X4.0069Y-0.8624
X4.0069Y-0.9624
T6
X1.1819Y-1.739
X1.1819Y-1.8374
X2.2766Y-1.6874
X2.3667Y-1.6874
X2.4569Y-1.6874
X2.775Y-0.9824
X2.8735Y-0.9824
X2.9719Y-0.9824
X3.0703Y-0.9824
X4.3061Y-2.6141
X4.3061Y-2.7125
X4.5569Y-3.025
X4.5569Y-3.1234
T7
X1.5069Y-2.8874
X1.7069Y-2.8874
X2.0819Y-2.9874
X2.3819Y-2.9874
X3.8563Y-2.8874
X4.0563Y-2.8874
T8
X2.1069Y-1.2124
X2.1069Y-1.3124
X2.1069Y-1.4124
T9
X4.0519Y-1.1874
X4.0519Y-1.3214
X4.5819Y-1.1874
X4.5819Y-1.3214
T10
X1.175Y-2.1874
X1.5069Y-1.8134
X1.5069Y-2.2035
X1.5069Y-2.5185
X1.8388Y-2.1874
X2.3931Y-2.1864
X2.725Y-1.8124
X2.725Y-2.2026
X2.725Y-2.5175
X3.0569Y-2.1864
X3.6069Y-2.1874
X3.9388Y-1.8134
X3.9388Y-2.2035
X3.9388Y-2.5185
X4.2707Y-2.1874
T11
X0.9031Y-1.3124
X1.1Y-1.3124
X1.2781Y-0.9124
X1.475Y-0.9124
X1.5531Y-1.3124
X1.75Y-1.3124
X1.9281Y-0.9124
X2.125Y-0.9124
X3.3984Y-1.4374
X3.6819Y-1.4374
T12
X1.4069Y-3.5624
X1.6904Y-3.5624
X2.1069Y-3.5624
X2.3904Y-3.5624
X2.8069Y-3.5624
X3.0904Y-3.5624
X3.5069Y-3.5624
X3.7904Y-3.5624
T2
G00X3.2744Y-1.1795
M15
G01X3.2744Y-1.2228
M16
G05
G00X3.8059Y-1.1795
M15
G01X3.8059Y-1.2228
M16
G05
M30
