%TF.GenerationSoftware,KiCad,Pcbnew,10.0.3-10.0.3~ubuntu26.04.1*%
%TF.CreationDate,2026-06-22T17:46:59+09:00*%
%TF.ProjectId,PowerUnit_24V,506f7765-7255-46e6-9974-5f3234562e6b,rev?*%
%TF.SameCoordinates,Original*%
%TF.FileFunction,Legend,Bot*%
%TF.FilePolarity,Positive*%
%FSLAX46Y46*%
G04 Gerber Fmt 4.6, Leading zero omitted, Abs format (unit mm)*
G04 Created by KiCad (PCBNEW 10.0.3-10.0.3~ubuntu26.04.1) date 2026-06-22 17:46:59*
%MOMM*%
%LPD*%
G01*
G04 APERTURE LIST*
G04 Aperture macros list*
%AMRoundRect*
0 Rectangle with rounded corners*
0 $1 Rounding radius*
0 $2 $3 $4 $5 $6 $7 $8 $9 X,Y pos of 4 corners*
0 Add a 4 corners polygon primitive as box body*
4,1,4,$2,$3,$4,$5,$6,$7,$8,$9,$2,$3,0*
0 Add four circle primitives for the rounded corners*
1,1,$1+$1,$2,$3*
1,1,$1+$1,$4,$5*
1,1,$1+$1,$6,$7*
1,1,$1+$1,$8,$9*
0 Add four rect primitives between the rounded corners*
20,1,$1+$1,$2,$3,$4,$5,0*
20,1,$1+$1,$4,$5,$6,$7,0*
20,1,$1+$1,$6,$7,$8,$9,0*
20,1,$1+$1,$8,$9,$2,$3,0*%
%AMFreePoly0*
4,1,5,1.550000,-2.000000,-1.550000,-2.000000,-1.550000,2.000000,1.550000,2.000000,1.550000,-2.000000,1.550000,-2.000000,$1*%
%AMFreePoly1*
4,1,5,0.125000,-0.125000,-0.125000,-0.125000,-0.125000,0.125000,0.125000,0.125000,0.125000,-0.125000,0.125000,-0.125000,$1*%
G04 Aperture macros list end*
%ADD10C,0.100000*%
%ADD11C,0.300000*%
%ADD12C,0.150000*%
%ADD13C,0.120000*%
%ADD14C,0.000000*%
%ADD15C,3.200000*%
%ADD16R,1.717500X1.800000*%
%ADD17O,1.717500X1.800000*%
%ADD18C,2.400000*%
%ADD19RoundRect,0.760000X1.140000X1.140000X-1.140000X1.140000X-1.140000X-1.140000X1.140000X-1.140000X0*%
%ADD20C,4.000000*%
%ADD21RoundRect,0.250000X-0.550000X0.550000X-0.550000X-0.550000X0.550000X-0.550000X0.550000X0.550000X0*%
%ADD22C,1.600000*%
%ADD23C,2.110000*%
%ADD24C,3.510000*%
%ADD25R,3.510000X3.510000*%
%ADD26RoundRect,0.250000X0.550000X-0.550000X0.550000X0.550000X-0.550000X0.550000X-0.550000X-0.550000X0*%
%ADD27RoundRect,0.450000X-0.950000X0.450000X-0.950000X-0.450000X0.950000X-0.450000X0.950000X0.450000X0*%
%ADD28O,2.800000X1.800000*%
%ADD29R,1.800000X1.800000*%
%ADD30C,1.800000*%
%ADD31RoundRect,1.500000X1.500000X1.500000X-1.500000X1.500000X-1.500000X-1.500000X1.500000X-1.500000X0*%
%ADD32C,6.000000*%
%ADD33R,0.900000X2.000000*%
%ADD34RoundRect,1.025000X-1.025000X-1.025000X1.025000X-1.025000X1.025000X1.025000X-1.025000X1.025000X0*%
%ADD35C,4.100000*%
%ADD36RoundRect,0.250000X-0.550000X-0.550000X0.550000X-0.550000X0.550000X0.550000X-0.550000X0.550000X0*%
%ADD37RoundRect,0.102000X-0.611000X-0.611000X0.611000X-0.611000X0.611000X0.611000X-0.611000X0.611000X0*%
%ADD38C,1.426000*%
%ADD39RoundRect,0.450000X-0.450000X-0.950000X0.450000X-0.950000X0.450000X0.950000X-0.450000X0.950000X0*%
%ADD40O,1.800000X2.800000*%
%ADD41RoundRect,0.450000X0.950000X-0.450000X0.950000X0.450000X-0.950000X0.450000X-0.950000X-0.450000X0*%
%ADD42C,2.200000*%
%ADD43R,2.700000X2.700000*%
%ADD44C,2.700000*%
%ADD45R,2.025000X2.025000*%
%ADD46C,2.025000*%
%ADD47RoundRect,0.200000X0.200000X0.275000X-0.200000X0.275000X-0.200000X-0.275000X0.200000X-0.275000X0*%
%ADD48RoundRect,0.225000X0.225000X0.250000X-0.225000X0.250000X-0.225000X-0.250000X0.225000X-0.250000X0*%
%ADD49RoundRect,0.250000X0.475000X-0.250000X0.475000X0.250000X-0.475000X0.250000X-0.475000X-0.250000X0*%
%ADD50RoundRect,0.225000X-0.250000X0.225000X-0.250000X-0.225000X0.250000X-0.225000X0.250000X0.225000X0*%
%ADD51RoundRect,0.225000X-0.225000X-0.250000X0.225000X-0.250000X0.225000X0.250000X-0.225000X0.250000X0*%
%ADD52RoundRect,0.200000X-0.200000X-0.275000X0.200000X-0.275000X0.200000X0.275000X-0.200000X0.275000X0*%
%ADD53FreePoly0,90.000000*%
%ADD54FreePoly1,90.000000*%
%ADD55RoundRect,0.250000X0.312500X0.625000X-0.312500X0.625000X-0.312500X-0.625000X0.312500X-0.625000X0*%
%ADD56RoundRect,0.250000X-0.262500X-0.450000X0.262500X-0.450000X0.262500X0.450000X-0.262500X0.450000X0*%
%ADD57RoundRect,0.075000X0.075000X-0.650000X0.075000X0.650000X-0.075000X0.650000X-0.075000X-0.650000X0*%
G04 APERTURE END LIST*
D10*
X103700000Y-42400000D02*
X106300000Y-42400000D01*
X103700000Y-43200000D02*
X103700000Y-42400000D01*
X106300000Y-42400000D02*
X106800000Y-41700000D01*
X108000000Y-32625000D02*
X110750000Y-32625000D01*
X110750000Y-35875000D01*
X108000000Y-35875000D01*
X108000000Y-32625000D01*
X108000000Y-36250000D02*
X111250000Y-36250000D01*
X111250000Y-40169500D01*
X108000000Y-40169500D01*
X108000000Y-36250000D01*
X109625000Y-36250000D02*
X109625000Y-35875000D01*
D11*
X66016917Y-64698685D02*
X65945489Y-64627257D01*
X65945489Y-64627257D02*
X65802632Y-64555828D01*
X65802632Y-64555828D02*
X65445489Y-64555828D01*
X65445489Y-64555828D02*
X65302632Y-64627257D01*
X65302632Y-64627257D02*
X65231203Y-64698685D01*
X65231203Y-64698685D02*
X65159774Y-64841542D01*
X65159774Y-64841542D02*
X65159774Y-64984400D01*
X65159774Y-64984400D02*
X65231203Y-65198685D01*
X65231203Y-65198685D02*
X66088346Y-66055828D01*
X66088346Y-66055828D02*
X65159774Y-66055828D01*
X64231203Y-64555828D02*
X64088346Y-64555828D01*
X64088346Y-64555828D02*
X63945489Y-64627257D01*
X63945489Y-64627257D02*
X63874061Y-64698685D01*
X63874061Y-64698685D02*
X63802632Y-64841542D01*
X63802632Y-64841542D02*
X63731203Y-65127257D01*
X63731203Y-65127257D02*
X63731203Y-65484400D01*
X63731203Y-65484400D02*
X63802632Y-65770114D01*
X63802632Y-65770114D02*
X63874061Y-65912971D01*
X63874061Y-65912971D02*
X63945489Y-65984400D01*
X63945489Y-65984400D02*
X64088346Y-66055828D01*
X64088346Y-66055828D02*
X64231203Y-66055828D01*
X64231203Y-66055828D02*
X64374061Y-65984400D01*
X64374061Y-65984400D02*
X64445489Y-65912971D01*
X64445489Y-65912971D02*
X64516918Y-65770114D01*
X64516918Y-65770114D02*
X64588346Y-65484400D01*
X64588346Y-65484400D02*
X64588346Y-65127257D01*
X64588346Y-65127257D02*
X64516918Y-64841542D01*
X64516918Y-64841542D02*
X64445489Y-64698685D01*
X64445489Y-64698685D02*
X64374061Y-64627257D01*
X64374061Y-64627257D02*
X64231203Y-64555828D01*
X63159775Y-64698685D02*
X63088347Y-64627257D01*
X63088347Y-64627257D02*
X62945490Y-64555828D01*
X62945490Y-64555828D02*
X62588347Y-64555828D01*
X62588347Y-64555828D02*
X62445490Y-64627257D01*
X62445490Y-64627257D02*
X62374061Y-64698685D01*
X62374061Y-64698685D02*
X62302632Y-64841542D01*
X62302632Y-64841542D02*
X62302632Y-64984400D01*
X62302632Y-64984400D02*
X62374061Y-65198685D01*
X62374061Y-65198685D02*
X63231204Y-66055828D01*
X63231204Y-66055828D02*
X62302632Y-66055828D01*
X61016919Y-64555828D02*
X61302633Y-64555828D01*
X61302633Y-64555828D02*
X61445490Y-64627257D01*
X61445490Y-64627257D02*
X61516919Y-64698685D01*
X61516919Y-64698685D02*
X61659776Y-64912971D01*
X61659776Y-64912971D02*
X61731204Y-65198685D01*
X61731204Y-65198685D02*
X61731204Y-65770114D01*
X61731204Y-65770114D02*
X61659776Y-65912971D01*
X61659776Y-65912971D02*
X61588347Y-65984400D01*
X61588347Y-65984400D02*
X61445490Y-66055828D01*
X61445490Y-66055828D02*
X61159776Y-66055828D01*
X61159776Y-66055828D02*
X61016919Y-65984400D01*
X61016919Y-65984400D02*
X60945490Y-65912971D01*
X60945490Y-65912971D02*
X60874061Y-65770114D01*
X60874061Y-65770114D02*
X60874061Y-65412971D01*
X60874061Y-65412971D02*
X60945490Y-65270114D01*
X60945490Y-65270114D02*
X61016919Y-65198685D01*
X61016919Y-65198685D02*
X61159776Y-65127257D01*
X61159776Y-65127257D02*
X61445490Y-65127257D01*
X61445490Y-65127257D02*
X61588347Y-65198685D01*
X61588347Y-65198685D02*
X61659776Y-65270114D01*
X61659776Y-65270114D02*
X61731204Y-65412971D01*
X59159776Y-64484400D02*
X60445490Y-66412971D01*
X58374061Y-64555828D02*
X58231204Y-64555828D01*
X58231204Y-64555828D02*
X58088347Y-64627257D01*
X58088347Y-64627257D02*
X58016919Y-64698685D01*
X58016919Y-64698685D02*
X57945490Y-64841542D01*
X57945490Y-64841542D02*
X57874061Y-65127257D01*
X57874061Y-65127257D02*
X57874061Y-65484400D01*
X57874061Y-65484400D02*
X57945490Y-65770114D01*
X57945490Y-65770114D02*
X58016919Y-65912971D01*
X58016919Y-65912971D02*
X58088347Y-65984400D01*
X58088347Y-65984400D02*
X58231204Y-66055828D01*
X58231204Y-66055828D02*
X58374061Y-66055828D01*
X58374061Y-66055828D02*
X58516919Y-65984400D01*
X58516919Y-65984400D02*
X58588347Y-65912971D01*
X58588347Y-65912971D02*
X58659776Y-65770114D01*
X58659776Y-65770114D02*
X58731204Y-65484400D01*
X58731204Y-65484400D02*
X58731204Y-65127257D01*
X58731204Y-65127257D02*
X58659776Y-64841542D01*
X58659776Y-64841542D02*
X58588347Y-64698685D01*
X58588347Y-64698685D02*
X58516919Y-64627257D01*
X58516919Y-64627257D02*
X58374061Y-64555828D01*
X56588348Y-64555828D02*
X56874062Y-64555828D01*
X56874062Y-64555828D02*
X57016919Y-64627257D01*
X57016919Y-64627257D02*
X57088348Y-64698685D01*
X57088348Y-64698685D02*
X57231205Y-64912971D01*
X57231205Y-64912971D02*
X57302633Y-65198685D01*
X57302633Y-65198685D02*
X57302633Y-65770114D01*
X57302633Y-65770114D02*
X57231205Y-65912971D01*
X57231205Y-65912971D02*
X57159776Y-65984400D01*
X57159776Y-65984400D02*
X57016919Y-66055828D01*
X57016919Y-66055828D02*
X56731205Y-66055828D01*
X56731205Y-66055828D02*
X56588348Y-65984400D01*
X56588348Y-65984400D02*
X56516919Y-65912971D01*
X56516919Y-65912971D02*
X56445490Y-65770114D01*
X56445490Y-65770114D02*
X56445490Y-65412971D01*
X56445490Y-65412971D02*
X56516919Y-65270114D01*
X56516919Y-65270114D02*
X56588348Y-65198685D01*
X56588348Y-65198685D02*
X56731205Y-65127257D01*
X56731205Y-65127257D02*
X57016919Y-65127257D01*
X57016919Y-65127257D02*
X57159776Y-65198685D01*
X57159776Y-65198685D02*
X57231205Y-65270114D01*
X57231205Y-65270114D02*
X57302633Y-65412971D01*
X54731205Y-64484400D02*
X56016919Y-66412971D01*
X53445490Y-66055828D02*
X54302633Y-66055828D01*
X53874062Y-66055828D02*
X53874062Y-64555828D01*
X53874062Y-64555828D02*
X54016919Y-64770114D01*
X54016919Y-64770114D02*
X54159776Y-64912971D01*
X54159776Y-64912971D02*
X54302633Y-64984400D01*
X52731205Y-66055828D02*
X52445491Y-66055828D01*
X52445491Y-66055828D02*
X52302634Y-65984400D01*
X52302634Y-65984400D02*
X52231205Y-65912971D01*
X52231205Y-65912971D02*
X52088348Y-65698685D01*
X52088348Y-65698685D02*
X52016919Y-65412971D01*
X52016919Y-65412971D02*
X52016919Y-64841542D01*
X52016919Y-64841542D02*
X52088348Y-64698685D01*
X52088348Y-64698685D02*
X52159777Y-64627257D01*
X52159777Y-64627257D02*
X52302634Y-64555828D01*
X52302634Y-64555828D02*
X52588348Y-64555828D01*
X52588348Y-64555828D02*
X52731205Y-64627257D01*
X52731205Y-64627257D02*
X52802634Y-64698685D01*
X52802634Y-64698685D02*
X52874062Y-64841542D01*
X52874062Y-64841542D02*
X52874062Y-65198685D01*
X52874062Y-65198685D02*
X52802634Y-65341542D01*
X52802634Y-65341542D02*
X52731205Y-65412971D01*
X52731205Y-65412971D02*
X52588348Y-65484400D01*
X52588348Y-65484400D02*
X52302634Y-65484400D01*
X52302634Y-65484400D02*
X52159777Y-65412971D01*
X52159777Y-65412971D02*
X52088348Y-65341542D01*
X52088348Y-65341542D02*
X52016919Y-65198685D01*
X65945489Y-68470744D02*
X65945489Y-66970744D01*
X65945489Y-66970744D02*
X65588346Y-66970744D01*
X65588346Y-66970744D02*
X65374060Y-67042173D01*
X65374060Y-67042173D02*
X65231203Y-67185030D01*
X65231203Y-67185030D02*
X65159774Y-67327887D01*
X65159774Y-67327887D02*
X65088346Y-67613601D01*
X65088346Y-67613601D02*
X65088346Y-67827887D01*
X65088346Y-67827887D02*
X65159774Y-68113601D01*
X65159774Y-68113601D02*
X65231203Y-68256458D01*
X65231203Y-68256458D02*
X65374060Y-68399316D01*
X65374060Y-68399316D02*
X65588346Y-68470744D01*
X65588346Y-68470744D02*
X65945489Y-68470744D01*
X63874060Y-68399316D02*
X64016917Y-68470744D01*
X64016917Y-68470744D02*
X64302632Y-68470744D01*
X64302632Y-68470744D02*
X64445489Y-68399316D01*
X64445489Y-68399316D02*
X64516917Y-68256458D01*
X64516917Y-68256458D02*
X64516917Y-67685030D01*
X64516917Y-67685030D02*
X64445489Y-67542173D01*
X64445489Y-67542173D02*
X64302632Y-67470744D01*
X64302632Y-67470744D02*
X64016917Y-67470744D01*
X64016917Y-67470744D02*
X63874060Y-67542173D01*
X63874060Y-67542173D02*
X63802632Y-67685030D01*
X63802632Y-67685030D02*
X63802632Y-67827887D01*
X63802632Y-67827887D02*
X64516917Y-67970744D01*
X63231203Y-68399316D02*
X63088346Y-68470744D01*
X63088346Y-68470744D02*
X62802632Y-68470744D01*
X62802632Y-68470744D02*
X62659775Y-68399316D01*
X62659775Y-68399316D02*
X62588346Y-68256458D01*
X62588346Y-68256458D02*
X62588346Y-68185030D01*
X62588346Y-68185030D02*
X62659775Y-68042173D01*
X62659775Y-68042173D02*
X62802632Y-67970744D01*
X62802632Y-67970744D02*
X63016918Y-67970744D01*
X63016918Y-67970744D02*
X63159775Y-67899316D01*
X63159775Y-67899316D02*
X63231203Y-67756458D01*
X63231203Y-67756458D02*
X63231203Y-67685030D01*
X63231203Y-67685030D02*
X63159775Y-67542173D01*
X63159775Y-67542173D02*
X63016918Y-67470744D01*
X63016918Y-67470744D02*
X62802632Y-67470744D01*
X62802632Y-67470744D02*
X62659775Y-67542173D01*
X61945489Y-68470744D02*
X61945489Y-67470744D01*
X61945489Y-66970744D02*
X62016917Y-67042173D01*
X62016917Y-67042173D02*
X61945489Y-67113601D01*
X61945489Y-67113601D02*
X61874060Y-67042173D01*
X61874060Y-67042173D02*
X61945489Y-66970744D01*
X61945489Y-66970744D02*
X61945489Y-67113601D01*
X60588346Y-67470744D02*
X60588346Y-68685030D01*
X60588346Y-68685030D02*
X60659774Y-68827887D01*
X60659774Y-68827887D02*
X60731203Y-68899316D01*
X60731203Y-68899316D02*
X60874060Y-68970744D01*
X60874060Y-68970744D02*
X61088346Y-68970744D01*
X61088346Y-68970744D02*
X61231203Y-68899316D01*
X60588346Y-68399316D02*
X60731203Y-68470744D01*
X60731203Y-68470744D02*
X61016917Y-68470744D01*
X61016917Y-68470744D02*
X61159774Y-68399316D01*
X61159774Y-68399316D02*
X61231203Y-68327887D01*
X61231203Y-68327887D02*
X61302631Y-68185030D01*
X61302631Y-68185030D02*
X61302631Y-67756458D01*
X61302631Y-67756458D02*
X61231203Y-67613601D01*
X61231203Y-67613601D02*
X61159774Y-67542173D01*
X61159774Y-67542173D02*
X61016917Y-67470744D01*
X61016917Y-67470744D02*
X60731203Y-67470744D01*
X60731203Y-67470744D02*
X60588346Y-67542173D01*
X59874060Y-67470744D02*
X59874060Y-68470744D01*
X59874060Y-67613601D02*
X59802631Y-67542173D01*
X59802631Y-67542173D02*
X59659774Y-67470744D01*
X59659774Y-67470744D02*
X59445488Y-67470744D01*
X59445488Y-67470744D02*
X59302631Y-67542173D01*
X59302631Y-67542173D02*
X59231203Y-67685030D01*
X59231203Y-67685030D02*
X59231203Y-68470744D01*
X57945488Y-68399316D02*
X58088345Y-68470744D01*
X58088345Y-68470744D02*
X58374060Y-68470744D01*
X58374060Y-68470744D02*
X58516917Y-68399316D01*
X58516917Y-68399316D02*
X58588345Y-68256458D01*
X58588345Y-68256458D02*
X58588345Y-67685030D01*
X58588345Y-67685030D02*
X58516917Y-67542173D01*
X58516917Y-67542173D02*
X58374060Y-67470744D01*
X58374060Y-67470744D02*
X58088345Y-67470744D01*
X58088345Y-67470744D02*
X57945488Y-67542173D01*
X57945488Y-67542173D02*
X57874060Y-67685030D01*
X57874060Y-67685030D02*
X57874060Y-67827887D01*
X57874060Y-67827887D02*
X58588345Y-67970744D01*
X56588346Y-68470744D02*
X56588346Y-66970744D01*
X56588346Y-68399316D02*
X56731203Y-68470744D01*
X56731203Y-68470744D02*
X57016917Y-68470744D01*
X57016917Y-68470744D02*
X57159774Y-68399316D01*
X57159774Y-68399316D02*
X57231203Y-68327887D01*
X57231203Y-68327887D02*
X57302631Y-68185030D01*
X57302631Y-68185030D02*
X57302631Y-67756458D01*
X57302631Y-67756458D02*
X57231203Y-67613601D01*
X57231203Y-67613601D02*
X57159774Y-67542173D01*
X57159774Y-67542173D02*
X57016917Y-67470744D01*
X57016917Y-67470744D02*
X56731203Y-67470744D01*
X56731203Y-67470744D02*
X56588346Y-67542173D01*
X54731203Y-68470744D02*
X54731203Y-66970744D01*
X54731203Y-67542173D02*
X54588346Y-67470744D01*
X54588346Y-67470744D02*
X54302631Y-67470744D01*
X54302631Y-67470744D02*
X54159774Y-67542173D01*
X54159774Y-67542173D02*
X54088346Y-67613601D01*
X54088346Y-67613601D02*
X54016917Y-67756458D01*
X54016917Y-67756458D02*
X54016917Y-68185030D01*
X54016917Y-68185030D02*
X54088346Y-68327887D01*
X54088346Y-68327887D02*
X54159774Y-68399316D01*
X54159774Y-68399316D02*
X54302631Y-68470744D01*
X54302631Y-68470744D02*
X54588346Y-68470744D01*
X54588346Y-68470744D02*
X54731203Y-68399316D01*
X53516917Y-67470744D02*
X53159774Y-68470744D01*
X52802631Y-67470744D02*
X53159774Y-68470744D01*
X53159774Y-68470744D02*
X53302631Y-68827887D01*
X53302631Y-68827887D02*
X53374060Y-68899316D01*
X53374060Y-68899316D02*
X53516917Y-68970744D01*
X51088346Y-67685030D02*
X50588346Y-67685030D01*
X50374060Y-68470744D02*
X51088346Y-68470744D01*
X51088346Y-68470744D02*
X51088346Y-66970744D01*
X51088346Y-66970744D02*
X50374060Y-66970744D01*
X49731203Y-68327887D02*
X49659774Y-68399316D01*
X49659774Y-68399316D02*
X49731203Y-68470744D01*
X49731203Y-68470744D02*
X49802631Y-68399316D01*
X49802631Y-68399316D02*
X49731203Y-68327887D01*
X49731203Y-68327887D02*
X49731203Y-68470744D01*
X48731202Y-67756458D02*
X48731202Y-68470744D01*
X49231202Y-66970744D02*
X48731202Y-67756458D01*
X48731202Y-67756458D02*
X48231202Y-66970744D01*
X47516917Y-68470744D02*
X47659774Y-68399316D01*
X47659774Y-68399316D02*
X47731203Y-68327887D01*
X47731203Y-68327887D02*
X47802631Y-68185030D01*
X47802631Y-68185030D02*
X47802631Y-67756458D01*
X47802631Y-67756458D02*
X47731203Y-67613601D01*
X47731203Y-67613601D02*
X47659774Y-67542173D01*
X47659774Y-67542173D02*
X47516917Y-67470744D01*
X47516917Y-67470744D02*
X47302631Y-67470744D01*
X47302631Y-67470744D02*
X47159774Y-67542173D01*
X47159774Y-67542173D02*
X47088346Y-67613601D01*
X47088346Y-67613601D02*
X47016917Y-67756458D01*
X47016917Y-67756458D02*
X47016917Y-68185030D01*
X47016917Y-68185030D02*
X47088346Y-68327887D01*
X47088346Y-68327887D02*
X47159774Y-68399316D01*
X47159774Y-68399316D02*
X47302631Y-68470744D01*
X47302631Y-68470744D02*
X47516917Y-68470744D01*
X46445488Y-68399316D02*
X46302631Y-68470744D01*
X46302631Y-68470744D02*
X46016917Y-68470744D01*
X46016917Y-68470744D02*
X45874060Y-68399316D01*
X45874060Y-68399316D02*
X45802631Y-68256458D01*
X45802631Y-68256458D02*
X45802631Y-68185030D01*
X45802631Y-68185030D02*
X45874060Y-68042173D01*
X45874060Y-68042173D02*
X46016917Y-67970744D01*
X46016917Y-67970744D02*
X46231203Y-67970744D01*
X46231203Y-67970744D02*
X46374060Y-67899316D01*
X46374060Y-67899316D02*
X46445488Y-67756458D01*
X46445488Y-67756458D02*
X46445488Y-67685030D01*
X46445488Y-67685030D02*
X46374060Y-67542173D01*
X46374060Y-67542173D02*
X46231203Y-67470744D01*
X46231203Y-67470744D02*
X46016917Y-67470744D01*
X46016917Y-67470744D02*
X45874060Y-67542173D01*
X45159774Y-68470744D02*
X45159774Y-66970744D01*
X44516917Y-68470744D02*
X44516917Y-67685030D01*
X44516917Y-67685030D02*
X44588345Y-67542173D01*
X44588345Y-67542173D02*
X44731202Y-67470744D01*
X44731202Y-67470744D02*
X44945488Y-67470744D01*
X44945488Y-67470744D02*
X45088345Y-67542173D01*
X45088345Y-67542173D02*
X45159774Y-67613601D01*
X43802631Y-68470744D02*
X43802631Y-67470744D01*
X43802631Y-66970744D02*
X43874059Y-67042173D01*
X43874059Y-67042173D02*
X43802631Y-67113601D01*
X43802631Y-67113601D02*
X43731202Y-67042173D01*
X43731202Y-67042173D02*
X43802631Y-66970744D01*
X43802631Y-66970744D02*
X43802631Y-67113601D01*
X42874059Y-68470744D02*
X43016916Y-68399316D01*
X43016916Y-68399316D02*
X43088345Y-68327887D01*
X43088345Y-68327887D02*
X43159773Y-68185030D01*
X43159773Y-68185030D02*
X43159773Y-67756458D01*
X43159773Y-67756458D02*
X43088345Y-67613601D01*
X43088345Y-67613601D02*
X43016916Y-67542173D01*
X43016916Y-67542173D02*
X42874059Y-67470744D01*
X42874059Y-67470744D02*
X42659773Y-67470744D01*
X42659773Y-67470744D02*
X42516916Y-67542173D01*
X42516916Y-67542173D02*
X42445488Y-67613601D01*
X42445488Y-67613601D02*
X42374059Y-67756458D01*
X42374059Y-67756458D02*
X42374059Y-68185030D01*
X42374059Y-68185030D02*
X42445488Y-68327887D01*
X42445488Y-68327887D02*
X42516916Y-68399316D01*
X42516916Y-68399316D02*
X42659773Y-68470744D01*
X42659773Y-68470744D02*
X42874059Y-68470744D01*
X41731202Y-68470744D02*
X41731202Y-66970744D01*
X41588345Y-67899316D02*
X41159773Y-68470744D01*
X41159773Y-67470744D02*
X41731202Y-68042173D01*
X39874059Y-68470744D02*
X39874059Y-67685030D01*
X39874059Y-67685030D02*
X39945487Y-67542173D01*
X39945487Y-67542173D02*
X40088344Y-67470744D01*
X40088344Y-67470744D02*
X40374059Y-67470744D01*
X40374059Y-67470744D02*
X40516916Y-67542173D01*
X39874059Y-68399316D02*
X40016916Y-68470744D01*
X40016916Y-68470744D02*
X40374059Y-68470744D01*
X40374059Y-68470744D02*
X40516916Y-68399316D01*
X40516916Y-68399316D02*
X40588344Y-68256458D01*
X40588344Y-68256458D02*
X40588344Y-68113601D01*
X40588344Y-68113601D02*
X40516916Y-67970744D01*
X40516916Y-67970744D02*
X40374059Y-67899316D01*
X40374059Y-67899316D02*
X40016916Y-67899316D01*
X40016916Y-67899316D02*
X39874059Y-67827887D01*
X66088346Y-72300576D02*
X65731203Y-73300576D01*
X65731203Y-73300576D02*
X65374060Y-72300576D01*
X64231203Y-73229148D02*
X64374060Y-73300576D01*
X64374060Y-73300576D02*
X64659775Y-73300576D01*
X64659775Y-73300576D02*
X64802632Y-73229148D01*
X64802632Y-73229148D02*
X64874060Y-73086290D01*
X64874060Y-73086290D02*
X64874060Y-72514862D01*
X64874060Y-72514862D02*
X64802632Y-72372005D01*
X64802632Y-72372005D02*
X64659775Y-72300576D01*
X64659775Y-72300576D02*
X64374060Y-72300576D01*
X64374060Y-72300576D02*
X64231203Y-72372005D01*
X64231203Y-72372005D02*
X64159775Y-72514862D01*
X64159775Y-72514862D02*
X64159775Y-72657719D01*
X64159775Y-72657719D02*
X64874060Y-72800576D01*
X63516918Y-73300576D02*
X63516918Y-72300576D01*
X63516918Y-72586290D02*
X63445489Y-72443433D01*
X63445489Y-72443433D02*
X63374061Y-72372005D01*
X63374061Y-72372005D02*
X63231203Y-72300576D01*
X63231203Y-72300576D02*
X63088346Y-72300576D01*
X60659775Y-73300576D02*
X61516918Y-73300576D01*
X61088347Y-73300576D02*
X61088347Y-71800576D01*
X61088347Y-71800576D02*
X61231204Y-72014862D01*
X61231204Y-72014862D02*
X61374061Y-72157719D01*
X61374061Y-72157719D02*
X61516918Y-72229148D01*
X60016919Y-73157719D02*
X59945490Y-73229148D01*
X59945490Y-73229148D02*
X60016919Y-73300576D01*
X60016919Y-73300576D02*
X60088347Y-73229148D01*
X60088347Y-73229148D02*
X60016919Y-73157719D01*
X60016919Y-73157719D02*
X60016919Y-73300576D01*
X59016918Y-71800576D02*
X58874061Y-71800576D01*
X58874061Y-71800576D02*
X58731204Y-71872005D01*
X58731204Y-71872005D02*
X58659776Y-71943433D01*
X58659776Y-71943433D02*
X58588347Y-72086290D01*
X58588347Y-72086290D02*
X58516918Y-72372005D01*
X58516918Y-72372005D02*
X58516918Y-72729148D01*
X58516918Y-72729148D02*
X58588347Y-73014862D01*
X58588347Y-73014862D02*
X58659776Y-73157719D01*
X58659776Y-73157719D02*
X58731204Y-73229148D01*
X58731204Y-73229148D02*
X58874061Y-73300576D01*
X58874061Y-73300576D02*
X59016918Y-73300576D01*
X59016918Y-73300576D02*
X59159776Y-73229148D01*
X59159776Y-73229148D02*
X59231204Y-73157719D01*
X59231204Y-73157719D02*
X59302633Y-73014862D01*
X59302633Y-73014862D02*
X59374061Y-72729148D01*
X59374061Y-72729148D02*
X59374061Y-72372005D01*
X59374061Y-72372005D02*
X59302633Y-72086290D01*
X59302633Y-72086290D02*
X59231204Y-71943433D01*
X59231204Y-71943433D02*
X59159776Y-71872005D01*
X59159776Y-71872005D02*
X59016918Y-71800576D01*
D12*
X109692666Y-35450819D02*
X110025999Y-34974628D01*
X110264094Y-35450819D02*
X110264094Y-34450819D01*
X110264094Y-34450819D02*
X109883142Y-34450819D01*
X109883142Y-34450819D02*
X109787904Y-34498438D01*
X109787904Y-34498438D02*
X109740285Y-34546057D01*
X109740285Y-34546057D02*
X109692666Y-34641295D01*
X109692666Y-34641295D02*
X109692666Y-34784152D01*
X109692666Y-34784152D02*
X109740285Y-34879390D01*
X109740285Y-34879390D02*
X109787904Y-34927009D01*
X109787904Y-34927009D02*
X109883142Y-34974628D01*
X109883142Y-34974628D02*
X110264094Y-34974628D01*
X108835523Y-34450819D02*
X109025999Y-34450819D01*
X109025999Y-34450819D02*
X109121237Y-34498438D01*
X109121237Y-34498438D02*
X109168856Y-34546057D01*
X109168856Y-34546057D02*
X109264094Y-34688914D01*
X109264094Y-34688914D02*
X109311713Y-34879390D01*
X109311713Y-34879390D02*
X109311713Y-35260342D01*
X109311713Y-35260342D02*
X109264094Y-35355580D01*
X109264094Y-35355580D02*
X109216475Y-35403200D01*
X109216475Y-35403200D02*
X109121237Y-35450819D01*
X109121237Y-35450819D02*
X108930761Y-35450819D01*
X108930761Y-35450819D02*
X108835523Y-35403200D01*
X108835523Y-35403200D02*
X108787904Y-35355580D01*
X108787904Y-35355580D02*
X108740285Y-35260342D01*
X108740285Y-35260342D02*
X108740285Y-35022247D01*
X108740285Y-35022247D02*
X108787904Y-34927009D01*
X108787904Y-34927009D02*
X108835523Y-34879390D01*
X108835523Y-34879390D02*
X108930761Y-34831771D01*
X108930761Y-34831771D02*
X109121237Y-34831771D01*
X109121237Y-34831771D02*
X109216475Y-34879390D01*
X109216475Y-34879390D02*
X109264094Y-34927009D01*
X109264094Y-34927009D02*
X109311713Y-35022247D01*
X50347857Y-28614580D02*
X50395476Y-28662200D01*
X50395476Y-28662200D02*
X50538333Y-28709819D01*
X50538333Y-28709819D02*
X50633571Y-28709819D01*
X50633571Y-28709819D02*
X50776428Y-28662200D01*
X50776428Y-28662200D02*
X50871666Y-28566961D01*
X50871666Y-28566961D02*
X50919285Y-28471723D01*
X50919285Y-28471723D02*
X50966904Y-28281247D01*
X50966904Y-28281247D02*
X50966904Y-28138390D01*
X50966904Y-28138390D02*
X50919285Y-27947914D01*
X50919285Y-27947914D02*
X50871666Y-27852676D01*
X50871666Y-27852676D02*
X50776428Y-27757438D01*
X50776428Y-27757438D02*
X50633571Y-27709819D01*
X50633571Y-27709819D02*
X50538333Y-27709819D01*
X50538333Y-27709819D02*
X50395476Y-27757438D01*
X50395476Y-27757438D02*
X50347857Y-27805057D01*
X49395476Y-28709819D02*
X49966904Y-28709819D01*
X49681190Y-28709819D02*
X49681190Y-27709819D01*
X49681190Y-27709819D02*
X49776428Y-27852676D01*
X49776428Y-27852676D02*
X49871666Y-27947914D01*
X49871666Y-27947914D02*
X49966904Y-27995533D01*
X49062142Y-27709819D02*
X48395476Y-27709819D01*
X48395476Y-27709819D02*
X48824047Y-28709819D01*
X49334580Y-32827142D02*
X49382200Y-32779523D01*
X49382200Y-32779523D02*
X49429819Y-32636666D01*
X49429819Y-32636666D02*
X49429819Y-32541428D01*
X49429819Y-32541428D02*
X49382200Y-32398571D01*
X49382200Y-32398571D02*
X49286961Y-32303333D01*
X49286961Y-32303333D02*
X49191723Y-32255714D01*
X49191723Y-32255714D02*
X49001247Y-32208095D01*
X49001247Y-32208095D02*
X48858390Y-32208095D01*
X48858390Y-32208095D02*
X48667914Y-32255714D01*
X48667914Y-32255714D02*
X48572676Y-32303333D01*
X48572676Y-32303333D02*
X48477438Y-32398571D01*
X48477438Y-32398571D02*
X48429819Y-32541428D01*
X48429819Y-32541428D02*
X48429819Y-32636666D01*
X48429819Y-32636666D02*
X48477438Y-32779523D01*
X48477438Y-32779523D02*
X48525057Y-32827142D01*
X49429819Y-33779523D02*
X49429819Y-33208095D01*
X49429819Y-33493809D02*
X48429819Y-33493809D01*
X48429819Y-33493809D02*
X48572676Y-33398571D01*
X48572676Y-33398571D02*
X48667914Y-33303333D01*
X48667914Y-33303333D02*
X48715533Y-33208095D01*
X48858390Y-34350952D02*
X48810771Y-34255714D01*
X48810771Y-34255714D02*
X48763152Y-34208095D01*
X48763152Y-34208095D02*
X48667914Y-34160476D01*
X48667914Y-34160476D02*
X48620295Y-34160476D01*
X48620295Y-34160476D02*
X48525057Y-34208095D01*
X48525057Y-34208095D02*
X48477438Y-34255714D01*
X48477438Y-34255714D02*
X48429819Y-34350952D01*
X48429819Y-34350952D02*
X48429819Y-34541428D01*
X48429819Y-34541428D02*
X48477438Y-34636666D01*
X48477438Y-34636666D02*
X48525057Y-34684285D01*
X48525057Y-34684285D02*
X48620295Y-34731904D01*
X48620295Y-34731904D02*
X48667914Y-34731904D01*
X48667914Y-34731904D02*
X48763152Y-34684285D01*
X48763152Y-34684285D02*
X48810771Y-34636666D01*
X48810771Y-34636666D02*
X48858390Y-34541428D01*
X48858390Y-34541428D02*
X48858390Y-34350952D01*
X48858390Y-34350952D02*
X48906009Y-34255714D01*
X48906009Y-34255714D02*
X48953628Y-34208095D01*
X48953628Y-34208095D02*
X49048866Y-34160476D01*
X49048866Y-34160476D02*
X49239342Y-34160476D01*
X49239342Y-34160476D02*
X49334580Y-34208095D01*
X49334580Y-34208095D02*
X49382200Y-34255714D01*
X49382200Y-34255714D02*
X49429819Y-34350952D01*
X49429819Y-34350952D02*
X49429819Y-34541428D01*
X49429819Y-34541428D02*
X49382200Y-34636666D01*
X49382200Y-34636666D02*
X49334580Y-34684285D01*
X49334580Y-34684285D02*
X49239342Y-34731904D01*
X49239342Y-34731904D02*
X49048866Y-34731904D01*
X49048866Y-34731904D02*
X48953628Y-34684285D01*
X48953628Y-34684285D02*
X48906009Y-34636666D01*
X48906009Y-34636666D02*
X48858390Y-34541428D01*
X103846666Y-44457819D02*
X104179999Y-43981628D01*
X104418094Y-44457819D02*
X104418094Y-43457819D01*
X104418094Y-43457819D02*
X104037142Y-43457819D01*
X104037142Y-43457819D02*
X103941904Y-43505438D01*
X103941904Y-43505438D02*
X103894285Y-43553057D01*
X103894285Y-43553057D02*
X103846666Y-43648295D01*
X103846666Y-43648295D02*
X103846666Y-43791152D01*
X103846666Y-43791152D02*
X103894285Y-43886390D01*
X103894285Y-43886390D02*
X103941904Y-43934009D01*
X103941904Y-43934009D02*
X104037142Y-43981628D01*
X104037142Y-43981628D02*
X104418094Y-43981628D01*
X103513332Y-43457819D02*
X102894285Y-43457819D01*
X102894285Y-43457819D02*
X103227618Y-43838771D01*
X103227618Y-43838771D02*
X103084761Y-43838771D01*
X103084761Y-43838771D02*
X102989523Y-43886390D01*
X102989523Y-43886390D02*
X102941904Y-43934009D01*
X102941904Y-43934009D02*
X102894285Y-44029247D01*
X102894285Y-44029247D02*
X102894285Y-44267342D01*
X102894285Y-44267342D02*
X102941904Y-44362580D01*
X102941904Y-44362580D02*
X102989523Y-44410200D01*
X102989523Y-44410200D02*
X103084761Y-44457819D01*
X103084761Y-44457819D02*
X103370475Y-44457819D01*
X103370475Y-44457819D02*
X103465713Y-44410200D01*
X103465713Y-44410200D02*
X103513332Y-44362580D01*
X106767666Y-45505580D02*
X106815285Y-45553200D01*
X106815285Y-45553200D02*
X106958142Y-45600819D01*
X106958142Y-45600819D02*
X107053380Y-45600819D01*
X107053380Y-45600819D02*
X107196237Y-45553200D01*
X107196237Y-45553200D02*
X107291475Y-45457961D01*
X107291475Y-45457961D02*
X107339094Y-45362723D01*
X107339094Y-45362723D02*
X107386713Y-45172247D01*
X107386713Y-45172247D02*
X107386713Y-45029390D01*
X107386713Y-45029390D02*
X107339094Y-44838914D01*
X107339094Y-44838914D02*
X107291475Y-44743676D01*
X107291475Y-44743676D02*
X107196237Y-44648438D01*
X107196237Y-44648438D02*
X107053380Y-44600819D01*
X107053380Y-44600819D02*
X106958142Y-44600819D01*
X106958142Y-44600819D02*
X106815285Y-44648438D01*
X106815285Y-44648438D02*
X106767666Y-44696057D01*
X105815285Y-45600819D02*
X106386713Y-45600819D01*
X106100999Y-45600819D02*
X106100999Y-44600819D01*
X106100999Y-44600819D02*
X106196237Y-44743676D01*
X106196237Y-44743676D02*
X106291475Y-44838914D01*
X106291475Y-44838914D02*
X106386713Y-44886533D01*
X100551580Y-38997333D02*
X100599200Y-38949714D01*
X100599200Y-38949714D02*
X100646819Y-38806857D01*
X100646819Y-38806857D02*
X100646819Y-38711619D01*
X100646819Y-38711619D02*
X100599200Y-38568762D01*
X100599200Y-38568762D02*
X100503961Y-38473524D01*
X100503961Y-38473524D02*
X100408723Y-38425905D01*
X100408723Y-38425905D02*
X100218247Y-38378286D01*
X100218247Y-38378286D02*
X100075390Y-38378286D01*
X100075390Y-38378286D02*
X99884914Y-38425905D01*
X99884914Y-38425905D02*
X99789676Y-38473524D01*
X99789676Y-38473524D02*
X99694438Y-38568762D01*
X99694438Y-38568762D02*
X99646819Y-38711619D01*
X99646819Y-38711619D02*
X99646819Y-38806857D01*
X99646819Y-38806857D02*
X99694438Y-38949714D01*
X99694438Y-38949714D02*
X99742057Y-38997333D01*
X99742057Y-39378286D02*
X99694438Y-39425905D01*
X99694438Y-39425905D02*
X99646819Y-39521143D01*
X99646819Y-39521143D02*
X99646819Y-39759238D01*
X99646819Y-39759238D02*
X99694438Y-39854476D01*
X99694438Y-39854476D02*
X99742057Y-39902095D01*
X99742057Y-39902095D02*
X99837295Y-39949714D01*
X99837295Y-39949714D02*
X99932533Y-39949714D01*
X99932533Y-39949714D02*
X100075390Y-39902095D01*
X100075390Y-39902095D02*
X100646819Y-39330667D01*
X100646819Y-39330667D02*
X100646819Y-39949714D01*
X63047857Y-38159580D02*
X63095476Y-38207200D01*
X63095476Y-38207200D02*
X63238333Y-38254819D01*
X63238333Y-38254819D02*
X63333571Y-38254819D01*
X63333571Y-38254819D02*
X63476428Y-38207200D01*
X63476428Y-38207200D02*
X63571666Y-38111961D01*
X63571666Y-38111961D02*
X63619285Y-38016723D01*
X63619285Y-38016723D02*
X63666904Y-37826247D01*
X63666904Y-37826247D02*
X63666904Y-37683390D01*
X63666904Y-37683390D02*
X63619285Y-37492914D01*
X63619285Y-37492914D02*
X63571666Y-37397676D01*
X63571666Y-37397676D02*
X63476428Y-37302438D01*
X63476428Y-37302438D02*
X63333571Y-37254819D01*
X63333571Y-37254819D02*
X63238333Y-37254819D01*
X63238333Y-37254819D02*
X63095476Y-37302438D01*
X63095476Y-37302438D02*
X63047857Y-37350057D01*
X62095476Y-38254819D02*
X62666904Y-38254819D01*
X62381190Y-38254819D02*
X62381190Y-37254819D01*
X62381190Y-37254819D02*
X62476428Y-37397676D01*
X62476428Y-37397676D02*
X62571666Y-37492914D01*
X62571666Y-37492914D02*
X62666904Y-37540533D01*
X61476428Y-37254819D02*
X61381190Y-37254819D01*
X61381190Y-37254819D02*
X61285952Y-37302438D01*
X61285952Y-37302438D02*
X61238333Y-37350057D01*
X61238333Y-37350057D02*
X61190714Y-37445295D01*
X61190714Y-37445295D02*
X61143095Y-37635771D01*
X61143095Y-37635771D02*
X61143095Y-37873866D01*
X61143095Y-37873866D02*
X61190714Y-38064342D01*
X61190714Y-38064342D02*
X61238333Y-38159580D01*
X61238333Y-38159580D02*
X61285952Y-38207200D01*
X61285952Y-38207200D02*
X61381190Y-38254819D01*
X61381190Y-38254819D02*
X61476428Y-38254819D01*
X61476428Y-38254819D02*
X61571666Y-38207200D01*
X61571666Y-38207200D02*
X61619285Y-38159580D01*
X61619285Y-38159580D02*
X61666904Y-38064342D01*
X61666904Y-38064342D02*
X61714523Y-37873866D01*
X61714523Y-37873866D02*
X61714523Y-37635771D01*
X61714523Y-37635771D02*
X61666904Y-37445295D01*
X61666904Y-37445295D02*
X61619285Y-37350057D01*
X61619285Y-37350057D02*
X61571666Y-37302438D01*
X61571666Y-37302438D02*
X61476428Y-37254819D01*
X109692666Y-33926819D02*
X110025999Y-33450628D01*
X110264094Y-33926819D02*
X110264094Y-32926819D01*
X110264094Y-32926819D02*
X109883142Y-32926819D01*
X109883142Y-32926819D02*
X109787904Y-32974438D01*
X109787904Y-32974438D02*
X109740285Y-33022057D01*
X109740285Y-33022057D02*
X109692666Y-33117295D01*
X109692666Y-33117295D02*
X109692666Y-33260152D01*
X109692666Y-33260152D02*
X109740285Y-33355390D01*
X109740285Y-33355390D02*
X109787904Y-33403009D01*
X109787904Y-33403009D02*
X109883142Y-33450628D01*
X109883142Y-33450628D02*
X110264094Y-33450628D01*
X108835523Y-33260152D02*
X108835523Y-33926819D01*
X109073618Y-32879200D02*
X109311713Y-33593485D01*
X109311713Y-33593485D02*
X108692666Y-33593485D01*
D10*
X113498666Y-40396419D02*
X113831999Y-39920228D01*
X114070094Y-40396419D02*
X114070094Y-39396419D01*
X114070094Y-39396419D02*
X113689142Y-39396419D01*
X113689142Y-39396419D02*
X113593904Y-39444038D01*
X113593904Y-39444038D02*
X113546285Y-39491657D01*
X113546285Y-39491657D02*
X113498666Y-39586895D01*
X113498666Y-39586895D02*
X113498666Y-39729752D01*
X113498666Y-39729752D02*
X113546285Y-39824990D01*
X113546285Y-39824990D02*
X113593904Y-39872609D01*
X113593904Y-39872609D02*
X113689142Y-39920228D01*
X113689142Y-39920228D02*
X114070094Y-39920228D01*
X112593904Y-39396419D02*
X113070094Y-39396419D01*
X113070094Y-39396419D02*
X113117713Y-39872609D01*
X113117713Y-39872609D02*
X113070094Y-39824990D01*
X113070094Y-39824990D02*
X112974856Y-39777371D01*
X112974856Y-39777371D02*
X112736761Y-39777371D01*
X112736761Y-39777371D02*
X112641523Y-39824990D01*
X112641523Y-39824990D02*
X112593904Y-39872609D01*
X112593904Y-39872609D02*
X112546285Y-39967847D01*
X112546285Y-39967847D02*
X112546285Y-40205942D01*
X112546285Y-40205942D02*
X112593904Y-40301180D01*
X112593904Y-40301180D02*
X112641523Y-40348800D01*
X112641523Y-40348800D02*
X112736761Y-40396419D01*
X112736761Y-40396419D02*
X112974856Y-40396419D01*
X112974856Y-40396419D02*
X113070094Y-40348800D01*
X113070094Y-40348800D02*
X113117713Y-40301180D01*
D12*
X60507857Y-39504819D02*
X60841190Y-39028628D01*
X61079285Y-39504819D02*
X61079285Y-38504819D01*
X61079285Y-38504819D02*
X60698333Y-38504819D01*
X60698333Y-38504819D02*
X60603095Y-38552438D01*
X60603095Y-38552438D02*
X60555476Y-38600057D01*
X60555476Y-38600057D02*
X60507857Y-38695295D01*
X60507857Y-38695295D02*
X60507857Y-38838152D01*
X60507857Y-38838152D02*
X60555476Y-38933390D01*
X60555476Y-38933390D02*
X60603095Y-38981009D01*
X60603095Y-38981009D02*
X60698333Y-39028628D01*
X60698333Y-39028628D02*
X61079285Y-39028628D01*
X59555476Y-39504819D02*
X60126904Y-39504819D01*
X59841190Y-39504819D02*
X59841190Y-38504819D01*
X59841190Y-38504819D02*
X59936428Y-38647676D01*
X59936428Y-38647676D02*
X60031666Y-38742914D01*
X60031666Y-38742914D02*
X60126904Y-38790533D01*
X58603095Y-39504819D02*
X59174523Y-39504819D01*
X58888809Y-39504819D02*
X58888809Y-38504819D01*
X58888809Y-38504819D02*
X58984047Y-38647676D01*
X58984047Y-38647676D02*
X59079285Y-38742914D01*
X59079285Y-38742914D02*
X59174523Y-38790533D01*
X80666666Y-31889819D02*
X80999999Y-31413628D01*
X81238094Y-31889819D02*
X81238094Y-30889819D01*
X81238094Y-30889819D02*
X80857142Y-30889819D01*
X80857142Y-30889819D02*
X80761904Y-30937438D01*
X80761904Y-30937438D02*
X80714285Y-30985057D01*
X80714285Y-30985057D02*
X80666666Y-31080295D01*
X80666666Y-31080295D02*
X80666666Y-31223152D01*
X80666666Y-31223152D02*
X80714285Y-31318390D01*
X80714285Y-31318390D02*
X80761904Y-31366009D01*
X80761904Y-31366009D02*
X80857142Y-31413628D01*
X80857142Y-31413628D02*
X81238094Y-31413628D01*
X80285713Y-30985057D02*
X80238094Y-30937438D01*
X80238094Y-30937438D02*
X80142856Y-30889819D01*
X80142856Y-30889819D02*
X79904761Y-30889819D01*
X79904761Y-30889819D02*
X79809523Y-30937438D01*
X79809523Y-30937438D02*
X79761904Y-30985057D01*
X79761904Y-30985057D02*
X79714285Y-31080295D01*
X79714285Y-31080295D02*
X79714285Y-31175533D01*
X79714285Y-31175533D02*
X79761904Y-31318390D01*
X79761904Y-31318390D02*
X80333332Y-31889819D01*
X80333332Y-31889819D02*
X79714285Y-31889819D01*
X61494580Y-28723333D02*
X61542200Y-28675714D01*
X61542200Y-28675714D02*
X61589819Y-28532857D01*
X61589819Y-28532857D02*
X61589819Y-28437619D01*
X61589819Y-28437619D02*
X61542200Y-28294762D01*
X61542200Y-28294762D02*
X61446961Y-28199524D01*
X61446961Y-28199524D02*
X61351723Y-28151905D01*
X61351723Y-28151905D02*
X61161247Y-28104286D01*
X61161247Y-28104286D02*
X61018390Y-28104286D01*
X61018390Y-28104286D02*
X60827914Y-28151905D01*
X60827914Y-28151905D02*
X60732676Y-28199524D01*
X60732676Y-28199524D02*
X60637438Y-28294762D01*
X60637438Y-28294762D02*
X60589819Y-28437619D01*
X60589819Y-28437619D02*
X60589819Y-28532857D01*
X60589819Y-28532857D02*
X60637438Y-28675714D01*
X60637438Y-28675714D02*
X60685057Y-28723333D01*
X60589819Y-29056667D02*
X60589819Y-29723333D01*
X60589819Y-29723333D02*
X61589819Y-29294762D01*
X74287857Y-33949819D02*
X74621190Y-33473628D01*
X74859285Y-33949819D02*
X74859285Y-32949819D01*
X74859285Y-32949819D02*
X74478333Y-32949819D01*
X74478333Y-32949819D02*
X74383095Y-32997438D01*
X74383095Y-32997438D02*
X74335476Y-33045057D01*
X74335476Y-33045057D02*
X74287857Y-33140295D01*
X74287857Y-33140295D02*
X74287857Y-33283152D01*
X74287857Y-33283152D02*
X74335476Y-33378390D01*
X74335476Y-33378390D02*
X74383095Y-33426009D01*
X74383095Y-33426009D02*
X74478333Y-33473628D01*
X74478333Y-33473628D02*
X74859285Y-33473628D01*
X73335476Y-33949819D02*
X73906904Y-33949819D01*
X73621190Y-33949819D02*
X73621190Y-32949819D01*
X73621190Y-32949819D02*
X73716428Y-33092676D01*
X73716428Y-33092676D02*
X73811666Y-33187914D01*
X73811666Y-33187914D02*
X73906904Y-33235533D01*
X73002142Y-32949819D02*
X72383095Y-32949819D01*
X72383095Y-32949819D02*
X72716428Y-33330771D01*
X72716428Y-33330771D02*
X72573571Y-33330771D01*
X72573571Y-33330771D02*
X72478333Y-33378390D01*
X72478333Y-33378390D02*
X72430714Y-33426009D01*
X72430714Y-33426009D02*
X72383095Y-33521247D01*
X72383095Y-33521247D02*
X72383095Y-33759342D01*
X72383095Y-33759342D02*
X72430714Y-33854580D01*
X72430714Y-33854580D02*
X72478333Y-33902200D01*
X72478333Y-33902200D02*
X72573571Y-33949819D01*
X72573571Y-33949819D02*
X72859285Y-33949819D01*
X72859285Y-33949819D02*
X72954523Y-33902200D01*
X72954523Y-33902200D02*
X73002142Y-33854580D01*
X67238857Y-41917819D02*
X67572190Y-41441628D01*
X67810285Y-41917819D02*
X67810285Y-40917819D01*
X67810285Y-40917819D02*
X67429333Y-40917819D01*
X67429333Y-40917819D02*
X67334095Y-40965438D01*
X67334095Y-40965438D02*
X67286476Y-41013057D01*
X67286476Y-41013057D02*
X67238857Y-41108295D01*
X67238857Y-41108295D02*
X67238857Y-41251152D01*
X67238857Y-41251152D02*
X67286476Y-41346390D01*
X67286476Y-41346390D02*
X67334095Y-41394009D01*
X67334095Y-41394009D02*
X67429333Y-41441628D01*
X67429333Y-41441628D02*
X67810285Y-41441628D01*
X66286476Y-41917819D02*
X66857904Y-41917819D01*
X66572190Y-41917819D02*
X66572190Y-40917819D01*
X66572190Y-40917819D02*
X66667428Y-41060676D01*
X66667428Y-41060676D02*
X66762666Y-41155914D01*
X66762666Y-41155914D02*
X66857904Y-41203533D01*
X65429333Y-41251152D02*
X65429333Y-41917819D01*
X65667428Y-40870200D02*
X65905523Y-41584485D01*
X65905523Y-41584485D02*
X65286476Y-41584485D01*
X107595580Y-35200333D02*
X107643200Y-35152714D01*
X107643200Y-35152714D02*
X107690819Y-35009857D01*
X107690819Y-35009857D02*
X107690819Y-34914619D01*
X107690819Y-34914619D02*
X107643200Y-34771762D01*
X107643200Y-34771762D02*
X107547961Y-34676524D01*
X107547961Y-34676524D02*
X107452723Y-34628905D01*
X107452723Y-34628905D02*
X107262247Y-34581286D01*
X107262247Y-34581286D02*
X107119390Y-34581286D01*
X107119390Y-34581286D02*
X106928914Y-34628905D01*
X106928914Y-34628905D02*
X106833676Y-34676524D01*
X106833676Y-34676524D02*
X106738438Y-34771762D01*
X106738438Y-34771762D02*
X106690819Y-34914619D01*
X106690819Y-34914619D02*
X106690819Y-35009857D01*
X106690819Y-35009857D02*
X106738438Y-35152714D01*
X106738438Y-35152714D02*
X106786057Y-35200333D01*
X106690819Y-36105095D02*
X106690819Y-35628905D01*
X106690819Y-35628905D02*
X107167009Y-35581286D01*
X107167009Y-35581286D02*
X107119390Y-35628905D01*
X107119390Y-35628905D02*
X107071771Y-35724143D01*
X107071771Y-35724143D02*
X107071771Y-35962238D01*
X107071771Y-35962238D02*
X107119390Y-36057476D01*
X107119390Y-36057476D02*
X107167009Y-36105095D01*
X107167009Y-36105095D02*
X107262247Y-36152714D01*
X107262247Y-36152714D02*
X107500342Y-36152714D01*
X107500342Y-36152714D02*
X107595580Y-36105095D01*
X107595580Y-36105095D02*
X107643200Y-36057476D01*
X107643200Y-36057476D02*
X107690819Y-35962238D01*
X107690819Y-35962238D02*
X107690819Y-35724143D01*
X107690819Y-35724143D02*
X107643200Y-35628905D01*
X107643200Y-35628905D02*
X107595580Y-35581286D01*
X101229819Y-35748095D02*
X102039342Y-35748095D01*
X102039342Y-35748095D02*
X102134580Y-35795714D01*
X102134580Y-35795714D02*
X102182200Y-35843333D01*
X102182200Y-35843333D02*
X102229819Y-35938571D01*
X102229819Y-35938571D02*
X102229819Y-36129047D01*
X102229819Y-36129047D02*
X102182200Y-36224285D01*
X102182200Y-36224285D02*
X102134580Y-36271904D01*
X102134580Y-36271904D02*
X102039342Y-36319523D01*
X102039342Y-36319523D02*
X101229819Y-36319523D01*
X102229819Y-37319523D02*
X102229819Y-36748095D01*
X102229819Y-37033809D02*
X101229819Y-37033809D01*
X101229819Y-37033809D02*
X101372676Y-36938571D01*
X101372676Y-36938571D02*
X101467914Y-36843333D01*
X101467914Y-36843333D02*
X101515533Y-36748095D01*
%TO.C,R6*%
D13*
X109924258Y-38624500D02*
X109449742Y-38624500D01*
X109924258Y-39669500D02*
X109449742Y-39669500D01*
%TO.C,C17*%
X52880580Y-27745000D02*
X52599420Y-27745000D01*
X52880580Y-28765000D02*
X52599420Y-28765000D01*
%TO.C,C18*%
X50240000Y-33281252D02*
X50240000Y-32758748D01*
X51710000Y-33281252D02*
X51710000Y-32758748D01*
%TO.C,R3*%
X108489258Y-40940500D02*
X108014742Y-40940500D01*
X108489258Y-41985500D02*
X108014742Y-41985500D01*
%TO.C,C1*%
X106601580Y-42731000D02*
X106320420Y-42731000D01*
X106601580Y-43751000D02*
X106320420Y-43751000D01*
D14*
%TO.C,G\u002A\u002A\u002A*%
G36*
X103055208Y-80375496D02*
G01*
X103094398Y-80405972D01*
X103004056Y-80426649D01*
X102918182Y-80420662D01*
X102892931Y-80382180D01*
X102922885Y-80365403D01*
X103055208Y-80375496D01*
G37*
G36*
X101133015Y-76011857D02*
G01*
X101164704Y-76208751D01*
X101176667Y-76496333D01*
X101166535Y-76762927D01*
X101136244Y-76968909D01*
X101092000Y-77046667D01*
X101050986Y-76980809D01*
X101019296Y-76783915D01*
X101007333Y-76496333D01*
X101017465Y-76229740D01*
X101047757Y-76023757D01*
X101092000Y-75946000D01*
X101133015Y-76011857D01*
G37*
G36*
X101388663Y-79623344D02*
G01*
X101570752Y-79729515D01*
X101712340Y-79894360D01*
X101769333Y-80094667D01*
X101769335Y-80101993D01*
X101762649Y-80212627D01*
X101716339Y-80251748D01*
X101591123Y-80222446D01*
X101347714Y-80127807D01*
X101223494Y-80076123D01*
X101061165Y-79982695D01*
X101016253Y-79878291D01*
X101058725Y-79720591D01*
X101079349Y-79679862D01*
X101210165Y-79599056D01*
X101388663Y-79623344D01*
G37*
G36*
X98455063Y-76708246D02*
G01*
X98545666Y-76776659D01*
X98698359Y-76937218D01*
X98878107Y-77147415D01*
X99049876Y-77364739D01*
X99178630Y-77546681D01*
X99229333Y-77650731D01*
X99215266Y-77709601D01*
X99136209Y-77694998D01*
X98981069Y-77549060D01*
X98742500Y-77265982D01*
X98723849Y-77242624D01*
X98517710Y-76975766D01*
X98411367Y-76812358D01*
X98393393Y-76730427D01*
X98452362Y-76708000D01*
X98455063Y-76708246D01*
G37*
G36*
X107561472Y-75262419D02*
G01*
X107687472Y-75412852D01*
X107752154Y-75633267D01*
X107692628Y-75823063D01*
X107548556Y-75920263D01*
X107362319Y-75937954D01*
X107226852Y-75855700D01*
X107197344Y-75756175D01*
X107263214Y-75710964D01*
X107396619Y-75774137D01*
X107402051Y-75778615D01*
X107511420Y-75833167D01*
X107577057Y-75743869D01*
X107602504Y-75535885D01*
X107513807Y-75407581D01*
X107336584Y-75398915D01*
X107236966Y-75426587D01*
X107196514Y-75413021D01*
X107289584Y-75306193D01*
X107316059Y-75279467D01*
X107439857Y-75204817D01*
X107561472Y-75262419D01*
G37*
G36*
X107648213Y-81233372D02*
G01*
X107689595Y-81342514D01*
X107696000Y-81576333D01*
X107694564Y-81720069D01*
X107672165Y-81882519D01*
X107598189Y-81946289D01*
X107442000Y-81957333D01*
X107438840Y-81957327D01*
X107261573Y-81932114D01*
X107188000Y-81872667D01*
X107219753Y-81823456D01*
X107357333Y-81788000D01*
X107455754Y-81772123D01*
X107526667Y-81703333D01*
X107512339Y-81664384D01*
X107399667Y-81618667D01*
X107341243Y-81609114D01*
X107272667Y-81534000D01*
X107286995Y-81495051D01*
X107399667Y-81449333D01*
X107436810Y-81447288D01*
X107523163Y-81397790D01*
X107484404Y-81317779D01*
X107336167Y-81255085D01*
X107273352Y-81240795D01*
X107265233Y-81219833D01*
X107420833Y-81206863D01*
X107538602Y-81204261D01*
X107648213Y-81233372D01*
G37*
G36*
X113538000Y-77433290D02*
G01*
X113536809Y-77554667D01*
X113536523Y-77583869D01*
X113515470Y-77742767D01*
X113447469Y-77798428D01*
X113305167Y-77793124D01*
X113275350Y-77789383D01*
X113140340Y-77747000D01*
X113075247Y-77636186D01*
X113064973Y-77554667D01*
X113199333Y-77554667D01*
X113201794Y-77574904D01*
X113284000Y-77639333D01*
X113304238Y-77636873D01*
X113368667Y-77554667D01*
X113366207Y-77534429D01*
X113284000Y-77470000D01*
X113263763Y-77472460D01*
X113199333Y-77554667D01*
X113064973Y-77554667D01*
X113046299Y-77406500D01*
X113038114Y-77279135D01*
X113039046Y-77263330D01*
X113199333Y-77263330D01*
X113201535Y-77271780D01*
X113284000Y-77300667D01*
X113307206Y-77297221D01*
X113368667Y-77211003D01*
X113362019Y-77180379D01*
X113284000Y-77173667D01*
X113258662Y-77191044D01*
X113199333Y-77263330D01*
X113039046Y-77263330D01*
X113047578Y-77118604D01*
X113117764Y-77056805D01*
X113279132Y-77046667D01*
X113383734Y-77049151D01*
X113489820Y-77084008D01*
X113531051Y-77196834D01*
X113531467Y-77211003D01*
X113538000Y-77433290D01*
G37*
G36*
X105060306Y-84797780D02*
G01*
X104974962Y-85202876D01*
X104762848Y-85551542D01*
X104436333Y-85804423D01*
X104237675Y-85884551D01*
X103848443Y-85930377D01*
X103490729Y-85841423D01*
X103186013Y-85640767D01*
X102955774Y-85351483D01*
X102821493Y-84996649D01*
X102811274Y-84755591D01*
X103407448Y-84755591D01*
X103468983Y-85004492D01*
X103660513Y-85218975D01*
X103699381Y-85246114D01*
X103836443Y-85325481D01*
X103952441Y-85321329D01*
X104133314Y-85236918D01*
X104249522Y-85161085D01*
X104407698Y-84948618D01*
X104445544Y-84706388D01*
X104372183Y-84478616D01*
X104196738Y-84309524D01*
X103928333Y-84243333D01*
X103881284Y-84245091D01*
X103625751Y-84331619D01*
X103463755Y-84516543D01*
X103407448Y-84755591D01*
X102811274Y-84755591D01*
X102804650Y-84599340D01*
X102926724Y-84182633D01*
X103024627Y-84015599D01*
X103303536Y-83747239D01*
X103647326Y-83599210D01*
X104019414Y-83571140D01*
X104383213Y-83662660D01*
X104702137Y-83873400D01*
X104939603Y-84202990D01*
X105006512Y-84375610D01*
X105048661Y-84706388D01*
X105060306Y-84797780D01*
G37*
G36*
X100688085Y-76427465D02*
G01*
X100782796Y-76640601D01*
X100846808Y-76848057D01*
X100862026Y-77027850D01*
X100822153Y-77106712D01*
X100741714Y-77061974D01*
X100635228Y-76870965D01*
X100512853Y-76581000D01*
X100484927Y-76914528D01*
X100478802Y-76984594D01*
X100453474Y-77151349D01*
X100406824Y-77182691D01*
X100315124Y-77105272D01*
X100283339Y-77075686D01*
X100146542Y-77009795D01*
X99962208Y-77032806D01*
X99684069Y-77147840D01*
X99568213Y-77236694D01*
X99548741Y-77405498D01*
X99558378Y-77520144D01*
X99479622Y-77539318D01*
X99384554Y-77449201D01*
X99302339Y-77264886D01*
X99228644Y-77075749D01*
X99101707Y-76876641D01*
X99022579Y-76749184D01*
X99051895Y-76670011D01*
X99174303Y-76674306D01*
X99354511Y-76776106D01*
X99497707Y-76869415D01*
X99661115Y-76897089D01*
X99900300Y-76849778D01*
X99955114Y-76834196D01*
X100178013Y-76729585D01*
X100262773Y-76585670D01*
X100288468Y-76488467D01*
X100338154Y-76454000D01*
X100389093Y-76459319D01*
X100515897Y-76390720D01*
X100527703Y-76381237D01*
X100612599Y-76349947D01*
X100688085Y-76427465D01*
G37*
G36*
X105896769Y-84596494D02*
G01*
X105906139Y-84771573D01*
X105837811Y-85344179D01*
X105620496Y-85849458D01*
X105264082Y-86269801D01*
X104778460Y-86587598D01*
X104631339Y-86650481D01*
X104094946Y-86770661D01*
X103557304Y-86737967D01*
X103048449Y-86561542D01*
X102598415Y-86250528D01*
X102237238Y-85814068D01*
X102102540Y-85576220D01*
X102024692Y-85362915D01*
X101990105Y-85112064D01*
X101983361Y-84777716D01*
X102205956Y-84777716D01*
X102214249Y-85057602D01*
X102279797Y-85301549D01*
X102420900Y-85598000D01*
X102573697Y-85856225D01*
X102790285Y-86098427D01*
X103085244Y-86294522D01*
X103496256Y-86461854D01*
X103995312Y-86523806D01*
X104472095Y-86444615D01*
X104900639Y-86237623D01*
X105254981Y-85916170D01*
X105509157Y-85493599D01*
X105637201Y-84983250D01*
X105642683Y-84539788D01*
X105526820Y-84016051D01*
X105282448Y-83582291D01*
X104922793Y-83253893D01*
X104461081Y-83046243D01*
X103910540Y-82974726D01*
X103382940Y-83049407D01*
X102929652Y-83264933D01*
X102574044Y-83606662D01*
X102331277Y-84059960D01*
X102216510Y-84610190D01*
X102205956Y-84777716D01*
X101983361Y-84777716D01*
X101982963Y-84757973D01*
X101983245Y-84710332D01*
X102002899Y-84318019D01*
X102061516Y-84023775D01*
X102171005Y-83764689D01*
X102254441Y-83621655D01*
X102602012Y-83216208D01*
X103029017Y-82931393D01*
X103507184Y-82767260D01*
X104008237Y-82723859D01*
X104503905Y-82801239D01*
X104965912Y-82999450D01*
X105365985Y-83318540D01*
X105675850Y-83758560D01*
X105740258Y-83910452D01*
X105838801Y-84249998D01*
X105887282Y-84539788D01*
X105896769Y-84596494D01*
G37*
G36*
X101684667Y-84539667D02*
G01*
X101684667Y-85295458D01*
X101684667Y-86444667D01*
X100706796Y-86444667D01*
X100279212Y-86439040D01*
X99867281Y-86410028D01*
X99572782Y-86346517D01*
X99367107Y-86237703D01*
X99221648Y-86072788D01*
X99107799Y-85840970D01*
X99089966Y-85794055D01*
X99012700Y-85385174D01*
X99689712Y-85385174D01*
X99772293Y-85620693D01*
X99965240Y-85773508D01*
X100183851Y-85824131D01*
X100530381Y-85838336D01*
X100859167Y-85793637D01*
X100867843Y-85791193D01*
X100953320Y-85727111D01*
X100995826Y-85575285D01*
X101007333Y-85295458D01*
X101007333Y-84836000D01*
X100458952Y-84836000D01*
X100202961Y-84840326D01*
X99996092Y-84865789D01*
X99870612Y-84927077D01*
X99777755Y-85038701D01*
X99732012Y-85123839D01*
X99689712Y-85385174D01*
X99012700Y-85385174D01*
X99009305Y-85367209D01*
X99071400Y-84967021D01*
X99270891Y-84633171D01*
X99468688Y-84419745D01*
X99301338Y-84098706D01*
X99234085Y-83947431D01*
X99188089Y-83687364D01*
X99822000Y-83687364D01*
X99857206Y-83923949D01*
X99985767Y-84071021D01*
X100062107Y-84099361D01*
X100297553Y-84141917D01*
X100582859Y-84158667D01*
X101016183Y-84158667D01*
X100990591Y-83714167D01*
X100965000Y-83269667D01*
X100541667Y-83271855D01*
X100448255Y-83272908D01*
X100127672Y-83295285D01*
X99937145Y-83359863D01*
X99845609Y-83484577D01*
X99822000Y-83687364D01*
X99188089Y-83687364D01*
X99163675Y-83549323D01*
X99246884Y-83179507D01*
X99479442Y-82867500D01*
X99559942Y-82797885D01*
X99673912Y-82720481D01*
X99809112Y-82672449D01*
X100002566Y-82646797D01*
X100291299Y-82636534D01*
X100712336Y-82634667D01*
X101684667Y-82634667D01*
X101684667Y-84158667D01*
X101684667Y-84539667D01*
G37*
G36*
X98775674Y-84774154D02*
G01*
X98679000Y-84890049D01*
X98584804Y-84975681D01*
X98558336Y-85146688D01*
X98640720Y-85314187D01*
X98687973Y-85451698D01*
X98629230Y-85630765D01*
X98491190Y-85788495D01*
X98307632Y-85868656D01*
X98144852Y-85923429D01*
X98059254Y-86085019D01*
X97969418Y-86276935D01*
X97766721Y-86397406D01*
X97502361Y-86396950D01*
X97324216Y-86393352D01*
X97201311Y-86521901D01*
X97101406Y-86634614D01*
X96858667Y-86698667D01*
X96685407Y-86670458D01*
X96516022Y-86521901D01*
X96400947Y-86396601D01*
X96214973Y-86396950D01*
X95972412Y-86402681D01*
X95762235Y-86291891D01*
X95658080Y-86085019D01*
X95596450Y-85944309D01*
X95409702Y-85868656D01*
X95236239Y-85796073D01*
X95094504Y-85641420D01*
X95030036Y-85462047D01*
X95076613Y-85314187D01*
X95144150Y-85213103D01*
X95142291Y-85021176D01*
X94996000Y-84855649D01*
X94949699Y-84814067D01*
X94866298Y-84659026D01*
X94856109Y-84616215D01*
X96068445Y-84616215D01*
X96074960Y-84787897D01*
X96133383Y-85030022D01*
X96273056Y-85220080D01*
X96326879Y-85270315D01*
X96643343Y-85450606D01*
X96973469Y-85474971D01*
X97283459Y-85347370D01*
X97539513Y-85071759D01*
X97593168Y-84974719D01*
X97679417Y-84620787D01*
X97603110Y-84276621D01*
X97368272Y-83968167D01*
X97271541Y-83889287D01*
X96962762Y-83748985D01*
X96652089Y-83777914D01*
X96337891Y-83976084D01*
X96166005Y-84156947D01*
X96087123Y-84343622D01*
X96068445Y-84616215D01*
X94856109Y-84616215D01*
X94821392Y-84470354D01*
X94825756Y-84310530D01*
X94890167Y-84242037D01*
X95004884Y-84220078D01*
X95116534Y-84100633D01*
X95085640Y-83913959D01*
X95051640Y-83809644D01*
X95087067Y-83595700D01*
X95229829Y-83424427D01*
X95442606Y-83354333D01*
X95584834Y-83316174D01*
X95606528Y-83175736D01*
X95636852Y-83009050D01*
X95779820Y-82855083D01*
X95983235Y-82781529D01*
X96188457Y-82823847D01*
X96265663Y-82865400D01*
X96382584Y-82869280D01*
X96496082Y-82740500D01*
X96499699Y-82735261D01*
X96669036Y-82594648D01*
X96877428Y-82543879D01*
X97065230Y-82584819D01*
X97172801Y-82719333D01*
X97213827Y-82813831D01*
X97343415Y-82885028D01*
X97506187Y-82799946D01*
X97649857Y-82753505D01*
X97828689Y-82812590D01*
X97980138Y-82944445D01*
X98044000Y-83113923D01*
X98044352Y-83136136D01*
X98092504Y-83275208D01*
X98253715Y-83312000D01*
X98407324Y-83343136D01*
X98585292Y-83483592D01*
X98667674Y-83688140D01*
X98620619Y-83902315D01*
X98584597Y-83964770D01*
X98559786Y-84082534D01*
X98657833Y-84167571D01*
X98691509Y-84192855D01*
X98779870Y-84355302D01*
X98808612Y-84572487D01*
X98800723Y-84620787D01*
X98775674Y-84774154D01*
G37*
G36*
X105954413Y-79677689D02*
G01*
X106096932Y-80124921D01*
X106211599Y-80484184D01*
X106290608Y-80731004D01*
X106326151Y-80840912D01*
X106327243Y-80888157D01*
X106236070Y-80928823D01*
X106005509Y-80925579D01*
X105824878Y-80906909D01*
X105687058Y-80853731D01*
X105597618Y-80726254D01*
X105507540Y-80480683D01*
X105367667Y-80062367D01*
X104777549Y-80085027D01*
X104766119Y-80085472D01*
X104466193Y-80101601D01*
X104238594Y-80121895D01*
X104131795Y-80142071D01*
X104110393Y-80170541D01*
X104048107Y-80324685D01*
X103979861Y-80558894D01*
X103935864Y-80723928D01*
X103866949Y-80874186D01*
X103753749Y-80931916D01*
X103546114Y-80941333D01*
X103459741Y-80939638D01*
X103287668Y-80907253D01*
X103216538Y-80810749D01*
X103236601Y-80620363D01*
X103338108Y-80306333D01*
X103374883Y-80202017D01*
X103448041Y-79934995D01*
X103430309Y-79769801D01*
X103306269Y-79666343D01*
X103060500Y-79584532D01*
X102930080Y-79546591D01*
X102693433Y-79463451D01*
X102552500Y-79393828D01*
X102471317Y-79371083D01*
X102446667Y-79494361D01*
X102432186Y-79572189D01*
X102312862Y-79716443D01*
X102131602Y-79782819D01*
X101959833Y-79735882D01*
X101941943Y-79716701D01*
X101879309Y-79554179D01*
X101854000Y-79319571D01*
X101853603Y-79310611D01*
X104432399Y-79310611D01*
X104448703Y-79333951D01*
X104586126Y-79392588D01*
X104792197Y-79416005D01*
X104991203Y-79400596D01*
X105107431Y-79342756D01*
X105110704Y-79334115D01*
X105102170Y-79200025D01*
X105051829Y-78958096D01*
X104968851Y-78653907D01*
X104784180Y-78039635D01*
X104587813Y-78621762D01*
X104579459Y-78646735D01*
X104490579Y-78944440D01*
X104437837Y-79182233D01*
X104432399Y-79310611D01*
X101853603Y-79310611D01*
X101847089Y-79163668D01*
X101793287Y-79002669D01*
X101663500Y-78917730D01*
X101498136Y-78877819D01*
X101324499Y-78918184D01*
X101261333Y-79070792D01*
X101243603Y-79172081D01*
X101124949Y-79344362D01*
X100948067Y-79417333D01*
X100867380Y-79340795D01*
X100838000Y-79126705D01*
X100837349Y-79083680D01*
X100795311Y-78878453D01*
X100672998Y-78783708D01*
X100515179Y-78673753D01*
X100443076Y-78439090D01*
X100490491Y-78097894D01*
X100595761Y-77801216D01*
X100747343Y-77609848D01*
X100977713Y-77527331D01*
X101327934Y-77525602D01*
X101901491Y-77567112D01*
X102600833Y-77624003D01*
X103173373Y-77678682D01*
X103608513Y-77730000D01*
X103895653Y-77776809D01*
X104024196Y-77817958D01*
X104084475Y-77830635D01*
X104166902Y-77727257D01*
X104265771Y-77473700D01*
X104349981Y-77236348D01*
X104432499Y-77104036D01*
X104554382Y-77054275D01*
X104762639Y-77046667D01*
X105117668Y-77046667D01*
X105703184Y-78888167D01*
X105791850Y-79166957D01*
X105845055Y-79334115D01*
X105954413Y-79677689D01*
G37*
G36*
X112560286Y-78309145D02*
G01*
X112985643Y-78334072D01*
X113066541Y-78339362D01*
X113288445Y-78369691D01*
X113358855Y-78409550D01*
X113397207Y-78431261D01*
X113437452Y-78544892D01*
X113442894Y-78614867D01*
X113407199Y-78693840D01*
X113280401Y-78734406D01*
X113023389Y-78756559D01*
X112582874Y-78782333D01*
X112539273Y-78953287D01*
X112469520Y-79226776D01*
X112407684Y-79443970D01*
X112122139Y-80107116D01*
X111724530Y-80651172D01*
X111221560Y-81068436D01*
X110619934Y-81351208D01*
X110254714Y-81458437D01*
X109867541Y-81522002D01*
X109496391Y-81507815D01*
X109067895Y-81419085D01*
X108624887Y-81304170D01*
X108646613Y-83777667D01*
X108647277Y-83853252D01*
X108669667Y-86402333D01*
X108860167Y-86375845D01*
X108901666Y-86371310D01*
X109020719Y-86404813D01*
X109050667Y-86559289D01*
X109026071Y-86702663D01*
X108946625Y-86803903D01*
X108930642Y-86810280D01*
X108895360Y-86884434D01*
X108974122Y-87043791D01*
X109073396Y-87214101D01*
X109160173Y-87397167D01*
X109191705Y-87510141D01*
X109171188Y-87560167D01*
X109097982Y-87505336D01*
X108996225Y-87366456D01*
X108890056Y-87164333D01*
X108831377Y-87041362D01*
X108693101Y-86844116D01*
X108549523Y-86783333D01*
X108472706Y-86788347D01*
X108417392Y-86843823D01*
X108460167Y-87000699D01*
X108530982Y-87172287D01*
X108630384Y-87381699D01*
X108675215Y-87497670D01*
X108625552Y-87545333D01*
X108584087Y-87522563D01*
X108479433Y-87385031D01*
X108364611Y-87164333D01*
X108321216Y-87071727D01*
X108176278Y-86852928D01*
X108030705Y-86783333D01*
X107927040Y-86786102D01*
X107878343Y-86820476D01*
X107901563Y-86928250D01*
X107992333Y-87151274D01*
X108038252Y-87262697D01*
X108104222Y-87444979D01*
X108108052Y-87526496D01*
X108055833Y-87545016D01*
X108025304Y-87522615D01*
X107938568Y-87385127D01*
X107835780Y-87164016D01*
X107777330Y-87038176D01*
X107659355Y-86855244D01*
X107560613Y-86783333D01*
X107486155Y-86742153D01*
X107442000Y-86589496D01*
X107444284Y-86536893D01*
X107502264Y-86425114D01*
X107674833Y-86398996D01*
X107907667Y-86402333D01*
X107932130Y-85661500D01*
X107956593Y-84920667D01*
X107709663Y-84920667D01*
X107656049Y-84921874D01*
X107521612Y-84946537D01*
X107400819Y-85022041D01*
X107270595Y-85173164D01*
X107107866Y-85424685D01*
X106889558Y-85801385D01*
X106548783Y-86402333D01*
X106145253Y-86428281D01*
X105741723Y-86454228D01*
X106050372Y-85835614D01*
X106077688Y-85781563D01*
X106253390Y-85459974D01*
X106425436Y-85181924D01*
X106560125Y-85002494D01*
X106761229Y-84787989D01*
X106476574Y-84634692D01*
X106447755Y-84618395D01*
X106235292Y-84453391D01*
X106097293Y-84273714D01*
X106090073Y-84257399D01*
X106009540Y-83928667D01*
X106011936Y-83682470D01*
X106684538Y-83682470D01*
X106711107Y-83920677D01*
X106813048Y-84110286D01*
X106853961Y-84143178D01*
X107078037Y-84218871D01*
X107448048Y-84243333D01*
X107950000Y-84243333D01*
X107950000Y-83777667D01*
X107945991Y-83527693D01*
X107919732Y-83379058D01*
X107850396Y-83318435D01*
X107717167Y-83303422D01*
X107695005Y-83302648D01*
X107279875Y-83306459D01*
X106965800Y-83345205D01*
X106785833Y-83414929D01*
X106736479Y-83475852D01*
X106684538Y-83682470D01*
X106011936Y-83682470D01*
X106013099Y-83563010D01*
X106090069Y-83210710D01*
X106229769Y-82922048D01*
X106421520Y-82747306D01*
X106462491Y-82734149D01*
X106659740Y-82699936D01*
X106959546Y-82666260D01*
X107315000Y-82638817D01*
X108077000Y-82592333D01*
X108101121Y-81826052D01*
X108125241Y-81059772D01*
X107792497Y-80709985D01*
X107692501Y-80592101D01*
X108732898Y-80592101D01*
X108784857Y-80693529D01*
X108917579Y-80770401D01*
X109126801Y-80845546D01*
X109612654Y-80929458D01*
X110148918Y-80879556D01*
X110670772Y-80700481D01*
X111130670Y-80402740D01*
X111284620Y-80248853D01*
X111522236Y-79934111D01*
X111728648Y-79577419D01*
X111874224Y-79232553D01*
X111929333Y-78953287D01*
X111927686Y-78875580D01*
X111902180Y-78794311D01*
X111816680Y-78755334D01*
X111634792Y-78746949D01*
X111320119Y-78757457D01*
X110710904Y-78782333D01*
X110699219Y-79544333D01*
X110696508Y-79724610D01*
X110689065Y-80107816D01*
X110675482Y-80359505D01*
X110648168Y-80507256D01*
X110599533Y-80578648D01*
X110521987Y-80601258D01*
X110407939Y-80602667D01*
X110156545Y-80602667D01*
X110132773Y-79574998D01*
X110109000Y-78547330D01*
X109368576Y-79551217D01*
X109104248Y-79912183D01*
X108888329Y-80224257D01*
X108765967Y-80443287D01*
X108732898Y-80592101D01*
X107692501Y-80592101D01*
X107643525Y-80534363D01*
X107409779Y-80201926D01*
X107218398Y-79867599D01*
X107155692Y-79735777D01*
X107061633Y-79498389D01*
X107007514Y-79262753D01*
X106982733Y-78971907D01*
X106976688Y-78568886D01*
X106976880Y-78542709D01*
X107530797Y-78542709D01*
X107601603Y-79164407D01*
X107832827Y-79759041D01*
X107934594Y-79934520D01*
X108055383Y-80110993D01*
X108129696Y-80179333D01*
X108155045Y-80164116D01*
X108268823Y-80045294D01*
X108445040Y-79834774D01*
X108659776Y-79564050D01*
X108889108Y-79264611D01*
X109109117Y-78967950D01*
X109295883Y-78705559D01*
X109425484Y-78508928D01*
X109474000Y-78409550D01*
X109463420Y-78378804D01*
X109369960Y-78233924D01*
X109203026Y-78012580D01*
X108990816Y-77748628D01*
X108761528Y-77475922D01*
X108543359Y-77228315D01*
X108364508Y-77039663D01*
X108253171Y-76943818D01*
X108242358Y-76938347D01*
X108146102Y-76945204D01*
X108029585Y-77064799D01*
X107870525Y-77318979D01*
X107868831Y-77321949D01*
X107620006Y-77919904D01*
X107530797Y-78542709D01*
X106976880Y-78542709D01*
X106978863Y-78271835D01*
X106995528Y-77960866D01*
X107038868Y-77717938D01*
X107120799Y-77484074D01*
X107253240Y-77200296D01*
X107426864Y-76891190D01*
X107634077Y-76591564D01*
X107714281Y-76501941D01*
X108625663Y-76501941D01*
X109367331Y-77426594D01*
X110109000Y-78351248D01*
X110133351Y-77467173D01*
X110144391Y-77193725D01*
X110168630Y-76861045D01*
X110199518Y-76619352D01*
X110232985Y-76507815D01*
X110339508Y-76471935D01*
X110530049Y-76488194D01*
X110751828Y-76543857D01*
X110726748Y-77409095D01*
X110701667Y-78274333D01*
X111315500Y-78299209D01*
X111395709Y-78302406D01*
X111699114Y-78305672D01*
X111868337Y-78266991D01*
X111921974Y-78157245D01*
X111878620Y-77947313D01*
X111756873Y-77608076D01*
X111690836Y-77453977D01*
X111382561Y-76987805D01*
X110959891Y-76599286D01*
X110463325Y-76328480D01*
X110103376Y-76240197D01*
X109651545Y-76215862D01*
X109209740Y-76264684D01*
X108850454Y-76384160D01*
X108625663Y-76501941D01*
X107714281Y-76501941D01*
X107822010Y-76381560D01*
X108113873Y-76125301D01*
X108137770Y-75125484D01*
X108146250Y-74799409D01*
X108159733Y-74480189D01*
X108180971Y-74279694D01*
X108216059Y-74168730D01*
X108271092Y-74118101D01*
X108352167Y-74098611D01*
X108403837Y-74092643D01*
X108470610Y-74104489D01*
X108511581Y-74169708D01*
X108533050Y-74317290D01*
X108541312Y-74576225D01*
X108542667Y-74975503D01*
X108542715Y-75057682D01*
X108545908Y-75430017D01*
X108557533Y-75665081D01*
X108582374Y-75790095D01*
X108625213Y-75832286D01*
X108690833Y-75818876D01*
X109054640Y-75697335D01*
X109696493Y-75608537D01*
X110319346Y-75671760D01*
X110903548Y-75876209D01*
X111429445Y-76211084D01*
X111877385Y-76665589D01*
X112227718Y-77228925D01*
X112460791Y-77890294D01*
X112524203Y-78157245D01*
X112560286Y-78309145D01*
G37*
%TO.C,C2*%
D13*
X101112000Y-39023420D02*
X101112000Y-39304580D01*
X102132000Y-39023420D02*
X102132000Y-39304580D01*
%TO.C,C10*%
X62264420Y-35860000D02*
X62545580Y-35860000D01*
X62264420Y-36880000D02*
X62545580Y-36880000D01*
%TO.C,R4*%
X109449742Y-36876500D02*
X109924258Y-36876500D01*
X109449742Y-37921500D02*
X109924258Y-37921500D01*
%TO.C,R11*%
X59691742Y-40178500D02*
X60166258Y-40178500D01*
X59691742Y-41223500D02*
X60166258Y-41223500D01*
%TO.C,R2*%
X82764564Y-32525000D02*
X81310436Y-32525000D01*
X82764564Y-34345000D02*
X81310436Y-34345000D01*
%TO.C,C7*%
X62530000Y-29244420D02*
X62530000Y-29525580D01*
X63550000Y-29244420D02*
X63550000Y-29525580D01*
%TO.C,R13*%
X73407742Y-31542500D02*
X73882258Y-31542500D01*
X73407742Y-32587500D02*
X73882258Y-32587500D01*
%TO.C,R14*%
X63217436Y-39712000D02*
X63671564Y-39712000D01*
X63217436Y-41182000D02*
X63671564Y-41182000D01*
%TO.C,C5*%
X106700000Y-38033420D02*
X106700000Y-38314580D01*
X107720000Y-38033420D02*
X107720000Y-38314580D01*
%TO.C,U1*%
X102822000Y-37431000D02*
X102822000Y-40651000D01*
X102822000Y-40651000D02*
X103022000Y-40651000D01*
X103022000Y-37431000D02*
X102822000Y-37431000D01*
X105842000Y-40651000D02*
X106042000Y-40651000D01*
X106042000Y-37431000D02*
X105842000Y-37431000D01*
X106042000Y-40651000D02*
X106042000Y-37431000D01*
X105842000Y-41201000D02*
X106172000Y-41441000D01*
X106172000Y-40961000D01*
X105842000Y-41201000D01*
G36*
X106172000Y-41441000D02*
G01*
X105842000Y-41201000D01*
X106172000Y-40961000D01*
X106172000Y-41441000D01*
G37*
%TD*%
%LPC*%
D15*
%TO.C,REF\u002A\u002A*%
X116000000Y-91935000D03*
%TD*%
D16*
%TO.C,Q1*%
X62405000Y-42860000D03*
D17*
X60115000Y-42860000D03*
X57825000Y-42860000D03*
%TD*%
D18*
%TO.C,R12*%
X60500000Y-75880000D03*
X52880000Y-75880000D03*
%TD*%
D19*
%TO.C,J7*%
X27940000Y-33335000D03*
D20*
X22940000Y-33335000D03*
%TD*%
D21*
%TO.C,C11*%
X70025000Y-32065000D03*
D22*
X70025000Y-34065000D03*
%TD*%
D23*
%TO.C,K1*%
X106545000Y-48070000D03*
X93545000Y-62060000D03*
D24*
X91615000Y-55560000D03*
X100045000Y-46060000D03*
D25*
X100045000Y-55970000D03*
D24*
X108475000Y-55560000D03*
X100045000Y-63970000D03*
%TD*%
D19*
%TO.C,J8*%
X53975000Y-23175000D03*
D20*
X48975000Y-23175000D03*
%TD*%
D26*
%TO.C,C12*%
X62278000Y-24953000D03*
D22*
X62278000Y-22953000D03*
%TD*%
D21*
%TO.C,D4*%
X70787000Y-37145000D03*
D22*
X70787000Y-39685000D03*
%TD*%
%TO.C,R7*%
X108760000Y-21905000D03*
X106220000Y-21905000D03*
%TD*%
D27*
%TO.C,J13*%
X109374560Y-66398507D03*
D28*
X109374560Y-68898507D03*
%TD*%
D29*
%TO.C,D6*%
X24940000Y-73975000D03*
D30*
X22400000Y-73975000D03*
%TD*%
D31*
%TO.C,J2*%
X42935000Y-90485000D03*
D32*
X35735000Y-90485000D03*
%TD*%
D33*
%TO.C,J1*%
X83170000Y-30510000D03*
X96670000Y-30510000D03*
D34*
X86320000Y-36510000D03*
D35*
X93520000Y-36510000D03*
%TD*%
D36*
%TO.C,U2*%
X57965000Y-30165000D03*
D22*
X57965000Y-32705000D03*
X57965000Y-35245000D03*
X57965000Y-37785000D03*
X65585000Y-37785000D03*
X65585000Y-35245000D03*
X65585000Y-32705000D03*
X65585000Y-30165000D03*
%TD*%
D15*
%TO.C,REF\u002A\u002A*%
X24000000Y-91935000D03*
%TD*%
D31*
%TO.C,J5*%
X96275000Y-90485000D03*
D32*
X89075000Y-90485000D03*
%TD*%
D22*
%TO.C,R10*%
X22400000Y-64450000D03*
X22400000Y-66990000D03*
%TD*%
D23*
%TO.C,K3*%
X44775000Y-48070000D03*
X31775000Y-62060000D03*
D24*
X29845000Y-55560000D03*
X38275000Y-46060000D03*
D25*
X38275000Y-55970000D03*
D24*
X46705000Y-55560000D03*
X38275000Y-63970000D03*
%TD*%
D23*
%TO.C,K2*%
X75715000Y-48045000D03*
X62715000Y-62035000D03*
D24*
X60785000Y-55535000D03*
X69215000Y-46035000D03*
D25*
X69215000Y-55945000D03*
D24*
X77645000Y-55535000D03*
X69215000Y-63945000D03*
%TD*%
D29*
%TO.C,D3*%
X101775000Y-24445000D03*
D30*
X101775000Y-21905000D03*
%TD*%
D29*
%TO.C,D5*%
X24940000Y-84135000D03*
D30*
X22400000Y-84135000D03*
%TD*%
D37*
%TO.C,RV2*%
X74343000Y-37145000D03*
D38*
X76883000Y-34605000D03*
X79423000Y-37145000D03*
%TD*%
D31*
%TO.C,J3*%
X60715000Y-90485000D03*
D32*
X53515000Y-90485000D03*
%TD*%
D39*
%TO.C,J10*%
X70486000Y-24953000D03*
D40*
X72986000Y-24953000D03*
X75486000Y-24953000D03*
X77986000Y-24953000D03*
%TD*%
D15*
%TO.C,REF\u002A\u002A*%
X24000000Y-23935000D03*
%TD*%
%TO.C,REF\u002A\u002A*%
X116000000Y-23935000D03*
%TD*%
D41*
%TO.C,J12*%
X115745000Y-79335000D03*
D28*
X115745000Y-76835000D03*
%TD*%
D22*
%TO.C,R9*%
X24940000Y-79055000D03*
X22400000Y-79055000D03*
%TD*%
D31*
%TO.C,J4*%
X78495000Y-90485000D03*
D32*
X71295000Y-90485000D03*
%TD*%
D18*
%TO.C,R17*%
X43355000Y-73340000D03*
X38275000Y-73340000D03*
%TD*%
D41*
%TO.C,J19*%
X30020000Y-46670000D03*
D28*
X30020000Y-44170000D03*
%TD*%
D19*
%TO.C,J6*%
X37465000Y-23175000D03*
D20*
X32465000Y-23175000D03*
%TD*%
D19*
%TO.C,J9*%
X44450000Y-33335000D03*
D20*
X39450000Y-33335000D03*
%TD*%
D42*
%TO.C,REF\u002A\u002A*%
X68000000Y-76515000D03*
X94000000Y-76515000D03*
%TD*%
D43*
%TO.C,F1*%
X102918000Y-30160000D03*
D44*
X102918000Y-33563600D03*
X116380000Y-30160000D03*
X116380000Y-33563600D03*
%TD*%
D45*
%TO.C,U3*%
X53515000Y-35875000D03*
D46*
X53515000Y-33335000D03*
X53515000Y-30795000D03*
%TD*%
D18*
%TO.C,R8*%
X103030000Y-73340000D03*
X97950000Y-73340000D03*
%TD*%
D47*
%TO.C,R6*%
X110512000Y-39147000D03*
X108862000Y-39147000D03*
%TD*%
D48*
%TO.C,C17*%
X53515000Y-28255000D03*
X51965000Y-28255000D03*
%TD*%
D49*
%TO.C,C18*%
X50975000Y-33970000D03*
X50975000Y-32070000D03*
%TD*%
D47*
%TO.C,R3*%
X109077000Y-41463000D03*
X107427000Y-41463000D03*
%TD*%
D48*
%TO.C,C1*%
X107236000Y-43241000D03*
X105686000Y-43241000D03*
%TD*%
D50*
%TO.C,C2*%
X101622000Y-38389000D03*
X101622000Y-39939000D03*
%TD*%
D51*
%TO.C,C10*%
X61630000Y-36370000D03*
X63180000Y-36370000D03*
%TD*%
D52*
%TO.C,R4*%
X108862000Y-37399000D03*
X110512000Y-37399000D03*
%TD*%
D53*
%TO.C,R5*%
X116380000Y-42180000D03*
D54*
X116380000Y-40630000D03*
X116380000Y-39330000D03*
D53*
X116380000Y-37780000D03*
%TD*%
D52*
%TO.C,R11*%
X59104000Y-40701000D03*
X60754000Y-40701000D03*
%TD*%
D55*
%TO.C,R2*%
X83500000Y-33435000D03*
X80575000Y-33435000D03*
%TD*%
D50*
%TO.C,C7*%
X63040000Y-28610000D03*
X63040000Y-30160000D03*
%TD*%
D52*
%TO.C,R13*%
X72820000Y-32065000D03*
X74470000Y-32065000D03*
%TD*%
D56*
%TO.C,R14*%
X62532000Y-40447000D03*
X64357000Y-40447000D03*
%TD*%
D50*
%TO.C,C5*%
X107210000Y-37399000D03*
X107210000Y-38949000D03*
%TD*%
D57*
%TO.C,U1*%
X105432000Y-41191000D03*
X104932000Y-41191000D03*
X104432000Y-41191000D03*
X103932000Y-41191000D03*
X103432000Y-41191000D03*
X103432000Y-36891000D03*
X103932000Y-36891000D03*
X104432000Y-36891000D03*
X104932000Y-36891000D03*
X105432000Y-36891000D03*
%TD*%
G36*
X96003039Y-44784685D02*
G01*
X96048794Y-44837489D01*
X96060000Y-44889000D01*
X96060000Y-59881000D01*
X96040315Y-59948039D01*
X95987511Y-59993794D01*
X95936000Y-60005000D01*
X90980000Y-60005000D01*
X90980000Y-69406000D01*
X90960315Y-69473039D01*
X90907511Y-69518794D01*
X90856000Y-69530000D01*
X73324000Y-69530000D01*
X73256961Y-69510315D01*
X73211206Y-69457511D01*
X73200000Y-69406000D01*
X73200000Y-50604000D01*
X73219685Y-50536961D01*
X73272489Y-50491206D01*
X73324000Y-50480000D01*
X78280000Y-50480000D01*
X78280000Y-44889000D01*
X78299685Y-44821961D01*
X78352489Y-44776206D01*
X78404000Y-44765000D01*
X95936000Y-44765000D01*
X96003039Y-44784685D01*
G37*
G36*
X119498039Y-28274685D02*
G01*
X119543794Y-28327489D01*
X119555000Y-28379000D01*
X119555000Y-39011000D01*
X119535315Y-39078039D01*
X119482511Y-39123794D01*
X119431000Y-39135000D01*
X113370365Y-39135000D01*
X113303326Y-39115315D01*
X113267191Y-39079783D01*
X111320826Y-36160236D01*
X111300018Y-36093537D01*
X111300000Y-36091453D01*
X111300000Y-28379000D01*
X111319685Y-28311961D01*
X111372489Y-28266206D01*
X111424000Y-28255000D01*
X119431000Y-28255000D01*
X119498039Y-28274685D01*
G37*
G36*
X119371039Y-40720685D02*
G01*
X119416794Y-40773489D01*
X119428000Y-40825000D01*
X119428000Y-58357000D01*
X119408315Y-58424039D01*
X119355511Y-58469794D01*
X119304000Y-58481000D01*
X104312000Y-58481000D01*
X104244961Y-58461315D01*
X104199206Y-58408511D01*
X104188000Y-58357000D01*
X104188000Y-49969000D01*
X104207685Y-49901961D01*
X104260489Y-49856206D01*
X104312000Y-49845000D01*
X108252000Y-49845000D01*
X108252000Y-40825000D01*
X108271685Y-40757961D01*
X108324489Y-40712206D01*
X108376000Y-40701000D01*
X119304000Y-40701000D01*
X119371039Y-40720685D01*
G37*
G36*
X34443039Y-49454685D02*
G01*
X34488794Y-49507489D01*
X34500000Y-49559000D01*
X34500000Y-58811000D01*
X34480315Y-58878039D01*
X34427511Y-58923794D01*
X34376000Y-58935000D01*
X31499999Y-58935000D01*
X29500000Y-60934999D01*
X29500000Y-63435001D01*
X34457729Y-68387621D01*
X34491246Y-68448926D01*
X34494093Y-68475283D01*
X34500000Y-79935000D01*
X92876000Y-79935000D01*
X92943039Y-79954685D01*
X92988794Y-80007489D01*
X93000000Y-80059000D01*
X93000000Y-95811000D01*
X92980315Y-95878039D01*
X92927511Y-95923794D01*
X92876000Y-95935000D01*
X28124000Y-95935000D01*
X28056961Y-95915315D01*
X28011206Y-95862511D01*
X28000000Y-95811000D01*
X28000000Y-72935000D01*
X27999999Y-72934999D01*
X25044617Y-70472180D01*
X25005718Y-70414141D01*
X25000000Y-70376921D01*
X25000000Y-61476333D01*
X25019685Y-61409294D01*
X25024800Y-61401933D01*
X26500000Y-59434999D01*
X26500000Y-49559000D01*
X26519685Y-49491961D01*
X26572489Y-49446206D01*
X26624000Y-49435000D01*
X34376000Y-49435000D01*
X34443039Y-49454685D01*
G37*
G36*
X105528039Y-28274685D02*
G01*
X105573794Y-28327489D01*
X105585000Y-28379000D01*
X105585000Y-34481000D01*
X105565315Y-34548039D01*
X105512511Y-34593794D01*
X105461000Y-34605000D01*
X98600000Y-34605000D01*
X98600000Y-40196000D01*
X98580315Y-40263039D01*
X98527511Y-40308794D01*
X98476000Y-40320000D01*
X89834000Y-40320000D01*
X89766961Y-40300315D01*
X89721206Y-40247511D01*
X89710000Y-40196000D01*
X89710000Y-28379000D01*
X89729685Y-28311961D01*
X89782489Y-28266206D01*
X89834000Y-28255000D01*
X105461000Y-28255000D01*
X105528039Y-28274685D01*
G37*
%LPD*%
M02*
