M48
; DRILL file KiCad 10.0.3-10.0.3~ubuntu26.04.1 date 2026-06-22T17:48:36
; FORMAT={-:-/ absolute / inch / decimal}
; #@! TF.CreationDate,2026-06-22T17:48:36+09:00
; #@! TF.GenerationSoftware,Kicad,Pcbnew,10.0.3-10.0.3~ubuntu26.04.1
; #@! TF.FileFunction,Plated,1,2,PTH
FMAT,2
INCH
; #@! TA.AperFunction,Plated,PTH,ViaDrill
T1C0.0118
; #@! TA.AperFunction,Plated,PTH,ComponentDrill
T2C0.0315
; #@! TA.AperFunction,Plated,PTH,ComponentDrill
T3C0.0394
%
G90
G05
T1
X0.9843Y-1.1811
X0.9843Y-1.378
X0.9843Y-1.5748
X0.9843Y-1.7717
X1.1811Y-0.9843
X1.1811Y-1.1811
X1.1811Y-1.378
X1.1811Y-1.5748
X1.1811Y-1.7717
X1.378Y-0.9843
X1.378Y-1.1811
X1.378Y-1.378
X1.378Y-1.5748
X1.378Y-1.7717
X1.5748Y-0.9843
X1.5748Y-1.1811
X1.5748Y-1.378
X1.5748Y-1.5748
X1.5748Y-1.7717
X1.7717Y-0.9843
X1.7717Y-1.1811
X1.7717Y-1.378
X1.7717Y-1.5748
X1.7717Y-1.7717
X1.9685Y-0.9843
X1.9685Y-1.1811
X1.9685Y-1.378
X1.9685Y-1.5748
X1.9685Y-1.7717
X1.9685Y-2.7559
X2.0472Y-2.5984
X2.1654Y-0.9843
X2.1654Y-1.1811
X2.1654Y-1.378
X2.1654Y-1.5748
X2.1654Y-1.7717
X2.1654Y-2.7559
X2.3622Y-1.1811
X2.3622Y-1.378
X2.3622Y-1.5748
X2.3622Y-1.7717
X2.3622Y-2.7559
T2
X0.9213Y-2.2675
X1.1181Y-2.2675
X1.2699Y-2.3925
X1.4077Y-2.3925
T3
X0.8963Y-2.5925
X1.0931Y-2.5925
X1.3022Y-1.9425
X1.3431Y-2.6449
X1.4006Y-1.9425
X1.4431Y-2.6449
X1.499Y-1.9425
X1.5431Y-2.6449
X1.623Y-2.3675
X1.6431Y-2.6449
X1.6959Y-1.9425
X1.7431Y-2.6449
X1.7943Y-1.9425
X1.8199Y-2.3675
X1.8431Y-2.6449
X1.8927Y-1.9425
X1.9431Y-2.6449
X1.9911Y-1.9425
X2.0431Y-2.3675
X2.24Y-2.3675
T2
G00X0.94Y-0.8736
M15
G01X1.0069Y-0.8736
M16
G05
G00X0.94Y-2.0665
M15
G01X1.0069Y-2.0665
M16
G05
G00X2.2864Y-0.8736
M15
G01X2.3533Y-0.8736
M16
G05
G00X2.2864Y-2.0665
M15
G01X2.3533Y-2.0665
M16
G05
M30
