%TF.GenerationSoftware,KiCad,Pcbnew,10.0.3-10.0.3~ubuntu26.04.1*%
%TF.CreationDate,2026-06-22T17:48:36+09:00*%
%TF.ProjectId,YDS512F_Unit,59445335-3132-4465-9f55-6e69742e6b69,rev?*%
%TF.SameCoordinates,Original*%
%TF.FileFunction,Legend,Top*%
%TF.FilePolarity,Positive*%
%FSLAX46Y46*%
G04 Gerber Fmt 4.6, Leading zero omitted, Abs format (unit mm)*
G04 Created by KiCad (PCBNEW 10.0.3-10.0.3~ubuntu26.04.1) date 2026-06-22 17:48:36*
%MOMM*%
%LPD*%
G01*
G04 APERTURE LIST*
G04 Aperture macros list*
%AMRoundRect*
0 Rectangle with rounded corners*
0 $1 Rounding radius*
0 $2 $3 $4 $5 $6 $7 $8 $9 X,Y pos of 4 corners*
0 Add a 4 corners polygon primitive as box body*
4,1,4,$2,$3,$4,$5,$6,$7,$8,$9,$2,$3,0*
0 Add four circle primitives for the rounded corners*
1,1,$1+$1,$2,$3*
1,1,$1+$1,$4,$5*
1,1,$1+$1,$6,$7*
1,1,$1+$1,$8,$9*
0 Add four rect primitives between the rounded corners*
20,1,$1+$1,$2,$3,$4,$5,0*
20,1,$1+$1,$4,$5,$6,$7,0*
20,1,$1+$1,$6,$7,$8,$9,0*
20,1,$1+$1,$8,$9,$2,$3,0*%
G04 Aperture macros list end*
%ADD10C,0.150000*%
%ADD11C,0.120000*%
%ADD12C,0.250000*%
%ADD13RoundRect,0.250000X-0.750000X-0.750000X0.750000X-0.750000X0.750000X0.750000X-0.750000X0.750000X0*%
%ADD14C,2.000000*%
%ADD15RoundRect,0.250000X0.750000X0.750000X-0.750000X0.750000X-0.750000X-0.750000X0.750000X-0.750000X0*%
%ADD16RoundRect,0.250000X-0.550000X-0.550000X0.550000X-0.550000X0.550000X0.550000X-0.550000X0.550000X0*%
%ADD17C,1.600000*%
%ADD18R,1.700000X1.700000*%
%ADD19C,1.700000*%
%ADD20O,4.100000X2.400000*%
G04 APERTURE END LIST*
D10*
X59983333Y-56429580D02*
X59935714Y-56477200D01*
X59935714Y-56477200D02*
X59792857Y-56524819D01*
X59792857Y-56524819D02*
X59697619Y-56524819D01*
X59697619Y-56524819D02*
X59554762Y-56477200D01*
X59554762Y-56477200D02*
X59459524Y-56381961D01*
X59459524Y-56381961D02*
X59411905Y-56286723D01*
X59411905Y-56286723D02*
X59364286Y-56096247D01*
X59364286Y-56096247D02*
X59364286Y-55953390D01*
X59364286Y-55953390D02*
X59411905Y-55762914D01*
X59411905Y-55762914D02*
X59459524Y-55667676D01*
X59459524Y-55667676D02*
X59554762Y-55572438D01*
X59554762Y-55572438D02*
X59697619Y-55524819D01*
X59697619Y-55524819D02*
X59792857Y-55524819D01*
X59792857Y-55524819D02*
X59935714Y-55572438D01*
X59935714Y-55572438D02*
X59983333Y-55620057D01*
X60840476Y-55858152D02*
X60840476Y-56524819D01*
X60602381Y-55477200D02*
X60364286Y-56191485D01*
X60364286Y-56191485D02*
X60983333Y-56191485D01*
X47963333Y-56049580D02*
X47915714Y-56097200D01*
X47915714Y-56097200D02*
X47772857Y-56144819D01*
X47772857Y-56144819D02*
X47677619Y-56144819D01*
X47677619Y-56144819D02*
X47534762Y-56097200D01*
X47534762Y-56097200D02*
X47439524Y-56001961D01*
X47439524Y-56001961D02*
X47391905Y-55906723D01*
X47391905Y-55906723D02*
X47344286Y-55716247D01*
X47344286Y-55716247D02*
X47344286Y-55573390D01*
X47344286Y-55573390D02*
X47391905Y-55382914D01*
X47391905Y-55382914D02*
X47439524Y-55287676D01*
X47439524Y-55287676D02*
X47534762Y-55192438D01*
X47534762Y-55192438D02*
X47677619Y-55144819D01*
X47677619Y-55144819D02*
X47772857Y-55144819D01*
X47772857Y-55144819D02*
X47915714Y-55192438D01*
X47915714Y-55192438D02*
X47963333Y-55240057D01*
X48868095Y-55144819D02*
X48391905Y-55144819D01*
X48391905Y-55144819D02*
X48344286Y-55621009D01*
X48344286Y-55621009D02*
X48391905Y-55573390D01*
X48391905Y-55573390D02*
X48487143Y-55525771D01*
X48487143Y-55525771D02*
X48725238Y-55525771D01*
X48725238Y-55525771D02*
X48820476Y-55573390D01*
X48820476Y-55573390D02*
X48868095Y-55621009D01*
X48868095Y-55621009D02*
X48915714Y-55716247D01*
X48915714Y-55716247D02*
X48915714Y-55954342D01*
X48915714Y-55954342D02*
X48868095Y-56049580D01*
X48868095Y-56049580D02*
X48820476Y-56097200D01*
X48820476Y-56097200D02*
X48725238Y-56144819D01*
X48725238Y-56144819D02*
X48487143Y-56144819D01*
X48487143Y-56144819D02*
X48391905Y-56097200D01*
X48391905Y-56097200D02*
X48344286Y-56049580D01*
X33993333Y-56049580D02*
X33945714Y-56097200D01*
X33945714Y-56097200D02*
X33802857Y-56144819D01*
X33802857Y-56144819D02*
X33707619Y-56144819D01*
X33707619Y-56144819D02*
X33564762Y-56097200D01*
X33564762Y-56097200D02*
X33469524Y-56001961D01*
X33469524Y-56001961D02*
X33421905Y-55906723D01*
X33421905Y-55906723D02*
X33374286Y-55716247D01*
X33374286Y-55716247D02*
X33374286Y-55573390D01*
X33374286Y-55573390D02*
X33421905Y-55382914D01*
X33421905Y-55382914D02*
X33469524Y-55287676D01*
X33469524Y-55287676D02*
X33564762Y-55192438D01*
X33564762Y-55192438D02*
X33707619Y-55144819D01*
X33707619Y-55144819D02*
X33802857Y-55144819D01*
X33802857Y-55144819D02*
X33945714Y-55192438D01*
X33945714Y-55192438D02*
X33993333Y-55240057D01*
X34374286Y-55240057D02*
X34421905Y-55192438D01*
X34421905Y-55192438D02*
X34517143Y-55144819D01*
X34517143Y-55144819D02*
X34755238Y-55144819D01*
X34755238Y-55144819D02*
X34850476Y-55192438D01*
X34850476Y-55192438D02*
X34898095Y-55240057D01*
X34898095Y-55240057D02*
X34945714Y-55335295D01*
X34945714Y-55335295D02*
X34945714Y-55430533D01*
X34945714Y-55430533D02*
X34898095Y-55573390D01*
X34898095Y-55573390D02*
X34326667Y-56144819D01*
X34326667Y-56144819D02*
X34945714Y-56144819D01*
X29503333Y-71034580D02*
X29455714Y-71082200D01*
X29455714Y-71082200D02*
X29312857Y-71129819D01*
X29312857Y-71129819D02*
X29217619Y-71129819D01*
X29217619Y-71129819D02*
X29074762Y-71082200D01*
X29074762Y-71082200D02*
X28979524Y-70986961D01*
X28979524Y-70986961D02*
X28931905Y-70891723D01*
X28931905Y-70891723D02*
X28884286Y-70701247D01*
X28884286Y-70701247D02*
X28884286Y-70558390D01*
X28884286Y-70558390D02*
X28931905Y-70367914D01*
X28931905Y-70367914D02*
X28979524Y-70272676D01*
X28979524Y-70272676D02*
X29074762Y-70177438D01*
X29074762Y-70177438D02*
X29217619Y-70129819D01*
X29217619Y-70129819D02*
X29312857Y-70129819D01*
X29312857Y-70129819D02*
X29455714Y-70177438D01*
X29455714Y-70177438D02*
X29503333Y-70225057D01*
X30455714Y-71129819D02*
X29884286Y-71129819D01*
X30170000Y-71129819D02*
X30170000Y-70129819D01*
X30170000Y-70129819D02*
X30074762Y-70272676D01*
X30074762Y-70272676D02*
X29979524Y-70367914D01*
X29979524Y-70367914D02*
X29884286Y-70415533D01*
X51454819Y-69333333D02*
X52169104Y-69333333D01*
X52169104Y-69333333D02*
X52311961Y-69380952D01*
X52311961Y-69380952D02*
X52407200Y-69476190D01*
X52407200Y-69476190D02*
X52454819Y-69619047D01*
X52454819Y-69619047D02*
X52454819Y-69714285D01*
X52454819Y-68333333D02*
X52454819Y-68904761D01*
X52454819Y-68619047D02*
X51454819Y-68619047D01*
X51454819Y-68619047D02*
X51597676Y-68714285D01*
X51597676Y-68714285D02*
X51692914Y-68809523D01*
X51692914Y-68809523D02*
X51740533Y-68904761D01*
X30773333Y-55794580D02*
X30725714Y-55842200D01*
X30725714Y-55842200D02*
X30582857Y-55889819D01*
X30582857Y-55889819D02*
X30487619Y-55889819D01*
X30487619Y-55889819D02*
X30344762Y-55842200D01*
X30344762Y-55842200D02*
X30249524Y-55746961D01*
X30249524Y-55746961D02*
X30201905Y-55651723D01*
X30201905Y-55651723D02*
X30154286Y-55461247D01*
X30154286Y-55461247D02*
X30154286Y-55318390D01*
X30154286Y-55318390D02*
X30201905Y-55127914D01*
X30201905Y-55127914D02*
X30249524Y-55032676D01*
X30249524Y-55032676D02*
X30344762Y-54937438D01*
X30344762Y-54937438D02*
X30487619Y-54889819D01*
X30487619Y-54889819D02*
X30582857Y-54889819D01*
X30582857Y-54889819D02*
X30725714Y-54937438D01*
X30725714Y-54937438D02*
X30773333Y-54985057D01*
X31106667Y-54889819D02*
X31725714Y-54889819D01*
X31725714Y-54889819D02*
X31392381Y-55270771D01*
X31392381Y-55270771D02*
X31535238Y-55270771D01*
X31535238Y-55270771D02*
X31630476Y-55318390D01*
X31630476Y-55318390D02*
X31678095Y-55366009D01*
X31678095Y-55366009D02*
X31725714Y-55461247D01*
X31725714Y-55461247D02*
X31725714Y-55699342D01*
X31725714Y-55699342D02*
X31678095Y-55794580D01*
X31678095Y-55794580D02*
X31630476Y-55842200D01*
X31630476Y-55842200D02*
X31535238Y-55889819D01*
X31535238Y-55889819D02*
X31249524Y-55889819D01*
X31249524Y-55889819D02*
X31154286Y-55842200D01*
X31154286Y-55842200D02*
X31106667Y-55794580D01*
%TO.C,C4*%
D11*
X48915354Y-57260000D02*
X49915354Y-57260000D01*
X49415354Y-56760000D02*
X49415354Y-57760000D01*
X54395000Y-55055000D02*
X54395000Y-65215000D01*
X54435000Y-55055000D02*
X54435000Y-65215000D01*
X54475000Y-55056000D02*
X54475000Y-65214000D01*
X54515000Y-55056000D02*
X54515000Y-65214000D01*
X54555000Y-55058000D02*
X54555000Y-65212000D01*
X54595000Y-55059000D02*
X54595000Y-65211000D01*
X54635000Y-55061000D02*
X54635000Y-65209000D01*
X54675000Y-55063000D02*
X54675000Y-65207000D01*
X54715000Y-55065000D02*
X54715000Y-65205000D01*
X54755000Y-55068000D02*
X54755000Y-65202000D01*
X54795000Y-55071000D02*
X54795000Y-65199000D01*
X54835000Y-55074000D02*
X54835000Y-65196000D01*
X54875000Y-55078000D02*
X54875000Y-65192000D01*
X54915000Y-55081000D02*
X54915000Y-65189000D01*
X54955000Y-55086000D02*
X54955000Y-65184000D01*
X54995000Y-55090000D02*
X54995000Y-65180000D01*
X55035000Y-55095000D02*
X55035000Y-65175000D01*
X55075000Y-55100000D02*
X55075000Y-65170000D01*
X55115000Y-55106000D02*
X55115000Y-65164000D01*
X55155000Y-55112000D02*
X55155000Y-65158000D01*
X55195000Y-55118000D02*
X55195000Y-65152000D01*
X55235000Y-55124000D02*
X55235000Y-65146000D01*
X55275000Y-55131000D02*
X55275000Y-65139000D01*
X55315000Y-55138000D02*
X55315000Y-65132000D01*
X55355000Y-55146000D02*
X55355000Y-65124000D01*
X55395000Y-55154000D02*
X55395000Y-65116000D01*
X55435000Y-55162000D02*
X55435000Y-65108000D01*
X55475000Y-55170000D02*
X55475000Y-65100000D01*
X55515000Y-55179000D02*
X55515000Y-65091000D01*
X55555000Y-55188000D02*
X55555000Y-65082000D01*
X55595000Y-55198000D02*
X55595000Y-65072000D01*
X55635000Y-55207000D02*
X55635000Y-65063000D01*
X55675000Y-55218000D02*
X55675000Y-58895000D01*
X55675000Y-61375000D02*
X55675000Y-65052000D01*
X55715000Y-55228000D02*
X55715000Y-58895000D01*
X55715000Y-61375000D02*
X55715000Y-65042000D01*
X55755000Y-55239000D02*
X55755000Y-58895000D01*
X55755000Y-61375000D02*
X55755000Y-65031000D01*
X55795000Y-55250000D02*
X55795000Y-58895000D01*
X55795000Y-61375000D02*
X55795000Y-65020000D01*
X55835000Y-55262000D02*
X55835000Y-58895000D01*
X55835000Y-61375000D02*
X55835000Y-65008000D01*
X55875000Y-55274000D02*
X55875000Y-58895000D01*
X55875000Y-61375000D02*
X55875000Y-64996000D01*
X55915000Y-55286000D02*
X55915000Y-58895000D01*
X55915000Y-61375000D02*
X55915000Y-64984000D01*
X55955000Y-55298000D02*
X55955000Y-58895000D01*
X55955000Y-61375000D02*
X55955000Y-64972000D01*
X55995000Y-55311000D02*
X55995000Y-58895000D01*
X55995000Y-61375000D02*
X55995000Y-64959000D01*
X56035000Y-55325000D02*
X56035000Y-58895000D01*
X56035000Y-61375000D02*
X56035000Y-64945000D01*
X56075000Y-55338000D02*
X56075000Y-58895000D01*
X56075000Y-61375000D02*
X56075000Y-64932000D01*
X56115000Y-55353000D02*
X56115000Y-58895000D01*
X56115000Y-61375000D02*
X56115000Y-64917000D01*
X56155000Y-55367000D02*
X56155000Y-58895000D01*
X56155000Y-61375000D02*
X56155000Y-64903000D01*
X56195000Y-55382000D02*
X56195000Y-58895000D01*
X56195000Y-61375000D02*
X56195000Y-64888000D01*
X56235000Y-55397000D02*
X56235000Y-58895000D01*
X56235000Y-61375000D02*
X56235000Y-64873000D01*
X56275000Y-55413000D02*
X56275000Y-58895000D01*
X56275000Y-61375000D02*
X56275000Y-64857000D01*
X56315000Y-55429000D02*
X56315000Y-58895000D01*
X56315000Y-61375000D02*
X56315000Y-64841000D01*
X56355000Y-55445000D02*
X56355000Y-58895000D01*
X56355000Y-61375000D02*
X56355000Y-64825000D01*
X56395000Y-55462000D02*
X56395000Y-58895000D01*
X56395000Y-61375000D02*
X56395000Y-64808000D01*
X56435000Y-55479000D02*
X56435000Y-58895000D01*
X56435000Y-61375000D02*
X56435000Y-64791000D01*
X56475000Y-55497000D02*
X56475000Y-58895000D01*
X56475000Y-61375000D02*
X56475000Y-64773000D01*
X56515000Y-55515000D02*
X56515000Y-58895000D01*
X56515000Y-61375000D02*
X56515000Y-64755000D01*
X56555000Y-55533000D02*
X56555000Y-58895000D01*
X56555000Y-61375000D02*
X56555000Y-64737000D01*
X56595000Y-55552000D02*
X56595000Y-58895000D01*
X56595000Y-61375000D02*
X56595000Y-64718000D01*
X56635000Y-55571000D02*
X56635000Y-58895000D01*
X56635000Y-61375000D02*
X56635000Y-64699000D01*
X56675000Y-55591000D02*
X56675000Y-58895000D01*
X56675000Y-61375000D02*
X56675000Y-64679000D01*
X56715000Y-55611000D02*
X56715000Y-58895000D01*
X56715000Y-61375000D02*
X56715000Y-64659000D01*
X56755000Y-55631000D02*
X56755000Y-58895000D01*
X56755000Y-61375000D02*
X56755000Y-64639000D01*
X56795000Y-55652000D02*
X56795000Y-58895000D01*
X56795000Y-61375000D02*
X56795000Y-64618000D01*
X56835000Y-55674000D02*
X56835000Y-58895000D01*
X56835000Y-61375000D02*
X56835000Y-64596000D01*
X56875000Y-55696000D02*
X56875000Y-58895000D01*
X56875000Y-61375000D02*
X56875000Y-64574000D01*
X56915000Y-55718000D02*
X56915000Y-58895000D01*
X56915000Y-61375000D02*
X56915000Y-64552000D01*
X56955000Y-55741000D02*
X56955000Y-58895000D01*
X56955000Y-61375000D02*
X56955000Y-64529000D01*
X56995000Y-55764000D02*
X56995000Y-58895000D01*
X56995000Y-61375000D02*
X56995000Y-64506000D01*
X57035000Y-55788000D02*
X57035000Y-58895000D01*
X57035000Y-61375000D02*
X57035000Y-64482000D01*
X57075000Y-55812000D02*
X57075000Y-58895000D01*
X57075000Y-61375000D02*
X57075000Y-64458000D01*
X57115000Y-55837000D02*
X57115000Y-58895000D01*
X57115000Y-61375000D02*
X57115000Y-64433000D01*
X57155000Y-55863000D02*
X57155000Y-58895000D01*
X57155000Y-61375000D02*
X57155000Y-64407000D01*
X57195000Y-55888000D02*
X57195000Y-58895000D01*
X57195000Y-61375000D02*
X57195000Y-64382000D01*
X57235000Y-55915000D02*
X57235000Y-58895000D01*
X57235000Y-61375000D02*
X57235000Y-64355000D01*
X57275000Y-55942000D02*
X57275000Y-58895000D01*
X57275000Y-61375000D02*
X57275000Y-64328000D01*
X57315000Y-55969000D02*
X57315000Y-58895000D01*
X57315000Y-61375000D02*
X57315000Y-64301000D01*
X57355000Y-55997000D02*
X57355000Y-58895000D01*
X57355000Y-61375000D02*
X57355000Y-64273000D01*
X57395000Y-56026000D02*
X57395000Y-58895000D01*
X57395000Y-61375000D02*
X57395000Y-64244000D01*
X57435000Y-56055000D02*
X57435000Y-58895000D01*
X57435000Y-61375000D02*
X57435000Y-64215000D01*
X57475000Y-56085000D02*
X57475000Y-58895000D01*
X57475000Y-61375000D02*
X57475000Y-64185000D01*
X57515000Y-56115000D02*
X57515000Y-58895000D01*
X57515000Y-61375000D02*
X57515000Y-64155000D01*
X57555000Y-56147000D02*
X57555000Y-58895000D01*
X57555000Y-61375000D02*
X57555000Y-64123000D01*
X57595000Y-56178000D02*
X57595000Y-58895000D01*
X57595000Y-61375000D02*
X57595000Y-64092000D01*
X57635000Y-56211000D02*
X57635000Y-58895000D01*
X57635000Y-61375000D02*
X57635000Y-64059000D01*
X57675000Y-56244000D02*
X57675000Y-58895000D01*
X57675000Y-61375000D02*
X57675000Y-64026000D01*
X57715000Y-56277000D02*
X57715000Y-58895000D01*
X57715000Y-61375000D02*
X57715000Y-63993000D01*
X57755000Y-56312000D02*
X57755000Y-58895000D01*
X57755000Y-61375000D02*
X57755000Y-63958000D01*
X57795000Y-56347000D02*
X57795000Y-58895000D01*
X57795000Y-61375000D02*
X57795000Y-63923000D01*
X57835000Y-56383000D02*
X57835000Y-58895000D01*
X57835000Y-61375000D02*
X57835000Y-63887000D01*
X57875000Y-56419000D02*
X57875000Y-58895000D01*
X57875000Y-61375000D02*
X57875000Y-63851000D01*
X57915000Y-56457000D02*
X57915000Y-58895000D01*
X57915000Y-61375000D02*
X57915000Y-63813000D01*
X57955000Y-56495000D02*
X57955000Y-58895000D01*
X57955000Y-61375000D02*
X57955000Y-63775000D01*
X57995000Y-56534000D02*
X57995000Y-58895000D01*
X57995000Y-61375000D02*
X57995000Y-63736000D01*
X58035000Y-56574000D02*
X58035000Y-58895000D01*
X58035000Y-61375000D02*
X58035000Y-63696000D01*
X58075000Y-56615000D02*
X58075000Y-58895000D01*
X58075000Y-61375000D02*
X58075000Y-63655000D01*
X58115000Y-56657000D02*
X58115000Y-58895000D01*
X58115000Y-61375000D02*
X58115000Y-63613000D01*
X58155000Y-56700000D02*
X58155000Y-63570000D01*
X58195000Y-56744000D02*
X58195000Y-63526000D01*
X58235000Y-56788000D02*
X58235000Y-63482000D01*
X58275000Y-56834000D02*
X58275000Y-63436000D01*
X58315000Y-56881000D02*
X58315000Y-63389000D01*
X58355000Y-56930000D02*
X58355000Y-63340000D01*
X58395000Y-56979000D02*
X58395000Y-63291000D01*
X58435000Y-57030000D02*
X58435000Y-63240000D01*
X58475000Y-57082000D02*
X58475000Y-63188000D01*
X58515000Y-57135000D02*
X58515000Y-63135000D01*
X58555000Y-57190000D02*
X58555000Y-63080000D01*
X58595000Y-57247000D02*
X58595000Y-63023000D01*
X58635000Y-57305000D02*
X58635000Y-62965000D01*
X58675000Y-57365000D02*
X58675000Y-62905000D01*
X58715000Y-57427000D02*
X58715000Y-62843000D01*
X58755000Y-57491000D02*
X58755000Y-62779000D01*
X58795000Y-57557000D02*
X58795000Y-62713000D01*
X58835000Y-57625000D02*
X58835000Y-62645000D01*
X58875000Y-57696000D02*
X58875000Y-62574000D01*
X58915000Y-57770000D02*
X58915000Y-62500000D01*
X58955000Y-57847000D02*
X58955000Y-62423000D01*
X58995000Y-57927000D02*
X58995000Y-62343000D01*
X59035000Y-58011000D02*
X59035000Y-62259000D01*
X59075000Y-58098000D02*
X59075000Y-62172000D01*
X59115000Y-58191000D02*
X59115000Y-62079000D01*
X59155000Y-58289000D02*
X59155000Y-61981000D01*
X59195000Y-58393000D02*
X59195000Y-61877000D01*
X59235000Y-58505000D02*
X59235000Y-61765000D01*
X59275000Y-58626000D02*
X59275000Y-61644000D01*
X59315000Y-58758000D02*
X59315000Y-61512000D01*
X59355000Y-58905000D02*
X59355000Y-61365000D01*
X59395000Y-59073000D02*
X59395000Y-61197000D01*
X59435000Y-59273000D02*
X59435000Y-60997000D01*
X59475000Y-59536000D02*
X59475000Y-60734000D01*
X59515000Y-60135000D02*
G75*
G02*
X49275000Y-60135000I-5120000J0D01*
G01*
X49275000Y-60135000D02*
G75*
G02*
X59515000Y-60135000I5120000J0D01*
G01*
%TO.C,C5*%
X38645000Y-60734000D02*
X38645000Y-59536000D01*
X38685000Y-60997000D02*
X38685000Y-59273000D01*
X38725000Y-61197000D02*
X38725000Y-59073000D01*
X38765000Y-61365000D02*
X38765000Y-58905000D01*
X38805000Y-61512000D02*
X38805000Y-58758000D01*
X38845000Y-61644000D02*
X38845000Y-58626000D01*
X38885000Y-61765000D02*
X38885000Y-58505000D01*
X38925000Y-61877000D02*
X38925000Y-58393000D01*
X38965000Y-61981000D02*
X38965000Y-58289000D01*
X39005000Y-62079000D02*
X39005000Y-58191000D01*
X39045000Y-62172000D02*
X39045000Y-58098000D01*
X39085000Y-62259000D02*
X39085000Y-58011000D01*
X39125000Y-62343000D02*
X39125000Y-57927000D01*
X39165000Y-62423000D02*
X39165000Y-57847000D01*
X39205000Y-62500000D02*
X39205000Y-57770000D01*
X39245000Y-62574000D02*
X39245000Y-57696000D01*
X39285000Y-62645000D02*
X39285000Y-57625000D01*
X39325000Y-62713000D02*
X39325000Y-57557000D01*
X39365000Y-62779000D02*
X39365000Y-57491000D01*
X39405000Y-62843000D02*
X39405000Y-57427000D01*
X39445000Y-62905000D02*
X39445000Y-57365000D01*
X39485000Y-62965000D02*
X39485000Y-57305000D01*
X39525000Y-63023000D02*
X39525000Y-57247000D01*
X39565000Y-63080000D02*
X39565000Y-57190000D01*
X39605000Y-63135000D02*
X39605000Y-57135000D01*
X39645000Y-63188000D02*
X39645000Y-57082000D01*
X39685000Y-63240000D02*
X39685000Y-57030000D01*
X39725000Y-63291000D02*
X39725000Y-56979000D01*
X39765000Y-63340000D02*
X39765000Y-56930000D01*
X39805000Y-63389000D02*
X39805000Y-56881000D01*
X39845000Y-63436000D02*
X39845000Y-56834000D01*
X39885000Y-63482000D02*
X39885000Y-56788000D01*
X39925000Y-63526000D02*
X39925000Y-56744000D01*
X39965000Y-63570000D02*
X39965000Y-56700000D01*
X40005000Y-58895000D02*
X40005000Y-56657000D01*
X40005000Y-63613000D02*
X40005000Y-61375000D01*
X40045000Y-58895000D02*
X40045000Y-56615000D01*
X40045000Y-63655000D02*
X40045000Y-61375000D01*
X40085000Y-58895000D02*
X40085000Y-56574000D01*
X40085000Y-63696000D02*
X40085000Y-61375000D01*
X40125000Y-58895000D02*
X40125000Y-56534000D01*
X40125000Y-63736000D02*
X40125000Y-61375000D01*
X40165000Y-58895000D02*
X40165000Y-56495000D01*
X40165000Y-63775000D02*
X40165000Y-61375000D01*
X40205000Y-58895000D02*
X40205000Y-56457000D01*
X40205000Y-63813000D02*
X40205000Y-61375000D01*
X40245000Y-58895000D02*
X40245000Y-56419000D01*
X40245000Y-63851000D02*
X40245000Y-61375000D01*
X40285000Y-58895000D02*
X40285000Y-56383000D01*
X40285000Y-63887000D02*
X40285000Y-61375000D01*
X40325000Y-58895000D02*
X40325000Y-56347000D01*
X40325000Y-63923000D02*
X40325000Y-61375000D01*
X40365000Y-58895000D02*
X40365000Y-56312000D01*
X40365000Y-63958000D02*
X40365000Y-61375000D01*
X40405000Y-58895000D02*
X40405000Y-56277000D01*
X40405000Y-63993000D02*
X40405000Y-61375000D01*
X40445000Y-58895000D02*
X40445000Y-56244000D01*
X40445000Y-64026000D02*
X40445000Y-61375000D01*
X40485000Y-58895000D02*
X40485000Y-56211000D01*
X40485000Y-64059000D02*
X40485000Y-61375000D01*
X40525000Y-58895000D02*
X40525000Y-56178000D01*
X40525000Y-64092000D02*
X40525000Y-61375000D01*
X40565000Y-58895000D02*
X40565000Y-56147000D01*
X40565000Y-64123000D02*
X40565000Y-61375000D01*
X40605000Y-58895000D02*
X40605000Y-56115000D01*
X40605000Y-64155000D02*
X40605000Y-61375000D01*
X40645000Y-58895000D02*
X40645000Y-56085000D01*
X40645000Y-64185000D02*
X40645000Y-61375000D01*
X40685000Y-58895000D02*
X40685000Y-56055000D01*
X40685000Y-64215000D02*
X40685000Y-61375000D01*
X40725000Y-58895000D02*
X40725000Y-56026000D01*
X40725000Y-64244000D02*
X40725000Y-61375000D01*
X40765000Y-58895000D02*
X40765000Y-55997000D01*
X40765000Y-64273000D02*
X40765000Y-61375000D01*
X40805000Y-58895000D02*
X40805000Y-55969000D01*
X40805000Y-64301000D02*
X40805000Y-61375000D01*
X40845000Y-58895000D02*
X40845000Y-55942000D01*
X40845000Y-64328000D02*
X40845000Y-61375000D01*
X40885000Y-58895000D02*
X40885000Y-55915000D01*
X40885000Y-64355000D02*
X40885000Y-61375000D01*
X40925000Y-58895000D02*
X40925000Y-55888000D01*
X40925000Y-64382000D02*
X40925000Y-61375000D01*
X40965000Y-58895000D02*
X40965000Y-55863000D01*
X40965000Y-64407000D02*
X40965000Y-61375000D01*
X41005000Y-58895000D02*
X41005000Y-55837000D01*
X41005000Y-64433000D02*
X41005000Y-61375000D01*
X41045000Y-58895000D02*
X41045000Y-55812000D01*
X41045000Y-64458000D02*
X41045000Y-61375000D01*
X41085000Y-58895000D02*
X41085000Y-55788000D01*
X41085000Y-64482000D02*
X41085000Y-61375000D01*
X41125000Y-58895000D02*
X41125000Y-55764000D01*
X41125000Y-64506000D02*
X41125000Y-61375000D01*
X41165000Y-58895000D02*
X41165000Y-55741000D01*
X41165000Y-64529000D02*
X41165000Y-61375000D01*
X41205000Y-58895000D02*
X41205000Y-55718000D01*
X41205000Y-64552000D02*
X41205000Y-61375000D01*
X41245000Y-58895000D02*
X41245000Y-55696000D01*
X41245000Y-64574000D02*
X41245000Y-61375000D01*
X41285000Y-58895000D02*
X41285000Y-55674000D01*
X41285000Y-64596000D02*
X41285000Y-61375000D01*
X41325000Y-58895000D02*
X41325000Y-55652000D01*
X41325000Y-64618000D02*
X41325000Y-61375000D01*
X41365000Y-58895000D02*
X41365000Y-55631000D01*
X41365000Y-64639000D02*
X41365000Y-61375000D01*
X41405000Y-58895000D02*
X41405000Y-55611000D01*
X41405000Y-64659000D02*
X41405000Y-61375000D01*
X41445000Y-58895000D02*
X41445000Y-55591000D01*
X41445000Y-64679000D02*
X41445000Y-61375000D01*
X41485000Y-58895000D02*
X41485000Y-55571000D01*
X41485000Y-64699000D02*
X41485000Y-61375000D01*
X41525000Y-58895000D02*
X41525000Y-55552000D01*
X41525000Y-64718000D02*
X41525000Y-61375000D01*
X41565000Y-58895000D02*
X41565000Y-55533000D01*
X41565000Y-64737000D02*
X41565000Y-61375000D01*
X41605000Y-58895000D02*
X41605000Y-55515000D01*
X41605000Y-64755000D02*
X41605000Y-61375000D01*
X41645000Y-58895000D02*
X41645000Y-55497000D01*
X41645000Y-64773000D02*
X41645000Y-61375000D01*
X41685000Y-58895000D02*
X41685000Y-55479000D01*
X41685000Y-64791000D02*
X41685000Y-61375000D01*
X41725000Y-58895000D02*
X41725000Y-55462000D01*
X41725000Y-64808000D02*
X41725000Y-61375000D01*
X41765000Y-58895000D02*
X41765000Y-55445000D01*
X41765000Y-64825000D02*
X41765000Y-61375000D01*
X41805000Y-58895000D02*
X41805000Y-55429000D01*
X41805000Y-64841000D02*
X41805000Y-61375000D01*
X41845000Y-58895000D02*
X41845000Y-55413000D01*
X41845000Y-64857000D02*
X41845000Y-61375000D01*
X41885000Y-58895000D02*
X41885000Y-55397000D01*
X41885000Y-64873000D02*
X41885000Y-61375000D01*
X41925000Y-58895000D02*
X41925000Y-55382000D01*
X41925000Y-64888000D02*
X41925000Y-61375000D01*
X41965000Y-58895000D02*
X41965000Y-55367000D01*
X41965000Y-64903000D02*
X41965000Y-61375000D01*
X42005000Y-58895000D02*
X42005000Y-55353000D01*
X42005000Y-64917000D02*
X42005000Y-61375000D01*
X42045000Y-58895000D02*
X42045000Y-55338000D01*
X42045000Y-64932000D02*
X42045000Y-61375000D01*
X42085000Y-58895000D02*
X42085000Y-55325000D01*
X42085000Y-64945000D02*
X42085000Y-61375000D01*
X42125000Y-58895000D02*
X42125000Y-55311000D01*
X42125000Y-64959000D02*
X42125000Y-61375000D01*
X42165000Y-58895000D02*
X42165000Y-55298000D01*
X42165000Y-64972000D02*
X42165000Y-61375000D01*
X42205000Y-58895000D02*
X42205000Y-55286000D01*
X42205000Y-64984000D02*
X42205000Y-61375000D01*
X42245000Y-58895000D02*
X42245000Y-55274000D01*
X42245000Y-64996000D02*
X42245000Y-61375000D01*
X42285000Y-58895000D02*
X42285000Y-55262000D01*
X42285000Y-65008000D02*
X42285000Y-61375000D01*
X42325000Y-58895000D02*
X42325000Y-55250000D01*
X42325000Y-65020000D02*
X42325000Y-61375000D01*
X42365000Y-58895000D02*
X42365000Y-55239000D01*
X42365000Y-65031000D02*
X42365000Y-61375000D01*
X42405000Y-58895000D02*
X42405000Y-55228000D01*
X42405000Y-65042000D02*
X42405000Y-61375000D01*
X42445000Y-58895000D02*
X42445000Y-55218000D01*
X42445000Y-65052000D02*
X42445000Y-61375000D01*
X42485000Y-65063000D02*
X42485000Y-55207000D01*
X42525000Y-65072000D02*
X42525000Y-55198000D01*
X42565000Y-65082000D02*
X42565000Y-55188000D01*
X42605000Y-65091000D02*
X42605000Y-55179000D01*
X42645000Y-65100000D02*
X42645000Y-55170000D01*
X42685000Y-65108000D02*
X42685000Y-55162000D01*
X42725000Y-65116000D02*
X42725000Y-55154000D01*
X42765000Y-65124000D02*
X42765000Y-55146000D01*
X42805000Y-65132000D02*
X42805000Y-55138000D01*
X42845000Y-65139000D02*
X42845000Y-55131000D01*
X42885000Y-65146000D02*
X42885000Y-55124000D01*
X42925000Y-65152000D02*
X42925000Y-55118000D01*
X42965000Y-65158000D02*
X42965000Y-55112000D01*
X43005000Y-65164000D02*
X43005000Y-55106000D01*
X43045000Y-65170000D02*
X43045000Y-55100000D01*
X43085000Y-65175000D02*
X43085000Y-55095000D01*
X43125000Y-65180000D02*
X43125000Y-55090000D01*
X43165000Y-65184000D02*
X43165000Y-55086000D01*
X43205000Y-65189000D02*
X43205000Y-55081000D01*
X43245000Y-65192000D02*
X43245000Y-55078000D01*
X43285000Y-65196000D02*
X43285000Y-55074000D01*
X43325000Y-65199000D02*
X43325000Y-55071000D01*
X43365000Y-65202000D02*
X43365000Y-55068000D01*
X43405000Y-65205000D02*
X43405000Y-55065000D01*
X43445000Y-65207000D02*
X43445000Y-55063000D01*
X43485000Y-65209000D02*
X43485000Y-55061000D01*
X43525000Y-65211000D02*
X43525000Y-55059000D01*
X43565000Y-65212000D02*
X43565000Y-55058000D01*
X43605000Y-65214000D02*
X43605000Y-55056000D01*
X43645000Y-65214000D02*
X43645000Y-55056000D01*
X43685000Y-65215000D02*
X43685000Y-55055000D01*
X43725000Y-65215000D02*
X43725000Y-55055000D01*
X48704646Y-63510000D02*
X48704646Y-62510000D01*
X49204646Y-63010000D02*
X48204646Y-63010000D01*
X48845000Y-60135000D02*
G75*
G02*
X38605000Y-60135000I-5120000J0D01*
G01*
X38605000Y-60135000D02*
G75*
G02*
X48845000Y-60135000I5120000J0D01*
G01*
%TO.C,C2*%
X29595302Y-58455000D02*
X30395302Y-58455000D01*
X29995302Y-58055000D02*
X29995302Y-58855000D01*
X34005000Y-56690000D02*
X34005000Y-64850000D01*
X34045000Y-56690000D02*
X34045000Y-64850000D01*
X34085000Y-56691000D02*
X34085000Y-64849000D01*
X34125000Y-56692000D02*
X34125000Y-64848000D01*
X34165000Y-56693000D02*
X34165000Y-64847000D01*
X34205000Y-56695000D02*
X34205000Y-64845000D01*
X34245000Y-56697000D02*
X34245000Y-64843000D01*
X34285000Y-56700000D02*
X34285000Y-64840000D01*
X34325000Y-56702000D02*
X34325000Y-64838000D01*
X34365000Y-56706000D02*
X34365000Y-64834000D01*
X34405000Y-56709000D02*
X34405000Y-64831000D01*
X34445000Y-56714000D02*
X34445000Y-64826000D01*
X34485000Y-56718000D02*
X34485000Y-64822000D01*
X34525000Y-56723000D02*
X34525000Y-64817000D01*
X34565000Y-56728000D02*
X34565000Y-64812000D01*
X34605000Y-56734000D02*
X34605000Y-64806000D01*
X34645000Y-56740000D02*
X34645000Y-64800000D01*
X34685000Y-56747000D02*
X34685000Y-64793000D01*
X34725000Y-56753000D02*
X34725000Y-59730000D01*
X34725000Y-61810000D02*
X34725000Y-64787000D01*
X34765000Y-56761000D02*
X34765000Y-59730000D01*
X34765000Y-61810000D02*
X34765000Y-64779000D01*
X34805000Y-56768000D02*
X34805000Y-59730000D01*
X34805000Y-61810000D02*
X34805000Y-64772000D01*
X34845000Y-56777000D02*
X34845000Y-59730000D01*
X34845000Y-61810000D02*
X34845000Y-64763000D01*
X34885000Y-56785000D02*
X34885000Y-59730000D01*
X34885000Y-61810000D02*
X34885000Y-64755000D01*
X34925000Y-56794000D02*
X34925000Y-59730000D01*
X34925000Y-61810000D02*
X34925000Y-64746000D01*
X34965000Y-56803000D02*
X34965000Y-59730000D01*
X34965000Y-61810000D02*
X34965000Y-64737000D01*
X35005000Y-56813000D02*
X35005000Y-59730000D01*
X35005000Y-61810000D02*
X35005000Y-64727000D01*
X35045000Y-56823000D02*
X35045000Y-59730000D01*
X35045000Y-61810000D02*
X35045000Y-64717000D01*
X35085000Y-56834000D02*
X35085000Y-59730000D01*
X35085000Y-61810000D02*
X35085000Y-64706000D01*
X35125000Y-56845000D02*
X35125000Y-59730000D01*
X35125000Y-61810000D02*
X35125000Y-64695000D01*
X35165000Y-56857000D02*
X35165000Y-59730000D01*
X35165000Y-61810000D02*
X35165000Y-64683000D01*
X35205000Y-56869000D02*
X35205000Y-59730000D01*
X35205000Y-61810000D02*
X35205000Y-64671000D01*
X35245000Y-56881000D02*
X35245000Y-59730000D01*
X35245000Y-61810000D02*
X35245000Y-64659000D01*
X35285000Y-56894000D02*
X35285000Y-59730000D01*
X35285000Y-61810000D02*
X35285000Y-64646000D01*
X35325000Y-56907000D02*
X35325000Y-59730000D01*
X35325000Y-61810000D02*
X35325000Y-64633000D01*
X35365000Y-56921000D02*
X35365000Y-59730000D01*
X35365000Y-61810000D02*
X35365000Y-64619000D01*
X35405000Y-56935000D02*
X35405000Y-59730000D01*
X35405000Y-61810000D02*
X35405000Y-64605000D01*
X35445000Y-56950000D02*
X35445000Y-59730000D01*
X35445000Y-61810000D02*
X35445000Y-64590000D01*
X35485000Y-56965000D02*
X35485000Y-59730000D01*
X35485000Y-61810000D02*
X35485000Y-64575000D01*
X35525000Y-56981000D02*
X35525000Y-59730000D01*
X35525000Y-61810000D02*
X35525000Y-64559000D01*
X35565000Y-56997000D02*
X35565000Y-59730000D01*
X35565000Y-61810000D02*
X35565000Y-64543000D01*
X35605000Y-57013000D02*
X35605000Y-59730000D01*
X35605000Y-61810000D02*
X35605000Y-64527000D01*
X35645000Y-57030000D02*
X35645000Y-59730000D01*
X35645000Y-61810000D02*
X35645000Y-64510000D01*
X35685000Y-57048000D02*
X35685000Y-59730000D01*
X35685000Y-61810000D02*
X35685000Y-64492000D01*
X35725000Y-57066000D02*
X35725000Y-59730000D01*
X35725000Y-61810000D02*
X35725000Y-64474000D01*
X35765000Y-57085000D02*
X35765000Y-59730000D01*
X35765000Y-61810000D02*
X35765000Y-64455000D01*
X35805000Y-57104000D02*
X35805000Y-59730000D01*
X35805000Y-61810000D02*
X35805000Y-64436000D01*
X35845000Y-57124000D02*
X35845000Y-59730000D01*
X35845000Y-61810000D02*
X35845000Y-64416000D01*
X35885000Y-57144000D02*
X35885000Y-59730000D01*
X35885000Y-61810000D02*
X35885000Y-64396000D01*
X35925000Y-57165000D02*
X35925000Y-59730000D01*
X35925000Y-61810000D02*
X35925000Y-64375000D01*
X35965000Y-57186000D02*
X35965000Y-59730000D01*
X35965000Y-61810000D02*
X35965000Y-64354000D01*
X36005000Y-57208000D02*
X36005000Y-59730000D01*
X36005000Y-61810000D02*
X36005000Y-64332000D01*
X36045000Y-57231000D02*
X36045000Y-59730000D01*
X36045000Y-61810000D02*
X36045000Y-64309000D01*
X36085000Y-57254000D02*
X36085000Y-59730000D01*
X36085000Y-61810000D02*
X36085000Y-64286000D01*
X36125000Y-57277000D02*
X36125000Y-59730000D01*
X36125000Y-61810000D02*
X36125000Y-64263000D01*
X36165000Y-57302000D02*
X36165000Y-59730000D01*
X36165000Y-61810000D02*
X36165000Y-64238000D01*
X36205000Y-57327000D02*
X36205000Y-59730000D01*
X36205000Y-61810000D02*
X36205000Y-64213000D01*
X36245000Y-57352000D02*
X36245000Y-59730000D01*
X36245000Y-61810000D02*
X36245000Y-64188000D01*
X36285000Y-57378000D02*
X36285000Y-59730000D01*
X36285000Y-61810000D02*
X36285000Y-64162000D01*
X36325000Y-57405000D02*
X36325000Y-59730000D01*
X36325000Y-61810000D02*
X36325000Y-64135000D01*
X36365000Y-57433000D02*
X36365000Y-59730000D01*
X36365000Y-61810000D02*
X36365000Y-64107000D01*
X36405000Y-57461000D02*
X36405000Y-59730000D01*
X36405000Y-61810000D02*
X36405000Y-64079000D01*
X36445000Y-57490000D02*
X36445000Y-59730000D01*
X36445000Y-61810000D02*
X36445000Y-64050000D01*
X36485000Y-57520000D02*
X36485000Y-59730000D01*
X36485000Y-61810000D02*
X36485000Y-64020000D01*
X36525000Y-57551000D02*
X36525000Y-59730000D01*
X36525000Y-61810000D02*
X36525000Y-63989000D01*
X36565000Y-57582000D02*
X36565000Y-59730000D01*
X36565000Y-61810000D02*
X36565000Y-63958000D01*
X36605000Y-57614000D02*
X36605000Y-59730000D01*
X36605000Y-61810000D02*
X36605000Y-63926000D01*
X36645000Y-57647000D02*
X36645000Y-59730000D01*
X36645000Y-61810000D02*
X36645000Y-63893000D01*
X36685000Y-57681000D02*
X36685000Y-59730000D01*
X36685000Y-61810000D02*
X36685000Y-63859000D01*
X36725000Y-57715000D02*
X36725000Y-59730000D01*
X36725000Y-61810000D02*
X36725000Y-63825000D01*
X36765000Y-57751000D02*
X36765000Y-59730000D01*
X36765000Y-61810000D02*
X36765000Y-63789000D01*
X36805000Y-57788000D02*
X36805000Y-63752000D01*
X36845000Y-57825000D02*
X36845000Y-63715000D01*
X36885000Y-57864000D02*
X36885000Y-63676000D01*
X36925000Y-57903000D02*
X36925000Y-63637000D01*
X36965000Y-57944000D02*
X36965000Y-63596000D01*
X37005000Y-57986000D02*
X37005000Y-63554000D01*
X37045000Y-58029000D02*
X37045000Y-63511000D01*
X37085000Y-58074000D02*
X37085000Y-63466000D01*
X37125000Y-58119000D02*
X37125000Y-63421000D01*
X37165000Y-58166000D02*
X37165000Y-63374000D01*
X37205000Y-58215000D02*
X37205000Y-63325000D01*
X37245000Y-58265000D02*
X37245000Y-63275000D01*
X37285000Y-58317000D02*
X37285000Y-63223000D01*
X37325000Y-58370000D02*
X37325000Y-63170000D01*
X37365000Y-58426000D02*
X37365000Y-63114000D01*
X37405000Y-58483000D02*
X37405000Y-63057000D01*
X37445000Y-58543000D02*
X37445000Y-62997000D01*
X37485000Y-58605000D02*
X37485000Y-62935000D01*
X37525000Y-58669000D02*
X37525000Y-62871000D01*
X37565000Y-58736000D02*
X37565000Y-62804000D01*
X37605000Y-58806000D02*
X37605000Y-62734000D01*
X37645000Y-58880000D02*
X37645000Y-62660000D01*
X37685000Y-58957000D02*
X37685000Y-62583000D01*
X37725000Y-59039000D02*
X37725000Y-62501000D01*
X37765000Y-59126000D02*
X37765000Y-62414000D01*
X37805000Y-59218000D02*
X37805000Y-62322000D01*
X37845000Y-59317000D02*
X37845000Y-62223000D01*
X37885000Y-59424000D02*
X37885000Y-62116000D01*
X37925000Y-59542000D02*
X37925000Y-61998000D01*
X37965000Y-59673000D02*
X37965000Y-61867000D01*
X38005000Y-59823000D02*
X38005000Y-61717000D01*
X38045000Y-60002000D02*
X38045000Y-61538000D01*
X38085000Y-60237000D02*
X38085000Y-61303000D01*
X38125000Y-60770000D02*
G75*
G02*
X29885000Y-60770000I-4120000J0D01*
G01*
X29885000Y-60770000D02*
G75*
G02*
X38125000Y-60770000I4120000J0D01*
G01*
%TO.C,C1*%
X20185000Y-66449000D02*
X20185000Y-65251000D01*
X20225000Y-66712000D02*
X20225000Y-64988000D01*
X20265000Y-66912000D02*
X20265000Y-64788000D01*
X20305000Y-67080000D02*
X20305000Y-64620000D01*
X20345000Y-67227000D02*
X20345000Y-64473000D01*
X20385000Y-67359000D02*
X20385000Y-64341000D01*
X20425000Y-67480000D02*
X20425000Y-64220000D01*
X20465000Y-67592000D02*
X20465000Y-64108000D01*
X20505000Y-67696000D02*
X20505000Y-64004000D01*
X20545000Y-67794000D02*
X20545000Y-63906000D01*
X20585000Y-67887000D02*
X20585000Y-63813000D01*
X20625000Y-67974000D02*
X20625000Y-63726000D01*
X20665000Y-68058000D02*
X20665000Y-63642000D01*
X20705000Y-68138000D02*
X20705000Y-63562000D01*
X20745000Y-68215000D02*
X20745000Y-63485000D01*
X20785000Y-68289000D02*
X20785000Y-63411000D01*
X20825000Y-68360000D02*
X20825000Y-63340000D01*
X20865000Y-68428000D02*
X20865000Y-63272000D01*
X20905000Y-68494000D02*
X20905000Y-63206000D01*
X20945000Y-68558000D02*
X20945000Y-63142000D01*
X20985000Y-68620000D02*
X20985000Y-63080000D01*
X21025000Y-68680000D02*
X21025000Y-63020000D01*
X21065000Y-68738000D02*
X21065000Y-62962000D01*
X21105000Y-68795000D02*
X21105000Y-62905000D01*
X21145000Y-68850000D02*
X21145000Y-62850000D01*
X21185000Y-68903000D02*
X21185000Y-62797000D01*
X21225000Y-68955000D02*
X21225000Y-62745000D01*
X21265000Y-69006000D02*
X21265000Y-62694000D01*
X21305000Y-69055000D02*
X21305000Y-62645000D01*
X21345000Y-69104000D02*
X21345000Y-62596000D01*
X21385000Y-69151000D02*
X21385000Y-62549000D01*
X21425000Y-69197000D02*
X21425000Y-62503000D01*
X21465000Y-69241000D02*
X21465000Y-62459000D01*
X21505000Y-69285000D02*
X21505000Y-62415000D01*
X21545000Y-64610000D02*
X21545000Y-62372000D01*
X21545000Y-69328000D02*
X21545000Y-67090000D01*
X21585000Y-64610000D02*
X21585000Y-62330000D01*
X21585000Y-69370000D02*
X21585000Y-67090000D01*
X21625000Y-64610000D02*
X21625000Y-62289000D01*
X21625000Y-69411000D02*
X21625000Y-67090000D01*
X21665000Y-64610000D02*
X21665000Y-62249000D01*
X21665000Y-69451000D02*
X21665000Y-67090000D01*
X21705000Y-64610000D02*
X21705000Y-62210000D01*
X21705000Y-69490000D02*
X21705000Y-67090000D01*
X21745000Y-64610000D02*
X21745000Y-62172000D01*
X21745000Y-69528000D02*
X21745000Y-67090000D01*
X21785000Y-64610000D02*
X21785000Y-62134000D01*
X21785000Y-69566000D02*
X21785000Y-67090000D01*
X21825000Y-64610000D02*
X21825000Y-62098000D01*
X21825000Y-69602000D02*
X21825000Y-67090000D01*
X21865000Y-64610000D02*
X21865000Y-62062000D01*
X21865000Y-69638000D02*
X21865000Y-67090000D01*
X21905000Y-64610000D02*
X21905000Y-62027000D01*
X21905000Y-69673000D02*
X21905000Y-67090000D01*
X21945000Y-64610000D02*
X21945000Y-61992000D01*
X21945000Y-69708000D02*
X21945000Y-67090000D01*
X21985000Y-64610000D02*
X21985000Y-61959000D01*
X21985000Y-69741000D02*
X21985000Y-67090000D01*
X22025000Y-64610000D02*
X22025000Y-61926000D01*
X22025000Y-69774000D02*
X22025000Y-67090000D01*
X22065000Y-64610000D02*
X22065000Y-61893000D01*
X22065000Y-69807000D02*
X22065000Y-67090000D01*
X22105000Y-64610000D02*
X22105000Y-61862000D01*
X22105000Y-69838000D02*
X22105000Y-67090000D01*
X22145000Y-64610000D02*
X22145000Y-61830000D01*
X22145000Y-69870000D02*
X22145000Y-67090000D01*
X22185000Y-64610000D02*
X22185000Y-61800000D01*
X22185000Y-69900000D02*
X22185000Y-67090000D01*
X22225000Y-64610000D02*
X22225000Y-61770000D01*
X22225000Y-69930000D02*
X22225000Y-67090000D01*
X22265000Y-64610000D02*
X22265000Y-61741000D01*
X22265000Y-69959000D02*
X22265000Y-67090000D01*
X22305000Y-64610000D02*
X22305000Y-61712000D01*
X22305000Y-69988000D02*
X22305000Y-67090000D01*
X22345000Y-64610000D02*
X22345000Y-61684000D01*
X22345000Y-70016000D02*
X22345000Y-67090000D01*
X22385000Y-64610000D02*
X22385000Y-61657000D01*
X22385000Y-70043000D02*
X22385000Y-67090000D01*
X22425000Y-64610000D02*
X22425000Y-61630000D01*
X22425000Y-70070000D02*
X22425000Y-67090000D01*
X22465000Y-64610000D02*
X22465000Y-61603000D01*
X22465000Y-70097000D02*
X22465000Y-67090000D01*
X22505000Y-64610000D02*
X22505000Y-61578000D01*
X22505000Y-70122000D02*
X22505000Y-67090000D01*
X22545000Y-64610000D02*
X22545000Y-61552000D01*
X22545000Y-70148000D02*
X22545000Y-67090000D01*
X22585000Y-64610000D02*
X22585000Y-61527000D01*
X22585000Y-70173000D02*
X22585000Y-67090000D01*
X22625000Y-64610000D02*
X22625000Y-61503000D01*
X22625000Y-70197000D02*
X22625000Y-67090000D01*
X22665000Y-64610000D02*
X22665000Y-61479000D01*
X22665000Y-70221000D02*
X22665000Y-67090000D01*
X22705000Y-64610000D02*
X22705000Y-61456000D01*
X22705000Y-70244000D02*
X22705000Y-67090000D01*
X22745000Y-64610000D02*
X22745000Y-61433000D01*
X22745000Y-70267000D02*
X22745000Y-67090000D01*
X22785000Y-64610000D02*
X22785000Y-61411000D01*
X22785000Y-70289000D02*
X22785000Y-67090000D01*
X22825000Y-64610000D02*
X22825000Y-61389000D01*
X22825000Y-70311000D02*
X22825000Y-67090000D01*
X22865000Y-64610000D02*
X22865000Y-61367000D01*
X22865000Y-70333000D02*
X22865000Y-67090000D01*
X22905000Y-64610000D02*
X22905000Y-61346000D01*
X22905000Y-70354000D02*
X22905000Y-67090000D01*
X22945000Y-64610000D02*
X22945000Y-61326000D01*
X22945000Y-70374000D02*
X22945000Y-67090000D01*
X22985000Y-64610000D02*
X22985000Y-61306000D01*
X22985000Y-70394000D02*
X22985000Y-67090000D01*
X23025000Y-64610000D02*
X23025000Y-61286000D01*
X23025000Y-70414000D02*
X23025000Y-67090000D01*
X23065000Y-64610000D02*
X23065000Y-61267000D01*
X23065000Y-70433000D02*
X23065000Y-67090000D01*
X23105000Y-64610000D02*
X23105000Y-61248000D01*
X23105000Y-70452000D02*
X23105000Y-67090000D01*
X23145000Y-64610000D02*
X23145000Y-61230000D01*
X23145000Y-70470000D02*
X23145000Y-67090000D01*
X23185000Y-64610000D02*
X23185000Y-61212000D01*
X23185000Y-70488000D02*
X23185000Y-67090000D01*
X23225000Y-64610000D02*
X23225000Y-61194000D01*
X23225000Y-70506000D02*
X23225000Y-67090000D01*
X23265000Y-64610000D02*
X23265000Y-61177000D01*
X23265000Y-70523000D02*
X23265000Y-67090000D01*
X23305000Y-64610000D02*
X23305000Y-61160000D01*
X23305000Y-70540000D02*
X23305000Y-67090000D01*
X23345000Y-64610000D02*
X23345000Y-61144000D01*
X23345000Y-70556000D02*
X23345000Y-67090000D01*
X23385000Y-64610000D02*
X23385000Y-61128000D01*
X23385000Y-70572000D02*
X23385000Y-67090000D01*
X23425000Y-64610000D02*
X23425000Y-61112000D01*
X23425000Y-70588000D02*
X23425000Y-67090000D01*
X23465000Y-64610000D02*
X23465000Y-61097000D01*
X23465000Y-70603000D02*
X23465000Y-67090000D01*
X23505000Y-64610000D02*
X23505000Y-61082000D01*
X23505000Y-70618000D02*
X23505000Y-67090000D01*
X23545000Y-64610000D02*
X23545000Y-61068000D01*
X23545000Y-70632000D02*
X23545000Y-67090000D01*
X23585000Y-64610000D02*
X23585000Y-61053000D01*
X23585000Y-70647000D02*
X23585000Y-67090000D01*
X23625000Y-64610000D02*
X23625000Y-61040000D01*
X23625000Y-70660000D02*
X23625000Y-67090000D01*
X23665000Y-64610000D02*
X23665000Y-61026000D01*
X23665000Y-70674000D02*
X23665000Y-67090000D01*
X23705000Y-64610000D02*
X23705000Y-61013000D01*
X23705000Y-70687000D02*
X23705000Y-67090000D01*
X23745000Y-64610000D02*
X23745000Y-61001000D01*
X23745000Y-70699000D02*
X23745000Y-67090000D01*
X23785000Y-64610000D02*
X23785000Y-60989000D01*
X23785000Y-70711000D02*
X23785000Y-67090000D01*
X23825000Y-64610000D02*
X23825000Y-60977000D01*
X23825000Y-70723000D02*
X23825000Y-67090000D01*
X23865000Y-64610000D02*
X23865000Y-60965000D01*
X23865000Y-70735000D02*
X23865000Y-67090000D01*
X23905000Y-64610000D02*
X23905000Y-60954000D01*
X23905000Y-70746000D02*
X23905000Y-67090000D01*
X23945000Y-64610000D02*
X23945000Y-60943000D01*
X23945000Y-70757000D02*
X23945000Y-67090000D01*
X23985000Y-64610000D02*
X23985000Y-60933000D01*
X23985000Y-70767000D02*
X23985000Y-67090000D01*
X24025000Y-70778000D02*
X24025000Y-60922000D01*
X24065000Y-70787000D02*
X24065000Y-60913000D01*
X24105000Y-70797000D02*
X24105000Y-60903000D01*
X24145000Y-70806000D02*
X24145000Y-60894000D01*
X24185000Y-70815000D02*
X24185000Y-60885000D01*
X24225000Y-70823000D02*
X24225000Y-60877000D01*
X24265000Y-70831000D02*
X24265000Y-60869000D01*
X24305000Y-70839000D02*
X24305000Y-60861000D01*
X24345000Y-70847000D02*
X24345000Y-60853000D01*
X24385000Y-70854000D02*
X24385000Y-60846000D01*
X24425000Y-70861000D02*
X24425000Y-60839000D01*
X24465000Y-70867000D02*
X24465000Y-60833000D01*
X24505000Y-70873000D02*
X24505000Y-60827000D01*
X24545000Y-70879000D02*
X24545000Y-60821000D01*
X24585000Y-70885000D02*
X24585000Y-60815000D01*
X24625000Y-70890000D02*
X24625000Y-60810000D01*
X24665000Y-70895000D02*
X24665000Y-60805000D01*
X24705000Y-70899000D02*
X24705000Y-60801000D01*
X24745000Y-70904000D02*
X24745000Y-60796000D01*
X24785000Y-70907000D02*
X24785000Y-60793000D01*
X24825000Y-70911000D02*
X24825000Y-60789000D01*
X24865000Y-70914000D02*
X24865000Y-60786000D01*
X24905000Y-70917000D02*
X24905000Y-60783000D01*
X24945000Y-70920000D02*
X24945000Y-60780000D01*
X24985000Y-70922000D02*
X24985000Y-60778000D01*
X25025000Y-70924000D02*
X25025000Y-60776000D01*
X25065000Y-70926000D02*
X25065000Y-60774000D01*
X25105000Y-70927000D02*
X25105000Y-60773000D01*
X25145000Y-70929000D02*
X25145000Y-60771000D01*
X25185000Y-70929000D02*
X25185000Y-60771000D01*
X25225000Y-70930000D02*
X25225000Y-60770000D01*
X25265000Y-70930000D02*
X25265000Y-60770000D01*
X30244646Y-69225000D02*
X30244646Y-68225000D01*
X30744646Y-68725000D02*
X29744646Y-68725000D01*
X30385000Y-65850000D02*
G75*
G02*
X20145000Y-65850000I-5120000J0D01*
G01*
X20145000Y-65850000D02*
G75*
G02*
X30385000Y-65850000I5120000J0D01*
G01*
%TO.C,J1*%
X33685000Y-68257358D02*
X33685000Y-68570000D01*
X33685000Y-77330000D02*
X33685000Y-71330000D01*
X34545000Y-68257358D02*
X34545000Y-68570000D01*
X34545000Y-71330000D02*
X34545000Y-77330000D01*
X34545000Y-77330000D02*
X33685000Y-77330000D01*
X35385000Y-68570000D02*
X35385000Y-71330000D01*
X36225000Y-68257358D02*
X36225000Y-68570000D01*
X36225000Y-77330000D02*
X36225000Y-71330000D01*
X37085000Y-68257358D02*
X37085000Y-68570000D01*
X37085000Y-71330000D02*
X37085000Y-77330000D01*
X37085000Y-77330000D02*
X36225000Y-77330000D01*
X37925000Y-68570000D02*
X37925000Y-71330000D01*
X38765000Y-68257358D02*
X38765000Y-68570000D01*
X38765000Y-77330000D02*
X38765000Y-71330000D01*
X39625000Y-68257358D02*
X39625000Y-68570000D01*
X39625000Y-71330000D02*
X39625000Y-77330000D01*
X39625000Y-77330000D02*
X38765000Y-77330000D01*
X40465000Y-68570000D02*
X40465000Y-71330000D01*
X41305000Y-68257358D02*
X41305000Y-68570000D01*
X41305000Y-77330000D02*
X41305000Y-71330000D01*
X42165000Y-68257358D02*
X42165000Y-68570000D01*
X42165000Y-71330000D02*
X42165000Y-77330000D01*
X42165000Y-77330000D02*
X41305000Y-77330000D01*
X43005000Y-68570000D02*
X43005000Y-71330000D01*
X43845000Y-68257358D02*
X43845000Y-68570000D01*
X43845000Y-77330000D02*
X43845000Y-71330000D01*
X44705000Y-68257358D02*
X44705000Y-68570000D01*
X44705000Y-71330000D02*
X44705000Y-77330000D01*
X44705000Y-77330000D02*
X43845000Y-77330000D01*
X45545000Y-68570000D02*
X45545000Y-71330000D01*
X46385000Y-68257358D02*
X46385000Y-68570000D01*
X46385000Y-77330000D02*
X46385000Y-71330000D01*
X47245000Y-68257358D02*
X47245000Y-68570000D01*
X47245000Y-71330000D02*
X47245000Y-77330000D01*
X47245000Y-77330000D02*
X46385000Y-77330000D01*
X48085000Y-68570000D02*
X48085000Y-71330000D01*
X48925000Y-68340000D02*
X48925000Y-68570000D01*
X49355000Y-65910000D02*
X50625000Y-65910000D01*
X49785000Y-68340000D02*
X49785000Y-68570000D01*
X50625000Y-65910000D02*
X50625000Y-67180000D01*
X48925000Y-71330000D02*
X49785000Y-71330000D01*
X49785000Y-77330000D01*
X48925000Y-77330000D01*
X48925000Y-71330000D01*
G36*
X48925000Y-71330000D02*
G01*
X49785000Y-71330000D01*
X49785000Y-77330000D01*
X48925000Y-77330000D01*
X48925000Y-71330000D01*
G37*
X32735000Y-68570000D02*
X50735000Y-68570000D01*
X50735000Y-71330000D01*
X32735000Y-71330000D01*
X32735000Y-68570000D01*
%TO.C,C3*%
X22780000Y-55275000D02*
X29020000Y-55275000D01*
X22780000Y-56760000D02*
X22780000Y-55275000D01*
X22780000Y-59915000D02*
X22780000Y-58430000D01*
X29020000Y-55275000D02*
X29020000Y-56760000D01*
X29020000Y-58430000D02*
X29020000Y-59915000D01*
X29020000Y-59915000D02*
X22780000Y-59915000D01*
%TO.C,U1*%
D12*
X21825000Y-22190000D02*
X61825000Y-22190000D01*
X61825000Y-52490000D01*
X21825000Y-52490000D01*
X21825000Y-22190000D01*
%TD*%
%LPC*%
D13*
%TO.C,C4*%
X51895000Y-60135000D03*
D14*
X56895000Y-60135000D03*
%TD*%
D15*
%TO.C,C5*%
X46225000Y-60135000D03*
D14*
X41225000Y-60135000D03*
%TD*%
D16*
%TO.C,C2*%
X32255000Y-60770000D03*
D17*
X35755000Y-60770000D03*
%TD*%
D15*
%TO.C,C1*%
X27765000Y-65850000D03*
D14*
X22765000Y-65850000D03*
%TD*%
D18*
%TO.C,J1*%
X49355000Y-67180000D03*
D19*
X46815000Y-67180000D03*
X44275000Y-67180000D03*
X41735000Y-67180000D03*
X39195000Y-67180000D03*
X36655000Y-67180000D03*
X34115000Y-67180000D03*
%TD*%
D17*
%TO.C,C3*%
X28400000Y-57595000D03*
X23400000Y-57595000D03*
%TD*%
D14*
%TO.C,U1*%
X33075000Y-49340000D03*
X35575000Y-49340000D03*
D20*
X24725000Y-22190000D03*
X24725000Y-52490000D03*
D14*
X38075000Y-49340000D03*
D20*
X58925000Y-22190000D03*
X58925000Y-52490000D03*
D14*
X43075000Y-49340000D03*
X45575000Y-49340000D03*
X48075000Y-49340000D03*
X50575000Y-49340000D03*
%TD*%
%LPD*%
M02*
