%TF.GenerationSoftware,KiCad,Pcbnew,10.0.3-10.0.3~ubuntu26.04.1*%
%TF.CreationDate,2026-06-22T17:48:36+09:00*%
%TF.ProjectId,YDS512F_Unit,59445335-3132-4465-9f55-6e69742e6b69,rev?*%
%TF.SameCoordinates,Original*%
%TF.FileFunction,Copper,L2,Bot*%
%TF.FilePolarity,Positive*%
%FSLAX46Y46*%
G04 Gerber Fmt 4.6, Leading zero omitted, Abs format (unit mm)*
G04 Created by KiCad (PCBNEW 10.0.3-10.0.3~ubuntu26.04.1) date 2026-06-22 17:48:36*
%MOMM*%
%LPD*%
G01*
G04 APERTURE LIST*
G04 Aperture macros list*
%AMRoundRect*
0 Rectangle with rounded corners*
0 $1 Rounding radius*
0 $2 $3 $4 $5 $6 $7 $8 $9 X,Y pos of 4 corners*
0 Add a 4 corners polygon primitive as box body*
4,1,4,$2,$3,$4,$5,$6,$7,$8,$9,$2,$3,0*
0 Add four circle primitives for the rounded corners*
1,1,$1+$1,$2,$3*
1,1,$1+$1,$4,$5*
1,1,$1+$1,$6,$7*
1,1,$1+$1,$8,$9*
0 Add four rect primitives between the rounded corners*
20,1,$1+$1,$2,$3,$4,$5,0*
20,1,$1+$1,$4,$5,$6,$7,0*
20,1,$1+$1,$6,$7,$8,$9,0*
20,1,$1+$1,$8,$9,$2,$3,0*%
G04 Aperture macros list end*
%TA.AperFunction,ComponentPad*%
%ADD10RoundRect,0.250000X-0.750000X-0.750000X0.750000X-0.750000X0.750000X0.750000X-0.750000X0.750000X0*%
%TD*%
%TA.AperFunction,ComponentPad*%
%ADD11C,2.000000*%
%TD*%
%TA.AperFunction,ComponentPad*%
%ADD12RoundRect,0.250000X0.750000X0.750000X-0.750000X0.750000X-0.750000X-0.750000X0.750000X-0.750000X0*%
%TD*%
%TA.AperFunction,ComponentPad*%
%ADD13RoundRect,0.250000X-0.550000X-0.550000X0.550000X-0.550000X0.550000X0.550000X-0.550000X0.550000X0*%
%TD*%
%TA.AperFunction,ComponentPad*%
%ADD14C,1.600000*%
%TD*%
%TA.AperFunction,ComponentPad*%
%ADD15R,1.700000X1.700000*%
%TD*%
%TA.AperFunction,ComponentPad*%
%ADD16C,1.700000*%
%TD*%
%TA.AperFunction,ComponentPad*%
%ADD17O,4.100000X2.400000*%
%TD*%
%TA.AperFunction,ViaPad*%
%ADD18C,0.600000*%
%TD*%
G04 APERTURE END LIST*
D10*
%TO.P,C4,1*%
%TO.N,Net-(J1-Pin_2)*%
X51895000Y-60135000D03*
D11*
%TO.P,C4,2*%
%TO.N,Net-(J1-Pin_4)*%
X56895000Y-60135000D03*
%TD*%
D12*
%TO.P,C5,1*%
%TO.N,Net-(J1-Pin_2)*%
X46225000Y-60135000D03*
D11*
%TO.P,C5,2*%
%TO.N,Net-(J1-Pin_4)*%
X41225000Y-60135000D03*
%TD*%
D13*
%TO.P,C2,1*%
%TO.N,Net-(J1-Pin_6)*%
X32255000Y-60770000D03*
D14*
%TO.P,C2,2*%
%TO.N,Net-(J1-Pin_4)*%
X35755000Y-60770000D03*
%TD*%
D12*
%TO.P,C1,1*%
%TO.N,Net-(J1-Pin_6)*%
X27765000Y-65850000D03*
D11*
%TO.P,C1,2*%
%TO.N,Net-(J1-Pin_4)*%
X22765000Y-65850000D03*
%TD*%
D15*
%TO.P,J1,1,Pin_1_1*%
%TO.N,Net-(J1-Pin_1)*%
X49355000Y-67180000D03*
D16*
%TO.P,J1,2,Pin_2_2*%
%TO.N,Net-(J1-Pin_2)*%
X46815000Y-67180000D03*
%TO.P,J1,3,Pin_3_3*%
X44275000Y-67180000D03*
%TO.P,J1,4,Pin_4_4*%
%TO.N,Net-(J1-Pin_4)*%
X41735000Y-67180000D03*
%TO.P,J1,5,Pin_5_5*%
X39195000Y-67180000D03*
%TO.P,J1,6,Pin_6_6*%
%TO.N,Net-(J1-Pin_6)*%
X36655000Y-67180000D03*
%TO.P,J1,7,Pin_7_7*%
X34115000Y-67180000D03*
%TD*%
D14*
%TO.P,C3,1*%
%TO.N,Net-(J1-Pin_6)*%
X28400000Y-57595000D03*
%TO.P,C3,2*%
%TO.N,Net-(J1-Pin_4)*%
X23400000Y-57595000D03*
%TD*%
D11*
%TO.P,U1,1,Vin_1*%
%TO.N,Net-(J1-Pin_6)*%
X33075000Y-49340000D03*
%TO.P,U1,2,Vin_2*%
X35575000Y-49340000D03*
D17*
%TO.P,U1,3,GND_3*%
%TO.N,Net-(J1-Pin_4)*%
X24725000Y-22190000D03*
X24725000Y-52490000D03*
D11*
X38075000Y-49340000D03*
D17*
X58925000Y-22190000D03*
X58925000Y-52490000D03*
D11*
%TO.P,U1,4,GND_4*%
X43075000Y-49340000D03*
%TO.P,U1,5,VOUT_5*%
%TO.N,Net-(J1-Pin_2)*%
X45575000Y-49340000D03*
%TO.P,U1,6,VOUT_6*%
X48075000Y-49340000D03*
%TO.P,U1,7,Vadj_7*%
%TO.N,Net-(J1-Pin_1)*%
X50575000Y-49340000D03*
%TD*%
D18*
%TO.N,Net-(J1-Pin_4)*%
X35000000Y-35000000D03*
X30000000Y-35000000D03*
X55000000Y-70000000D03*
X25000000Y-35000000D03*
X30000000Y-25000000D03*
X40000000Y-25000000D03*
X45000000Y-25000000D03*
X25000000Y-45000000D03*
X25000000Y-40000000D03*
X55000000Y-25000000D03*
X40000000Y-40000000D03*
X60000000Y-40000000D03*
X60000000Y-35000000D03*
X55000000Y-35000000D03*
X45000000Y-35000000D03*
X50000000Y-40000000D03*
X50000000Y-45000000D03*
X55000000Y-40000000D03*
X52000000Y-66000000D03*
X50000000Y-25000000D03*
X40000000Y-35000000D03*
X60000000Y-70000000D03*
X50000000Y-70000000D03*
X55000000Y-45000000D03*
X35000000Y-30000000D03*
X35000000Y-45000000D03*
X60000000Y-45000000D03*
X45000000Y-30000000D03*
X40000000Y-30000000D03*
X30000000Y-45000000D03*
X30000000Y-30000000D03*
X50000000Y-35000000D03*
X45000000Y-45000000D03*
X45000000Y-40000000D03*
X50000000Y-30000000D03*
X35000000Y-40000000D03*
X60000000Y-30000000D03*
X30000000Y-40000000D03*
X55000000Y-30000000D03*
X40000000Y-45000000D03*
X25000000Y-30000000D03*
X35000000Y-25000000D03*
%TD*%
%TA.AperFunction,Conductor*%
%TO.N,Net-(J1-Pin_4)*%
G36*
X62942539Y-20520185D02*
G01*
X62988294Y-20572989D01*
X62999500Y-20624500D01*
X62999500Y-70875500D01*
X62979815Y-70942539D01*
X62927011Y-70988294D01*
X62875500Y-70999500D01*
X20624500Y-70999500D01*
X20557461Y-70979815D01*
X20511706Y-70927011D01*
X20500500Y-70875500D01*
X20500500Y-67076530D01*
X33064500Y-67076530D01*
X33064500Y-67283469D01*
X33104868Y-67486412D01*
X33104870Y-67486420D01*
X33184058Y-67677596D01*
X33299024Y-67849657D01*
X33445342Y-67995975D01*
X33445345Y-67995977D01*
X33617402Y-68110941D01*
X33808580Y-68190130D01*
X33953052Y-68218867D01*
X34011530Y-68230499D01*
X34011534Y-68230500D01*
X34011535Y-68230500D01*
X34218466Y-68230500D01*
X34218467Y-68230499D01*
X34421420Y-68190130D01*
X34612598Y-68110941D01*
X34784655Y-67995977D01*
X34930977Y-67849655D01*
X35045941Y-67677598D01*
X35125130Y-67486420D01*
X35165500Y-67283465D01*
X35165500Y-67076535D01*
X35165499Y-67076530D01*
X35604500Y-67076530D01*
X35604500Y-67283469D01*
X35644868Y-67486412D01*
X35644870Y-67486420D01*
X35724058Y-67677596D01*
X35839024Y-67849657D01*
X35985342Y-67995975D01*
X35985345Y-67995977D01*
X36157402Y-68110941D01*
X36348580Y-68190130D01*
X36493052Y-68218867D01*
X36551530Y-68230499D01*
X36551534Y-68230500D01*
X36551535Y-68230500D01*
X36758466Y-68230500D01*
X36758467Y-68230499D01*
X36961420Y-68190130D01*
X37152598Y-68110941D01*
X37324655Y-67995977D01*
X37470977Y-67849655D01*
X37585941Y-67677598D01*
X37665130Y-67486420D01*
X37705500Y-67283465D01*
X37705500Y-67076535D01*
X37705499Y-67076530D01*
X43224500Y-67076530D01*
X43224500Y-67283469D01*
X43264868Y-67486412D01*
X43264870Y-67486420D01*
X43344058Y-67677596D01*
X43459024Y-67849657D01*
X43605342Y-67995975D01*
X43605345Y-67995977D01*
X43777402Y-68110941D01*
X43968580Y-68190130D01*
X44113052Y-68218867D01*
X44171530Y-68230499D01*
X44171534Y-68230500D01*
X44171535Y-68230500D01*
X44378466Y-68230500D01*
X44378467Y-68230499D01*
X44581420Y-68190130D01*
X44772598Y-68110941D01*
X44944655Y-67995977D01*
X45090977Y-67849655D01*
X45205941Y-67677598D01*
X45285130Y-67486420D01*
X45325500Y-67283465D01*
X45325500Y-67076535D01*
X45325499Y-67076530D01*
X45764500Y-67076530D01*
X45764500Y-67283469D01*
X45804868Y-67486412D01*
X45804870Y-67486420D01*
X45884058Y-67677596D01*
X45999024Y-67849657D01*
X46145342Y-67995975D01*
X46145345Y-67995977D01*
X46317402Y-68110941D01*
X46508580Y-68190130D01*
X46653052Y-68218867D01*
X46711530Y-68230499D01*
X46711534Y-68230500D01*
X46711535Y-68230500D01*
X46918466Y-68230500D01*
X46918467Y-68230499D01*
X47121420Y-68190130D01*
X47312598Y-68110941D01*
X47484655Y-67995977D01*
X47630977Y-67849655D01*
X47745941Y-67677598D01*
X47825130Y-67486420D01*
X47865500Y-67283465D01*
X47865500Y-67076535D01*
X47825130Y-66873580D01*
X47745941Y-66682402D01*
X47630977Y-66510345D01*
X47630975Y-66510342D01*
X47484657Y-66364024D01*
X47404173Y-66310247D01*
X48304500Y-66310247D01*
X48304500Y-68049752D01*
X48316131Y-68108229D01*
X48316132Y-68108230D01*
X48360447Y-68174552D01*
X48426769Y-68218867D01*
X48426770Y-68218868D01*
X48485247Y-68230499D01*
X48485250Y-68230500D01*
X48485252Y-68230500D01*
X50224750Y-68230500D01*
X50224751Y-68230499D01*
X50239568Y-68227552D01*
X50283229Y-68218868D01*
X50283229Y-68218867D01*
X50283231Y-68218867D01*
X50349552Y-68174552D01*
X50393867Y-68108231D01*
X50393867Y-68108229D01*
X50393868Y-68108229D01*
X50405499Y-68049752D01*
X50405500Y-68049750D01*
X50405500Y-66310249D01*
X50405499Y-66310247D01*
X50393868Y-66251770D01*
X50393867Y-66251769D01*
X50349552Y-66185447D01*
X50283230Y-66141132D01*
X50283229Y-66141131D01*
X50224752Y-66129500D01*
X50224748Y-66129500D01*
X48485252Y-66129500D01*
X48485247Y-66129500D01*
X48426770Y-66141131D01*
X48426769Y-66141132D01*
X48360447Y-66185447D01*
X48316132Y-66251769D01*
X48316131Y-66251770D01*
X48304500Y-66310247D01*
X47404173Y-66310247D01*
X47316655Y-66251770D01*
X47312598Y-66249059D01*
X47121420Y-66169870D01*
X47121412Y-66169868D01*
X46918469Y-66129500D01*
X46918465Y-66129500D01*
X46711535Y-66129500D01*
X46711530Y-66129500D01*
X46508587Y-66169868D01*
X46508579Y-66169870D01*
X46317403Y-66249058D01*
X46145342Y-66364024D01*
X45999024Y-66510342D01*
X45884058Y-66682403D01*
X45804870Y-66873579D01*
X45804868Y-66873587D01*
X45764500Y-67076530D01*
X45325499Y-67076530D01*
X45285130Y-66873580D01*
X45205941Y-66682402D01*
X45090977Y-66510345D01*
X45090975Y-66510342D01*
X44944657Y-66364024D01*
X44776655Y-66251770D01*
X44772598Y-66249059D01*
X44581420Y-66169870D01*
X44581412Y-66169868D01*
X44378469Y-66129500D01*
X44378465Y-66129500D01*
X44171535Y-66129500D01*
X44171530Y-66129500D01*
X43968587Y-66169868D01*
X43968579Y-66169870D01*
X43777403Y-66249058D01*
X43605342Y-66364024D01*
X43459024Y-66510342D01*
X43344058Y-66682403D01*
X43264870Y-66873579D01*
X43264868Y-66873587D01*
X43224500Y-67076530D01*
X37705499Y-67076530D01*
X37665130Y-66873580D01*
X37585941Y-66682402D01*
X37470977Y-66510345D01*
X37470975Y-66510342D01*
X37324657Y-66364024D01*
X37156655Y-66251770D01*
X37152598Y-66249059D01*
X36961420Y-66169870D01*
X36961412Y-66169868D01*
X36758469Y-66129500D01*
X36758465Y-66129500D01*
X36551535Y-66129500D01*
X36551530Y-66129500D01*
X36348587Y-66169868D01*
X36348579Y-66169870D01*
X36157403Y-66249058D01*
X35985342Y-66364024D01*
X35839024Y-66510342D01*
X35724058Y-66682403D01*
X35644870Y-66873579D01*
X35644868Y-66873587D01*
X35604500Y-67076530D01*
X35165499Y-67076530D01*
X35125130Y-66873580D01*
X35045941Y-66682402D01*
X34930977Y-66510345D01*
X34930975Y-66510342D01*
X34784657Y-66364024D01*
X34616655Y-66251770D01*
X34612598Y-66249059D01*
X34421420Y-66169870D01*
X34421412Y-66169868D01*
X34218469Y-66129500D01*
X34218465Y-66129500D01*
X34011535Y-66129500D01*
X34011530Y-66129500D01*
X33808587Y-66169868D01*
X33808579Y-66169870D01*
X33617403Y-66249058D01*
X33445342Y-66364024D01*
X33299024Y-66510342D01*
X33184058Y-66682403D01*
X33104870Y-66873579D01*
X33104868Y-66873587D01*
X33064500Y-67076530D01*
X20500500Y-67076530D01*
X20500500Y-65045730D01*
X26564500Y-65045730D01*
X26564500Y-66654269D01*
X26567353Y-66684699D01*
X26567353Y-66684701D01*
X26612206Y-66812880D01*
X26612207Y-66812882D01*
X26692850Y-66922150D01*
X26802118Y-67002793D01*
X26844845Y-67017744D01*
X26930299Y-67047646D01*
X26960730Y-67050500D01*
X26960734Y-67050500D01*
X28569270Y-67050500D01*
X28599699Y-67047646D01*
X28599701Y-67047646D01*
X28663790Y-67025219D01*
X28727882Y-67002793D01*
X28837150Y-66922150D01*
X28917793Y-66812882D01*
X28940219Y-66748790D01*
X28962646Y-66684701D01*
X28962646Y-66684699D01*
X28965500Y-66654269D01*
X28965500Y-65045730D01*
X28962646Y-65015300D01*
X28962646Y-65015298D01*
X28917793Y-64887119D01*
X28917792Y-64887117D01*
X28837150Y-64777850D01*
X28727882Y-64697207D01*
X28727880Y-64697206D01*
X28599700Y-64652353D01*
X28569270Y-64649500D01*
X28569266Y-64649500D01*
X26960734Y-64649500D01*
X26960730Y-64649500D01*
X26930300Y-64652353D01*
X26930298Y-64652353D01*
X26802119Y-64697206D01*
X26802117Y-64697207D01*
X26692850Y-64777850D01*
X26612207Y-64887117D01*
X26612206Y-64887119D01*
X26567353Y-65015298D01*
X26567353Y-65015300D01*
X26564500Y-65045730D01*
X20500500Y-65045730D01*
X20500500Y-60165730D01*
X31254500Y-60165730D01*
X31254500Y-61374269D01*
X31257353Y-61404699D01*
X31257353Y-61404701D01*
X31302206Y-61532880D01*
X31302207Y-61532882D01*
X31382850Y-61642150D01*
X31492118Y-61722793D01*
X31534845Y-61737744D01*
X31620299Y-61767646D01*
X31650730Y-61770500D01*
X31650734Y-61770500D01*
X32859270Y-61770500D01*
X32889699Y-61767646D01*
X32889701Y-61767646D01*
X32953790Y-61745219D01*
X33017882Y-61722793D01*
X33127150Y-61642150D01*
X33207793Y-61532882D01*
X33230219Y-61468790D01*
X33252646Y-61404701D01*
X33252646Y-61404699D01*
X33255500Y-61374269D01*
X33255500Y-60165730D01*
X33252646Y-60135300D01*
X33252646Y-60135298D01*
X33207793Y-60007119D01*
X33207792Y-60007117D01*
X33127150Y-59897850D01*
X33017882Y-59817207D01*
X33017880Y-59817206D01*
X32889700Y-59772353D01*
X32859270Y-59769500D01*
X32859266Y-59769500D01*
X31650734Y-59769500D01*
X31650730Y-59769500D01*
X31620300Y-59772353D01*
X31620298Y-59772353D01*
X31492119Y-59817206D01*
X31492117Y-59817207D01*
X31382850Y-59897850D01*
X31302207Y-60007117D01*
X31302206Y-60007119D01*
X31257353Y-60135298D01*
X31257353Y-60135300D01*
X31254500Y-60165730D01*
X20500500Y-60165730D01*
X20500500Y-59330730D01*
X45024500Y-59330730D01*
X45024500Y-60939269D01*
X45027353Y-60969699D01*
X45027353Y-60969701D01*
X45072206Y-61097880D01*
X45072207Y-61097882D01*
X45152850Y-61207150D01*
X45262118Y-61287793D01*
X45304845Y-61302744D01*
X45390299Y-61332646D01*
X45420730Y-61335500D01*
X45420734Y-61335500D01*
X47029270Y-61335500D01*
X47059699Y-61332646D01*
X47059701Y-61332646D01*
X47123790Y-61310219D01*
X47187882Y-61287793D01*
X47297150Y-61207150D01*
X47377793Y-61097882D01*
X47400219Y-61033790D01*
X47422646Y-60969701D01*
X47422646Y-60969699D01*
X47425500Y-60939269D01*
X47425500Y-59330730D01*
X50694500Y-59330730D01*
X50694500Y-60939269D01*
X50697353Y-60969699D01*
X50697353Y-60969701D01*
X50742206Y-61097880D01*
X50742207Y-61097882D01*
X50822850Y-61207150D01*
X50932118Y-61287793D01*
X50974845Y-61302744D01*
X51060299Y-61332646D01*
X51090730Y-61335500D01*
X51090734Y-61335500D01*
X52699270Y-61335500D01*
X52729699Y-61332646D01*
X52729701Y-61332646D01*
X52793790Y-61310219D01*
X52857882Y-61287793D01*
X52967150Y-61207150D01*
X53047793Y-61097882D01*
X53070219Y-61033790D01*
X53092646Y-60969701D01*
X53092646Y-60969699D01*
X53095500Y-60939269D01*
X53095500Y-59330730D01*
X53092646Y-59300300D01*
X53092646Y-59300298D01*
X53047793Y-59172119D01*
X53047792Y-59172117D01*
X52967150Y-59062850D01*
X52857882Y-58982207D01*
X52857880Y-58982206D01*
X52729700Y-58937353D01*
X52699270Y-58934500D01*
X52699266Y-58934500D01*
X51090734Y-58934500D01*
X51090730Y-58934500D01*
X51060300Y-58937353D01*
X51060298Y-58937353D01*
X50932119Y-58982206D01*
X50932117Y-58982207D01*
X50822850Y-59062850D01*
X50742207Y-59172117D01*
X50742206Y-59172119D01*
X50697353Y-59300298D01*
X50697353Y-59300300D01*
X50694500Y-59330730D01*
X47425500Y-59330730D01*
X47422646Y-59300300D01*
X47422646Y-59300298D01*
X47377793Y-59172119D01*
X47377792Y-59172117D01*
X47297150Y-59062850D01*
X47187882Y-58982207D01*
X47187880Y-58982206D01*
X47059700Y-58937353D01*
X47029270Y-58934500D01*
X47029266Y-58934500D01*
X45420734Y-58934500D01*
X45420730Y-58934500D01*
X45390300Y-58937353D01*
X45390298Y-58937353D01*
X45262119Y-58982206D01*
X45262117Y-58982207D01*
X45152850Y-59062850D01*
X45072207Y-59172117D01*
X45072206Y-59172119D01*
X45027353Y-59300298D01*
X45027353Y-59300300D01*
X45024500Y-59330730D01*
X20500500Y-59330730D01*
X20500500Y-57693543D01*
X27399499Y-57693543D01*
X27437947Y-57886829D01*
X27437950Y-57886839D01*
X27513364Y-58068907D01*
X27513371Y-58068920D01*
X27622860Y-58232781D01*
X27622863Y-58232785D01*
X27762214Y-58372136D01*
X27762218Y-58372139D01*
X27926079Y-58481628D01*
X27926092Y-58481635D01*
X28108160Y-58557049D01*
X28108165Y-58557051D01*
X28108169Y-58557051D01*
X28108170Y-58557052D01*
X28301456Y-58595500D01*
X28301459Y-58595500D01*
X28498543Y-58595500D01*
X28628582Y-58569632D01*
X28691835Y-58557051D01*
X28873914Y-58481632D01*
X29037782Y-58372139D01*
X29177139Y-58232782D01*
X29286632Y-58068914D01*
X29362051Y-57886835D01*
X29400500Y-57693541D01*
X29400500Y-57496459D01*
X29400500Y-57496456D01*
X29362052Y-57303170D01*
X29362051Y-57303169D01*
X29362051Y-57303165D01*
X29362049Y-57303160D01*
X29286635Y-57121092D01*
X29286628Y-57121079D01*
X29177139Y-56957218D01*
X29177136Y-56957214D01*
X29037785Y-56817863D01*
X29037781Y-56817860D01*
X28873920Y-56708371D01*
X28873907Y-56708364D01*
X28691839Y-56632950D01*
X28691829Y-56632947D01*
X28498543Y-56594500D01*
X28498541Y-56594500D01*
X28301459Y-56594500D01*
X28301457Y-56594500D01*
X28108170Y-56632947D01*
X28108160Y-56632950D01*
X27926092Y-56708364D01*
X27926079Y-56708371D01*
X27762218Y-56817860D01*
X27762214Y-56817863D01*
X27622863Y-56957214D01*
X27622860Y-56957218D01*
X27513371Y-57121079D01*
X27513364Y-57121092D01*
X27437950Y-57303160D01*
X27437947Y-57303170D01*
X27399500Y-57496456D01*
X27399500Y-57496459D01*
X27399500Y-57693541D01*
X27399500Y-57693543D01*
X27399499Y-57693543D01*
X20500500Y-57693543D01*
X20500500Y-49245513D01*
X31874500Y-49245513D01*
X31874500Y-49434486D01*
X31904059Y-49621118D01*
X31962454Y-49800836D01*
X32048240Y-49969199D01*
X32159310Y-50122073D01*
X32292927Y-50255690D01*
X32445801Y-50366760D01*
X32525347Y-50407290D01*
X32614163Y-50452545D01*
X32614165Y-50452545D01*
X32614168Y-50452547D01*
X32710497Y-50483846D01*
X32793881Y-50510940D01*
X32980514Y-50540500D01*
X32980519Y-50540500D01*
X33169486Y-50540500D01*
X33356118Y-50510940D01*
X33535832Y-50452547D01*
X33704199Y-50366760D01*
X33857073Y-50255690D01*
X33990690Y-50122073D01*
X34101760Y-49969199D01*
X34187547Y-49800832D01*
X34207069Y-49740748D01*
X34246507Y-49683073D01*
X34310865Y-49655875D01*
X34379712Y-49667790D01*
X34431187Y-49715034D01*
X34442930Y-49740746D01*
X34462453Y-49800832D01*
X34548240Y-49969199D01*
X34659310Y-50122073D01*
X34792927Y-50255690D01*
X34945801Y-50366760D01*
X35025347Y-50407290D01*
X35114163Y-50452545D01*
X35114165Y-50452545D01*
X35114168Y-50452547D01*
X35210497Y-50483846D01*
X35293881Y-50510940D01*
X35480514Y-50540500D01*
X35480519Y-50540500D01*
X35669486Y-50540500D01*
X35856118Y-50510940D01*
X36035832Y-50452547D01*
X36204199Y-50366760D01*
X36357073Y-50255690D01*
X36490690Y-50122073D01*
X36601760Y-49969199D01*
X36687547Y-49800832D01*
X36745940Y-49621118D01*
X36775500Y-49434486D01*
X36775500Y-49245513D01*
X44374500Y-49245513D01*
X44374500Y-49434486D01*
X44404059Y-49621118D01*
X44462454Y-49800836D01*
X44548240Y-49969199D01*
X44659310Y-50122073D01*
X44792927Y-50255690D01*
X44945801Y-50366760D01*
X45025347Y-50407290D01*
X45114163Y-50452545D01*
X45114165Y-50452545D01*
X45114168Y-50452547D01*
X45210497Y-50483846D01*
X45293881Y-50510940D01*
X45480514Y-50540500D01*
X45480519Y-50540500D01*
X45669486Y-50540500D01*
X45856118Y-50510940D01*
X46035832Y-50452547D01*
X46204199Y-50366760D01*
X46357073Y-50255690D01*
X46490690Y-50122073D01*
X46601760Y-49969199D01*
X46687547Y-49800832D01*
X46707069Y-49740748D01*
X46746507Y-49683073D01*
X46810865Y-49655875D01*
X46879712Y-49667790D01*
X46931187Y-49715034D01*
X46942930Y-49740746D01*
X46962453Y-49800832D01*
X47048240Y-49969199D01*
X47159310Y-50122073D01*
X47292927Y-50255690D01*
X47445801Y-50366760D01*
X47525347Y-50407290D01*
X47614163Y-50452545D01*
X47614165Y-50452545D01*
X47614168Y-50452547D01*
X47710497Y-50483846D01*
X47793881Y-50510940D01*
X47980514Y-50540500D01*
X47980519Y-50540500D01*
X48169486Y-50540500D01*
X48356118Y-50510940D01*
X48535832Y-50452547D01*
X48704199Y-50366760D01*
X48857073Y-50255690D01*
X48990690Y-50122073D01*
X49101760Y-49969199D01*
X49187547Y-49800832D01*
X49207069Y-49740748D01*
X49246507Y-49683073D01*
X49310865Y-49655875D01*
X49379712Y-49667790D01*
X49431187Y-49715034D01*
X49442930Y-49740746D01*
X49462453Y-49800832D01*
X49548240Y-49969199D01*
X49659310Y-50122073D01*
X49792927Y-50255690D01*
X49945801Y-50366760D01*
X50025347Y-50407290D01*
X50114163Y-50452545D01*
X50114165Y-50452545D01*
X50114168Y-50452547D01*
X50210497Y-50483846D01*
X50293881Y-50510940D01*
X50480514Y-50540500D01*
X50480519Y-50540500D01*
X50669486Y-50540500D01*
X50856118Y-50510940D01*
X51035832Y-50452547D01*
X51204199Y-50366760D01*
X51357073Y-50255690D01*
X51490690Y-50122073D01*
X51601760Y-49969199D01*
X51687547Y-49800832D01*
X51745940Y-49621118D01*
X51775500Y-49434486D01*
X51775500Y-49245513D01*
X51745940Y-49058881D01*
X51687545Y-48879163D01*
X51601759Y-48710800D01*
X51490690Y-48557927D01*
X51357073Y-48424310D01*
X51204199Y-48313240D01*
X51035836Y-48227454D01*
X50856118Y-48169059D01*
X50669486Y-48139500D01*
X50669481Y-48139500D01*
X50480519Y-48139500D01*
X50480514Y-48139500D01*
X50293881Y-48169059D01*
X50114163Y-48227454D01*
X49945800Y-48313240D01*
X49858579Y-48376610D01*
X49792927Y-48424310D01*
X49792925Y-48424312D01*
X49792924Y-48424312D01*
X49659312Y-48557924D01*
X49659312Y-48557925D01*
X49659310Y-48557927D01*
X49611610Y-48623579D01*
X49548240Y-48710800D01*
X49462454Y-48879163D01*
X49442931Y-48939251D01*
X49403493Y-48996926D01*
X49339134Y-49024124D01*
X49270288Y-49012209D01*
X49218812Y-48964965D01*
X49207069Y-48939251D01*
X49187545Y-48879163D01*
X49101759Y-48710800D01*
X48990690Y-48557927D01*
X48857073Y-48424310D01*
X48704199Y-48313240D01*
X48535836Y-48227454D01*
X48356118Y-48169059D01*
X48169486Y-48139500D01*
X48169481Y-48139500D01*
X47980519Y-48139500D01*
X47980514Y-48139500D01*
X47793881Y-48169059D01*
X47614163Y-48227454D01*
X47445800Y-48313240D01*
X47358579Y-48376610D01*
X47292927Y-48424310D01*
X47292925Y-48424312D01*
X47292924Y-48424312D01*
X47159312Y-48557924D01*
X47159312Y-48557925D01*
X47159310Y-48557927D01*
X47111610Y-48623579D01*
X47048240Y-48710800D01*
X46962454Y-48879163D01*
X46942931Y-48939251D01*
X46903493Y-48996926D01*
X46839134Y-49024124D01*
X46770288Y-49012209D01*
X46718812Y-48964965D01*
X46707069Y-48939251D01*
X46687545Y-48879163D01*
X46601759Y-48710800D01*
X46490690Y-48557927D01*
X46357073Y-48424310D01*
X46204199Y-48313240D01*
X46035836Y-48227454D01*
X45856118Y-48169059D01*
X45669486Y-48139500D01*
X45669481Y-48139500D01*
X45480519Y-48139500D01*
X45480514Y-48139500D01*
X45293881Y-48169059D01*
X45114163Y-48227454D01*
X44945800Y-48313240D01*
X44858579Y-48376610D01*
X44792927Y-48424310D01*
X44792925Y-48424312D01*
X44792924Y-48424312D01*
X44659312Y-48557924D01*
X44659312Y-48557925D01*
X44659310Y-48557927D01*
X44611610Y-48623579D01*
X44548240Y-48710800D01*
X44462454Y-48879163D01*
X44404059Y-49058881D01*
X44374500Y-49245513D01*
X36775500Y-49245513D01*
X36745940Y-49058881D01*
X36687545Y-48879163D01*
X36601759Y-48710800D01*
X36490690Y-48557927D01*
X36357073Y-48424310D01*
X36204199Y-48313240D01*
X36035836Y-48227454D01*
X35856118Y-48169059D01*
X35669486Y-48139500D01*
X35669481Y-48139500D01*
X35480519Y-48139500D01*
X35480514Y-48139500D01*
X35293881Y-48169059D01*
X35114163Y-48227454D01*
X34945800Y-48313240D01*
X34858579Y-48376610D01*
X34792927Y-48424310D01*
X34792925Y-48424312D01*
X34792924Y-48424312D01*
X34659312Y-48557924D01*
X34659312Y-48557925D01*
X34659310Y-48557927D01*
X34611610Y-48623579D01*
X34548240Y-48710800D01*
X34462454Y-48879163D01*
X34442931Y-48939251D01*
X34403493Y-48996926D01*
X34339134Y-49024124D01*
X34270288Y-49012209D01*
X34218812Y-48964965D01*
X34207069Y-48939251D01*
X34187545Y-48879163D01*
X34101759Y-48710800D01*
X33990690Y-48557927D01*
X33857073Y-48424310D01*
X33704199Y-48313240D01*
X33535836Y-48227454D01*
X33356118Y-48169059D01*
X33169486Y-48139500D01*
X33169481Y-48139500D01*
X32980519Y-48139500D01*
X32980514Y-48139500D01*
X32793881Y-48169059D01*
X32614163Y-48227454D01*
X32445800Y-48313240D01*
X32358579Y-48376610D01*
X32292927Y-48424310D01*
X32292925Y-48424312D01*
X32292924Y-48424312D01*
X32159312Y-48557924D01*
X32159312Y-48557925D01*
X32159310Y-48557927D01*
X32111610Y-48623579D01*
X32048240Y-48710800D01*
X31962454Y-48879163D01*
X31904059Y-49058881D01*
X31874500Y-49245513D01*
X20500500Y-49245513D01*
X20500500Y-20624500D01*
X20520185Y-20557461D01*
X20572989Y-20511706D01*
X20624500Y-20500500D01*
X62875500Y-20500500D01*
X62942539Y-20520185D01*
G37*
%TD.AperFunction*%
%TD*%
M02*
