%TF.GenerationSoftware,KiCad,Pcbnew,10.0.3-10.0.3~ubuntu26.04.1*%
%TF.CreationDate,2026-06-22T17:48:36+09:00*%
%TF.ProjectId,YDS512F_Unit,59445335-3132-4465-9f55-6e69742e6b69,rev?*%
%TF.SameCoordinates,Original*%
%TF.FileFunction,Copper,L1,Top*%
%TF.FilePolarity,Positive*%
%FSLAX46Y46*%
G04 Gerber Fmt 4.6, Leading zero omitted, Abs format (unit mm)*
G04 Created by KiCad (PCBNEW 10.0.3-10.0.3~ubuntu26.04.1) date 2026-06-22 17:48:36*
%MOMM*%
%LPD*%
G01*
G04 APERTURE LIST*
G04 Aperture macros list*
%AMRoundRect*
0 Rectangle with rounded corners*
0 $1 Rounding radius*
0 $2 $3 $4 $5 $6 $7 $8 $9 X,Y pos of 4 corners*
0 Add a 4 corners polygon primitive as box body*
4,1,4,$2,$3,$4,$5,$6,$7,$8,$9,$2,$3,0*
0 Add four circle primitives for the rounded corners*
1,1,$1+$1,$2,$3*
1,1,$1+$1,$4,$5*
1,1,$1+$1,$6,$7*
1,1,$1+$1,$8,$9*
0 Add four rect primitives between the rounded corners*
20,1,$1+$1,$2,$3,$4,$5,0*
20,1,$1+$1,$4,$5,$6,$7,0*
20,1,$1+$1,$6,$7,$8,$9,0*
20,1,$1+$1,$8,$9,$2,$3,0*%
G04 Aperture macros list end*
%TA.AperFunction,ComponentPad*%
%ADD10RoundRect,0.250000X-0.750000X-0.750000X0.750000X-0.750000X0.750000X0.750000X-0.750000X0.750000X0*%
%TD*%
%TA.AperFunction,ComponentPad*%
%ADD11C,2.000000*%
%TD*%
%TA.AperFunction,ComponentPad*%
%ADD12RoundRect,0.250000X0.750000X0.750000X-0.750000X0.750000X-0.750000X-0.750000X0.750000X-0.750000X0*%
%TD*%
%TA.AperFunction,ComponentPad*%
%ADD13RoundRect,0.250000X-0.550000X-0.550000X0.550000X-0.550000X0.550000X0.550000X-0.550000X0.550000X0*%
%TD*%
%TA.AperFunction,ComponentPad*%
%ADD14C,1.600000*%
%TD*%
%TA.AperFunction,ComponentPad*%
%ADD15R,1.700000X1.700000*%
%TD*%
%TA.AperFunction,ComponentPad*%
%ADD16C,1.700000*%
%TD*%
%TA.AperFunction,ComponentPad*%
%ADD17O,4.100000X2.400000*%
%TD*%
%TA.AperFunction,ViaPad*%
%ADD18C,0.600000*%
%TD*%
%TA.AperFunction,Conductor*%
%ADD19C,0.250000*%
%TD*%
G04 APERTURE END LIST*
D10*
%TO.P,C4,1*%
%TO.N,Net-(J1-Pin_2)*%
X51895000Y-60135000D03*
D11*
%TO.P,C4,2*%
%TO.N,Net-(J1-Pin_4)*%
X56895000Y-60135000D03*
%TD*%
D12*
%TO.P,C5,1*%
%TO.N,Net-(J1-Pin_2)*%
X46225000Y-60135000D03*
D11*
%TO.P,C5,2*%
%TO.N,Net-(J1-Pin_4)*%
X41225000Y-60135000D03*
%TD*%
D13*
%TO.P,C2,1*%
%TO.N,Net-(J1-Pin_6)*%
X32255000Y-60770000D03*
D14*
%TO.P,C2,2*%
%TO.N,Net-(J1-Pin_4)*%
X35755000Y-60770000D03*
%TD*%
D12*
%TO.P,C1,1*%
%TO.N,Net-(J1-Pin_6)*%
X27765000Y-65850000D03*
D11*
%TO.P,C1,2*%
%TO.N,Net-(J1-Pin_4)*%
X22765000Y-65850000D03*
%TD*%
D15*
%TO.P,J1,1,Pin_1_1*%
%TO.N,Net-(J1-Pin_1)*%
X49355000Y-67180000D03*
D16*
%TO.P,J1,2,Pin_2_2*%
%TO.N,Net-(J1-Pin_2)*%
X46815000Y-67180000D03*
%TO.P,J1,3,Pin_3_3*%
X44275000Y-67180000D03*
%TO.P,J1,4,Pin_4_4*%
%TO.N,Net-(J1-Pin_4)*%
X41735000Y-67180000D03*
%TO.P,J1,5,Pin_5_5*%
X39195000Y-67180000D03*
%TO.P,J1,6,Pin_6_6*%
%TO.N,Net-(J1-Pin_6)*%
X36655000Y-67180000D03*
%TO.P,J1,7,Pin_7_7*%
X34115000Y-67180000D03*
%TD*%
D14*
%TO.P,C3,1*%
%TO.N,Net-(J1-Pin_6)*%
X28400000Y-57595000D03*
%TO.P,C3,2*%
%TO.N,Net-(J1-Pin_4)*%
X23400000Y-57595000D03*
%TD*%
D11*
%TO.P,U1,1,Vin_1*%
%TO.N,Net-(J1-Pin_6)*%
X33075000Y-49340000D03*
%TO.P,U1,2,Vin_2*%
X35575000Y-49340000D03*
D17*
%TO.P,U1,3,GND_3*%
%TO.N,Net-(J1-Pin_4)*%
X24725000Y-22190000D03*
X24725000Y-52490000D03*
D11*
X38075000Y-49340000D03*
D17*
X58925000Y-22190000D03*
X58925000Y-52490000D03*
D11*
%TO.P,U1,4,GND_4*%
X43075000Y-49340000D03*
%TO.P,U1,5,VOUT_5*%
%TO.N,Net-(J1-Pin_2)*%
X45575000Y-49340000D03*
%TO.P,U1,6,VOUT_6*%
X48075000Y-49340000D03*
%TO.P,U1,7,Vadj_7*%
%TO.N,Net-(J1-Pin_1)*%
X50575000Y-49340000D03*
%TD*%
D18*
%TO.N,Net-(J1-Pin_4)*%
X35000000Y-35000000D03*
X30000000Y-35000000D03*
X55000000Y-70000000D03*
X25000000Y-35000000D03*
X30000000Y-25000000D03*
X40000000Y-25000000D03*
X45000000Y-25000000D03*
X25000000Y-45000000D03*
X25000000Y-40000000D03*
X55000000Y-25000000D03*
X40000000Y-40000000D03*
X60000000Y-40000000D03*
X60000000Y-35000000D03*
X55000000Y-35000000D03*
X45000000Y-35000000D03*
X50000000Y-40000000D03*
X50000000Y-45000000D03*
X55000000Y-40000000D03*
X52000000Y-66000000D03*
X50000000Y-25000000D03*
X40000000Y-35000000D03*
X60000000Y-70000000D03*
X50000000Y-70000000D03*
X55000000Y-45000000D03*
X35000000Y-30000000D03*
X35000000Y-45000000D03*
X60000000Y-45000000D03*
X45000000Y-30000000D03*
X40000000Y-30000000D03*
X30000000Y-45000000D03*
X30000000Y-30000000D03*
X50000000Y-35000000D03*
X45000000Y-45000000D03*
X45000000Y-40000000D03*
X50000000Y-30000000D03*
X35000000Y-40000000D03*
X60000000Y-30000000D03*
X30000000Y-40000000D03*
X55000000Y-30000000D03*
X40000000Y-45000000D03*
X25000000Y-30000000D03*
X35000000Y-25000000D03*
%TD*%
%TO.N,Net-(J1-Pin_1)*%
D19*
X62055000Y-51625000D02*
X62055000Y-64325000D01*
X50575000Y-49340000D02*
X50955000Y-49720000D01*
X50955000Y-49720000D02*
X60150000Y-49720000D01*
X62055000Y-64325000D02*
X59200000Y-67180000D01*
X60150000Y-49720000D02*
X62055000Y-51625000D01*
X59200000Y-67180000D02*
X49355000Y-67180000D01*
%TD*%
%TA.AperFunction,Conductor*%
%TO.N,Net-(J1-Pin_2)*%
G36*
X48370677Y-47199685D02*
G01*
X48391319Y-47216319D01*
X49318681Y-48143681D01*
X49352166Y-48205004D01*
X49355000Y-48231362D01*
X49355000Y-50990000D01*
X53383638Y-50990000D01*
X53450677Y-51009685D01*
X53471319Y-51026319D01*
X54398681Y-51953681D01*
X54432166Y-52015004D01*
X54435000Y-52041362D01*
X54435000Y-63908638D01*
X54415315Y-63975677D01*
X54398681Y-63996319D01*
X53471319Y-64923681D01*
X53409996Y-64957166D01*
X53383638Y-64960000D01*
X48085000Y-64960000D01*
X48085000Y-70448638D01*
X48065315Y-70515677D01*
X48048681Y-70536319D01*
X47621819Y-70963181D01*
X47560496Y-70996666D01*
X47534138Y-70999500D01*
X43555862Y-70999500D01*
X43488823Y-70979815D01*
X43468181Y-70963181D01*
X43041319Y-70536319D01*
X43007834Y-70474996D01*
X43005000Y-70448638D01*
X43005000Y-51676362D01*
X43024685Y-51609323D01*
X43041319Y-51588681D01*
X43603681Y-51026319D01*
X43665004Y-50992834D01*
X43691362Y-50990000D01*
X44275000Y-50990000D01*
X44275000Y-49437637D01*
X44275500Y-49434481D01*
X44275500Y-49245519D01*
X44275000Y-49242362D01*
X44275000Y-48231362D01*
X44294685Y-48164323D01*
X44311319Y-48143681D01*
X45238681Y-47216319D01*
X45300004Y-47182834D01*
X45326362Y-47180000D01*
X48303638Y-47180000D01*
X48370677Y-47199685D01*
G37*
%TD.AperFunction*%
%TD*%
%TA.AperFunction,Conductor*%
%TO.N,Net-(J1-Pin_6)*%
G36*
X36305677Y-47199685D02*
G01*
X36326319Y-47216319D01*
X37115296Y-48005296D01*
X37148781Y-48066619D01*
X37143797Y-48136311D01*
X37101925Y-48192244D01*
X37100504Y-48193293D01*
X37097490Y-48195482D01*
X36930485Y-48362487D01*
X36930485Y-48362488D01*
X36930483Y-48362490D01*
X36870862Y-48444550D01*
X36791657Y-48553566D01*
X36684433Y-48764003D01*
X36611446Y-48988631D01*
X36574500Y-49221902D01*
X36574500Y-49458097D01*
X36611446Y-49691368D01*
X36684433Y-49915996D01*
X36791657Y-50126433D01*
X36930483Y-50317510D01*
X37097490Y-50484517D01*
X37238886Y-50587247D01*
X37281551Y-50642576D01*
X37290000Y-50687564D01*
X37290000Y-56288638D01*
X37270315Y-56355677D01*
X37253681Y-56376319D01*
X36326319Y-57303681D01*
X36264996Y-57337166D01*
X36238638Y-57340000D01*
X34115000Y-57340000D01*
X34115000Y-64074000D01*
X34095315Y-64141039D01*
X34042511Y-64186794D01*
X33991000Y-64198000D01*
X30305000Y-64198000D01*
X30305000Y-64325000D01*
X34115000Y-64325000D01*
X36873638Y-64325000D01*
X36940677Y-64344685D01*
X36961319Y-64361319D01*
X37888681Y-65288681D01*
X37922166Y-65350004D01*
X37925000Y-65376362D01*
X37925000Y-66698709D01*
X37918931Y-66737028D01*
X37877754Y-66863756D01*
X37844500Y-67073713D01*
X37844500Y-67286286D01*
X37877753Y-67496239D01*
X37918931Y-67622971D01*
X37925000Y-67661289D01*
X37925000Y-70448638D01*
X37905315Y-70515677D01*
X37888681Y-70536319D01*
X37461819Y-70963181D01*
X37400496Y-70996666D01*
X37374138Y-70999500D01*
X25775862Y-70999500D01*
X25708823Y-70979815D01*
X25688181Y-70963181D01*
X25261319Y-70536319D01*
X25227834Y-70474996D01*
X25225000Y-70448638D01*
X25225000Y-55851362D01*
X25244685Y-55784323D01*
X25261319Y-55763681D01*
X26188681Y-54836319D01*
X26250004Y-54802834D01*
X26276362Y-54800000D01*
X27765000Y-54800000D01*
X27765000Y-48231362D01*
X27784685Y-48164323D01*
X27801319Y-48143681D01*
X28728681Y-47216319D01*
X28790004Y-47182834D01*
X28816362Y-47180000D01*
X36238638Y-47180000D01*
X36305677Y-47199685D01*
G37*
%TD.AperFunction*%
%TD*%
%TA.AperFunction,Conductor*%
%TO.N,Net-(J1-Pin_4)*%
G36*
X62892606Y-20505523D02*
G01*
X62907604Y-20509927D01*
X62922594Y-20519557D01*
X62939675Y-20524567D01*
X62966355Y-20547672D01*
X62967542Y-20549041D01*
X62995018Y-20603902D01*
X62996663Y-20611460D01*
X62999500Y-20637831D01*
X62999500Y-70857670D01*
X62994475Y-70892614D01*
X62990070Y-70907612D01*
X62980439Y-70922601D01*
X62975432Y-70939675D01*
X62952327Y-70966355D01*
X62950958Y-70967542D01*
X62896097Y-70995018D01*
X62888539Y-70996663D01*
X62862168Y-70999500D01*
X48581049Y-70999500D01*
X48514010Y-70979815D01*
X48468255Y-70927011D01*
X48458311Y-70857853D01*
X48480470Y-70802975D01*
X48490567Y-70788974D01*
X48550338Y-70658097D01*
X48570023Y-70591058D01*
X48570024Y-70591054D01*
X48590500Y-70448638D01*
X48590500Y-68654499D01*
X48610185Y-68587460D01*
X48662989Y-68541705D01*
X48714500Y-68530499D01*
X50252871Y-68530499D01*
X50252872Y-68530499D01*
X50312483Y-68524091D01*
X50447331Y-68473796D01*
X50562546Y-68387546D01*
X50648796Y-68272331D01*
X50699091Y-68137483D01*
X50705500Y-68077873D01*
X50705500Y-67947329D01*
X50710523Y-67912393D01*
X50714927Y-67897395D01*
X50752672Y-67838644D01*
X50752700Y-67838619D01*
X50752699Y-67838619D01*
X50754041Y-67837456D01*
X50808920Y-67809977D01*
X50816479Y-67808333D01*
X50842832Y-67805500D01*
X59261607Y-67805500D01*
X59322029Y-67793481D01*
X59382452Y-67781463D01*
X59415792Y-67767652D01*
X59496286Y-67734312D01*
X59547509Y-67700084D01*
X59550009Y-67698414D01*
X59560271Y-67691556D01*
X59598733Y-67665858D01*
X59685858Y-67578733D01*
X59685858Y-67578732D01*
X59698285Y-67566306D01*
X59698287Y-67566303D01*
X59698290Y-67566300D01*
X59699866Y-67564723D01*
X59703038Y-67561549D01*
X59706259Y-67558328D01*
X59706265Y-67558325D01*
X59706267Y-67558323D01*
X59706274Y-67558313D01*
X62540858Y-64723733D01*
X62609312Y-64621285D01*
X62656463Y-64507451D01*
X62656496Y-64507288D01*
X62680500Y-64386606D01*
X62680500Y-51563394D01*
X62656463Y-51442548D01*
X62656461Y-51442543D01*
X62638505Y-51399193D01*
X62638504Y-51399191D01*
X62637674Y-51397187D01*
X62637667Y-51397171D01*
X62636932Y-51395397D01*
X62609312Y-51328715D01*
X62609309Y-51328710D01*
X62592259Y-51303193D01*
X62592256Y-51303190D01*
X62540927Y-51226371D01*
X62540917Y-51226339D01*
X62540861Y-51226270D01*
X62540861Y-51226271D01*
X62540858Y-51226267D01*
X62540856Y-51226264D01*
X62450637Y-51136045D01*
X62450621Y-51136030D01*
X62449176Y-51134585D01*
X62449176Y-51134584D01*
X62449144Y-51134554D01*
X60643150Y-49328560D01*
X60635860Y-49321270D01*
X60635858Y-49321267D01*
X60548733Y-49234142D01*
X60497509Y-49199915D01*
X60490840Y-49195458D01*
X60490838Y-49195457D01*
X60446344Y-49165726D01*
X60446344Y-49165727D01*
X60446279Y-49165683D01*
X60444846Y-49164983D01*
X60442218Y-49164001D01*
X60442215Y-49164001D01*
X60386191Y-49140796D01*
X60368825Y-49133603D01*
X60368099Y-49133302D01*
X60365793Y-49132347D01*
X60365792Y-49132346D01*
X60365792Y-49132347D01*
X60332452Y-49118537D01*
X60332444Y-49118535D01*
X60272041Y-49106520D01*
X60272034Y-49106519D01*
X60261378Y-49104398D01*
X60261332Y-49104390D01*
X60227793Y-49097719D01*
X60211610Y-49094500D01*
X60211609Y-49094500D01*
X52179057Y-49094500D01*
X52179052Y-49094499D01*
X52179050Y-49094500D01*
X52144116Y-49089475D01*
X52129117Y-49085070D01*
X52070347Y-49047300D01*
X52066029Y-49042317D01*
X52048865Y-49005425D01*
X52047471Y-49006136D01*
X52043145Y-48997646D01*
X52038762Y-48986738D01*
X52038333Y-48985952D01*
X52038233Y-48985421D01*
X52034906Y-48977140D01*
X52028048Y-48954392D01*
X52025312Y-48947880D01*
X52016785Y-48921639D01*
X51965568Y-48764008D01*
X51858343Y-48553567D01*
X51719517Y-48362490D01*
X51552510Y-48195483D01*
X51361433Y-48056657D01*
X51150996Y-47949433D01*
X50926368Y-47876446D01*
X50926362Y-47876445D01*
X50693102Y-47839500D01*
X50693097Y-47839500D01*
X50693092Y-47839500D01*
X50456908Y-47839500D01*
X50456903Y-47839500D01*
X50456898Y-47839500D01*
X50223636Y-47876445D01*
X50223634Y-47876445D01*
X50223631Y-47876446D01*
X49999003Y-47949433D01*
X49999001Y-47949433D01*
X49999001Y-47949434D01*
X49941742Y-47978609D01*
X49873073Y-47991505D01*
X49808333Y-47965228D01*
X49776616Y-47927551D01*
X49762350Y-47901425D01*
X49762349Y-47901424D01*
X49762347Y-47901420D01*
X49676123Y-47786239D01*
X49676118Y-47786234D01*
X49676113Y-47786228D01*
X48748776Y-46858892D01*
X48748770Y-46858886D01*
X48748761Y-46858877D01*
X48748737Y-46858855D01*
X48708519Y-46822728D01*
X48708507Y-46822718D01*
X48687856Y-46806076D01*
X48643974Y-46774433D01*
X48513100Y-46714663D01*
X48446055Y-46694976D01*
X48398582Y-46688150D01*
X48303638Y-46674500D01*
X48303636Y-46674500D01*
X45326360Y-46674500D01*
X45272311Y-46677397D01*
X45272310Y-46677397D01*
X45245977Y-46680229D01*
X45245950Y-46680232D01*
X45192554Y-46688885D01*
X45192552Y-46688885D01*
X45057747Y-46739166D01*
X44996422Y-46772651D01*
X44881240Y-46858876D01*
X44881228Y-46858886D01*
X43953892Y-47786223D01*
X43953855Y-47786262D01*
X43917728Y-47826480D01*
X43917718Y-47826492D01*
X43901076Y-47847143D01*
X43869433Y-47891025D01*
X43809663Y-48021899D01*
X43789976Y-48088944D01*
X43769500Y-48231363D01*
X43769500Y-49242367D01*
X43769618Y-49243861D01*
X43770000Y-49253590D01*
X43770000Y-49426407D01*
X43769618Y-49436134D01*
X43769500Y-49437624D01*
X43769500Y-50362780D01*
X43749815Y-50429819D01*
X43697011Y-50475574D01*
X43652144Y-50486602D01*
X43641089Y-50487195D01*
X43637322Y-50487397D01*
X43637319Y-50487397D01*
X43637306Y-50487398D01*
X43610977Y-50490229D01*
X43610950Y-50490232D01*
X43557554Y-50498885D01*
X43557552Y-50498885D01*
X43422747Y-50549166D01*
X43422744Y-50549167D01*
X43422743Y-50549168D01*
X43412404Y-50554813D01*
X43361422Y-50582651D01*
X43246240Y-50668876D01*
X43246228Y-50668886D01*
X42683892Y-51231223D01*
X42683855Y-51231262D01*
X42647728Y-51271480D01*
X42647718Y-51271492D01*
X42631076Y-51292143D01*
X42599433Y-51336025D01*
X42539663Y-51466899D01*
X42519976Y-51533944D01*
X42499500Y-51676363D01*
X42499500Y-70448640D01*
X42502397Y-70502688D01*
X42502397Y-70502689D01*
X42505229Y-70529022D01*
X42505232Y-70529049D01*
X42513885Y-70582445D01*
X42513885Y-70582447D01*
X42517096Y-70591055D01*
X42564168Y-70717257D01*
X42597653Y-70778580D01*
X42614579Y-70801191D01*
X42638995Y-70866655D01*
X42624143Y-70934928D01*
X42574737Y-70984333D01*
X42515311Y-70999500D01*
X38421049Y-70999500D01*
X38354010Y-70979815D01*
X38308255Y-70927011D01*
X38298311Y-70857853D01*
X38320470Y-70802975D01*
X38330567Y-70788974D01*
X38390338Y-70658097D01*
X38410023Y-70591058D01*
X38410024Y-70591054D01*
X38430500Y-70448638D01*
X38430500Y-67661289D01*
X38424276Y-67582211D01*
X38418207Y-67543893D01*
X38411867Y-67517486D01*
X38399697Y-67466787D01*
X38399692Y-67466770D01*
X38399691Y-67466769D01*
X38399690Y-67466762D01*
X38373819Y-67387140D01*
X38369281Y-67368240D01*
X38351525Y-67256128D01*
X38350000Y-67236743D01*
X38350000Y-67123250D01*
X38351525Y-67103865D01*
X38369282Y-66991749D01*
X38373821Y-66972848D01*
X38399689Y-66893238D01*
X38418208Y-66816104D01*
X38424277Y-66777785D01*
X38430500Y-66698709D01*
X38430500Y-65376362D01*
X38427603Y-65322322D01*
X38424769Y-65295964D01*
X38416114Y-65242552D01*
X38365832Y-65107743D01*
X38332347Y-65046420D01*
X38246123Y-64931239D01*
X38246118Y-64931234D01*
X38246113Y-64931228D01*
X37318776Y-64003892D01*
X37318761Y-64003877D01*
X37318737Y-64003855D01*
X37278519Y-63967728D01*
X37278507Y-63967718D01*
X37257856Y-63951076D01*
X37213974Y-63919433D01*
X37083100Y-63859663D01*
X37016055Y-63839976D01*
X36968582Y-63833150D01*
X36873638Y-63819500D01*
X36873636Y-63819500D01*
X34744500Y-63819500D01*
X34677461Y-63799815D01*
X34631706Y-63747011D01*
X34620500Y-63695500D01*
X34620500Y-57969500D01*
X34640185Y-57902461D01*
X34692989Y-57856706D01*
X34744500Y-57845500D01*
X36238640Y-57845500D01*
X36248786Y-57844955D01*
X36292678Y-57842603D01*
X36292686Y-57842602D01*
X36292688Y-57842602D01*
X36292689Y-57842602D01*
X36299682Y-57841849D01*
X36319036Y-57839769D01*
X36319046Y-57839767D01*
X36319049Y-57839767D01*
X36328648Y-57838211D01*
X36372448Y-57831114D01*
X36507257Y-57780832D01*
X36568580Y-57747347D01*
X36683761Y-57661123D01*
X37611123Y-56733761D01*
X37647288Y-56693500D01*
X37663922Y-56672858D01*
X37695567Y-56628974D01*
X37755338Y-56498097D01*
X37775023Y-56431058D01*
X37775024Y-56431054D01*
X37795500Y-56288638D01*
X37795500Y-50687564D01*
X37786814Y-50594259D01*
X37778365Y-50549271D01*
X37752608Y-50459177D01*
X37681858Y-50333894D01*
X37639193Y-50278565D01*
X37639192Y-50278564D01*
X37639187Y-50278559D01*
X37536022Y-50178299D01*
X37536017Y-50178295D01*
X37536011Y-50178289D01*
X37434693Y-50104677D01*
X37419897Y-50092040D01*
X37322963Y-49995106D01*
X37310326Y-49980311D01*
X37229734Y-49869386D01*
X37219567Y-49852795D01*
X37157326Y-49730641D01*
X37149880Y-49712665D01*
X37107514Y-49582278D01*
X37102972Y-49563356D01*
X37081527Y-49427952D01*
X37080000Y-49408555D01*
X37080000Y-49271442D01*
X37081527Y-49252045D01*
X37102973Y-49116634D01*
X37107512Y-49097726D01*
X37149883Y-48967324D01*
X37157322Y-48949364D01*
X37219571Y-48827194D01*
X37229729Y-48810617D01*
X37310328Y-48699683D01*
X37322953Y-48684901D01*
X37454932Y-48552924D01*
X37454931Y-48552923D01*
X37473757Y-48534098D01*
X37474617Y-48531170D01*
X37482707Y-48519999D01*
X37486735Y-48515041D01*
X37506595Y-48495184D01*
X37548467Y-48439251D01*
X37548473Y-48439243D01*
X37617426Y-48312962D01*
X37648009Y-48172370D01*
X37652993Y-48102678D01*
X37642729Y-47959167D01*
X37592447Y-47824358D01*
X37558962Y-47763035D01*
X37472738Y-47647854D01*
X37472733Y-47647849D01*
X37472728Y-47647843D01*
X36683776Y-46858892D01*
X36683770Y-46858886D01*
X36683761Y-46858877D01*
X36683737Y-46858855D01*
X36643519Y-46822728D01*
X36643507Y-46822718D01*
X36622856Y-46806076D01*
X36578974Y-46774433D01*
X36448100Y-46714663D01*
X36381055Y-46694976D01*
X36333582Y-46688150D01*
X36238638Y-46674500D01*
X36238636Y-46674500D01*
X28816360Y-46674500D01*
X28762311Y-46677397D01*
X28762310Y-46677397D01*
X28735977Y-46680229D01*
X28735950Y-46680232D01*
X28682554Y-46688885D01*
X28682552Y-46688885D01*
X28547747Y-46739166D01*
X28486422Y-46772651D01*
X28371240Y-46858876D01*
X28371228Y-46858886D01*
X27443892Y-47786223D01*
X27443855Y-47786262D01*
X27407728Y-47826480D01*
X27407718Y-47826492D01*
X27391076Y-47847143D01*
X27359433Y-47891025D01*
X27299663Y-48021899D01*
X27279976Y-48088944D01*
X27259500Y-48231363D01*
X27259500Y-54170500D01*
X27239815Y-54237539D01*
X27187011Y-54283294D01*
X27135500Y-54294500D01*
X26276360Y-54294500D01*
X26222311Y-54297397D01*
X26222310Y-54297397D01*
X26195977Y-54300229D01*
X26195950Y-54300232D01*
X26142554Y-54308885D01*
X26142552Y-54308885D01*
X26007747Y-54359166D01*
X25946422Y-54392651D01*
X25831240Y-54478876D01*
X25831228Y-54478886D01*
X24903892Y-55406223D01*
X24903855Y-55406262D01*
X24867728Y-55446480D01*
X24867718Y-55446492D01*
X24851076Y-55467143D01*
X24819433Y-55511025D01*
X24759663Y-55641899D01*
X24739976Y-55708944D01*
X24719500Y-55851363D01*
X24719500Y-70448640D01*
X24722397Y-70502688D01*
X24722397Y-70502689D01*
X24725229Y-70529022D01*
X24725232Y-70529049D01*
X24733885Y-70582445D01*
X24733885Y-70582447D01*
X24737096Y-70591055D01*
X24784168Y-70717257D01*
X24817653Y-70778580D01*
X24834579Y-70801191D01*
X24858995Y-70866655D01*
X24844143Y-70934928D01*
X24794737Y-70984333D01*
X24735311Y-70999500D01*
X20642330Y-70999500D01*
X20642325Y-70999499D01*
X20642323Y-70999500D01*
X20607389Y-70994475D01*
X20592390Y-70990070D01*
X20533644Y-70952327D01*
X20533615Y-70952293D01*
X20533614Y-70952293D01*
X20533613Y-70952291D01*
X20532457Y-70950958D01*
X20504977Y-70896083D01*
X20503332Y-70888521D01*
X20500500Y-70862168D01*
X20500500Y-20642329D01*
X20505523Y-20607393D01*
X20509927Y-20592395D01*
X20547672Y-20533644D01*
X20547700Y-20533619D01*
X20547699Y-20533619D01*
X20549041Y-20532456D01*
X20603920Y-20504977D01*
X20611479Y-20503333D01*
X20637832Y-20500500D01*
X62857670Y-20500500D01*
X62892606Y-20505523D01*
G37*
%TD.AperFunction*%
%TA.AperFunction,Conductor*%
G36*
X59856650Y-50350521D02*
G01*
X59881894Y-50357934D01*
X59934640Y-50389230D01*
X61380574Y-51835164D01*
X61401723Y-51863415D01*
X61414331Y-51886504D01*
X61429500Y-51945933D01*
X61429500Y-63996717D01*
X61424476Y-64031654D01*
X61417064Y-64056895D01*
X61385769Y-64109639D01*
X58989836Y-66505573D01*
X58961585Y-66526722D01*
X58938497Y-66539330D01*
X58879067Y-66554500D01*
X50847329Y-66554500D01*
X50812388Y-66549475D01*
X50797389Y-66545070D01*
X50738643Y-66507327D01*
X50737456Y-66505958D01*
X50709976Y-66451083D01*
X50708331Y-66443521D01*
X50705499Y-66417168D01*
X50705499Y-66282122D01*
X50705339Y-66280197D01*
X50705113Y-66278543D01*
X50699091Y-66222516D01*
X50648797Y-66087671D01*
X50648793Y-66087664D01*
X50562547Y-65972455D01*
X50562544Y-65972452D01*
X50562542Y-65972450D01*
X50504616Y-65929086D01*
X50447335Y-65886206D01*
X50447332Y-65886204D01*
X50447330Y-65886203D01*
X50447328Y-65886202D01*
X50312482Y-65835908D01*
X50312483Y-65835908D01*
X50252883Y-65829501D01*
X50252881Y-65829500D01*
X50252873Y-65829500D01*
X50252864Y-65829500D01*
X50251841Y-65829500D01*
X48714500Y-65829500D01*
X48647461Y-65809815D01*
X48601706Y-65757011D01*
X48590500Y-65705500D01*
X48590500Y-65589500D01*
X48610185Y-65522461D01*
X48662989Y-65476706D01*
X48714500Y-65465500D01*
X53383640Y-65465500D01*
X53393786Y-65464955D01*
X53437678Y-65462603D01*
X53437686Y-65462602D01*
X53437688Y-65462602D01*
X53437689Y-65462602D01*
X53444682Y-65461849D01*
X53464036Y-65459769D01*
X53464046Y-65459767D01*
X53464049Y-65459767D01*
X53473648Y-65458211D01*
X53517448Y-65451114D01*
X53652257Y-65400832D01*
X53713580Y-65367347D01*
X53828761Y-65281123D01*
X54756123Y-64353761D01*
X54792288Y-64313500D01*
X54808922Y-64292858D01*
X54840567Y-64248974D01*
X54900338Y-64118097D01*
X54920023Y-64051058D01*
X54920024Y-64051054D01*
X54940500Y-63908638D01*
X54940500Y-52041362D01*
X54937603Y-51987322D01*
X54934769Y-51960964D01*
X54926114Y-51907552D01*
X54875832Y-51772743D01*
X54842347Y-51711420D01*
X54756123Y-51596239D01*
X54756118Y-51596234D01*
X54756113Y-51596228D01*
X53828776Y-50668892D01*
X53828770Y-50668886D01*
X53828761Y-50668877D01*
X53828737Y-50668855D01*
X53788519Y-50632728D01*
X53788507Y-50632718D01*
X53767856Y-50616076D01*
X53723975Y-50584434D01*
X53723976Y-50584434D01*
X53723974Y-50584433D01*
X53719289Y-50582293D01*
X53666487Y-50536540D01*
X53646802Y-50469501D01*
X53666486Y-50402461D01*
X53719290Y-50356706D01*
X53770802Y-50345500D01*
X59821718Y-50345500D01*
X59856650Y-50350521D01*
G37*
%TD.AperFunction*%
%TD*%
M02*
